<svg xmlns="http://www.w3.org/2000/svg" height="224" width="244"><path d="M223.333 207.061c-33.5-29.366-25.937-25.235-61.333-33.5l-34-8.033-32.316-7.619c-5.674-1.314-10.147-2.557-9.941-2.763s13.849-1.326 30.316-2.489l34.607-2.858 4.667-.745-7.333-6.621c-4.033-3.642-12.539-11.084-18.901-16.537l-11.568-9.916-49.765 42.862-63.071 52.897c1.452-1.978 21.291-27.778 44.087-57.333l73.209-95.071 32.291-41.961c.291-.345 1.046.207 1.676 1.227 1.958 3.168 84.268 201.621 83.809 202.067-.238.232-7.633-5.89-16.433-13.604zM44.701 61.857c-.539-6.522-1.232-12.275-1.542-12.786s-3.002-.068-5.983.984l-5.421 1.913 2.843-4.819c1.564-2.65 2.576-5.086 2.249-5.413s-6.501-1.663-13.721-2.969L10 36.392l8-.921 14.333-1.654c3.483-.403 6.333-.904 6.333-1.112s-.908-2.552-2.018-5.208-1.744-4.829-1.41-4.829 2.687 1.227 5.228 2.726l4.62 2.726 1.348-6.392c.741-3.516 1.769-9.27 2.284-12.787s1.144-6.187 1.398-5.934 1.064 5.764 1.8 12.245 1.626 12.07 1.977 12.421 2.566-.034 4.922-.856c5.292-1.845 6.074-1.202 3.321 2.729C60.961 31.221 60 33.252 60 34.056s4.95 2.249 11 3.209c16.14 2.562 16.387 3.633 1.09 4.728-15.038 1.076-14.243.393-11.352 9.762l.953 3.089-4.512-2.751c-2.482-1.513-4.843-2.753-5.247-2.756s-1.538 4.645-2.519 10.328c-2.596 15.034-3.612 15.507-4.712 2.191z"/></svg>