<svg xmlns="http://www.w3.org/2000/svg" viewBox="0 0 244 224"><path d="M223.333 207.061c-33.5-29.366-25.937-25.235-61.333-33.5l-34-8.033-32.316-7.619c-5.674-1.314-10.147-2.557-9.941-2.763s13.849-1.326 30.316-2.489l34.607-2.858 4.667-.745-7.333-6.621c-4.033-3.642-12.539-11.084-18.901-16.537l-11.568-9.916-49.765 42.862-63.071 52.897c1.452-1.978 21.291-27.778 44.087-57.333l73.209-95.071 32.291-41.961c.291-.345 1.046.207 1.676 1.227 1.958 3.168 84.268 201.621 83.809 202.067-.238.232-7.633-5.89-16.433-13.604zM44.012 87.486c-.728-8.805-1.663-16.571-2.082-17.261s-4.053-.092-8.077 1.328l-7.318 2.583 3.838-6.506c2.111-3.578 3.478-6.866 3.036-7.308s-8.776-2.245-18.523-4.008L2.882 53.272l5.084-1.407 19.35-2.233c4.702-.544 8.55-1.22 8.55-1.501s-1.226-3.445-2.724-7.031-2.354-6.519-1.904-6.519 3.627 1.656 7.058 3.68l6.237 3.68 1.82-8.629a341.06 341.06 0 0 0 3.083-17.262c.695-4.748 1.544-8.352 1.887-8.011s1.436 7.781 2.43 16.531 2.195 16.295 2.669 16.768 3.464-.046 6.645-1.156c7.144-2.491 8.2-1.623 4.483 3.684-1.586 2.261-2.884 5.003-2.884 6.089s6.683 3.036 14.85 4.332c21.789 3.459 22.122 4.905 1.472 6.383-20.301 1.453-19.228.531-15.325 13.179l1.287 4.17-6.091-3.714c-3.351-2.043-6.538-3.717-7.083-3.721s-2.076 6.271-3.401 13.943c-3.505 20.296-4.876 20.934-6.361 2.958z"/></svg>