<svg xmlns="http://www.w3.org/2000/svg" viewBox="0 0 448 512"><path d="m 74.093701,414.24947 h 28.000019 c 6.627,0 11.9996,-5.37259 12.0003,-12.00031 l -7e-4,-219.38624 241.42888,241.42888 c 4.686,4.686 12.28457,4.686 16.97056,0 l 19.79899,-19.79899 c 4.686,-4.68599 4.686,-12.28456 0,-16.97056 l -241.42888,-241.42888 219.38695,0 c 6.627,0 11.9996,-5.3726 12.00031,-12.00031 v -28.00001 c 0,-6.627009 -5.3726,-11.999607 -12.00031,-12.000314 H 74.093701 c -6.627005,0 -11.999602,5.372598 -12.000309,12.000314 l 7.07e-4,296.15682 c -7.07e-4,6.62771 5.37189,12.00031 11.999602,11.9996 z"/></svg>