<svg xmlns="http://www.w3.org/2000/svg" xmlns:xlink="http://www.w3.org/1999/xlink" preserveAspectRatio="xMidYMid meet" viewBox="0 0 30 19.483" height="25.977" width="40" xmlns:v="https://vecta.io/nano"><use xlink:href="#B"/><use xlink:href="#B" x="20.206" y="0.051"/><path d="M15.08.038c-.012.316-.156.887-.346 1.363-.44 1.092-1.525 2.194-2.697 2.743-.456.216-1.23.438-1.52.438a.57.57 0 0 0-.237.055c-.064.04-.035.055.12.055.543 0 1.71.42 2.345.837a7.36 7.36 0 0 1 1.38 1.302c.497.67.843 1.513.94 2.31l.04.344.04-.305c.12-.826.37-1.48.826-2.15.866-1.27 2.24-2.128 3.748-2.333.266-.04.277-.044.115-.078-1.6-.344-2.425-.76-3.27-1.635-.745-.78-1.138-1.513-1.357-2.532-.075-.37-.133-.532-.133-.416zm.416 2.765c.364.72 1.38 1.53 2.148 1.712l.404.094c.156.04.14.05-.202.116-1.247.25-2.333 1.297-2.65 2.55-.07.288-.1.377-.116.266-.006-.244-.167-.72-.364-1.103-.445-.842-1.738-1.73-2.558-1.75-.15 0-.156-.01-.058-.05.064-.022.29-.09.502-.14.722-.177 1.525-.754 1.97-1.424.23-.35.497-1.042.508-1.33.006-.133.035-.06.116.255.064.238.196.604.3.803z"/><defs ><path id="B" d="M4.88 9.487c-.012.332-.157.933-.35 1.435-.443 1.15-1.54 2.3-2.724 2.887-.46.227-1.242.46-1.534.46-.082 0-.192.03-.24.058-.064.04-.035.058.122.058.548 0 1.727.443 2.368.88a7.57 7.57 0 0 1 1.394 1.371c.502.706.852 1.592.95 2.432l.04.362.04-.32c.122-.87.373-1.557.834-2.263.875-1.336 2.263-2.24 3.786-2.456.268-.04.28-.047.117-.082-1.616-.362-2.45-.8-3.3-1.72a5.21 5.21 0 0 1-1.371-2.666c-.076-.39-.134-.56-.134-.437zm.42 2.91c.367.758 1.394 1.6 2.17 1.802l.408.1c.157.04.14.052-.204.122-1.26.262-2.357 1.365-2.677 2.683-.07.303-.11.397-.117.28-.006-.257-.17-.758-.367-1.16-.45-.887-1.756-1.82-2.584-1.843-.152 0-.157-.012-.058-.052a6.39 6.39 0 0 1 .507-.146c.73-.187 1.54-.793 1.99-1.5.233-.367.502-1.097.513-1.4.006-.14.035-.064.117.268.064.25.198.636.303.846z"/></defs></svg>