<svg xmlns="http://www.w3.org/2000/svg" xmlns:xlink="http://www.w3.org/1999/xlink" preserveAspectRatio="xMidYMid meet" viewBox="0 0 22.358 20.296" height="27.06" width="29.811" xmlns:v="https://vecta.io/nano">
	<use xlink:href="#A" transform="rotate(270 5.399 14.846)"/>
	<use xlink:href="#A" x="20.206" y=".051" transform="rotate(270 21.69 18.812)"/>
	<path d="M6.607 4.86c.316.012.887.156 1.363.346 1.092.44 2.194 1.525 2.743 2.697.216.456.438 1.23.438 1.52a.57.57 0 0 0 .055.237c.04.064.055.035.055-.12 0-.543.42-1.7.837-2.345a7.36 7.36 0 0 1 1.302-1.38c.67-.497 1.513-.843 2.3-.94l.344-.04-.305-.04c-.826-.12-1.48-.37-2.15-.826-1.27-.866-2.128-2.24-2.333-3.748-.04-.266-.044-.277-.078-.115-.344 1.6-.76 2.425-1.635 3.27-.78.745-1.513 1.138-2.532 1.357-.37.075-.532.133-.416.133zm2.765-.416c.72-.364 1.53-1.38 1.712-2.148l.094-.404c.04-.156.05-.14.116.202.25 1.247 1.297 2.333 2.55 2.65.288.07.377.1.266.116-.244.006-.72.167-1.103.364-.842.445-1.73 1.738-1.75 2.558 0 .15-.01.156-.05.058a6.75 6.75 0 0 1-.14-.502c-.177-.722-.754-1.525-1.424-1.97-.35-.23-1.042-.497-1.33-.508-.133-.006-.06-.035.255-.116a4.8 4.8 0 0 0 .803-.3z"/>
	<defs>
		<path id="A" d="M4.88 9.487c-.012.332-.157.933-.35 1.435-.443 1.15-1.54 2.3-2.724 2.887-.46.227-1.242.46-1.534.46a.58.58 0 0 0-.24.058c-.064.04-.035.058.122.058.548 0 1.727.443 2.368.88a7.57 7.57 0 0 1 1.394 1.371c.502.706.852 1.592.95 2.432l.04.362.04-.32c.122-.87.373-1.557.834-2.263.875-1.336 2.263-2.24 3.786-2.456.268-.04.28-.047.117-.082-1.616-.362-2.45-.8-3.3-1.72a5.21 5.21 0 0 1-1.371-2.666c-.076-.4-.134-.56-.134-.437zm.42 2.9c.367.758 1.394 1.6 2.17 1.802l.408.1c.157.04.14.052-.204.122-1.26.262-2.357 1.365-2.677 2.683-.07.303-.1.397-.117.28-.006-.257-.17-.758-.367-1.16-.45-.887-1.756-1.82-2.584-1.843-.152 0-.157-.012-.058-.052a6.39 6.39 0 0 1 .507-.146c.73-.187 1.54-.793 2-1.5.233-.367.502-1.097.513-1.4.006-.14.035-.064.117.268.064.25.198.636.303.846z"/>
	</defs>
</svg>
