<svg xmlns="http://www.w3.org/2000/svg" viewBox="0 0 22.358 20.296">
	<use href="#A" x="0" y="1" />
	<use href="#A" x="12.5" y="1" />
	<use href="#A" x="6.25" y="-9.5" />
	<defs>
		<path id="A" d="M4.88 9.487c-.012.332-.157.933-.35 1.435-.443 1.15-1.54 2.3-2.724 2.887-.46.227-1.242.46-1.534.46a.58.58 0 0 0-.24.058c-.064.04-.035.058.122.058.548 0 1.727.443 2.368.88a7.57 7.57 0 0 1 1.394 1.371c.502.706.852 1.592.95 2.432l.04.362.04-.32c.122-.87.373-1.557.834-2.263.875-1.336 2.263-2.24 3.786-2.456.268-.04.28-.047.117-.082-1.616-.362-2.45-.8-3.3-1.72a5.21 5.21 0 0 1-1.371-2.666c-.076-.4-.134-.56-.134-.437zm.42 2.9c.367.758 1.394 1.6 2.17 1.802l.408.1c.157.04.14.052-.204.122-1.26.262-2.357 1.365-2.677 2.683-.07.303-.1.397-.117.28-.006-.257-.17-.758-.367-1.16-.45-.887-1.756-1.82-2.584-1.843-.152 0-.157-.012-.058-.052a6.39 6.39 0 0 1 .507-.146c.73-.187 1.54-.793 2-1.5.233-.367.502-1.097.513-1.4.006-.14.035-.064.117.268.064.25.198.636.303.846z"/>
	</defs>
</svg>
