<svg xmlns="http://www.w3.org/2000/svg" viewBox="0 0 640 588.17212">
  <path d="m 561.91,76.172123 c -12.47,0 -155.4,6.49 -241.91,56.889997 C 233.49,82.662123 90.56,76.172123 78.09,76.172123 35.03,76.172123 0,110.51212 0,152.72212 v 313.72 c 0,40.73 32.47,74.3 73.92,76.41 36.78,1.91 128.81,9.5 187.73,38.69 8.19,4.05 17.25,6.29 26.34,6.58 v 0.05 h 64.02 v -0.05 c 9.09,-0.29 18.15,-2.53 26.34,-6.58 58.92,-29.19 150.95,-36.78 187.73,-38.69 41.45,-2.11 73.92,-35.68 73.92,-76.41 v -313.72 c 0,-42.21 -35.03,-76.549997 -78.09,-76.549997 z M 296,514.32212 c 0,11.09 -10.96,18.91 -21.33,14.96 -64.53,-24.54 -153.96,-32.07 -198.31,-34.38 -15.9,-0.8 -28.36,-13.3 -28.36,-28.46 v -313.72 c 0,-15.74 13.5,-28.55 30.06,-28.55 19.93,0.1 126.55,7.81 198.53,40.49 11.63,5.28 19.27,16.66 19.28,29.44 l 0.13,106.07 z m 296,-47.88 c 0,15.16 -12.46,27.66 -28.36,28.47 -44.35,2.3 -133.78,9.83 -198.31,34.38 -10.37,3.94 -21.33,-3.87 -21.33,-14.96 v -214.16 l 0.14,-106.08 c 0.02,-12.78 7.65,-24.15 19.28,-29.44 71.98,-32.67 178.6,-40.38 198.52,-40.48 16.56,0 30.06,12.81 30.06,28.55 z" />
  <path d="m 511.81791,183.25578 c 2.64829,6.90159 0.40126,14.68591 -5.05579,19.74172 l -34.7486,31.61879 c 0.88276,6.66082 1.36427,13.48213 1.36427,20.3837 0,6.90157 -0.48151,13.72289 -1.36427,20.3837 l 34.7486,31.61881 c 5.45705,5.05581 7.70408,12.84014 5.05579,19.74169 -3.53104,9.54985 -7.78433,18.77869 -12.59938,27.52603 l -3.77178,6.5003 c -5.29654,8.8276 -11.23513,17.17367 -17.73542,25.11851 -4.81505,5.69779 -12.59936,7.70407 -19.66144,5.45705 l -44.69968,-14.28464 c -10.75361,8.26584 -23.35297,15.16739 -35.31035,20.46395 l -10.03136,45.8232 c -1.60501,7.22257 -7.22256,12.35861 -14.60563,14.28463 -11.0746,1.84578 -22.47022,2.80879 -34.82883,2.80879 -10.91412,0 -22.30973,-0.96301 -33.38434,-2.80879 -7.38308,-1.92602 -13.00062,-7.06206 -14.60563,-14.28463 l -10.03136,-45.8232 c -12.67963,-5.29656 -24.55674,-12.19811 -35.31035,-20.46395 l -44.66757,14.28464 c -7.09419,2.24702 -14.91864,0.24074 -19.66948,-5.45705 -6.50834,-7.94484 -12.4469,-16.29091 -17.74344,-25.11851 l -3.75574,-6.5003 c -4.87123,-8.74734 -9.10847,-17.97618 -12.66357,-27.52603 -2.60013,-6.90155 -0.40929,-14.68588 5.09592,-19.74169 l 34.71649,-31.61881 c -0.88276,-6.66081 -1.34019,-13.48213 -1.34019,-20.3837 0,-6.90157 0.45743,-13.72288 1.34019,-20.3837 L 131.83848,202.9975 c -5.50521,-5.05581 -7.69605,-12.75989 -5.09592,-19.74172 3.5551,-9.54984 7.80037,-18.77867 12.66357,-27.526 l 3.74771,-6.50031 c 5.30457,-8.82761 11.24313,-17.17368 17.75147,-25.07837 4.75084,-5.73794 12.57529,-7.72815 19.66948,-5.46509 l 44.66757,14.25255 c 10.75361,-8.29794 22.63072,-15.1995 35.31035,-20.43988 l 10.03136,-45.823191 c 1.60501,-7.286777 7.22255,-13.072858 14.60563,-14.300693 11.07461,-1.852997 22.47022,-2.816805 34.10658,-2.816805 11.63637,0 23.03199,0.963808 34.10659,2.816805 7.38307,1.227835 13.00062,7.013916 14.60563,14.300693 l 10.03136,45.823191 c 11.95738,5.24038 24.55674,12.14194 35.31035,20.43988 l 44.69968,-14.25255 c 7.06208,-2.26306 14.84639,-0.27285 19.66144,5.46509 6.50029,7.90469 12.43888,16.25076 17.73542,25.07837 l 3.77178,6.50031 c 4.81505,8.74733 9.06834,17.97616 12.59938,27.526 z M 319.29628,319.20062 c 35.47084,0 64.20064,-28.72979 64.20064,-64.92288 0,-34.7486 -28.7298,-64.20064 -64.20064,-64.20064 -35.47085,0 -64.20063,29.45204 -64.20063,64.20064 0,36.19309 28.72978,64.92288 64.20063,64.92288 z" style="stroke:#ffffff;stroke-width:101.11598206;stroke-miterlimit:4;stroke-dasharray:none;stroke-opacity:1;paint-order:stroke fill markers" />
  <circle style="fill:#ffffff;fill-opacity:1;stroke:none;stroke-width:179.87789917;stroke-miterlimit:4;stroke-dasharray:none;stroke-opacity:1;paint-order:stroke fill markers" cx="318.19385" cy="253.382" r="42.666668" />
</svg>
