<svg xmlns="http://www.w3.org/2000/svg" viewBox="1.75 -0.05 11.5 14"><path d="M3.558.002a1.19 1.19 0 0 0-.134 0c-.586.028-1.156.422-1.56.865.588.063 1.415.03 2.064 1.283l2.49 4.437-4.23 7.31 1.894-.004C5.114 12.042 5.3 7.98 7.304 8.085c2.245.12 1.883 3.435 2.944 5.087.454.965 2.64.96 2.8-.07-1.286-.16-1.195.2-2.325-1.562C9.79 10.1 8.728 8.112 8.07 6.92l3.717-6.9-1.86.036C9.01 1.753 8.95 5.356 7.12 5.34S5.613 2.244 4.47.412c-.3-.274-.603-.396-.913-.4z"/><path d="M3.906 1.083l5.965-.008zM5.3 3.063l3.755-.002zm4.14 7.224l-4.5-.02zM4.27 12.1l5.527.02z" opacity=".7" fill="none" stroke="#000" stroke-width=".31"/></svg>