<svg xmlns="http://www.w3.org/2000/svg" viewBox="24 4 84 120"><path d="M35.117 117.449c-24.212-12.065-12.687-46.514 15.11-45.162l4.839.235 9.505-16.336 9.505-16.336-1.977-2.164C56.535 20.647 78.828-3.259 95.753 12.32c7.625 7.019 6.642 19.354-2.132 26.757l-3.028 2.555 2.761 8.445c2.905 8.886 4.45 10.945 8.208 10.945 9.851 0 12.306 16.855 3.145 21.593-11.616 6.007-22.37-8.202-13.69-18.089l3.13-3.565-2.269-7.968C89 42.882 88.557 42.387 81.717 41.641l-5.671-.618-9.079 16.357C56.5 76.236 55.065 72.522 60.907 77.692c21.134 18.701-.566 52.327-25.791 39.757z"/></svg>