<svg xmlns="http://www.w3.org/2000/svg" viewBox="0 0 174.498 12.514">
	<path d="M0 5.885l73.998-.83 50.83-1.785c6.92-.414 12.677-.906 16.663-1.46 2-.28 3.54-.582 4.535-.878.502-.146.844-.297 1.05-.405l.238-.162.42-.287.656.656-.37.338s-.154.142-.456.324c-.29.154-.714.33-1.256.484-1.085.314-2.667.608-4.686.88-4.037.533-9.81.985-16.745 1.354-13.868.744-32.37 1.183-50.87 1.443L0 5.885z"/>
	<path d="M148 .346l.448.43c.142.148.317.28.518.437.194.163.43.34.7.52.536.38 1.212.76 1.95 1.146s1.557.75 2.387 1.084c1.662.667 3.38 1.215 4.7 1.53l1.597.327.616.066s-.226.008-.62-.023a17.69 17.69 0 0 1-1.624-.218c-1.338-.227-3.1-.655-4.83-1.214l-2.506-.936c-.786-.342-1.514-.688-2.1-1.05a10.72 10.72 0 0 1-1.417-.958l-.477-.396-.385-.32.7-.77zM0 5.885l74 .08 50.9 1.27c6.94.346 12.724.78 16.785 1.302 2.033.267 3.633.556 4.762.88.562.156 1.026.347 1.36.523.367.218.57.418.565.405l.46.953-.85.85-1.025-.4c-.01-.004-.022-.003-.13-.08-.162-.085-.463-.224-.944-.365-.952-.288-2.484-.594-4.46-.88-3.96-.564-9.7-1.076-16.623-1.514C110.982 8.027 92.5 7.4 74 6.953L0 5.885z"/>
	<path d="M147 10.308l.5-.38c.14-.12.377-.272.64-.443.264-.18.557-.355.87-.515.626-.354 1.38-.682 2.2-1.003l2.566-.86c1.763-.504 3.547-.874 4.9-1.055l1.638-.163.623-.002s-.227.016-.613.088a17.34 17.34 0 0 0-1.583.383c-1.297.36-2.993.968-4.622 1.688l-2.327 1.16c-.715.405-1.366.806-1.872 1.193a6.19 6.19 0 0 0-.655.52l-.477.435-1.134 1.163-1.43-1.592zm17.166-4.423l.03-.327c.038-.2.003-.535.14-.916l.2-.64.34-.716c.146-.24.34-.478.526-.74l.73-.72c.582-.4 1.283-.84 2.137-.996.23-.036.385-.103.696-.113l.616-.006c.195-.02.435.02.7.077.245.053.518.093.75.185.94.33 1.813.966 2.474 1.824.646.876.972 1.98 1.015 3.1l-.08.782c-.002.2-.095.5-.2.797-.153.6-.463 1.05-.75 1.507-.66.858-1.533 1.5-2.472 1.822-.947.278-1.914.368-2.746.143-.373-.047-.798-.243-1.17-.4-.377-.153-.664-.4-.97-.594l-.73-.718-.526-.74-.34-.715c-.086-.227-.13-.448-.2-.64-.14-.38-.104-.707-.14-.917l-.03-.327zm0 0l.037.327c.045.208.006.536.167.907l.226.618.405.657c.17.216.382.418.584.643.228.2.505.368.774.55.3.112.6.296.94.36.336.055.628.15 1.05.116.73.043 1.444-.235 2.083-.563.63-.38 1.134-.934 1.523-1.54.138-.338.325-.668.372-.96.04-.147.108-.27.115-.53l.03-.342.024-.257.004-.042v-.02l.001-.01c-.002.04.006-.107-.004.1a4.96 4.96 0 0 0-.547-2.07c-.388-.607-.893-1.157-1.52-1.54-.15-.095-.302-.14-.454-.224-.145-.08-.304-.16-.526-.2l-.603-.13c-.1-.024-.333-.012-.493-.02-.728-.045-1.4.198-1.995.474l-.775.547-.584.642-.406.657c-.1.216-.155.43-.226.617-.162.37-.123.7-.168.908l-.036.33z"/>
</svg>
