<svg xmlns="http://www.w3.org/2000/svg" width="156.626" height="13.362" xmlns:v="https://vecta.io/nano"><path d="M0 6.201l56.104-.642 50.83-1.964c6.92-.455 12.677-.997 16.663-1.606 2-.308 3.54-.64 4.535-.966.502-.161.844-.327 1.05-.445L129.42.4l.42-.316.656.722-.37.372s-.154.156-.456.356c-.29.169-.714.363-1.256.532-1.085.345-2.667.669-4.686.968-4.037.586-9.81 1.084-16.745 1.489-13.868.818-32.37 1.301-50.87 1.587z"/><path d="M130.106.38l.448.473c.142.163.317.308.518.481.194.179.43.374.7.572.536.418 1.212.836 1.95 1.261s1.557.825 2.387 1.192c1.662.734 3.38 1.337 4.7 1.683l1.597.36.616.073s-.226.009-.62-.025c-.544-.052-1.086-.132-1.624-.24-1.338-.25-3.1-.721-4.83-1.335l-2.506-1.03c-.786-.376-1.514-.757-2.1-1.155-.497-.309-.971-.662-1.417-1.054l-.477-.436-.385-.352.7-.847zM0 6.201l56.106.359 50.9 1.397c6.94.381 12.724.858 16.785 1.432 2.033.294 3.633.612 4.762.968.562.172 1.026.382 1.36.575.367.24.57.46.565.445l.46 1.048-.85.935-1.025-.44c-.01-.004-.022-.003-.13-.088-.162-.094-.463-.246-.944-.402-.952-.317-2.484-.653-4.46-.968-3.96-.62-9.7-1.184-16.623-1.665-13.818-.97-32.3-1.66-50.8-2.152z"/><path d="M129.106 10.914l.5-.38c.14-.12.377-.272.64-.443.264-.18.557-.355.87-.515.626-.354 1.38-.682 2.2-1.003l2.566-.86c1.763-.504 3.547-.874 4.9-1.055l1.638-.163.623-.002s-.227.016-.613.088a17.34 17.34 0 0 0-1.583.383c-1.297.36-2.993.968-4.622 1.688l-2.327 1.16c-.715.405-1.366.806-1.872 1.193a6.19 6.19 0 0 0-.655.52l-.477.435-1.134 1.163-1.43-1.592zm17.166-4.423l.03-.327c.038-.2.003-.535.14-.916l.2-.64.34-.716c.146-.24.34-.478.526-.74l.73-.72c.582-.4 1.283-.84 2.137-.996.23-.036.385-.103.696-.113l.616-.006c.195-.02.435.02.7.077.245.053.518.093.75.185.94.33 1.813.966 2.474 1.824.646.876.972 1.98 1.015 3.1l-.08.782c-.002.2-.095.5-.2.797-.153.6-.463 1.05-.75 1.507-.66.858-1.533 1.5-2.472 1.822-.947.278-1.914.368-2.746.143-.373-.047-.798-.243-1.17-.4-.377-.153-.664-.4-.97-.594l-.73-.718-.526-.74-.34-.715c-.086-.227-.13-.448-.2-.64-.14-.38-.104-.707-.14-.917l-.03-.327zm0 0l.037.327c.045.208.006.536.167.907l.226.618.405.657c.17.216.382.418.584.643.228.2.505.368.774.55.3.112.6.296.94.36.336.055.628.15 1.05.116.73.043 1.444-.235 2.083-.563.63-.38 1.134-.934 1.523-1.54.138-.338.325-.668.372-.96.04-.147.108-.27.115-.53l.03-.342.024-.257.004-.042v-.02l.001-.01c-.002.04.006-.107-.004.1a4.96 4.96 0 0 0-.547-2.07c-.388-.607-.893-1.157-1.52-1.54-.15-.095-.302-.14-.454-.224-.145-.08-.304-.16-.526-.2l-.603-.13c-.1-.024-.333-.012-.493-.02-.728-.045-1.4.198-1.995.474l-.775.547-.584.642-.406.657c-.1.216-.155.43-.226.617-.162.37-.123.7-.168.908l-.036.33z"/></svg>