<svg xmlns="http://www.w3.org/2000/svg" viewBox="0 0 78.6 18.893">
	<path d="M39.336 9.54c0 .001.02.793-.398 1.112-.455.227-1.147.497-2.016.874l-3.14 1.337-4.146 1.676c-1.554.502-3.13 1.182-5.047 1.58l-1.417.35c-.477.125-.96.24-1.46.292l-3.04.43-3.158.135-1.628.034-1.596-.083c-2.23-.167-4.413-.68-6.484-1.565-2.038-.893-4.018-2.178-5.183-4.133a4.44 4.44 0 0 1-.579-1.594c-.067-.6-.048-1.09-.006-1.646.088-1.075.4-2.172 1.04-3.08.622-.922 1.533-1.584 2.458-2.055.93-.497 1.898-.782 2.844-1.022 1.897-.446 3.72-.477 5.362-.453 1.618.04 3.198.136 4.545.532a12.99 12.99 0 0 1 1.824.683c.52.302 1.025.518 1.41.826l1.038.783.688.663.55.563-.71-.346-.825-.43-1.142-.488c-.85-.355-1.907-.675-3.133-.856-1.227-.212-2.642-.17-4.26-.16l-5.07.25c-1.727.232-3.653.634-4.92 2.022C1.14 6.47.758 7.4.667 8.4.617 8.88.572 9.444.65 9.893c.083.473.264.936.528 1.36 1.102 1.707 3.096 2.704 5.055 3.32 1.993.596 4.112.837 6.125.928l1.58.02c.475-.003 1.015-.062 1.514-.09l3-.23 2.856-.507c.47-.064.92-.188 1.362-.322L23.983 14c1.712-.43 3.392-1.106 4.917-1.612l4.077-1.587 3.188-1.213 2.058-.766c.52-.06 1.042.53 1.042.53z"/>
	<path d="M39.263 9.354s.008-.165.064-.38c.048-.236.156-.493.353-.687s.504-.265.836-.424l4.302-1.83 4.146-1.68c1.555-.5 3.13-1.183 5.046-1.58l1.417-.35c.478-.125.962-.24 1.462-.292l3.04-.43 3.158-.135 1.628-.034 1.596.083c2.23.167 4.413.68 6.484 1.565 2.038.892 4.018 2.177 5.183 4.132.29.485.493 1.027.58 1.594.067.6.048 1.09.006 1.646-.09 1.075-.4 2.17-1.043 3.076-.623.92-1.533 1.58-2.458 2.05-.93.492-1.9.764-2.843 1.017-1.896.455-3.72.483-5.36.47-1.617-.034-3.198-.12-4.55-.507a13.04 13.04 0 0 1-1.834-.669c-.525-.297-1.034-.5-1.424-.814L58 14.4l-.698-.654-.563-.556.125-.156.698.353.814.438 1.13.498c.84.362 1.9.7 3.1.88 1.222.22 2.636.188 4.254.185l5.072-.233c.872-.122 1.78-.26 2.63-.585.853-.303 1.676-.753 2.29-1.448.603-.7.982-1.63 1.073-2.63.05-.48.094-1.044.018-1.493-.082-.473-.264-.936-.527-1.36-1.102-1.707-3.097-2.705-5.056-3.32-1.993-.596-4.112-.837-6.126-.927l-1.58-.02c-.475.002-1.015.062-1.515.09l-3 .23-2.856.508c-.47.064-.92.188-1.36.32l-1.313.373c-1.712.43-3.393 1.103-4.918 1.61L45.62 8.09l-4.368 1.662c-.35.116-.62.28-.895.274s-.526-.116-.72-.255c-.187-.116-.304-.23-.304-.23z"/>
	<path stroke-miterlimit="10" d="M29.716 13.308l19.167-7.723" fill="none" stroke="#000" stroke-width="2"/>
	<path d="M50.298 1.93c-.005.007-.064-.133-.23-.326-.146-.2-.438-.423-.854-.563-.833-.3-2.152-.246-3.673.172-.77.203-1.553.524-2.437.9l-2.748 1.152-5.992 2.458-6.02 2.383-2.78 1.075-2.593.874c-1.668.42-3.262.265-4.156-.357-.45-.298-.67-.684-.76-.936-.1-.26-.078-.405-.088-.402a1.7 1.7 0 0 0 .229.321c.15.2.44.424.856.565.832.298 2.15.246 3.67-.17.755-.2 1.556-.525 2.437-.9l2.748-1.15 5.993-2.46 6.02-2.382 2.78-1.076 2.593-.874c1.67-.42 3.262-.262 4.155.358.45.3.67.678.764.938.088.26.075.4.086.4zm10.334 8.598c-.005.007-.064-.134-.23-.326-.145-.2-.438-.423-.854-.562-.833-.3-2.15-.245-3.673.173-.77.203-1.552.525-2.437.9L50.7 11.866l-6 2.458-6.02 2.383-2.78 1.075-2.593.875c-1.668.42-3.262.264-4.155-.357a1.95 1.95 0 0 1-.762-.936c-.1-.26-.078-.406-.088-.402a1.7 1.7 0 0 0 .229.321c.15.2.44.424.856.565.832.297 2.15.245 3.67-.172.756-.198 1.556-.525 2.437-.9l2.748-1.15 6-2.458 6.022-2.382 2.78-1.075c.867-.342 1.755-.68 2.593-.875 1.668-.42 3.26-.263 4.154.357.45.3.67.678.764.938.088.258.076.4.087.4z"/>
</svg>
