<svg xmlns="http://www.w3.org/2000/svg" width="24" height="26" viewBox="0 0 24 26">
    <g fill="none" fill-rule="evenodd" stroke="#000000">
        <path d="M23.183 3.32c-.145-.237-.983-1.414-1.338-.887-.11.162.147.751.119.997-.058.515-.261.995-.498 1.45-.298.573-.71 1.187-1.278 1.523-.756.447-1.453-.04-2.224.045-.541.059-1.091.7-1.664.357-.433-.257-.115-.745-.335-1.056-.324-.457-.641.019-.845.31-.314.449-.375.844-.977.962a7.501 7.501 0 0 0-5.535 4.565c-.215.538-.24 1.116-.522 1.637-.03.055-.065.112-.12.14-.166.08-.312-.145-.35-.325-.556-2.567 1.36-4.923 3.389-6.221.52-.334 1.101-.554 1.646-.84 1.043-.549.725-2.01.415-2.906-.128-.37-1.176-2.392-1.719-1.368-.114.216.021.385.055.592.116.69-.503 2.517-1.475 2.328-.283-.059-.288-2.06-1.123-1.491-.313.213-.149 1.034-.295 1.357-.208.458-.721.93-1.108 1.241-.891.717-1.984 1.123-2.941 1.736-1.085.694-2.014 1.602-2.515 2.807-.721 1.728-.726 3.814.123 5.498 1.172 2.325 3.806 3.707 6.35 3.812 1.527.064 3.178-.277 4.656-.968 1.712-.8 3.19-2.07 3.97-3.722.187-.395.34-.806.45-1.23.137-.53.425-.884.772-1.309.206-.252 1.087-.852.67-1.23-.414-.376-1.74.75-2.054 1.011-.19.16-1.403 1.84-1.64 1.243-.158-.397.288-1.09.47-1.44.297-.568.955-1.008 1.487-1.332.986-.602 2.149-.765 3.203-1.204 1.327-.552 2.124-1.659 2.677-2.94.369-.856.625-2.29.104-3.142z"/>
        <path stroke-linecap="round" stroke-linejoin="round" d="M13.074 20.78v3.523c-1.477.69-3.13 1.03-4.657.967a8.078 8.078 0 0 1-2.406-.478v-3.524"/>
        <path stroke-linecap="round" stroke-linejoin="round" d="M14.156 18.02v2.17a9.969 9.969 0 0 1-1.082.59c-1.477.69-3.129 1.03-4.656.967a8.119 8.119 0 0 1-3.69-1.073V18.51"/>
    </g>
</svg>
