<svg xmlns="http://www.w3.org/2000/svg" width="61.92" height="134.982" viewBox="0 0 58.051 126.547" xmlns:v="https://vecta.io/nano"><defs><clipPath id="A"><path d="M443.691 86.271h98.928v30.369h-98.928z"/></clipPath></defs><g clip-path="url(#A)" transform="matrix(4.1814 0 0 -4.1814 -1855.26975 487.7218)"><path d="M448.856 107.402c-.162.009-.322-.054-.449-.175a.84.84 0 0 1-.246-.608v-2.678h.167v.619l.923.256v-.689h.167v2.522c0 .468-.199.736-.562.753m-.175 2.174c-1.214-.249-2.304-1.153-2.304-1.153v-1.151h-.311v-2.593l-.909.956-.897-1.756-.007-1.417-.438-.472-.124-15.614h.382l.094 14.319v.755l.506.864v1.215l.513.186v.171l-.49-.039.509 1.057.393-.652.032-.654v-1.806h.374l.467.841v1.619l-.063.066v2.861h.436v1.12c.623.53 1.526.841 1.526.841zm1.782 5.09v-.981l.203.008.007 1.004c.032.21.288.187.32.132s-.016.046-.016.046c-.164.149-.506.18-.514-.209m.333-1.324l.72-.053v2.07a3.23 3.23 0 0 1-.656.123c-.078 0-.403-.004-.743-.109h.01v-2.079c.217.028.489.056.669.048m.095-3.019c-.374 0-2.163-.016-3.782-.732l.015.047s.103 2.828 2.718 3.412v.203l.118.018v2.046l-.046-.018.004.012s.044.873.867.926v.403h.117v-.402c.795-.034.822-.959.822-.959-.012.007-.027.012-.04.018v-2.038a.62.62 0 0 0 .104-.031v-.186c2.434-.61 2.559-3.528 2.559-3.528-.965.498-3.019.809-3.456.809m2.584-10.461c.094-.128.073-.05.125-.311.087-.437 0-2.148 0-2.148l.062-6.933c.031-.528.26.716.26.716l.034 6.498c0 .809.142 1.991-.263 2.147 0 0-.276.111-.218.031m.81 7.13s.187-.187.218-.436.062-2.989.062-2.989l.218-.125c0 2.273.124 3.3-.343 3.55zm.663-6.414h.167v.498h-.167zm.292-1.681s-.145.087-.218.031c0 0 .096-.128.124-.311.069-.441 0-2.148 0-2.148l.01-5.999c0-.425.26.668.26.668l.062 5.331c0 .81.166 2.272-.238 2.428m-.654 2.46h-.167v-.498h.167zm-2.437-14.981l.144 18.373-.685 1.683-.623-1.464-.124-.467-.063-1.246-.311-.061v5.354h.374l.248-1.183s.81.374 1.122-.996l-.063-.436.747-1.058.311-2.18.312-.249v6.476l-.312.249-.061.436 1.867-.685v-.872l.436-.311v-4.234l.561.996.56-1.743.248-.063v-1.93l.436-.373.301-14.016zm-1.724 13.594l.528-.034c-.031.415-.155.764-.668.751-.406-.01-.747-.181-.747-.88l.119-8.315-.014-.162.392.399.154 6.658.42.117v.239l-.403-.077s-.093 1.278.219 1.304m-2.19-.414l.555-.024c-.031.422-.155.78-.669.766-.406-.01-.747-.185-.747-.899l.104-10.276.497.52.068 8.262.435.093v.278l-.428-.073s-.126 1.326.185 1.353m-2.192-.638l.568-.015c-.032.478-.156.881-.67.866-.405-.012-.747-.209-.747-1.015l-.031-12.378h.027.419l-.015 1.8.27 8.943.435.098v.268l-.435-.067s-.133 1.47.179 1.5m2.318 2.457h.167v.679h-.167zm-.411.615h-.167v-.737h.167zm-.526 6.216h.335v-4.764h-.335z"/></g></svg>