<svg xmlns="http://www.w3.org/2000/svg" viewBox="0 0 62 125"><defs id="defs5"><clipPath id="A"><path d="M443.691 86.271h98.928v30.369h-98.928z" id="path2" /></clipPath></defs><g clip-path="url(#A)" transform="matrix(4.1814 0 0 -4.1814 -1855.26975 487.7218)" id="g9"><path d="m 448.856,107.402 c -0.162,0.009 -0.322,-0.054 -0.449,-0.175 -0.161,-0.16096 -0.24978,-0.38037 -0.246,-0.608 v -2.678 h 0.167 v 0.619 l 0.923,0.256 v -0.689 h 0.167 v 2.522 c 0,0.468 -0.199,0.736 -0.562,0.753 m -0.175,2.174 c -1.214,-0.249 -2.304,-1.153 -2.304,-1.153 v -1.151 h -0.311 v -2.593 l -0.909,0.956 -0.897,-1.756 -0.007,-1.417 -0.438,-0.472 -0.124,-15.614 h 0.382 l 0.094,14.319 v 0.755 l 0.49618,0.70691 0.01,1.37209 v 0 l 0.023,0.318 v 0 l 0.509,1.057 0.393,-0.652 0.032,-0.654 v -1.806 l 0.36418,0.01 c 0.50769,0.78767 0.40015,1.61236 0.41384,2.51618 v 2.861 h 0.436 v 1.12 c 0.623,0.53 1.526,0.841 1.526,0.841 z m 1.782,5.09 v -0.981 l 0.203,0.008 0.007,1.004 c 0.032,0.21 0.288,0.187 0.32,0.132 0.032,-0.055 -0.016,0.046 -0.016,0.046 -0.164,0.149 -0.506,0.18 -0.514,-0.209 m 0.333,-1.324 0.72,-0.053 v 2.07 c -0.21383,0.0635 -0.43367,0.10476 -0.656,0.123 -0.078,0 -0.403,-0.004 -0.743,-0.109 h 0.01 v -2.079 c 0.217,0.028 0.489,0.056 0.669,0.048 m 0.095,-3.019 c -0.374,0 -2.163,-0.016 -3.782,-0.732 l 0.015,0.047 c 0,0 0.103,2.828 2.718,3.412 v 0 l 0.12782,0.0345 -0.01,2.23255 -0.046,-0.018 0.004,0.012 c 0,0 0.044,0.873 0.867,0.926 v 0.403 h 0.117 v -0.402 c 0.795,-0.034 0.822,-0.959 0.822,-0.959 -0.012,0.007 -0.04,0.018 -0.04,0.018 l 0.104,-2.25499 c 0.14639,0.0949 0,0.27443 0,0 2.434,-0.61 2.559,-3.528 2.559,-3.528 -0.965,0.498 -3.019,0.809 -3.456,0.809 m 2.584,-10.461 c 0.094,-0.128 0.073,-0.05 0.125,-0.311 0.087,-0.437 0,-2.148 0,-2.148 l 0.062,-6.933 c 0.031,-0.528 0.26,0.716 0.26,0.716 l 0.034,6.498 c 0,0.809 0.142,1.991 -0.263,2.147 0,0 -0.276,0.111 -0.218,0.031 m 0.81,7.13 c 0,0 0.187,-0.187 0.218,-0.436 0.031,-0.249 0.062,-2.989 0.062,-2.989 l 0.218,-0.125 c 0,2.273 0.124,3.3 -0.343,3.55 z m 0.005,-6.32563 0.34373,-0.0491 v 0.58637 l -0.35355,0.0884 z m 0.94983,-1.76937 c 0,0 -0.145,0.087 -0.218,0.031 0,0 0.096,-0.128 0.124,-0.311 0.069,-0.441 0,-2.148 0,-2.148 l 0.01,-5.999 c 0,-0.425 0.26,0.668 0.26,0.668 l 0.062,5.331 c 0,0.81 0.166,2.272 -0.238,2.428 m -3.091,-12.521 0.144,18.373 -0.685,1.683 c -0.60012,-0.99047 -0.6996,-2.16567 -0.81,-3.177 l -0.311,-0.061 v 5.354 h 0.374 l 0.248,-1.183 c 1.23765,-1.68935 0,0 1.806,-2.49 l 0.311,-2.18 0.312,-0.249 v 6.476 l -0.312,0.249 -0.061,0.436 1.867,-0.685 v -0.872 l 0.436,-0.311 v -4.234 l 0.561,0.996 0.56,-1.743 v 0 l 0.032,-2.06173 0.652,-0.30427 0.301,-14.016 z m -1.724,13.594 0.528,-0.034 c -0.031,0.415 -0.155,0.764 -0.668,0.751 -0.406,-0.01 -0.747,-0.181 -0.747,-0.88 l 0.119,-8.315 -0.014,-0.162 0.392,0.399 0.154,6.658 0.42,0.117 v 0.239 l -0.403,-0.077 c 0,0 -0.093,1.278 0.219,1.304 m -4.382,-1.052 0.568,-0.015 c -0.032,0.478 -0.156,0.881 -0.67,0.866 -0.405,-0.012 -0.747,-0.209 -0.747,-1.015 l -0.031,-12.378 h 0.027 0.419 l -0.015,1.8 0.27,8.943 0.435,0.098 v 0.268 l -0.435,-0.067 c 0,0 -0.133,1.47 0.179,1.5 m 1.95472,2.12318 0.41246,0.11782 -0.0393,0.66918 -0.37319,-0.108 z m -0.57372,7.16482 h 0.335 v -4.764 h -0.335 z" id="path7"/></g></svg> 