<svg xmlns="http://www.w3.org/2000/svg" width="30" height="30.003" xmlns:v="https://vecta.io/nano"><path d="M-317.255-1112.316h688v688h-688zM13.938 29.968a15.05 15.05 0 0 1-6.712-2.154C3.36 25.46.733 21.453.135 17.004c-.527-3.92.507-7.858 2.9-11C5.46 2.776 9.05.665 12.996.135a14.91 14.91 0 0 1 11.01 2.89c3.22 2.434 5.33 6.026 5.86 9.972.27 2.016.13 4.114-.406 6A15.15 15.15 0 0 1 19.002 29.46a15.45 15.45 0 0 1-5.064.51zm-3.752-1.82c1.047-.803 2.274-2.128 3-3.23l.232-.353a3.86 3.86 0 0 1 .416.049c.7.103 2.333.07 2.726-.055.088-.028.102-.015.306.302.87 1.35 2.304 2.83 3.55 3.667.3.2.305.2.35-.001a14.42 14.42 0 0 0 .241-2.403c0-.874-.114-1.964-.293-2.793-.046-.214-.076-.402-.066-.418s.183-.156.386-.312a10.93 10.93 0 0 0 1.598-1.606l.277-.368a4.12 4.12 0 0 1 .397.075 12.9 12.9 0 0 0 5.022.082l.417-.073-.174-.26c-.86-1.28-2.385-2.765-3.7-3.587-.212-.134-.3-.206-.27-.225s.026-.028-.018-.028-.054-.014-.03-.06c.126-.244.165-2.006.06-2.728-.032-.224-.054-.4-.048-.416a24.66 24.66 0 0 1 .353-.232c1.326-.86 2.788-2.3 3.64-3.557l.175-.26-.332-.06c-.772-.14-1.65-.224-2.32-.224a14.53 14.53 0 0 0-2.775.289c-.207.045-.386.072-.397.06a42.88 42.88 0 0 1-.308-.4c-.364-.477-1.143-1.255-1.6-1.608l-.364-.274c-.003-.001.024-.134.06-.294a13.42 13.42 0 0 0 .256-3.88c-.056-.605-.055-.598-.16-1.197l-.076-.434-.26.174a14 14 0 0 0-3.502 3.558 3.98 3.98 0 0 0-.202.325c0 .01-.023.043-.05.07s-.05.036-.05.013-.012-.03-.027-.022-.196-.007-.403-.036c-.704-.1-2.344-.065-2.724.056-.082.026-.1.008-.3-.285-.858-1.33-2.287-2.803-3.55-3.655l-.295-.2-.06.33a13.9 13.9 0 0 0-.224 2.295c0 .9.112 1.983.286 2.783l.08.36-.378.3c-.485.37-1.293 1.18-1.664 1.664l-.3.378-.36-.08c-1.617-.352-3.353-.373-5.078-.062l-.332.06.2.295c.85 1.258 2.304 2.672 3.645 3.543l.303.197-.02.127a8.06 8.06 0 0 0-.1 1.498c0 .54.02.917.057 1.196.03.224.064.416.074.426s-.15.128-.354.263c-.554.366-.825.574-1.404 1.076-.82.7-1.703 1.693-2.225 2.472l-.174.26.434.076c.6.104.593.103 1.197.16 1.158.107 2.37.036 3.657-.212.245-.047.453-.1.464-.116s.15.143.3.354a11.24 11.24 0 0 0 1.609 1.626 6.44 6.44 0 0 1 .399.328c.03.036.02.135-.042.42-.35 1.596-.376 3.313-.08 5l.07.4.262-.176a13.77 13.77 0 0 0 .57-.413zm4.1-3.763c-1.788-.138-3.503-.792-4.968-1.894-.535-.402-1.383-1.25-1.786-1.786-1.125-1.495-1.764-3.2-1.897-5.037l-.035-.496c-.001-.03.828.034 1.353.107a9.16 9.16 0 0 1 3.453 1.225 9.61 9.61 0 0 1 3.147 3.147c.785 1.3 1.266 2.9 1.303 4.3l.012.445-.103.004a7.37 7.37 0 0 1-.48-.025zm.883-.348c.137-2.035.733-3.684 1.882-5.208a11 11 0 0 1 1.766-1.766c1.284-.967 2.77-1.585 4.292-1.786.562-.074 1.302-.134 1.302-.105 0 .01-.016.232-.035.494a9.36 9.36 0 0 1-1.894 5.037 11.42 11.42 0 0 1-1.789 1.789 9.36 9.36 0 0 1-5.037 1.894l-.494.035c-.01 0-.005-.173.01-.385zM5.613 14.9a23.31 23.31 0 0 1 .034-.508c.17-2.328 1.097-4.355 2.74-5.998a9.23 9.23 0 0 1 5.991-2.738c.25-.018.472-.043.492-.055s.028.134.013.47c-.1 1.93-.718 3.676-1.874 5.213a11.03 11.03 0 0 1-1.766 1.765 9.22 9.22 0 0 1-5.174 1.874c-.364.018-.454.013-.454-.023zm18.1.005A9.27 9.27 0 0 1 19.65 13.6a9.61 9.61 0 0 1-3.147-3.147 9.34 9.34 0 0 1-1.317-4.378c-.012-.245-.016-.453-.01-.463s.028-.012.047-.006.234.026.478.043a9.4 9.4 0 0 1 5.003 1.894c.535.402 1.383 1.25 1.786 1.786 1.124 1.494 1.76 3.188 1.897 5.044.018.25.024.477.013.505-.022.057-.08.058-.698.017z"/></svg>