<svg xmlns="http://www.w3.org/2000/svg" width="284.8598">
	<path d="m 93.991,106.699 c 1.576,5.961 4.119,8.266 8.613,8.266 4.659,0 7.102,-2.799 7.102,-8.266 V 5.2 h 29.184 v 101.499 c 0,14.307 -1.856,20.506 -9.11,27.762 -5.228,5.229 -14.871,9.271 -27.047,9.271 -9.837,0 -19.25,-3.256 -25.253,-9.27 -5.263,-5.273 -8.154,-10.689 -12.672,-27.764 L 46.9,39.033 c -1.577,-5.961 -4.119,-8.265 -8.613,-8.265 -4.66,0 -7.103,2.798 -7.103,8.265 v 101.5 H 2 V 39.033 C 2,24.727 3.857,18.527 11.111,11.271 16.337,6.044 25.981,2 38.158,2 c 9.837,0 19.25,3.257 25.253,9.27 5.263,5.273 8.154,10.689 12.672,27.764 z" style="fill:#000000;stroke:#000000;stroke-width:4;stroke-miterlimit:4;stroke-opacity:1" />
     <path d="m 251.55231,297.22998 -33.704,-105.437 c -0.372,-1.164 -0.723,-2.152 -1.263,-2.811 -0.926,-1.127 -2.207,-1.719 -3.931,-1.719 -1.723,0 -3.004,0.592 -3.931,1.719 -0.539,0.658 -0.891,1.646 -1.262,2.811 l -33.703,105.437 h -30.167 l 36.815,-115.177 c 1.918,-6 4.66,-11.094 8.139,-14.488 5.971,-5.821 13.007,-8.868 24.11,-8.868 11.103,0 18.14,3.047 24.109,8.867 3.479,3.395 6.221,8.488 8.14,14.488 l 36.814,115.177 z" style="fill:#000000;stroke:#000000;stroke-width:4;stroke-miterlimit:4;stroke-opacity:1" />
     <path style="fill:#000000;stroke:#000000;stroke-width:4;stroke-miterlimit:4;stroke-opacity:1" d="m 85.621262,297.22998 c 22.529478,0 33.518498,-4.062 42.200358,-11.389 9.60684,-8.105 14.20228,-16.973 14.20228,-30.213 0,-11.699 -5.04674,-22.535 -12.73056,-29.019 -10.04636,-8.479 -22.52477,-11.151 -42.871998,-11.151 l -28.500028,-0.001 c -10.890033,0 -15.229786,-1.117 -18.66341,-3.98 -2.357818,-1.964 -3.463082,-4.885 -3.463082,-8.328 0,-3.559 1.00982,-7.074 3.89199,-9.475 2.558134,-2.131 6.044782,-3.109 12.74471,-3.109 H 134.79962 V 161.89697 H 58.722573 c -22.529479,0 -33.517315,4.063 -42.200354,11.389 -9.6056657,8.10501 -14.2022923,16.97201 -14.2022923,30.21201 0,11.701 5.0467453,22.536 12.7305703,29.019 10.047535,8.479 22.524765,11.152 42.871997,11.152 l 28.501204,0.002 c 10.890034,0 15.229782,1.115 18.663412,3.979 2.35781,1.965 3.46309,4.885 3.46309,8.328 0,3.559 -1.00983,7.074 -3.89082,9.475 -2.55931,2.131 -6.045962,3.109 -12.745889,3.109 H 2.2504058 l -0.1497763,28.53658 c 0,0 52.7959965,0.13042 83.5206325,0.13042 z" />
     <path style="fill:#000000;stroke:#000000;stroke-width:4;stroke-miterlimit:4;stroke-opacity:1" d="m 251.95488,143.96434 -33.704,-105.437004 c -0.372,-1.164 -0.723,-2.152 -1.263,-2.811 -0.926,-1.127 -2.207,-1.719 -3.931,-1.719 -1.723,0 -3.004,0.592 -3.931,1.719 -0.539,0.658 -0.891,1.646 -1.262,2.811 l -33.703,105.437004 h -30.167 l 36.815,-115.177004 c 1.918,-6 4.66,-11.094 8.139,-14.488 5.971,-5.8209996 13.007,-8.8679996 24.11,-8.8679996 11.103,0 18.14,3.047 24.109,8.8669996 3.479,3.395 6.221,8.488 8.14,14.488 l 36.814,115.177004 z" />
</svg>