<svg xmlns="http://www.w3.org/2000/svg" viewBox="-0.5 -0.5 37 37">
	<path d="M 17.997,36 C 14.436,36 10.955,34.943 7.995,32.965 5.035,30.987 2.727,28.176 1.365,24.886 0.002,21.596 -0.354,17.977 0.341,14.484 1.035,10.992 2.75,7.784 5.268,5.266 7.786,2.748 10.994,1.034 14.486,0.339 c 3.493,-0.694 7.112,-0.338 10.402,1.025 3.29,1.362 6.102,3.67 8.08,6.63 C 34.944,10.955 36,14.436 36,17.997 35.995,22.77 34.097,27.346 30.721,30.721 27.346,34.096 22.77,35.994 17.997,36 Z m 0,-34.082 c -3.182,0 -6.292,0.944 -8.937,2.711 -2.645,1.767 -4.707,4.28 -5.924,7.22 -1.217,2.94 -1.536,6.174 -0.915,9.293 0.621,3.121 2.154,5.986 4.404,8.236 2.25,2.249 5.117,3.78 8.237,4.4 3.121,0.619 6.355,0.301 9.294,-0.918 2.939,-1.219 5.451,-3.281 7.217,-5.928 1.767,-2.646 2.708,-5.756 2.708,-8.937 C 34.076,13.731 32.379,9.643 29.364,6.629 26.349,3.616 22.261,1.921 17.997,1.918 Z" id="path22" style="opacity:1;fill:#000000;fill-opacity:1;stroke:#000000;stroke-width:0.5;stroke-miterlimit:4;stroke-dasharray:none;stroke-opacity:1" />
	<path d="m 17.997,27.373 c -2.707,0 -5.353,-0.803 -7.604,-2.307 C 8.142,23.562 6.388,21.424 5.352,18.923 4.316,16.422 4.045,13.67 4.573,11.015 5.101,8.36 6.405,5.922 8.319,4.008 10.233,2.094 12.672,0.79 15.326,0.262 c 2.655,-0.528 5.407,-0.257 7.908,0.779 2.501,1.036 4.638,2.79 6.142,5.041 1.504,2.251 2.307,4.897 2.307,7.604 -0.003,3.628 -1.446,7.107 -4.012,9.674 -2.566,2.566 -6.046,4.009 -9.674,4.013 z m 0,-25.455 c -2.327,0 -4.602,0.69 -6.538,1.983 -1.935,1.294 -3.443,3.132 -4.334,5.282 -0.891,2.15 -1.124,4.516 -0.67,6.799 0.454,2.283 1.575,4.379 3.221,6.026 1.646,1.645 3.743,2.766 6.025,3.221 2.283,0.453 4.648,0.221 6.799,-0.67 2.151,-0.891 3.988,-2.399 5.281,-4.334 1.293,-1.936 1.983,-4.211 1.983,-6.538 C 29.761,10.567 28.519,7.576 26.313,5.37 24.107,3.164 21.117,1.922 17.997,1.918 Z" id="path24" style="opacity:1;fill:#000000;fill-opacity:1;stroke:#000000;stroke-width:0.5;stroke-miterlimit:4;stroke-dasharray:none;stroke-opacity:1" />
	<path d="m 13.545,22.922 c -1.827,0 -3.613,-0.54 -5.132,-1.554 C 6.893,20.353 5.709,18.912 5.009,17.224 4.309,15.537 4.126,13.68 4.481,11.888 4.836,10.096 5.715,8.45 7.007,7.158 8.298,5.866 9.944,4.986 11.736,4.629 c 1.792,-0.356 3.648,-0.174 5.336,0.524 1.688,0.699 3.13,1.883 4.146,3.401 1.015,1.519 1.557,3.305 1.557,5.131 -0.003,2.447 -0.977,4.793 -2.707,6.525 -1.73,1.731 -4.075,2.706 -6.523,2.712 z m 0,-16.546 C 12.098,6.375 10.682,6.803 9.478,7.606 8.274,8.41 7.335,9.553 6.781,10.89 c -0.554,1.337 -0.7,2.809 -0.417,4.229 0.282,1.42 0.979,2.724 2.002,3.748 1.023,1.023 2.328,1.72 3.748,2.003 1.42,0.281 2.892,0.137 4.229,-0.418 1.337,-0.555 2.479,-1.494 3.283,-2.698 0.803,-1.204 1.231,-2.62 1.23,-4.067 C 20.848,11.753 20.074,9.9 18.705,8.534 17.335,7.168 15.481,6.4 13.546,6.396 v -0.02 z" id="path26" style="opacity:1;fill:#000000;fill-opacity:1;stroke:#000000;stroke-width:0.5;stroke-miterlimit:4;stroke-dasharray:none;stroke-opacity:1" />
	<path d="m 13.43,23.023 c -1.138,0 -2.251,-0.338 -3.198,-0.97 C 9.285,21.42 8.547,20.521 8.112,19.47 7.676,18.418 7.563,17.261 7.785,16.144 c 0.222,-1.116 0.77,-2.142 1.575,-2.947 0.805,-0.805 1.831,-1.354 2.947,-1.576 1.117,-0.222 2.274,-0.108 3.326,0.328 1.052,0.436 1.951,1.173 2.583,2.12 0.632,0.947 0.97,2.06 0.97,3.198 0,1.526 -0.606,2.99 -1.686,4.07 -1.079,1.08 -2.543,1.686 -4.07,1.686 z m 0,-9.593 c -0.759,0 -1.501,0.225 -2.132,0.647 -0.631,0.421 -1.123,1.021 -1.413,1.722 -0.291,0.701 -0.367,1.473 -0.219,2.217 0.148,0.745 0.514,1.428 1.05,1.964 0.537,0.537 1.221,0.902 1.965,1.051 0.744,0.149 1.516,0.072 2.217,-0.219 0.701,-0.29 1.3,-0.782 1.722,-1.413 0.422,-0.631 0.647,-1.373 0.647,-2.132 0.001,-0.505 -0.096,-1.005 -0.289,-1.472 -0.192,-0.467 -0.475,-0.892 -0.831,-1.25 -0.356,-0.357 -0.78,-0.642 -1.247,-0.835 -0.466,-0.194 -0.966,-0.293 -1.471,-0.293 v 0.013 z" id="path28" style="opacity:1;fill:#000000;fill-opacity:1;stroke:#000000;stroke-width:0.5;stroke-miterlimit:4;stroke-dasharray:none;stroke-opacity:1" />
	<path d="m 15.765,20.702 c -0.683,0 -1.351,-0.202 -1.919,-0.582 -0.568,-0.38 -1.01,-0.919 -1.272,-1.55 -0.261,-0.631 -0.33,-1.326 -0.196,-1.996 0.134,-0.67 0.462,-1.285 0.945,-1.768 0.483,-0.483 1.098,-0.812 1.768,-0.945 0.67,-0.133 1.364,-0.065 1.996,0.196 0.631,0.262 1.17,0.704 1.55,1.272 0.38,0.568 0.582,1.236 0.582,1.919 -0.002,0.916 -0.366,1.792 -1.014,2.44 -0.647,0.648 -1.525,1.012 -2.44,1.014 z m 0,-4.989 c -0.304,0 -0.601,0.09 -0.853,0.259 -0.252,0.169 -0.449,0.409 -0.565,0.689 -0.116,0.28 -0.147,0.589 -0.087,0.887 0.059,0.298 0.206,0.571 0.42,0.786 0.215,0.215 0.488,0.361 0.786,0.42 0.298,0.059 0.606,0.029 0.887,-0.088 0.28,-0.115 0.52,-0.313 0.689,-0.565 0.168,-0.252 0.258,-0.549 0.258,-0.853 0,-0.407 -0.162,-0.797 -0.449,-1.085 -0.289,-0.288 -0.679,-0.45 -1.086,-0.45 z" id="path30" style="opacity:1;fill:#000000;fill-opacity:1;stroke:#000000;stroke-width:0.5;stroke-miterlimit:4;stroke-dasharray:none;stroke-opacity:1" />
</svg>