<svg xmlns="http://www.w3.org/2000/svg" viewBox="1 1 14 14"><path d="M6.563 7.142l1.445-.85 1.445.85v1.7l-1.445.85-1.445-.85zm-.595 1.36l-1.2-.68v-3.4c.085-1.445 1.7-2.55 3.145-2.125.255.085 1.275.425.765.595L6.053 4.337c-.255.34-.085.765-.17 1.2v2.9zm7.14-2.38l-2.9-1.7c-.425 0-.68.34-1.105.425l-2.55 1.445v-1.36l2.975-1.7c1.36-.68 3.145.255 3.485 1.615.085.34.085.765.085 1.105zm-1.105 1.7l-3.315-1.87c.425-.17.765-.5 1.2-.68l3.06 1.785a2.55 2.55 0 0 1 .34 3.655c-.17.17-.935.935-1.02.5V8.077c0-.085-.085-.17-.255-.255zM2.567 5.697c.255-.425 1.02-1.2 1.36-1.02v3.23c.17.34.595.425.935.68l2.55 1.445c-.425.255-.765.5-1.2.68l-2.975-1.7c-1.02-.765-1.36-2.295-.68-3.315zm.68 5.865c-.255-.425-.5-1.36-.255-1.615l2.805 1.615c.425 0 .68-.34 1.105-.425l2.55-1.445v1.36l-3.06 1.7c-1.105.425-2.55 0-3.145-1.105zm5.525 2.295c-.5 0-1.445-.255-1.53-.595l2.805-1.615c.255-.34.085-.765.17-1.2V7.482l1.2.68v3.4c-.085 1.275-1.275 2.295-2.55 2.295zm5.1-7.14c.595-1.7-.425-3.74-2.125-4.25-.765-.425-1.785.17-2.295-.5-1.445-1.2-3.74-.935-4.845.595-.425.5-.5 1.2-1.275 1.275-1.615.68-2.465 2.72-1.785 4.335.255.595.85 1.02.5 1.7-.255 1.785 1.2 3.485 2.9 3.74.68.085 1.36-.17 1.785.425 1.445 1.105 3.655.765 4.76-.68.425-.5.5-1.275 1.275-1.275 1.615-.68 2.465-2.72 1.785-4.335a3.4 3.4 0 0 0-.68-1.02z"/></svg>