<svg xmlns="http://www.w3.org/2000/svg" viewBox="-2 0 60 49.5"><path d="M28.4 5.804c1 0 1.9-.8 1.9-1.9 0-1-.8-1.9-1.9-1.9-1 0-1.9.8-1.9 1.9s.8 1.9 1.9 1.9zm0 37.7c-1 0-1.9.8-1.9 1.9 0 1 .8 1.9 1.9 1.9 1 0 1.9-.8 1.9-1.9a1.97 1.97 0 0 0-1.9-1.9zm-17.5-10.3c-.5-.1-1-.1-1.4.2s-.7.7-.9 1.1c-.1.5-.1 1 .2 1.4.4.6 1 .9 1.6.9.3 0 .6-.1.9-.3.4-.3.8-.7.9-1.1.1-.5.1-1-.2-1.4-.2-.4-.6-.7-1.1-.8zm35.9-20.7c-.5-.1-1-.1-1.4.2-.9.5-1.2 1.7-.7 2.6.3.4.7.7 1.1.9.2 0 .3.1.5.1.3 0 .6-.1.9-.3.4-.3.8-.7.9-1.1.1-.5.1-1-.2-1.4-.2-.6-.6-.9-1.1-1zm.5 20.9c-.4-.3-.9-.3-1.4-.2-.3.1-.6.3-.8.5l-3.4-2c.2-.5.2-1 .1-1.5-.2-.7-.6-1.2-1.2-1.6-1.3-.7-2.9-.3-3.6 1-.4.6-.4 1.3-.3 2 0 .1 0 .1.1.2l-6.3 3.6c-.5-.6-1.2-.9-2-.9s-1.5.4-2 .9l-6.3-3.6c0-.1 0-.1.1-.2.2-.7.1-1.4-.3-2s-.9-1-1.6-1.2h-.2v-7.3h.2c.7-.2 1.2-.6 1.6-1.2s.4-1.3.3-2c0-.1 0-.1-.1-.2l6.3-3.6c.5.6 1.2.9 2 .9 1.5 0 2.6-1.2 2.6-2.6a2.65 2.65 0 0 0-2.6-2.6 2.65 2.65 0 0 0-2.6 2.6c0 .3.1.6.2.9l-6.3 3.6c-.2-.2-.4-.4-.7-.6-.6-.4-1.3-.4-2-.3-.7.2-1.2.6-1.6 1.2-.7 1.3-.3 2.9 1 3.6h0l.8.3v7.3c-.3.1-.6.1-.8.3-.6.4-1 .9-1.2 1.6s-.1 1.4.3 2 .9 1 1.6 1.2c.2.1.5.1.7.1.5 0 .9-.1 1.3-.4.3-.1.5-.3.7-.6l6.3 3.6c-.1.3-.2.6-.2.9 0 1.5 1.2 2.6 2.6 2.6a2.65 2.65 0 0 0 2.6-2.6c0-.3-.1-.6-.2-.9l6.3-3.6c.2.2.4.4.7.6h0c.4.2.9.4 1.3.4.7 0 1.5-.3 2-.9l3.4 2c-.1.3-.1.6 0 1a1.44 1.44 0 0 0 .9 1.1c.3.2.6.3.9.3.2 0 .3 0 .5-.1a1.44 1.44 0 0 0 1.1-.9c.3-.4.3-.9.2-1.4-.3-.6-.6-1.1-1-1.3zm-37.8-17.5c.3.2.6.3.9.3.2 0 .3 0 .5-.1a1.44 1.44 0 0 0 1.1-.9c.5-.9.2-2.1-.7-2.6s-2.1-.2-2.6.7c-.3.4-.3.9-.2 1.4.2.6.5 1 1 1.2zm6.2-13.2c.7-.4.9-1.3.5-2s-1.3-.9-2-.5-.9 1.3-.5 2c.4.6 1.3.9 2 .5zm25.4 44c-.7.4-.9 1.3-.5 2s1.3.9 2 .5.9-1.3.5-2-1.3-.9-2-.5zm-25.4 0c-.7-.4-1.6-.2-2 .5s-.2 1.6.5 2 1.6.2 2-.5.2-1.6-.5-2zm25.4-44c.7.4 1.6.2 2-.5s.2-1.6-.5-2-1.6-.2-2 .5c-.5.6-.2 1.5.5 2zm14.2 20.5a1.54 1.54 0 0 0-1.5 1.5 1.54 1.54 0 0 0 1.5 1.5 1.54 1.54 0 0 0 1.5-1.5c-.1-.8-.7-1.5-1.5-1.5zm-53.8 0a1.54 1.54 0 0 0-1.5 1.5 1.54 1.54 0 0 0 1.5 1.5 1.54 1.54 0 0 0 1.5-1.5c-.1-.8-.7-1.5-1.5-1.5zm37.6-2.1c.4 0 .9-.1 1.3-.4 1.3-.7 1.7-2.3 1-3.6s-2.3-1.7-3.6-1h0c-.6.4-1 .9-1.2 1.6s-.1 1.4.3 2c.4.9 1.3 1.4 2.2 1.4z"/></svg>