<svg xmlns="http://www.w3.org/2000/svg">
	<symbol id="direction" viewBox="0 0 174.498 12.514">
		<path d="M0 5.885l73.998-.83 50.83-1.785c6.92-.414 12.677-.906 16.663-1.46 2-.28 3.54-.582 4.535-.878.502-.146.844-.297 1.05-.405l.238-.162.42-.287.656.656-.37.338s-.154.142-.456.324c-.29.154-.714.33-1.256.484-1.085.314-2.667.608-4.686.88-4.037.533-9.81.985-16.745 1.354-13.868.744-32.37 1.183-50.87 1.443L0 5.885z"/>
		<path d="M148 .346l.448.43c.142.148.317.28.518.437.194.163.43.34.7.52.536.38 1.212.76 1.95 1.146s1.557.75 2.387 1.084c1.662.667 3.38 1.215 4.7 1.53l1.597.327.616.066s-.226.008-.62-.023a17.69 17.69 0 0 1-1.624-.218c-1.338-.227-3.1-.655-4.83-1.214l-2.506-.936c-.786-.342-1.514-.688-2.1-1.05a10.72 10.72 0 0 1-1.417-.958l-.477-.396-.385-.32.7-.77zM0 5.885l74 .08 50.9 1.27c6.94.346 12.724.78 16.785 1.302 2.033.267 3.633.556 4.762.88.562.156 1.026.347 1.36.523.367.218.57.418.565.405l.46.953-.85.85-1.025-.4c-.01-.004-.022-.003-.13-.08-.162-.085-.463-.224-.944-.365-.952-.288-2.484-.594-4.46-.88-3.96-.564-9.7-1.076-16.623-1.514C110.982 8.027 92.5 7.4 74 6.953L0 5.885z"/>
		<path d="M147 10.308l.5-.38c.14-.12.377-.272.64-.443.264-.18.557-.355.87-.515.626-.354 1.38-.682 2.2-1.003l2.566-.86c1.763-.504 3.547-.874 4.9-1.055l1.638-.163.623-.002s-.227.016-.613.088a17.34 17.34 0 0 0-1.583.383c-1.297.36-2.993.968-4.622 1.688l-2.327 1.16c-.715.405-1.366.806-1.872 1.193a6.19 6.19 0 0 0-.655.52l-.477.435-1.134 1.163-1.43-1.592zm17.166-4.423l.03-.327c.038-.2.003-.535.14-.916l.2-.64.34-.716c.146-.24.34-.478.526-.74l.73-.72c.582-.4 1.283-.84 2.137-.996.23-.036.385-.103.696-.113l.616-.006c.195-.02.435.02.7.077.245.053.518.093.75.185.94.33 1.813.966 2.474 1.824.646.876.972 1.98 1.015 3.1l-.08.782c-.002.2-.095.5-.2.797-.153.6-.463 1.05-.75 1.507-.66.858-1.533 1.5-2.472 1.822-.947.278-1.914.368-2.746.143-.373-.047-.798-.243-1.17-.4-.377-.153-.664-.4-.97-.594l-.73-.718-.526-.74-.34-.715c-.086-.227-.13-.448-.2-.64-.14-.38-.104-.707-.14-.917l-.03-.327zm0 0l.037.327c.045.208.006.536.167.907l.226.618.405.657c.17.216.382.418.584.643.228.2.505.368.774.55.3.112.6.296.94.36.336.055.628.15 1.05.116.73.043 1.444-.235 2.083-.563.63-.38 1.134-.934 1.523-1.54.138-.338.325-.668.372-.96.04-.147.108-.27.115-.53l.03-.342.024-.257.004-.042v-.02l.001-.01c-.002.04.006-.107-.004.1a4.96 4.96 0 0 0-.547-2.07c-.388-.607-.893-1.157-1.52-1.54-.15-.095-.302-.14-.454-.224-.145-.08-.304-.16-.526-.2l-.603-.13c-.1-.024-.333-.012-.493-.02-.728-.045-1.4.198-1.995.474l-.775.547-.584.642-.406.657c-.1.216-.155.43-.226.617-.162.37-.123.7-.168.908l-.036.33z"/>
	</symbol>
	<symbol id="center" viewBox="0 0 78.6 18.893">
		<path d="M39.336 9.54c0 .001.02.793-.398 1.112-.455.227-1.147.497-2.016.874l-3.14 1.337-4.146 1.676c-1.554.502-3.13 1.182-5.047 1.58l-1.417.35c-.477.125-.96.24-1.46.292l-3.04.43-3.158.135-1.628.034-1.596-.083c-2.23-.167-4.413-.68-6.484-1.565-2.038-.893-4.018-2.178-5.183-4.133a4.44 4.44 0 0 1-.579-1.594c-.067-.6-.048-1.09-.006-1.646.088-1.075.4-2.172 1.04-3.08.622-.922 1.533-1.584 2.458-2.055.93-.497 1.898-.782 2.844-1.022 1.897-.446 3.72-.477 5.362-.453 1.618.04 3.198.136 4.545.532a12.99 12.99 0 0 1 1.824.683c.52.302 1.025.518 1.41.826l1.038.783.688.663.55.563-.71-.346-.825-.43-1.142-.488c-.85-.355-1.907-.675-3.133-.856-1.227-.212-2.642-.17-4.26-.16l-5.07.25c-1.727.232-3.653.634-4.92 2.022C1.14 6.47.758 7.4.667 8.4.617 8.88.572 9.444.65 9.893c.083.473.264.936.528 1.36 1.102 1.707 3.096 2.704 5.055 3.32 1.993.596 4.112.837 6.125.928l1.58.02c.475-.003 1.015-.062 1.514-.09l3-.23 2.856-.507c.47-.064.92-.188 1.362-.322L23.983 14c1.712-.43 3.392-1.106 4.917-1.612l4.077-1.587 3.188-1.213 2.058-.766c.52-.06 1.042.53 1.042.53z"/>
		<path d="M39.263 9.354s.008-.165.064-.38c.048-.236.156-.493.353-.687s.504-.265.836-.424l4.302-1.83 4.146-1.68c1.555-.5 3.13-1.183 5.046-1.58l1.417-.35c.478-.125.962-.24 1.462-.292l3.04-.43 3.158-.135 1.628-.034 1.596.083c2.23.167 4.413.68 6.484 1.565 2.038.892 4.018 2.177 5.183 4.132.29.485.493 1.027.58 1.594.067.6.048 1.09.006 1.646-.09 1.075-.4 2.17-1.043 3.076-.623.92-1.533 1.58-2.458 2.05-.93.492-1.9.764-2.843 1.017-1.896.455-3.72.483-5.36.47-1.617-.034-3.198-.12-4.55-.507a13.04 13.04 0 0 1-1.834-.669c-.525-.297-1.034-.5-1.424-.814L58 14.4l-.698-.654-.563-.556.125-.156.698.353.814.438 1.13.498c.84.362 1.9.7 3.1.88 1.222.22 2.636.188 4.254.185l5.072-.233c.872-.122 1.78-.26 2.63-.585.853-.303 1.676-.753 2.29-1.448.603-.7.982-1.63 1.073-2.63.05-.48.094-1.044.018-1.493-.082-.473-.264-.936-.527-1.36-1.102-1.707-3.097-2.705-5.056-3.32-1.993-.596-4.112-.837-6.126-.927l-1.58-.02c-.475.002-1.015.062-1.515.09l-3 .23-2.856.508c-.47.064-.92.188-1.36.32l-1.313.373c-1.712.43-3.393 1.103-4.918 1.61L45.62 8.09l-4.368 1.662c-.35.116-.62.28-.895.274s-.526-.116-.72-.255c-.187-.116-.304-.23-.304-.23z"/>
		<path stroke-miterlimit="10" d="M29.716 13.308l19.167-7.723" fill="none" stroke="#000" stroke-width="2"/>
		<path d="M50.298 1.93c-.005.007-.064-.133-.23-.326-.146-.2-.438-.423-.854-.563-.833-.3-2.152-.246-3.673.172-.77.203-1.553.524-2.437.9l-2.748 1.152-5.992 2.458-6.02 2.383-2.78 1.075-2.593.874c-1.668.42-3.262.265-4.156-.357-.45-.298-.67-.684-.76-.936-.1-.26-.078-.405-.088-.402a1.7 1.7 0 0 0 .229.321c.15.2.44.424.856.565.832.298 2.15.246 3.67-.17.755-.2 1.556-.525 2.437-.9l2.748-1.15 5.993-2.46 6.02-2.382 2.78-1.076 2.593-.874c1.67-.42 3.262-.262 4.155.358.45.3.67.678.764.938.088.26.075.4.086.4zm10.334 8.598c-.005.007-.064-.134-.23-.326-.145-.2-.438-.423-.854-.562-.833-.3-2.15-.245-3.673.173-.77.203-1.552.525-2.437.9L50.7 11.866l-6 2.458-6.02 2.383-2.78 1.075-2.593.875c-1.668.42-3.262.264-4.155-.357a1.95 1.95 0 0 1-.762-.936c-.1-.26-.078-.406-.088-.402a1.7 1.7 0 0 0 .229.321c.15.2.44.424.856.565.832.297 2.15.245 3.67-.172.756-.198 1.556-.525 2.437-.9l2.748-1.15 6-2.458 6.022-2.382 2.78-1.075c.867-.342 1.755-.68 2.593-.875 1.668-.42 3.26-.263 4.154.357.45.3.67.678.764.938.088.258.076.4.087.4z"/>
	</symbol>
</svg>
