<svg xmlns="http://www.w3.org/2000/svg" viewBox="0 0 9.79 9.98">
  <path d="m 4.8797293,0.03699954 c -0.012,0.332 -0.157,0.933 -0.35,1.43499996 -0.443,1.15 -1.54,2.3 -2.724,2.887 -0.46,0.227 -0.5974687,0.2764063 -1.30353125,0.4404688 -0.64964185,0.1151612 -0.6768089,0.138855 -0.009531,0.2533124 0.67251485,0.1397328 1.32281275,0.3797523 2.02906255,0.7622188 0.5219792,0.394818 0.9905533,0.855661 1.394,1.371 0.5019999,0.706 0.852,1.592 0.9499999,2.432 l 0.04,0.362 0.04,-0.32 c 0.122,-0.87 0.3730001,-1.557 0.834,-2.263 0.875,-1.336 2.2630001,-2.24 3.7860001,-2.456 0.268,-0.04 0.28,-0.047 0.117,-0.082 -1.616,-0.362 -2.45,-0.8 -3.3,-1.72 -0.708324,-0.7351545 -1.1850635,-1.6622058 -1.371,-2.66599996 -0.076,-0.4 -0.134,-0.56 -0.134,-0.437 z"/>
</svg>
