<svg xmlns="http://www.w3.org/2000/svg" viewBox="0 0 9.79 9.98">
	<path d="m 4.8797293,0.03699954 c -0.012,0.332 -0.157,0.933 -0.35,1.43499996 -0.443,1.15 -1.54,2.3 -2.724,2.887 -0.46,0.227 -1.242,0.46 -1.534,0.46 -0.0832356,0.00188 -0.1650901,0.021665 -0.24,0.058 -0.064,0.04 -0.035,0.058 0.122,0.058 0.548,0 1.727,0.443 2.368,0.88 0.5219792,0.394818 0.9905533,0.855661 1.394,1.371 0.502,0.706 0.852,1.592 0.95,2.432 l 0.04,0.362 0.04,-0.32 c 0.122,-0.87 0.373,-1.557 0.834,-2.263 0.875,-1.336 2.263,-2.24 3.786,-2.456 0.268,-0.04 0.28,-0.047 0.117,-0.082 -1.616,-0.362 -2.45,-0.8 -3.3,-1.72 -0.708324,-0.7351545 -1.1850635,-1.6622058 -1.371,-2.66599996 -0.076,-0.4 -0.134,-0.56 -0.134,-0.437 z m 0.42,2.89999996 c 0.367,0.758 1.394,1.6 2.17,1.802 l 0.408,0.1 c 0.157,0.04 0.14,0.052 -0.204,0.122 -1.26,0.262 -2.357,1.365 -2.677,2.683 -0.07,0.303 -0.084375,0.4087188 -0.117,0.28 -0.03725,-0.2609063 -0.17,-0.758 -0.367,-1.16 -0.45,-0.887 -1.756,-1.82 -2.584,-1.843 -0.152,0 -0.157,-0.012 -0.058,-0.052 0.1669179,-0.055626 0.3360621,-0.104334 0.507,-0.146 0.73,-0.187 1.54,-0.793 2,-1.5 0.233,-0.367 0.4279958,-0.8961314 0.513,-1.4 0.016572,-0.14 0.035,-0.064 0.117,0.268 0.07608,0.2846187 0.2050212,0.5988322 0.292,0.846 z"/>
</svg>
