<svg xmlns="http://www.w3.org/2000/svg" viewBox="0 -0.5 24 23">
  <path id="path4" style="fill:#000000;stroke-width:0.4;stroke-miterlimit:4;stroke-dasharray:none;stroke:#000000;stroke-opacity:1;fill-opacity:1" d="M 23.651103,23.05505 H 4.2701035 v -1.191 h 1.643 c 0.287,-3.86 3.982,-5.3 6.0359995,-8.417 H 9.5681035 c -1.15,0.411 -2.875,2.956 -2.875,4.434 h -3 l 0.041,-1.232 -0.986,0.821 -2.62500003,-3.035 a 0.632,0.632 0 0 1 -0.1230000049,-0.29 0.506,0.506 0 0 1 0.0410000049,-0.21 l 4.14700003,-5.621 0.739,-2.217 1.109,-0.41 1.15,-1.6 -0.411,-2.795 a 2.621,2.621 0 0 1 2.71,0.492 14.32,14.32 0 0 0 -0.041,-1.72399999 2.485,2.485 0 0 1 2.9999995,2.05299999 13.982,13.982 0 0 1 1.478,0.206 0.669,0.669 0 0 1 0.616,-0.452 0.6,0.6 0 0 1 0.616,0.616 v 0.164 a 11.891,11.891 0 0 1 2.423,1.15 0.585,0.585 0 0 1 0.492,-0.247 0.6,0.6 0 0 1 0.616,0.616 0.505,0.505 0 0 1 -0.123,0.37 10.569,10.569 0 0 1 1.807,2.012 0.76,0.76 0 0 1 0.287,-0.082 0.641,0.641 0 0 1 0.657,0.616 0.55,0.55 0 0 1 -0.328,0.534 11.474,11.474 0 0 1 0.982,2.419 0.246,0.246 0 0 1 0.164,-0.041 0.6,0.6 0 0 1 0.616,0.616 0.593,0.593 0 0 1 -0.451,0.616 c 0.164,0.862 0.287,1.725 0.369,2.628 a 0.641,0.641 0 0 1 0.657,0.616 0.67,0.67 0 0 1 -0.616,0.657 c 0,0.862 -0.041,1.807 -0.123,2.71 a 0.664,0.664 0 0 1 0.575,0.657 0.64,0.64 0 0 1 -0.657,0.616 h -0.041 c -0.164,0.9 -0.328,1.806 -0.534,2.751 h 1.725 z m -2.957,-1.15 c 2.382,-9.814 -0.411,-17.615 -8.007,-18.519 a 10.043,10.043 0 0 1 0.041,1.068 c 0,0.493 -0.041,0.9 -0.041,0.9 l -1.187,-0.203 c 0.041,-0.411 0.123,-3.2 -0.863,-3.818 a 15.523,15.523 0 0 1 -0.328,2.956 l -1.1089995,-0.204 a 1.66,1.66 0 0 0 -1.069,-1.725 l 0.287,2.012 -0.7,1.027 0.33,0.944 -2.176,0.739 -0.616,1.766 -3.819,5.256 1.438,1.724 1.6,-1.355 0.369,0.246 v 2.016 h 0.863 a 8.069,8.069 0 0 1 2.669,-3.942 l -0.616,-0.743 0.9,-0.78 0.865,1.065 c 0,0 3.0799995,0 3.0799995,-0.041 a 8.5,8.5 0 0 0 0.739,-3.572 h 1.191 c 0,4.681 -2.34,6.529 -5.2559995,9.4 a 6.09,6.09 0 0 0 -2.135,3.783 z m -17.1209995,-9.07 a 3.172,3.172 0 0 1 -0.329,1.766 l -0.862,-0.329 a 2.722,2.722 0 0 0 0.452,-1.478 z m 4.721,-4.562 -1.847,0.985 -0.124,-1.523 1.93,-0.2 z" />
</svg>