<?xml version="1.0" standalone="yes"?>
<svg xmlns="http://www.w3.org/2000/svg" width="433" height="416">
<path style="fill:#fefefe; stroke:none;" d="M0 0L0 416L433 416L433 0L0 0z"/>
<path style="fill:#030303; stroke:none;" d="M192 311L204 311C205.291 304.044 205.002 296.996 206.145 290C208.601 274.972 213.387 259.865 221.699 247C227.481 238.052 234.914 230.163 241.715 222C272.595 184.929 313.965 145.207 311.021 93C310.571 85.021 309.423 76.6126 306.91 69C285.575 4.34457 198.167 -7.16925 144 20.1196C119.506 32.4594 103.896 55.1264 100.715 82C99.2529 94.347 99.9814 107.043 106.337 117.996C115.036 132.986 138.371 141.48 150.2 124.985C151.908 122.604 153.153 119.892 153.671 117C157.504 95.5788 136.928 80.4705 138.093 60C138.883 46.1154 149.037 35.7949 161 29.76C181.089 19.6265 206.203 21.3498 225 33.5479C232.494 38.4106 239.416 45.5492 244.304 53C248.044 58.7011 250.632 64.6104 252.946 71C255.85 79.0177 256.514 86.6092 257.09 95C259.971 137.033 236.148 171.422 218.781 208C213.643 218.822 208.509 229.726 204.435 241C196.108 264.046 193.906 286.853 192 311M158 355C160.739 353.69 164.265 351.595 163.594 347.985C162.808 343.756 158.374 339.732 156.312 336C151.638 327.54 148.297 318.518 146.615 309C145.157 300.747 146.146 292.314 145.986 284C145.278 247.285 147.796 199.437 110 179.323C71.6454 158.913 25.4798 191.382 10.7307 227C2.14278 247.739 6.09932 281.194 29 291.811C34.3158 294.275 41.2544 295.987 47 294.196C56.7372 291.161 61.0469 280.079 56.3117 271.039C50.3217 259.604 33.3086 259.927 25.3935 249.985C19.131 242.12 20.1048 232.524 24.2593 224C30.6302 210.929 43.2869 200.75 58 199.174C73.3199 197.532 86.036 204.791 96.9606 214.845C124.659 240.336 123.941 282.669 136.054 316C141.331 330.519 150.483 341.807 158 355M239 349C240.308 351.77 242.298 355.383 246.001 354.825C250.933 354.081 256.845 347.737 261 345.003C268.991 339.745 277.66 335.994 287 333.888C294.522 332.192 302.358 332.434 310 331.91C348.71 329.26 400.873 330.128 420.514 289C439.932 248.338 410.203 201.674 372 185.036C346.686 174.012 308.835 178.688 297.62 208C295.187 214.358 295.016 222.915 298.417 228.985C302.579 236.41 313.704 239.416 320.985 234.852C333.711 226.874 331.962 207.808 343.043 198.479C349.41 193.119 357.289 193.359 365 195.239C382.722 199.56 396.906 217.065 398.826 235C400.676 252.279 390.754 268.325 378.999 279.996C352.729 306.079 311.621 308.397 279 322.862C264.133 329.454 252.274 339.935 239 349M196 346.439C189.009 347.531 181.342 350.928 176.468 356.185C161.576 372.246 167.026 399.917 188 407.671C194.015 409.894 200.772 409.902 207 408.854C230.118 404.964 239.342 375.976 225.39 358.039C221.062 352.475 214.615 349.466 208 347.58C203.925 346.419 200.232 345.778 196 346.439z"/>
</svg>
