<svg xmlns="http://www.w3.org/2000/svg" xmlns:xlink="http://www.w3.org/1999/xlink" width="36.216" height="36.216" fill="none" xmlns:v="https://vecta.io/nano"><g fill="#000"><path d="M.416 11.698a4.941 4.941 0 1 0 9.882 0 4.941 4.941 0 1 0-9.882 0zm.128 18.716a4.941 4.941 0 1 0 9.882 0 4.941 4.941 0 1 0-9.882 0z"/><use xlink:href="#B"/><use xlink:href="#B" x="0.307" y="-18.46"/><path d="M13.167 24.518a4.94 4.94 0 1 0 9.882 0 4.94 4.94 0 1 0-9.882 0z"/><use xlink:href="#B" x="12.931" y="12.462"/><use xlink:href="#B" x="12.931" y="-5.896"/><use xlink:href="#B" x="12.931" y="-14.588"/><path d="M24.971 11.698a4.94 4.94 0 1 0 9.882 0 4.94 4.94 0 0 0-9.882 0z"/><use xlink:href="#B" x="24.504" y="-18.409"/><use xlink:href="#B" x="24.76"/><use xlink:href="#B" x="24.862" y="9.358"/></g><g fill="#fff"><path d="M58.834 26.839h1.078l4.236-15.615 2.105-.301V9.896h-5.689v1.028l2.281.326-3.183 11.58-3.735-11.605 2.531-.301V9.896H51.64v1.028l2.506.301-3.81 11.504L47.253 11.2l2.306-.276V9.896h-6.817v1.028l2.08.251 4.511 15.665h1.078l4.085-13.008zm12.598-11.253c1.554 0 2.732 1.278 2.732 2.707 0 .727-.276 1.303-1.479 1.303h-4.562c.276-2.907 1.905-4.01 3.309-4.01z"/><path d="M71.582 14.433c-3.133 0-5.765 2.557-5.765 6.391s2.206 6.166 5.589 6.166c2.281 0 3.885-1.128 4.812-2.907l-.601-.476c-.902 1.053-1.88 1.755-3.484 1.755-2.406 0-4.01-1.629-4.06-4.712h7.995c.1-.326.175-.827.175-1.404 0-3.033-2.055-4.812-4.662-4.812zm9.719-2.757c.927 0 1.679-.677 1.679-1.604 0-.978-.752-1.604-1.679-1.604-.953 0-1.679.627-1.679 1.604 0 .927.727 1.604 1.679 1.604z"/><use xlink:href="#C"/><path d="M90.972 15.46c1.554 0 2.456 1.228 2.456 3.008 0 1.855-.952 3.183-2.556 3.183-1.554 0-2.431-1.253-2.431-3.083s.953-3.108 2.532-3.108z"/><path d="M86.41 18.543c0 1.704.727 2.882 1.93 3.534-1.253 1.153-1.704 2.005-1.704 2.782 0 .977.552 1.604 1.654 1.905-1.855.902-2.456 1.779-2.456 2.857 0 1.779 1.554 3.033 5.188 3.033 4.11 0 6.191-2.155 6.191-4.336 0-2.03-1.278-3.233-4.035-3.233h-3.283c-1.178 0-1.454-.426-1.454-1.103 0-.576.201-1.053.627-1.604.552.175 1.178.276 1.855.276 2.607 0 4.537-1.479 4.537-4.11 0-.902-.201-1.679-.577-2.281h2.456v-1.579l-.376-.251-2.832.978c-.802-.652-1.905-.977-3.183-.977-2.607 0-4.536 1.479-4.536 4.11z"/><path d="M91.122 31.501c-1.98 0-3.233-.652-3.233-2.281 0-.827.276-1.504.978-2.256l1.028.05h2.933c1.805 0 2.507.852 2.507 1.955 0 1.404-1.479 2.531-4.211 2.531zm9.219-10.101l-.05 4.01-1.88.351v.902h5.815v-.902l-1.729-.351-.05-4.01v-3.534c1.278-1.153 2.305-1.629 3.534-1.629 1.478 0 2.055.727 2.055 3.033v2.13l-.05 4.035-1.83.326v.902h5.815v-.902l-1.755-.351-.05-4.01v-2.331c0-3.283-1.053-4.637-3.208-4.637-1.579 0-3.358.953-4.587 2.331v-4.862l.1-3.559-.35-.201-3.835 1.128v.877l2.055.251zm16.685 2.457v-7.77h3.409v-1.328h-3.359l.126-3.409h-1.504l-.652 3.359-2.231.276v1.103h2.081v5.915l-.025 2.13c0 1.955 1.102 2.857 2.857 2.857 1.278 0 2.306-.476 2.958-1.328l-.602-.652c-.627.451-1.128.677-1.679.677-.853 0-1.379-.551-1.379-1.83zm8.727 3.133c3.234 0 4.888-1.679 4.888-3.584 0-1.579-.952-2.757-3.459-3.684l-.777-.276c-1.704-.627-2.306-1.053-2.306-2.155 0-1.028.802-1.704 2.331-1.704.602 0 1.178.15 1.73.426l.401 2.005h1.303l.1-2.557c-1.077-.652-2.155-1.028-3.509-1.028-2.807 0-4.361 1.704-4.361 3.534 0 1.704 1.203 2.707 3.033 3.384l1.153.426c1.579.551 2.331 1.103 2.331 2.18 0 1.128-.903 1.905-2.808 1.905-.776 0-1.428-.125-2.03-.401l-.476-2.18h-1.378l.1 2.757c1.228.627 2.331.952 3.734.952zm17.269-11.43c-.927-1.153-1.128-1.93-1.128-2.832 0-1.328 1.003-2.331 2.281-2.331 1.228 0 2.181.902 2.181 2.356s-1.103 2.557-2.657 3.634l-.677-.827z"/><path d="M154.251 26.739l.1-1.103-2.431-.326-2.056-2.181a18.4 18.4 0 0 0 2.607-5.865l1.905-.351v-1.003h-5.088v1.003l1.98.326a17.29 17.29 0 0 1-2.08 5.163l-2.882-3.108-2.006-2.231c2.557-1.379 3.71-2.607 3.71-4.336 0-1.88-1.328-3.208-3.81-3.208-2.356 0-4.11 1.353-4.11 3.559 0 1.328.476 2.607 1.729 4.035.025.05.075.075.1.125-2.506 1.253-3.784 2.933-3.784 5.188 0 2.531 2.155 4.562 5.288 4.562 2.406 0 4.01-.927 5.113-2.131l.877.978c.827.852 1.604 1.153 2.933 1.153.652 0 1.153-.075 1.905-.251z"/><path d="M145.253 21.175l2.556 2.882c-.952.852-2.306 1.328-3.709 1.328-2.431 0-3.785-1.805-3.785-3.634 0-1.253.476-2.757 2.206-3.81l2.732 3.233zm19.553-2.281l-.05 6.467-2.306.276v1.028h6.892c4.813 0 6.692-2.306 6.692-4.587 0-2.03-1.403-3.659-4.737-4.135 2.782-.576 3.885-2.181 3.885-3.96 0-2.381-1.98-4.085-5.464-4.085h-7.268v1.028l2.306.276.05 6.467z"/><path d="M168.565 18.568c3.459 0 4.963 1.178 4.963 3.509 0 2.206-1.554 3.409-4.762 3.409h-1.529l-.05-6.918zm.401-7.519c2.557 0 3.86.827 3.86 3.108s-1.303 3.258-4.336 3.258h-1.303l.05-6.366zm11.979.627c.927 0 1.679-.677 1.679-1.604 0-.978-.752-1.604-1.679-1.604-.953 0-1.679.627-1.679 1.604 0 .927.726 1.604 1.679 1.604z"/><use xlink:href="#C" x="99.644"/><path d="M195.002 26.915c.877 0 1.579-.326 2.18-1.303l-.501-.551c-.276.326-.552.551-.978.551-.551 0-.902-.401-.902-1.479v-5.339c0-3.158-1.253-4.361-3.885-4.361-2.556 0-4.411 1.203-4.887 3.108.075.652.476 1.028 1.178 1.028.677 0 1.078-.426 1.303-1.203l.476-1.629a5.71 5.71 0 0 1 1.354-.15c1.654 0 2.356.601 2.356 3.033v.627c-1.003.226-2.055.551-2.832.827-3.384 1.228-4.161 2.356-4.161 3.785 0 2.08 1.529 3.133 3.359 3.133 1.478 0 2.306-.652 3.684-2.005.201 1.178 1.053 1.93 2.256 1.93z"/><path d="M187.934 23.481c0-.752.276-1.704 2.456-2.556l2.306-.752v3.86c-1.429 1.003-1.905 1.303-2.757 1.303-1.153 0-2.005-.526-2.005-1.855zm14.406 3.509c3.233 0 4.888-1.679 4.888-3.584 0-1.579-.953-2.757-3.459-3.684l-.777-.276c-1.704-.627-2.306-1.053-2.306-2.155 0-1.028.802-1.704 2.331-1.704a3.83 3.83 0 0 1 1.729.426l.401 2.005h1.304l.1-2.557c-1.078-.652-2.155-1.028-3.509-1.028-2.807 0-4.361 1.704-4.361 3.534 0 1.704 1.203 2.707 3.033 3.384l1.153.426c1.579.551 2.33 1.103 2.33 2.18 0 1.128-.902 1.905-2.807 1.905-.777 0-1.428-.125-2.03-.401l-.476-2.18h-1.379l.101 2.757c1.228.627 2.331.952 3.734.952zm12.597-11.404c1.554 0 2.732 1.278 2.732 2.707 0 .727-.276 1.303-1.479 1.303h-4.561c.275-2.907 1.905-4.01 3.308-4.01z"/><path d="M215.088 14.433c-3.134 0-5.765 2.557-5.765 6.391s2.205 6.166 5.589 6.166c2.281 0 3.885-1.128 4.812-2.907l-.601-.476c-.902 1.053-1.88 1.755-3.484 1.755-2.406 0-4.01-1.629-4.06-4.712h7.995c.1-.326.175-.827.175-1.404 0-3.033-2.055-4.812-4.661-4.812zm10.896 12.557c3.234 0 4.888-1.679 4.888-3.584 0-1.579-.952-2.757-3.459-3.684l-.777-.276c-1.704-.627-2.306-1.053-2.306-2.155 0-1.028.802-1.704 2.331-1.704.602 0 1.178.15 1.73.426l.401 2.005h1.303l.1-2.557c-1.077-.652-2.155-1.028-3.509-1.028-2.807 0-4.361 1.704-4.361 3.534 0 1.704 1.203 2.707 3.033 3.384l1.153.426c1.579.551 2.331 1.103 2.331 2.18 0 1.128-.903 1.905-2.807 1.905-.777 0-1.429-.125-2.03-.401l-.477-2.18h-1.378l.1 2.757c1.228.627 2.331.952 3.734.952z"/></g><defs ><path id="B" d="M2.838 21.056a2.34 2.34 0 0 0 2.34 2.34 2.34 2.34 0 0 0 2.34-2.34 2.34 2.34 0 0 0-2.34-2.34 2.34 2.34 0 0 0-2.34 2.34z"/><path id="C" d="M84.158 25.761l-1.754-.351-.05-4.01v-3.308l.075-3.409-.376-.251-3.86 1.529v.877l2.005.226.075 3.158V21.4l-.05 4.01-1.88.351v.902h5.815z"/></defs></svg>