<svg xmlns="http://www.w3.org/2000/svg" width="3159.423" height="2903.406" viewBox="0 0 3160.092 2904.544" xmlns:v="https://vecta.io/nano"><path fill="#dedcda" fill-opacity=".012" d="M1330.03 1469.653c2.317-.39 1.086-.43 3.679.38l.991 2.71c-.295 3.98-1.602 7.48-4.579 9.89-2.806 2.28-5.051 2.5-8.271 1.58-.3-.08-2.223-.69-2.592-.71-3.119-.19-4.303 1.71-6.5 3.78l-5.413.46-1.518-1.72c2.649-6.98 18.026-13.12 24.203-16.37z"/><path d="M1675.364 1622.763l3.63.31 1.39 1.97c.96 6.51 4.16 19.35 1.3 24.73l-3.69.19c-4.1-1.65-8.09-3.45-10.75-7.53-1.82-2.79-2.08-5.23-1.43-8.6 1.08-5.63 5.56-8.26 9.55-11.07z"/><defs><linearGradient id="A" href="#A"><stop offset="0" stop-color="#f1f4f8" stop-opacity=".047"/><stop offset="1" stop-color="#e7e4e9" stop-opacity=".082"/></linearGradient></defs><path fill="url(#A)" d="M2221.394 1633.393c2.81-.2 5.84-.55 8.64-.07 5.97 1 13.33 5.93 16.97 11.31l-.88 2.33-3.05.68c-7.32.04-22.56 1.65-28.39-3.56-1.33-1.19-.88-2-.9-3.71 2.23-3.41 4.34-4.92 7.61-6.98z"/><defs><linearGradient id="B" x1="47233.246" y1="46620.723" x2="46834.691" y2="46198.926" href="#A" gradientUnits="userSpaceOnUse"><stop offset="0" stop-color="#fff" stop-opacity="0"/><stop offset="1" stop-color="#e6e4e4" stop-opacity=".078"/></linearGradient></defs><path fill="url(#B)" d="M1697.264 1555.243c4.85 2.16 11.22 4.45 12.94 10.71 1.22 4.46-.29 9.01-2.47 12.72-2.52 4.3-9.19 12.25-13.88 13.33-4.56 1.05-12.41-3.12-15.67-6.52-1.74-1.81-3.15-4.06-4.54-6.21.31-.1.63-.15.93-.3 1.94-.99 3.26-1.98 5.39-2.61 4.73-1.41 10.17-3.1 13.43-7.57 3.39-4.67 4.19-7.87 3.87-13.55z"/><defs><linearGradient id="C" x1="51144.551" y1="42704.027" x2="50733.535" y2="42102.312" href="#A" gradientTransform="matrix(0.86673234,0,0,1.1537587,470.43407,361.82393)" gradientUnits="userSpaceOnUse"><stop offset="0" stop-color="#f8f9f8" stop-opacity=".02"/><stop offset="1" stop-color="#e4e3e4" stop-opacity=".059"/></linearGradient></defs><path fill="url(#C)" d="M1823.734 1466.363c2.03-.04 2.6.67 4.33 1.75l.46 2.53c-4.07 14.64-16.66 30.5-28.37 38.26-.86-.23-1.63-1.39-2.28-2.07-.87-5.3-2.26-17.26-.35-22.29 3.28-8.6 18.8-14.5 26.21-18.18z"/><defs><linearGradient id="D" x1="53261.602" y1="41869.204" x2="53046.133" y2="42722.047" href="#A" gradientUnits="userSpaceOnUse"><stop offset="0" stop-color="#fefffe" stop-opacity=".008"/><stop offset="1" stop-color="#dedde2" stop-opacity=".106"/></linearGradient></defs><path fill="url(#D)" d="M2143.914 1616.743c.06-.01.12-.03.18-.01 7.05 1.49 10.58 6.08 15.38 11.58 1.02 4.79 3.06 10.75 1.7 15.54-2.18 2.86-5.09 3.39-8.18 4.4-5.03.27-10.41.84-15.41.02-2.22-.37-3.95-1.26-5.14-3.42-1.8-3.25-1.41-6.45-.47-9.94 2.23-8.36 5.04-14 11.94-18.17z"/><path fill="#dedcda" fill-opacity=".196" d="M1440.12 1515.993c10.291 8.13 19.528 18.83 28.685 28.49l36.749 38.82c9.91 10.98 19.28 22.64 29.49 33.27 11.89 12.39 27.09 21.36 38.06 34.65-18.89-7.51-40.89-37.37-57.02-50.75-5.63-4.66-13.37-4.76-19.42-9.34-9.23-6.99-27.163-30.27-29.294-42.13-1.524-8.48-21.574-23.64-27.25-33.01z"/><defs><linearGradient id="E" x1="61085.754" y1="56945.395" x2="60713.941" y2="56101.016" href="#A" gradientTransform="matrix(1.4280491,0,0,0.70025602,470.43407,361.82393)" gradientUnits="userSpaceOnUse"><stop offset="0" stop-color="#f1f1f1" stop-opacity=".043"/><stop offset="1" stop-color="#cdcdcc" stop-opacity=".129"/></linearGradient></defs><path fill="url(#E)" d="M1746.794 1516.133c6.18.48 14-.03 18.97 4.59 1.3 3.9 1.35 6.2-.14 10.08-1.44 3.71-2.82 5.88-6.31 7.38-15.94 6.85-36.98 1.49-49.5 5.06-3.43.98-6.41 3.94-9.51 5.86l-.8-2.07c3.52-4.33 7.15-8.18 11.09-12.01l6.99-7.02 2.14.19c2.51.25 4.08.99 6.29 2.26 1.96-2.16 1.26-.95 2.22-3.55.32-.28.6-.62.95-.84 5.71-3.53 11.3-7.72 17.61-9.93zm-29.21 11.87l-6.99 7.02c1.67 1.31 2.76 1.86 4.77 1.6 5.17-.68 11.56-1.25 14.97-6.13l-2.1-3.59c-.96 2.6-.26 1.39-2.22 3.55-2.21-1.27-3.78-2.01-6.29-2.26-.71-.08-1.42-.13-2.14-.19z"/><path fill="#dedcda" fill-opacity=".125" d="M1717.584 1528.003l2.14.19c2.51.25 4.08.99 6.29 2.26 1.96-2.16 1.26-.95 2.22-3.55l2.1 3.59c-3.41 4.88-9.8 5.45-14.97 6.13-2.01.26-3.1-.29-4.77-1.6z"/><defs><linearGradient id="F" x1="22661.883" y1="60337.285" x2="22760.486" y2="61048.109" href="#A" gradientTransform="matrix(1.9668553,0,0,0.50842581,470.43407,361.82393)" gradientUnits="userSpaceOnUse"><stop offset="0" stop-color="#f7f7f8" stop-opacity=".082"/><stop offset="1" stop-color="#e3e3e6" stop-opacity=".149"/></linearGradient></defs><path fill="url(#F)" d="M978.714 1632.653c7.309-.71 18.451-1.18 25.459.86 2.798.82 3.778 1.46 5.112 4.28-.56 1.55-1.12 2.84-2.26 3.98-13.287 13.31-34.472 14.03-51.027 13-11.973.12-24.434-2.94-35.882-6.59 18.032-8 39.268-13.22 58.598-15.53z"/><defs><linearGradient id="G" x1="85922.914" y1="69649.844" x2="86092.742" y2="70870.945" href="#A" gradientTransform="matrix(1.7090045,0,0,0.58513595,470.43407,361.82393)" gradientUnits="userSpaceOnUse"><stop offset="0" stop-color="#fcfefe" stop-opacity=".012"/><stop offset="1" stop-color="#e0e0e3" stop-opacity=".059"/></linearGradient></defs><path fill="url(#G)" d="M2104.554 1623.353c2.09.02 4 .21 6.07.58l.64 2.53c-4.55 7.26-10.37 14.29-17.31 18.65-18.92 11.87-40.54 11.48-60.72 4.6-5.45-2.96-8.83-6.43-13.04-11.15 20.66-8.98 66.67-3.21 84.36-15.21z"/><path d="M1472.403 866.599l-.3-519.687.105-164.43c.045-31.719-1.725-65.47 2.235-96.862 2.19-17.253 10.275-33.603 20.46-46.674 18.705-24.024 47.01-37.422 75.195-38.802 29.55-1.448 60.945 7.968 83.055 30.706a84.56 84.56 0 0 1 2.55 2.737c.84.933 1.66 1.885 2.46 2.856a88.64 88.64 0 0 1 2.34 2.967c.77 1.008 1.515 2.033 2.235 3.075a110.83 110.83 0 0 1 2.115 3.177c.68 1.075 1.345 2.166 1.995 3.272a100.45 100.45 0 0 1 1.86 3.364c.61 1.135 1.195 2.284 1.755 3.447l1.605 3.526a91.89 91.89 0 0 1 1.485 3.599c.47 1.211.915 2.433 1.335 3.665a80.66 80.66 0 0 1 1.2 3.723 97.85 97.85 0 0 1 1.065 3.777c.33 1.268.64 2.543.93 3.825a124.44 124.44 0 0 1 .78 3.862c.23 1.294.44 2.593.63 3.897 3.75 24.978 1.98 52.396 1.98 77.746l-.09 135.555.105 365.741c.015 68.871-1.59 138.234.765 207.007 41.49-43.605 81.75-88.804 122.52-133.269 24.72-26.971 54.06-63.895 83.52-83.509 15.87-10.557 34.41-15.184 52.725-15.846 29.64-1.072 61.26 9.601 82.98 32.894 18.03 19.356 30.27 46.115 30.33 74.438.045 19.161-5.835 36.807-15.585 52.379-111.44 117.774-111.774 116.113-421.425 429.735-11.595 11.94-28.095 22.41-37.125 36.63-5.58-6.315-10.935-12.99-17.58-17.925-16.455-19.935-39.255-33.39-57.09-51.975-15.315-15.945-29.37-33.435-44.235-49.905-17.925-19.86-36.75-38.865-55.123-58.23-13.736-14.49-27.591-30.54-43.027-42.735-10.724-16.035-58.37-54.69-74.727-70.44-42.597-41.04-83.712-84.375-125.719-126.225-25.386-25.275-55.86-55.065-57.245-96.077-.892-26.393 8.784-55.038 25.014-74.168 20.331-23.966 50.33-37.458 79.61-38.5 20.094-.714 42.228 3.989 59.886 15.038 28.74 17.985 53.214 51.582 76.799 77.186l125.649 135.437zm588.666 1330.008c20.265-6.915 42.105-10.62 62.88-15.525q50.835-12.075 101.535-24.885l387.975-95.31c48-11.85 99.735-30.405 144.705 2.31 21.555 15.66 37.38 40.62 42.255 69q.435 2.475.75 4.965.33 2.49.54 4.995.21 2.505.3 5.01.09 2.52.075 5.04-.015 2.505-.15 5.025-.135 2.505-.375 5.01-.24 2.505-.6 4.98-.36 2.49-.84 4.95-.465 2.46-1.05 4.89-.57 2.43-1.26 4.83-.69 2.4-1.5 4.74-.795 2.355-1.695 4.665-.9 2.31-1.905 4.56-1.005 2.25-2.115 4.44-1.11 2.19-2.31 4.305-1.2 2.13-2.505 4.185c-10.305 16.365-23.52 29.205-39.81 37.515-29.7 15.165-67.305 19.215-99.27 25.83l-144.96 29.145c-.225.69-.405 1.41-.675 2.085-2.295 5.805-6.825 11.115-10.785 15.57l-.525 3.03c2.295 1.95 3.84 3.165 6.54 4.41l1.215 4.98-1.2-1.41 1.395 5.385c8.04 8.145 88.395 53.655 103.26 62.7l353.385 214.98 102.645 62.28c24.33 14.7 50.355 28.455 72.42 47.235 11.415 9.705 20.115 24.81 25.395 39.63 8.37 23.475 7.095 47.565-1.74 70.59-10.665 27.81-31.71 48.975-56.79 59.745q-2.115.915-4.275 1.74-2.16.825-4.335 1.545-2.19.72-4.395 1.35-2.205.615-4.44 1.125-2.235.525-4.47.93-2.25.42-4.515.72-2.265.315-4.53.51-2.265.21-4.545.3-2.28.09-4.545.09-2.28-.015-4.56-.12-2.265-.12-4.545-.345-2.265-.225-4.515-.54-2.265-.33-4.5-.765-2.25-.42-4.47-.96-2.235-.54-4.44-1.17-2.205-.645-4.38-1.38c-27.795-9.51-53.82-27.84-79.32-43.26q-53.73-32.325-107.085-65.445l-338.985-204.645q-45.765-27.405-91.095-55.725c-20.07-12.42-40.23-25.86-61.275-36.045l-2.19-1.05 48.15 166.125c10.11 34.965 24.825 73.59 28.725 109.995 1.935 18.075.45 33.33-6.285 50.13-11.79 29.4-34.425 50.895-61.245 61.905q-1.365.555-2.745 1.08-1.38.51-2.775 1.005-1.395.48-2.805.915-1.395.435-2.805.84-1.41.405-2.835.765-1.425.375-2.85.69-1.425.33-2.865.615-1.425.285-2.865.525-1.44.24-2.895.45-1.44.21-2.895.375-1.44.15-2.895.285-1.455.12-2.91.195-1.455.09-2.91.135-1.455.045-2.925.045-1.455 0-2.91-.045-1.455-.03-2.91-.105-1.455-.09-2.91-.195-1.455-.12-2.895-.285-1.455-.165-2.895-.36-1.455-.195-2.895-.435-1.44-.24-2.88-.525-1.425-.285-2.865-.6-1.425-.315-2.85-.675-1.41-.36-2.835-.765-1.41-.39-2.805-.825-1.41-.45-2.805-.915-1.395-.48-2.775-1.005-1.38-.51-2.745-1.065-1.38-.555-2.73-1.14-1.365-.585-2.7-1.215-1.35-.63-2.685-1.305-1.32-.66-2.64-1.365c-19.23-10.29-34.98-26.88-44.595-48.3-16.185-36.105-29.565-111.975-39.855-153.435l-73.035-295.695c-14.49-59.37-27.06-120.42-44.955-178.56zM444.974 2049.791c17.109-2.295 34.497.015 51.406 3.225 41.891 7.92 83.767 19.995 125.292 30.27l216.435 53.25q75.67 18.72 151.525 36.48c35.558 8.445 71.597 16.08 106.508 27.45-7.58 39.84-18.149 79.23-27.741 118.53l-45.459 186.21-47.987 195.735c-7.922 32.295-14.709 65.49-23.895 97.335-9.798 33.96-23.909 60.84-53.274 77.16q-1.323.72-2.663 1.41-1.338.69-2.691 1.335-1.355.645-2.721 1.26-1.368.615-2.748 1.185-1.38.57-2.774 1.11-1.392.54-2.796 1.035-1.404.495-2.818.96-1.414.45-2.84.87-1.423.42-2.857.795-1.433.375-2.874.72-1.44.345-2.889.645-1.447.3-2.901.555-1.455.255-2.914.48-1.46.225-2.923.39-1.462.18-2.931.33-1.467.135-2.937.225-1.47.105-2.942.165-1.471.06-2.944.075-1.471.015-2.944-.015-1.471-.015-2.943-.09-1.471-.06-2.942-.165-1.47-.105-2.937-.255-1.466-.15-2.929-.33-1.462-.18-2.92-.42-1.46-.225-2.913-.48-1.452-.27-2.899-.585-1.446-.3-2.886-.645-1.44-.345-2.871-.735-1.431-.39-2.855-.81-1.422-.435-2.835-.9-1.413-.465-2.814-.96-1.403-.51-2.793-1.05c-27.399-10.455-48.903-31.395-61.323-60.72-6.008-14.175-9.534-30.225-8.321-45.96 2.441-31.68 16.092-66.18 24.753-96.6q26.33-94.23 55.076-187.575L526.677 2666.35c-23.288 15.57-48.106 29.025-72.038 43.41l-127.434 77.31-110.129 66.75c-27.549 16.635-55.545 35.94-85.495 46.485-16.954 5.955-37.215 5.235-54.352.33-26.936-7.725-52.039-26.61-65.973-53.895-11.475-22.485-14.588-48.435-8.243-73.38 4.956-19.485 14.949-37.26 29.33-49.62 20.213-17.355 44.186-29.385 66.519-42.96l121.362-73.59q241.476-144.885 481.563-292.635c-58.956-14.58-119.028-25.86-178.491-37.575-30.939-6.09-64.11-10.14-94.157-20.385-12.011-4.095-23.135-10.02-33.257-18.375q-1.911-1.56-3.749-3.24-1.836-1.665-3.596-3.435-1.76-1.77-3.437-3.645-1.677-1.875-3.267-3.84-1.59-1.965-3.089-4.005-1.5-2.055-2.904-4.185-1.404-2.13-2.711-4.35-1.305-2.205-2.51-4.485-1.204-2.28-2.304-4.635-1.098-2.34-2.091-4.74-.991-2.415-1.872-4.875-.882-2.46-1.651-4.965-.768-2.505-1.423-5.04-.654-2.55-1.193-5.13-.538-2.58-.96-5.19-.42-2.61-.723-5.235c-3.078-26.43 3.644-52.44 18.084-73.53 17.36-25.335 40.349-39.795 68.484-43.905zm1087.528-571.28c83.64-5.25 167.31 8.79 239.88 58.32 65.22 44.52 116.13 119.37 133.71 202.95 16.56 78.6 1.59 161.97-36.57 229.98-50.79 90.51-136.23 137.16-226.71 160.08-88.32 13.17-177.06-2.1-252.27-58.14-63.84-47.58-113.91-120.63-128.58-205.89-13.62-79.02-.06-165.81 40.95-232.35 57-92.49 132.87-135.18 229.59-154.95z"/><g fill="#dedcda"><path fill-opacity=".133" d="M1717.584 1528.003c11.89-12.33 23.84-25.68 37.05-36.22-.2.33-.4.65-.61.97-4.16 6.48-13.12 12.01-15.15 19.41l1.05 2.22c2.28.62 4.56 1.27 6.87 1.75-6.31 2.21-11.9 6.4-17.61 9.93-.35.22-.63.56-.95.84-.96 2.6-.26 1.39-2.22 3.55-2.21-1.27-3.78-2.01-6.29-2.26-.71-.08-1.42-.13-2.14-.19z"/><path fill-opacity=".106" d="M1699.504 1547.033l.8 2.07-3.04 6.14c.32 5.68-.48 8.88-3.87 13.55-3.26 4.47-8.7 6.16-13.43 7.57-2.13.63-3.45 1.62-5.39 2.61-.3.15-.62.2-.93.3-5.19-.3-8.49 5.18-12.04 4.68 5.89-10.48 28.09-24.58 37.9-36.92z"/></g></svg>