<svg xmlns="http://www.w3.org/2000/svg" width="2002.474" height="1729.294" viewBox="0 0 2002.898 1729.972" xmlns:v="https://vecta.io/nano"><path fill="#dedcda" fill-opacity=".012" d="M750.573 797.773c2.317-.39 1.086-.43 3.679.38l.991 2.71c-.295 3.98-1.602 7.48-4.579 9.89-2.806 2.28-5.051 2.5-8.271 1.58-.3-.08-2.223-.69-2.592-.71-3.119-.19-4.303 1.71-6.5 3.78l-5.413.46-1.518-1.72c2.649-6.98 18.026-13.12 24.203-16.37z"/><defs><linearGradient id="A" x1="27834.832" y1="28694.252" x2="27500.625" y2="28635.764" href="#B" gradientTransform="matrix(0.79878643,0,0,1.2518991,-109.02334,-310.05662)"><stop offset="0" stop-color="#fffffe" stop-opacity=".008"/><stop offset="1" stop-color="#f0f0f0" stop-opacity=".055"/></linearGradient></defs><path fill="url(#A)" d="M1095.907 950.883l3.63.31 1.39 1.97c.96 6.51 4.16 19.35 1.3 24.73l-3.69.19c-4.1-1.65-8.09-3.45-10.75-7.53-1.82-2.79-2.08-5.23-1.43-8.6 1.08-5.63 5.56-8.26 9.55-11.07z"/><defs><linearGradient id="B" href="#B"><stop offset="0" stop-color="#f1f4f8" stop-opacity=".047"/><stop offset="1" stop-color="#e7e4e9" stop-opacity=".082"/></linearGradient></defs><path fill="url(#B)" d="M1641.937 961.513c2.81-.2 5.84-.55 8.64-.07 5.97 1 13.33 5.93 16.97 11.31l-.88 2.33-3.05.68c-7.32.04-22.56 1.65-28.39-3.56-1.33-1.19-.88-2-.9-3.71 2.23-3.41 4.34-4.92 7.61-6.98z"/><defs><linearGradient id="C" x1="46535.816" y1="45800.961" x2="46137.262" y2="45379.164" href="#B" gradientUnits="userSpaceOnUse" gradientTransform="translate(117.97285,147.88042)"><stop offset="0" stop-color="#fff" stop-opacity="0"/><stop offset="1" stop-color="#e6e4e4" stop-opacity=".078"/></linearGradient></defs><path fill="url(#C)" d="M1117.807 883.363c4.85 2.16 11.22 4.45 12.94 10.71 1.22 4.46-.29 9.01-2.47 12.72-2.52 4.3-9.19 12.25-13.88 13.33-4.56 1.05-12.41-3.12-15.67-6.52-1.74-1.81-3.15-4.06-4.54-6.21.31-.1.63-.15.93-.3 1.94-.99 3.26-1.98 5.39-2.61 4.73-1.41 10.17-3.1 13.43-7.57 3.39-4.67 4.19-7.87 3.87-13.55z"/><defs><linearGradient id="D" x1="51144.551" y1="42704.027" x2="50733.535" y2="42102.312" href="#B" gradientTransform="matrix(0.86673234,0,0,1.1537587,-109.02334,-310.05662)" gradientUnits="userSpaceOnUse"><stop offset="0" stop-color="#f8f9f8" stop-opacity=".02"/><stop offset="1" stop-color="#e4e3e4" stop-opacity=".059"/></linearGradient></defs><path fill="url(#D)" d="M1244.277 794.483c2.03-.04 2.6.67 4.33 1.75l.46 2.53c-4.07 14.64-16.66 30.5-28.37 38.26-.86-.23-1.63-1.39-2.28-2.07-.87-5.3-2.26-17.26-.35-22.29 3.28-8.6 18.8-14.5 26.21-18.18z"/><defs><linearGradient id="E" x1="52564.172" y1="41049.441" x2="52348.703" y2="41902.285" href="#B" gradientUnits="userSpaceOnUse" gradientTransform="translate(117.97285,147.88042)"><stop offset="0" stop-color="#fefffe" stop-opacity=".008"/><stop offset="1" stop-color="#dedde2" stop-opacity=".106"/></linearGradient></defs><path fill="url(#E)" d="M1564.457 944.863c.06-.01.12-.03.18-.01 7.05 1.49 10.58 6.08 15.38 11.58 1.02 4.79 3.06 10.75 1.7 15.54-2.18 2.86-5.09 3.39-8.18 4.4-5.03.27-10.41.84-15.41.02-2.22-.37-3.95-1.26-5.14-3.42-1.8-3.25-1.41-6.45-.47-9.94 2.23-8.36 5.04-14 11.94-18.17z"/><path fill="#dedcda" fill-opacity=".196" d="M860.663 844.113c10.291 8.13 19.528 18.83 28.685 28.49l36.749 38.82c9.91 10.98 19.28 22.64 29.49 33.27 11.89 12.39 27.09 21.36 38.06 34.65-18.89-7.51-40.89-37.37-57.02-50.75-5.63-4.66-13.37-4.76-19.42-9.34-9.23-6.99-27.163-30.27-29.294-42.13-1.524-8.48-21.574-23.64-27.25-33.01z"/><defs><linearGradient id="F" x1="61085.754" y1="56945.395" x2="60713.941" y2="56101.016" href="#B" gradientTransform="matrix(1.4280491,0,0,0.70025602,-109.02334,-310.05662)" gradientUnits="userSpaceOnUse"><stop offset="0" stop-color="#f1f1f1" stop-opacity=".043"/><stop offset="1" stop-color="#cdcdcc" stop-opacity=".129"/></linearGradient></defs><path fill="url(#F)" d="M1167.337 844.253c6.18.48 14-.03 18.97 4.59 1.3 3.9 1.35 6.2-.14 10.08-1.44 3.71-2.82 5.88-6.31 7.38-15.94 6.85-36.98 1.49-49.5 5.06-3.43.98-6.41 3.94-9.51 5.86l-.8-2.07c3.52-4.33 7.15-8.18 11.09-12.01l6.99-7.02 2.14.19c2.51.25 4.08.99 6.29 2.26 1.96-2.16 1.26-.95 2.22-3.55.32-.28.6-.62.95-.84 5.71-3.53 11.3-7.72 17.61-9.93zm-29.21 11.87l-6.99 7.02c1.67 1.31 2.76 1.86 4.77 1.6 5.17-.68 11.56-1.25 14.97-6.13l-2.1-3.59c-.96 2.6-.26 1.39-2.22 3.55-2.21-1.27-3.78-2.01-6.29-2.26-.71-.08-1.42-.13-2.14-.19z"/><path fill="#dedcda" fill-opacity=".125" d="M1138.127 856.123l2.14.19c2.51.25 4.08.99 6.29 2.26 1.96-2.16 1.26-.95 2.22-3.55l2.1 3.59c-3.41 4.88-9.8 5.45-14.97 6.13-2.01.26-3.1-.29-4.77-1.6z"/><defs><linearGradient id="G" x1="22661.883" y1="60337.285" x2="22760.486" y2="61048.109" href="#B" gradientTransform="matrix(1.9668553,0,0,0.50842581,-109.02334,-310.05662)" gradientUnits="userSpaceOnUse"><stop offset="0" stop-color="#f7f7f8" stop-opacity=".082"/><stop offset="1" stop-color="#e3e3e6" stop-opacity=".149"/></linearGradient></defs><path fill="url(#G)" d="M399.257 960.773c7.309-.71 18.451-1.18 25.459.86 2.798.82 3.778 1.46 5.112 4.28-.56 1.55-1.12 2.84-2.26 3.98-13.287 13.31-34.472 14.03-51.027 13-11.973.12-24.434-2.94-35.882-6.59 18.032-8 39.268-13.22 58.598-15.53z"/><defs><linearGradient id="H" x1="85922.914" y1="69649.844" x2="86092.742" y2="70870.945" href="#B" gradientTransform="matrix(1.7090045,0,0,0.58513595,-109.02334,-310.05662)" gradientUnits="userSpaceOnUse"><stop offset="0" stop-color="#fcfefe" stop-opacity=".012"/><stop offset="1" stop-color="#e0e0e3" stop-opacity=".059"/></linearGradient></defs><path fill="url(#H)" d="M1525.097 951.473c2.09.02 4 .21 6.07.58l.64 2.53c-4.55 7.26-10.37 14.29-17.31 18.65-18.92 11.87-40.54 11.48-60.72 4.6-5.45-2.96-8.83-6.43-13.04-11.15 20.66-8.98 66.67-3.21 84.36-15.21z"/><path d="M1406.717 1227.233c9.23 5.72 18.55 10.98 28.06 16.09l-.93-3.59.8.94-.81-3.32c-1.8-.83-2.83-1.64-4.36-2.94l.35-2.02c2.64-2.97 5.66-6.51 7.19-10.38.18-.45.3-.93.45-1.39-10.25 2-20.67 3.68-30.75 6.61z"/><path d="M1270.186 1260.512c13.51-4.61 28.07-7.08 41.92-10.35q33.89-8.05 67.69-16.59l258.65-63.54c32-7.9 66.49-20.27 96.47 1.54 14.37 10.44 24.92 27.08 28.17 46q.29 1.65.5 3.31.22 1.66.36 3.33.14 1.67.2 3.34.06 1.68.05 3.36-.01 1.67-.1 3.35-.09 1.67-.25 3.34-.16 1.67-.4 3.32-.24 1.66-.56 3.3-.31 1.64-.7 3.26-.38 1.62-.84 3.22-.46 1.6-1 3.16-.53 1.57-1.13 3.11-.6 1.54-1.27 3.04-.67 1.5-1.41 2.96-.74 1.46-1.54 2.87-.8 1.42-1.67 2.79c-6.87 10.91-15.68 19.47-26.54 25.01-19.8 10.11-44.87 12.81-66.18 17.22l-96.64 19.43c-.15.46-.27.94-.45 1.39-1.53 3.87-4.55 7.41-7.19 10.38l-.35 2.02c1.53 1.3 2.56 2.11 4.36 2.94l.81 3.32-.8-.94.93 3.59c5.36 5.43 58.93 35.77 68.84 41.8l235.59 143.32 68.43 41.52c16.22 9.8 33.57 18.97 48.28 31.49 7.61 6.47 13.41 16.54 16.93 26.42 5.58 15.65 4.73 31.71-1.16 47.06-7.11 18.54-21.14 32.65-37.86 39.83q-1.41.61-2.85 1.16-1.44.55-2.89 1.03-1.46.48-2.93.9-1.47.41-2.96.75-1.49.35-2.98.62-1.5.28-3.01.48-1.51.21-3.02.34-1.51.14-3.03.2-1.52.06-3.03.06-1.52-.01-3.04-.08-1.51-.08-3.03-.23-1.51-.15-3.01-.36-1.51-.22-3-.51-1.5-.28-2.98-.64-1.49-.36-2.96-.78-1.47-.43-2.92-.92c-18.53-6.34-35.88-18.56-52.88-28.84q-35.82-21.55-71.39-43.63l-225.99-136.43q-30.51-18.27-60.73-37.15c-13.38-8.28-26.82-17.24-40.85-24.03l-1.46-.7 32.1 110.75c6.74 23.31 16.55 49.06 19.15 73.33 1.29 12.05.3 22.22-4.19 33.42-7.86 19.6-22.95 33.93-40.83 41.27q-.91.37-1.83.72-.92.34-1.85.67-.93.32-1.87.61-.93.29-1.87.56-.94.27-1.89.51-.95.25-1.9.46-.95.22-1.91.41-.95.19-1.91.35-.96.16-1.93.3-.96.14-1.93.25-.96.1-1.93.19-.97.08-1.94.13-.97.06-1.94.09-.97.03-1.95.03-.97 0-1.94-.03-.97-.02-1.94-.07-.97-.06-1.94-.13-.97-.08-1.93-.19-.97-.11-1.93-.24-.97-.13-1.93-.29-.96-.16-1.92-.35-.95-.19-1.91-.4-.95-.21-1.9-.45-.94-.24-1.89-.51-.94-.26-1.87-.55-.94-.3-1.87-.61-.93-.32-1.85-.67-.92-.34-1.83-.71-.92-.37-1.82-.76-.91-.39-1.8-.81-.9-.42-1.79-.87-.88-.44-1.76-.91c-12.82-6.86-23.32-17.92-29.73-32.2-10.79-24.07-19.71-74.65-26.57-102.29l-48.69-197.13c-9.66-39.58-18.04-80.28-29.97-119.04zm-973.548-132.978c11.406-1.53 22.998.01 34.271 2.15 27.927 5.28 55.845 13.33 83.528 20.18l144.29 35.5q50.447 12.48 101.017 24.32c23.705 5.63 47.731 10.72 71.005 18.3-5.053 26.56-12.099 52.82-18.494 79.02l-30.306 124.14-31.991 130.49c-5.281 21.53-9.806 43.66-15.93 64.89-6.532 22.64-15.939 40.56-35.516 51.44q-.882.48-1.775.94-.892.46-1.794.89-.903.43-1.814.84-.912.41-1.832.79-.92.38-1.849.74-.928.36-1.864.69-.936.33-1.879.64-.943.3-1.893.58-.949.28-1.905.53-.955.25-1.916.48-.96.23-1.926.43-.965.2-1.934.37-.97.17-1.943.32-.973.15-1.949.26-.975.12-1.954.22-.978.09-1.958.15-.98.07-1.961.11-.981.04-1.963.05-.981.01-1.963-.01-.981-.01-1.962-.06-.981-.04-1.961-.11-.98-.07-1.958-.17-.977-.1-1.953-.22-.975-.12-1.947-.28-.973-.15-1.942-.32-.968-.18-1.933-.39-.964-.2-1.924-.43-.96-.23-1.914-.49-.954-.26-1.903-.54-.948-.29-1.89-.6-.942-.31-1.876-.64-.935-.34-1.862-.7c-18.266-6.97-32.602-20.93-40.882-40.48-4.005-9.45-6.356-20.15-5.547-30.64 1.627-21.12 10.728-44.12 16.502-64.4q17.553-62.82 36.717-125.05l-193.098 117.11c-15.525 10.38-32.071 19.35-48.025 28.94l-84.956 51.54-73.419 44.5c-18.366 11.09-37.03 23.96-56.997 30.99-11.303 3.97-24.81 3.49-36.235.22-17.957-5.15-34.693-17.74-43.982-35.93-7.65-14.99-9.725-32.29-5.495-48.92 3.304-12.99 9.966-24.84 19.553-33.08 13.475-11.57 29.457-19.59 44.346-28.64l80.908-49.06q160.984-96.59 321.042-195.09c-39.304-9.72-79.352-17.24-118.994-25.05-20.626-4.06-42.74-6.76-62.771-13.59-8.007-2.73-15.423-6.68-22.171-12.25q-1.274-1.04-2.499-2.16-1.224-1.11-2.397-2.29-1.173-1.18-2.291-2.43-1.118-1.25-2.178-2.56-1.06-1.31-2.059-2.67-1-1.37-1.936-2.79-.936-1.42-1.807-2.9-.87-1.47-1.673-2.99-.803-1.52-1.536-3.09-.732-1.56-1.394-3.16-.661-1.61-1.248-3.25-.588-1.64-1.101-3.31-.512-1.67-.949-3.36-.436-1.7-.795-3.42-.359-1.72-.64-3.46-.28-1.74-.482-3.49c-2.052-17.62 2.429-34.96 12.056-49.02 11.573-16.89 26.899-26.53 45.656-29.27zm673.843-211.782c55.76-3.5 111.54 5.86 159.92 38.88 43.48 29.68 77.42 79.58 89.14 135.3 11.04 52.4 1.06 107.98-24.38 153.32-33.86 60.34-90.82 91.44-151.14 106.72-58.88 8.78-118.04-1.4-168.18-38.76-42.56-31.72-75.94-80.42-85.72-137.26-9.08-52.68-.04-110.54 27.3-154.9 38-61.66 88.58-90.12 153.06-103.3z"/><path fill="#dedcda" fill-opacity=".012" d="M1406.717 1227.233c10.08-2.93 20.5-4.61 30.75-6.61-.15.46-.27.94-.45 1.39-1.53 3.87-4.55 7.41-7.19 10.38l-.35 2.02c1.53 1.3 2.56 2.11 4.36 2.94l.81 3.32-.8-.94.93 3.59c-9.51-5.11-18.83-10.37-28.06-16.09z"/><path d="M924.528 577.733l-.2-346.458.07-109.62c.03-21.146-1.15-43.647 1.49-64.575 1.46-11.502 6.85-22.402 13.64-31.116 12.47-16.016 31.34-24.948 50.13-25.868 19.7-.965 40.63 5.312 55.37 20.471q.87.893 1.7 1.825.84.933 1.64 1.904.8.971 1.56 1.978.77 1.008 1.49 2.05.72 1.042 1.41 2.118.68 1.075 1.33 2.181.64 1.107 1.24 2.243.61 1.135 1.17 2.298.55 1.163 1.07 2.351.52 1.188.99 2.399.47 1.211.89 2.443.43 1.231.8 2.482.38 1.251.71 2.518.33 1.268.62 2.55.28 1.281.52 2.575.23 1.294.42 2.598c2.5 16.652 1.32 34.931 1.32 51.831l-.06 90.37.07 243.827c.01 45.914-1.06 92.156.51 138.005 27.66-29.07 54.5-59.203 81.68-88.846 16.48-17.981 36.04-42.597 55.68-55.673 10.58-7.038 22.94-10.123 35.15-10.564 19.76-.715 40.84 6.401 55.32 21.929 12.02 12.904 20.18 30.743 20.22 49.625.03 12.774-3.89 24.538-10.39 34.919-10 15.96-24.63 28.47-37.46 41.45-32.17 32.51-67.99 64.12-98.43 98.07-.2.33-.4.65-.61.97-4.16 6.48-13.12 12.01-15.15 19.41l1.05 2.22c2.28.62 4.56 1.27 6.87 1.75-6.31 2.21-11.9 6.4-17.61 9.93-.35.22-.63.56-.95.84-.96 2.6-.26 1.39-2.22 3.55-2.21-1.27-3.78-2.01-6.29-2.26-.71-.08-1.42-.13-2.14-.19l-6.99 7.02c-3.94 3.83-7.57 7.68-11.09 12.01l.8 2.07-3.04 6.14c.32 5.68-.48 8.88-3.87 13.55-3.26 4.47-8.7 6.16-13.43 7.57-2.13.63-3.45 1.62-5.39 2.61-.3.15-.62.2-.93.3-5.19-.3-8.49 5.18-12.04 4.68-18.23 17.26-34.51 36.73-52.03 54.8-7.73 7.96-18.73 14.94-24.75 24.42-3.72-4.21-7.29-8.66-11.72-11.95-10.97-13.29-26.17-22.26-38.06-34.65-10.21-10.63-19.58-22.29-29.49-33.27-11.95-13.24-24.5-25.91-36.749-38.82-9.157-9.66-18.394-20.36-28.685-28.49-7.149-10.69-38.913-36.46-49.818-46.96-28.398-27.36-55.808-56.25-83.813-84.15-16.924-16.85-37.24-36.71-38.163-64.051-.595-17.595 5.856-36.692 16.676-49.445 13.554-15.977 33.553-24.972 53.073-25.667 13.396-.476 28.152 2.659 39.924 10.025 19.16 11.99 35.476 34.388 51.199 51.457q41.356 45.754 83.766 90.291zm186.54 149.54c-9.81 12.34-32.01 26.44-37.9 36.92 3.55.5 6.85-4.98 12.04-4.68.31-.1.63-.15.93-.3 1.94-.99 3.26-1.98 5.39-2.61 4.73-1.41 10.17-3.1 13.43-7.57 3.39-4.67 4.19-7.87 3.87-13.55l3.04-6.14zm18.08-19.03l2.14.19c2.51.25 4.08.99 6.29 2.26 1.96-2.16 1.26-.95 2.22-3.55.32-.28.6-.62.95-.84 5.71-3.53 11.3-7.72 17.61-9.93-2.31-.48-4.59-1.13-6.87-1.75l-1.05-2.22c2.03-7.4 10.99-12.93 15.15-19.41.21-.32.41-.64.61-.97-13.21 10.54-25.16 23.89-37.05 36.22z"/><g fill="#dedcda"><path fill-opacity=".133" d="M1138.127 856.123c11.89-12.33 23.84-25.68 37.05-36.22-.2.33-.4.65-.61.97-4.16 6.48-13.12 12.01-15.15 19.41l1.05 2.22c2.28.62 4.56 1.27 6.87 1.75-6.31 2.21-11.9 6.4-17.61 9.93-.35.22-.63.56-.95.84-.96 2.6-.26 1.39-2.22 3.55-2.21-1.27-3.78-2.01-6.29-2.26-.71-.08-1.42-.13-2.14-.19z"/><path fill-opacity=".106" d="M1120.047 875.153l.8 2.07-3.04 6.14c.32 5.68-.48 8.88-3.87 13.55-3.26 4.47-8.7 6.16-13.43 7.57-2.13.63-3.45 1.62-5.39 2.61-.3.15-.62.2-.93.3-5.19-.3-8.49 5.18-12.04 4.68 5.89-10.48 28.09-24.58 37.9-36.92z"/></g></svg>