<svg xmlns="http://www.w3.org/2000/svg" viewBox="0 0 448 512"><path d="m 373.9068,97.750776 -28.00002,0 c -6.627,0 -11.9996,5.372594 -12.0003,12.000314 l 7e-4,219.38624 L 92.4783,87.708446 c -4.685996,-4.685997 -12.284566,-4.685997 -16.970562,0 l -19.79899,19.798994 c -4.685997,4.68599 -4.685997,12.28456 0,16.97056 L 297.13763,365.90688 H 77.75068 c -6.627004,0 -11.999602,5.3726 -12.000309,12.00031 l 0,28.00001 c 0,6.62701 5.372597,11.99961 12.000309,12.00031 l 296.15612,0 c 6.627,0 11.9996,-5.37259 12.00031,-12.00031 l -7.1e-4,-296.15682 c 7.1e-4,-6.62771 -5.37189,-12.000311 -11.9996,-11.999604 z"/></svg>