<svg xmlns="http://www.w3.org/2000/svg" viewBox="0 0 3160 2904.5"><circle cx="1583" cy="1900" r="333" /><defs><path d="m 2049.6,786.5 c -30.1,50.9 -81.5,96 -119.7,134.2 -217.4,221.9 -218.1,223 -344.8,346.3 -124.4,-119.2 -256.3,-252.2 -366.6,-361.6 -60.6,-59.5 -120,-101.9 -108.2,-170.9 10,-58.6 66.7,-95.4 124,-88.1 15.2,2.2 30.8,7.4 43.7,16.5 25.9,18.4 48.4,47.9 70.1,71 44.8,47.4 88.9,95.3 132.4,143.8 -1.1,-231.7 -1.9,-499.9 -2.6,-700.7 1.4,-53.9 -8,-106 31.9,-144 20.5,-19.1 49.6,-30.9 80.2,-28.8 25.2,1.7 49,12.4 67.1,30.7 35.8,36.3 29.9,86.4 30,129.8 0.9,240 1.2,496.6 3.4,705.4 45.1,-49.8 79.5,-88.9 123.5,-136.4 34,-35.6 63.5,-77.5 109,-89.4 52.1,-9.3 103.6,16.9 124.4,60.7 12.8,27.9 13.3,55.1 2.4,81.3 z" id="A"/></defs><use transform="rotate(  0 1583 1900)" href="#A" /><use transform="rotate(120 1583 1900)" href="#A" /><use transform="rotate(240 1583 1900)" href="#A" /></svg>