<svg xmlns="http://www.w3.org/2000/svg" viewBox="0 0 3160 3020"><circle cx="1583" cy="1900" r="350" /><defs><path d="m 1500.43,1232.23 c 44.95,44.953 117.95,44.95 162.91,0 l 460.32,-460.32 c 44.95,-44.95 44.95,-117.96 0,-162.91 -44.95,-44.95 -117.96,-44.95 -162.91,0 L 1696.78,872.96 V 115.24 c 0,-63.65 -51.43,-115.08 -115.08,-115.08 -63.65,0 -115.08,51.43 -115.08,115.08 V 872.96 L 1202.66,609 c -44.95,-44.95 -117.9566,-44.95 -162.91,0 -44.95,44.95 -44.95,117.96 0,162.91 l 460.32,460.32 z" id="arrows-pointing-inwards-to-dot-A" /></defs><use transform="rotate(  0 1583 1900)" href="#arrows-pointing-inwards-to-dot-A" /><use transform="rotate(120 1583 1900)" href="#arrows-pointing-inwards-to-dot-A" /><use transform="rotate(240 1583 1900)" href="#arrows-pointing-inwards-to-dot-A" /></svg>