<svg xmlns="http://www.w3.org/2000/svg" viewBox="0 0 22.358 20.296">
	<use href="#A" x="0" y="10" />
	<use href="#B" x="0" y="10" />
	<use href="#A" x="12.5" y="10" />
	<use href="#B" x="12.5" y="10" />
	<use href="#A" x="6.25" y="0" />
	<use href="#B" x="6.25" y="0" />
	<defs>
		<path id="A" d="M 5,0 C 4,4 4,4 0,5 4,6 4,6 5,10 6,6 6,6 10,5 6,4 6,4 5,0 Z" />
		<path id="B" d="M 5,2.5 C 4.5,4.5 4.5,4.5 2.5,5 4.5,5.5 4.5,5.5 5,7.5 5.5,5.5 5.5,5.5 7.5,5 5.5,4.5 5.5,4.5 5,2.5 Z" style="fill:#ffffff" />
	</defs>
</svg>