<svg xmlns="http://www.w3.org/2000/svg" viewBox="0 0 414 414"><path d="M199.8 14.5c-.2.1-3.7.5-7.8.9-13.6 1.1-17.2 1.7-39.5 7.1-5.6 1.4-18.3 6.4-29 11.5C73.7 58 35.9 103.2 22 155.5c-3.2 12-4.7 19.3-5.6 27-.3 2.7-.7 6.1-1 7.5-.5 3.5-.5 30.7.1 35 .2 1.9.7 5.7 1.1 8.4.3 2.7.8 5.8 1 7l1 5.6c.9 5.2 5.1 20.2 7.5 26.8 14.1 38.1 39.3 70.5 72.9 93.4 31.6 21.6 68.3 33.1 106 33.2 10.5 0 29.7-1.1 30.9-1.8.3-.2 2.6-.7 5.1-1s9.6-2 15.9-3.6c59.7-15.7 108.7-60.2 130.6-118.5 3.3-8.8 7.9-25.5 9.1-33l.9-5.8c2.5-12.7 2.4-39-.1-58.7-1.2-9.1-7.5-31.2-11.9-42.2-10.7-26-23.5-44.9-44.3-65.4-25.9-25.5-60.4-43.8-95.7-50.7-12.9-2.6-14.3-2.7-28.5-3.3l-15.2-.8c-.9-.2-1.8-.3-2-.1zM234.1 40l8.4 1.6c1.7.3 4.8 1 7 1.5 2.2.6 4.7 1.2 5.5 1.4 3.4.7 22 8 28.5 11.2 5.9 3 17.5 9.9 21 12.5 39 29 61 64.7 69.9 113.3 1.1 5.9 2 19.1 1.9 29-.1 29.1-7.5 55.2-14.5 51.4-1.1-.6-14.8-20.5-30.5-44.2l-37.2-56.2-9.1-14c-.3-.6-8.2-12.6-17.6-26.7l-17.6-26.5c-.2-.4-7.6-11.8-16.6-25.2-8.9-13.4-16.2-25-16.2-25.7 0-4.2 6.3-5.4 17.1-3.4zm-74.2 7.4c.7.8 1.3 2.3 1.3 3.3.1 1-3.4 11-7.7 22.3l-9.1 24-21.4 56.5L86.8 249c-8.8 23.4-16.7 43.3-17.6 44.2-3.9 4.5-7.9.5-15.7-15.6-7.9-16.7-12.6-32.8-14.3-49.6-1.3-12.6-.5-42.1 1.2-47.1.3-.8.7-2.8 1-4.4 1.9-12 7.3-28.5 13.4-41.5 18.9-40.1 52.6-70.9 95.2-87 5.8-2.2 8.5-2.4 9.9-.6zm32.6 4.2c.9.4 4 4.3 6.9 8.8l19.9 30.3c18.2 27.7 18.2 27.7 16.1 29.8-1.1 1-2.6 1.4-4.3 1-9.9-2.1-28.9-2.6-38.7-.9-4.4.8-13.1 3.2-19.2 5.3-10 3.5-11.4 3.8-12.7 2.5-.8-.9-1.5-2-1.5-2.5 0-1.7 26.1-70.3 27.6-72.7 1.5-2.3 3-2.7 5.9-1.6zm27.8 90.9c5.6.7 16.4 3.9 22.7 6.8 17.9 8.3 34.3 26 41.4 44.9 6.2 16.3 6.7 34.5 1.5 52.3-3.1 10.8-11.3 24-20.3 33-29.2 28.9-75.3 31.4-107.2 5.7-13.2-10.7-24-27.7-28-44.2-2.4-9.9-2.4-28.8 0-38 10.8-40.4 48.2-65.6 89.9-60.5zm96.9 98.7c.8.7 8 10.8 15.8 22.5 12.7 18.8 14.3 21.7 14.8 26.1.9 9.9-4.3 19.3-19.1 34.5-17.7 18.2-36 30.4-60.5 40.3-9.2 3.7-25 8.2-31.7 9-2.2.3-4.7.7-5.4 1-2.5.8-16.1 1.8-25.1 1.8-25.1-.1-49.3-6-73.1-17.9-18.9-9.4-37.8-23.1-43-31.3-4.7-7.3-3.9-11.8 7-40.1 5-12.9 9.7-24.2 10.6-25 2.2-2.2 4.4-.5 7.8 6 8 15.2 19 28.4 31.4 37.6 4 2.9 7.4 5.3 7.7 5.3s2.7 1.3 5.3 2.8c8.4 5 25.9 10.5 37.3 11.8 43.5 5 85.5-18 104.7-57.1 2.4-5 5.3-12.2 6.4-16 1.1-3.9 2.5-8.2 3.1-9.8 1.1-2.9 3.4-3.5 6-1.5z"/></svg>