<svg xmlns="http://www.w3.org/2000/svg" viewBox="0 0 134.5 129.5"><path d="M 18.63,83.36 A 18.62,18.62 0 1 0 0,64.74 a 18.64,18.64 0 0 0 18.63,18.62 z"/><path d="m 49.75,68.738 h 80.7 a 4,4 0 0 0 0,-8 h -80.7 a 4,4 0 0 0 0,8 z"/><path d="M 18.627,37.244 A 18.62,18.62 0 1 0 0,18.62 a 18.64,18.64 0 0 0 18.63,18.62 z"/><path d="m 49.75,22.62 h 80.7 a 4,4 0 0 0 0,-8 h -80.7 a 4,4 0 0 0 0,8 z"/><path d="M 18.63,129.48 A 18.62,18.62 0 1 0 0,110.85 18.64,18.64 0 0 0 18.63,129.48 Z"/><path d="m 49.75,114.854 h 80.7 a 4,4 0 0 0 0,-8 h -80.7 a 4,4 0 0 0 0,8 z"/></svg>