<svg xmlns="http://www.w3.org/2000/svg" viewBox="0 0 512 448"><path d="M 64,0 C 28.65,0 0,28.65 0,64 0,99.35 28.65,128 64,128 99.35,128 128,99.35 128,64 128,28.65 99.35,0 64,0 Z m 152,40 c -13.3,0 -24,10.7 -24,24 0,13.3 10.7,24 24,24 h 272 c 13.3,0 24,-10.7 24,-24 0,-13.3 -10.7,-24 -24,-24 z m 0,160 c -13.3,0 -24,10.7 -24,24 0,13.3 10.7,24 24,24 h 272 c 13.3,0 24,-10.7 24,-24 0,-13.3 -10.7,-24 -24,-24 z m 0,160 c -13.3,0 -24,10.7 -24,24 0,13.3 10.7,24 24,24 h 272 c 13.3,0 24,-10.7 24,-24 0,-13.3 -10.7,-24 -24,-24 z M 64,160 c -35.35,0 -64,28.65 -64,64 0,35.35 28.65,64 64,64 35.35,0 64,-28.65 64,-64 0,-35.35 -28.65,-64 -64,-64 z m 64,224 c 0,-35.34625 -28.65,-64 -64,-64 -35.35,0 -64,28.65 -64,64 0,35.34625 28.65,64 64,64 35.35,0 64,-28.65 64,-64 z"/></svg>
