<svg xmlns="http://www.w3.org/2000/svg" viewBox="0 0 512 512"><path d="M 64,32 C 28.65,32 0,60.65 0,96 0,131.35 28.65,160 64,160 99.35,160 128,131.35 128,96 128,60.65 99.35,32 64,32 Z m 120,40 c -13.3,0 -24,10.7 -24,24 0,13.3 10.7,24 24,24 h 304 c 13.3,0 24,-10.7 24,-24 0,-13.3 -10.7,-24 -24,-24 z m 0,160 c -13.3,0 -24,10.7 -24,24 0,13.3 10.7,24 24,24 h 304 c 13.3,0 24,-10.7 24,-24 0,-13.3 -10.7,-24 -24,-24 z m 0,160 c -13.3,0 -24,10.7 -24,24 0,13.3 10.7,24 24,24 h 304 c 13.3,0 24,-10.7 24,-24 0,-13.3 -10.7,-24 -24,-24 z M 64,192 C 28.65,192 0,220.65 0,256 0,291.35 28.65,320 64,320 c 35.35,0 64,-28.65 64,-64 0,-35.35 -28.65,-64 -64,-64 z m 64,224 c 0,-35.34625 -28.65,-64 -64,-64 -35.35,0 -64,28.65 -64,64 0,35.34625 28.65,64 64,64 35.35,0 64,-28.65 64,-64 z" /></svg>
