<svg xmlns="http://www.w3.org/2000/svg" data-name="Layer 1" viewBox="0 0 174 217.5" x="0px" y="0px"><path d="M38.4,105.622A18.622,18.622,0,1,0,19.773,87,18.643,18.643,0,0,0,38.4,105.622Z"/><path d="M69.523,91h80.7a4,4,0,0,0,0-8h-80.7a4,4,0,0,0,0,8Z"/><path d="M38.4,59.506A18.622,18.622,0,1,0,19.773,40.884,18.643,18.643,0,0,0,38.4,59.506Z"/><path d="M69.523,44.884h80.7a4,4,0,0,0,0-8h-80.7a4,4,0,0,0,0,8Z"/><path d="M38.4,151.738a18.622,18.622,0,1,0-18.623-18.622A18.643,18.643,0,0,0,38.4,151.738Z"/><path d="M69.523,137.116h80.7a4,4,0,0,0,0-8h-80.7a4,4,0,0,0,0,8Z"/></svg>