<svg xmlns="http://www.w3.org/2000/svg" viewBox="0 32 640 539"><path d="M 78.09,26.62 C 35.03,26.62 0,60.96 0,103.17 v 313.72 c 0,40.73 32.47,74.3 73.92,76.41 36.78,1.91 128.81,9.5 187.73,38.69 8.19,4.05 17.25,6.29 26.34,6.58 v 0.05 h 64.01954 v -0.05 c 9.09,-0.29 18.15,-2.53 26.34,-6.58 58.92,-29.19 150.95,-36.78 187.73,-38.69 C 607.53,491.19 640,457.62 640,416.89 V 103.17 C 640,60.96 604.97,26.62 561.91,26.62 v 0 c -4.58,0 -26.72,0.88 -57.19,4.47 18.27,19.63 24.34,27.66 34.67,44.73 10.53,-0.83 18.41,-1.19 22.55,-1.21 16.56,0 30.06,12.81 30.06,28.55 v 313.72 c 0,15.16 -12.45937,27.66 -28.36,28.47 -44.35,2.3 -133.78,9.83 -198.31,34.38 C 354.96,483.68 344,475.87 344,464.78 v -5.36 c -8.14,0.97 -16.53,1.47 -25.43,1.47 -7.38,0 -14.99,-0.45 -22.57,-1.31 v 5.19 c 0,11.09 -10.96,18.91 -21.33,14.96 -64.53,-24.54 -153.96,-32.07 -198.31,-34.38 C 60.46,444.55 48,432.05 48,416.89 v -313.72 c 0,-15.74 13.5,-28.55 30.06,-28.55 4.019,0.02 11.57,0.35 21.64,1.14 C 113.24,54.12 117.43,46.9 134.86,31.04 104.6,27.49 82.64,26.62 78.09,26.62 Z" transform="translate(0,32)"/><path d="m 511.83,165.72 c 2.65,6.9 0.4,14.69 -5.06,19.74 l -34.75,31.62 c 0.88,6.66 1.36,13.48 1.36,20.38 0,6.9 -0.48,13.72 -1.36,20.38 l 34.75,31.62 c 5.46,5.06 7.7,12.84 5.06,19.74 -3.53,9.55 -7.78,18.78 -12.6,27.53 l -3.77,6.5 c -5.3,8.83 -11.24001,17.17 -17.74,25.12 -4.82,5.7 -12.6,7.7 -19.66,5.46 l -44.7,-14.28 c -10.75,8.27 -23.35,15.17 -35.31,20.46 l -10.03,45.82 c -1.61,7.22 -7.22,12.36 -14.61,14.28 -11.07,1.85 -22.47,2.81 -34.83,2.81 -10.91,0 -22.31,-0.96 -33.38,-2.81 -7.38,-1.93 -13,-7.06 -14.61,-14.28 l -10.03,-45.82 c -12.68,-5.3 -24.56,-12.2 -35.31,-20.46 l -44.67,14.28 c -7.09,2.25 -14.92,0.24 -19.67,-5.46 -6.5,-7.94 -12.45,-16.29 -17.74,-25.12 l -3.76,-6.5 c -4.87,-8.75 -9.11,-17.98 -12.66,-27.52 -2.6,-6.9 -0.41,-14.69 5.1,-19.74 l 34.72,-31.62 c -0.88,-6.66 -1.34,-13.48 -1.34,-20.38 0,-6.9 0.46,-13.73 1.34,-20.38 l -34.72,-31.63 c -5.51,-5.06 -7.7,-12.76 -5.1,-19.74 3.56,-9.55 7.8,-18.78 12.66,-27.53 l 3.75,-6.5 c 5.3,-8.83 11.24,-17.17 17.75,-25.08 4.75,-5.74 12.58,-7.73 19.67,-5.47 l 44.67,14.25 c 10.75,-8.3 22.63,-15.2 35.31,-20.44 L 270.59,49.13 c 1.61,-7.29 7.22,-13.07 14.6,-14.3 11.07,-1.85 22.47,-2.82 34.11,-2.82 11.64,0 23.03,0.96 34.11,2.82 7.38,1.23 13,7.014 14.6,14.3 l 10.03,45.82 c 11.96,5.24 24.56,12.14 35.31,20.44 l 44.7,-14.25 c 7.06,-2.260002 14.85,-0.27 19.66,5.47 6.5,7.9 12.44,16.25 17.74,25.08 l 3.77,6.5 c 4.82,8.75 9.09,17.98 12.6,27.5 z M 319.31,301.66 c 35.47,0 64.2,-28.73 64.2,-64.92 0,-34.75 -28.73,-64.2 -64.2,-64.2 -35.47,0 -64.2,29.45 -64.2,64.2 0,36.19 28.73,64.92 64.2,64.92 z"/></svg>