<svg xmlns="http://www.w3.org/2000/svg" viewBox="0 32 640 539"><path d="M 561.91,58.62 C 549.44,58.62 406.51,65.11 320,115.51 233.49,65.11 90.56,58.62 78.09,58.62 35.03,58.62 0,92.96 0,135.17212 v 313.72 c 0,40.73 32.47,74.3 73.92,76.41 36.78,1.91 128.81,9.5 187.73,38.69 8.19,4.05 17.25,6.29 26.34,6.58 v 0.05 h 64.02 v -0.05 c 9.09,-0.29 18.15,-2.53 26.34,-6.58 58.92,-29.19 150.95,-36.78 187.73,-38.69 41.45,-2.11 73.92,-35.68 73.92,-76.41 v -313.72 c 0,-42.21 -35.03,-76.55 -78.09,-76.55 z M 296,496.77 c 0,11.09 -10.96,18.91 -21.33,14.96 C 210.14,487.19 120.71,479.66 76.36,477.35 60.46,476.55 48,464.05 48,448.89 V 135.17 c 0,-15.74 13.5,-28.55 30.06,-28.55 19.93,0.1 126.55,7.81 198.53,40.49 11.63,5.28 19.27,16.66 19.28,29.44 L 296,282.62 Z m 296,-47.88 c 0,15.16 -12.46,27.66 -28.36,28.47 -44.35,2.3 -133.78,9.83 -198.31,34.38 C 354.96,515.68 344,507.87 344,496.78 V 282.62 l 0.14,-106.08 c 0.02,-12.78 7.65,-24.15 19.28,-29.44 71.98,-32.67 178.6,-40.38 198.52,-40.48 16.56,0 30.06,12.81 30.06,28.55 z" /><path d="m 511.82,165.71 c 2.65,6.9 0.4,14.69 -5.06,19.74 l -34.75,31.62 c 0.88,6.66 1.36,13.48 1.36,20.38 0,6.9 -0.48,13.72 -1.36,20.38 l 34.75,31.62 c 5.46,5.06 7.7,12.84 5.06,19.74 -3.53,9.55 -7.78,18.78 -12.6,27.53 l -3.77,6.5 c -5.3,8.83 -11.24,17.17 -17.74,25.12 -4.82,5.7 -12.6,7.7 -19.66,5.46 l -44.7,-14.28 c -10.75,8.27 -23.35,15.17 -35.31,20.46 l -10.03,45.82 c -1.61,7.22 -7.22,12.36 -14.61,14.28 -11.07,1.85 -22.47,2.81 -34.83,2.81 -10.91,0 -22.31,-0.96 -33.38,-2.81 -7.38,-1.93 -13,-7.06 -14.61,-14.28 l -10.03,-45.82 c -12.68,-5.3 -24.56,-12.2 -35.31,-20.46 l -44.67,14.28 c -7.09,2.25 -14.92,0.24 -19.67,-5.46 -6.5,-7.94 -12.45,-16.29 -17.74,-25.12 l -3.76,-6.5 c -4.87,-8.75 -9.11,-17.98 -12.66,-27.52 -2.6,-6.9 -0.41,-14.69 5.1,-19.74 l 34.72,-31.62 c -0.88,-6.66 -1.34,-13.48 -1.34,-20.38 0,-6.9 0.46,-13.73 1.34,-20.38 l -34.72,-31.63 c -5.51,-5.06 -7.7,-12.76 -5.1,-19.74 3.56,-9.55 7.8,-18.78 12.66,-27.53 l 3.75,-6.5 c 5.3,-8.83 11.24,-17.17 17.75,-25.08 4.75,-5.74 12.58,-7.73 19.67,-5.47 l 44.67,14.25 c 10.75,-8.3 22.63,-15.2 35.31,-20.44 l 10.03,-45.82 c 1.61,-7.29 7.22,-13.07 14.6,-14.3 11.07,-1.85 22.47,-2.82 34.11,-2.82 11.64,0 23.03,0.96 34.11,2.82 7.38,1.23 13,7.014 14.6,14.3 l 10.03,45.82 c 11.96,5.24 24.56,12.14 35.31,20.44 l 44.7,-14.25 c 7.06,-2.26 14.85,-0.27 19.66,5.47 6.5,7.9 12.44,16.25 17.74,25.08 l 3.77,6.5 c 4.82,8.75 9.09,17.98 12.6,27.5 z M 319.3,301.65 c 35.47,0 64.2,-28.73 64.2,-64.92 0,-34.75 -28.73,-64.2 -64.2,-64.2 -35.47,0 -64.2,29.45 -64.2,64.2 0,36.19 28.73,64.92 64.2,64.92 z" style="stroke:var(--background-color); stroke-width:100; paint-order:stroke fill markers" /><circle style="fill:var(--background-color);" cx="318.19" cy="235.83" r="42.67" /></svg>