<svg xmlns="http://www.w3.org/2000/svg" viewBox="0 -48 640 512"><path d="M 561.91,-48 C 549.44,-48 406.51,-41.51 320,8.89 233.49,-41.51 90.56,-48 78.09,-48 35.03,-48 0,-13.66 0,28.55 v 313.72 c 0,40.73 32.47,74.3 73.92,76.41 36.78,1.91 128.81,9.5 187.73,38.69 8.19,4.05 17.25,6.29 26.34,6.58 V 464 h 64.02 v -0.05 c 9.09,-0.29 18.15,-2.53 26.34,-6.58 C 437.27,428.18 529.3,420.59 566.08,418.68 607.53,416.57 640,383 640,342.27 V 28.55 C 640,-13.66 604.97,-48 561.91,-48 Z M 296,390.15 c 0,11.09 -10.96,18.91 -21.33,14.96 C 210.14,380.57 120.71,373.04 76.36,370.73 60.46,369.93 48,357.43 48,342.27 V 28.55 C 48,12.81 61.5,0 78.06,0 c 19.93,0.1 126.55,7.81 198.53,40.49 11.63,5.28 19.27,16.66 19.28,29.44 L 296,176 Z m 296,-47.88 c 0,15.16 -12.46,27.66 -28.36,28.47 -44.35,2.3 -133.78,9.83 -198.31,34.38 C 354.96,409.06 344,401.25 344,390.16 V 176 L 344.14,69.92 C 344.16,57.14 351.79,45.77 363.42,40.48 435.4,7.81 542.02,0.1 561.94,0 578.5,0 592,12.81 592,28.55 Z"/></svg>