<svg xmlns="http://www.w3.org/2000/svg" viewBox="0 0 576 448"><path d="M 542.22,0.05 C 487.42,3.16 378.5,14.48 311.26,55.64 c -4.64,2.84 -7.27,7.89 -7.27,13.17 V 432.68431 c 0,11.55 12.63,18.85 23.28,13.49 69.18,-34.82 169.23,-44.32 218.7,-46.92 16.89,-0.89 30.02,-14.43 30.02,-30.66 V 30.75 C 576,13.04 560.64,-0.99 542.22,0.05 Z M 264.73,55.64 C 197.5,14.48 88.58,3.17 33.78,0.05 15.36,-0.99 0,13.04 0,30.75 V 368.6 c 0,16.24 13.13,29.78 30.02,30.66 49.49,2.6 149.59,12.11 218.77,46.95 10.62,5.35 23.21,-1.94 23.21,-13.46 V 68.63 c 0,-5.29 -2.62,-10.14 -7.27,-12.99 z"/></svg>