<svg xmlns="http://www.w3.org/2000/svg" width="512" height="512" xmlns:v="https://vecta.io/nano"><path d="M199.42 439.108c22.516 11.422 111.956-1.173 103.22-50.106-3.762-21.071-12.009-26.361-35.118-37.286-.197 7.383-1.07 15.863-1.269 23.188 13.197 7.156 20.264 12.011 19.754 23.325-.646 14.331-13.797 20.851-28.81 25.065l2.919-120.336c-7.698 2.219-14.15 3.017-20.96 6.174.384 14.642 1.022 20.383 1.428 31.238-18.342-6.019-34.065-12.701-32.306-23.098 4.448-26.302 132.963-24.175 122.49-90.237-3.399-21.439-32.373-29.647-57.629-37.226-.23 8.854-1.555 20.556-1.81 30.465 13.602 6.088 30.128 7.639 30.007 18.534-.103 9.329-21.835 14.33-40.929 22.142l3.851-122.019c-9.801-1.361-20.657-1.606-29.919-.458.018 6.349.329 19.495.747 39.977-26.779-7.331-60.767-16.805-50.179-35.692 10.046-17.921 81.126-16.506 103.164-12.7 55.422 14.743 88.772.364 75.766-15.273-.997-1.822-34.031-20.993-44.005-25.094-3.74-1.538-7.787-1.967-12.053-1.775-7.11.32-14.602 3.723-20.836 4.577-2.462.337-10.76-1.385-21.957-1.307-1.272-33.563 4.172-59.174.748-63.633-4.123-5.368.477-12.497-11.492-11.586-10.099.769-34.749-16.074-40.551-16.071h0c-1.074.001-1.458.586-1.028 1.962 1.01 3.228 14.066 48.172 18.5 92.222-31.341 2.614-77.15 13.534-83.162 35.409-16.16 58.798 45.362 69.423 88.175 82.427l1.247 54.37c-29.284 15.394-66.544 27.816-59.211 56.29 6.859 26.632 40.163 34.943 62.947 44.251l1.698 58.691c-3.659 1.831-21.586 5.58-41.651 8.786-2.026.324-2.797 3.249-1.786 4.803zm57.409 7.264s-12.945 2.214-14.739 2.752c1.043 22.886-.315 34.826.391 62.98 4.573-6.782 13.334-41.57 14.349-65.732z"/><ellipse cx="307.785" cy="105.144" rx="8.479" ry="6.057" fill="#fff"/></svg>