<svg xmlns="http://www.w3.org/2000/svg" viewBox="0 0 512 512"><path d="M199.4 439.1c22.5 11.4 112-1.2 103.2-50.1-3.8-21.1-12-26.4-35.1-37.3-.2 7.4-1.1 15.9-1.3 23.2 13.2 7.2 20.3 12 19.8 23.3-.6 14.3-13.8 20.9-28.9 25.1l2.9-120.3c-7.7 2.2-14.2 3-21 6.2.4 14.6 1 20.4 1.4 31.2-18.3-6-34.1-12.7-32.3-23.1 4.5-26.3 133-24.2 122.5-90.2-3.4-21.4-32.4-29.6-57.6-37.2-.2 8.9-1.6 20.6-1.8 30.5 13.6 6.1 30.1 7.6 30 18.5-.1 9.3-21.8 14.3-40.9 22.1l3.9-122c-9.8-1.4-20.7-1.6-29.9-.458.0 6.3.3 19.5.7 40-26.8-7.3-60.8-16.8-50.2-35.7 10-17.9 81.1-16.5 103.2-12.7 55.4 14.7 88.8.4 75.7-15.3-1-1.8-34-21-44-25.1-3.7-1.5-7.8-2-12-1.8-7.1.3-14.6 3.7-20.8 4.6-2.5.3-10.8-1.4-22-1.3-1.3-33.6 4.2-59.2.7-63.6-4.1-5.4.5-12.5-11.5-11.6-10.1.8-34.7-16.1-40.6-16.1h0c-1.1.0-1.5.6-1 2 1 3.2 14 48.2 18.5 92.2-31.3 2.6-77.2 13.5-83.2 35.4-16.2 58.8 45.4 69.4 88.2 82.4l1.2 54.4c-29.3 15.4-66.5 27.8-59.2 56.3 6.9 26.6 40.2 34.9 62.9 44.31l1.7 58.71c-3.7 1.8-21.6 5.6-41.7 8.8-2.0.3-2.8 3.2-1.8 4.8zm57.4 7.3s-12.9 2.2-14.7 2.8c1 22.9-.3 34.8.4 63 4.6-6.8 13.3-41.6 14.3-65.7z"/><ellipse cx="307.8" cy="105.1" rx="8.4" ry="6" fill="#fff"/></svg>