<svg xmlns="http://www.w3.org/2000/svg" width="133.649" height="133.335" viewBox="-202.36 354.278 133.649 133.335" xmlns:v="https://vecta.io/nano"><path d="M-68.719 420.946c.288 17.824-6.809 34.972-19.606 47.381a64.27 64.27 0 0 1-47.159 19.274c-17.777.265-34.875-6.809-47.272-19.553-26.074-25.985-26.149-68.189-.162-94.265l.162-.164c12.433-12.662 29.528-19.653 47.272-19.33a64.27 64.27 0 0 1 47.159 19.552c12.75 12.328 19.843 29.372 19.606 47.105zm-4.053 0c-5.167-11.522-13.534-21.318-24.108-28.218a67.37 67.37 0 0 0-38.883-11.72 68.26 68.26 0 0 0-38.883 11.72 67.02 67.02 0 0 0-23.773 28.218 68.44 68.44 0 0 0 62.656 39.938 68.94 68.94 0 0 0 62.991-39.938zm-27.219 0c-.031 19.59-15.903 35.464-35.493 35.493-19.542-.035-35.356-15.905-35.32-35.446s15.905-35.354 35.445-35.32a35.37 35.37 0 0 1 24.924 10.332 33.71 33.71 0 0 1 10.444 24.941z"/></svg>