<svg xmlns="http://www.w3.org/2000/svg" viewBox="0 0 32.8 40.1"><path d="M24.729 36.573h-.437V6.942h.437z" /><path d="M32.785 32.147c-2.583 3.008-7.458 7.938-14.995 7.938C7.533 40.086 0 33.116 0 21.22 0 10.301 9.006 4.249 14.837 1.996l.48.24c-5.501 3.646-8.458 8.06-8.458 15.751 0 6.785 2.433 11.616 6.103 14.44l1.236-.839V14.597c0-3.067-.555-5.221-1.477-5.973v-.248C17.231 6.269 21.898 2.953 25.13 0c.996 1.166 2.233 1.677 3.788 1.677 1.693 0 2.831-.599 3.587-1.154l.28.236c-.15 3.469-1.992 6.698-6.34 6.698-2.713 0-4.19-.914-5.544-2.473l-.201.039v22.976c-2.122 1.189-5.588 3.564-7.257 4.824 2.485 1.717 6.107 2.032 9.813 2.032 3.465 0 6.541-1.355 9.332-3.304z" /></svg>