<svg xmlns="http://www.w3.org/2000/svg" viewBox="0 0 68 67.481"><path d="M31.195.119C10.89 1.472 0 12.147 0 32.795s10.831 31.089 31.136 32.442l-.119-5.044C17.049 58.867 6.123 47.109 6.123 32.795S17.168 6.544 31.136 5.219zM36.108 0l.178 5.396C50.252 6.723 61.18 18.481 61.18 32.794S50.252 58.866 36.286 60.193l.059 5.103C56.649 63.941 67.481 53.5 67.481 32.854S56.411 1.355 36.108 0z"/><path d="M33.65 55.97c-22.434 6.217-11.217 3.109 0 0z"/><path d="M33.413 46.062l-6.189 6.189 6.189 6.201 6.201-6.201z"/><g xmlns="http://www.w3.org/2000/svg" stroke="#000"><rect width="32" height="3.6" x="15.25" y="24" ry=".05"/><rect width="23" height="3.6" x="21.25" y="13" ry=".05"/><rect width="28" height="3.6" x="11.25" y="36" ry=".05"/></g></svg>