<svg xmlns="http://www.w3.org/2000/svg" viewBox="0 0 68 67.481"><path d="M31.195.119C10.89 1.472 0 12.147 0 32.795s10.831 31.089 31.136 32.442l-.119-5.044C17.049 58.867 6.123 47.109 6.123 32.795S17.168 6.544 31.136 5.219zM36.108 0l.178 5.396C50.252 6.723 61.18 18.481 61.18 32.794S50.252 58.866 36.286 60.193l.059 5.103C56.649 63.941 67.481 53.5 67.481 32.854S56.411 1.355 36.108 0z"/><path d="M33.65 55.97c-22.434 6.217-11.217 3.109 0 0z"/><path d="M33.413 46.062l-6.189 6.189 6.189 6.201 6.201-6.201z"/><g stroke="#000"><path d="M16.027 20.093h9.378v1.737h-9.378z" opacity="0"/><path d="M19.847 18.059h9.378v10.172h-9.378z" opacity="0"/><path d="M15.928 23.169h15.928v5.26H15.928z" opacity="0"/><path d="M11.527 35.709H39.3v3.976H11.527z"/><rect width="31.923" height="3.623" x="15.269" y="24.974" ry=".05"/><path d="M21.559 13.196h22.443v3.298H21.559z"/></g></svg>