<svg xmlns="http://www.w3.org/2000/svg" fill="none" width="23.749" height="14.175" xmlns:v="https://vecta.io/nano"><path d="M23.501 1.19c-.252-.1-.36.09-.508.187-.05.032-.093.073-.135.109-.368.32-.798.528-1.358.503-.821-.036-1.521.172-2.141.682-.132-.628-.569-1.003-1.234-1.243-.349-.125-.701-.25-.944-.522-.171-.193-.217-.408-.303-.62-.054-.128-.108-.259-.29-.282-.197-.025-.274.109-.352.221-.31.459-.43.965-.419 1.478.027 1.152.628 2.069 1.819 2.723.136.074.171.15.128.259l-.264.668c-.054.144-.135.176-.324.112a5.65 5.65 0 0 1-1.719-.946c-.848-.664-1.614-1.398-2.57-1.973l-.681-.378c-.976-.769.128-1.4.383-1.474.268-.078.093-.346-.771-.343s-1.652.237-2.658.549c-.147.047-.302.082-.461.109C7.787.868 6.839.837 5.848.927c-1.865.169-3.355.884-4.451 2.106C.081 4.499-.229 6.167.15 7.907c.398 1.832 1.552 3.351 3.325 4.537 1.838 1.229 3.955 1.832 6.37 1.716 1.467-.068 3.101-.228 4.942-1.492.465.187.952.261 1.762.318.623.047 1.223-.025 1.688-.103.727-.125.677-.671.414-.772-2.133-.805-1.665-.478-2.091-.742 1.084-1.041 2.718-2.121 3.357-5.621.05-.278.007-.452 0-.679-.004-.136.034-.19.227-.206.534-.049 1.053-.168 1.529-.381 1.382-.612 1.939-1.617 2.07-2.822.02-.184-.004-.375-.243-.471zM6.122 11.859c-1.347-.642-2.473-1.492-3.267-2.653-.766-1.118-1.211-2.318-1.284-3.598-.02-.31.093-.419.472-.475.499-.074 1.015-.09 1.514-.032 2.109.25 3.905 1.016 5.41 2.226.859.691 1.51 1.516 2.18 2.321.712.856 1.479 1.671 2.454 2.338l.882.544c-4.652-1.752-7.844-.527-8.36-.672z" fill="#000"/></svg>