<svg xmlns="http://www.w3.org/2000/svg" fill="none" width="26.124" height="10.332" xmlns:v="https://vecta.io/nano"><path d="M25.851.867c-.277-.073-.396.066-.559.136-.055.023-.102.053-.148.079a2.72 2.72 0 0 1-1.494.367c-.903-.026-1.673.125-2.355.497-.145-.458-.626-.731-1.357-.906-.384-.091-.771-.182-1.038-.381-.188-.141-.239-.297-.333-.452-.059-.093-.119-.189-.319-.206-.217-.018-.301.079-.387.161-.341.335-.473.703-.461 1.077.03.84.691 1.508 2.001 1.985.15.054.188.109.141.189l-.29.487c-.059.105-.148.128-.356.082-.686-.155-1.326-.388-1.891-.69-.933-.484-1.775-1.019-2.827-1.438l-.749-.276c-1.074-.561.141-1.021.421-1.075.295-.057.102-.252-.848-.25s-1.817.173-2.924.4a5.34 5.34 0 0 1-.507.079C8.566.632 7.523.609 6.433.675c-2.051.123-3.69.644-4.896 1.535C.089 3.279-.252 4.495.165 5.764.603 7.099 1.873 8.206 3.823 9.071c2.022.896 4.351 1.336 7.007 1.251 1.614-.05 3.411-.166 5.436-1.088.512.136 1.047.19 1.938.232a11.7 11.7 0 0 0 1.857-.075c.8-.091.745-.489.455-.563l-2.3-.541c1.192-.759 2.99-1.546 3.693-4.098.055-.203.008-.33 0-.495-.004-.099.037-.139.25-.15.587-.036 1.158-.122 1.682-.278 1.52-.446 2.133-1.179 2.277-2.057.022-.134-.004-.273-.267-.343zM5.363 8.833c-1.651-.972-3.431-2.771-3.635-4.745-.022-.226.102-.305.519-.346a9.63 9.63 0 0 1 1.665-.023c2.32.182 4.295.741 5.951 1.623.945.504 1.661 1.105 2.398 1.692.783.624 1.627 1.218 2.699 1.704l.97.397c-3.458-1.439-7.107.035-10.569-.301z" fill="#000"/></svg>