<svg xmlns="http://www.w3.org/2000/svg" viewBox="0 0 640 640">
	<defs>
		<path id="deepmind-A" d="M317.79 6.58c-108.65 2.51-195.49 95.25-195.58 208.85 0.09 109.07 80.38 199.75 184.39 208.26-50.55-5.95-88.78-50.64-88.81-103.82 0-57.74 44.77-104.54 100-104.54 110.46 0 200 93.61 200 209.08-0.06 108.51-79.53 198.94-182.96 208.19 158.67-9.44 282.77-146.59 282.97-312.73-0.15-163.73-120.74-299.79-276.89-312.4-6.21-0.68-12.45-1.05-18.7-1.11-0.39 0.02-0.79 0.04-1.18 0.06-1.08-0.06-2.16-0.12-3.24-0.17v0.33z"/>
		<linearGradient id="deepmind-C" x1="117" x2="623" y1="319.5" y2="319.5" gradientUnits="userSpaceOnUse">
			<stop offset="0" stop-color="#a3a3a3"/>
			<stop offset="1" stop-color="#ffffff"/>
		</linearGradient>
		<path id="deepmind-B" d="M322.21 633.42c108.65-2.51 195.49-95.25 195.58-208.85-0.09-109.07-80.38-199.75-184.39-208.26 50.55 5.95 88.78 50.64 88.81 103.82 0 57.74-44.77 104.54-100 104.54-110.46 0-200-93.61-200-209.08 0.06-108.51 79.53-198.94 182.96-208.19-158.67 9.44-282.77 146.59-282.97 312.73 0.15 163.73 120.74 299.79 276.89 312.4 6.21 0.68 12.45 1.05 18.7 1.11 0.39-0.02 0.79-0.04 1.18-0.06 1.08 0.06 2.16 0.12 3.24 0.17v-0.33z"/>
		<linearGradient id="deepmind-D" x1="17" x2="523" y1="320.5" y2="320.5" gradientUnits="userSpaceOnUse">
			<stop offset="0" stop-color="#000000"/>
			<stop offset="1" stop-color="#969696"/>
		</linearGradient>
	</defs>
	<use href="#deepmind-A" fill="url(#deepmind-C)"/>
	<use href="#deepmind-A" fill="none" stroke="#ffffff" stroke-width="2"/>
	<use href="#deepmind-B" fill="url(#deepmind-D)"/>
	<use href="#deepmind-B" fill="none" stroke="#ffffff" stroke-width="2"/>
</svg>