<svg xmlns="http://www.w3.org/2000/svg" viewBox="0 0.5 25 25.5" ><path style="fill:none; stroke:currentColor; stroke-width:1.5;" d="M 23.18,3.32 C 23.04,3.08 22.2,1.91 21.85,2.43 21.74,2.6 21.99,3.18 21.96,3.43 21.91,3.95 21.7,4.43 21.47,4.88 21.17,5.45 20.76,6.07 20.19,6.4 19.43,6.85 18.74,6.36 17.96,6.45 17.42,6.51 16.87,7.15 16.3,6.81 15.87,6.55 16.19,6.06 15.97,5.75 15.64,5.29 15.32,5.77 15.12,6.06 14.81,6.51 14.75,6.9 14.14,7.02 a 7.5,7.5 0 0 0 -5.54,4.57 c -0.22,0.54 -0.24,1.12 -0.52,1.64 -0.03,0.06 -0.07,0.11 -0.12,0.14 C 7.8,13.44 7.65,13.22 7.62,13.04 7.06,10.47 8.98,8.12 11.01,6.82 11.53,6.48 12.11,6.26 12.65,5.98 13.69,5.43 13.38,3.97 13.07,3.07 12.94,2.7 11.89,0.68 11.35,1.7 11.23,1.92 11.37,2.09 11.4,2.3 11.52,2.99 10.9,4.81 9.93,4.62 9.64,4.56 9.64,2.56 8.8,3.13 8.49,3.35 8.66,4.17 8.51,4.49 8.3,4.95 7.79,5.42 7.4,5.73 6.51,6.45 5.42,6.85 4.46,7.47 3.38,8.16 2.45,9.07 1.95,10.27 c -0.72,1.73 -0.73,3.81 0.12,5.5 1.17,2.33 3.81,3.71 6.35,3.81 1.53,0.06 3.18,-0.28 4.66,-0.97 1.71,-0.8 3.19,-2.07 3.97,-3.72 0.19,-0.4 0.34,-0.81 0.45,-1.23 0.14,-0.53 0.43,-0.88 0.77,-1.31 0.21,-0.25 1.09,-0.85 0.67,-1.23 -0.41,-0.38 -1.74,0.75 -2.05,1.01 -0.19,0.16 -1.4,1.84 -1.64,1.24 -0.16,-0.4 0.29,-1.09 0.47,-1.44 0.3,-0.57 0.96,-1.01 1.49,-1.33 0.99,-0.6 2.15,-0.77 3.2,-1.2 1.33,-0.55 2.12,-1.66 2.68,-2.94 0.37,-0.86 0.63,-2.29 0.1,-3.14 z" /><path style="fill:none; stroke:currentColor; stroke-width:1.5;" id="path4" d="m 13.07,20.78 v 3.52 c -1.48,0.69 -3.13,1.03 -4.66,0.97 A 8.08,8.08 0 0 1 6.01,24.79 v -3.52" /><path style="fill:none; stroke:currentColor; stroke-width:1.5;" d="m 14.16,18.02 v 2.17 a 9.97,9.97 0 0 1 -1.08,0.59 c -1.48,0.69 -3.13,1.03 -4.66,0.97 A 8.12,8.12 0 0 1 4.73,20.67 V 18.51" /></svg> 