<svg xmlns="http://www.w3.org/2000/svg" viewBox="0 0.5 25 25.5" ><path style="fill:none;fill-rule:evenodd;stroke:#000000;stroke-width:1.5;stroke-miterlimit:4;stroke-dasharray:none" id="path2" d="M 23.183,3.32 C 23.038,3.083 22.2,1.906 21.845,2.433 21.735,2.595 21.992,3.184 21.964,3.43 21.906,3.945 21.703,4.425 21.466,4.88 21.168,5.453 20.756,6.067 20.188,6.403 19.432,6.85 18.735,6.363 17.964,6.448 17.423,6.507 16.873,7.148 16.3,6.805 15.867,6.548 16.185,6.06 15.965,5.749 15.641,5.292 15.324,5.768 15.12,6.059 14.806,6.508 14.745,6.903 14.143,7.021 a 7.501,7.501 0 0 0 -5.535,4.565 c -0.215,0.538 -0.24,1.116 -0.522,1.637 -0.03,0.055 -0.065,0.112 -0.12,0.14 C 7.8,13.443 7.654,13.218 7.616,13.038 7.06,10.471 8.976,8.115 11.005,6.817 11.525,6.483 12.106,6.263 12.651,5.977 13.694,5.428 13.376,3.967 13.066,3.071 12.938,2.701 11.89,0.679 11.347,1.703 11.233,1.919 11.368,2.088 11.402,2.295 11.518,2.985 10.899,4.812 9.927,4.623 9.644,4.564 9.639,2.563 8.804,3.132 8.491,3.345 8.655,4.166 8.509,4.489 8.301,4.947 7.788,5.419 7.401,5.73 6.51,6.447 5.417,6.853 4.46,7.466 3.375,8.16 2.446,9.068 1.945,10.273 c -0.721,1.728 -0.726,3.814 0.123,5.498 1.172,2.325 3.806,3.707 6.35,3.812 1.527,0.064 3.178,-0.277 4.656,-0.968 1.712,-0.8 3.19,-2.07 3.97,-3.722 0.187,-0.395 0.34,-0.806 0.45,-1.23 0.137,-0.53 0.425,-0.884 0.772,-1.309 0.206,-0.252 1.087,-0.852 0.67,-1.23 -0.414,-0.376 -1.74,0.75 -2.054,1.011 -0.19,0.16 -1.403,1.84 -1.64,1.243 -0.158,-0.397 0.288,-1.09 0.47,-1.44 0.297,-0.568 0.955,-1.008 1.487,-1.332 0.986,-0.602 2.149,-0.765 3.203,-1.204 1.327,-0.552 2.124,-1.659 2.677,-2.94 0.369,-0.856 0.625,-2.29 0.104,-3.142 z" /><path style="fill:none;fill-rule:evenodd;stroke:#000000;stroke-linecap:round;stroke-linejoin:round;stroke-width:1.5;stroke-miterlimit:4;stroke-dasharray:none" id="path4" d="m 13.074,20.78 v 3.523 c -1.477,0.69 -3.13,1.03 -4.657,0.967 A 8.078,8.078 0 0 1 6.011,24.792 v -3.524" /><path style="fill:none;fill-rule:evenodd;stroke:#000000;stroke-linecap:round;stroke-linejoin:round;stroke-width:1.5;stroke-miterlimit:4;stroke-dasharray:none" id="path6" d="m 14.156,18.02 v 2.17 a 9.969,9.969 0 0 1 -1.082,0.59 c -1.477,0.69 -3.129,1.03 -4.656,0.967 A 8.119,8.119 0 0 1 4.728,20.674 V 18.51" /></svg> 