<svg xmlns="http://www.w3.org/2000/svg" viewBox="6 2 106 116"><path d="M90.343 3.136c-9.966.107-26.4 1.237-26.4 1.237 25.073 5.169 29.217 6.469 30.525 9.488.772 1.782-1.341 3.543-8.25 3.197-7.522-.377-22.894-2.166-22.894-2.166-14.676-2.258-24.831-4.482-29.287 1.341-2.911 3.804.343 8.508 1.65 11.241 5.823 10.16 15.886 17.053 22.275 21.966 2.404 1.848 9.797 5.981 9.797 5.981-22.816-6.239-41.067-2.657-52.594 3.403-13.25 7.843-11.021 21.039 10.003 33.413 12.418 7.308 18.649 10.807 38.981 13.303 11.884 1.895 13.703 2.62 13.612 3.609-.127 1.393-14.112 2.004-17.944 2.269-9.747.672-34.936.722-35.062.722 0 0 6.813 2.066 15.881 3.197 3.672.458 17.646 2.001 28.359 1.959 0 0 13.01.095 20.212-.928 7.536-1.071 11.855-2.43 14.231-5.156.062-.65 1.073-2.803-1.856-4.847-7.489-5.224-17.082-6.671-35.888-11.137C44.9 89.998 38.585 85.031 35.481 81.408c-2.944-3.631.671-11.253 17.428-14.953 8.484-2.065 40.012-2.475 40.012-2.475L63.324 41.189c-3.051-2.403-7.928-6.088-8.456-9.384-.713-3.208 4.339-4.772 7.013-4.95 8.615-.594 20.377.499 30.834 2.578 5.256 1.045 6.188.825 6.188.825 7.486.356 13.394-3.497 13.097-11.756-.059-8.378-8.467-15.072-17.737-15.366-1.091-.035-2.495-.015-3.919 0z"/></svg>