<svg xmlns="http://www.w3.org/2000/svg" viewBox="0 0 448 512"><path d="m 224.4,216.4 123,-123 -66.3,1.9 c -13.5,0.4 -24.7,-10.5 -24.7,-24 V 56 c 0,-13.3 10.7,-24 24,-24 h 136 c 17.7,0 32,14.3 32,32 v 136 c 0,13.3 -10.7,24 -24,24 h -15.3 c -13.5,0 -24.4,-11.2 -24,-24.7 l 1.9,-66.3 -123,123 123,123 -1.9,-66.3 c -0.4,-13.5 10.5,-24.7 24,-24.7 h 15.3 c 13.3,0 24,10.7 24,24 v 136 c 0,17.7 -14.3,32 -32,32 H 280.4 c -13.3,0 -24,-10.7 -24,-24 v -15.3 c 0,-13.5 11.2,-24.4 24.7,-24 l 66.3,1.9 -123,-123 c -32.4,-32.4 -32.6,-45.5 0,-79.2 z" /></svg>