<svg xmlns="http://www.w3.org/2000/svg" viewBox="0 0 32 32"><path d="M20.722,24.964c0.096,0.096,0.057,0.264-0.073,0.306c-7.7,2.466-16.032-1.503-18.594-8.942  c-0.072-0.21-0.072-0.444,0-0.655c0.743-2.157,1.99-4.047,3.588-5.573c0.061-0.058,0.158-0.056,0.217,0.003l4.302,4.302  c0.03,0.03,0.041,0.072,0.031,0.113c-1.116,4.345,2.948,8.395,7.276,7.294c0.049-0.013,0.095-0.004,0.131,0.032  C17.958,22.201,20.045,24.287,20.722,24.964z"/><path d="M24.68,23.266c2.406-1.692,4.281-4.079,5.266-6.941c0.072-0.21,0.072-0.44,0-0.65  C27.954,9.888,22.35,6,16,6c-2.479,0-4.841,0.597-6.921,1.665L3.707,2.293c-0.391-0.391-1.023-0.391-1.414,0s-0.391,1.023,0,1.414  l26,26c0.391,0.391,1.023,0.391,1.414,0c0.391-0.391,0.391-1.023,0-1.414L24.68,23.266z M16,10c3.309,0,6,2.691,6,6  c0,1.294-0.416,2.49-1.115,3.471l-8.356-8.356C13.51,10.416,14.706,10,16,10z"/></svg>