<svg xmlns="http://www.w3.org/2000/svg" viewBox="0 0 256 256" xmlns:v="https://vecta.io/nano"><path d="M-26.154-24.097c-.968 3.509-.968 300.685 0 304.194l.726 2.783H128h153.428l.726-2.783c.968-3.509.968-300.685 0-304.194l-.726-2.783H128-25.428zm130.68 103.334l19.602 40.293 4.235 9.075 20.086-40.293 20.086-40.172h11.737c6.534 0 11.858.363 11.858.726 0 .484-11.979 23.232-26.62 50.699l-26.62 50.094v32.065 32.186H128h-10.89v-32.307-32.307L90.49 99.565 63.87 48.866c0-.363 5.687-.726 12.705-.726h12.584z"/></svg>