<svg xmlns="http://www.w3.org/2000/svg" viewBox="0 0 1466 1507"><path d="M1465.177 366.294C1465.177 164.131 1301.047 0 1098.883 0H366.294C164.13 0 0 164.131 0 366.294v774.08c0 202.163 164.13 366.294 366.294 366.294h732.588c202.164 0 366.294-164.131 366.294-366.294v-774.08z"/><path d="M732.871 1370.579c-73.866-58.691-182.872 7.368-255.547-64.456-102.724-50.665-89.423-169.963-128.059-258.392-58.321-76.315-42.368-178.921 24.912-243.888 95.139-124.82 265.858-169.162 416.05-149.151 119.809 24.481 227.057 89.997 325.662 159.5 75.273 55.025 64.138 152.242 7.208 214.988-42.308 88.2-67.97 199.088-157.693 252.188-74.615-10.586-226.452-75.842-207.15 66.301-3.694 11.58-13.706 20.43-25.382 22.911zM263.802 810.026C117.534 719.283 87.297 484.121 216.53 366.143c83.601-34.466 147.031 58.304 166.187 128.199 46.793 79.184 57.109 186.031-14.369 254.432-27.472 30.425-64.092 53.248-104.547 61.253zm883.42-11.511c-73.563-41.394-177.645-122.284-129.21-217.3 47.407-73.735 83.792-190.124 183.046-201.531 91.575-6.698 130.323 93.798 129.276 169.9-2.242 92.385-38.725 198.18-124.05 244.072-18.46 7.857-39.579 10.485-59.061 4.859zM528.196 642.282c-108.85-65.647-115.137-207.616-123.934-320.532-1.733-108.835 159.845-206.465 224.275-91.401 44.451 94.818 97.384 206.304 56.578 311.53-25.801 62.501-94.974 89.544-156.919 100.403zm396.955-.499c-129.24 3.838-196.462-146.997-163.054-257.832.77-88.841 33.182-243.046 152.125-218.601 128.381 49.647 155.646 224.396 94.501 336.079-30.743 45.175-28.134 113.9-83.572 140.355z" fill="#fff"/></svg>