<svg xmlns="http://www.w3.org/2000/svg" viewBox="12 0 199 122"><path d="M155.333 94.5c1.8.3 5.1.5 8.5.5l1.3 5.1c10 .3 23.6-1.5 36.1-3.1 6.7-13 10.3-52.2-1.8-69.6 0 0-22.8-3.3-37.2-3.6v4.4c-1.8 0-4.6-.5-6.4-.8v5.4c-22.3-2-56.1-15.4-72.8-9.7-11.3 3.8-21.8 4.9-29.7 8.2s-12 2.6-20.8 5.4c-4.9 1.8-8.5 2.1-10.8 2.1-3.8 0-5.9 2.3-5.9 5.1 0 5.9 9 16.7 31.3 8.7 2.8.5 14.1 2.1 21.3-2.3 1.8 0 6.1.3 10.8-.5-5.6 5.6-11.8 12.6-11.5 19.5.3 4.9 4.6 8.7 10 9-3.3 10 3.3 13.3 8.7 14.6 0 5.9 4.9 10.5 9.5 13.1 5.4 2.6 7.9-.3 13.1-2.6 5.1-2.6 11.8-5.6 11.3-10.5 11.3 2.8 24.4 1.8 35.6-4.1zm3.6-11.8c-15.9 10.8-33.6 7.4-44.6 5.4-8.5-1.5-17.2 7.9-11.8 9.7 1-2.3 3.3-4.6 6.9-5.9 2-.8 5.1-.8 7.2.3 0 3.8-6.7 6.4-9.2 7.4-3.6 1.5-6.1 5.1-10 3.1-3.1-1.5-7.9-5.9-7.4-11 .8-7.4 14.4-23.1 19-24.6-9.7-2.3-20.2 16.4-22.3 22-6.9-1.3-8.5-6.9-4.1-15.4 4.6-8.7 15.4-18.7 21.8-21.8-9.7-2.3-23.3 15.9-25.6 22.6-3.3.3-6.9-1.8-7.4-5.1-1.3-8.2 16.4-25.4 24.1-29-2.8-1.8-9 2-13.3 5.6-5.6 1.3-13.8 0-13.8 0h-.8l-.5.3c-7.7 4.9-19.5 2.1-19.5 2.1h-1c-16.4 6.7-26.7.8-26.7-4.6 0-.8.5-1.5 1.8-1.5 2.3 0 6.7.3 12.6-1.5 8.7-3.3 12.8-2.6 20.8-5.9 7.9-3.3 18.5-3.8 29.7-7.7 16.7-5.9 53.3 9 75.1 10.5 4.9 13.5 5.2 32.7-1 45zm4.9-50l10.3.8c5.6 11 5.4 45.4-.8 56.1h-10c6.9-10.7 8.2-46.1.5-56.9zm19.2 49.8c0-3.1 2.3-5.9 5.9-5.9 3.1 0 5.9 2.8 5.9 5.9 0 3.6-2.8 6.4-5.9 6.4-3.6 0-5.9-2.8-5.9-6.4z" stroke-width="5" stroke="#000"/></svg>