<svg xmlns="http://www.w3.org/2000/svg" viewBox="0 0 640 512"><!--! Font Awesome Pro 6.4.0 by @fontawesome - https://fontawesome.com License - https://fontawesome.com/license (Commercial License) Copyright 2023 Fonticons, Inc. --><path d="M378.8 384h-5.5c-6.9 0-13.7 2.2-19.2 6.4L256 464V416c0-17.7-14.3-32-32-32H128c-17.7 0-32-14.3-32-32V160.7L64 135.4V352c0 35.3 28.7 64 64 64h64 32v32 48c0 6.1 3.4 11.6 8.8 14.3s11.9 2.1 16.8-1.5L373.3 416h46l-40.5-32zM128 0c-8.3 0-16.1 1.6-23.4 4.4L139.6 32H512c17.7 0 32 14.3 32 32V351.3l28.3 22.3c2.4-6.8 3.7-14 3.7-21.6V64c0-35.3-28.7-64-64-64H128zM25.9 3.4C19-2 8.9-.8 3.4 6.1S-.8 23.1 6.1 28.6l608 480c6.9 5.5 17 4.3 22.5-2.6s4.3-17-2.6-22.5L25.9 3.4z"/></svg>