<svg xmlns="http://www.w3.org/2000/svg" width="1024" height="1024" fill="none" stroke="#000" xmlns:v="https://vecta.io/nano"><g stroke-linecap="round" stroke-linejoin="round" stroke-width="18"><path d="M174 794c20 0 50-42 85-48 20 0 35 42 85 48 35 0 50-42 85-42s50 42 85 42 50-42 85-42 50 42 85 42 50-42 85-42 50 42 85 42"/><path d="M242.4 752.2l-22.9-43.8 590-38c-46.4 42.2-106 76.4-166.3 104.4"/></g><path d="M454.4 300.4c100.4 30.7 240.8 179 288.6 338.4-26.2-10.3-45.8-20.8-82.6-11.4-35.6-129.5-99.3-253.2-206-327zm-186.7-70.9c128.6 55 305 208.1 337.4 412-148.3-59.8-261.2-27.9-339.8 20.6 119.9-152.4 66.1-325.7 2.4-432.6z" stroke-linejoin="round" stroke-width="18"/></svg>