<svg xmlns="http://www.w3.org/2000/svg" viewBox="0 0 284.86 299.23" stroke="#000" stroke-width="4"><path d="M93.991 106.699c1.576 5.961 4.119 8.266 8.613 8.266 4.659 0 7.102-2.799 7.102-8.266V5.2h29.184v101.499c0 14.307-1.856 20.506-9.11 27.762-5.228 5.229-14.871 9.271-27.047 9.271-9.837 0-19.25-3.256-25.253-9.27-5.263-5.273-8.154-10.689-12.672-27.764L46.9 39.033c-1.577-5.961-4.119-8.265-8.613-8.265-4.66 0-7.103 2.798-7.103 8.265v101.5H2v-101.5c0-14.306 1.857-20.506 9.111-27.762C16.337 6.044 25.981 2 38.158 2c9.837 0 19.25 3.257 25.253 9.27 5.263 5.273 8.154 10.689 12.672 27.764zM251.552 297.23l-33.704-105.437c-.372-1.164-.723-2.152-1.263-2.811-.926-1.127-2.207-1.719-3.931-1.719s-3.004.592-3.931 1.719c-.539.658-.891 1.646-1.262 2.811L173.758 297.23h-30.167l36.815-115.177c1.918-6 4.66-11.094 8.139-14.488 5.971-5.821 13.007-8.868 24.11-8.868s18.14 3.047 24.109 8.867c3.479 3.395 6.221 8.488 8.14 14.488l36.814 115.177zm-165.931 0c22.529 0 33.518-4.062 42.2-11.389 9.607-8.105 14.202-16.973 14.202-30.213 0-11.699-5.047-22.535-12.731-29.019-10.046-8.479-22.525-11.151-42.872-11.151l-28.5-.001c-10.89 0-15.23-1.117-18.663-3.98-2.358-1.964-3.463-4.885-3.463-8.328 0-3.559 1.01-7.074 3.892-9.475 2.558-2.131 6.045-3.109 12.745-3.109H134.8v-28.668H58.723c-22.529 0-33.517 4.063-42.2 11.389-9.606 8.105-14.202 16.972-14.202 30.212 0 11.701 5.047 22.536 12.731 29.019 10.048 8.479 22.525 11.152 42.872 11.152l28.501.002c10.89 0 15.23 1.115 18.663 3.979 2.358 1.965 3.463 4.885 3.463 8.328 0 3.559-1.01 7.074-3.891 9.475-2.559 2.131-6.046 3.109-12.746 3.109H2.25l-.15 28.537 83.521.13zm166.334-153.266L218.251 38.527c-.372-1.164-.723-2.152-1.263-2.811-.926-1.127-2.207-1.719-3.931-1.719s-3.004.592-3.931 1.719c-.539.658-.891 1.646-1.262 2.811l-33.703 105.437h-30.167l36.815-115.177c1.918-6 4.66-11.094 8.139-14.488 5.971-5.821 13.007-8.868 24.11-8.868s18.14 3.047 24.109 8.867c3.479 3.395 6.221 8.488 8.14 14.488l36.814 115.177z"/></svg>