<svg xmlns="http://www.w3.org/2000/svg" viewBox="1.25 0.5 8 9.5"><path d="M5.32.5c-1.03.13-2.06.35-3 .8-.38.2-.78.45-.93.87-.1.36.13.7.38.93.52.48 1.18.77 1.82 1.05l.36.16c-.6-.3-1.2-.65-1.63-1.17-.18-.2-.3-.54-.1-.78.24-.32.65-.44 1-.55.68-.2 1.4-.26 2.1-.32M5.2 10c1.1-.08 2.18-.32 3.14-.86.34-.2.7-.5.78-.9.05-.42-.24-.77-.55-1-.6-.5-1.36-.8-2.07-1.12a5.1 5.1 0 0 1 1.76 1.3c.14.2.2.5.01.7-.3.33-.74.43-1.15.53a12.3 12.3 0 0 1-1.92.24m.23-4.3c1-.07 2.03-.13 2.92-.63.37-.4.13-1.03-.25-1.32-.38-.3-.83-.5-1.2-.8.82.34 1.7.74 2.2 1.5.24.57-.2 1.18-.7 1.44-1.56.86-3.38.94-5.1 1.17-.5.08-1.08.2-1.4.64-.23.4.06.86.4 1.1.3.25.7.4 1 .65-.4-.1-.78-.34-1.13-.57-.36-.27-.72-.6-.86-1.04-.08-.68.5-1.23 1.1-1.47a8 8 0 0 1 3.05-.67z"/></svg>