<svg xmlns="http://www.w3.org/2000/svg" viewBox="-153 -46 208.601 208.9"><path d="M-48.699 162.9l6.6-.2a1.97 1.97 0 0 0 1.8-2v-35.2-3.7-1c0-1 .8-2 1.8-2.1l1.6-.3c12.7-2.5 23.9-8.9 32.4-17.8 6.3-6.7 11.1-14.7 13.8-23.7 1.8-5.7 2.7-11.8 2.7-18 0-5.6-.8-11-2.2-16.2-1.7-6.1-4.4-11.9-7.8-17.2-4.6-7.1-10.8-13.3-18.2-17.9l-2.2-1.4c-.9-.5-1.6-.1-1.6.9v16.3c0 1 .6 2.4 1.4 3.1 0 0 .9.8 2 1.9 4.1 4.2 7.2 9.2 9.3 14.7a44.27 44.27 0 0 1 2.9 15.8c0 24.3-19.8 44.1-44.1 44.1-2.2 0-6.5-.5-6.5-.5-1-.1-1.8.6-1.8 1.6v2.3 3.7 33.7c0 1-.8 1.7-1.8 1.6 0 0-3.6-.4-6.3-.9-11.9-2.3-22.9-6.9-32.6-13.5-8-5.4-15-12.1-20.8-19.8-6.1-8.1-10.9-17.2-13.9-27.1-2.5-8.1-3.8-16.7-3.8-25.6 0-12.8 2.7-24.9 7.7-35.8 4.1-9.2 9.8-17.5 16.7-24.7 8.4-8.7 18.5-15.7 29.8-20.4l2-.8c.9-.4 1.7-1.4 1.7-2.4v-3.6-7.6-3.4c0-.8-.8-1.3-1.8-1 0 0-.5.2-1.7.5-41.5 13.9-71.4 53-71.4 99.1-.2 57.6 46.7 104.5 104.3 104.5" fill-opacity=".627"/><path d="M-48.799-46l-6.6.3a2.05 2.05 0 0 0-1.8 2v39.8c0 1-.8 2-1.8 2.1l-4.4.9c-13.4 3.3-24.9 11-33.1 21.3-8.2 10.4-13 23.5-13 37.6 0 5.1.7 10.1 1.9 14.9 1.8 7.2 4.9 13.9 9.1 19.8 3.9 5.5 8.7 10.4 14.2 14.4 2.2 1.6 5.4 3.4 5.4 3.4.9.5 1.6.1 1.6-.9V93.4c0-1-.6-2.4-1.4-3.1 0 0-1.5-1.3-2.8-2.7-3.2-3.5-5.9-7.6-7.8-11.9-2.4-5.5-3.7-11.5-3.7-17.7 0-24.3 19.8-44.1 44.1-44.1 2.2 0 6.5.5 6.5.5 1 .1 1.8-.6 1.8-1.6v-39.6c0-1 .8-1.7 1.8-1.6 0 0 9 1.3 14.1 2.7 12 3.4 23 9.4 32.3 17.3 8.2 6.9 15.1 15.4 20.4 24.8 6.8 12.5 10.7 26.8 10.7 42 0 8-1.1 15.7-3.1 23-2.2 8.1-5.6 15.8-9.9 22.8-4 6.5-8.8 12.4-14.3 17.6-7.1 6.8-15.4 12.3-24.4 16.4l-4.6 1.9c-.9.4-1.7 1.5-1.7 2.5v14.1c0 1 .8 1.6 1.8 1.3 0 0 2.3-.7 4.3-1.4 10-3.6 19.3-8.8 27.7-15.2 11.2-8.6 20.7-19.4 27.7-31.7 4.9-8.7 8.7-18.2 10.9-28.3 1.7-7.4 2.5-15.1 2.5-23C55.601.8 8.801-46-48.799-46"/></svg>