<svg xmlns="http://www.w3.org/2000/svg" viewBox="-2.5 -0.5 61 54" style="fill:#000; stroke:#000; stroke-width:3" ><circle r="1.6" cx="1.0" cy="26.5" /><circle r="1.6" cx="55" cy="26.5" /><circle r="1.6" cx="42" cy="50" /><circle r="1.6" cx="14" cy="50" /><circle r="1.6" cx="42" cy="3" /><circle r="1.6" cx="14" cy="3" /><circle r="1.75" cx="27.9" cy="5.6" /><circle r="1.75" cx="46.2" cy="16" /><circle r="1.75" cx="46.2" cy="36.8" /><circle r="1.75" cx="28" cy="47.1" /><circle r="1.75" cx="10" cy="36.7" /><circle r="1.75" cx="9.9" cy="16" /><circle r="2.1" cx="28" cy="14.1" /><circle r="2.1" cx="17.3" cy="20.5" /><circle r="2.1" cx="17.3" cy="32.5" /><circle r="2.1" cx="28" cy="38.8" /><circle r="2.1" cx="38.8" cy="32.5" /><circle r="2.1" cx="38.8" cy="20" /><path style="fill:none; stroke:#000; stroke-width:4;" d="m 28.13612,13.931185 -10.891017,6.287931 v 12.414341 l 10.734826,6.197755 10.805203,-6.238387 7.377961,4.259668"/></svg> 