<svg xmlns="http://www.w3.org/2000/svg" viewBox="-2 0 59.80289 52.388562"><path d="m 27.900492,7.2942817 c 1,0 1.9,-0.8 1.9,-1.9 0,-1 -0.8,-1.9 -1.9,-1.9 -1,0 -1.9,0.8 -1.9,1.9 0,1.1 0.8,1.9 1.9,1.9 z m 0,37.6999993 c -1,0 -1.9,0.8 -1.9,1.9 0,1 0.8,1.9 1.9,1.9 1,0 1.9,-0.8 1.9,-1.9 a 1.97,1.97 0 0 0 -1.9,-1.9 z m -17.499999,-10.3 c -0.4999995,-0.1 -0.9999995,-0.1 -1.3999995,0.2 -0.4,0.3 -0.7,0.7 -0.9,1.1 -0.1,0.5 -0.1,1 0.2,1.4 0.4,0.6 1,0.9 1.6,0.9 0.2999995,0 0.5999995,-0.1 0.8999995,-0.3 0.399999,-0.3 0.799999,-0.7 0.899999,-1.1 0.1,-0.5 0.1,-1 -0.2,-1.4 -0.2,-0.4 -0.599999,-0.7 -1.099999,-0.8 z m 35.899999,-20.7 c -0.5,-0.1 -1,-0.1 -1.4,0.2 -0.9,0.5 -1.2,1.7 -0.7,2.6 0.3,0.4 0.7,0.7 1.1,0.9 0.2,0 0.3,0.1 0.5,0.1 0.3,0 0.6,-0.1 0.9,-0.3 0.4,-0.3 0.8,-0.7 0.9,-1.1 0.1,-0.5 0.1,-1 -0.2,-1.4 -0.2,-0.6 -0.6,-0.9 -1.1,-1 z m 0.5,20.9 c -0.4,-0.3 -0.9,-0.3 -1.4,-0.2 -0.3,0.1 -0.6,0.3 -0.8,0.5 l -3.4,-2 c 0.2,-0.5 0.2,-1 0.1,-1.5 -0.2,-0.7 -0.6,-1.2 -1.2,-1.6 -1.3,-0.7 -2.9,-0.3 -3.6,1 -0.4,0.6 -0.4,1.3 -0.3,2 0,0.1 0,0.1 0.1,0.2 l -6.3,3.6 c -0.5,-0.6 -1.2,-0.9 -2,-0.9 -0.8,0 -1.5,0.4 -2,0.9 l -6.3,-3.6 c 0,-0.1 0,-0.1 0.1,-0.2 0.2,-0.7 0.1,-1.4 -0.3,-2 -0.4,-0.6 -0.9,-1 -1.6,-1.2 h -0.2 v -7.3 h 0.2 c 0.7,-0.2 1.2,-0.6 1.6,-1.2 0.4,-0.6 0.4,-1.3 0.3,-2 0,-0.1 0,-0.1 -0.1,-0.2 l 6.3,-3.6 c 0.5,0.6 1.2,0.9 2,0.9 1.5,0 2.6,-1.2 2.6,-2.6 a 2.65,2.65 0 0 0 -2.6,-2.6 2.65,2.65 0 0 0 -2.6,2.6 c 0,0.3 0.1,0.6 0.2,0.9 l -6.3,3.6 c -0.2,-0.2 -0.4,-0.4 -0.7,-0.6 -0.6,-0.4 -1.3,-0.4 -2,-0.3 -0.7,0.2 -1.2,0.6 -1.6,1.2 -0.7,1.3 -0.3,2.9 1,3.6 v 0 l 0.8,0.3 v 7.3 c -0.3,0.1 -0.6,0.1 -0.8,0.3 -0.6,0.4 -1,0.9 -1.2,1.6 -0.2,0.7 -0.1,1.4 0.3,2 0.4,0.6 0.9,1 1.6,1.2 0.2,0.1 0.5,0.1 0.7,0.1 0.5,0 0.9,-0.1 1.3,-0.4 0.3,-0.1 0.5,-0.3 0.7,-0.6 l 6.3,3.6 c -0.1,0.3 -0.2,0.6 -0.2,0.9 0,1.5 1.2,2.6 2.6,2.6 a 2.65,2.65 0 0 0 2.6,-2.6 c 0,-0.3 -0.1,-0.6 -0.2,-0.9 l 6.3,-3.6 c 0.2,0.2 0.4,0.4 0.7,0.6 v 0 c 0.4,0.2 0.9,0.4 1.3,0.4 0.7,0 1.5,-0.3 2,-0.9 l 3.4,2 c -0.1,0.3 -0.1,0.6 0,1 a 1.44,1.44 0 0 0 0.9,1.1 c 0.3,0.2 0.6,0.3 0.9,0.3 0.2,0 0.3,0 0.5,-0.1 a 1.44,1.44 0 0 0 1.1,-0.9 c 0.3,-0.4 0.3,-0.9 0.2,-1.4 -0.3,-0.6 -0.6,-1.1 -1,-1.3 z m -37.7999985,-17.5 c 0.3,0.2 0.6,0.3 0.9,0.3 0.1999995,0 0.2999995,0 0.4999995,-0.1 a 1.44,1.44 0 0 0 1.099999,-0.9 c 0.5,-0.9 0.2,-2.1 -0.699999,-2.6 -0.8999995,-0.5 -2.0999995,-0.2 -2.5999995,0.7 -0.3,0.4 -0.3,0.9 -0.2,1.4 0.2,0.6 0.5,1 1,1.2 z M 15.200492,4.1942817 c 0.7,-0.4 0.9,-1.3 0.5,-2 -0.4,-0.7 -1.3,-0.9 -2,-0.5 -0.7,0.4 -0.9,1.3 -0.5,2 0.4,0.6 1.3,0.9 2,0.5 z m 25.4,43.9999993 c -0.7,0.4 -0.9,1.3 -0.5,2 0.4,0.7 1.3,0.9 2,0.5 0.7,-0.4 0.9,-1.3 0.5,-2 -0.4,-0.7 -1.3,-0.9 -2,-0.5 z m -25.4,0 c -0.7,-0.4 -1.6,-0.2 -2,0.5 -0.4,0.7 -0.2,1.6 0.5,2 0.7,0.4 1.6,0.2 2,-0.5 0.4,-0.7 0.2,-1.6 -0.5,-2 z m 25.4,-43.9999993 c 0.7,0.4 1.6,0.2 2,-0.5 0.4,-0.7 0.2,-1.6 -0.5,-2 -0.7,-0.4 -1.6,-0.2 -2,0.5 -0.5,0.6 -0.2,1.5 0.5,2 z m 14.2,20.4999993 a 1.54,1.54 0 0 0 -1.5,1.5 1.54,1.54 0 0 0 1.5,1.5 1.54,1.54 0 0 0 1.5,-1.5 c -0.1,-0.8 -0.7,-1.5 -1.5,-1.5 z m -53.7999985,0 a 1.54,1.54 0 0 0 -1.5,1.5 1.54,1.54 0 0 0 1.5,1.5 1.54,1.54 0 0 0 1.5,-1.5 c -0.1,-0.8 -0.7,-1.5 -1.5,-1.5 z m 37.5999985,-2.1 c 0.4,0 0.9,-0.1 1.3,-0.4 1.3,-0.7 1.7,-2.3 1,-3.6 -0.7,-1.3 -2.3,-1.7 -3.6,-1 v 0 c -0.6,0.4 -1,0.9 -1.2,1.6 -0.2,0.7 -0.1,1.4 0.3,2 0.4,0.9 1.3,1.4 2.2,1.4 z" style="stroke:#000000;stroke-width:3;stroke-miterlimit:4;stroke-dasharray:none;stroke-opacity:1"/></svg>