<svg xmlns="http://www.w3.org/2000/svg" viewBox="0 10 370 340"><path d="m 358.95,150.51 c 2.6,-11.58 1.21,-22.53 -0.13,-33.12 -1.14,-9.04 -2.22,-17.58 -0.59,-25.51 3.87,-18.8 -8.13,-39.43 -19.01,-55.3 -12.14,-17.71 -25.28,-20.22 -42.52,-21.84 -10.36,-0.76 -20.67,4.1 -29.25,9.82 -1.35,0.9 -2.74,1.84 -3.15,1.92 -9.61,0.5 -20.17,0.92 -28.05,2.56 -9.98,2.14 -17.97,7.22 -17.82,11.33 0.06,1.56 1.2,3.56 6.3,4.27 11.47,1.76 21.48,4.82 31.97,8 8.22,2.43 15.81,5.74 18.41,19.49 1.81,9.56 -14.63,20.53 -29.12,30.2 -6.01,4.01 -11.69,7.8 -16.27,11.52 -15.95,12.96 -46.37,39.24 -56.12,48.47 -9.24,8.75 -86.92,62.01 -107.8,72.2 -21.34,10.41 -42.13,26.73 -47.35,37.15 -1.17,2.34 -1.42,3.82 -0.81,4.8 1.89,1.79 4.53,0.41 6.58,-0.55 0.28,1.54 2.09,1.83 3.32,1.84 3.41,0 10.52,-1.4 19.19,-3.77 -3.11,2.3 -9.29,6.27 -14.92,9.87 C 9.6,298.09 -0.27,305.02 0,308.37 c 0.15,1.86 1.38,4.07 6.35,4.07 3.05,0 6.76,-0.78 9.75,-1.41 1.55,-0.33 2.89,-0.61 3.82,-0.72 -0.34,0.71 -1.21,1.93 -1.82,2.79 -1.99,2.8 -4.05,5.7 -2.59,7.53 0.44,0.55 1.19,0.82 2.29,0.82 3.29,0 10.3,-2.44 17.09,-4.79 4.84,-1.68 9.42,-3.27 12.18,-3.83 4.22,-0.84 24.69,-11.44 44.48,-21.69 14.77,-7.65 31.5,-16.31 33.3,-16.51 3.51,0 31.84,-2.07 49.71,-7.17 3.98,-1.14 8.24,-1.72 12.65,-1.72 10.72,0 21.07,3.33 29.93,6.64 l -0.17,8.05 -0.2,20.57 c 0.03,3.4 6.46,9.41 15.53,17.53 3.73,3.34 8.32,7.44 9.16,8.91 -1.52,0.95 -3.85,0.97 -6.75,1.01 -5.05,0.06 -11.97,0.14 -19.15,5.62 -4.18,3.19 -6.94,7.74 -7.57,9.96 0.07,2.18 1.49,1.79 2.73,0.92 2.34,-1.68 7.82,-5.61 10.77,-6.73 3.98,-1.51 6.9,-2.13 10.09,-2.13 4.19,0 9.14,1.08 16.8,3.06 4.7,1.22 8.71,1.81 12.26,1.81 4.62,0 7.97,-0.98 11.52,-2.01 4.13,-1.2 8.4,-2.45 15.38,-2.45 7.65,-0.21 15.15,2.62 21.86,6.51 1.07,0.7 1.84,1.07 3.02,1.05 0.69,-2.01 -1.19,-3.39 -1.92,-4.21 -3.52,-3.96 -6.81,-6.38 -9.99,-7.95 7.2,-1.82 15.01,-3.84 21,-3.88 1.36,0 2.71,0.05 4.07,0.13 7.65,0.48 14.5,4.46 17.8,6.38 1.07,0.7 1.85,1.07 3.02,1.05 0.69,-2.01 -1.19,-3.39 -1.92,-4.21 -7.44,-8.38 -13.89,-9.93 -20.38,-10.88 -2.55,-0.37 -4.48,-1.23 -4.69,-2.08 -0.17,-0.7 0.77,-1.88 2.53,-3.16 3.12,-2.27 6.26,-3.43 9.33,-3.43 5.44,0 8.83,3.57 9.19,4.93 0.77,1.31 1.48,0.63 2.05,-0.03 0.3,-1.2 -0.06,-6.44 -4.49,-8.81 -2.21,-1.19 -5.63,-1.84 -9.64,-1.84 -9.46,0 -19.74,3.33 -28.22,9.01 -2.73,-0.48 -4.99,-0.56 -7.48,-0.48 -7.24,-5.79 -19.98,-19.26 -20.72,-23.84 -0.48,-3.02 -0.77,-12.57 -0.77,-21.78 v -0.1 c 6,-2.98 12.09,-6.5 19.16,-10.66 35.36,-20.8 63.8,-86.29 68.59,-107.67 z m -108.13,128.37 -0.1,13.63 c 0.03,3.4 6.46,9.41 15.53,17.52 3.53,3.16 7.81,6.99 8.98,8.64 -2.08,1.25 -4.46,1.25 -6.57,1.28 -3.27,0.04 -7.33,0.1 -11.72,1.61 -7.35,-6.35 -18.12,-18.12 -18.79,-22.34 -0.37,-2.29 -0.5,-8.33 -0.58,-15.14 2.92,-1 7.27,-2.6 13.24,-5.21 z"/></svg>