<svg xmlns="http://www.w3.org/2000/svg" width="100%" viewBox="0 0 400 400" height="150"><path fill="#fdfdfd" d="M1 150V1.023h399.914v399.829H1V150m211.471 211.861s.059-.361.6-.764l9.92-14.045s.16.125.89-.222c1.054-.044 2.107-.088 3.65.367l4.569 3.79 29.316 22.012c2.917 2.116 5.67 6.006 9.898 3.515-.542-3.068-1.023-5.789-1.289-9.41-.394-4.012-.788-8.024-1.015-12.726-.117-.453-.234-.905-.14-2.262-.155-3.698-.31-7.397-.238-11.954-.116-2.055-.232-4.111-.051-7.039l-2.807-57.961-62.057-13.133-.293 1.326 40.184 29.396c3.226 2.333 4.024 4.269 1.707 8.12-7.513 12.484-14.518 25.274-22.124 38.252-.135.487-.269.974-.944 1.735-.215.737-.429 1.475-1.101 2.543-.17.33-.341.66-1.045 1.456l-9.077 15.669s-.166.244-.736.594l-1.756 4.095 1.286.587 2.654-3.941m79.436-16.835l1.703-15.043.115-.993c2.156-15.327-.835-12.515 13.728-11.122l38.178 4.147c2.115.196 4.386-1.289 6.585-1.997-2.494-2.31-4.391-3.47-5.467-5.154l-47.689-75.257c-2.356-3.778-4.581-4.338-8.494-3.029l-36.691 11.793c-6.046 1.976-11.999 4.236-17.994 6.367 16.028 2.781 31.785 4.662 47.58 6.146 6.923.651 7.112.477 7.157 7.62l.182 63.327c-.02 4.602-.04 9.204-.458 14.537l.502 3.91.983-.183c0-1.412 0-2.823.08-5.069M203.306 32.204l-10.283 12.682c-.292.617-.584 1.233-1.548 2.112l-4.865 5.803c-1.985-1.31-3.844-2.409-5.565-3.693l-34.679-26.026c-2.887-2.206-5.417-2.7-7.763-.814 1.239 3.852 2.342 7.282 3.271 11.639l.38 27.92 3.128 61.655 60.764 12.726c-.431-1.405-.426-1.837-.63-1.991l-36.601-27.507c-5.761-4.313-5.74-4.262-2.195-10.527l27.36-48.082c.513-1.005 1.025-2.01 2.159-3.165l7.776-13.224.269-.263c-.01.003-.027.004-.029.01-.075.199-.15.398-.951.743M83.897 261.124l27.929-.378c4.477-.343 8.966-1.064 13.427-.917 3.986.131 5.252-1.763 5.826-5.142.748-4.405 1.664-8.782 2.567-13.159l8.361-40.533c.159-.78-.227-1.67-.457-3.135-1.69 1.949-2.975 3.242-4.044 4.695l-25.876 35.369c-1.85 2.558-3.326 3.342-6.499 1.495l-48.402-27.45c-3.548-1.986-7.313-3.583-10.977-5.359l-.67 1.272 14.463 10.232c-.782 1.224-1.244 2.072-1.82 2.832l-27.702 36.533c-3.99 5.304-3.814 6.65 1.044 12.18V263.7l38.13-1.227c4.606-.198 9.185-1.006 14.703-1.349m258.926-5.128c1.463-.95 2.926-1.9 5.115-2.941l39.534-17.025c4.074-1.717 5.681-4.274 4.054-9.245-1.495 4.361-3.773 3.225-6.502 1.784l-77.212-40.701c-4.622-2.483-7.33-1.901-10.595 1.857l-31.483 35.413-5.58 6.282.846 1.239 49.789-21.755 8.192 14.061 25.91 44.867 4.825 8.746 1.881-1.057c-1.531-2.841-3.063-5.681-4.679-9.248-1.575-3.998-3.15-7.997-4.095-12.278m-6.067-142.002h16.556l-.021-1.462-18.286-1.432c-2.878-.209-5.756-.417-8.993-1.185-1.058-.216-2.116-.433-3.375-1.597.328-3.975.656-7.951 1.474-12.281l.729-3.087 3.423-34.016c.148-2.039-1.937-4.331-3.263-6.326-.358-.538-1.711-.415-3.255-.725l3.162 3.658c-1.207.845-2.245 1.63-3.339 2.327l-76.42 48.583c-3.158 1.992-3.759 4.162-2.657 7.441l10.549 31.884 8.249 24.791c2.464-16.136 4.374-32.014 5.706-47.94.685-8.197.601-8.602 8.906-8.639l60.855.006M72.576 287.385l15.512 1.348c-.178 2.914-.211 4.874-.43 6.813l-5.037 43.099c-.533 4.018 1.346 6.012 3.009 7.387 2.456-2.571 4.361-4.983 6.685-6.883 2.424-1.982 5.247-3.478 7.905-5.172l65.914-41.915c2.949-1.861 4.008-3.475 2.696-7.157-4.75-13.324-9.045-26.81-13.543-40.225l-4.943-14.277-1.457.245-5.882 54.204c-23.778 0-47.404 0-71.65-.537h-14.66l.021 1.106 15.86 1.963m223.175-148.793h-14.329l-12.853 62.018 1.332.408 2.346-3.045 27.492-37.215c1.682-2.278 3.2-3.945 6.519-1.983l45.506 26.389 10.841 6.099 1.07-1.43-11.357-9.351c.535-.974.853-1.747 1.336-2.4l28.219-37.945c1.836-2.414 2.531-4.429 1.104-7.793l-2.387-5.25-1.641.652c.554 1.833 1.108 3.667 1.098 6.057-1.265.287-2.529.573-4.519.524-1.626.396-3.253.792-5.768 1.252-7.587.143-15.173.286-23.36.019l-7.202.405c-1.33.143-2.66.286-4.755.154-1.473.345-2.947.689-5.36 1.034l-29.501.221a34.76 34.76 0 0 1-3.83 1.179M87.986 202.525l18.015 9.391c2.584 1.404 4.319 1.284 6.419-1.104l34.569-38.695c1.694-1.895 3.281-3.886 4.917-5.832l-.744-.89-50.249 22.158-4.04-6.557-30.106-51.47c-.668-1.136-1.932-1.922-2.918-2.871l-.987.829c1.479 3.425 2.624 7.051 4.524 10.224 2.358 3.94 1.257 5.712-2.71 7.336l-40.639 17.136c-5.621 2.383-6.572 4.611-4.336 11.19.773-5.624 3.338-5.052 6.998-3.111l61.288 32.265m122.79 84.2l-38.088-33.721c-.497 1.605-.203 2.497.17 3.355l19.483 44.522c1.213 2.717.823 4.014-1.785 5.476l-27.508 15.958-32.836 19.108.591 1.371 18.326-7.259 7.041 16.323 12.558 29.058c1.841 4.162 4.792 6.422 10.806 4.156-5.47-.993-4.978-3.122-3.212-6.461l38.366-73.555c6.288-12.367 6.12-8.626-3.91-18.331m48.546-216.936l19.69-11.748-.764-1.544-12.555 5.145c-2.647 1.158-4.021.778-5.247-2.178l-18.103-42.407c-2.257-5.282-3.494-5.822-9.985-3.574 5.128.875 4.225 3.278 2.583 6.399l-41.272 78.716c-1.79 3.385-1.675 5.429 1.303 8.04l34.558 31.015c2.831 2.537 5.819 4.898 8.736 7.34l.826-.72-21.774-50.082 42.004-24.403m-157.475 72.866c3.49 5.458 7.377 10.711 10.339 16.442 2.167 4.194 5.109 4.222 8.566 3.109l38.315-12.649c5.056-1.696 10.045-3.588 15.065-5.391l-.2-1.635c-3.82-.259-7.658-.37-11.458-.804-12.132-1.387-24.226-3.206-36.388-4.193-4.503-.366-5.99-1.437-5.952-6.075l.075-74.94c-.001-1.802-.15-3.604-.231-5.406l-.589.067-3.488 30.885-26.159-2.682c-6.05-.731-12.029-2.19-18.09-2.643-4.269-.319-9.227-2.298-12.254 1.751 2.199 2.342 4.456 4.118 5.919 6.403l36.53 57.76z"/><path d="M87.688 202.298l-60.99-32.038c-3.66-1.941-6.225-2.513-6.998 3.111-2.236-6.579-1.285-8.806 4.336-11.19l40.639-17.136c3.967-1.624 5.069-3.396 2.71-7.336-1.9-3.174-3.044-6.799-4.524-10.224l.987-.829c.987.949 2.25 1.735 2.918 2.871l30.106 51.47c1.234 2.112 2.564 4.167 4.04 6.557l50.249-22.158.744.89-4.917 5.832-34.569 38.695c-2.1 2.387-3.835 2.508-6.419 1.104l-18.313-9.618zm123.343 84.675c9.774 9.457 9.942 5.716 3.655 18.083l-38.366 73.555c-1.766 3.339-2.258 5.468 3.212 6.461-6.014 2.266-8.964.006-10.806-4.156l-12.558-29.058-7.041-16.323-18.326 7.259-.591-1.371 32.836-19.108 27.508-15.958c2.608-1.462 2.998-2.759 1.785-5.476l-19.483-44.522c-.374-.858-.668-1.75-.17-3.355l38.344 33.97zm47.974-217.001l-41.687 24.219 21.774 50.082-.826.72c-2.916-2.442-5.905-4.803-8.736-7.34l-34.558-31.015c-2.978-2.611-3.094-4.655-1.303-8.04l41.272-78.716c1.642-3.121 2.545-5.524-2.583-6.399 6.491-2.248 7.728-1.709 9.985 3.574l18.103 42.407c1.226 2.956 2.6 3.336 5.247 2.178 4.142-1.812 8.366-3.44 12.555-5.145l.764 1.544-20.007 11.932zm-157.314 72.353L65.317 84.894c-1.463-2.285-3.72-4.061-5.919-6.403 3.027-4.049 7.985-2.07 12.254-1.751 6.061.453 12.04 1.912 18.09 2.643 8.21.992 16.454 1.702 26.159 2.682l3.488-30.885.589-.067c.08 1.802.229 3.604.231 5.406l-.075 74.94c-.038 4.638 1.45 5.709 5.952 6.075 12.162.987 24.256 2.806 36.388 4.193 3.8.435 7.638.545 11.458.804l.2 1.635-15.065 5.391-38.315 12.649c-3.456 1.112-6.398 1.084-8.566-3.109-2.962-5.731-6.848-10.984-10.494-16.771zm245.308-6.316l23.578-.305c2.437-.264 4.056-.652 5.675-1.04l4.354-1.188c1.125-.348 1.69-.367 2.255-.386 1.542 2.619.847 4.634-.989 7.048l-28.219 37.945c-.482.652-.8 1.426-1.336 2.4l11.357 9.351-1.07 1.43-10.841-6.099-45.506-26.389c-3.319-1.962-4.837-.294-6.519 1.983l-27.492 37.215-2.346 3.045-1.332-.408 12.853-62.018 15.125.109c1.684-.229 2.573-.567 3.461-.905l29.797-.383c2.282-.179 3.842-.58 5.403-.98 1.33-.143 2.66-.286 4.675-.176 2.829.086 4.973-.081 7.117-.248zM71.974 284.852h71.031l5.882-54.204 1.457-.245 4.943 14.277 13.543 40.225c1.312 3.682.254 5.295-2.696 7.157l-65.914 41.915c-2.658 1.693-5.48 3.19-7.905 5.172-2.324 1.9-4.229 4.312-6.685 6.883-1.664-1.375-3.543-3.369-3.009-7.387l5.037-43.099c.219-1.939.252-3.899.43-6.813-5.439-.473-10.476-.91-15.946-1.814-.345-1-.256-1.533-.167-2.066zm254.399-174.379l9.085.989c.426.99.4 1.616.375 2.243l-59.931.281c-8.305.037-8.221.443-8.906 8.639-1.331 15.926-3.242 31.804-5.706 47.94l-8.249-24.791-10.549-31.884c-1.102-3.279-.501-5.45 2.657-7.441l76.42-48.583c1.094-.697 2.132-1.483 3.339-2.327l-3.162-3.658c1.543.31 2.897.187 3.255.725 1.325 1.995 3.411 4.287 3.263 6.326-.826 11.361-2.222 22.681-3.842 34.569a11.46 11.46 0 0 0-.8 2.889c-.328 3.975-.656 7.951-.77 12.74 1.316.99 2.419 1.166 3.521 1.342zm18.466 158.63l-25.856-44.138-8.192-14.061-49.789 21.755-.846-1.239 5.58-6.282 31.483-35.413c3.265-3.758 5.973-4.339 10.595-1.857l77.212 40.701c2.728 1.44 5.007 2.577 6.502-1.784 1.627 4.972.02 7.528-4.054 9.245l-40.278 17.044c-2.163 1.081-3.582 2.143-5 3.204 1.575 3.998 3.15 7.997 4.406 12.375a3.77 3.77 0 0 1-1.762.451zm-53.782 61.874l-.439-62.473c-.046-7.142-.235-6.969-7.157-7.62-15.795-1.484-31.552-3.365-47.58-6.146l17.994-6.367 36.691-11.793c3.913-1.309 6.138-.75 8.494 3.029l47.689 75.257c1.076 1.684 2.973 2.843 5.467 5.154-2.199.708-4.47 2.193-6.585 1.997-12.744-1.184-25.436-2.929-38.178-4.147-14.563-1.392-11.572-4.204-13.728 11.122-.046.33-.077.662-.523 1.443-.987.482-1.566.513-2.146.544zM82.971 260.938c-4.591.529-9.171 1.337-13.776 1.535l-38.13 1.227v5.958c-4.858-5.53-5.034-6.877-1.044-12.18l27.702-36.533c.576-.761 1.038-1.608 1.82-2.832L45.081 207.88l.67-1.272c3.665 1.776 7.43 3.373 10.977 5.359l48.402 27.45c3.174 1.848 4.649 1.063 6.499-1.495l25.876-35.369c1.069-1.452 2.354-2.746 4.044-4.695.231 1.465.616 2.355.457 3.135l-8.361 40.533-2.567 13.159c-.574 3.38-1.839 5.274-5.826 5.142-4.461-.147-8.95.574-13.984.481-10.459-.436-20.362-.436-29.779-.436l1.481 1.065zM142.048 32.98l-3.445-10.712c2.345-1.885 4.876-1.392 7.763.814l34.679 26.026c1.722 1.283 3.58 2.383 5.565 3.693 1.689-2.014 3.277-3.909 5.532-5.447.926.642 1.185.928 1.444 1.214l-26.864 47.618c-3.545 6.264-3.566 6.214 2.195 10.527l36.601 27.507c.204.154.199.585.63 1.991l-60.764-12.726-2.693-62.212c.688-9.765.942-18.974 1.118-28.183 0-.024-1.148-.071-1.761-.107zm126.358 308.04c.155 3.698.31 7.397.03 11.636-3.577 3.843-3.634 7.934-3.455 12.116.133 3.106-1.401 4.095-4.009 2.481-4.896-3.032-10.275-5.651-14.324-9.6-7.045-6.87-16.873-10.266-22.604-18.629-.08-.117-.296-.141-.448-.208l21.718-37.946c2.317-3.851 1.519-5.786-1.707-8.12l-40.184-29.396.293-1.326 62.057 13.133 2.313 58.406c-6.117 2.33-.346 6.374-2.108 9.001l2.427-1.548z" fill="#666766"/><path d="M223.394 338.968c.355-.086.571-.062.651.055 5.731 8.363 15.558 11.759 22.604 18.629 4.049 3.949 9.428 6.568 14.324 9.6 2.608 1.615 4.142.626 4.009-2.481-.179-4.181-.122-8.273 3.35-11.664.447.364.564.817.33 1.918.012 4.775-2.639 9.268 1.151 12.978l1.503 8.51c-4.228 2.491-6.981-1.399-9.898-3.515-9.89-7.174-19.574-14.634-29.316-22.012-1.576-1.194-3.049-2.523-4.906-4.369-2.133-2.029-3.671-2.637-4.043.558 0 0-.16-.125-.467-.174-.888-.904-1.469-1.758-2.05-2.613.17-.33.341-.66 1.021-1.276.717-1.035.924-1.783 1.131-2.531.135-.487.269-.974.607-1.614zm-139.96-77.937c-1.114-.561-1.765-1.029-1.944-1.158l29.356.358c-8.894.536-17.922.715-27.413.8zm58.528-227.587c.699-.427 1.848-.381 1.847-.357-.176 9.21-.43 18.418-1.041 27.761-.536-8.891-.714-17.916-.806-27.404z" fill="#616261"/><path fill="#757675" d="M220.368 344.622c.848.621 1.429 1.476 2.404 2.43-2.97 4.748-6.335 9.396-10.276 13.956-.79-.266-1.004-.445-1.218-.624l9.089-15.763z"/><path fill="#8d8e8d" d="M193.478 44.565l10.187-12.448.339-.097c-2.588 4.306-5.175 8.612-8.606 12.848-1.202-.148-1.561-.225-1.92-.302z"/><path fill="#a5a6a5" d="M336.295 113.849c-.437-.771-.411-1.397-.401-2.339 5.79.13 11.594.576 17.398 1.021l.021 1.462c-5.519 0-11.037 0-17.018-.144z"/><path fill="#8d8e8d" d="M290.928 331.404c.708-.458 1.287-.489 2.154-.551-.2 4.704-.687 9.438-1.401 14.572-.468.349-.706.286-.941.212l.189-14.232z"/><path fill="#b7b7b7" d="M71.665 284.584c.22.802.131 1.335.005 2.274-5.009-.208-9.982-.822-14.954-1.436l-.021-1.106c4.887 0 9.773 0 14.969.269z"/><path fill="#8d8e8d" d="M344.865 269.468c.454-.388.935-.412 1.777-.452 1.892 2.825 3.424 5.665 4.955 8.506l-1.881 1.057c-1.608-2.915-3.217-5.831-4.852-9.111z"/><path fill="#616261" d="M268.519 340.59c-.922.945-1.731 1.461-2.54 1.977 1.762-2.627-4.009-6.671 1.959-8.564.462 2.047.578 4.102.581 6.587z"/><path fill="#666766" d="M269.919 367.553c-3.897-3.26-1.246-7.753-1.342-12.183.66 3.709 1.055 7.721 1.342 12.183z"/><path d="M382.919 132.717c-.622.391-1.188.41-2.031.48-.832-1.783-1.386-3.616-1.94-5.45l1.641-.652 2.329 5.622zm-36.22 3.087c-1.844.372-3.988.539-6.414.468 1.85-.383 3.982-.528 6.414-.468z" fill="#a5a6a5"/><path fill="#8d8e8d" d="M212.243 362.146l-2.426 3.655-1.286-.587c.585-1.365 1.171-2.73 2.198-3.973.799.383 1.156.644 1.513.905z"/><path d="M334.825 136.295c-1.178.538-2.738.938-4.55 1.117 1.221-.566 2.694-.91 4.55-1.117zm41.065-1.8c-1.256.556-2.875.944-4.868 1.176 1.253-.552 2.879-.948 4.868-1.176z" fill="#a5a6a5"/><path fill="#8d8e8d" d="M342.509 256.137a30.3 30.3 0 0 1 4.323-3.017c-1.082.976-2.545 1.926-4.323 3.017z"/><path fill="#c4c4c4" d="M290.541 346.002c.434-.291.672-.228 1.1-.16.186 1.429.186 2.841.186 4.252l-.983.183c-.167-1.303-.335-2.607-.303-4.276z"/><path fill="#757675" d="M223.517 347.003c.008-3.022 1.545-2.414 3.434-.634-.962.373-2.015.417-3.434.634z"/><path d="M299.794 137.605c-.675.529-1.564.867-2.809 1.039.628-.52 1.612-.876 2.809-1.039zm26.399-27.411c-.922.103-2.025-.073-3.241-.589.944-.124 2.003.093 3.241.589z" fill="#a5a6a5"/><path fill="#666766" d="M193.251 44.726c.586-.083.945-.006 1.837.217.02 1.15-.493 2.155-1.254 3.393-.507-.054-.766-.34-1.356-1.112-.039-1.103.253-1.72.773-2.497z"/><path fill="#757675" d="M222.517 340.719c.063.611-.144 1.359-.633 2.228-.067-.616.148-1.354.633-2.228z"/><path fill="#a5a6a5" d="M323.867 96.214c-.118-.601.01-1.38.443-2.283.138.619-.03 1.362-.443 2.283z"/><path fill="#8d8e8d" d="M204.028 32.044l.229-.583c.002-.006.019-.007.029-.01-.09.088-.179.175-.275.416-.007.153.013.163.017.177z"/><path fill="#757675" d="M212.357 362.003c-.472-.118-.829-.379-1.342-.937-.156-.297.009-.541.137-.611.341.109.556.287 1.075.755.305.289.245.65.131.793z"/></svg>