<svg xmlns="http://www.w3.org/2000/svg" viewBox="18 18 364 364"><path id="scholarpedia-A" fill="#666" d="M87.688 202.298l-60.99-32.038c-3.66-1.941-6.225-2.513-6.998 3.111-2.236-6.579-1.285-8.806 4.336-11.19l40.639-17.136c3.967-1.624 5.069-3.396 2.71-7.336-1.9-3.174-3.044-6.799-4.524-10.224l.987-.829c.987.949 2.25 1.735 2.918 2.871l30.106 51.47c1.234 2.112 2.564 4.167 4.04 6.557l50.249-22.158.744.89-4.917 5.832-34.569 38.695c-2.1 2.387-3.835 2.508-6.419 1.104l-18.313-9.618z"/><use transform="rotate( 30 200 200)" href="#scholarpedia-A"/><use transform="rotate( 60 200 200)" href="#scholarpedia-A"/><use transform="rotate( 90 200 200)" href="#scholarpedia-A"/><use transform="rotate(120 200 200)" href="#scholarpedia-A"/><use transform="rotate(150 200 200)" href="#scholarpedia-A"/><use transform="rotate(180 200 200)" href="#scholarpedia-A"/><use transform="rotate(210 200 200)" href="#scholarpedia-A"/><use transform="rotate(240 200 200)" href="#scholarpedia-A"/><use transform="rotate(270 200 200)" href="#scholarpedia-A"/><use transform="rotate(300 200 200)" href="#scholarpedia-A"/><use transform="rotate(330 200 200)" href="#scholarpedia-A"/></svg>