<svg xmlns="http://www.w3.org/2000/svg" viewBox="0 0 299.6 263.2" xmlns:v="https://vecta.io/nano"><path d="M171.2 139.8c0-49.1-17.4-71.4-26.6-79.8-1.8-1.6-4.6-.2-4.5 2.3 1.8 27.7-33 34.5-33 78h0v.3c0 26.5 20 48 44.7 48s44.7-21.5 44.7-48v-.3h0c0-12.3-4.6-24-9.3-32.8-.9-1.7-3.6-1.1-3.3.5 8.4 37.4-12.7 60.6-12.7 31.8zm-52.7 103.4c-1.1 0-2.2-.4-3-1.3L1.2 127.8c-1.7-1.7-1.7-4.4 0-6L121.8 1.3c.8-.8 1.9-1.3 3-1.3h34.6c2.1 0 3.4 1.4 3.9 2.6.5 1.3.6 3.2-.9 4.7L49 120.7c-2.3 2.3-2.3 6 0 8.3l89.6 89.6c1.7 1.7 1.7 4.4 0 6l-17.1 17.3c-.8.8-1.9 1.3-3 1.3zm21.7 20c-2.1 0-3.4-1.4-3.9-2.6-.5-1.3-.6-3.2.9-4.7l113.4-113.4c1.1-1.1 1.7-2.6 1.7-4.1s-.6-3-1.7-4.1L161 44.6c-1.7-1.7-1.7-4.4 0-6l17.4-17.4c.8-.8 1.9-1.3 3-1.3s2.2.4 3 1.3l114 114.1c.8.8 1.3 1.9 1.3 3s-.4 2.2-1.3 3L177.8 261.9c-.8.8-1.9 1.2-3 1.2h-34.6z"/></svg>