<svg xmlns="http://www.w3.org/2000/svg" viewBox="0 -0.5 24 23"><path style="stroke-width:0.4; stroke:currentColor;" d="M 23.65,23.06 H 4.27 v -1.19 h 1.64 c 0.29,-3.86 3.98,-5.3 6.04,-8.42 H 9.57 c -1.15,0.41 -2.88,2.96 -2.88,4.43 h -3 l 0.04,-1.23 -0.99,0.82 -2.63,-3.04 a 0.63,0.63 0 0 1 -0.12,-0.29 0.51,0.51 0 0 1 0.04,-0.21 l 4.15,-5.62 0.74,-2.22 1.11,-0.41 1.15,-1.6 -0.41,-2.8 a 2.62,2.62 0 0 1 2.71,0.49 14.32,14.32 0 0 0 -0.04,-1.72 2.49,2.49 0 0 1 3,2.05 13.98,13.98 0 0 1 1.48,0.21 0.67,0.67 0 0 1 0.62,-0.45 0.6,0.6 0 0 1 0.62,0.62 v 0.16 a 11.89,11.89 0 0 1 2.42,1.15 0.59,0.59 0 0 1 0.49,-0.25 0.6,0.6 0 0 1 0.62,0.62 0.51,0.51 0 0 1 -0.12,0.37 10.57,10.57 0 0 1 1.81,2.01 0.76,0.76 0 0 1 0.29,-0.08 0.64,0.64 0 0 1 0.66,0.62 0.55,0.55 0 0 1 -0.33,0.53 11.47,11.47 0 0 1 0.98,2.42 0.25,0.25 0 0 1 0.16,-0.04 0.6,0.6 0 0 1 0.62,0.62 0.59,0.59 0 0 1 -0.45,0.62 c 0.16,0.86 0.29,1.73 0.37,2.63 a 0.64,0.64 0 0 1 0.66,0.62 0.67,0.67 0 0 1 -0.62,0.66 c 0,0.86 -0.04,1.81 -0.12,2.71 a 0.66,0.66 0 0 1 0.58,0.66 0.64,0.64 0 0 1 -0.66,0.62 h -0.04 c -0.16,0.9 -0.33,1.81 -0.53,2.75 h 1.73 z m -2.96,-1.15 c 2.38,-9.81 -0.41,-17.62 -8.01,-18.52 a 10.04,10.04 0 0 1 0.04,1.07 c 0,0.49 -0.04,0.9 -0.04,0.9 l -1.19,-0.2 c 0.04,-0.41 0.12,-3.2 -0.86,-3.82 a 15.52,15.52 0 0 1 -0.33,2.96 l -1.11,-0.2 a 1.66,1.66 0 0 0 -1.07,-1.73 l 0.29,2.01 -0.7,1.03 0.33,0.94 -2.18,0.74 -0.62,1.77 -3.82,5.26 1.44,1.72 1.6,-1.36 0.37,0.25 v 2.02 h 0.86 a 8.07,8.07 0 0 1 2.67,-3.94 l -0.62,-0.74 0.9,-0.78 0.87,1.07 c 0,0 3.08,0 3.08,-0.04 a 8.5,8.5 0 0 0 0.74,-3.57 h 1.19 c 0,4.68 -2.34,6.53 -5.26,9.4 a 6.09,6.09 0 0 0 -2.14,3.78 z m -17.12,-9.07 a 3.17,3.17 0 0 1 -0.33,1.77 l -0.86,-0.33 a 2.72,2.72 0 0 0 0.45,-1.48 z m 4.72,-4.56 -1.85,0.99 -0.12,-1.52 1.93,-0.2 z" /></svg>