<svg xmlns="http://www.w3.org/2000/svg" viewBox="0 0 84.663 94.261"><path d="m 28.911,35.82 c 0.29,-4.18 -1.71,-7.79 -8.08,-10.45 l -4.86,-2 c -6.27,-2.66 -8.55,-6.84 -8.27,-11.59 0.57,-7.51 6.65,-11.12 14.25,-10.56 5.23,0.38 8.46,1.71 11.31,3.71 l -0.48,6.37 h -0.57 C 30.24,5.13 26.44,3.23 21.88,2.95 c -4.85,-0.29 -8.74,2.76 -9.03,6.94 -0.29,3.61 0.95,6.46 5.99,8.65 l 3.8,1.62 c 5.04,2.09 11.97,5.23 11.4,13.68 -0.57,7.79 -6.37,12.73 -15.3,12.16 -5.61,-0.38 -10.17,-1.9 -13.59,-4.66 l 0.48,-7.22 h 0.57 c 2.85,8.93 7.7,9.6 11.97,9.88 6.94,0.38 10.45,-3.33 10.74,-8.17 z"/><path d="m 66.66,40.66 c 0,2.76 1.05,3.42 3.9,3.42 h 2.47 v 1.05 H 54.97 v -1.14 h 2.185 c 3.14,0 4.09,-0.67 4.09,-3.33 V 4.09 h -7.13 c -5.32,0 -7.89,2.28 -8.74,7.31 h -0.57 v -9.31 h 38.19 v 9.31 H 82.52 C 81.76,6.37 79.2,4.09 73.78,4.09 h -7.13 z"/><path d="M 32.8 47.91 L 8.8 86.42 C 5 92.31 3.9 93.31 0.8 93.31 L 0.2 93.31 L 0 94.51 L 13.3 94.51 L 13.4 93.31 L 12.5 93.31 C 8.4 93.31 7.5 92.71 11.6 85.71 L 16.3 78.21 L 32.4 78.21 L 34.4 90.61 C 34.8 92.61 33.3 93.31 31.1 93.31 L 29.9 93.31 L 29.7 94.51 L 45.5 94.51 L 45.7 93.42 L 44.4 93.42 C 42.2 93.41 41.1 92.21 40.5 90.11 L 33.5 47.91 L 32.8 47.91 z M 29.47 57.95 L 32.17 74.55 L 18.97 74.52 L 29.47 57.92 z"/><path d="m 66.351,89.073 c 0,2.76 1.14,3.42 3.99,3.42 h 2.47 v 1.05 h -18.05 v -1.14 h 2.185 c 3.14,0 4.09,-0.67 4.09,-3.33 V 52.49 h -7.125 c -5.32,0 -7.89,2.28 -8.74,7.32 h -0.57 v -9.31 h 38.19 v 9.31 h -0.57 c -0.76,-5.04 -3.33,-7.32 -8.74,-7.32 h -7.13 z"/></svg>