<svg xmlns="http://www.w3.org/2000/svg" viewBox="0 0 84.663 94.261"><path d="M28.911 35.819c.285-4.18-1.71-7.79-8.075-10.45l-4.845-1.995c-6.27-2.66-8.55-6.84-8.265-11.59.57-7.505 6.65-11.115 14.25-10.545 5.225.38 8.455 1.71 11.305 3.705l-.475 6.365h-.57c-1.995-6.175-5.795-8.075-10.355-8.36-4.845-.285-8.74 2.755-9.025 6.935-.285 3.61.95 6.46 5.985 8.645l3.8 1.615c5.035 2.09 11.97 5.225 11.4 13.68-.57 7.79-6.365 12.73-15.295 12.16-5.605-.38-10.165-1.9-13.585-4.655l.475-7.22h.57c2.85 8.93 7.695 9.595 11.97 9.88 6.935.38 10.45-3.325 10.735-8.17zm37.839 4.845c0 2.755.95 3.42 3.8 3.42h2.47v1.045H54.97v-1.14h2.185c3.135 0 4.085-.665 4.085-3.325V4.089h-7.125c-5.32 0-7.885 2.28-8.74 7.315h-.57v-9.31h38.19v9.31h-.475c-.76-5.035-3.325-7.315-8.74-7.315h-7.125v36.575zM32.8 47.912h.7l7 42.2c.6 2.1 1.7 3.3 3.9 3.3h1.3l-.2 1.1H29.7l.2-1.2h1.2c2.2 0 3.7-.7 3.3-2.7l-2-12.4H16.3l-4.7 7.5c-4.1 7-3.2 7.6.9 7.6h.9l-.1 1.2H0l.2-1.2h.6c3.1 0 4.2-1 8-6.9z"/><path d="M18.968 74.517h13.2l-2.7-16.6z" fill="#fff" stroke="#000" stroke-opacity="0"/><path d="M66.541 89.073c0 2.755.95 3.42 3.8 3.42h2.47v1.045h-18.05v-1.14h2.185c3.135 0 4.085-.665 4.085-3.325V52.498h-7.125c-5.32 0-7.885 2.28-8.74 7.315h-.57v-9.31h38.19v9.31h-.57c-.76-5.035-3.325-7.315-8.74-7.315h-7.125v36.575z"/></svg>