<svg xmlns="http://www.w3.org/2000/svg" width="1103.967" height="211.783" xmlns:v="https://vecta.io/nano"><g transform="matrix(2.009031 0 0 .98724 -121.09056 -147.08892)"><path d="M385.76 153.49c-4.95-.99-10.08-1.5-15.32-1.5l-221.83.67h-.01l-1.33.19c-.01.01-.01.01-.02 0-20.64 3.12-35.34 12.66-45.74 23.79-31.26 33.47-26.88 85.89 9.74 115.01a68.72 68.72 0 0 0 1.42 1.11c10.62 8.12 23.14 13.25 36.28 15.16h.01a80.48 80.48 0 0 0 11.83.87h-7.88-5.98-2.79c-7.9 0-15.73-1.14-23.21-3.38-.01 0-.02 0-.03-.01-8.94-2.67-17.38-6.91-24.88-12.64l-1.42-1.11c-33.42-26.58-39.99-72.56-17.12-105.83 2.19-3.19 4.65-6.25 7.38-9.18 10.56-11.3 25.58-20.98 46.75-23.93zm212.406 76.9c0 21.65-8.78 41.25-22.96 55.44-14.19 14.19-33.79 22.96-55.44 22.96h-226.3a68.71 68.71 0 0 1-2.03-.03h202.78c21.65 0 41.25-8.77 55.44-22.96 14.18-14.19 22.96-33.79 22.96-55.44 0-42.62-34.01-77.3-76.38-78.37h23.53c43.3 0 78.4 35.1 78.4 78.4z" opacity=".06"/><g fill="none" stroke="#000"><g stroke-width="6" stroke-linecap="round"><path d="M167.22 308.86l-1.99.09"/><path d="M156.25 309.09c-3.44-.03-6.96-.15-10.48-.37" stroke-dasharray="0.9983, 0.9983, 0.9983, 14.9747"/><path d="M138.3 308.12c-12.91-1.29-25.08-3.87-32.44-7.83l-1.58-.87c-40.79-22.92-53.45-73.98-27.91-112 9.58-14.24 24.88-27.39 49.31-32.91 0 0 1.98-.44 5.36-.86l2.514-.287c9.599-.975 26.612-1.336 43.245 5.051 1.263.485 2.523 1.009 3.778 1.574 10.34 4.658 20.299 12.138 27.972 23.942 7.41 11.39 11.14 24.79 11 38.37-.2 20.09-7.85 49.96-49.22 59.73l-1.6.41c-5.48 1.54-44.06 11.18-66.53-15.82-11.82-14.2-14.79-33.76-8.45-51.11 5.06-13.84 16.3-29.17 41.04-34.7 11.36-2.54 23.33-1.41 33.68 3.95 4.96 2.57 9.97 6.27 14.02 11.62 10.95 14.48 9.67 34.79-2.4 48.36-6.39 7.19-16.46 13.41-32.22 13.97-7.13.26-14.2-2.06-19.55-6.79-4.14-3.66-7.82-9.13-8.16-17.09-.52-12.46 7.67-23.79 19.64-27.28 2.54-.74 5.27-1.16 8.09-1.01 9.59.49 16.35 10.06 12.76 18.97-.97 2.42-2.67 4.57-5.5 5.82" stroke-dasharray="3.9933, 8.9848, 0.9983, 0.9983, 0.9983, 14.9747"/><path d="M147.82 232.49l-1.99-.17"/></g><path d="M154.077 153.324h0l333.994-.665c7.889 0 15.613.506 23.065 1.49 54.155 7.07 94.971 38.57 94.971 76.365 0 21.499-13.219 40.963-34.568 55.054-21.364 14.091-50.873 22.8-83.468 22.8H172.43" stroke-width="7.336" stroke-linecap="round"/><path d="M453.413 171.288h33.228c8.205 0 16.381.804 24.179 2.493 19.286 4.161 48.449 14.945 47.937 42.095m-154.049-44.588h25.489m163.67 165.52H114.481m291.883 22.422h47.049m-298.493 0h226.602" stroke-linecap="round" stroke-width="8.559"/></g></g></svg>