<svg xmlns="http://www.w3.org/2000/svg" width="372" height="372" preserveAspectRatio="xMidYMid meet" viewBox="0 0 279 279" xmlns:v="https://vecta.io/nano"><path d="M123 1C91.8 5.4 66 17.6 44.2 38.4 31.5 50.6 23.1 62 15.5 77.5 4.3 100.1.4 118.5 1.3 144c.6 16.6 2.1 25.2 6.8 39.4 6.4 19.2 16.9 36.3 31.4 51.5 20.3 21.1 45 34.7 74 40.7 12.3 2.5 39.3 2.6 51.8.1 43.4-8.7 79.2-35.9 99-75.2 18.9-37.8 18.8-85.1-.3-123.3-19.2-38.3-53.9-65.1-96.3-74.3C157.1.6 133.1-.4 123 1z"/><path d="M221.701 55.048c-.634 17.266-1.426 17.899-29.938 24.71l-26.294 6.178-3.643.792V139v52.272l3.643.792 26.294 6.178c28.512 6.811 29.304 7.445 29.938 24.71l.634 12.672H140.6 58.866V223.11c0-17.741.317-18.058 29.304-24.869l26.611-6.336c2.534-.792 2.693-4.752 2.693-52.906s-.158-52.114-2.693-52.906c-1.584-.475-13.464-3.326-26.611-6.336-28.987-6.811-29.304-7.128-29.304-24.869V42.376H140.6h81.734z" fill="#fff"/></svg>