<svg xmlns="http://www.w3.org/2000/svg" viewBox="0 0 95.169 103"><path d="M41 74.1c5.9 1 24.9-3.4 31.3-26.5 6.6-23.8 3.2-19-15.8 1.2-10.3 11-18.4 24.8-15.5 25.4zm16.6 15c20.6-7.5 20.4-35 17-27.3-3.3 7.5-5.6 13.6-12.8 17.8-5.7 3.3-9.7 3.7-16.6 3.6-5.8-.1-11-5-12.8 2.4-1.8 8.2 17.5 6.3 25.1 3.64zM40.2 53.5c15.8-22.5 39.4-30.5 36.7-33.3-3.2-3.3-17.4 1.2-17.4 1.2-22 7.9-46 22.7-47.6 41.2-.5 5.4 1 15.6 7.7 19.8 4.6 2.9 12.6-17.8 20.5-28.9zm-15.5-19.8C33.5 27.1 50.4 21.7 46.8 21.8c-12.2.4-37.1 10.7-38.2 26.5-.4 5 7.5-8.1 16.2-14.7zM3.1 93.4c-1.4-2.1 4.3-3.3 5.297-5.7 5.1-10-4-5.9-7.9-28.9-7.5-43.4 65.1-43.4 74.7-45.2C84.2 12 75 0 82.1 0c2.3 0 0 6.2 2.3 7.1 2.5 1.1 3.9-5.7 6.4-3.6 3.4 2.9-3.2 5.6-1.4 7.4 1.3 1.3 4.4-1.2 5.4.5 1.8 2.8-3.1 4.6-7.5 5.4-16 2.8 18.3 74.4-37.4 84.3-14.7 2.8-21.5-10.5-32.5-4-2.7 1.6-4.6 7.7-6.3 5.2-1-1.5 1.7-4.1 0-5.1-1.2-.6-2.8 2.3-4 1.2-.9-.9.4-2.4-.5-3.6-.8-1.2-2.6-.1-3.5-1.5l-.1-.1z"/></svg>