<svg xmlns="http://www.w3.org/2000/svg" width="95.169" height="103" fill="none" xmlns:v="https://vecta.io/nano"><path fill-rule="evenodd" d="M41.014 74.092c5.915 1.03 24.867-3.425 31.296-26.526 6.583-23.796 3.24-19.032-15.841 1.159-10.286 10.971-18.413 24.826-15.455 25.367zm16.612 15.04c20.624-7.52 20.367-34.973 17.024-27.324-3.343 7.52-5.555 13.598-12.755 17.795-5.657 3.296-9.669 3.708-16.638 3.554-5.786-.129-11.058-5.022-12.755 2.395-1.8 8.164 17.538 6.335 25.124 3.554zM40.242 53.489c15.841-22.457 39.423-30.492 36.722-33.273-3.215-3.296-17.384 1.185-17.384 1.185-22.038 7.906-46.006 22.714-47.574 41.205-.514 5.408 1.029 15.581 7.741 19.804 4.629 2.91 12.627-17.847 20.496-28.921zm-15.455-19.83C33.53 27.067 50.426 21.658 46.8 21.813c-12.241.386-37.082 10.662-38.24 26.526-.411 5.022 7.458-8.061 16.201-14.679zM3.109 93.381c-1.414-2.086 4.269-3.296 5.297-5.666 5.143-10.044-4.012-5.923-7.869-28.921-7.458-43.445 65.061-43.445 74.73-45.171C84.165 12.027 75.113 0 82.108 0c2.314 0 0 6.206 2.314 7.134 2.469 1.056 3.909-5.666 6.352-3.554 3.369 2.91-3.215 5.563-1.414 7.391 1.286 1.313 4.372-1.159 5.426.541 1.8 2.781-3.086 4.636-7.458 5.408-15.995 2.807 18.284 74.401-37.365 84.29-14.684 2.781-21.524-10.456-32.479-3.966-2.7 1.597-4.629 7.674-6.3 5.15-1.029-1.545 1.697-4.069 0-5.125-1.157-.644-2.829 2.266-3.986 1.21-.9-.927.386-2.395-.514-3.58-.771-1.185-2.572-.129-3.472-1.468l-.077-.077z" fill="#000"/></svg>