<svg xmlns="http://www.w3.org/2000/svg" xmlns:xlink="http://www.w3.org/1999/xlink" fill="none" viewBox="0 0 36.216 36.216"><g fill="#000"><path d="M.416 11.698a4.941 4.941 0 1 0 9.882 0 4.941 4.941 0 1 0-9.882 0zm.128 18.716a4.941 4.941 0 1 0 9.882 0 4.941 4.941 0 1 0-9.882 0z"/><use xlink:href="#B"/><use xlink:href="#B" x="0.307" y="-18.46"/><path d="M13.167 24.518a4.94 4.94 0 1 0 9.882 0 4.94 4.94 0 1 0-9.882 0z"/><use xlink:href="#B" x="12.931" y="12.462"/><use xlink:href="#B" x="12.931" y="-5.896"/><use xlink:href="#B" x="12.931" y="-14.588"/><path d="M24.971 11.698a4.94 4.94 0 1 0 9.882 0 4.94 4.94 0 0 0-9.882 0z"/><use xlink:href="#B" x="24.504" y="-18.409"/><use xlink:href="#B" x="24.76"/><use xlink:href="#B" x="24.862" y="9.358"/></g><defs ><path id="B" d="M2.838 21.056a2.34 2.34 0 0 0 2.34 2.34 2.34 2.34 0 0 0 2.34-2.34 2.34 2.34 0 0 0-2.34-2.34 2.34 2.34 0 0 0-2.34 2.34z"/><path id="C" d="M84.158 25.761l-1.754-.351-.05-4.01v-3.308l.075-3.409-.376-.251-3.86 1.529v.877l2.005.226.075 3.158V21.4l-.05 4.01-1.88.351v.902h5.815z"/></defs></svg>