<svg xmlns="http://www.w3.org/2000/svg" viewBox="0 0 36.216 36.216"><path d="M.416 11.698a4.941 4.941 0 1 0 9.882 0 4.941 4.941 0 1 0-9.882 0zm.128 18.716a4.941 4.941 0 1 0 9.882 0 4.941 4.941 0 1 0-9.882 0z"/><use href="#wandb-B"/><use href="#wandb-B" x="0.307" y="-18.46"/><path d="M13.167 24.518a4.94 4.94 0 1 0 9.882 0 4.94 4.94 0 1 0-9.882 0z"/><use href="#wandb-B" x="12.931" y="12.462"/><use href="#wandb-B" x="12.931" y="-5.896"/><use href="#wandb-B" x="12.931" y="-14.588"/><path d="M24.971 11.698a4.94 4.94 0 1 0 9.882 0 4.94 4.94 0 0 0-9.882 0z"/><use href="#wandb-B" x="24.504" y="-18.409"/><use href="#wandb-B" x="24.76"/><use href="#wandb-B" x="24.862" y="9.358"/><defs><path id="wandb-B" d="M2.838 21.056a2.34 2.34 0 0 0 2.34 2.34 2.34 2.34 0 0 0 2.34-2.34 2.34 2.34 0 0 0-2.34-2.34 2.34 2.34 0 0 0-2.34 2.34z"/></defs></svg>