<svg xmlns="http://www.w3.org/2000/svg" viewBox="0 0 448 512"><path d="m 125,157 c 9.4,-9.3 26.6,-9.3 35.1,0 l 63,63.1 L 287,157 c 9.4,-9.3 26.6,-9.3 35.1,0 10.2,9.4 10.2,26.6 0,35.1 l -62.2,63 62.2,63.9 c 10.2,9.4 10.2,26.6 0,35.1 -8.5,10.2 -25.7,10.2 -35.1,0 l -63.9,-62.2 -63,62.2 c -8.5,10.2 -25.7,10.2 -35.1,0 -9.3,-8.5 -9.3,-25.7 0,-35.1 l 63.1,-63.9 -63.1,-63 c -9.3,-8.5 -9.3,-25.7 0,-35.1 z M 0,96 C 0,60.65 28.65,32 64,32 h 320 c 35.3,0 64,28.65 64,64 v 320 c 0,35.3 -28.7,64 -64,64 H 64 C 28.65,480 0,451.3 0,416 Z m 50,6 v 308 c 0,8.8 11.16,20 20,20 h 308 c 8.8,0 20,-11.2 20,-20 V 102 C 398,93.16 386.8,82 378,82 H 70 c -8.84,0 -20,11.16 -20,20 z"/></svg>