<svg xmlns="http://www.w3.org/2000/svg" viewBox="0 0 448 512"><path d="m 64,32 c -2.21,0 -4.389063,0.110078 -6.539062,0.330078 C 48.250937,33.260078 39.63,36.150547 32,40.560547 c -10.21,5.91 -18.639391,14.549687 -24.275391,24.929687 -3.94,7.26 -6.521131,15.360704 -7.394531,23.970704 C 0.111478,91.610937 0,93.79 0,96 v 320 c 0,35.3 28.65,64 64,64 h 320 c 35.3,0 64,-28.7 64,-64 V 96 C 448,60.65 419.3,32 384,32 Z m 6,50 h 308 c 8.84,0 20,11.2 20,20 v 122 64 122 c 0,8.8 -11.2,20 -20,20 H 70 C 61.16,430 50,418.8 50,410 V 288 224 102 C 50,93.2 61.2,82 70,82 Z"/><path d="M 122.10847,325.12 C 106.9849,325.12 94.72,338.02575 94.72,354 c 0,15.97425 12.2649,28.88 27.38847,28.88 h 205.88475 c 15.14925,0 27.38847,-12.90575 27.38847,-28.88 0,-15.97425 -12.23922,-28.88 -27.38847,-28.88 z"/></svg>