<svg xmlns="http://www.w3.org/2000/svg" viewBox="0 0 512 512"><path d="m 64,32 c -2.21,0 -4.389063,0.110078 -6.539062,0.330078 C 48.250937,33.260078 39.63,36.150547 32,40.560547 c -10.21,5.91 -18.639391,14.549687 -24.2753906,24.929687 -3.94,7.26 -6.5211313,15.360704 -7.39453128,23.970704 C 0.11147812,91.610937 0,93.79 0,96 v 320 c 0,35.3 28.65,64 64,64 h 384 c 35.3,0 64,-28.7 64,-64 V 96 C 512,60.65 483.3,32 448,32 Z m 6,50 h 372 c 8.84,0 20,11.2 20,20 v 122 64 122 c 0,8.8 -11.2,20 -20,20 H 70 C 61.16,430 50,418.8 50,410 V 288 224 102 C 50,93.2 61.2,82 70,82 Z"/><path stroke-width="0.9" d="M 120.10847,329.12 C 104.9849,329.12 92.72,342.02575 92.72,358 c 0,15.97425 12.2649,28.88 27.38847,28.88 h 273.88475 c 15.14925,0 27.38847,-12.90575 27.38847,-28.88 0,-15.97425 -12.23922,-28.88 -27.38847,-28.88 z"/></svg>