<svg xmlns="http://www.w3.org/2000/svg" viewBox="0 0 177.5 171.2"><path d="M100.3.8c9.8-1.3 19.6-.6 29.5-.7 5.2-.1 10.2 3.7 11 8.9 1.5 6.5-4.4 13.3-11 12.8-13.5-.7-27.7-1.4-40.4 3.9-9.5 4-15.4 13.7-17.1 23.6-1.6 5.7-.4 13.4-6.5 16.7-6.6 4.4-16.7-.9-16.5-8.9 1.3-14.8 5.8-30.2 16.6-40.9 9.1-9.3 21.9-13.7 34.6-15.3zm-70.2 6.7c5.7-2 12.3 1.7 13.8 7.5 1.4 5-1.7 9.5-3 14.2-3.9 11.8-7.8 24.7-4.4 37 3.2 10.9 13.4 17.4 23.3 21.6 5.2 1.7 8.7 7.3 7.4 12.7-1.2 6-8 10-13.9 8-12.8-5.4-25.3-13.3-32.6-25.5-6.8-11-8.1-24.6-6.1-37.2 1.5-10.8 5.1-21.1 8.6-31.4 1-3.3 3.7-5.9 7-6.9zm74.2 27.2c15.3-2.9 32.3-1 44.8 8.9 13.5 10.4 20.4 26.7 25.3 42.5 1.3 4.9 4.5 10 2.5 15.2-2 6-9.7 9.1-15.3 5.9-2.9-1.4-4.8-4.2-5.6-7.2-3.2-11.4-6.8-23-13.8-32.7-3.8-5.3-9.3-9.5-15.6-11.2-7.6-2.1-15.7-.9-23.3.7-5.2 1.5-11.4-1.4-13.1-6.6-1.7-4.3-.2-9.3 3.3-12.3 3-2.4 7-2.5 10.6-3.2zm14.8 36.6c4.3-1.3 9.5.1 12.1 4 7.7 12.9 13.5 28.1 10.8 43.4-2.5 16-13.7 28.9-25.9 38.6a375.7 375.7 0 0 1-15.5 11.5c-4.5 3.5-11.7 2.8-15.2-1.7-3.8-4.5-2.9-12.2 1.9-15.5 11.9-8.2 25.1-16.6 31.6-30.1 5.3-11.4.36-24.1-5.7-34.1-3.9-5.6-.7-14.2 5.8-16zM6.8 102.5c3.6-1.6 8-1.1 11.1 1.3 10.5 7.9 21.5 16.1 34.6 19.2 9.7 2.3 19.8-1.6 26.6-8.3 2.9-2.4 5.3-5.3 7.8-8.1 3.9-4.6 11.9-4.5 15.9-0 3.6 3.8 3.9 10.4.4 14.3-8.1 9-17.5 17.6-29.2 21.5-12.8 4.7-27.1 2.9-39.3-2.6-10.8-4.7-20.3-11.5-29.7-18.4-3.1-2.1-4.8-5.8-5.2-9.4.95-3.9 2.8-8 6.8-9.5z"/></svg>