<svg xmlns="http://www.w3.org/2000/svg" width="174.46" height="168.206" viewBox="0 0 177.525 171.162" xmlns:v="https://vecta.io/nano"><path d="M100.26.831c9.76-1.34 19.63-.63 29.45-.74 5.17-.12 10.18 3.69 10.97 8.89 1.49 6.53-4.35 13.32-11.03 12.8-13.51-.72-27.67-1.39-40.44 3.85-9.54 4.01-15.41 13.69-17.11 23.6-1.58 5.71-.43 13.39-6.51 16.71-6.64 4.43-16.7-.88-16.52-8.91 1.29-14.8 5.8-30.16 16.57-40.91 9.13-9.25 21.94-13.76 34.62-15.29zm-70.23 6.74c5.65-1.98 12.33 1.72 13.78 7.5 1.4 4.97-1.69 9.53-2.97 14.16-3.91 11.79-7.82 24.71-4.37 37.08 3.2 10.86 13.4 17.39 23.26 21.58 5.15 1.66 8.67 7.33 7.36 12.69-1.16 6.02-8.06 10.07-13.87 7.95-12.81-5.38-25.32-13.27-32.63-25.45-6.76-11.04-8.11-24.62-6.1-37.22 1.49-10.8 5.1-21.14 8.55-31.44 1.02-3.29 3.72-5.85 6.99-6.85zm74.19 27.23c15.27-2.9 32.25-.95 44.79 8.85 13.45 10.41 20.4 26.7 25.34 42.5 1.33 4.91 4.53 9.99 2.54 15.18-1.99 6.04-9.74 9.09-15.27 5.88-2.86-1.4-4.8-4.17-5.56-7.21-3.2-11.39-6.81-22.96-13.76-32.7-3.75-5.34-9.26-9.51-15.6-11.2-7.64-2.07-15.68-.92-23.28.74-5.16 1.53-11.36-1.38-13.08-6.57-1.7-4.25-.17-9.34 3.26-12.25 2.99-2.43 7-2.54 10.62-3.22zm14.84 36.63c4.34-1.28 9.54.14 12.12 4 7.71 12.94 13.47 28.12 10.82 43.4-2.51 15.96-13.69 28.85-25.91 38.64a375.65 375.65 0 0 1-15.48 11.5c-4.47 3.48-11.67 2.75-15.2-1.74-3.83-4.49-2.93-12.16 1.94-15.54 11.91-8.27 25.09-16.59 31.59-30.1 5.26-11.43.36-24.11-5.71-34.14-3.85-5.61-.69-14.16 5.83-16.02zM6.83 102.491c3.6-1.56 8.02-1.09 11.13 1.34 10.53 7.92 21.53 16.1 34.57 19.19 9.67 2.31 19.78-1.58 26.78-8.29 2.9-2.42 5.32-5.32 7.84-8.11 3.94-4.63 11.88-4.49 15.89-.03 3.59 3.81 3.91 10.37.39 14.32-8.13 9.01-17.49 17.55-29.2 21.48-12.76 4.73-27.1 2.85-39.3-2.64-10.75-4.65-20.28-11.54-29.73-18.35-3.09-2.09-4.8-5.77-5.2-9.38.95-3.87 2.83-8.01 6.83-9.53z"/></svg>