<svg xmlns="http://www.w3.org/2000/svg" viewBox="0 0 0.16976 0.26755">
   <path d="M 0.10612,0.26755 0.10132,0.26092 C 0.1263,0.24201 0.13886,0.21082 0.13886,0.1675 0.13886,0.15382 0.13307,0.14295 0.12136,0.13505 0.10965,0.12729 0.0937,0.12291 0.07352,0.12207 0.05108,0.12122 0.0333,0.11543 0.02004,0.10471 0.00663,0.09398 0,0.07931 0,0.06082 0,0.04784 0.00198,0.03683 0.00593,0.0278 0.00988,0.01863 0.01425,0.01242 0.01877,0.00889 0.02329,0.00551 0.02766,0.00311 0.03175,0.0017 L 0.03754,0 c 0.00113,0.00748 0.00338,0.01355 0.00705,0.01821 0.00367,0.00479 0.00875,0.00804 0.0151,0.01002 0.00649,0.00183 0.01214,0.0031 0.01679,0.00352 0.00466,4.3e-4 0.01129,5.7e-4 0.01962,5.7e-4 0.02963,0 0.04925,0.00592 0.05898,0.01778 0.00974,0.01185 0.01468,0.03697 0.01468,0.07521 0,0.01115 -8.5e-4,0.0223 -0.0024,0.03373 C 0.16567,0.17047 0.16285,0.18345 0.15889,0.19798 0.15508,0.21238 0.14845,0.22592 0.13942,0.23848 0.13025,0.25104 0.11924,0.26064 0.10612,0.26755 Z"/>
</svg>