<?xml version="1.0" encoding="UTF-8" standalone="no"?>
<svg
   xmlns:dc="http://purl.org/dc/elements/1.1/"
   xmlns:cc="http://creativecommons.org/ns#"
   xmlns:rdf="http://www.w3.org/1999/02/22-rdf-syntax-ns#"
   xmlns:svg="http://www.w3.org/2000/svg"
   xmlns="http://www.w3.org/2000/svg"
   id="svg4"
   version="1.1"
   height="65.295715"
   width="67.48143">
  <metadata
     id="metadata10">
    <rdf:RDF>
      <cc:Work
         rdf:about="">
        <dc:format>image/svg+xml</dc:format>
        <dc:type
           rdf:resource="http://purl.org/dc/dcmitype/StillImage" />
        <dc:title></dc:title>
      </cc:Work>
    </rdf:RDF>
  </metadata>
  <defs
     id="defs8" />
  <path
     style="fill:#000000;fill-opacity:1"
     id="path2"
     d="M 31.195142,0.1185711 C 10.890143,1.4715711 0,12.146571 0,32.794571 c 0,20.648 10.830856,31.088857 31.135856,32.441857 l -0.118571,-5.043857 c -13.967999,-1.326 -24.8939995,-13.084 -24.8939995,-27.398 0,-14.314 11.0445705,-26.2508571 25.0125705,-27.5758571 z M 36.108428,0 36.286285,5.3955709 c 13.966,1.327 24.894,13.0850001 24.894,27.3980001 0,14.313 -10.928,26.072 -24.894,27.399 l 0.05929,5.103143 c 20.302996,-1.355 31.135853,-11.795857 31.135853,-32.441857 0,-20.646 -11.07,-31.4988572 -31.373,-32.853857 z m -2.458143,9.6195709 c -12.793,0 -23.171,10.3820001 -23.171,23.1750001 0,12.793 10.378,23.175 23.171,23.175 12.793,0 23.175,-10.382 23.175,-23.175 0,-12.793 -10.381999,-23.1750001 -23.175,-23.1750001 z m 0,0.9910001 0.019,9.597 h -13.643 v 0.743 h 13.643 v 4.243 H 21.969286 v 0.743 h 11.699999 v 4.239 h -6.496 v 0.743 h 6.496 v 4.243 h -13.566 v 0.743 h 13.566 v 9.226 h -2.167999 v 0.743 h 2.167999 v 9.102 c -12.275999,0 -22.198999,-9.927 -22.198999,-22.184 0,-12.257 9.922999,-22.184 22.18,-22.184 z m 0.639,0.012 c 11.961,0.338 21.545,10.129 21.545,22.172 0,12.043 -9.584,21.834 -21.545,22.172 v -9.09 h 2.091 v -0.743 h -2.091 v -9.226 h 0.867 v -0.743 h -0.867 v -4.243 h 6.202 v -0.743 h -6.202 v -9.226 h 0.159 v -0.743 h -0.159 v -9.586 z m -5.947,4.603 v 0.743 h 3.848 v -0.743 z m -9.23,24.925 v 0.743 h 11.556 v -0.743 z m 10.778,8.494 -2.063,2.063 2.063,2.067 2.067,-2.067 z" />
</svg>
