<?xml version="1.0" encoding="UTF-8"?>
<!DOCTYPE html PUBLIC "-//W3C//DTD XHTML 1.0 Transitional//EN" "http://www.w3.org/TR/xhtml1/DTD/xhtml1-transitional.dtd">
<svg xmlns="http://www.w3.org/2000/svg" xmlns:xlink="http://www.w3.org/1999/xlink" width="394.55472" height="464.4407">
	<g id="g16" transform="translate(-216.94065,-66.3)">
		<g id="g6">
			<path d="m 602.7,284.5 c -7.3,-20.2 -19.5,-38 -38.1,-48.5 -21.2,-12 -48.5,-12.1 -69.8,-0.3 14.1,-14.8 24.4,-34.4 27.4,-54.7 3.3,-22.3 0.3,-48.6 11.9,-65.2 17.3,-24.8 57.5,-24.5 74.4,-49.5 -17.8,2.5 -38.2,2.7 -53.3,3.6 -21.7,1.3 -40.1,4.8 -50.1,19.8 -11.4,17.1 -9.1,39.4 -9.8,59.9 -1.4,40 -16,77.2 -45.4,104 5.1,7.1 10.2,14.1 15.3,21.2 14.9,-8.5 30.1,-17.2 46.9,-20.7 16.8,-3.5 35.7,-1.2 48.5,10.2 11.9,10.6 16.7,27.1 19,42.8 8,54.2 -9.2,114.2 -52.5,147.8 -23.9,18.5 -53.8,27.9 -83.8,31.2 -25.6,2.8 -52.5,1.2 -75.4,-10.5 -22.7,-11.5 -40,-32.1 -51.1,-55 -11.1,-22.9 -16.7,-48.1 -20.5,-73.3 -10.4,-69 -7.7,-142.5 24.5,-204.4 7.6,-14.6 20.2,-30.2 36.5,-28.6 12.8,1.2 21.6,12.1 29,22.7 -14.8,15.9 -33.7,30 -35.6,50.1 -1,10.2 2.3,20.2 5.4,30 12.6,39.6 25.3,79.1 37.9,118.7 6.1,19.1 12.3,39.5 7.5,59 -3.9,16.1 -15.6,30.2 -30.7,37 19.7,-2.6 39.6,-6.3 57.2,-15.4 17.7,-9.1 33,-24.3 38.2,-43.5 4,-14.8 1.8,-30.5 -1.6,-45.4 -8.7,-38.1 -24.9,-74 -37.9,-110.9 -8.6,-24.3 -15.7,-51.5 -5.8,-75.3 5,-12.1 14,-22.1 21.2,-33 7.2,-10.9 12.8,-24.2 9.8,-37 -15.3,15.3 -30.6,30.7 -45.9,46 -12.8,-18 -31.8,-32.7 -53.7,-35.9 -19.2,-2.8 -39,3.7 -55,14.8 -15.9,11.1 -28.3,26.7 -38.6,43.2 -44.7,71.9 -50.5,163 -31.6,245.6 7.9,34.7 20.6,69.7 45.2,95.5 29.6,31.1 73.3,45.2 116,49.1 40.2,3.6 81.9,-1 118.4,-18.4 36.9,-17.5 67.6,-48 85.5,-84.8 14.4,-29.7 20.5,-63.1 19.1,-96.1 -0.7,-15.4 -3.4,-31.2 -8.6,-45.8 z" id="path4"/>
		</g>
		<g id="g10">
			<path class="st0" d="M 255.8,176.5" id="path8" style="fill:#ffffff;stroke:#000000;stroke-width:0.25;stroke-miterlimit:10"/>
		</g>
		<g id="g14">
			<path class="st0" d="M 341.5,91.8" id="path12" style="fill:#ffffff;stroke:#000000;stroke-width:0.25;stroke-miterlimit:10"/>
		</g>
	</g>
<head xmlns=""/></svg>