<svg xmlns="http://www.w3.org/2000/svg">
	<use href="#logo-unifrakturmaguntia-lowercase-h" />
	<symbol id="logo-unifrakturmaguntia-lowercase-h" viewBox="-10 0 988 2048">
		<path d="M35 289q0-19 21-19 23 0 103 123 11 17 21.5 17 10.5 0 19.5-15 134-205 368-205 38 0 38 22.5 0 22.5-38 22.5-203 0-203 254v246q0 17 6.5 17 6.5 0 13.5-5l221-163q23-17 35.5-17 12.5 0 12.5 18 0 26 55 79 201 195 201 500 0 399-649 860-11 9-27 9-16 0-16-21 0-11 13-22 477-403 477-714.5Q708 964 559 801q-44-48-75.5-48-31.5 0-49.5 13l-53 39q-16 12-16 34v533q0 72 69 72 26 0 72-49 13-14 23-14 23 0 23 21 0 9-12 23-104 122-153 219-7 14-18 14-11 0-24-14-128-137-243-151-17-2-17-14 0-12 11-18 66-36 66-115V630q0-198-116-314-11-11-11-27z"/>
	</symbol>
</svg>