<svg xmlns="http://www.w3.org/2000/svg">
	<use href="#logo-unifrakturmaguntia-lowercase-h" />
	<symbol id="logo-unifrakturmaguntia-lowercase-h" viewBox="-10 0 875 1843">
		<path d="m -10,99 q 0,-19 21,-19 23,0 103,123 11,17 21.5,17 Q 146,220 155,205 289,0 523,0 561,0 561,22.5 561,45 523,45 320,45 320,299 v 246 q 0,17 6.5,17 6.5,0 13.5,-5 L 561,394 q 23,-17 35.5,-17 12.5,0 12.5,18 0,26 55,79 201,195 201,500 0,399 -649,860 -11,9 -27,9 -16,0 -16,-21 0,-11 13,-22 Q 663,1397 663,1085.5 663,774 514,611 470,563 438.5,563 407,563 389,576 l -53,39 q -16,12 -16,34 v 533 q 0,72 69,72 26,0 72,-49 13,-14 23,-14 23,0 23,21 0,9 -12,23 -104,122 -153,219 -7,14 -18,14 -11,0 -24,-14 -128,-137 -243,-151 -17,-2 -17,-14 0,-12 11,-18 66,-36 66,-115 V 440 Q 117,242 1,126 -10,115 -10,99 Z"/>
	</symbol>
</svg>