<svg xmlns="http://www.w3.org/2000/svg" xmlns:v="https://vecta.io/nano" viewBox="48 60 492 612"><!--oldViewBox="0 0 580 752"--><style>.B{fill:#f0eff0}.C{fill:#f0eef1}.D{fill:#e6e6e7}.E{fill:#cbcbcc}.F{fill:#eaeaea}.G{fill:#181818}.H{fill:#1c1c1d}.I{fill:#0c0c0d}.J{fill:#fff}.K{fill:#1d1c1d}.L{fill:#acacad}.M{fill:#d0d0d0}.N{fill:#242324}.O{fill:#515154}.P{fill:#404141}</style><path d="M191 467c0 1 1 1 1 1v2l-3-2 2-1z" class="G"></path><path d="M155 406c1-1 2-1 3-2l1 2-3 1h-1v-1z" class="K"></path><path d="M134 581l4 2h-1v2h-1l-1-1s-1-1-2-1l1-2zm43 0h0c-1 1-2 2-3 2h-2l-2-1s1-1 1-2l5 1h1z" class="B"></path><path d="M266 619c1 2 2 4 2 6 0 1 0 2-1 2v-2h0l-1 1-3-3h0c1 0 2 0 2 1l1-1v-1c0-1-1-2 0-3z" class="G"></path><path d="M125 568l5 6-2 1-4-5c0-1 1-1 1-2z" class="N"></path><path d="M270 611c2 1 3 2 4 3l1 1-1 1c-1 0-3 0-4-1h0v-2-2z" class="G"></path><path d="M128 403h0c1-2 1-4 2-6l2 7c-1 1-2 1-3 1-1-1-1-1-1-2z"></path><path d="M150 580c4 1 8 4 12 5 1 0 2 0 3 1-5 0-11-2-15-4h2 2c-2 0-3-1-3-2h-1z" class="N"></path><path d="M152 359c-2 1-4 1-7 2h0c2-2 5-7 8-8l-2 2c0 1-1 1-1 2 1 1 2 1 2 2z"></path><path d="M134 539c2 3 5 6 7 8-3 0-6-1-7-4l-1-1c1-1 1-2 1-3z" class="H"></path><path d="M177 573c4 0 6 1 8 2s4 1 5 2l-6-1h-3l-4-1c1-1 0-2 0-2z" class="N"></path><path d="M128 408l-3-5c-1-3-1-6 0-9v6l3 3h0c0 1 0 1 1 2v1c0 1 0 1-1 2z" class="I"></path><path d="M132 404c0 1 1 2 2 3 1 0 2 1 3 1 0 0 2 1 2 2h-1l1 1s-1 0-1 1c-4-2-6-4-9-7 1 0 2 0 3-1z" class="H"></path><path d="M130 574c2 2 5 4 6 6l3 3h-1l-4-2c-2-2-4-3-6-6l2-1z" class="P"></path><path d="M177 495c1 2 2 5 2 7 1 1 1 2 1 2l-1 2s-1 0-1-1v1h-1c0-4-1-7-2-10h2v-1zm78 118c4 0 8 3 11 6-1 1 0 2 0 3v1-1c-2-2-3-2-5-3 0-1-1-3-2-3-1-1-2 0-2 0-1-1-1-2-2-2v-1z" class="H"></path><path d="M154 569c6 4 11 9 18 11h1l4 1h-1l-5-1c-3-1-7-3-10-4-3-2-7-4-10-6l2-1c1 1 1 1 2 1-1 0-1-1-1-1z" class="I"></path><defs><linearGradient id="A" gradientUnits="userSpaceOnUse" x1="133.476" y1="410.608" x2="132.258" y2="414.207"><stop offset="0" stop-color="#251e1f"></stop><stop offset="1" stop-color="#2d3231"></stop></linearGradient></defs><path fill="url(#A)" d="M129 406c1 2 2 4 4 6s7 4 8 8h-1v1c-2-4-6-5-9-8-1-2-2-3-3-5 1-1 1-1 1-2z"></path><path d="M281 585h1v6l-7-2-4-1c2-1 7-2 10-3zm-56-128c0-6 0-9-5-14h0v-1c6 4 7 9 10 15l3 9v3h0v-1c-1-3-2-6-4-9 0-1 0-2-1-3v2c-1-1-1-2-1-3s0-1-1-1v3h-1zm-90 110l2 3 1 1 1 1c0 1 1 2 3 3h0c2 1 3 3 5 2l3 3h0 1c0 1 1 2 3 2h-2-2c-1 0-2-1-3-2l-6-3v-1-1c-2-1-5-5-7-7l1-1z" class="H"></path><path d="M121 567c4 5 7 12 12 16 1 0 2 1 2 1-6-2-13-10-16-16h1l1-1z" class="K"></path><path d="M335 84c3-4 5-6 9-8 0 1-5 9-6 9h0 0c-1 1-1 2-2 2v-1 1c-2 1-2 2-3 4h-1v-1c1-1 1-2 2-3 0 0 0-1 1-1v-1-1z" class="I"></path><path d="M148 573c6 6 12 8 19 11h0c-2 0-5-1-8-2-5-2-10-4-15-8 1 0 2 0 4-1z" class="K"></path><path d="M121 567c-2-4-5-9-6-14 2 4 5 9 6 13 1 1 2 2 3 4l4 5c2 3 4 4 6 6l-1 2c-5-4-8-11-12-16z" class="F"></path><path d="M251 611c6-3 13-2 19 0v2 2h0l-2-1c-3-1-5-2-8-3h0c-3-1-6-1-8 0h-1z" class="N"></path><path d="M268 614v-2h1l1 1v2h0l-2-1z" class="H"></path><path d="M129 405c3 3 5 5 9 7 0 1 2 2 3 3v2s1 1 1 2v4h-1v-3c-1-4-6-6-8-8s-3-4-4-6v-1z" class="F"></path><path d="M169 353h1c-2 1-5 1-7 2-3 1-5 2-8 4h1c2 0 3 2 5 3 1 0 2 1 2 2v2c0-1-1-1-1-2-2 0-4-3-5-3-1-1-2-1-3-1l-1 2h0l-1-3c0-1-1-1-2-2 5-2 9-3 13-3 2-1 4-1 6-1z" class="G"></path><path d="M129 566h2v-2l-2-3v-1h1c0 1 1 2 1 3 1 1 2 2 2 3l2 1-1 1c2 2 5 6 7 7v1 1l-1-1h0c1 2 2 4 4 5 1 1 2 1 3 2-4 0-7-4-9-7-3-3-6-6-9-10z" class="K"></path><path d="M158 462h4c0 1 1 1 2 1v-1c10 3 18 7 26 13a30.44 30.44 0 0 1 8 8c-1 0-2 0-2-1 0 2 2 4 2 7-1-3-3-5-4-8l-2-2c0-1-3-3-4-4s-1-2-2-2l-6-3c-2-2-4-3-7-4-2 0-3-1-5-2h-1 0l-1 1c-1 0-3 0-5-1-1 0-2-1-3-2h0z" class="G"></path><path d="M148 389v-2c2-4 0-7-1-11 0-2 1-3 2-4 1 0 2 0 3 1 0 0 0 1 1 1 0 2-1 4-1 5 0 3 1 6 1 8h-3c0 1 0 1-1 2h0-1z" class="K"></path><path d="M149 374h1l1 1v3 4l-1-1-2-5v-1c1 1 1 1 2 1 0-1-1-1-1-2z" class="E"></path><path d="M151 408h2l-1 1v1s0 1-1 1c-1 2-4 4-5 7-1 2-2 4-4 6-1 0-2-1-3-2h0 1v-1-1h1v3h1v-4c0-1-1-2-1-2v-2c-1-1-3-2-3-3s1-1 1-1l-1-1h1 2v1h0-1c0 1 0 1 1 1 0 1 0 1 1 1 0 1 0 2 1 3h2l1-1v-2h-1v-1c1 0 2-2 2-3 2 0 2 0 4-1z" class="K"></path><path d="M195 646h0v-1l1 1h1c0 2 1 4 1 5 2 3 3 4 2 8l1 1 1-1v-1-1c1-2 1-4 1-6l1-2c2 5-1 11-2 16-1-2-3-4-4-6-3-4-3-8-3-13z"></path><path d="M196 646h1c0 2 1 4 1 5 2 3 3 4 2 8l-1-1c-3-3-3-8-3-12z" class="D"></path><path d="M195 646c0-3 0-7-2-10-1-1-2-2-2-3 1 0 3 2 4 4 2 1 3 3 4 5 2 2 4 4 5 7l-1 2c0 2 0 4-1 6v1 1l-1 1-1-1c1-4 0-5-2-8 0-1-1-3-1-5h-1l-1-1v1h0z" class="G"></path><path d="M202 658c0-6-4-10-6-15h1l6 8c0 2 0 4-1 6v1z" class="B"></path><path d="M152 396l1 1h1 2 1c0 1-1 2-2 3h1c-1 1-1 2-1 3v3h0v1h1l-5 4c1 0 1-1 1-1v-1l1-1h-2c-2 1-2 1-4 1 0 1-1 3-2 3h0c0-1-1-3 0-4 0 0 1-2 1-3v-1c1-1 1-2 2-2 2-2 3-4 4-6z" class="C"></path><path d="M147 409c2-3 4-5 6-7 0 1 0 1 1 1l-3 5c-2 1-2 1-4 1z" class="G"></path><path d="M155 400h1c-1 1-1 2-1 3v3h0v1h1l-5 4c1 0 1-1 1-1v-1l1-1h-2l3-5c-1 0-1 0-1-1l2-2z" class="H"></path><path d="M154 403v3l-1 2h-2l3-5zm113 224h0c0 1 0 1-1 2-5-2-7-5-9-9-1-2-1-3-3-5-5-4-15-1-21-1 2-1 4-1 6-2l7-2c2 0 4 0 5 1h1c1 1 2 1 3 2v1c1 0 1 1 2 2 0 0 1-1 2 0 1 0 2 2 2 3 2 1 3 1 5 3v1l-1 1c0-1-1-1-2-1h0l3 3 1-1h0v2z"></path><path d="M266 626v1c-3-1-5-3-6-5-1-1-2-2-2-4 1 0 2 1 3 1 2 1 3 1 5 3v1l-1 1c0-1-1-1-2-1h0l3 3z" class="B"></path><path d="M204 611c5-2 9-5 14-7 6-2 13-4 19-7 3-1 5-2 8-3s7-1 10-1l-10 3c-2 0-3 0-4 1-4 2-7 4-10 6-2 0-3 1-5 1l-14 6-9 3h0s-1 0-1-1c0 0 1-1 2-1z" class="G"></path><path d="M85 636c4 3 7 7 9 12 2 3 1 7 0 11-1 0-2 1-3 1-7-4-4-13-4-19-1-2-1-4-2-5z"></path><path d="M90 646l4 4c-1 3 0 5-2 7h-1c-2-2-3-3-3-6v-3h1c0 3 0 4 2 7l1-1v-3s-1 0-1-1c-1-1-1-3-1-4h0z" class="B"></path><path d="M57 607l3 4c5 8 6 16 6 24 1 3 1 5 1 7 0 3-2 7-3 10v1c0-6-3-10-4-15 0-3 1-6 2-9 2-8-2-15-5-22z"></path><path d="M162 364c0 1 1 1 1 2l2 14-1-1h0l-1 1h0v1c-1 0-2 0-3 1h0-1v1c1 1 5 7 5 8l-1 1v1h-1c-1-1-2-1-2-3h0-1l-1 2h0c0-4-1-8-1-13 0-4 0-11 4-15h0 1z" class="K"></path><path d="M159 383c1 1 5 7 5 8l-1 1-4-4c0-2-1-4 0-5z" class="M"></path><path d="M160 382c-1-1-1-2-1-3s0-4 1-5l1-1v-1c-1 0-1 0-2-1 1 0 1-1 1-2v-1c0-1 1-2 2-2h0c0 1-1 2 0 3h0l1 11v1c-1 0-2 0-3 1z" class="C"></path><path d="M236 620c3 0 7 0 10 2s3 5 4 9c-3-1-6-1-9-1-2-1-3-2-4-2-2-2-4-2-6-3s-4-2-6-2c4-1 7-2 11-3z"></path><path d="M240 624h2l2 2h-1-2 0c2 1 3 1 5 0 1 1 1 1 1 2v1h-3c-2-1-3-1-4-2v-3z" class="C"></path><path d="M236 621c2 0 5 0 7 1 2 0 3 2 3 3v1l-1-1c-1-1-2-2-3-2-2-1-7 1-9-1 1 0 2 0 3-1z" class="B"></path><path d="M104 643h1c1 0 2 1 3 2 5 3 8 7 11 12 1 1 2 3 2 5 1 1 0 4 0 5l-1 10-1 1h0c0-6-5-11-6-16-1-3 0-5 0-8 0-5-6-8-9-11z"></path><path d="M117 659h1c1 1 1 2 2 4 0 1 0 2-1 3-1-1-1-2-1-3v1h-1v-1-4z" class="C"></path><path d="M114 657c1 0 1 2 1 2l3 8h1l-1 2-2-4c-2-2-3-5-2-8z" class="J"></path><path d="M264 595c3-1 6-1 9-1h0c3 1 5 3 7 5 1 2 2 3 3 5h-1c-1 0-2-1-3-1-4 0-9 1-12 2-4 0-8 1-12 2 0 0-3 1-3 0 5-2 10-3 15-4l-1-1h-3c-3 1-5 0-7-2 3-2 5-4 8-5z" class="I"></path><path d="M266 602c3-1 7-3 10-1h0l-6 1c-1 1-2 1-3 1l-1-1z" class="C"></path><path d="M262 598c2 0 4 0 5 2 0 0-1 0-2 1-2 0-4 0-6-1 0-1 2-2 3-2z" class="B"></path><path d="M265 596c2-1 5-1 7 0 1 0 1 1 1 1-2 0-4 0-6-1v1h2 0c1 1 2 1 3 2h-1c-1 1-2 1-3 0s-3-2-3-3z" class="E"></path><path d="M264 595c3-1 6-1 9-1h0c3 1 5 3 7 5-2 0-3 0-5-1l-2-1s0-1-1-1c-2-1-5-1-7 0l-1-1z" class="H"></path><path d="M234 484h1c-1 4-2 8-4 12l-5 11c-1 3-2 5-4 7s-5 3-7 4c2-2 3-4 5-6v-1c0-2 0-4-1-6 0-5-1-9 1-14 1-1 1-2 2-2s1 0 1 1c3 2 4 6 4 9 3-5 5-9 7-15z" class="I"></path><path d="M221 494h1v5c1 1 1 1 1 2l-1 1h0c-1-3-2-5-1-8z" class="D"></path><path d="M221 494c0-1 0-3 1-4 1 1 2 2 2 3 0 3 0 5-1 8 0-1 0-1-1-2v-5h-1z" class="F"></path><path d="M145 643l18 1c6 1 12 3 16 8 1 2 4 5 3 8-1 0-3 0-4-1-3-1-7-2-10-4-4-2-7-5-11-7-3-2-8-3-12-5z"></path><path d="M164 646c4 1 9 3 12 6 2 1 4 3 4 6-4 0-10-3-13-6 0-2-2-4-3-6z" class="B"></path><path d="M157 413c5-5 9-4 15-5l10-2c2 1 3 1 5 1h0c1 0 2 0 3 1h-5c-4 1-10 5-13 8l3-5h-2c-1 1-2 3-2 5-1 1-1 3-2 5l-2-2v-2c-2 0-3 0-5 1-3 1-6 3-9 4-1 0-1 1-2 1h-2v1l-1-1 1-1c0-1 1-2 1-3h1c0-1 3-5 4-5s1-1 2-1z" class="I"></path><path d="M157 413c3-2 5-3 8-3l1 1c0 1 0 1-1 1-1 1-3 2-5 3s-4 2-5 4c-1 0-2 1-2 2v1c-1 0-1 1-2 1h-2v1l-1-1 1-1c0-1 1-2 1-3h1c0-1 3-5 4-5s1-1 2-1z" class="C"></path><path d="M234 500c1 4 1 7 3 10 1 1 1 3 1 5 1 4 1 7 0 12-2-1-3-1-5 0-1 0-3 1-5 0v-1c1-3 3-5 5-7-3 2-5 4-9 4-1 1-3 0-4-1-1 0-1-1-2-2 2-2 6-3 8-4 5-4 7-10 8-16z"></path><path d="M234 507h0v1c1 2 1 5 0 7h0-1c-1-3-1-5 1-8z" class="L"></path><path d="M197 631h0c3 0 8 0 11 1 7 0 16 0 22 3 2 2 5 5 5 7 1 1 1 2 0 3h-1c-8 2-13-6-19-10-4-2-12-3-16-3 3 1 6 2 8 4 3 2 6 5 7 9 0 1 0 2-1 4-5-1-6-9-8-12-2-2-6-4-8-6z"></path><path d="M223 636h0c4 0 7 1 9 3 1 1 2 3 2 4l-1 1h-3c-1-1-3-2-3-2l-5-3-2-2v-1c2 0 2 1 3 1 1 2 5 4 7 5v-1l-7-5h0z" class="B"></path><path d="M155 656c2 1 3 1 4 2 5 4 6 9 6 14-2-1-4-1-7-2-1-1-3-2-5-4-1-1-3-2-5-4-2-3-4-6-7-8s-8-4-12-5c2 3 4 5 7 7 1 2 2 4 2 6-1 0-1 1-2 1-5 1-6-6-8-9 0-2-1-3-3-4-2-3-6-4-9-6 4 1 7 2 11 3 7 1 13 4 19 7l9 2z"></path><path d="M154 663c3 1 6 1 8 3 1 1 1 2 1 3h-1c-4-1-6-3-8-6z" class="J"></path><path d="M146 654l9 2-1 2h-2c-1 0-1 0 0 1l-1 2h0l-2-2c0-1 0-1-1-2 0-1-2-3-2-3z" class="K"></path><path d="M152 659c-1-1-1-1 0-1h2c4 1 6 3 8 6-3-1-9-2-10-5h0z" class="D"></path><path d="M225 457h1v-3c1 0 1 0 1 1s0 2 1 3v-2c1 1 1 2 1 3 2 3 3 6 4 9v1h0c1 5 0 11-3 16 0 0-1 1-2 1-2 1-5-1-8-1-1 0-2 0-4 1-2 3-2 5-1 8 0 6 2 14 0 20h0c0-5 0-9-1-14-1-1-1-3-1-3-1-5-3-11-1-16 1-1 2-3 2-5 1 2-1 6-2 8h1l1-2c0-1 1-1 2-2l-3 8c1-2 2-3 3-5s3-3 4-5v-1c1-2 2-4 2-7 2-4 3-8 3-13z"></path><g class="B"><path d="M228 458v-2c1 1 1 2 1 3 2 3 3 6 4 9v1c-1 4-2 9-5 12h-1c2-4 3-9 2-13h0v-1c1-2 1-5 0-7-1-1-1-1-1-2z"></path><path d="M227 460h1s1 2 1 3v5c-1 1-1 3-1 4 0 3-1 6-3 8h0c1-3 1-5 2-7v-2c-2 0-1 3-2 4 0 2-1 3-1 4 0-4 0-8 1-11s2-6 2-8z"></path></g><path d="M136 379c2-4 3-7 3-11l-3 1-1-1c2-1 3-2 4-2l1 1c1 0 2-1 2-1h3v2c-1 1-1 1-1 2 1 0 1-1 2 0l-3 3h-1v-2l-1 1h0v1h0c-2 2-4 4-4 6 1 1 2 0 3 1 3 1 6 5 6 9h1 1 1 0c1-1 1-1 1-2h3c0 3 1 6-1 9-1 2-2 4-4 6-1 0-1 1-2 2v1c0 1-1 3-1 3-1 1 0 3 0 4h0v1h1v2l-1 1h-2c-1-1-1-2-1-3-1 0-1 0-1-1-1 0-1 0-1-1h1 0v-1c-2-5-4-10-3-15v-1c-1-4 1-9-2-13v1c-1 1-1 3-2 5l-2 10c-2-2-4-6-4-9 0-4 1-11 3-14 1-1 1-1 2-1l1 1v2 3h2z"></path><path d="M136 379c0 2-2 5-3 7 0-2 0-4-1-5v-1h1 0 1c-1-2-1-3 0-4v3h2z" class="C"></path><path d="M139 401c0-3 0-5 1-8v-10c1 2 1 4 2 5 0-1 0-3-1-5 0 0-1 0-1-1h1 0c3 1 4 5 5 7h0 1v1 5l1 1s0 1 1 2h-1c-1 0-1 0-1-1v1c-1 1-1 2-2 4l-1 1c-1-3-2-6-2-10l-1 1 1 4c-1 1-1 2-1 2 0 1-1 1-2 1z" class="D"></path><path d="M148 389h1 0c1-1 1-1 1-2h3c0 3 1 6-1 9-1 2-2 4-4 6-1 0-1 1-2 2v1c0 1-1 3-1 3-1 1 0 3 0 4l-2-1v-1h-1 0l-2-6-1-3c1 0 2 0 2-1 0 0 0-1 1-2l-1-4 1-1c0 4 1 7 2 10l1-1c1-2 1-3 2-4v-1c0 1 0 1 1 1h1c-1-1-1-2-1-2l-1-1v-5-1h1z"></path><path d="M143 401h0c0 2-1 4 0 5h1c1-1 1-1 2-1 0 1-1 3-1 3-1 1 0 3 0 4l-2-1v-1h-1l1-9z" class="K"></path><path d="M139 401c1 0 2 0 2-1 0 0 0-1 1-2v1l1 2-1 9h0l-2-6-1-3z" class="F"></path><path d="M139 401c1 0 2 0 2-1 0 0 0-1 1-2v1 4l-2 1-1-3z" class="C"></path><path d="M195 434c1 0 3-1 5-1 1 0 0 1 2 0h-1v-1c1 0 2 0 3 1h1c2 2 5 2 7 4l2-1 2 4c3 3 5 8 5 12h0c0-2-1-4-2-6 0 3 1 6 2 8 0 3 0 6-1 9-1-3 0-8-3-10-1-1-3-2-4-2l-1 1h1v2c1 1 1 1 1 2s0 1 1 1c2 4 1 11 0 15-1 2-4 4-4 6 1 2 0 2 1 3-2 5 0 11 1 16l-2-1v-1c0-1-1-2-1-3 0 0-2-4-2-5-3-4-6-8-9-11-1 0-1-1-2-2l-5-4v-2s-1 0-1-1c-1 0-1 0-2-2h2c-1-1-1-1-2-1l-4-3-1-1c-1-1-1 0-1-1l-2-2v-1h-1l-1 1c-1-2-2-4-2-6h-1c0-1 0-1 1-2l2-2 3 2v-1h2c2 1 3 2 5 3-1-2-2-2-3-3l4 1h0l-1-1v-1c-1-1-1-1-1-3h0c1-1 1-2 2-2 0 0 0-1 1-1l-1-1v-2h0s0-1 1-1h1l1-1-1-1 2-2 1 1z"></path><path d="M199 453l-1-2c0-1 1-1 1-2h3 0v3l-1-1-2 2z" class="L"></path><path d="M199 453l2-2 1 1c1 2 2 4 2 7-2-2-3-4-5-6z" class="D"></path><path d="M197 458c3 3 5 8 4 12-1-3-3-6-3-8-1-1-1-2-2-3h0l1-1zm-9-14c1-1 1-2 2-2 1 2 2 4 4 5v1l-1 1s-1 0-2-1h0l-2-1c-1-1-1-1-1-3h0z" class="E"></path><path d="M188 444c2 1 3 2 4 3 0 1 0 1-1 1l-2-1c-1-1-1-1-1-3h0z" class="C"></path><path d="M203 438c1 1 2 1 3 1s2 1 3 1l1 3c1 1 2 3 2 4l-4-4h0-2 0s0-1-1-2-1-1-3-2h-1l2-1z" class="E"></path><path d="M192 468l1 1h1v-2l2 2c1 2 3 5 5 6v1h0-2c-1 0-1-1-2-2l-5-4v-2z" class="H"></path><path d="M207 452c2 1 4 2 5 5 0 2 1 3 1 6l-1 1c-1-1-3-5-3-6v-1-1c-1-1-1-2-2-3v-1z" class="B"></path><path d="M189 448v-1l2 1h0c1 1 1 2 1 3s1 2 2 3c0 0 1 0 1 1 1 0 2 2 2 3h0l-1 1c-1-1-2-3-3-4 0 0 0-1-1-1 0-1-1-1-1-2l-1 1c0-1-1-1-1-2-1-2-2-2-3-3l4 1h0l-1-1z" class="L"></path><path d="M182 449v-1h2c2 1 3 2 5 3 0 1 1 1 1 2v1c0-1-1-1-2-2 0 1 0 1 1 1 1 1 2 2 2 3 1 1 1 2 1 3 0 0-1-1-1-2-2-2-4-4-6-5h0c-1-1-3-2-3-3z" class="E"></path><path d="M193 436h0c1 0 1 1 2 1 0 0 1 0 1-1 2 1 5 1 7 2l-2 1c-1 0-2-1-3-1l-2 1v1l-3-1-2-1h0c1 2 1 2 1 4v1l-1-2-1-1v-2h0s0-1 1-1h1l1-1z" class="M"></path><path d="M177 451h1 1v1c1 1 2 3 3 3l1 1c3 3 5 6 9 7v1h-1 0l-2-2c-2 0-2-1-4-1l-1-1c-1-1-1 0-1-1l-2-2v-1h-1l-1 1c-1-2-2-4-2-6z" class="E"></path><path d="M192 435l2-2 1 1v1h4c2 0 3 1 5 1s4 1 5 2h1c0 1 1 1 1 2l-1 1h0c0-1 0-1-1-1h0c-1 0-2-1-3-1s-2 0-3-1c-2-1-5-1-7-2 0 1-1 1-1 1-1 0-1-1-2-1h0l-1-1z" class="H"></path><path d="M207 453c0 1 1 2 1 3v1c-1 1 2 4 2 6v6c-1-2-4-8-4-10 0-3-1-6-2-9h1l1 1c0-1-1-2 0-2h1v3h0v1z" class="D"></path><path d="M195 434c1 0 3-1 5-1 1 0 0 1 2 0h-1v-1c1 0 2 0 3 1h1c2 2 5 2 7 4l2-1 2 4c0 1 0 1-1 2v1c-1-2-4-6-6-7-1-1-2-1-3-2-1 0-2-1-2-1h-1c1 2 5 3 7 5h0-1c-1-1-3-2-5-2s-3-1-5-1h-4v-1z" class="E"></path><path d="M214 436l2 4c0 1 0 1-1 2-1-1-2-3-3-5l2-1z" class="G"></path><path d="M179 447l3 2c0 1 2 2 3 3h0c1 2 4 4 6 7 0 1 1 2 1 2v1c-2 0-4-3-6-5 0 0-1-1-2-1h-1l-1-1c-1 0-2-2-3-3v-1h-1-1-1c0-1 0-1 1-2l2-2z" class="L"></path><path d="M179 447l3 2v1l1 1s0 1-1 1v1c-2 0-2-1-3-2h-1-1-1c0-1 0-1 1-2l2-2z" class="M"></path><path d="M198 438c1 0 2 1 3 1h1c2 1 2 1 3 2s1 2 1 2h0c1 1 1 2 1 3l-1 1v-1-1h-2l-5-1c-2 0-4 0-6-3h0v-2l3 1v-1l2-1z" class="H"></path><path d="M202 439c2 1 2 1 3 2-1 1-1 1-2 1-1-1-1-2-1-3z" class="G"></path><path d="M196 440v-1l2-1 2 2v1c-2 0-3 0-4-1z" class="D"></path><path d="M193 441h1c2 1 3 2 5 1l3 1c1 0 1 1 2 2l-5-1c-2 0-4 0-6-3z" class="E"></path><path d="M210 492c1-1-1-3-1-5-1-2-1-5-2-8s-2-7-4-11c0-2-1-5-2-8 0-1-2-3-3-5 2 1 3 3 5 4h1c1 1 1 2 2 3l3 8c0 3 1 6 2 9v-1c1 2 0 2 1 3-2 5 0 11 1 16l-2-1v-1c0-1-1-2-1-3z" class="B"></path><path d="M90 531c1-12 10-25 19-33 11-9 26-15 40-14 8 0 15 3 19 8 5 6 6 13 6 21-1 5-5 10-9 13 1-5 0-10-3-15-3-4-8-7-12-8-10-1-20 2-28 8-6 4-10 12-11 19-1 4 0 10 3 13 5 7 15 9 23 10 7 1 16 1 23 0l15-3c7-1 13-3 18-8 5-4 10-10 13-17 1-2 1-5 3-8-1 2-2 8 0 10s9 3 12 3c8 3 15 9 15 18 0 3-2 6-4 9-1 1-3 2-5 2h-1c-2 2-3 3-6 4h-2c-1 0-2 1-3 2-3 1-7 1-10 0-5-1-11-2-13-7h-1 0 0v2-1h-1c0 1 0 1 1 1 2 0 4 3 6 4v1c-1 0-1 0-2 1l2 1h2c1 1 1 1 1 2-1 1-1 1-2 1-3 0-6 0-9-1-2 0-3-1-5-1-3-2-7-3-10-5l-2-1h0c7 5 14 8 21 11-6 1-13-3-19-5 2 1 5 3 7 4-4 0-7-1-10-2l-3-1c2 2 6 3 9 4 0 0 1 1 0 2l4 1h-1-3l-11-5h0c3 2 7 4 10 5h0c1 0 1 0 2 1h1 0l3 2c-2 0-4-1-7-1-3-1-6-1-8-2-4-2-8-5-11-8-2-1-4-3-5-3h-1l4 4s0 1 1 1c-1 0-1 0-2-1l-2 1c3 2 7 4 10 6 3 1 7 3 10 4 0 1-1 2-1 2l2 1c-3 0-5 0-8-1-6-2-10-5-15-8-3-3-7-8-12-10l11 9c-2 1-3 1-4 1l-4-3h0l7 6c-2 1-3-1-5-2h0c-2-1-3-2-3-3l-1-1-1-1-2-3-2-1c0-1-1-2-2-3 0-1-1-2-1-3h-1v1l2 3v2h-2l-6-8h0c1 3 2 5 4 7 3 5 7 9 11 13 3 3 5 5 8 7h0c1 0 2 1 3 0l1 1h-2-1c-3-1-9-5-10-7s-4-4-6-5c-2-3-4-5-5-7-2-3-4-8-7-10h0l6 11c0 1-1 1-1 2-1-2-2-3-3-4-1-4-4-9-6-13 1 5 4 10 6 14l-1 1h-1c-2-2-3-4-4-7-2-2-3-6-5-8 2 4 3 8 5 11s4 6 6 8c2 4 4 7 6 11-5-4-9-9-13-13 2 4 6 7 9 11-2-1-4-3-5-4-5-4-8-9-11-15-1-2-2-5-3-8 0 2 1 4 1 6 2 6 4 11 7 17-4-4-5-10-9-14h0 0c1 4 4 8 5 11-3-3-5-7-7-11v1c-1 0-1 0-1 1h0l-1 1c-1-1-1-3-2-4-3-4-4-9-5-14-2-5-3-11-2-17z"></path><path d="M95 551l-1-1c0-2 0-4 2-6h0l1 5c-1 0-1 1-2 1h0v1z" class="K"></path><path d="M217 552c-1-3-4-5-5-7 1 1 4 2 5 3l2 2c-1 1-2 1-2 2z" class="M"></path><path d="M195 566c-3 0-5-2-7-4-1-1-3-2-4-3h0c2 1 5 3 7 4 1 1 4 1 6 2-1 0-1 0-2 1z" class="C"></path><path d="M211 548h0c1 0 3 1 4 2 0 1 1 2 2 3 1 2 1 5 1 7-2-3-3-6-5-9 0-1-1-2-2-3zm-116 4h1c1 4 4 8 5 11v1c-1 0-1 0-1 1h0l-1 1c0-2-1-4-2-5-1-3-1-6-2-9z" class="B"></path><path d="M90 531v5h1c0-1 1-3 2-5v-1h0v2 1 1c-3 3 0 10 0 14h-1 0c-2-5-3-11-2-17z" class="I"></path><path d="M179 577c-2 0-4 0-6-1s-9-5-10-7c-1 0 0-1-1-1-1-1-2-2-3-4 2 1 3 3 5 4 4 3 9 5 13 7l4 1h-1-3l-11-5h0c3 2 7 4 10 5h0c1 0 1 0 2 1h1 0z" class="D"></path><path d="M170 582h0c-4-1-7-4-10-6-5-3-9-6-14-9 2 0 3 2 5 3 3 2 7 4 10 6 3 1 7 3 10 4 0 1-1 2-1 2z" class="F"></path><path d="M177 561c3 1 6 2 9 4 1 0 2 1 3 0 0-1-3-2-4-3 1 1 3 1 4 2l1 1c1 1 6 2 7 2h2c1 1 1 1 1 2-1 1-1 1-2 1-2-1-3-1-5-1-3-1-15-6-16-8z" class="B"></path><path d="M95 551v-1h0c1 0 1-1 2-1 1 3 3 7 5 10 0 1 1 2 1 4h0c1 4 4 8 5 11-3-3-5-7-7-11-1-3-4-7-5-11h-1v-1z" class="P"></path><path d="M209 553l3 1 3 3v1 1c0 1 0 2-1 3s-3 1-4 1c-4 0-5-2-7-4 2 1 3 2 6 3v-1h0c-2-1-2-1-3-2h0 2c0-2-3-4-5-5h1c2 1 4 3 5 5h0v1c1 0 2 0 2-1s-1-2-1-2v-1l2 2h0 1c-1-2-1-3-2-4-1 0-1 0-2-1h0z" class="C"></path><path d="M174 563h1c0-1-1-2-2-2v-1h3l1 1c1 2 13 7 16 8 2 0 3 0 5 1-3 0-6 0-9-1-2 0-3-1-5-1-3-2-7-3-10-5z" class="K"></path><path d="M219 550c1 2 3 4 3 7h0c1-3 0-7-2-9-1-2-4-4-5-6h0c3 1 3 3 6 4v1h0v1h0c2 2 3 4 3 6s0 4-2 6h-2c-1-1-1-3-1-4-1-1-1-3-2-4 0-1 1-1 2-2z" class="C"></path><path d="M222 538c2 1 4 2 5 3h1 0c1 1 2 3 3 3v1h0v1h1v7c-1 1-2 2-4 3l-1-1-3-8-4-4v-1h2s1 1 2 1c3 3 4 6 6 9-1-6-4-9-8-14z" class="F"></path><path d="M134 459h4c2-1 7-1 9-1 2 2 4 1 7 2 2 0 8 0 9 2-2 0-3 0-4-1-3 0-9-1-12 1 4 0 8-1 11 0h0c1 1 2 2 3 2 2 1 4 1 5 1l1-1h0 1c2 1 3 2 5 2 3 1 5 2 7 4l6 3c1 0 1 1 2 2s4 3 4 4l2 2c1 3 3 5 4 8 0-3-2-5-2-7 0 1 1 1 2 1 2 3 4 6 5 9 1 1 2 3 3 5 1 5 1 10 0 15h0c-1 10-8 21-17 28-3 3-6 4-10 5 0 1 0 1-1 1h-1l2-2h-3l-7 3c-1 0-1 0-2 1-2 0-3 1-5 1h-2c-3 1-8 0-11-1h0c-2-1-5-3-7-3 0 1 1 1 1 2h-1c0-1-1-2-1-2l-5-5c-1-1-1-2-2-2v1c0 1 0 2-1 3l-1-2h-1l3 6h0v1c-2-1-5-6-6-9 1 3 2 5 3 7v1h0-2c0-1-1-2-2-3 0-1-2-4-2-5 0-2 0-4 1-7l1-9c-2 2-3 9-3 12 0 1 0 3 1 5 0 2 1 5 3 7-1 0-3-1-4-2-1 0-1 0-2-1 0-1 0-2-1-3h0v3h0 0c-1-2-3-3-3-5-1-5 1-14 4-19h0 0c-1 2-2 3-3 5-2 5-3 10-2 15 1 1 2 3 2 4l-1-1c-2-2-3-5-3-8 0-5 2-11 5-15 1-1 3-1 4-2 7-6 13-10 22-10 4 1 9 3 12 7 3 3 3 5 3 9v2h-1l-1 1c-1 1-3 3-4 3v1h-2-1c-1 1-1 1-2 1-3 0-5-1-7-2-1-2-1-3-1-4 1-4 4-3 6-6 0-1 0-1-1-2s-3 0-5 0c-1 1-1 2-2 3h0c-1 3-2 5-2 7 2 4 3 6 7 7 5 2 12 0 17-2 4-2 8-3 10-7 2-2 3-4 4-6 2-5 2-8 2-13v-1c0 1 1 1 1 1l1-2s0-1-1-2c0-2-1-5-2-7v1h-2c-4-7-8-11-15-14-12-4-26-2-36 3-5 3-9 6-13 9-4 2-7 5-11 8-6 5-11 14-14 22-2 6-3 13-3 19v9c1 4 2 8 4 12 8 15 20 23 36 28 7 2 14 3 21 3 8 1 16 0 23-1 18-4 34-12 51-16 11-2 21-2 32-2h12c2 0 4 0 6 1h0l-19 3c-6 0-15 1-21 4 3 0 7-2 11-2l14-2c8 0 16-2 25-1 1 1 3 1 3 1 1 1 1 1 1 2-1 1-3 1-4 1-2 1-3 1-4 1h-2c-3 1-14 1-15 4h-1c4 0 7-1 10-1-3 1-7 2-10 2-2 0-3 1-5 1l-15 6c-5 2-11 4-16 6l-16 8v1c-1 0-2 1-2 1 0 1 1 1 1 1h0l9-3 14-6c2 0 3-1 5-1 3-2 6-4 10-6 1-1 2-1 4-1l-1 1c1 0 1 1 2 1s2-1 3 0l-1 1c-6 2-12 3-18 6-2 1-4 2-6 4-2 1-3 4-6 5-4 1-8 3-11 6 4-2 10-4 13-6 1-2 2-4 4-5 1 0 3-1 4-1l9-2h0c-2 1-4 1-5 2-3 1-6 3-9 4-2 1-3 3-5 4-2 2-5 3-8 5-6 3-12 5-18 7-5 3-10 5-16 6-7 3-16 4-23 5-14 2-29 4-42 1-11-2-23-8-32-14-14-12-22-31-25-49-1-10-1-20 1-30l2-2v-3c2-5 2-11 4-16l3-9c3-6 6-11 10-17 3-3 7-7 10-11 3-3 5-6 8-10 11-10 27-18 42-20z"></path><path d="M203 492c1 1 2 3 3 5l-2 1c-1-2-1-4-1-6z" class="P"></path><path d="M136 513c-2 0-4 2-6 3 2-2 3-4 6-6 1 2 1 2 0 3z" class="D"></path><path d="M135 466h3v-1h1c1 0 2-1 4-1 1 1 1 1 2 1h1c-3 1-8 2-11 1z" class="I"></path><path d="M121 531c0-1 0-2 1-3v-1h1 0c-1 1-1 2 0 2v1c-1 1-1 2-1 4s0 4-1 6c0-2-1-5-1-7 0-1 1-2 1-2z" class="L"></path><path d="M237 588c4-2 9-3 15-4h1l-5 1h2 1 0v1c-5 0-9 1-14 2h0z" class="F"></path><path d="M115 479c1-1 2-1 2-2l1-2c2 1 5-1 6-2l2 1-5 2c-1 1-3 3-4 3-1 1-2 0-2 0z" class="H"></path><path d="M121 531l-1-1c1-4 3-8 6-11 0 2-1 3-1 5-1 2-1 4-2 6v-1c-1 0-1-1 0-2h0-1v1c-1 1-1 2-1 3z" class="E"></path><path d="M149 615c-1 0-3 0-4-1l-13-1h0c3-1 5 0 7 0l14 1h1l-1 1c-1 0-3-1-4 0z" class="M"></path><path d="M195 495h0c1 0 1 0 1 1h0c1 1 1 3 2 4 0 1 1 2 2 2 0 0 0 1 1 1 1 2 1 3 1 4h-1v1 2h-1c-1 0-1-2-1-3v-2c-1 0-1-1-1-1 0-1-1-3-1-4h0c0-1 0-1-1-2v-1l-1-2z" class="I"></path><path d="M143 529c1-1 2-2 2-4 1-1 4 0 5 0s1 0 1-1v2 1l-1-1c-1-1-1-1-2-1l-1 1c0 1 0 2 1 2v2h2l1-1h1v1c-1 1-1 1-2 1-3 0-5-1-7-2z" class="G"></path><path d="M176 544c2-1 5-3 7-4h2c2-1 4-3 6-5-2 3-4 5-6 7-1 1-5 3-6 3 0 1 0 1-1 1h-1l2-2h-3z" class="B"></path><path d="M153 614c5 0 10 0 14-1 4 0 7-1 10-2-3 2-6 2-9 3-4 1-7 1-10 2-2 0-3-1-4-1h-5c1-1 3 0 4 0l1-1h-1zm38-121h1l3 8c1 4 2 8 2 12 1 2 0 4 0 6 0 1-1 1-1 1-1-1 0-6 0-8 0-3-1-6-2-9s-2-7-3-10z" class="E"></path><path d="M198 614l-1-1h-2-1 0v-1l6-2h0l2-1s0-1 1-1h1c1-1 2-1 3-2 1 0 1 0 2-1l1 1-6 3v1 1c-1 0-2 1-2 1 0 1 1 1 1 1h0c-1 0-3 1-5 1z" class="K"></path><path d="M206 497c1 5 1 10 0 15h0c-1 0 0 0-1-1 0 2 0 4-1 5 0 1-1 3-2 4v-1l1-5c1-1 0-2 1-3 1-4 1-9 0-13l2-1z" class="O"></path><path d="M115 479s1 1 2 0c1 0 3-2 4-3l1 1c-4 3-9 6-13 9l-6 6c-2 1-3 2-5 3 4-5 9-9 13-13 1 0 4-2 4-3zm73 13c1 1 3 3 3 5 1 2 1 3 1 5 2 5 4 11 2 16 0 3-1 5-2 7l-1 1c0-2 1-3 1-5v-1c1-2 1-4 1-7 0-7-2-15-5-21z" class="E"></path><path d="M262 582c4-1 8-1 12-1 2 0 4-1 6 0 0 0-2 1-2 2-2 1-3 1-4 1h-2-1-2c-1-2-3 0-5-2h0-2z" class="D"></path><path d="M252 584c0-1 2-1 3-1l7-1h2 0c2 2 4 0 5 2l-18 2v-1h0-1-2l5-1h-1z" class="B"></path><path d="M125 609c3-1 6 0 9 1h25 5 2 0c-12 1-25 2-36 0-2 0-4-1-5-1z" class="E"></path><path d="M149 548v-1h0 0 2 0s0-1 1-1h0 1 1l1-1c1 0 2 0 3-1h2c1 0 2 0 3-1h2 2 0 1-1c-1 1-2 1-3 1 0 1 0 1 1 2-5 2-11 2-16 2h0z" class="I"></path><path d="M172 617h3c-1 0-3 0-4 1-11 2-22 2-32 2h-2l35-3z" class="E"></path><path d="M134 473c1-1 3-2 4-2h1c1-1 1 0 2 0v-1c1 0 3 0 4-1l1 1h1v-1l1 1c-1 1-3 1-4 1s-1 1-2 1h1 0c0 1 1 1 1 1v1c-2 0-4 2-6 2-1 1-2 1-3 1h0v-1-2h-1-1l1-1z" class="H"></path><path d="M135 476v-2h-1-1l1-1c1 1 2 0 3 1v1c-1 1-1 1-2 1z" class="I"></path><path d="M165 627h2-1c-6 3-11 3-17 4-2 0-3 1-5 1-6 1-14 1-20 1-1 0-1 0-2-1l22-1c2 0 4-1 6-1 5-1 11-1 15-3zm7 5h0c-4 2-10 3-15 3h-3c-6 1-11 2-16 2-5 1-9 0-13 0h-1c2-1 6-1 9-1 4 0 21-3 23-2l1 1c4 0 10-2 15-3z" class="D"></path><path d="M146 465h1c-1 2-3 2-4 2-3 1-5 2-8 2v1c2 1 6-3 8-2-1 1-2 1-3 1-1 1-2 2-4 2-2 1-4 1-7 1-2 1-4 4-7 5l-1-1 5-2 8-5v-1l-9 2c2-1 4-3 7-3l3-1c3 1 8 0 11-1z" class="L"></path><path d="M165 546c3-1 16-6 18-9h0c1-2 5-5 6-6 0 2-5 6-5 7 2-1 5-4 7-6v1c-2 2-5 6-7 6h-1c-2 1-4 3-6 3l-8 4v1c-1 0-1 0-2 1-2 0-3 1-5 1h-2c-3 1-8 0-11-1 5 0 11 0 16-2z" class="M"></path><path d="M166 465l1-1h0 1c2 1 3 2 5 2 3 1 5 2 7 4h-2s-2 0-2-1h-1-2 0l-1 1h0c-2-1-3 0-4-1h-2-1-2c-1-1-3-1-4-1h-5v-1h1c2-1 5 0 7-1h4l1-1h-1z" class="H"></path><path d="M167 465h1v1l-1 1 1 1h-6c-2-1-4-1-7-1 2-1 5 0 7-1h4l1-1z" class="G"></path><path d="M190 606c5-2 10-5 16-6h-1c-1 1-2 1-3 2 1 0 1 0 1 1l1-1h1s1 0 1-1h1 2v1c-1 0-2 1-2 1-1 1-1 0-1 1-2 0-3 1-5 2-1 0-3 1-4 2h-3 0c0 1 0 1-1 1h-2c0 1 0 1-1 1h0-2 0s1-1 2-1l1-1s0-1-1-2z" class="H"></path><path d="M237 588h0l-31 12c-6 1-11 4-16 6-2 2-5 2-7 3s-3 1-4 1c1-1 2-1 3-1 3-1 6-2 8-4 8-3 14-7 22-10 4-1 7-2 11-3s9-3 14-4z" class="M"></path><path d="M140 520h-1c-1 2-2 3-2 5 0 4 2 7 5 10 3 1 5 2 7 4-4-1-9-4-12-8-1-1-2-6-2-7l1-2 1-2c0 1-1 1-1 1-1 2-2 5-2 7 1 2 2 3 2 4 3 4 7 5 11 8h0-2a19.81 19.81 0 0 1-11-11c-1-2-2-4-1-6h0s0-1 1-1c1-3 5-5 8-5-1 1-1 2-2 3h0z" class="E"></path><path d="M203 613l9-3 14-6c2 0 3-1 5-1 3-2 6-4 10-6 1-1 2-1 4-1l-1 1c1 0 1 1 2 1s2-1 3 0l-1 1c-3 0-5 1-7 1-5 2-9 3-14 5s-10 5-15 6c-1 1-2 1-3 1-4 1-8 3-12 3-3 1-5 2-8 1h0c3 0 6-1 9-2 2 0 4-1 5-1zm-69-154h4c2-1 7-1 9-1 2 2 4 1 7 2-9 0-20 0-29 3-6 2-12 5-17 9-4 1-8 5-12 6 4-3 8-6 13-9s12-6 18-7c2-1 4-2 6-2 1 0 1 0 1-1zm-70 74c1 1 1 6 1 7 1 2 2 4 2 6 1 2 2 4 2 6 1 4 2 7 4 10 2 4 3 8 6 11 2 4 5 7 7 10h0l-3-3c-2-2-4-4-6-7-4-5-7-11-9-18-1-2-1-5-2-7 0-3-2-6-2-9v-6z" class="B"></path><defs><linearGradient id="B" gradientUnits="userSpaceOnUse" x1="154.807" y1="475.686" x2="153.912" y2="472.017"><stop offset="0" stop-color="#433e3e"></stop><stop offset="1" stop-color="#525759"></stop></linearGradient></defs><path fill="url(#B)" d="M144 473c5-1 12-1 18 1 2 1 3 2 5 2 1 1 2 1 2 1h1l1 1h-1 0-3c1 1 1 1 2 1h0c1 1 3 1 4 1 0 1 1 1 1 2h-1 0c-1-1-1-1-2-1h0l-1-1c-3 0-6-2-9-3h-2c-2-1-4-1-5-1h-2-9c1-1 2-1 4-1l-1-1h-2v-1z"></path><path d="M172 470l1-1h0 2 1c0 1 2 1 2 1h2l6 3c1 0 1 1 2 2s4 3 4 4l2 2c1 3 3 5 4 8 1 1 1 2 2 3l-1 1c-1-1-1-3-2-5-1 0-1-1-1-1-1-1-1-2-2-3v-1h-1l-1 1c1 2 2 4 3 5v1l-2-1c0-2-2-3-3-4v-2l-1-1v-1c-2 0-3-2-4-3s-1-1-2-1c-2-2-3-3-5-3-1-1-2-1-3-2h0c1 0 2 0 3 1 1 0 1 1 3 1v-1c-1-1-2-2-4-2l-5-1z" class="N"></path><path d="M138 509c6-1 11-1 16 2 3 2 5 4 6 7 1 2 0 4 1 5v2h-1l-1 1c-1 1-3 3-4 3v1h-2c0-2 3-3 4-5 0-2 0-4-1-6v-2l-3-3c-3-2-7-3-10-2h-1c-2 1-6 3-8 5l-1 1h0c1-3 5-5 7-6-1 0-2 0-4 1 1-1 1-1 0-3 1 0 2 0 2-1z" class="E"></path><path d="M138 509c6-1 11-1 16 2v1c-1 0-2-1-3-1s0 0-1-1h-2c-1 0-4-1-5 0-2 0-3 1-5-1z" class="C"></path><path d="M154 511c3 2 5 4 6 7 1 2 0 4 1 5v2h-1l-1 1v-8h-1c0-1-1-2-2-3 0-1-1-2-2-3v-1z" class="D"></path><path d="M211 590h1 0c0 1 0 1-1 1h0l-1 1h0c2 0 4 0 6-1 1 0 1 1 2 0h1 1 0c0 1-1 1-1 1h-2c-1 0-1 0-1 1h-2 0-2v1c-5 2-9 4-13 6l-7 3c-2 0-3 1-5 1 0 0-1 0-2 1h0-1v-1h0l4-1h0s0-1 1-1c0-1 0-1 1-1s1-1 2-1h1s1-1 2-1 1 0 2-1c1 0 2 0 3-1h-1c-1 0-2 1-3 1h-1c-2 1-5 3-8 3-1 1-2 0-3 0l-1 1c-1 0-2 0-3 1h-2 0-1v-1h3c0-1 0-1 1-1h1c1-1 1 0 2 0 0-1 1-1 1-1h1l1-1c1 0 1 0 2-1h0 2c2-1 5-2 8-4 1 0 2-1 3-1 2 0 3-1 5-2h1c1-1 1-1 2-1h1z" class="K"></path><path d="M177 495l-2-5c5 4 6 11 7 17 0 1 1 3 1 4 0 2-1 5-2 8h0-1c1-2 1-4 1-6 0-1 1-2 1-3h-1c0 1-1 5-1 6s-1 2-1 3c0 2 0 3-1 4s-1 3-2 4c-2 4-3 5-8 6-2 1-3 2-5 2-2 1-4 1-5 0h3c1 0 2-1 3-2 0 0-1 0-2-1 4-2 8-3 10-7 2-2 3-4 4-6 2-5 2-8 2-13v-1c0 1 1 1 1 1l1-2s0-1-1-2c0-2-1-5-2-7z" class="L"></path><path d="M180 504l1 2c0 2-1 5-2 7 0 2-1 5-1 7 0 1 0 1-1 2v-2c0-1 0-1-1-1 2-5 2-8 2-13v-1c0 1 1 1 1 1l1-2z"></path><defs><linearGradient id="C" gradientUnits="userSpaceOnUse" x1="177.824" y1="522.55" x2="167.788" y2="525.958"><stop offset="0"></stop><stop offset="1" stop-color="#242423"></stop></linearGradient></defs><path fill="url(#C)" d="M176 519c1 0 1 0 1 1v2c-1 5-5 7-9 10l-4 1s-1 0-2-1c4-2 8-3 10-7 2-2 3-4 4-6z"></path><path d="M108 472c5-4 11-7 17-9 9-3 20-3 29-3 2 0 8 0 9 2-2 0-3 0-4-1-3 0-9-1-12 1h0c-1 0-3-1-4 0h-2c-1 1-2 0-2 1-1 0-2 0-3 1h-2 0c-2 1-4 2-5 2l-6 3v1c-1 1-1 1-2 1-1 1-1 2-3 3l-6 5c-1 0-1 0-2 1-1 0-3 2-4 3-1 0-1 1-2 1l-2 2-4 4-1 1h-1l3-3v-1c1-1 1-1 2-1 2-2 3-4 6-5l1-1c1-1 5-3 5-4l-1 1c-1 0-2 0-3 1v-1-1c-2 0-3 1-4 3l-1-1 2-2h0l3-2s1 0 1-1h0c-1 0-1 0-2-1h0 0z" class="I"></path><path d="M175 460c-10-4-21-6-32-6-14 1-27 5-40 12-3 1-6 3-9 6-6 4-11 9-16 15-3 3-6 7-9 11-2-11-1-22-1-33 2-27 7-54 16-79l10-26c5-13 11-27 18-40 5-9 11-18 16-27 2-4 4-8 7-11 5-8 10-16 16-23l12-13c4-5 8-11 11-17 4-5 5-9 7-14 2-7 5-14 9-20 2-3 4-6 7-8 3-3 6-5 10-8 2-2 6-4 8-7v-4l2-8c3-14 8-29 15-41 2-3 3-6 5-9s5-5 8-7c5-5 11-7 16-11 3-3 6-5 9-8s5-6 9-9c3-1 7-2 10-1s4 2 5 4v1-1h-1l-3-3c-3 0-5 1-7 3-11 8-19 19-24 31-1 4-3 7-3 11-1 7 0 14 4 19 2 2 3 4 6 4h1c-4-4-7-7-8-12-3-11 3-24 9-33 4-6 8-10 13-15 2-2 4-4 7-5l4 2c6 8 5 20 9 29 1 3 4 5 6 7l-3-6c0-2-5-21-5-22 1 2 1 4 2 6 8-3 15-7 21-11 6-3 10-7 16-9 2-1 5-2 7-1v1h0c-9 2-17 13-22 20-2 3-4 7-3 10l1 1c2-3 4-7 5-10 3-4 6-8 9-11v1 1c-1 0-1 1-1 1-1 1-1 2-2 3v1h1c1-2 1-3 3-4v-1 1c1 0 1-1 2-2h0 0c-2 5-10 19-9 24 1 4 5 8 7 11 8 7 15 13 16 24-2 0-5 0-6 2-1 1 0 1-1 2h1c1-1 2-2 3-2s2 1 2 1c1 2 0 7-1 9 0 1-1 2-2 3 1 3 2 5 3 7s3 4 4 6 3 4 3 5-1 4-1 5c-1 1-2 2-2 3l-4 7h0 2c1 1 4 1 6 2 9 3 20 5 27 12-1 0-3-2-4-3l-6-3c-8-3-17-4-24-7 7 4 14 8 20 14 2 1 4 2 5 4-4-3-7-6-10-8-6-4-12-6-17-10-3 5-7 10-13 13-2 0-4 0-6 1 0 0 0-1-1-1l-1 1c0-1-1-1-2-1-1 2-1 4-2 6-1-2 1-4 2-5l-5-1c1-1 2-2 3-4 1-1 1-2 2-3 1-2 3-4 4-7l-8 11c-1 2-3 4-5 5-3 3-6 7-8 11v-1c1-2 3-4 4-6 2-2 5-5 6-7h0c-2 0-4 0-6-1 0-1 0-1 1-1l-1-1c-2 1-3 2-5 1h-2c-1 0-2 2-2 3-1 1-1 3-1 4l2 14c1 6 1 12 1 18-1 6-2 13-1 19 4 2 8 4 10 8 1 4 1 10-1 14-1 2-3 5-5 6-1 1-3 1-3 2-2 2-2 5-5 6-2 1-5 1-7 1l-1-1c-3 2-10-1-13-2-5-1-9-3-13-7l-4-4c0-2-1-3-1-4h-2l-1-1h-1v1c-3 4-6 7-5 13 1 3 2 5 5 7 0 0 1 0 1 1 2 0 3 1 5 1 5 3 9 5 12 11 1 2 1 5 1 8 0 9-2 17-5 26-2 6-4 13-6 20-2 4-2 9-2 13-1 13-1 26 0 39l4 60c1 10 1 19 2 29 1 6 3 13 6 19 2 3 4 5 6 8 1 3 2 9 1 12 0-1-1-2-1-3s-1-2-2-3c0 2 1 5 2 7 0 1 0 3-1 4v1h0c1 0 2-2 2-4h1v4c-1 2-1 3-3 4s-2-1-4-1c-1 1-3 3-5 4-2 0-3-1-5-2h0c-2 1-4 2-6 2-5 0-11-4-13-9s-2-9-2-14c0-4-1-8-1-12l-7-32-2-26-3-21-3-14-4-28c-3-11-4-22-7-34-2-5-4-13-9-17-9-9-21-12-33-12-16 1-30 9-41 20-7 8-14 16-15 26v8 2c-1 2 0 4 0 5 0 7 3 13 8 18 2 2 5 4 9 6 8 3 20 1 29-2 1-1 3-1 5-2s3-3 4-4c4-3 9-7 14-8h5c-2-1-4-1-6-2h0c-1-1-2-1-3-1h0c-2 0-3 0-5-1 3 0 6 0 9 1 14 3 25 12 31 24 2 3 3 7 4 10 2 3 3 6 5 8l-3-11c-5-14-12-25-26-31-3-2-6-3-9-4-10-2-24-1-34 3l-1-2c-1 1-2 1-3 2h0v-3c0-1 0-2 1-3h-1c1-1 2-2 2-3 1 0 1 0 1-1l2 1c0-1-1-1-2-2v1-3c1 0 3 3 6 3v-1h-2l2-1v-1h-1v-1l1-1c0-1-4-7-5-8v-1h1 0c1-1 2-1 3-1v-1h0l1-1h0l1 1-2-14v-2c0-1-1-2-2-2-2-1-3-3-5-3h-1c3-2 5-3 8-4 2-1 5-1 7-2h-1c-3-1-7-2-10-2 13-6 27-6 40 0 7 2 12 7 14 14 1 3 2 6 2 9 1 1 1 3 1 4 1 3 4 6 4 9 3 8 3 17 5 25l4 19 4 25c-1-2-1-3-2-5-2-4-5-8-9-11l-6-3c-2-1-3-4-5-5l3 4-2 1c-2-2-5-2-7-4h-1c-1-1-2-1-3-1v1h1c-2 1-1 0-2 0-2 0-4 1-5 1l-1-1-2 2 1 1-1 1h-1c-1 0-1 1-1 1h0v2l1 1c-1 0-1 1-1 1-1 0-1 1-2 2h0c0 2 0 2 1 3v1l1 1h0l-4-1c1 1 2 1 3 3-2-1-3-2-5-3h-2v1l-3-2-2 2c-1 1-1 1-1 2h1c0 2 1 4 2 6l1-1h1v1l2 2c0 1 0 0 1 1l1 1 4 3c1 0 1 0 2 1h-2c1 2 1 2 2 2l-2 1-14-8z"></path><path d="M293 242c0 3 0 5-1 8l-2-6h1c1 0 1-1 2-2z" class="M"></path><path d="M205 426l1 1v1h-1-1c-1 1-1 1-2 1l-1-1v-1l1-1h3 0z" class="G"></path><path d="M242 233l1-6h0v8 1h-1v-3z" class="E"></path><path d="M131 434l1-1h1c1 2 2 4 3 7-1-1-2-1-3-2 0-1-1-3-2-4z" class="C"></path><path d="M261 276v-4h1l1 8h-2v-4z" class="F"></path><path d="M152 336l1-1 1-1c1 2 1 5 1 7h0c-1-1-2-3-3-5z" class="D"></path><path d="M231 189c1 2 2 3 2 5v2l-1 1c-1-1-1-2-2-3l1-1v-4z" class="L"></path><path d="M331 155c1 3 2 7 2 10-2-2-3-5-3-7v-1c1 0 1-1 1-2z" class="D"></path><path d="M295 165h2v1c-2 1-4 2-6 2h-2v-1c1-1 4-1 6-2z" class="L"></path><path d="M249 333l1 10c-1-2-2-5-2-8 1 0 1-1 1-2z" class="B"></path><path d="M177 385h1v2h1c1 1 1 1 2 1h-1c0 1 1 1 1 3h-1c-1-1-1-2-2-2h0-1v-2l-1-1 1-1z" class="G"></path><path d="M96 454h1c1 2 1 3 2 5 1 1 2 3 3 4-3-2-5-5-7-8l1-1z" class="L"></path><path d="M356 177h1c0 2-1 5-3 7l-1-2 2-2v-1h0l1-1v-1z" class="D"></path><path d="M157 296c0-3 1-7 2-10v1c0 2 0 4-1 5h0l1 4h-2z" class="E"></path><path d="M183 248c0-2 1-4 2-6h1c0 1 0 1 1 1 0 1-1 3-1 3-1 1-2 1-3 2z" class="H"></path><path d="M184 254l2-1c-1 4-2 8-3 11l1-10z" class="B"></path><path d="M282 263l1 7v3h-1l-2-8 2 1c-1 1 0 2 0 3v-1-2-3z" class="I"></path><path d="M262 524h1c0 2 1 2 2 3s1 5 1 6h-1c-1-3-3-5-3-9z" class="M"></path><path d="M147 301h1v1 2c-1 3-1 6-2 9l1-8c-1-1 0-3 0-4z" class="C"></path><path d="M145 334h2c1 4 1 8 2 12-2-4-3-8-4-12z" class="J"></path><path d="M272 552c0-4 0-8-1-11 3 3 4 7 3 11 0 0 0-1-1-2h0l-1 2z" class="F"></path><path d="M147 437c-2-2-4-5-4-7h0 2c1 1 2 4 3 5-1 0-1 1-1 2z" class="E"></path><path fill="#7b7a7a" d="M266 147h1c3 2 6 0 9 0 2 0 3 1 5 1-4 1-8 1-12 1-2 0-2 0-3-2z"></path><path d="M230 194c0-2-1-4-1-6-1-3-1-5-2-8 2 2 2 6 4 9h0v4l-1 1z" class="E"></path><path d="M180 378h0c1 3 1 7 1 10-1 0-1 0-2-1 1-3 0-6 0-9h1zm-20-82h2l-2 10v1h-1v-5c1-2 1-4 1-6z" class="C"></path><path d="M248 351h0c0 1 0 1 1 2v2c1 3 1 7 1 10-3-4-2-9-2-14z" class="E"></path><path d="M99 446l2-1 4 12c-3-4-4-7-6-11z" class="B"></path><path d="M147 301c0-3 1-5 2-7s2-3 2-5h1c0 2-1 4-2 6l-2 9v-2-1h-1z" class="F"></path><path d="M200 286v-3c1-2 1-4 1-6s1-6 3-7c-2 5-2 11-3 16h-1z" class="O"></path><path d="M175 378h3c0-1 0-1 1-2 0 1 0 1 1 2h-1c0 3 1 6 0 9h-1v-2h-1c0-2 1-3 0-5 0-1 0-1-2-2z" class="K"></path><path d="M261 276c-1-3 0-8 0-12 0-2-1-4 0-6l1 8c0 2 1 4 0 6h0-1v4z" class="B"></path><path d="M286 243v-1-1-2c0-1 0-1 1-1v1-2h0c2 4 2 8 2 12l-3-6z" class="F"></path><path d="M107 404c-2-5-2-11-2-16h1c0 5 0 9 2 13 0 1 0 2-1 3z" class="C"></path><path d="M261 482c1 6 2 11 1 16h0c-2-5-1-10-1-16z" class="F"></path><path d="M152 336v-2c-2-3-2-8-1-12 1 2 1 5 1 7s1 3 2 5l-1 1-1 1z" class="E"></path><path d="M259 454v1c1 4 3 9 3 14h-1c-2-5-2-10-2-15z" class="C"></path><path d="M160 296c0-3 2-6 3-8 0-2 1-4 3-6h0c-1 5-4 9-4 14h-2z" class="E"></path><path d="M147 437c0-1 0-2 1-2l6 7c1 1 3 3 3 4-2 0-3-2-4-3l-6-6zm-16-3v-3c0-4-2-7-4-11 2 2 4 4 5 6s1 5 1 7h-1l-1 1z" class="D"></path><path d="M246 270v-1h2v7c-1 3 0 5 1 7-3-4-3-8-3-13z" class="F"></path><path d="M156 400h1v1l1 1h1c1 0 2 0 3 1h0c-1 0-3 1-4 1-1 1-2 1-3 2h0v-3c0-1 0-2 1-3z" class="D"></path><path d="M165 313c1 1 1 10 2 12 0 2 1 3 2 5h-1c-2-2-3-5-3-7 0-3-1-6 0-10z" class="O"></path><path d="M248 335c-1-2-1-4-1-6 0-1-1-3-1-5v-5h0c0 5 2 9 3 14 0 1 0 2-1 2z" class="C"></path><path d="M191 350c2 0 6 0 8 2l1 1h-2c-3 0-6 0-8-2l1-1z" class="J"></path><path d="M145 334c-1-2 0-4 0-7l1-9 1 16h-2z" class="F"></path><path d="M240 375c1-1 1-2 1-3 1 1 0 6 1 8 0 3 1 6 1 10h0l-1-1-1-2c-1-4-1-8-1-12zM99 446c-1-3-3-9-3-12 2 3 4 7 5 11l-2 1z" class="E"></path><path d="M138 330h1l1 1 2 15c-2-5-4-10-4-16z" class="B"></path><path d="M137 330l1-1c1-3 1-8 1-11 1-2 1-3 1-4 1 2 0 5 0 7v10l-1-1h-1 0-1z" class="M"></path><path d="M111 370h0c1 2 1 8 1 11l2 7c-3-6-4-11-3-18zm-6-3h1c0 3-1 6-1 9 0 2 1 4 1 6l-1 1v-1c-2-4-1-11 0-15z" class="B"></path><path d="M260 234c1 4 2 8 2 11v1 5h0-1l-1-8v-9z" class="E"></path><path d="M163 380l1-1h0l1 1v3h-1v1l1 5c-2-2-3-5-5-7h0 0c1-1 2-1 3-1v-1h0z" class="B"></path><path d="M163 380l1-1h0l1 1v3h-1v1c-1-2-1-3-1-4z" class="H"></path><path d="M249 231h0c1 1 1 2 1 3h1v3c0 3-1 5-1 8-1 1 0 1-1 1 0-3-1-5-1-7 1-3 1-5 1-8z" class="E"></path><path d="M157 296h2c0 5-2 9-3 14v-2c0-4 0-8 1-11v-1z" class="C"></path><path d="M282 553h-1c-1-4-2-9-2-13 1 2 2 3 3 5v3h1c0 1 0 3-1 4v1z" class="B"></path><path d="M232 197l1-1v-2l4 7c1 1 2 2 2 3 1 2 3 3 3 5-3-2-4-5-6-8-2-1-3-3-4-4z" class="E"></path><path d="M191 365l3 3c1 4 2 7 2 11h-1v-4c-1-2-2-3-3-4 0-2-1-4-1-6z" class="B"></path><path d="M255 453h1v1c1 1 1 3 1 5 1 2 1 4 2 6v6c-2-4-3-8-3-13 0-1 0-4-1-5z" class="F"></path><path d="M241 325h1c3 5 3 13 2 18-1-3-1-6-1-9-1-3-1-6-2-9z" class="C"></path><path d="M348 180c-1 0-2-1-3-2h0c3-2 8-1 11-1v1l-1 1c-2 0-3 0-4 1h-3z" class="F"></path><path d="M227 241c1 1 0 5 0 7 0 1 1 3 0 4 0 4-1 8-1 12h0c0-7-2-16 1-23z" class="L"></path><path d="M248 451c1 1 1 3 1 4 1 6 1 12 1 18-1-4-1-7-2-11 0-3-1-7 0-11z" class="F"></path><path d="M255 480c0 1 1 9 1 11l1 7v1c-3-5-3-9-3-14 0-2 0-3 1-5z" class="C"></path><path d="M187 243c1-1 3-6 4-7-1 3-2 4-3 6-1 4-2 8-2 11l-2 1c0-3 1-5 2-8 0 0 1-2 1-3z" class="F"></path><path d="M108 401c2 6 3 12 6 17-4-4-6-9-7-14 1-1 1-2 1-3z" class="D"></path><path d="M255 411h0c1 0 1 1 1 1 0 2 1 4 1 5 1 6 1 12 1 17h-1c1-1 0-4 0-6-1-2 0-5-1-7l-1-10z" class="B"></path><path d="M258 482h0v1c0 5 3 11 2 16 0-1 0-1-1-1-2-3-3-10-2-14l1-2z" class="F"></path><path d="M243 161v7c-1 4 0 9 0 14h0-1c0-1 0-3-1-4-1-5 0-11 2-17z" class="D"></path><path d="M194 419l2 2 1 2c1 2 2 3 4 4v1c-3-1-5-3-7-5-1 0-2-1-2-1 0-1-1-2-1-3l2 1 1-1z" class="E"></path><path d="M241 295h0c3 5 2 17 2 23l-1-1c-1-4 0-9 0-13 0-3-1-6-1-9z" class="C"></path><path d="M260 451c1 2 2 5 3 7 2 3 2 7 1 10h0c-2-2-3-14-4-17z" class="D"></path><path d="M177 427l-2-5h0l1-1c1 1 2 2 2 4 0 1 1 2 1 3 1 0 1 0 1 1s2 2 3 3l2 3h-1 0c-1-1-2-1-2-2-1 0-2-1-2-2-1-1-2-3-3-4zm-82 28c-1-3-1-6-2-8 0-4-1-8-1-11 1 1 1 3 2 5 0 4 1 7 2 11 1 1 0 2 0 2l-1 1z" class="E"></path><path d="M239 154v1c-1 1-1 2-1 3v7 8c0 2 0 5-1 6-1-3-1-6 0-9l1-13v-3h1z" class="J"></path><path d="M241 155c1 4 0 8 0 12l-1 12h0c-3-5-1-14 1-19v-5z" class="B"></path><path d="M241 258h1c-1 8 1 15-1 23 0-5-1-10-1-14 0-3 1-6 1-9z" class="D"></path><path d="M216 287c0-5 1-10 2-15v-4l1-1c-1 5-1 9-1 13 0 6 1 11 0 17-1-3 0-8-1-10h-1z" class="L"></path><path d="M355 179h0v1l-2 2 1 2c0 1-1 3-2 3l-3-6-1-1h3c1-1 2-1 4-1z" class="B"></path><path d="M267 262l1 1v13c0 3 1 7-1 10v-1h-1l1-2c-1-5 0-8 0-13v-8z" class="L"></path><path d="M219 388v1c1 2 1 6 1 9l-1 9c0-2-1-5-1-8s0-7 1-11z" class="J"></path><path d="M165 254h0c-1 6-2 13-5 19h0c-1-4 1-9 3-13 0-2 1-4 2-6z" class="M"></path><path d="M346 148l1 1 3-3c0 5 0 8-3 11 0-2-2-6-2-9h1z" class="B"></path><path d="M215 382l1 3c2 3 1 7 0 11h-1 0c0-2-1-4-1-6 0-3 0-5 1-8z" class="J"></path><path d="M336 138c-2-1-3-4-4-6s-2-4-2-6c2 3 4 7 7 10-1-1-1-3-2-4l-1-3c2 2 3 5 4 8v2h0c-1 0-1-1-1-1h-1zm-44 88h0c1 1 1 2 2 3 3 5 4 11 5 17h-1c-1-3-1-6-2-8-1-4-3-8-4-12z" class="E"></path><path d="M207 335c0-2-2-3-2-5-1-1 0-1-1-2h1c1 1 2 2 3 4s3 4 4 6v3h1l-1 1c0-1-1-2-1-2v-2h-2v2c0-1-1-1-1-1v-1-1-1l-1-1z" class="G"></path><path fill="#7b7a7a" d="M264 121c0 2-1 5-1 8 0 1 0 5-1 6v-1c-1-1-2-3-2-4v-4c1-2 3-4 4-5z"></path><path d="M266 316h0c1 8 1 15-1 23h0-1c1-5 1-11 1-16 0-2 0-5 1-7z" class="B"></path><path d="M269 312v1c1 3 1 6 1 8-1 5 0 12-3 16 0-1 1-4 1-6s-1-3 0-5c0-3 1-5 1-8v-6z" class="E"></path><path d="M110 349l2-12v13c0 3 1 7 0 10h-1c-1-4-1-7-1-11z" class="C"></path><path d="M230 153h0v23c-1-2-1-4-1-6 0-6 0-12 1-17z" class="J"></path><path d="M241 258c0-8 0-17 1-25v3h1v-1 3c0 1-1 1-1 2 0 0 1 0 1 1v2l-1 7v8h-1z" class="M"></path><path d="M227 152c2 2 1 16 1 19h-1c-4-6 0-13 0-19z" class="F"></path><path d="M259 280c-2-6-1-13-1-19 0-2 0-6 1-7l1 25h-1v1z" class="D"></path><path d="M116 332l1 1c-1 3-1 5-1 8l1 11v7h-1c-1-3-1-6-1-8 0-6-1-13 1-19z" class="B"></path><path d="M212 325c5 5 5 15 6 20 0 2 1 4 1 5h-1c-1-2-2-5-2-7-1-3 0-6-1-9l-3-9h0z" class="E"></path><path d="M253 258h0v11c1 4 2 10 0 14h0c-1-8-1-16 0-25z" class="F"></path><path d="M290 244c-1-2-1-5-2-8 0-3-1-5-2-7h0c1 1 2 2 3 4 1 3 2 6 4 9-1 1-1 2-2 2h-1zM133 438c1 1 2 1 3 2 2 3 4 6 7 8 1 2 3 3 4 4-6-3-12-7-14-14zm-23-45v1c3 5 5 11 7 16-1 1 0 3 0 4h0c-1-1-2-3-3-5 0-1-1-3-2-4-1-4-1-8-2-12z" class="D"></path><path d="M214 324h0c3 5 6 10 6 16v6l-1 1c-1-4 0-10-2-15l-3-8h0z" class="L"></path><path d="M255 259h1l1 16c0 2 1 5-1 7h0c-2-7-1-16-1-23zm-71 39c1 1 0 15 0 18 0 1 0 3 1 5v2l-1-2c-1-1-1-4-1-5-1-6-1-13 1-18z" class="F"></path><path d="M274 259v1c1 7 3 14 3 21-1 3-2 5-2 7h0 0 0c0-2 1-5 1-7-1-7-2-14-2-22zm-160 73v29-1c-1-3-1-7-1-10 0-6-1-12 1-18zm141 12h1c0 3 0 7 1 9 1 3 1 6 1 8v11h0l-3-28z" class="D"></path><path d="M204 210v1c0 2 0 3-1 5 0 4-1 8-4 11l2-9c-1 2-2 5-3 7h0-1c1-3 2-6 4-10 1-2 2-4 3-5z" class="E"></path><path d="M255 375v1l4 29h0c-3-6-3-14-4-21v-9z" class="J"></path><path d="M264 260c1 1 1 4 1 5 1 4 0 7 0 11 0 2 1 4 1 6l-1 1-1-1v-3l-1-10c1 1 1 2 1 4h0c1-2 1-4 0-5v-1c1-1 0-5 0-7z" class="E"></path><path d="M218 211h1l-3 9c0 3-1 6-3 9h0v-1c0-1 0-1-1-2 0-2 1-1 1-2 1-2 0-4 1-6h1v1h0c0-1 0-2 1-3h0c0-2 1-3 2-5h0zm13 66c2 9 2 21-1 30h0 0l1-15v-11-4z" class="C"></path><path d="M190 414l1-1h2c0 2 2 3 3 4s1 2 1 3l-1 1-2-2-1 1-2-1c-1-1-2-2-2-4l1-1z" class="G"></path><path d="M190 414c2 1 3 4 4 5l-1 1-2-1c-1-1-2-2-2-4l1-1z" class="D"></path><path d="M216 287h1c1 2 0 7 1 10v3 8h-1c0-2-1-4-1-5v-16z" class="E"></path><path d="M183 417h0 1c1 0 2 2 2 2 2 3 4 6 7 8l1 1c-1 0-3-1-4-2-1 0-1-1-2-1h0c-1 1-2 1-3 1-2-2-2-5-3-7h-1l1-1c1 1 2 3 2 5l1 1c0 1 1 1 2 1v-1c0-2-4-4-4-7z" class="L"></path><path d="M233 153c1 1-1 14 0 17h0c-1 3 0 5 0 8-1-1-1-2-2-4-1-6 0-15 2-21z" class="J"></path><path d="M244 255v2c1 5 2 13 1 18-1 2-1 4-1 6v1c-1-2-1-5-1-6 0-7 0-14 1-21zm38 23c0 4-1 8-2 12v-4c2-9-1-19-2-28l2 7 2 8v5z" class="D"></path><path d="M154 292c-1 3-1 6-2 9l-2 12c-1-8-1-15 3-23l1 1v1z" class="B"></path><path d="M149 321c0 4 0 8 1 12 0 2 2 3 2 4v6c-1-1-2-3-3-4 0-1-1-3-1-4 0-4-1-10 1-14z" class="M"></path><path d="M239 389c0 1 1 2 0 3-1 0 0 0-1-1 0-2 1-6 0-7 0-2-1-6 0-7h0v-1c1 1 1 1 1 2v3h1v-6c0 4 0 8 1 12l1 2h-3z" class="G"></path><path d="M239 389c1-1 0-3 1-4l1 2 1 2h-3z" class="I"></path><path d="M147 281s-9 18-11 23h0v-1c0-2 1-5 1-7 2-5 5-11 10-15z" class="B"></path><path d="M103 391c1 2 1 4 1 6l5 16-4-6h0c-1-2-1-5-2-7v6h0c-1-2-1-4-1-7h1v-8z" class="D"></path><path d="M185 234h0c-2 5-4 9-5 14-1 2-1 4-2 7 0 0 0 1-1 2v-5c0-5 4-14 8-18zm153-97c2 4 4 9 5 14h-1l1 2h-1 0v-2h-1c-2-4-3-9-5-13h1s0 1 1 1h0v-2zM95 388h1c-1 3-2 7-2 10-1 2-1 4-1 6 1 6 3 11 3 17-5-10-4-23-1-33z" class="C"></path><path d="M109 365h0v13c0 1 1 5 0 6v1l-1-1-1-2c-1-5 0-12 2-17z" class="D"></path><path d="M126 322c0 3-1 7-1 11 1 2 1 4 1 7 0 1 0 3-1 5h-1v-1c-3-5 1-17 2-22z" class="L"></path><path d="M129 321c0 3-1 6-1 8 0 7 1 14 0 21v-1-1c-2-3-1-7-1-11 0-5 0-11 2-16z" class="C"></path><path d="M114 366h1c1 2 2 19 2 21l-2-3c-2-4-1-7-1-11v-7z" class="E"></path><path d="M236 153v7c0 6 0 13-1 19-1-3-2-6-2-9l3-17z" class="B"></path><path d="M248 255v-1-3h0c2 4 2 8 2 12 1 7 2 14 0 21l-1-11v-5c0-5 0-9-1-13z" class="F"></path><path d="M289 227c5 6 8 13 7 21h0 0c-3-7-5-14-7-21z" class="M"></path><path d="M241 195c1-1 1-1 1-2h0c0-1 0-1-1-2h1 0l4 5c1 1 1 2 2 3s2 3 4 4l-1 1s-1-2-2-2h-1v1l-1 1-6-9z" class="H"></path><path d="M178 389c0 2 0 3-1 5-1 1-2 0-3 0-2-2-2-7-3-10l6 5h1z" class="D"></path><path d="M154 291l1-1v-3h1c0 2 1 3 0 4v1h0v4c0 4-1 7-2 11v7c-1-3-1-6-1-9v-5c0-2 1-5 2-8h-1v-1zm138-36h0c3 11 3 21 1 32h0c-1-1 0-3 0-5v-8-12c-1-2-1-5-1-7z" class="C"></path><path d="M148 431h1c1 1 2 2 2 3l1 1 2 2h0c1 1 1 0 1 0 1-1 0-2-1-4h1 1c0 1 1 1 1 2v1h0l2 1c0 1 1 2 1 2l2 2-1 1v-1h-1l-2-1v2h0v1c-2-2-5-4-5-5-1-1 0-1-1-1-1-1-1-2-2-3h0c-1-1-1-2-2-3z" class="I"></path><path d="M160 306h1v-1c1-5 3-10 4-15 0-1 0-1 1-2h0v2c-1 2-1 4-1 6 0 1 0 1-1 2-1 3-1 7-2 9-1 3-1 5-1 8-1-2-1-4-2-6v-1-6 5h1v-1z" class="O"></path><path d="M215 193h0l1 1s0 1 1 1v1c1 2 2 3 3 5 0 1 1 2 1 3 1 0 1 1 2 2-1 0-1 1-1 1-1 0-1 0-2 1v-1l-3-3c0-1-1-2-2-3 1-1 0-2 1-3v-1h0l-1-1v-1-2h0z" class="I"></path><path d="M224 182c0-1-1-4-1-5h0c1 2 2 5 2 7 2 4 3 10 6 13 1 2 3 4 5 6h-1c-3-1-4-5-7-7-3-4-4-9-4-14z" class="M"></path><path d="M112 360h-1v1c-2-2-2-3-3-5s-1-6 0-8v-4l1-3c0-1 0-2 1-3h0v2 1 2c0 1-1 0-1 1v5h1c0 4 0 7 1 11h1z" class="K"></path><path d="M225 293c0-5 2-9 3-14h0c0 4-1 8-1 12l-1 14c0 2 0 4-1 6v-7-11z" class="F"></path><path d="M97 390h0c0 3-2 8-1 11 1 1 1 3 1 5v3c1 1 0 3 1 4 1 2 0 5 1 8-2-6-4-12-4-17s1-9 2-14z" class="E"></path><path d="M193 413l2 2h1c1 1 2 2 2 3 2 2 4 4 5 6l1 2h1 0-3l-1 1c-2-1-3-2-4-4l-1-2 1-1c0-1 0-2-1-3s-3-2-3-4z" class="K"></path><path d="M197 423c1 0 1-1 2-1h1c1 1 2 3 4 4h0 1 0-3l-1 1c-2-1-3-2-4-4z" class="H"></path><path d="M183 248c0 1 0 3-1 4-1 4-1 8-3 11v-4c1-2 0-3 1-4v-6c2-5 5-11 7-14l-2 7c-1 2-2 4-2 6z" class="F"></path><path d="M246 256v-1l1-1c1 1 0 3 1 4h0v-3c1 4 1 8 1 13v5h0v1s0 1-1 2v-7h-2v1-14z" class="G"></path><path d="M246 256h1l1 13h-2v1-14z" class="D"></path><path d="M92 428l4 6-1 1c0 4 2 9 4 13 1 4 2 8 4 11h-1c-4-5-7-13-8-20v-5c0-2-1-4-2-6z" class="F"></path><path d="M200 286h1c-1 3-1 7-1 10 1 5 1 11 2 16 0 3 1 5 1 7-3-5-4-11-4-17v-6c0-3 0-7 1-10zm-67 141c2 3 3 6 5 9l4 4c3 3 6 5 9 7-3-1-7-2-10-4-5-4-7-10-8-16z" class="D"></path><path d="M197 290c1 0 0 5 0 6 0 8 1 15 4 23h-1l-2-3c-1-1-1-3-2-5-1-5-1-12 0-18l1-3z" class="B"></path><path d="M132 316c0 1 0 3-1 4v9 15c0 3 0 5 1 7h0l-1-1-1-4c-1-3-1-7-1-10 0-4 1-9 1-13 1-2 1-5 2-7z" class="C"></path><path d="M330 158c-1-3-2-7-4-9-3-4-7-4-12-5h0 1c3-1 7-1 9 1 5 2 6 5 7 10 0 1 0 2-1 2v1z" class="F"></path><path d="M190 386c1 0 2 3 4 3 1-1 1-1 1-3h1v2l-1 1h0c2 2 2 4 3 6v2l-6-3c-2-2-2-5-2-8z" class="J"></path><path d="M240 225h0v6c1 2 0 4 0 6 0 3-1 7-1 10v10c0 2-1 5-1 7v6 1-21c0-8-1-17 2-25zm-27 55l3-12v-1h1c-1 1-1 3-1 4-1 1-1 2-1 3v8c0 7-1 13 0 19 0 2 0 5 1 7l1 1h0v1 1c-1 0-1-1-1-2-1-1-1-3-2-5 0-1 0-3-1-4v-6-14z" class="D"></path><path d="M208 234c1 2-1 7-2 9 0 3-1 8-1 12l2-10c1-1 0-2 1-4h0v10c-1 4-3 8-4 13-1-10 0-21 4-30z" class="L"></path><path d="M86 400h0c0 9 2 17 4 26l-1-2c-1-1-1-4-2-5v2c0 2 1 4 1 5 1 1 1 1 1 2-1-1-1-1-1-2-3-4-3-10-3-15 0-4 0-8 1-11z" class="E"></path><path d="M282 263v-7c3 9 4 19 2 28 0 2 0 3-1 5v-1c0-1 1-2 0-4v-6h-1v-5h1v-3l-1-7z" class="F"></path><path d="M283 270c1 4 1 10 0 14v-6h-1v-5h1v-3z" class="G"></path><path d="M252 453h0c0 3 2 5 3 7 1 5 1 10 2 15-2-4-3-7-3-11 0-1-1-2-1-4v-1c-1 1 0 5 0 6 1 3 1 6 1 9-2-4-3-9-3-14 0-1 1-2 1-3v-4z" class="B"></path><path d="M190 277l-1 3c0 3-1 5-1 7-1 5-1 9-1 13 0 7 1 14 1 21h0c-2-6-2-12-3-18v-7c0-3 2-5 2-8 1-4 1-8 3-11z" class="C"></path><path d="M185 278h0c-4 11-6 24-5 35 0 3 1 7 1 10h0c-1-1-1-1-1-2-3-10-2-20 1-31 1-4 2-8 4-12z" class="D"></path><path d="M286 243v-4l-2-2c0 1 3 11 3 12-2-2-2-4-4-7 0-2-2-4-2-6s-1-6-1-9c2 3 2 7 4 10 1-3-1-7-2-10l1 1c1 2 3 6 4 9h0v2-1c-1 0-1 0-1 1v2 1 1z" class="E"></path><path d="M241 400h0 1c1 4 1 8 2 11 1 6 2 12 2 18 1 2 1 4 1 7l-1-1c-1-3-2-6-2-9-1-6-1-11-1-17-1-3-2-6-2-9z" class="C"></path><path d="M143 319h0c1 4 0 8 0 12 1 3 2 5 2 7l2 8c-2-3-3-6-3-9l-1-1c0 3 1 7 1 10-2-5-3-10-3-15l2-12z" class="E"></path><path d="M315 148c0-1 1 0 1 0h2c0 4 0 10-1 14l-1 1c-1 0-1-1-2-1 0-5-1-10 1-14z" class="D"></path><path d="M234 220c1 1 0 4 0 6l-3 12c-1 2 0 4-1 5 0 2-1 5 0 7 0-2 1-4 1-6l-1 15v4h-1v-3-9c0-1-1-2-1-4 1-3 2-6 2-8s0-4 1-5c0-1 0-3 1-4 0-3 1-7 2-10z" class="E"></path><path d="M183 271v1l-3 6c0 1-1 3-1 5l-3 3c-2 7-3 14-3 21v10c-1-2-2-5-2-7-1-8 1-16 4-23 1-2 3-4 4-7s2-7 4-9z" class="F"></path><path d="M258 315c1 1 1 2 1 4l2 9-1-11v-1c1 0 1 2 1 3 1 6 1 11 0 17 0 1 0 3-1 5-1-3 0-8 1-12-2 2-1 8-3 9v-23z" class="J"></path><path d="M251 405c1 2 2 14 3 17 0-1-1-13-1-16h0l2 13c1 3 1 7 1 11v5c-1-1-1-2-1-3-1-2-2-4-2-6-2-7-2-14-2-21z" class="F"></path><path d="M189 365c1 0 1 3 1 5 0 4 4 8 4 12 1 2 0 3 0 5h-1c0-1-1-1-2-2-1 0-1 0-1-1-1-4-1-8-1-13v-6z" class="J"></path><path d="M244 401c1 1 1 2 1 3 0 3 1 6 2 8s1 4 1 6c1 3 1 6 2 8v13c-4-11-3-24-6-35v-3z" class="F"></path><path d="M194 277l-1 6c-3 12-3 26 0 37h0l-2-2c-4-10-2-20 0-30 1-4 1-8 3-11z" class="B"></path><path d="M288 255h0c4 9 5 22 2 32v-8l-1 3c0 2-1 5-2 7 0-5 2-10 2-15 1-6 0-13-1-19z" class="D"></path><path d="M247 204c1 1 3 2 4 3h0c2 4 8 9 12 11v1l-9-6-1-1c-8-5-14-17-16-27l4 10 6 9z" class="M"></path><path d="M194 281l1 1c0 1-1 2-1 3v7c0 10 1 19 3 28h0l-2-3c-3-4-3-9-3-14 0-7 1-14 2-22z" class="B"></path><path d="M261 543c1 0 2 0 2 1 2 1 2 2 3 4 0 2 0 7-1 9 0 0-1 1-2 1-2 0-4-1-6-3-2-1-3-3-3-6h1c1 3 2 5 4 6h2c-3-1-4-4-5-6 1 1 2 3 4 4 0-1-1-2 0-3 1 1 0 3 1 4h2v1c1 0 1 0 1-1 1-2-1-7-2-10-1 0-1 0-1-1z" class="C"></path><path d="M321 149c1 0 2 1 3 2s1 3 1 4c0 4-1 5-4 8h-1-2c1-3 2-6 2-9 0-2 0-4 1-5z" class="J"></path><path d="M163 428h1 1v4l3 6c0 1 0 1 1 1 0 1 1 1 1 2 0 0 1 0 1 1h0-1 0c-1 1-2 1-3 1 0 0-1-1-1-2l-2-2v-1c-2-2-4-4-4-7v-1h0 0c1 1 1 1 1 2h1l1 1v-3-2zm51-124c-2 2 0 4-1 6-2-2-2-5-2-7v-2c0-3-1-7 0-10v-4c1-2 0-3 1-4 0-2 0-2 1-3v14 6c1 1 1 3 1 4z" class="I"></path><path d="M172 432c0-2-1-4-2-5v-1-1c1 0 2 1 2 2s1 3 2 4c0 0 0 1 1 1 0 1 0 1 1 1h0c0-2-1-3-2-4h0v-2l1 1c1 0 1-1 2-1 1 1 2 3 3 4 0 1 1 2 2 2 0 1 1 1 2 2h-1c-1 0-1-1-2-1v1h0s1 1 1 2v1h-3c-3-1-4-5-7-6z" class="G"></path><path d="M175 428c1 0 1-1 2-1 1 1 2 3 3 4l-3 1-1-2c0-1-1-2-1-2z" class="I"></path><path d="M180 431c0 1 1 2 2 2 0 1 1 1 2 2h-1c-1 0-1-1-2-1v1h0s1 1 1 2v1c0-2-2-2-3-4 0-1-1-1-2-2l3-1z" class="K"></path><path d="M121 331c1 1 0 7 0 9 0 6-1 12 0 18l1 3c-1-2-2-5-2-8-1 1-1 3-1 5h0c-2-3-2-8-1-12v-4c-1-3 0-6 1-9v8c1-3 1-7 2-10z" class="L"></path><path d="M175 460c0-1 0-1-1-2h1l-2-1c0-2-1-3-2-4h1c1 0 1 1 1 1l1 1c0 1 1 1 1 2l1 1 1 1 2 2c1 0 1 0 2-1l-2-3 1-1h1v1l2 2c0 1 0 0 1 1l1 1 4 3c1 0 1 0 2 1h-2c1 2 1 2 2 2l-2 1-14-8z" class="H"></path><path d="M179 457l1-1h1v1l2 2c0 1 0 0 1 1l1 1 4 3h0c-2 0-7-3-8-4l-2-3z" class="M"></path><path d="M209 340l2 2h-1 0c-1 1 0 2 0 3 1 1 0 1 0 1l-1-1v-1l-1-1h-1c-1-1-2-1-2-2s-1-1-1-2c-1-1-3-2-3-3-1-2-2-3-4-4h0c2-1 2 1 3 1 3-2 0-2 0-4 1 0 3 3 5 3 0 0 1 2 2 3h0l1 1v1 1 1s1 0 1 1z" class="H"></path><path d="M294 297c1-1 2-3 3-5 1-5 0-10 1-15 0-7 2-14 1-22v1c1 3 1 6 1 8 1 10 1 22-3 31-1 1-2 2-3 2z" class="B"></path><path d="M228 196c0 2 1 1 1 3l6 6 2 1c0 1 1 2 2 2l-1 1v-1c-2-1-8-7-9-8-1-2-3-3-4-5s-1-4-3-6h0v-1-1l-1-2c0-1-1-2-1-3v-1h-1v-1-1-3h1c0 1 0 2 1 3v-1h1 0c0 2 1 3 1 5h0l1-1c0 5 1 10 4 14z" class="G"></path><path d="M223 311c-1-3-2-7-2-9 0-4 0-8 1-12 0-4 1-7 2-11 0-3 0-6 1-9 1 6-1 12-1 18v4l1 1v11h-1c0 2 0 6-1 7z" class="B"></path><path d="M223 311c0-7 0-15 1-23v4l1 1v11h-1c0 2 0 6-1 7z" class="I"></path><path d="M312 147c1 0 1 0 1 1v14c-1-1-3-2-4-4l-5-6c2-2 5-4 8-5z" class="J"></path><path d="M321 181h5c1 0 2 1 2 0h1v1h-1-1-4c-3 0-5 1-8 1-1 1-3 0-4 1h-4c-2 1-3 1-5 1-12 3-24 6-35 12h0c-2-1-3-3-4-5 1 0 3 3 4 4 12-6 25-10 38-13 1 0 3 0 4-1h4l8-1z" class="E"></path><path d="M274 552v1c0 1-1 1-1 2h1l1-2c1-5 0-9-1-13v-1l3 3c1 3 1 7 0 10 0 2-2 4-3 4-1 1-2 1-4 0-3-3-3-9-4-12-1-2-1-3-2-4 3 2 5 5 6 8v1c1 1 1 3 2 4v-1l1-2h0c1 1 1 2 1 2z" class="C"></path><path d="M138 330c-1 2-1 4 0 6 1 3 1 8 1 11-2-3-1-7-3-10 0 1 1 3 1 4v8c-1-5-2-9-2-13l-1-1v16c-1-6-2-11-2-17 0-3 1-6 2-8l2-11c0-1 0-1 1-1-1 2-1 5-1 8-1 2-1 4-1 6v6c1-2 1-3 2-4h1z" class="D"></path><path d="M176 386c-2-1-4-3-4-5-1-1-1-3-1-5 0-5 0-9 2-14 3 3 4 5 6 8l-4 6c-1-4-1-6-2-10h0c-1 1 0 2 0 4-1 2 0 6 2 8h0c2 1 2 1 2 2 1 2 0 3 0 5l-1 1zm167-235c3 9 7 17 12 25-2 0-5 0-7-1h0l1-1v-1h-2c0-1-1-2-1-3v-1h0c-1-2-2-3-3-5s-4-4-5-7v-1 1c2 3 5 6 8 9-1-2-3-5-3-7 0-1-1-4-2-5 0-1-1-1-2-2-1-2-1-4-1-5-2-3-4-6-4-9h1l3 6c0 2 1 7 3 8v-1h1v2h0 1l-1-2h1z" class="B"></path><path d="M203 367h1c1 1 1 2 1 3l1 2c0 3 0 10-2 12h0c-1 2 0 5 0 7 1 4 1 8 2 12-1-1-3-3-4-5 0-1 0-2-1-3 0-1 0-1-1-1 0-1 0-2-1-3 0-3-1-5-2-7 0-5 2-10 4-15 0 9-2 18 0 27l1-13v-10c0-2 0-5 1-6z" class="J"></path><path d="M172 432c3 1 4 5 7 6h3v-1c0-1-1-2-1-2h0v-1c1 0 1 1 2 1h1 0 1l-2-3h1c1 1 2 1 2 2v-1h1-1l1-1h0 2 0c1 1 1 1 2 1v1h-1l1 1h-2c0 1 0 1 1 2 0-1 0-1-1-1 1-1 1-1 2-1h1l1 1-1 1h-1c-1 0-1 1-1 1h0v2l1 1c-1 0-1 1-1 1-1 0-1 1-2 2h0c0 2 0 2 1 3v1l1 1h0l-4-1c1 1 2 1 3 3-2-1-3-2-5-3h-2v1l-3-2v-1h1v-2c0-2-4-4-5-5-1 0-1 0-1-1l-2-2v-4z" class="I"></path><path d="M189 448l-5-2 4-2c0 2 0 2 1 3v1z" class="B"></path><path d="M315 197c-4 1-7 4-11 6-2 2-5 3-7 5l-12 12c1 1 1 1 1 2h0-1c0-1 0-2-1-2-2 1-4 4-6 5-1 1-1 2-3 3l1 1c1 2 1 5 1 7 1 4 3 9 3 14-1-3-2-5-3-8-1-5 0-10-3-14l5-5c0-1 1-1 1-2s0-1-1-2h0 1c0 1 1 1 1 1 1 0 1 0 1-1l-1-1v-1c1 0 2 2 3 1s1-1 1-2h1c0-1 0-1-1-2 1 0 2 1 2 1 1-1 2-1 2-2 1-1 3-3 5-4 7-6 15-11 22-15 4-1 7-3 11-4l2-1c1 0 1-1 1-1h0c1 0 2 0 2 1 2 0 4-2 6-1 0 0 0 1-1 1-1 1-3 1-4 1-2 1-3 2-5 3h-1l-3 3-6 5c-1 0-2 1-3 2l-1-1 2-2h0c-1 0-2 1-3 1l4-3-2-1z" class="L"></path><path d="M315 197c3-2 6-3 9-4 1-1 3-2 5-2h0c0 1-1 1-2 2h-1c-1 0-2 1-4 2s-4 2-5 3l-2-1z" class="H"></path><path d="M170 353h3v-1l-6-3c5-1 14-3 19 0v1c-2 2-4 1-7 2 1 1 5 1 7 0h1c5 3 10 3 14 6 3 1 4 3 6 4 3 3 4 6 5 9s0 7 0 10c-1 3-1 7-1 10 1 9 4 16 7 24-6-6-12-15-12-24 0-6 1-11 1-16 0-4-1-9-2-13-1 1-5 3-5 4l-3 9c0-2-1-4-1-5l1-1c0-1 0-1-1-2 0 0-1 0-1-1-2-1-4-3-5-5s-2-4-4-5v1c0 3 1 6 1 9 1 4 0 7 0 11s1 7 1 11c0 2 0 5 1 7 2 2 5 3 7 5-2 0-9 0-11-2-2-4-2-12-2-16 0-6-1-11 0-16l1-4h-1c-1 1-1 2-2 3h0c-1 3-1 7-1 10 0 1 1 2 0 3h0c-1-1-1-1-1-2v-6c0-5 0-9-3-14h0c-4 1-8 1-11 3h6v1c-4 8-3 15-1 23 0 3 0 6 1 8 1 5 4 7 7 9-2 0-5 1-7-1-4-3-5-12-6-16v-3l-2-14v-2c0-1-1-2-2-2-2-1-3-3-5-3h-1c3-2 5-3 8-4 2-1 5-1 7-2z" class="J"></path><path d="M371 155c15-1 29 2 43 5 9 2 19 5 27 10 22 12 41 31 48 56 8 27 5 59-9 84-13 24-34 42-61 51-8 3-17 5-25 7 2 1 5 1 8 1l15 2c11 1 23 5 34 8l12 6c25 14 45 37 57 63 3 6 5 11 6 17 3 8 6 16 7 24 1 5 1 9 1 14 1 17 0 33-6 49l-4 11c-7 15-15 30-25 42-7 7-15 14-23 19-8 6-16 11-26 14-11 4-23 5-35 7l-13 1c-14 2-27 1-41 1l-18 1-32-1c-12 0-25-1-37 1-2 1-5 1-8 2-3 2-4 5-6 8l-2-2c-1-2-1-4-1-6 0-11 13-13 20-20 3-3 4-8 6-12 4-17 2-36 3-53 0-9 2-17 1-26-1-6-4-11-7-16-3-7-5-16-6-23-1-13-1-26-2-38l-4-50c0-12-1-24 0-36 2-13 8-26 13-39 1 10 1 19 1 29 0 4 0 8-1 12 0-1-1-2-2-3 0 2 2 4 2 6 1 3 0 6 0 9l-2 23-3 40c-1 13 0 25 1 38 1 5 2 12 5 16 0 2 2 3 3 4 1-7 1-14 1-20v-35l-1-84c0-16 1-32-1-47-1-6-3-12-6-17-3-3-7-6-11-8-2-1-6-2-8-4-2-1-2-3-2-5 0-3 0-6 2-8h1c1 2 2 3 3 5 7 7 18 12 28 13 10 0 22-3 30-10 2-1 3-3 4-5l1 1c1 1 1 2 1 3 0 10-12 11-18 16-2 3-3 6-4 9-2 6-1 14-1 21v28c7-1 14 0 21-1h23c9 0 17 0 26-2 15-3 29-11 39-22 3-4 7-9 10-14 9-16 13-35 15-54 1-16 1-31-3-47-2-10-6-19-11-28-9-13-22-24-37-30-4-1-9-2-14-3l-9-1c-2 0-9 1-11 0 0-2 1-4 2-6h7l9-1z"></path><path d="M304 372h1 23c7-1 13-1 20 0 6 0 11 1 17 2 23 5 45 13 62 30l12 12 9 12c18 25 27 56 28 87 0 11-1 23-3 34-1 4-2 9-3 13-6 17-16 32-28 44-4 4-9 9-13 12-15 11-33 18-51 20-8 1-16 2-24 2h-24c-6 0-15 1-19-4-4-4-5-8-6-13-1-6 0-12 0-18l-1-40v-91-102z" class="J"></path><path d="M408 552c1 0 2 0 3-1-1 1-1 2-1 3-1 1-2 2-3 2l1-4z" class="G"></path><path d="M404 517l1-1h0 2c1 4 1 7 1 11-1-1-1-3-1-5s-2-4-3-5z" class="K"></path><path d="M378 490c1 0 1 0 2 1v5l-1 4c0-1-1-2-1-3-1-1-1-2-2-3 0-2 1-3 2-4zm-40 121c0 3-4 6-6 9 1 0 1-1 2-1l6-6v-1l1 1c-4 5-10 10-17 12 2-2 4-3 6-4 3-3 6-7 8-10z"></path><path d="M375 502l2 1h1c1 2 1 3 2 5 2 2 3 4 5 6-3-2-5-4-8-6v-4h-3c-1-1-2 0-3-2h1 3z" class="N"></path><path d="M311 584c1 0 1 0 1 1s1 3 1 4h0c1 1 1 2 1 2l1 1s1 0 1 1v1h-1-1-1l1 1v2h-1c-3-3-2-10-2-13z"></path><path d="M324 498c0-1 1-1 2-1 1 1 1 2 0 4h0c0 3-2 6-3 9-1-5-2-8 1-12z" class="I"></path><path d="M324 498c0-1 1-1 2-1 1 1 1 2 0 4h0-1s0 1-1 2h-1l1-4v-1z" class="H"></path><path d="M367 504c2-1 2-1 2-2 1 0 2-1 3 0h-1c1 2 2 1 3 2h3v4l-12-3 2-1z" class="K"></path><path d="M327 523c2-4 9-6 12-8l-1 2c-3 3-3 7-6 11v-1-1-1s0-1 1-1v-1h-1 0c0-1-1-1-1-1-1 0-1 0-2 1-1 0-1 1-1 1l-1-1z"></path><path d="M386 511v-2h1v1c0-2-1-3-1-4h0c1 0 1 1 1 1 1 1 1 3 2 3v1c1 1 2 1 3 2h1c1 4 3 7 4 11-2-2-3-5-5-7l-6-6z" class="K"></path><path d="M319 457v2c1-2 1-4 1-6 0-4-3-10 0-13h1c2 3 2 7 2 10-1 4-2 8-4 11-1-1 0-2 0-4z" class="H"></path><path d="M346 587c1-2 3-5 4-8 3 5 6 11 4 17 0 2-2 4-3 6l-2-1c1-2 2-3 3-4 2-5 0-9-2-14l-3 5-1-1zm-12 4h2l2 2c-1 1-1 3-2 3-3 3-8 2-11 3h-3c2-1 3-2 5-3s4-4 7-5z"></path><path d="M327 523l1 1s0-1 1-1c1-1 1-1 2-1 0 0 1 0 1 1h0 1v1c-1 0-1 1-1 1v1 1 1c-2 2-4 4-6 7-1 1-2 3-3 5 0 0-1 2-1 3l-1-1c1-2 3-5 4-8 1-2 1-4 2-6 0-1-1-3 0-5z" class="G"></path><path d="M365 505c-2-2-5-4-7-6 5-1 9-1 13 0 3 0 5 1 7 4h-1l-2-1h-3c-1-1-2 0-3 0 0 1 0 1-2 2l-2 1z"></path><path d="M367 504c-2-1-4-3-6-5h0 4c4 0 7 1 10 3h-3c-1-1-2 0-3 0 0 1 0 1-2 2z" class="J"></path><path d="M310 466h0c3 2 5 5 6 8 1 4 0 9 0 12v1 4l-1 1v1c-2-2-1-11-2-14-1-4-2-9-3-13z" class="G"></path><path d="M366 478h1c5 4 4 11 7 17v-1c-3-2-9-5-9-9-1-3 0-5 1-7z"></path><path d="M366 480h1l4 9-5-4v-5z" class="B"></path><path d="M401 521h0c2 2 4 3 5 6 2 3 1 10 0 14l-1 1h0c0-7-7-14-4-21zm-85 81l7 3c3 1 7 3 8 5v3c-1 0-2 1-3 1-6 0-7-5-10-9 0-1-1-2-2-3z"></path><path d="M321 605c3 1 5 3 7 5 1 1 1 1 1 2h-2c-3-1-5-5-6-7z" class="C"></path><path d="M361 396h2v2c1 7-7 15-10 20l-1 1c1-3 3-5 3-8 1-3 1-5 2-8 0-3 2-6 4-7z"></path><path d="M386 511c-2-3-4-7-3-11l1-4c2 1 4 3 5 4 2 3 3 9 4 13h0-1c-1-1-2-1-3-2v-1c-1 0-1-2-2-3 0 0 0-1-1-1h0c0 1 1 2 1 4v-1h-1v2z" class="N"></path><path d="M389 503c1 2 2 6 2 8l-3-6 1-2z" class="F"></path><path d="M388 505c-1-2-3-3-4-4 1-1 1-2 1-3 2 2 3 3 4 5l-1 2zm-41 83l3-5c2 5 4 9 2 14-1 1-2 2-3 4l-2 1h0v-1c-1-1-1-2-1-3s1-1 1-2l-1-1c0-2 1-5 1-7z" class="B"></path><path d="M346 595h0c1 0 2-1 3-2l1-4h1c1 1 1 2 1 4-1 2-2 5-5 7h0v-2h-1c0-1 1-1 1-2l-1-1z" class="H"></path><path d="M402 514c-1-3-2-5-1-8s3-6 5-9c1 6 2 11 2 17l-1 2h-2 0l-1 1c-1-1-1-2-2-3z" class="I"></path><path d="M403 513c-1-2-1-3-2-5 0-2 1-3 3-5h1 0l-1 1v4 1 3l-1 1z" class="C"></path><path d="M404 508c1 0 1 1 1 1h1v2l-1 2v1h3l-1 2h-2 0l-1 1c-1-1-1-2-2-3 0-1 1-1 1-1l1-1v-3-1z" class="N"></path><path d="M324 566c1 1 1 0 1 1 2 1 3 7 3 9-1 8-4 16-9 22h-1 0c1-2 3-4 4-6 2-4 0-7 0-11-1-2-1-5-1-7 0-3 1-6 3-8zm-2-23l3-3c5-3 12-10 17-10 1 0 2 0 2 1v3c-3 4-8 4-13 5-7 2-13 8-17 14h0c2-4 4-7 6-10l1-1 1 1z"></path><path d="M340 531h2 1l-1 1c-1 2-2 2-4 3h-1 0c0-1 2-3 3-4z" class="C"></path><path d="M346 405h1c2 1 3 2 3 3 2 6-3 13-5 18l-2 2s0-2 1-3c0-4-1-7-1-10 0-4 0-7 3-10z"></path><path d="M346 407h1c1 1 2 1 2 2 1 4-1 8-3 11 0-3 1-6 2-8l-1-1v2l-1 1c0 1 0 1-1 1v1 2h0 0c0-1 0-1-1-2v-1h1c0-1-1-1-1-1 0-2 1-5 2-7z" class="C"></path><path d="M324 417c5 9 6 18 4 28l-1-1c0-3-1-5-2-8-1-2-3-4-3-7-1-4 0-8 2-12z"></path><path d="M325 421c1 4 1 6 2 10-1-1-2-3-3-4h0c0 1 0 3 1 4 1 0 1 1 1 2h0c-2-2-3-4-4-6 0-3 1-4 3-6z" class="B"></path><path d="M306 598c5 3 8 5 9 11s0 12 0 18v5h-1l-2-2c-5-5-1-11-1-18 1-3 1-6-1-9 0-2-2-4-4-5z" class="G"></path><path d="M315 565c2-3 3-6 5-9 1-1 3-2 4-3s1-2 2-3h2s0 1 1 1h0c1-2 3-3 5-4 1 0 2 0 3 1s1 1 1 2c1 1 0 3-1 4s-2 2-4 2c-1 0-3-1-4-1s-2 1-2 1c-2 1-5 3-7 4-2 2-3 4-4 6l-1-1z"></path><path d="M335 549c1 0 1 0 2 1v2c0 1-1 2-2 2-2 0-2 0-3-1v-1c1-1 2-1 3-3h0z" class="F"></path><path d="M346 587l1 1c0 2-1 5-1 7l1 1c0 1-1 1-1 2s0 2 1 3v1h0l2-1 2 1-8 8c0 1-2 3-2 3l-1-1v1l-6 6c-1 0-1 1-2 1 2-3 6-6 6-9 0-1 3-6 3-7 2-6 2-11 5-17z" class="I"></path><path d="M315 565l1 1-2 4c-1 2 2 8 3 10 1 3 4 6 3 10v1c-1 2-3 5-5 7-1 0-1 0-2-1h1v-2l-1-1h1 1 1v-1c0-1-1-1-1-1l-1-1s0-1-1-2h0c0-1-1-3-1-4s0-1-1-1c0-7 1-13 4-19z" class="G"></path><path d="M312 585h1c0-2 0-3 1-4 2 1 3 3 4 5 0 2 0 3-1 5-1-1-2-2-3-2 1 1 1 2 2 3h-1l-1-1s0-1-1-2h0c0-1-1-3-1-4z" class="D"></path><path d="M380 389h1c0 1 1 1 1 1 0 2-1 4-2 6s-2 5-4 6c-3 3-7 4-10 6a30.44 30.44 0 0 0-8 8h-1c3-3 7-8 9-11 1-3 2-5 3-7 2-4 6-8 11-9z"></path><path d="M380 391h0 0c0 3-2 3-3 5l-6 4h-1l1-1c1-3 5-7 9-8z" class="B"></path><path d="M307 454c0-5 0-9 2-13 1 0 2 2 2 2 3 4 6 7 7 11 0 1 1 2 1 3 0 2-1 3 0 4l-2 12c0-2 0-4-1-6-2-3-5-5-7-8-1-2-1-4-2-5z"></path><path d="M310 454l-2-3 1-6c3 3 7 8 7 13h-1c-1-4-2-6-5-9h-1c0 2 3 3 4 5 1 1 1 3 1 5-2-2-2-4-4-5z" class="C"></path><path d="M307 454c0-5 0-9 2-13 1 0 2 2 2 2 3 4 6 7 7 11-1 0-2 1-2 2v2s0 1-1 0h1c0-5-4-10-7-13l-1 6 2 3c0 1 0 1 1 2v1l1 1h0l-1 1c0-1-2-3-2-4v-1h-2z" class="K"></path><path d="M336 498c3 0 6 1 9 2-2 5-4 9-10 11-3 1-5 2-7 4h0c-2 2-3 4-4 7-1-4 0-7 1-10 2-6 5-11 11-14z"></path><path d="M340 500h0c2 0 2 0 3 1 0 2-2 3-3 4 0 1-1 1-1 1 0-2 1-4 1-6zm-4 0c1-1 2-1 2 0v1c-1 2-2 4-4 5-2 0-2 1-3 1v1h-1 0c0-1 0-3 1-4 1-2 3-4 5-4z" class="C"></path><path d="M408 552c2-10 2-20 9-28 1-2 4-4 5-6 1-1 2-2 3-4 0 6 1 12-3 16l-5 5c-1 2-2 4-3 7l-3 9c-1 1-2 1-3 1z"></path><path d="M423 520h0c1 1 1 4 1 5-2 3-4 6-7 7 2-3 4-5 6-9-1 1-3 2-4 4l-3 3c-1 1-1 3-2 5l-1-1s0-1 1-2c1-5 5-9 9-12z" class="B"></path><path d="M425 482h1c1 1 2 2 2 3 1 3-1 8-2 11-2 4-3 8-5 12l-6 11c-2 4-3 8-5 12 1-3 1-6 2-9 0-3 1-5 1-8 1-4 1-8 1-13 0-2 1-5 2-7 1 2-1 6-1 8l1 1c0-1 0-2 1-3h-1v-1h1c1 3 0 7 0 10 1-2 1-3 2-5 0-1 0-4-1-6-1 0-1 0-1-1h1l1 2c1 2 1 6 0 7v4c2-4 4-9 4-14 0-1-1-3-1-5-1-3 2-7 3-9zm-88-19c5 0 7 2 11 4 2 1 4 1 6 2h-3c-6 1-10 5-16 7-2 1-5 1-7 2s-4 4-5 6c-1 1-2 3-3 5s-1 4-2 5h0c0-5 3-11 5-16 3-6 7-12 14-15z"></path><path d="M338 466h0 1 1c2 0 4 1 5 2-1 0-2 1-4 3-3 3-8 4-13 5 4-2 9-3 12-6v-1l-2 1c-2 1-5 3-7 3 1-3 7-3 9-6-3 0-8 3-11 4v-1h0c2-3 6-4 9-4z" class="C"></path><path d="M308 488c4 4 6 9 8 14 3 10 5 22 2 32-2 6-4 10-7 15l-2 5c0-3 2-7 2-10 1-8 1-15 1-23 1-8 1-17-1-25-1-3-2-6-3-8zm44 53h1c1 3 2 7 4 10l5 5c4 4 6 9 7 16 1 11-1 20-8 29l-2 2c6-8 10-22 3-31 0-1-2-2-3-3-2-2-3-4-4-6-3-7-2-15-3-22z"></path><path d="M356 560l3 3c2 2 3 3 2 6-3-2-4-6-5-9z" class="B"></path><path d="M356 553c3 2 5 4 6 6 1 1 2 3 2 4-2 0-3-1-4-2l-3-3c0-1 0-4-1-5z" class="J"></path><path d="M372 516h1c8 0 15 4 20 10s12 14 11 23c0 2-1 9-3 11l2-10c0-4-1-8-3-12-3-4-8-10-14-11h0c-6-1-12 1-18-2l-6-3c0-1-3 1-4 1h0c4-5 8-7 14-7z"></path><path d="M377 518c1 0 4 1 5 2h0l-1 1h-5c0-1 0-2 1-3h0z" class="D"></path><path d="M376 522h0c1 0 5 1 6 2h0l-6 1v-3z" class="B"></path><path d="M366 521h2c1 0 4 0 6 1l1 1v1l-1 1c-3-1-7-2-8-4zm3-4h6v1c-1 1-1 2-2 2-2 0-4 0-6-2h0l2-1z" class="C"></path><path d="M343 431c9-9 21-14 33-16l-8 8c-2 3-6 6-10 7-3 1-7 2-11 3-8 2-14 9-18 16h0-1c2-3 5-7 6-11v-12c0-1-1-3 0-5 1 0 2 0 3-1 0 1 1 1 1 1 2 3 2 6 1 9 2 0 2 0 3 1h1z"></path><path d="M339 430c2 0 2 0 3 1h1l-7 6 3-7zm-3-8h1c0 1 1 1 1 2s1 3 0 4c0 1-1 2-1 3h-1v-1l1-1v-2h-1v2h-1v-1c0-2 0-4 1-6z" class="C"></path><path d="M368 419h1 1l-2 3c-4 4-9 7-14 8v-1c3 0 5-1 7-3l3-3-1-1-5 5s-1 1-2 1c1-2 3-3 4-4 0-1 1-2 2-3h1l5-2z" class="D"></path><path d="M410 554c4-4 9-9 15-9 2 0 5 2 7 3l-3 3c-3 1-6 2-9 2-5 2-9 6-13 10-2 2-4 4-5 6l9-6c5-3 11-5 17-6 3 0 6-1 10 0 3 0 6 2 9 4l2 2c-2-1-4-1-7-1-5 0-9 2-14 3-5 0-10-1-14 1-4 0-7 2-9 4-3 2-6 5-8 7s-3 3-5 4c5-8 12-16 15-25 1 0 2-1 3-2z"></path><path d="M435 558c2 0 4 1 6 1v1l-3 1-4 1 1-4zm-8 1l2-1c1 0 2 0 3 1l-2 2h-4c0-1 0-1-1 0h0c-2 0-4 1-6 1 3-2 5-3 8-3z" class="C"></path><path d="M422 547h1c2 0 5 1 6 2-1 2-5 2-7 2h-2c-2 0-4 1-5 2 0-1 1-1 2-2 2-1 3-3 5-4z" class="J"></path><path d="M353 438c7-2 12 3 18 6 2 2 5 2 7 3-3 1-7 0-10 1-4 2-6 4-10 4-2 1-8 1-11 0-2 0-3-1-4-2-3 0-5 0-8 1-6 3-9 9-11 15l-7 20h-1c1-3 2-7 3-10 2-7 4-15 8-21 6-9 15-16 26-17z"></path><path d="M343 445c2-1 5-1 8-1v1c-1 1-6 1-7 1l-1-1z" class="C"></path><path d="M355 440c2-1 5 0 6 1v1c-1 0-2 1-3 1-1-1-1-2-3-3h0z" class="B"></path><path d="M347 448h1 2l2 2v1h-2c-1 0-3 0-5-1l1-1 1-1z" class="D"></path><path d="M355 440c-1 1-3 2-5 2-1 0-2 0-2-1v-1c2-1 5-1 7 0h0z" class="C"></path><path d="M344 446c-3 2-6 2-9 3 2-2 4-4 7-4h1l1 1z" class="B"></path><path d="M358 447h0c1-1 3 0 5 1h0l-4 2h-3c0-1-1-1-2-2l4-1zm5-5c3 1 5 2 7 3v1h-3 0c-3 0-4 0-7-1l3-3z" class="D"></path><path d="M436 568h0v1c-4 9-9 17-19 17-5 1-9 0-15 2-10 3-18 8-27 13h0 0l10-8 13-11c4-4 7-6 12-8 4-2 9-2 14-3 4 0 8-2 12-3z"></path><path d="M431 572s0-1 1 0l-2 1c-2 3-4 3-7 3 2-2 5-3 8-4z" class="C"></path><path d="M429 577v1l-3 3c-3 2-8 3-12 2h-1c4-5 11-3 16-6zm-15-2h3v1c-2 3-6 4-9 6-2 1-5 2-7 3l-2 1v-1c3-4 10-8 15-10z" class="J"></path><path d="M387 559c0 3-2 7-3 9-3 9-6 17-10 26 3-4 5-7 8-10s5-7 7-10l3-12c2-3 4-6 5-9 1-2 1-5 2-6h0c4 3 1 10 1 14v1c0 4-4 9-6 12-7 9-14 18-22 25l-13 11c-2 2-5 4-7 6l23-10c7-3 24-6 31-3 3 1 10 6 11 8l-1 1c-1 2-3 3-5 4h0c-3 1-5 1-8 1-4 0-8-1-12-1l-9-3c-4-1-9 0-14 0-7 1-15 5-21 8l-16 8c-4 2-9 4-13 6 4-4 10-7 15-10 11-6 22-14 31-23l6-9c4-7 8-15 7-23 0-5-2-10-3-15 0-5 2-7 4-11 1-1 1-3 2-4h1c1 1 2 3 3 4 1 2 3 4 3 6 1 3 1 7 0 9h0z"></path><path d="M391 604c1 0 1 0 2 1v1h-5s-1 0-2-1h1l4-1z" class="D"></path><path d="M397 557h1v3c-1 2-2 3-4 3h0c0-1 2-5 3-6z" class="C"></path><path d="M382 606h1l1 1c-2 2-9 3-12 3h-1c1-1 2-1 3-1 2-1 5-2 8-3zm1-51c-1-1-2-4-2-6-1-1-1-4 0-6h1l1 2c1 4 2 6 1 9l-1 1z" class="D"></path><path d="M382 557h1v1c1 1 1 2 1 3v1c-1 2-2 4-2 6l-2-5c0-2 1-4 2-6z" class="C"></path><path d="M399 603c3 0 5 1 8 3-1 1-2 1-3 1-2 1-6-1-8-2 1-1 2-1 3-2z" class="B"></path><path d="M378 548c1 0 1 0 1 1 0 3 1 7-1 11h0c-1-1-2-4-2-5 0-3 1-5 2-7zm29 61c1-1 1-1 2-1 1 1 4 2 5 3-1 1-2 2-4 2h-7c1-2 2-3 4-4z" class="J"></path><path d="M384 544c1 2 3 4 3 6 1 3 1 7 0 9h0v-4l-2 2-1-1v-1h-1l1-1c1-3 0-5-1-9l1-1z" class="I"></path><path d="M395 608h1c1 0 4 0 5 2-1 1-2 2-3 2-1 1-7 1-8 0-2 0-4-1-5-2 2 0 4 1 6 1 0-1-1-1-1-2l5-1z" class="J"></path></svg>