<svg xmlns="http://www.w3.org/2000/svg" xmlns:v="https://vecta.io/nano" viewBox="57 16 592 660"><!--oldViewBox="0 0 688 752"--><style>.B{fill:#fff}.C{fill:#fbf9fc}.D{fill:#f3f1f4}.E{fill:#dddadf}.F{fill:#ecebec}.G{fill:#b3b1b3}</style><path d="M603 536h2v1l-1 1c-1 0-1 0-2-1 0 0 0-1 1-1zm-538-2h1 1c0 1-1 3-1 4h-1v-4zm0 10h1v4l-1 1-1-1c0-1 0-3 1-4zm23-33h1c1 1 1 4 0 6h0l-1-1v-5zm3 0h1l1 1v5c-1 0-1 0-2-1v-5zm537-54h0l1 1c1 1 0 4 0 6h0-1c0-2-1-5 0-7zM65 512l1 1v6h-1l-1-1c0-1 0-4 1-6zm570-55c1 0 1 0 1 1l1 3c0 1 1 2 0 3h-2v-1c0-2-1-4 0-6zM147 643c2-1 8-1 10 0v1c-3 0-8 1-10 0v-1zm484-100c2-1 5-1 7 0 1 1 1 1 1 2v1h-2v-2-1l-7 1h0l1-1z"></path><path d="M73 518l-1-1h-1-1c0-2 0-4 1-5h2v-1 7z" class="D"></path><path d="M112 634h1c1 0 1 1 1 2-1 0-1 0-2 1-1 0-2 0-4-1-1 1-2 2-3 2s-1 0-2-1h-1c2-2 5-2 7-2 1 0 2 0 3-1h0zm18 9h1c2 0 5-1 7 0h1 1 6v1c-1 1-5 0-7 0h-4c-1 0-5 1-6 0l1-1z"></path><path d="M105 508h0l-2-2v-1h-1v-4h0v-1l2 2c1 0 1 1 2 1 0 1 1 1 1 2l3 3h0c-1 0-4 1-5 0z" class="D"></path><path d="M633 468h7v6h-1c-3-2-5-4-6-6zM118 629h1c0 1 0 2 1 2h0v1c-3 1-9 1-12 0h-2c1-3 9-1 11-2l1-1zm138-44h1c2-1 8 3 10 4 2 2 3 3 4 6v6h-1v-2c-1-2-1-5-2-7-2-3-5-5-8-6-1 0-2 0-3-1h-1zM421 51c2 8-2 16 0 24v1h0c-5-7-1-18 0-25zm175 425c1-1 2 0 3-1v1 7 5c-2 0-2 0-3-1 1-3 0-8 0-11zM405 614h1c0 3 1 19 1 21h-3-1l2-1h0c0-7-1-13 0-20z"></path><path d="M138 634c5 1 10 0 15 0v1h5v1h0-2c-2 1-6 1-8 1-2-2-7 0-10-1v-2h0z" class="E"></path><path d="M618 456h0c1 0 1 0 2 1l1 12-1 1h-3 0v-5c0-3-1-6 1-9zm-25 9h1c1 6 1 13 1 20 0 1-1 3-1 4v16h-1c-1-1 0-3 0-4v-13-23zM317 628c3 0 6 0 10 1-3 1-7 1-11 1h-22-10c10-2 22-1 33-2zm-89 3h5 11v1c2 1 3 1 5 1 3 0 5 0 8 1h-1-18-11l-1-2h0l2-1zm170-17l1 1c0 2 0 4 1 7h3 0l-3 1v1 8 2l1 1h0-3v-4-8l-5-1v5h2v1 1h-2-4c-1 0-1-1-2 0v6h-1 0c-1-5-1-9 0-14l1 6h5v-5c-1 0-2-1-3-1l1-1c1 0 1 0 2-1v-1c1 1 1 2 1 3h5c0-2-1-4 0-6v-1zm-252-71c2 0 2 0 3 1s0 1-1 2v1c1 2 3 1 5 2h0l-2 2v2c1 1 3 0 4 1 1 0 1 0 1 1-1 1-6 1-8 1v3h8c1 0 2 0 3 1l1 1c-2 1-9 0-11 1 0 1-1 1-1 1h-2v-8c1-2 2-1 3-2v-2c0-1-1 0-3-1 0-1 1-3 0-5v-2zm-2-6h1c0 4-1 8-2 12 0 8-1 16-2 24-2 11-6 21-12 30 1-4 3-8 5-12 2-6 3-11 5-17l4-25c0-4 0-9 1-12zm30 105h25 0 7 13v1c-5 1-10 0-15 0-2 0-4-1-6 1 2 2 21 0 26 1l-1 1h-27-17c-1-1-1-2-1-3h-4v-1zm437-232h1c1 3 1 8 1 11v2c0 1 1 1 2 3-1 0-2 1-2 2v4c0 4 0 10-1 14-1 6-3 11-5 15-1 3-4 7-4 11h0c-1-1-1-2-1-3 0-3 1-6 1-9v-14l7-1v-13c0-1 1-4 0-5 0-1-1-1-1-2s1-1 1-2c1-1 0-2 0-3 1-3 0-7 1-10zM73 511v-2c-2-1-10 1-13 1v-16l13 2c0-3 0-15 2-17h0c1 1 1 3 1 5s1 3 1 5c0 6-1 13 0 19l1 26v7c-2-2 0-8-2-9-1 0-1 0-2 1v16l-1 1c-1-2 1-7-1-9h-8-1l1-1h8l1-22v-7z"></path><path d="M75 489h0 1v30 8 3 1h-2l1-42z" class="C"></path><path d="M174 632c11-1 22-2 33 0v1l2-1h0v2c-2 0-5 0-6 1l1 1s1 0 2-1v1c2 0 12-1 13 0-3 0-8-1-12 1v-1h-1v1c1 0 2 0 2 1 3 1 9 1 12 1h6c10-2 20-1 30-1 6 0 12-1 17-1l1 1c-1 1-1 1-2 1l-71 1-1 1h-3c1 0 1 1 2 1h-25v-1l-1-1v-4l1-1h-8c-1 1-3 1-5 1h0c-1 0-1 0-2-1h1 6c1-1 6-1 7-1 1-1 1-1 1-2z"></path><path d="M174 641l27-1-1 1h-3c1 0 1 1 2 1h-25v-1z" class="F"></path><path d="M173 636l1-1h-8c-1 1-3 1-5 1h0c-1 0-1 0-2-1h1 6c1-1 6-1 7-1l23 1c-5 1-12 1-17 1-2 0-4 1-6 0z" class="C"></path><path d="M356 307c-1 3-2 7-4 10-2 6-4 11-6 17-4 7-9 14-11 22-2 4-3 9-3 14 0 9 1 17 1 25l3 28c2 18 3 37 7 55h-1v-1c-2-5-2-10-3-15l-3-20-5-38c-1-9-2-19-2-28 0-7 1-14 3-21 2-8 6-15 10-22l14-26zm62-262c1-1 1-1 2 0v5c0 3-1 5-1 8-2 4-3 10-2 15 2 5 6 6 11 9 4 2 11 6 13 11h0l-12-8c-6-3-12-7-18-9-4-1-9-1-13-2-2-1-3-2-5-3 5-6 10-12 15-17 3-3 6-7 10-9zM210 621h1c5 1 12 2 17 1v-1h1v3h5v1c3 0 22-1 23 0 1 0 1 1 1 1h0c2 0 10 0 11 1-2 1-8 0-10 0-2 1-4 1-6 1-7 1-16 1-24 0l-1-1s-1 0-2 1l1 1v1c-3 1-8-1-11 1v-1c-1 0-2 0-2 1l-1-1h-2c0 1-1 0-1 0 1 2 2 1 2 3h0l-1 1v-1c-1-1-1-1-2-1h0l-2 1v-1c-11-2-22-1-33 0 1 0 2-1 2-1-1 0-1-1-2-1v-3c-2-2-12 0-15-1v-1-2c2-1 9-1 11-1h3 0 9l21-1h7z"></path><path d="M170 622h3 0 9l-2 1h0 5c-4 1-9 1-12 1h0c-1 0 0 0-1-1h0c-1 0-2 0-2-1z" class="F"></path><path d="M159 625v-2c2-1 9-1 11-1 0 1 1 1 2 1h0c1 1 0 1 1 1-2 1-4 1-6 1h-8z" class="E"></path><path d="M228 622v-1h1v3h5v1c-5 0-29 1-31 0 1-1 1-1 2-1 5-1 11 0 16 0 2 0 5 0 7-1v-1z" class="D"></path><path d="M210 621h1c1 0 1 0 1 1-3 1-7 1-9 1h-14-4-5 0l2-1 21-1h7z" class="E"></path><path d="M174 630h21c4 0 12 1 15-1-2 0-5 0-7-1h0c4-1 8 0 12 0 2 0 4-1 5 0-1 1-3 0-5 1 1 1 10 1 12 1-3 1-8-1-11 1v-1c-1 0-2 0-2 1l-1-1h-2c0 1-1 0-1 0 1 2 2 1 2 3h0l-1 1v-1c-1-1-1-1-2-1h0l-2 1v-1c-11-2-22-1-33 0 1 0 2-1 2-1-1 0-1-1-2-1z" class="D"></path><path d="M138 634c-2-1-4 0-5 1l-10 4-11 4c5 1 9 0 14 1-6 1-13 1-19 1-7 0-13 1-20 1 2-2 4-3 6-4 2 0 4 0 6-1 6-1 12-2 18-4 13-5 25-12 37-18 5-3 11-6 16-8 4-1 8-3 12-2 1 0 1 0 1 1 1 0 1 1 1 2-2 1-4 1-6 1v1h7s2-1 2 0c1 0 2 1 3 1 2 2 4 3 6 4 4 1 11-1 14 2h-7l-21 1h-9 0-3c-2 0-9 0-11 1v2 1l-1-1v-2h0c-1 1-2 1-3 1h-1l-16 9h19 0c-1 1-2 1-4 1-5 0-10 1-15 0z"></path><path d="M178 613v1c-1 2 1 2 1 3-2 1-4 1-5 1h-9c4-2 9-4 13-5z" class="D"></path><path d="M154 624c2-2 6-4 9-4 2-1 9-1 11 1l-1 1h-3c-2 0-9 0-11 1v2 1l-1-1v-2h0c-1 1-2 1-3 1h-1z" class="C"></path><path d="M66 566l-4-1h0c0-1 0-2 1-2l2-1s0-1-1-1c0 0-1-1-2-1v-1c2-2 6-1 9-2 0 0 2 1 2 0v-2c-2-1-12 3-13-1v-2c2-1 8-1 10-1l24-2h10 0c-1 2-3 3-4 5-1 1-2 4-3 4-1 1-3 1-3 1-3 0-11-1-13 1v1c3 1 11-1 12 1 0 1-1 1-2 1l-4 1c-1 1-1 2 0 3v2c-1 1-4 0-4 1-1 1 0 4-1 5-3 1-6 1-9 1h-2c-1 0-1 1-1 1v2h6 0 1c-1 1-1 2-2 2-2 1-8 1-8 2-1 0-1 1-1 2 2 1 4 0 5 1-2 2-5 0-7 2 0 1 0 1-1 2 1 1 3 1 4 2v1c-2 1-5 1-7 1 1-2 1-3 2-4 0-3 0-7-1-11h7c1-1 0-1 0-2-2-1-4 0-6-1l-1-1c1-1 1-1 2-1 4-1 9-1 14-1h4v-1-2h-4l-10 1c-2 0-4 0-6-1 0-1 0-1 1-1 1-1 3-1 4-1v-2z"></path><path d="M66 566c2-1 8-2 10-1v2c-1 1-2 1-3 1h-7v-2z" class="E"></path><path d="M80 554h3c1 1 1 2 1 2-2 1-4 1-6 1-1 0-2 1-3 0v-2l5-1z" class="B"></path><path d="M84 564h1v3h-6-2c0-1 0-2 1-2 2-1 4-1 6-1zm-9-4c1 0 3-1 4 0l-1 1c-2 1-6 1-9 1-1 0-2 1-3 0v-1c1-1 7-1 9-1z" class="C"></path><path d="M96 554h1 0v2c-2 1-8 1-10 1-1 0-1 0-2-1v-2c2-1 9 0 11 0z" class="B"></path><path d="M639 440h1v16c-4 0-8 0-11 1h-4c-2-1-8-12-9-15-1 5-3 10-5 15-1 2-2 3-3 5-2 6-3 12-4 18v5c1 1 1 1 0 2h0c1 1 3 0 4 0h8c0-2 0-5-1-6v-1c1-1 0-4 0-5 1-1 1-1 2-1h0c0 1-1 1-1 2l1 1v2h3 0c1 0 3-1 4-2 2-3 5-5 8-8h0-11 2 1l8-1c1 3 4 5 6 7 1 1 2 2 2 3v3h-1s-2-2-2-3c-1-2-3-4-5-5-3 4-9 7-14 10v4l9-1c1-1 0-6 0-8h1c1 3 1 6 1 8h11v1 1h-9l-13 1v4 6c1-2 2-6 4-7s4-1 5 0c1 0 2 1 2 2 1 2 3 7 2 10h-1l1 1c1 0 1 0 2-1v-1c0-3 0-10 2-12h1c0 1 1 2 1 3 1 1 1 2 1 3l-2-5c-1 4-1 8-1 12h-1 5v1 2c-1 0-2 1-2 1-2 1-4 1-6 1-5 0-10-1-15 0-1 0-1 1-2 2-2 2-20 0-24 0l2-5 24-1v-16h-4-8v11 5h-1c-1 0-1 0-1-1v-7-16c0-2 0-6 1-7v3c2-3 2-8 3-11s2-5 3-8c3-5 4-11 6-17l24-1z"></path><path d="M624 493h3c2 3 2 7 2 11l1 1h-7-6c1-2 1-4 2-6s2-5 5-6z" class="C"></path><path d="M158 563c1 0 1 1 1 2h4c1 0 1 1 1 1-1 2-10 1-12 2 0 1 0 2 1 2 4 0 9 0 13 1 1 0 2 0 3 1-2 1-8 1-10 1 0 1 0 3 1 4h3c2 0 7 0 8 1-1 2-6 1-8 2v3c2 0 9 0 11 1v1c-1 2-3 0-5 1v3h6v3c-1 1-2 3-3 4l7 2c-3 1-7 1-11 0-1 0-2 0-3 1v2 1c1 1 6 0 7 0 3 0 6 1 9 1-2 1-5 1-8 1l-12 1c-1 0-4 0-5 1v3l10 1c-2 0-4 1-6 1s-14 0-15 1v3h7c-6 2-12 1-18 2v3c2 0 4 1 6 1-4 2-8 2-12 2h-4c-2 0-2 1-2 2v1h4 6c-3 2-7 2-10 2-1 0-3 1-4 0-2 0-5-1-7-1h-1l5-1c2-1 3 0 4-1 1 0 1-1 1-1v-1l-5-1c4-1 7-1 11-2 2 0 4 1 6 0v-3c-3 0-8 1-10 1v-1c0-1 1-2 1-2 2-1 4-1 6-1h10c2 0 4 1 5 0 0-1 0-2-1-3-4 0-10-1-13 1l-6 2 2-4c1 0 1 1 2 0s1-3 1-5c2 0 4-1 7-1 2-1 8 0 10-2v-3l-14 3 1-1c4-4 9-4 15-4l10-1c0-1 0-3-1-4-5 0-11 0-16 2h-1c-1 0-2 1-3 0 1-3 4-2 6-4v-2c0-1-1 0-2 0v-1c1-3 7-2 10-3 0-1 0-3-1-4l-7 1h0v-1c1-1 2-1 3-1 4-2 8-2 12-3v-3c-3 0-8 0-10 1 0 1-1 1-1 2h-2v-1-1c0-2 4-2 5-3v-3c-1 0-3 1-4 0l1-1c1-1 1-2 2-2 2-1 5 0 8-1l1-1z"></path><path d="M150 587h1v2c-2 1-4 1-6 1v-1c-1-1-1-1 0-2h5zm11-1h6v3h-3-7c-1 0-4 1-5 0v-2c2-1 7-1 9-1z" class="C"></path><path d="M160 580h1l1 4h-9-1c0-1-1-3 0-4h8z" class="B"></path><path d="M160 592l13-1c0 1-2 3-2 4 0 0-1 0-1 1h-3-8v-4h1z" class="C"></path><path d="M147 606c2-1 5 0 7-1v4h-8c-2 0-7 1-9 0 1-1 1-2 2-3h8zm3-7h10 3c0 1 1 2 0 3h-2l-10 1h-3s-1 0-1-1 0-2 1-3h2z" class="B"></path><path d="M247 534h1l-14 26c-2 5-4 11-2 17 2 5 11 9 16 10 4 1 9 1 12 2 4 2 6 4 7 7 1 2 1 6 0 8-2 3-5 4-8 5 0-2 0-6-2-8 0 0-1-1-2-1v1c1 1 1 2 2 3v1 4c-2 1-5 2-7 2l-4-1c-1 0-1-3-1-4-1-4-3-9-6-12-5-5-12-6-18-9-2 0-4-1-5-3-2-2-2-9-2-13 2-13 12-19 22-26l11-9zm-137-26v-3-7H97v25h1c4 0 7 1 10 4 1 2 2 5 2 8 0 4-3 9-6 12-2 2-11 1-14 1-1-1-2-2-2-3-3-3-3-7-2-10 0-5 3-9 7-11h1v-14c-1-1-3-1-4-1l-11-1-1-11 15 2v-21-13c1-7 3-13 3-19 1-2 0-6 1-8h0c1 3 1 6 1 9 1 3 2 7 3 11 0 1 1 3 0 4v1h0l11-4 9 26h-5c-1 1-2 0-3 1 0 2-1 7 0 9l8-1 1 1v1c-1 1-2 1-3 1h-8v1 10h11c1 1 1 3 0 5-2 1-8 1-10 1v7h1l2 2v-1c1-1 4-2 5-3l1 1c-1 1-4 2-5 3l4 1h0c-1 1-3 0-4 0l-4-1c0 2 1 4 0 5v1c-1-1-1-3-1-4v-11h-8-4c-1-1-1-1 0-2 0-2 2-3 3-3l3-1c1 1 4 0 5 0z"></path><path d="M111 481h6c1 1 1 2 1 3v1h-6-1c-1-2 0-2 0-4z" class="B"></path><path fill="#545455" d="M110 481h1c0 2-1 2 0 4h1 0 4c-1 1-2 0-3 1 0 2-1 7 0 9h-1l-1 1h-1v-1h1l-1-1v-8-5z"></path><path d="M108 486h2v8l1 1h-1v1h-9l2-1c-1-3-1-6-1-9h6z"></path><path d="M108 486h2v8l1 1h-1v1h-9l2-1c1 0 1-1 2-1s2 1 3 1v-9z" class="F"></path><path d="M101 496h-4l-1-30c0-5 1-10 1-15 1 4 3 9 3 13 1 5 1 11 1 16v7c1-2 1-4 2-6l7-15 7 14c-2 1-5 1-6 0 0-3 0-7-1-11-1 3 0 8 0 11-2 0-3 0-5 1 1 1 4 0 5 0v5h-2-6c0 3 0 6 1 9l-2 1z" class="B"></path><path d="M375 43c2 0 3 0 5 1 2 2 3 5 4 7l4 13 4 8c1 2 3 3 4 3 3 1 7 2 10 2 8 2 16 6 22 10 8 5 16 13 17 23 1 3 0 6 2 9 1 2 2 4 4 5 1 2 5 4 5 7 1 2 1 4-1 5 0 1-3 7-3 7v1h-1c1 3 10 9 13 11a30.44 30.44 0 0 1 8 8h0l-17-13-4-4h-1v1c2 2 4 5 7 7 6 7 13 14 17 22v1c-4-7-9-13-15-19-1-1-9-9-10-9l-2 2c6 6 10 12 14 20h0c-4-7-9-14-15-20 0 1-2 2-2 3 1 3 2 5 3 8 3 6 5 13 6 20-3-6-4-13-7-20-1-3-1-5-3-7-2 2-4 4-6 5-7 4-13 3-20 1 6-4 13-8 19-12-6 1-12 6-17 9s-12 6-17 11-8 13-8 20c0 4 0 10 3 13h1c0-3-2-7-2-11 0-1 0-1 1-1l3 16h-89c-1 3-2 8-3 11l10 3c14 3 28 12 35 24 4 9 6 19 6 29 1 8 0 17-3 25-2 7-6 13-9 19-7 12-14 24-18 36-2 9-3 17-3 25 0 9 1 18 2 26l5 44 3 20c1 4 2 7 3 10 3 6 13 4 16 10 1 3 1 6 0 8-1 4-5 7-8 9v-1-5c0-2-2-4-3-5h-2c1 2 3 4 3 6s0 4-2 5c-3 3-9 3-13 3 1-3 2-6 0-8-1-2-2-3-4-3h0c2 2 3 4 3 6s-1 3-2 4-3 1-4 0c-3 0-5-1-7-4-3-5-1-12-2-17 0-3-1-6-1-9l-6-20-18-72c-3-13-5-28-5-42 0-10 1-22 5-32l2-7c1-1 2-3 3-5 0-1 0-1-1-1h-1c-4 7-7 14-8 22-6 20-3 39 1 59l8 34c4 14 8 27 11 41-1-1-2-4-2-5l-7-20-9-29-5-20-17 15c-2 1-4 3-6 5 5 4 9 7 13 12 8 9 14 23 13 35-2-10-4-20-11-28-7-10-20-18-33-20 3 2 6 3 10 5 5 3 11 6 16 11 9 10 14 23 14 36 0 23-9 44-20 62-3 5-5 9-8 13-3 3-7 6-10 9-6 5-12 9-19 14-5 3-9 8-13 12 0 1 3-1 4-1-2 6-3 13-2 19 0 1 1 3 2 5s4 3 6 4c5 1 11 3 15 5 4 3 6 8 7 13 1 2 1 5-1 7-2 4-6 4-10 5 0-2 0-4-1-6 0-2-2-4-4-5h0c1 2 2 4 2 6s0 3-1 4c-2 3-10 2-13 1-2-1-4-3-6-3-4 1-9 2-13 0s-7-6-9-10c-3-4-5-8-6-13-2-6-3-11-6-16-4-8-10-15-15-23-5-7-10-15-14-23-1-4-3-8-4-12-3 23-2 48-9 70-4 12-12 24-21 34-10 10-21 21-36 24-5 1-9 1-14 1v-27c0-3-1-8 0-12 1-3 4-6 5-9 4-6 7-11 11-15 5-6 11-11 16-16 7-7 14-14 20-22 4-6 9-12 11-19 2-9 2-20 1-30l-5-48c-1-14-1-28 1-42 2-13 5-25 9-37 8-25 21-47 36-69 9-13 19-25 30-36 15-17 32-33 49-48l25-22c8-7 16-13 23-21 13-14 21-31 28-49 4-9 7-17 12-25 4-7 9-14 16-18 1-1 3-1 4-2 0 0 2 0 2-1 0 0 0-1 1-2l1-5c2-5 3-9 5-13 3-5 7-14 13-16z"></path><path d="M249 438h1c0 5 0 10-1 14l-1 1h-1v-1-9-3l2-2zm60-57v1 3l1 4h0c1 4 3 20 1 22h0c-1-3-2-5-3-8l-1-8c2 3 2 6 3 10h0v-7c0-2 0-5-1-7v-3c-1-2 0-4 0-7zm-95 30h2v1l-20 7h-3 0c5-5 14-6 21-8z" fill="#545455"></path><path d="M359 82l1 1v18c5-1 11-2 17-2h0l-2 1c-5 2-11 1-16 5-1-3-1-6-1-9 0-4 0-9 1-14z" class="C"></path><path d="M424 134c4 0 8 0 11 1h0c-7 0-15 0-23 2-3 1-6 2-10 3-5 1-9 1-14 2-11 3-22 8-33 12l-8 3h0c4-2 8-3 12-5l11-5c6-3 12-4 19-6 4-2 9-3 13-4 7-2 15-3 22-3z" class="G"></path><path d="M423 105h1c-1 3-1 9 0 13 0 1 1 1 2 2 1-1 1-2 2-3 1-3 1-8 0-11v-1c1 1 4 2 5 4 2 2 1 5 0 7s-2 5-5 6c-1 1-4 1-6 0-5-3-7-9-9-14 3-1 7-2 10-3z" class="B"></path><path d="M340 510v26 1l1 1h0v-28l4-1c0 1 0 6 1 7 0-1 0-1 1-2 2-1 38 0 43 1 0-3 0-5-1-8-1-5-4-9-6-14l-7 16c0 1 0 4-1 5v-5l-30-1c5-2 10-5 12-10 1-4 1-8-1-11-1-2-2-3-5-4-1-1-3-2-4-3 2 1 5 1 7 2 0 1 1 2 2 2h3 9c3 0 6 1 9 1-2-1-3-2-6-3-7-4-15-3-23-4l-1-90v-32c0-6 0-12 1-17 0-6 4-12 6-17 6-15 11-30 10-47 0-16-5-33-17-44-9-9-22-15-35-16 1-2 1-3 2-5h79l28 1c35-1 79 0 105 26 15 16 22 36 22 58 0 20-10 39-24 53s-32 21-49 30c11 1 22 4 33 7 22 8 43 22 57 42 8 11 12 22 16 35 1 3 4 5 6 7v-1c-1-3-1-7-1-11 0-3 0-6 1-9 2-6 6-12 6-19v-5c0-1 1-1 1-1l1 1c0 3 0 6 1 9 1 5 4 9 5 14 1 2 1 6 1 9v6h0-14c0 3 1 17 0 19h-3c-1 1 0 30 0 34l40 3c3 0 13 0 15 1 1 2 0 3 0 5h0c-1 0-1 0-1 1v3l1 1c0 1-1 1-1 1h-6l7 1c0 1 0 3-1 4h0c-2 0-4 0-6-1l-9-1-23-3c-6-1-11-1-17-1v4 1l1-1h3 0v1c-1 0-2-1-3 0s-2 2-2 3h-1v-7c-1-1-1-1-2-1-1 2 0 8-1 8-2-2 0-7-2-8h-1c-1 2 0 6-1 7h-1v-7c-1-1-1 0-2 0-1 1 0 5-1 7-2-2 0-6-1-7l-2-1c-1 2-1 6-1 8 0-1-1-2-1-4v-3l-1-1h-1c0 2 0 7-1 7-2-1 0-6-2-7h-1c-2 2 0 5-2 7v-1-5c-1-1-3-1-4-1-1 2 0 5-1 6-1-2 0-5-1-6h-3c-1 2 0 3-1 5h-1c0-2 1-3 0-5h-2c-1 1-1 4-1 5l-2-5c0-1-1-1-2-1-1 2-1 4-1 5-1-1-1-3-2-5h-2l-2 5c0-2-1-3-2-5h-2c0 1-1 2-1 3h-1c-1-1 0-2-1-3l-2-1c0 1-1 2-1 3v1c-1-2 0-3-1-4h-2c-1 1-1 3-2 4-1-2 0-3-1-4h-2c-1 1 0 3-2 3-1-1 0-3-1-4l-1 1c-1 1-1 3-2 4l-1-4c-1-1-1-1-2-1-1 2-1 4-1 5-1-1-1-4-2-5h-1c-1 1-1 4-2 5l-1-5h-1c-1 1-1 3-2 4l-1-1v-3c-1 0-2-1-2 0-1 1-1 3-1 5l-1-4c0-1 0-1-1-2l-1 1c-1 1 0 2 0 4h-1l-1-4c0-1 0-1-1-1-1 2-1 3-1 5h-1c-1-2 1-4-1-5h-1c-1 2 0 4-1 5h-1l-1-5h0-1c0 2 0 4-1 6-1-1-1-3-1-4v-2h-1-1c-1 1 0 4-1 6-1-2-1-4-1-6-1-1-1-1-2 0s0 4-2 4v-4c-1-1-2-1-3-1-1 2 0 5-1 6l-1-1c-1-1 0-4-1-5h-2c-1 2 1 4-1 6h0c-1-2 0-4-1-6h-2c-1 2 0 6-1 7-2-2 0-6-2-7h-1c-2 2 0 5-2 6h0c-1-1 0-5-2-6h-1c-1 2 0 6-1 7-1-2 0-5-2-7 0 0-2 0-2 1-1 2 1 7-2 7-1-2 0-6-1-8l-1 1c-1 2-1 4-2 6v-6l-1-1h-1c-1 1-1 3-1 5-1 1-1 2-2 4 0-2 0-7-1-8h-1c-1 1-1 3-1 4 0 2 0 3-1 4v-8c-1-1-1 0-2 0-1 2-1 5-1 7h-1c0-2 1-5 0-7h-2c-1 1 0 3 0 4-1 2-1 4-2 5v-9h-2c-1 3-1 7-2 10v-9c-1-1-1-1-2-1-2 2 0 9-2 9-2-2 0-8-2-9h-1c-1 2 0 7-1 8h-1v-5-2s-1 0-1-1l-2 1v3 9l20-2 37-3 20-1c13 0 26 0 40 1 23 2 45 6 68 9 14 2 28 6 42 10 3 1 6 2 9 4v1 2c-3 0-8-3-11-4l-17-5c-12-3-25-6-38-7-1 0-6-1-7 0h0v2c1 1 2 1 3 1 2 0 3 0 4-2l1 2h0l1-1c1 1 2 2 3 2 2 0 2-1 3 0s3 1 4 1 1 0 2-1h0l2 2v1h1c2-1 2-1 4 0 2 0 3 1 4 2 1 0 2-1 3-1h2c0 1 0 1-1 2 2 1 4 1 6 1 1 1 2 3 4 4 1 0 2-1 3-1h0v2c1 0 2-1 2 0h0c2 2 3 2 4 4v1c-2 0-4-3-5-3h-1c-2 4-6 6-8 9 2 1 4 3 5 4 3-2 5-4 8-7 0-1 2-3 2-3h2 0c1 1 1 2 1 3h0-2l-9 8 5 6c3-4 6-7 9-10h0v-1h0l2-1v3l1 1 3 4h1 1v1c-2 3-10 8-10 10 0 1 1 2 2 2s4-1 5-2v-2c1-1 3-1 3-3l-1-1v-1-1c1 1 2 1 3 1l1 1 1 1c-1 1-2 2-2 3-1 0-1 0-2-1l-1 1c-1 1-1 1-1 2 2 1 5-1 6 0s1 2 0 3h-9c-1 0-2 0-3 1 0 1 0 2 1 3l7-1 1-1h1c0 1 1 1 2 1 1 1 0 1 0 2 0 0-1 0-2 1-1 0 0 2 0 3 1 0 2-1 3 1 0 1 0 1-1 2h-2l-1 1 1 4h2c1 1 1 2 1 3l-2 1c-1 1-1 2 0 3l1 1c1 1 1 1 0 2 0 0-1 1-2 1v3c1 0 1 0 2 1h1c-1 1-1 2-2 2l-1 1v-1c-2-1-5-1-7-1v5c2 0 7 0 9 1v1h0c-1 0-1 1-1 1l-1 3c1 1 2 1 2 1v1c-2 2-6-1-9 0v5c3 1 5 1 8 2v2h-1-4-14l-34-1-119 2c-22 0-44 0-65-1l-1-1h68l103-3 37-1h16v-3c-1-1-24 0-28 0l-61 1h-35l-92 1c-2 0-17 1-18 0v-1-1c2-1 34-1 38-1-1-6-3-12-7-17l2 9c0 2 1 4 1 6h-2l-1-1 1-1v-3h-4v4h1l1-1v1h0c-1 1-1 1-2 1l-1 1c-1-1-1-5-1-6h-5c0 2 1 3 0 5v1h-1c-1-2-1-5-1-6v-13l1-1v1c1 3 1 7 1 11h5v-9h0c2 1 2 4 2 7v2c1 1 2 1 3 1 1-3 0-7-1-9-3-5-8-8-14-9-8 0-14 2-20 7-4 4-7 9-7 14 0 2-1 6 1 8 2 1 6 2 8 3-5 1-10-1-15-2h-18l-56 2c-8 0-15 0-23-1h-1c1-1 17-1 20-1l73-1-16-4c-3-1-7-2-10-2-4-1-10 0-15 0h-29l-24 1c-4 0-10 1-15-1l81-1-17-6c-3-1-5-2-7-3h-8-20c-1 0-5 1-5 0 2-1 6-1 9-1h21c-3-2-6-3-9-4l-14-6c-2 0-4-1-6-1h0-5l-9 1c-2 0-4 0-5 1h0 13 12v1s0 1-1 1c0 0 0 1 1 1h1 2c1 1 2 1 3 1s1 0 1 1l1 1h1v1l-30 1h-7-3v1h0c7 1 13 0 20 0v1h-6-12l-4 1v2s0-1-1-1c-1-1-20 0-23 0v-1h-5v-3h3c6-1 10-2 13-8l6 1c3 1 6 1 9 1v-1h-10l12-3c2-1 3-2 5-3 0-1 1-2 2-2h6c-1-1-1-1-1-2 1 0 1-1 1-1l1-1h-4v-1c1-1 2-1 2-1l9 1c1 0 2 1 3 0v-2l-1-1h-2c-3 0-7 0-10-1v-1-1h3 1v-1c-1-4-7-3-9-6v-1l3 3c4-1 9 0 13 0v-4c-6 0-13-1-18-2-2 0-3 0-5-1-2 0-8-1-10 0 1 0 1 1 2 1h0-4v-1c0-1-2-1-2-1-3 0-5-1-7-1v-1c1 1 2 0 3 0 1-1 1-1 1-2-1-1-5 0-6-1-1 0-1 0-1-1 2-2 9 1 12-1v-2-1h-2c-2 0-9 0-11-1h0l2-1v-1c0-3-1-1-3-3 1-7 6-14 10-21l23-39c1 1 2 3 3 4 0 1 0 2 1 3l5-8 8 12c-1-6-2-11-1-17 0-4 1-8 2-12s1-7 2-10c0 2 0 4 1 6 0 1 1 1 0 2 0 3 1 5 2 8 0 4 1 8 1 12l13-2 4-18c1 2 1 5 1 7 1 4 2 7 2 10s0 14 1 15c1-4 1-9 1-14l1 3c3 2 6 3 10 3h0c2 0 3 1 4 0l2 1c1 1 0 4 0 6v19c0 1 0 4 1 6l1-1-1-30 1-1h1c1 2 0 15 0 19v10c0 2 1 4 1 6v13c0 5 1 11 0 16v4l4-4v-3-7l-1-22v-1c-1 1 0 23 0 26v7l-1 1c-1-1-1-10-1-11v-16c0-3-1-6-1-9v-28c1-1 1-1 2-1h1 1 1z"></path><path d="M525 538h0c0 1-1 0-2 0 0-1 0-1-1-2h3v2z" class="C"></path><path d="M429 516h2l-1 3h-1s0 1-1 0v-1c0-1 0-1 1-2z" class="B"></path><path d="M463 516h3c0 1-1 2-1 3h-2v-3z" class="C"></path><path d="M446 516h4c0 1 0 2-1 3h0-2c-1-1-1-2-1-3z" class="B"></path><path d="M499 519v-1 1h0v1h-3c0-1 0-2 1-3h3s-1 1-1 2z" class="D"></path><path d="M491 517c1-1 2 0 4 0h0v3h-3l-1-3zm144 7h3c0 2-1 3-1 5h-1l-1-1v-4zm-233 60h1c1 0 3 0 4 1l-1 2h-1c-1 0-2 0-3-1v-2zm230-60c1 0 2-1 2 0v5h-1-1v-5z" class="C"></path><path d="M515 518c1 0 2-1 3 0v3h-3 0v-3z" class="B"></path><path d="M525 536c1 0 6 0 7 1l-1 2c-2 0-4-1-5-1h-1v-2z" class="D"></path><path d="M457 516h2 3c0 2 0 2-1 3h-1v-1h-1v1h-1-1v-3z" class="C"></path><path d="M629 523c1 0 1 0 2 1v5h-2l-1-1c0-1 0-3 1-5z" class="B"></path><path d="M403 512h1l-1-1h0c0-1 0-1 1-1 1 1 3 0 4 0h1c1 0 1 1 1 2h3-10z" class="C"></path><path d="M620 523h3 0v5h-2c-1-2-1-3-1-5zm-75-4h0 3v4h-1-2c-1-1-1-3 0-4z" class="B"></path><path d="M509 518c1-1 3-1 4-1l1 1-1 3h-1c-1 0-2 0-3-1v-2z" class="C"></path><path d="M493 534h7v1c0 1-1 1-1 2-1 0-1 0-1-1h-1l-1 1c-2 0-1-1-3-2v-1z" class="D"></path><path d="M451 516h5v3h-1c-1 0-1 0-1-1h0c-1 0-1 0-1 1h-1-1c-1-1 0-2 0-3z" class="C"></path><path d="M435 516h2c0 2 0 2-1 3h-3-2c0-1 0-2 1-3h3zm148-49c2 3 4 6 5 10l-4-2-1-8z" class="B"></path><g class="C"><path d="M508 535h1 0 1 4c0 1 0 2-1 3h-1-2c0-1 0-2-1-3 0 1 0 2-1 3v-1-2zm21-17h4l-1 4h0-4c0-1 0-2 1-4z"></path><path d="M514 535c2 0 7 0 8 1l-1 2h-1-1-4c0-1 0-2-1-3zm0 5h4v4h-4v-4zm-111 38h0c2 1 4 2 6 4l-1 1h0c-2 1-4-1-5-1-1-2-1-3 0-4zm97-44c2 0 5 0 7 1v2c-1 1-3 0-4 0l-1-1-1 1h0c-1-1-1-1-1-2v-1zm124-11c2 0 2 0 3 1 0 1 1 3 0 5-1 0-2 0-3-1v-5z"></path></g><path d="M572 524h-4v-1c-1-1-1-3 0-3h3c1 1 1 2 1 4z" class="B"></path><path d="M554 520c-1 1-1 2-2 4-1-1-2 0-3-1v-4h5v1z" class="C"></path><path d="M309 556h1v3c-1 1-3 0-5 0-1 0-2 0-2-1 1-2 4-2 6-2z" class="B"></path><path d="M321 552c1 0 0 0 1 1 0 1 1 2 0 3l-6-1c-1 0-1 0-2-1 1-1 5-1 7-2z" class="C"></path><path d="M570 627h0 4v3 1c-2 0-3 0-4-1v-3zm-321-74c0-3 1-7 0-11h1 1v4c0 2 0 7-1 9v1c0 1 0 1-1 2v-5z" class="B"></path><path d="M276 602c3 1 6 1 9 1h-4l-3 3h-3c-1-1-1-1-1-2 1 0 1-1 1-1l1-1z" class="D"></path><path d="M299 546l1-12 1-1v4 10h0c-1-1-1-1-2-1z" class="E"></path><path d="M470 506v-1c1-1 1-2 1-3 1 0 1 0 1 1 1 1 0 2 0 4l1 1c0 1 1 1 2 2v1h-5v-5z" class="D"></path><path d="M611 522c1 0 2 0 3 1s1 3 0 4h-1 0-2 0v-5z" class="B"></path><path d="M526 540c1 0 4 0 4 1v4h-4v-5z" class="C"></path><path d="M520 540h4c1 1 0 3 1 4l-1 1-5-1c0-1 0-2 1-4zm95-18l5 1c0 1 0 3-1 5h-3l-1-6z" class="B"></path><path d="M308 548l1-1c0-5 0-10 1-15h0 1v14h-1v-3c-1 2 0 4-1 5h-1z" class="E"></path><path d="M494 631l5-1 1 5h-6v-4zm111-110l5 1v5c-2 0-3 0-5-1v-5zm-105 18h5v5h-5v-5zm131 91c2 0 5 0 6 1v3c-2 1-4 0-6 0v-4zM438 516h7 0c0 2 1 2 0 3h-2c-1 0-1-1-1-2 0 0 0 1-1 2h-3c-1-1 0-2 0-3z" class="B"></path><path d="M262 619l-12 1c-2 0-4 0-6-1h0c2-1 4-1 5-1 4 0 9-1 12 1h1zm58-77v-11c1-1 1-1 2-1 1 1 1 2 1 4l-1 8v-1c-1-1-1-2-1-3 1-1 1-1 1-2h-1c0 2 0 4-1 5v1z" class="E"></path><path d="M288 488h0c0 3 1 5 2 8v4h-1c-1 0-2 0-3-1l2-11z" class="B"></path><path d="M402 573h1c3 1 6 3 8 5v1c-1 0-1 1-1 1l-8-4v-3zm92-34h5v5h-5v-5z" class="C"></path><path d="M285 549l1-10c0-1 0-2 1-4h1v15l-1-1c0-1 0-1-1-2 0 1 0 2-1 2h0z" class="D"></path><path d="M631 618c2-1 5 0 6-1l1 5c-2 0-6 0-7-1v-3zM520 518h7v4h-2-1c0-1-1-1-1-2 0 0 0 1-1 1v1c-1 0-1 0-2-1v-3z" class="B"></path><path d="M507 539l6 1v4h-7l1-5z" class="C"></path><path d="M500 517h8v3c-1 1-1 1-2 1-1-1-1-2-1-2-1 1 0 2-2 2-1-1-1-2-1-2l-1 1-1 1-1-1v-1c0-1 1-2 1-2zm-12 22h5v5l-1 1h-4v-6zm-242 28c2 0 5-1 6 0 0 1 0 2-1 3h-4c-2 0-4 0-6-1 0-1 0-1 1-2h4z" class="B"></path><path d="M375 585h2c2 1 4 1 5 1h6c-2 2-3 3-5 4-1-1-3-1-4-2-1 0-1-1-2-1s-2-1-2-2z" class="F"></path><path d="M631 610h6v5h-6v-5z" class="B"></path><path d="M266 552c0-4 1-9 0-13v-1h1l1 2v-2h1c0 4-1 7-1 11 0 1 0 3-1 5v1-2l-1-1z" class="G"></path><path d="M571 520h7c0 1 0 2 1 3 1 0 1 1 1 1h-8c0-2 0-3-1-4z" class="D"></path><path d="M421 516h6v2c0 1 0 1-1 2-1-1-1-2-1-3-1 1-1 2-1 3h-2v-1l-1 1c-2-1-1-1-2-2v2h-3v-3c1-1 3 0 5-1z" class="C"></path><path d="M553 627h4v7h-5l1-7z" class="B"></path><path d="M360 590h-1c-2-1-3-2-4-3 1 0 2 0 2 1h1v-1h0c-1-1-2-1-3 0h-1l-1-1c0-1-2-2-2-3l1-1c1 1 2 1 3 1h1c1 1 3 1 4 2v1s1 0 2 1h1v1s-2 0-3-1v1 1 1z" class="E"></path><path d="M559 627h4v7h-5l1-7z" class="B"></path><path d="M251 573h8c2 0 3 0 4 1v2h0-3c-2 0-7 0-9-1v-2z" class="C"></path><path d="M246 578c3-1 8 0 11 1 1 0 1 1 2 2-1 1-3 0-4 0-3 0-6 0-9-1v-2zm34-18h1c0 1 1 2 0 3h-14-2v-1c2-1 4-1 5-1l10-1z" class="B"></path><path d="M337 510h1 1 1-1v8 15c0 1 0 4-1 5v1c-1-2-1-5-1-7v-14c0-3 1-5 0-8z" class="E"></path><path d="M410 517c1 0 4-1 5 0v3h-3v-2c-1 0 0 2-2 2h-1l1-2h-1c0 1 0 1-1 2 0 1 0 1-1 0v-1h-1v1l-2 1c0-1 0-2-1-3v3-3c1 0 0-1 1-1h3 3zm124 2c1-1 3 0 5 0h5c0 1 0 3-1 4h-1-2l-1-3h0c0 1 0 2-1 3-1-1-3 0-4 0-1-1 0-3 0-4zm-24 110h22c2 0 7 0 8 1h0-20c-3 0-8 1-11 0l1-1z" class="C"></path><path d="M566 545h1l5 2-3 5v1l-5-1c0-2 1-3 1-5 0 0 1-1 1-2z" class="B"></path><path d="M294 616h-26c-1 0-4 0-5-1h0 13 14 0s0 1 1 1h1 2z" class="F"></path><path d="M573 547l6 1-3 7-5-2 2-6zm8 1l5 1c0 3-3 6-4 8h0l-4-1 3-8z" class="B"></path><path d="M433 635c3-1 7-1 10-1h13c3 0 5 0 8 1v1h-31v-1z" class="E"></path><path d="M539 538c2-1 4 0 6 0-1 3-1 6-2 9l-5-1c0-2 1-5 1-8h0zm-90 5h2c1 2 3 8 2 9l-2 1h-1c-1-1-1-3-2-5-1-1-2-2-2-4v-1h3z" class="C"></path><path d="M303 562h8c1 1 3 1 5 1 0 1 1 2 0 3l-9-1h-4v-3zm7 7l13 1v4l-9-1c-1 0-2 0-3-1s-1-2-1-3z" class="B"></path><path d="M532 537c2 0 5 0 6 1v1c-1 2-1 5-1 7h-6c0-2 0-5 1-6h1c-1-1-1-2-1-3z" class="C"></path><path d="M260 579c3 0 7 0 9 1 2 0 4-1 5 0v3c-3 1-6 0-9 0-1 0-3 0-5-1v-3zm41 3c3-1 7 0 10 0 1 0 3 0 4 1v3c-2 0-5 0-7-1h-7c-1-1 0-2 0-3z" class="B"></path><path d="M229 624l19-1c4 0 9-1 14 0l-4 1v2s0-1-1-1c-1-1-20 0-23 0v-1h-5z" class="E"></path><path d="M254 567h17v3h-12-5v-3zm300-48h1 3c2 0 3 0 5 1 1 0 3-1 4 0v1 3h-3c-1-1 0-3-1-4-1 1 0 3-1 4h-2l-1-1v-3l-1 3c-1 1-2 0-4 1-1-1 0-3 0-4v-1zm-99 23c1 0 2-1 3 0 0 2 2 6 1 8l-3 1s-1 1-2 0h0c0-2-2-7-2-9h3zm-168 18h10c1 0 3 0 4 1v3c-2 0-13 0-14-1 0-1-1-2 0-3z" class="B"></path><path d="M268 555c1-1 1-2 1-4v-1c-1-2 0-3 0-5l1-7h1v2c1-1 1-2 1-3h1v5l-1 7v5h0-1 0c-1 1-2 0-3 1z" class="G"></path><path d="M588 549l1 1c2 1 3 1 6 1l-6 8v1c-2-1-4-1-6-2l5-9zm-310 43c2-1 12 1 15 1v3 1c-4 0-8-1-11-1-1 0-3 0-4-1v-3zm15-24c3 0 14 0 16 2v3l-15-2-1-3z" class="B"></path><path d="M312 556l2 1h8c0 3 1 8 0 11-1-1-2-1-3-1h-1v-1-3h3 1c-2-4-8-2-11-4 0-1 0-2 1-3z" class="C"></path><path d="M273 567h14c1 0 3 0 4 1v3l-18-1v-3z" class="B"></path><path d="M297 617c1 0 1 0 1 1l1 1c-4 1-9 0-14 0-7 1-15 2-23 1v-1h-1c2-1 3-1 5-1 7-1 15 0 22 0 3 0 6 0 9-1z" class="D"></path><path d="M636 595l1 1v2c-1 2-4 1-6 2v1c2 2 4 1 6 2-1 1 0 3-1 4h-6l-1-11 7-1zm-7-23l4 5-9 7h0l-3-3c3-2 6-6 8-9zm-364 1h7 11v4h-12c-2-1-5 0-6-1v-3z" class="B"></path><path fill="#878787" d="M325 510c2 0 3 1 4 0v16c0 4 0 9 1 13v1h-1c-1 0-1-1-1-2v-3c0-4 1-10-1-13v3h-1v-5c-1-3-1-6-1-10z"></path><path d="M466 516h1 5 14c2 0 4 0 5 1 0 1 0 2-1 3-1 0-2-1-3-1h-1c-1 1-1 0-1 0-1 0-3 1-4 0v-1h-1c0 1 0 1-1 1h-2s0-1-1-1v1h-3v-1h-1v1h-1c-2 0-1-1-2-2-1 2-1 2-2 2h-1v-3z" class="C"></path><path d="M470 506l1-20h4c0 2 1 4 1 6-1 0-1 1 0 1v4c-1 0-1 0-2 1 1 0 1 1 1 2-1 0-1 0-2-1l-1 1c0 2 0 2 1 3v5l-1-1c0-2 1-3 0-4 0-1 0-1-1-1 0 1 0 2-1 3v1z" class="E"></path><path d="M597 552h0l8 2-7 7-2 2-5-2 6-9zm-310 35c4-1 9 0 14 0 2 0 4 0 6 1v3c-5 1-11 0-16-1h-4c-1-2-1-2 0-3z" class="B"></path><path d="M302 546c1-4 0-9 0-13 2 0 4-1 7-1l-1 13h0v-6h-1v5 2h-1c-1-1-1-1-1-2l-1 1v1 1l-1-1h-1z" class="E"></path><path d="M276 580h7l10 1c2 0 4 0 6 1v3h0c-3 0-22-1-23-2v-3z" class="B"></path><path d="M352 582v-2h0c-1-1-1-1-2-1l1-1 1 1v-1-1c-1 0-1 0-2-1h1 2 1 1v1c1 0 2 0 3-1h0c1 1 1 1 2 1l2 2 1 1 1 1h0v1c1 0 1 0 2-1l1 1s1 1 2 1h1 0c1 1 3 1 4 2-1 1-2 1-3 1l-2-1c-2-1-8-2-9-1h-1c-2-1-5-2-7-2z" class="F"></path><path d="M552 610l-1 14c0 2-2 1-3 2 0 1 2 0 3 1v3c-1 1-4-1-5 1h0c1 1 3 1 4 1h1v2h0-6c0-6 1-14 4-19 1-2 2-3 3-5z" class="B"></path><path d="M618 625h7v1h0v2 1c-5 0-37 1-39 0h1c3-1 7-1 11-1l18-1h8v-1l-35 1c-1 0-1 0-2-1 2-1 27-1 31-1z" class="G"></path><path d="M607 555c1 0 2 1 4 2 1 1 2 1 3 2l-8 9h-1l-7-4 9-9zm-29-35h4c1 1 0 2 0 4h1v-4h3c1 1 1 0 0 1 0 1 1 2 1 3v-4c1 0 2 0 3 1 0 0 1 1 1 2v-2c1-1 2 0 3 0 1 1 0 2 1 3h0v-3c1-1 2 0 4 0v4c0-1 1-3 1-4h5v5h-5l-1-1c-2 1-6 0-7 0l-12-1s0-1-1-1c-1-1-1-2-1-3z" class="B"></path><path d="M360 585c1-1 2-1 3 0h0c2 0 5 1 7 1h1c1 0 2 0 3-1h1c0 1 1 2 2 2s1 1 2 1c1 1 3 1 4 2-2 1-5 2-8 2l1-1h0-2v1h1c-1 1-4 1-5 1l-1-1 1-1v1h3 0c-1-1-4-1-6-1-1 0-4-1-5-1h-1v1l-1-1v-1-1-1c1 1 3 1 3 1v-1h-1c-1-1-2-1-2-1v-1z" class="D"></path><path d="M360 585c1-1 2-1 3 0h0c2 0 5 1 7 1v1h1l1 1h-2 0-2 0-3 0-2v-1h-1c-1-1-2-1-2-1v-1z" class="F"></path><path d="M316 531h3c0 2 0 5-1 7 2 2 0 6 1 9h-1-1v-7-1c-2 2 0 6-1 8h0l-2 1-1-1-1-4v-1 4c-1-2-1-6-1-8 1-2 1-4 1-6h1c1-1 2-1 3-1z" class="G"></path><path d="M312 546c-1-2-1-6-1-8 1-2 1-4 1-6h1v1c1 1 0 3 1 4v4l1 1v5h1 0l-2 1-1-1-1-4v-1 4z" class="E"></path><path d="M290 535l9-2c1 2 0 13-1 15h0v-1h-2c-1-1-1-2-1-3v-1h-1v2 1h-1v-1h-1v1c0 1-1 1-1 2v1h0-1v-3h-1c0 1 0 1-1 2l1-13h1z" class="G"></path><path d="M288 548l1-13h1 1v1c-1 1 0 1 0 2v4 1c0 1 0 3-1 4 1 1 0 1 1 1v1h0-1v-3h-1c0 1 0 1-1 2z" class="E"></path><path d="M286 573l37 3v5h-1c-3-1-7-2-11-2l-25-2v-4z" class="B"></path><path d="M546 538c2 0 5 1 7 1l12 2-3 10-5-1 2-6c1-1 1-1 0-2-1 0-1 0-1 1l-2 7c-1-1-3-1-5-1 1-2 3-6 2-8-1 0-2 1-3 1v1h1c0 2-1 4-1 5l-6-1c1-1 1-4 2-5l1-1h-1v-3z" class="C"></path><path d="M594 438l1 1c1 0 1 2 2 3 3 6 3 11 4 18h-5-7v-9c1-5 3-9 5-13z" class="B"></path><path d="M594 450h1c2 0 2 0 3 1 0 2 1 4 0 6 0 1-1 1-2 1h-4c0-2-1-5 0-7 0 0 1-1 2-1z"></path><path d="M309 493v5c1 2 1 4 2 5v22l9-1s1 0 2 1h-7l-13 2-10 1v-7c3-2 8-2 12-2 2 0 4 0 5-1h0c-1-1-2-1-2-2-1-3-1-8-1-12 0-1 1-3 2-5 0-2 0-4 1-6z" class="B"></path><path d="M352 582c-2-1-2-1-3-2s-3-5-3-7l44 1c0 3 1 9-2 11 0 1-1 1-1 0h-3-2c-2-1-4 0-6-1s-4-2-7-3c-1 1-2 0-4-1l-1 1h0l-1-1-1-1-2-2c-1 0-1 0-2-1h0c-1 1-2 1-3 1v-1h-1-1-2-1c1 1 1 1 2 1v1 1l-1-1-1 1c1 0 1 0 2 1h0v2z" class="C"></path><path d="M369 581h1v-2c0-1 1-1 2-1s2 0 3-1c1 0 2 0 3 1h2s0 1 1 0h2l1 1h1v1c1 0 2 0 2 1 1 1 0 1 0 2h0c-1 0-1 0-2 1h-1l-1-1v1h0c1 0 1 1 1 1h-2c-2-1-4 0-6-1s-4-2-7-3z" class="D"></path><path d="M285 603c6 1 12 2 18 2-3-1-14-3-16-4l1-2c1-1 2 0 4 0 3 0 16 2 19 1v-1c-4-1-9-1-12-2h-4v-1-2c1-1 3-1 4-1l13 1c2 0 5 1 7 0l-1-1-9-2v-3l12 1c1-1 1-1 1-2-2-1-4-1-5-1v-4h6v6 2c0 1-1 2-1 3l-8 8c-5 4-10 8-16 11-6-2-13-5-20-6l3-3h4zm1-91v-11h4 1v5 22l-36 6 12-22h0v3c2 0 2 0 3 1v1c0 1-1 3-1 4-2 3-3 5-4 8-2 2-6 0-8 3 1 1 0 1 1 1 3-1 6-1 9-1v-1c1-5 4-9 6-13h12c0 1 0 8 1 10v-8-8z" class="B"></path><path d="M286 512c1 0 2 1 2 2h0c0 1 0 1 1 2v3 1h-2-1v-8z" class="D"></path><path d="M562 604c4 0 9 4 12 6 6 6 8 15 8 23l-17 1v-7h3v5c3-1 6 0 9 0 0-7-1-15-3-22v3 8 4h-9c0-6 0-13-1-19-1 4-1 8-1 13 0 1 1 5 0 6h-4c0-6 1-12 0-17-2 5-1 12-1 17h-5v-10-4h0c1-3 6-5 9-7z" class="B"></path><path d="M569 611h1c0 2 1 9 0 11-1 0-1 1-2 0l1-11z"></path><path d="M484 607h3c4 0 8 2 11 5 4 4 7 9 8 14v9h-5c0-2-1-3 0-4 1 0 2 0 3-1h0c-1-1-2-1-3-1v-3c0-3 0-5-1-7-1 3-1 7-1 10h-4v-4c1-2 1-8 0-11 0 1-1 7-1 8l-1-9h0v16c-1 0-1 0-1 1l1 1v4h-4v-17c0-2 0-5-1-7-1 1-1 3-1 4v9c0 2 1 4 0 5h-4c0-6 0-12-1-18h0c-1 3-1 7-1 10 0 1-1 3 0 4l1-1c1 1 0 3 0 5h-5c0-5 0-11-1-15-1 4-1 8-1 12v6 1l-6 1c3 1 6 1 8 1 1-1 0-4-1-5h5v4l1 1c2-2 0-4 2-5h4c0 1 0 4-1 5l-19 1v-1-4c0-5 0-10 3-14 3-5 8-8 13-10z" class="B"></path><path d="M272 554c1-1 1-3 1-5l1-9v-3h2c-1 4-1 8 0 12h0c1-2 1-5 1-8 0-1 0-4 1-5h1v4l1 8h0c1-1 1-3 1-4v-1c0-1 1-2 1-4v-3h1v5l-1 10h0c2-4 2-10 2-15h0 1 0l-1 14 1 1v-2h0c1 0 1-1 1-2 1 1 1 1 1 2l1 1h0v-2c1-1 1-1 1-2h1v3h1 0v-1c0-1 1-1 1-2v-1h1v1h1v-1-2h1v1c0 1 0 2 1 3h2v1 1h1v-3c1 0 1 0 2 1 0 0 1 0 1 1v-2h1l1 1v-1-1l1-1c0 1 0 1 1 2h1v-2-5h1v6h0v3h1c1-1 0-3 1-5v3h1v2c1-1 1-1 1-2v-4 1l1 4 1 1 2-1h0c1-2-1-6 1-8v1 7h1 1c1-1 1-4 1-5v-1c1-1 1-3 1-5h1c0 1 0 1-1 2 0 1 0 2 1 3v1l1 8-87 14 13-22-1 15 1 1v-5 5c1-1 1-1 1-2v-1c0 1 0 2 1 3v-1c1 0 1-2 1-3 0-3-1-11 1-14v12 5c2-1 0-14 1-16h1v10 6h2v-1c0-3 0-14 1-16h3v-1c1 3 0 6 0 9 0 2-1 4 0 6 2-3 1-11 1-14v-1h1c0 3-1 14 0 16h1c1-5 0-11 0-16h0 0 1v12 4h1v-3l1 1v2h1c1-1 2 0 3-1h0 1z" class="C"></path><path d="M489 449h6l1 25v10 18c0 2 0 5 1 7 1-1 0-10 1-13h0v-1h-1v-15h14c2 0 4-1 5 0v1c-1 1-1 2-1 3-1-1 0-2-1-3h-1v3c-1 5-4 9-6 13l-8 11h0 2c2-1 7-1 8-2-1-1-2 0-3-2 1-1 1-2 2-4 2-4 4-7 6-11v2c0 2 1 4 2 5 0 1 1 1 1 1l-1 1c-1 2-1 7-1 9h1c1-3 0-6 1-9v14l-28-1v-11-51z" class="B"></path><path d="M506 484h2c1 0 2 0 2 1h0-1l-1 1c1 1 1 0 2 1l-1 1v1c0 1 0 2-1 2h-1c-1-2-1-5-1-7z"></path><path d="M493 535v2h-5l-1-1c0 1 0 1-1 2l-1-1h-1v2h2c1 1 0 5 0 6l-4 1c0-3 0-8-2-10l-2 2h0l1 1c1 2 1 5 1 7l-5 1-1-7 1-1c-1-1-2-1-2-2l-1-1-1 2 1 1h0c1 3 1 5 2 8l-6 1c0-3-1-8-2-10h-1l-1 1c1 2 2 7 2 9l-5 2c-1-1-1-7-2-9 1 0 1 0 2-1h0 0c-1 0-1 0-2-1 0-1-1-2-1-2h-1v3h-1c-1 1-3 1-4 1 0 0 0-1-1-2-3 2-7 2-11 3 0 0-1 0-1-1h0v1c-1 1-14 1-16 2l-1 1 1 1 22-3c0 3 1 5 2 8 1 1 2 2 1 3l-3 1c-2-3-4-7-7-10 0 4 3 8 6 11l-4 2c-2-2-4-5-5-7-1-1-1-3-3-3h0c0 3 4 8 5 10h1c-1 1-2 2-3 2l-7-9c-1-1-1-1-2 0h0c2 4 5 7 7 10l-3 2-1-1c-2-2-5-6-7-7h-1l-1 1c1 2 6 7 8 8l-3 2-9-7h-2v1l9 7v1l-3 2s-1-1-2-1c-2-2-5-6-9-6v1c2 3 6 5 9 7v1l-2 1h-1l-1-1c-3-2-5-4-8-4h0v1l8 6v1h-1c-2 0-3-1-5-2-1-1-3-2-5-3-1-3-1-7 0-10v-20l90-7v1zm5 16h12c-3 5-6 10-10 14l-1-1h0c-1 1-1 2-1 3-2 3-5 5-7 7-7 6-14 11-22 13-16 5-36 7-52 3-2 0-5 0-6-1 3-4 6-8 10-11 1-1 2-2 4-3 1-1 4 1 6 0-1-1-3-1-4-1 3-3 8-6 12-7h0c9-1 17-1 25-1v-7-3h-1l1-1v1 12c0 1 1 2 0 4h-2l-1-1c-2 3-9 0-12 2 2 1 9 0 11 0h4v3h-4-1v-1-1l-1 3h0 1c1 1 3 1 5 1v7 1c2 0 3 0 4-1v-31c2 0 7-2 8-1 0 2 0 3-1 4h0v-3-1l-1 1c0 1-1 3 0 4h3v-5l21-2z" class="B"></path><path d="M434 580h3 0v2h-6 3v-2z" class="D"></path><path d="M450 581c1 0 3-1 4 0v1c-1 0-3 1-5 0l1-1zm-19 1c-1 0-1 0-2-1v-1c2-1 4 0 5 0v2h-3zm25-1h7v1l-1 1c-2 1-3 0-5-1h-1v-1zm31-28h0c2 0 1 1 2 2h1v-2h1 0l1 2c-1 1-1 1-1 2-2 0-3 0-4-1 0-1-1-2 0-3zm-50 27c2 0 5 1 7 0 1 0 3 1 4 1v1c-2 1-5 0-7 0h-4v-2zm63-26c1-1 4-1 5 0 0 1 0 2-1 4h-4v-4zm-15 8h5c0 3 1 10-1 12h0-4c-1-3 0-8 0-12zm-11 1h5v12h-5v-12z"></path><path d="M390 516v7l1 22c-7-1-14 0-20 0h-15c-3 0-6 0-9 1 6 2 13 1 19 1 8 0 17 0 25-1l-1 25-44 1v-55h39c2 0 3 0 5-1z" class="B"></path><path d="M353 552h1c2 1 3 5 3 7s2 7 1 8h-3-5c0-4 0-12 3-15zm13-1h1c1 0 2 2 3 3 1 3 3 10 2 13h-3-6c0-5 0-12 3-16zm15-29h1c3 6 4 12 4 18h-5-5c1-5 1-14 5-18zm-28 0h1c1 1 2 3 2 4 2 4 3 9 3 14-1 1-2 1-2 1l-7-1c0-5 0-14 3-18zm28 27h1c3 5 4 12 4 18h-5-5c0-6 1-14 5-18zm-14-27h1c2 1 2 3 3 4l3 14h-4l-8 1c1-6 1-15 5-19z"></path><path d="M557 558c2 0 5 1 7 1l16 4v38l-61 2c0-1 0-3-1-4h-3c-1 1-1 3 0 4l-6 1v-6h0c-1 2-1 4-1 7h-3v1 1c1 0 18-1 20-2l26-1c4 0 8-1 11-1h2l18-1v-35h0v5h22v19c0 2 0 7 1 8s1 1 2 0v-25c1 0 3 1 4 3h-1c0 2 0 4 1 5h2c0-2-1-3-1-5l6 6c3 3 5 7 6 11 2 6 1 15 1 22-3-4-7-6-11-8-6-1-11-1-16 2-6 3-10 8-12 15l-2-6c-4-8-11-13-19-15-2-1-5 0-6 1-7 3-12 8-14 14-2-3-5-6-9-8-4-3-9-3-14-2-7 2-11 8-15 15l-1-4c-3-6-8-11-16-14-2 0-5 0-8 1-7 2-12 7-16 13-1-4-4-7-7-9-5-2-9-3-14-2-8 2-13 7-17 14-2-5-5-8-10-11-7-4-14-5-22-3-9 3-14 8-19 16l-4-4c-5-3-10-4-15-3s-11 5-14 10h0l-45-16 108-8v-7h1c10 4 21 6 31 7 11 1 23 1 35 0 14-2 28-6 41-12 1 1 1 0 1 1h0 1s1 0 1-1h0l1-1v2h1v-2c0-1 0-1 1-2 3-2 6-3 8-5 4-2 7-4 10-6 0 3-1 20 0 22h1 1v-6-15c0-1 0-3 1-4 0 0 3-2 3-3l6-6c0 2 0 4 1 5h2v-5h-2v-1l1-1c2-2 3-4 4-6z" class="B"></path><path d="M544 592c1 0 2-1 3 0l-1 3h0c-1 1-1 1-2 0v-3zm41-1c1 0 2 0 3 1v3h-1-3c0-1 0-2 1-4zm-33 0h2v4h-2c-1 0-1 1-1 0s-1-3 0-4h1zm21-26c1-1 2-1 3 0 0 1-1 1-2 2 1 1 2 1 2 2v2c-1 0-2 0-3-1v-5zm24 26h2c0 2 0 3-1 4h-3c-1 0-1 0-1-1s-1-2 0-3h3zm15-3h3v6h0c-1 0-3 0-3-1-1-1 0-3 0-5zm-28-9c1-1 2-1 3 0 0 2 1 4 0 6h-3c0-2-1-5 0-6zm-40 1l2-1 1 1c0 2 0 6-1 8h-2 0c0-3-1-6 0-8zm29-3h1 3c0 3 0 6-1 8h-3v-8zm-12-14h4c0 3 0 5-1 7-1 1-2 1-3 1-1-1 0-6 0-8zm-9 15c1 0 1-1 2 0 0 2 1 6 0 8-1 0-3 0-3-1v-7h1z"></path><path d="M596 578h3v7h-2-3v-7h2zm-68 9c2 0 2 0 4 1v3c-1 1-3 1-5 1l1 1c1 0 3 0 4-1h1l1 1-1 1h-7c0-1 0-1 1-2 0-1-1-3 0-4l1-1zm34-10h3c1 1 1 7 1 8l-2 1c-1 0-3 0-3-1 0-2-1-6 0-8h1z"></path><path d="M403 512h0v-12c0-2-1-4 0-6l1 1 1-1h0c-1-1-1-1-2-1h0c-1-3-1-6-1-10v-19-73c23 0 48 1 69 12 23 12 35 32 43 56-6 6-12 12-17 20v-33h-5c0-4 0-7-1-11-1 3 0 6 0 10 0 0 0 1-1 1 0 1-2 0-2 1-1 0-1 3-1 4v22c0 1 0 4-1 5-1 2-5 3-7 5 0 2 5 0 7 1v4c-3 2-5 3-7 6h0c2-2 5-4 7-5l1 22h-9l-1-25v-7-3s1-2 2-2c2-3 5-6 7-9-4 2-6 5-8 8l-8 8c0-8-2-14-4-21-1-3-1-6-2-8 0 3 0 7 1 11 1 2 2 5 3 8v10c0 1-1 1-1 3v27l-54 1h-3c0-1 0-2-1-2h-1c-1 0-3 1-4 0-1 0-1 0-1 1h0l1 1h-1z" class="B"></path><path d="M404 510c0-2 0-4 1-5 2-8 13-27 12-34h-3v-1s0-1 1-1l2-1c1-2-2-5 1-6h1c1 1 1 1 1 3 0 0-1 1-1 2v1h2v1 1c-1 0-1 0-2 1-1 2 1 5 2 7l10 19c-1-5-1-11 0-17 0-2 2-5 2-8 1-3 2-6 2-9l1-1v1l-3 17c-1 5-1 10-1 15v4c0 1 1 5 0 6 0-1-1-1-1-2s0-1-1-1l-10 1c0 2 1 6 0 7-1-1-1-5-1-7-1 0-4 1-5 1 2-1 4-1 5-2 1-3 1-8 1-11h4v1h-3l-1 10 10-1c-4-9-9-17-12-26l-5 17c2 0 3-1 5-1v1 1l-1-1c-1 0-4 1-5 1l-3 8c-1 3-2 5-2 7v1h2v1h-1c-1 0-3 1-4 0zm46-19l-7 1c2 2 3 4 4 5l6 6 2 1v2l-1 2h0c-1-1-2-3-3-3h-10v1l-1 1c-1-1-1-1-2-1h-4-1 0c2-3 3-6 4-9l3-6h0c1 1 0 1 0 2l-1 7h0c1-3 2-6 2-9l11-2c2 0 3 0 4-1h0l-14 2c0-2 0-5-1-8-1-6-4-13-3-20h0l4 19 14-4 6-24c1 2 0 4 0 6-1 3-1 6-2 9 0 3-1 6-2 9 0 4 0 7 1 11l-1 21h0-2v-4-9h-3l-1-1h0c0-1-1-1-2-2h0v-2z"></path><path d="M450 491l6-1v6h-3l-1-1h0c0-1-1-1-2-2h0v-2z" class="F"></path><path d="M442 496c2 2 3 5 6 7h-2l-7 1 3-8z" class="C"></path><path d="M442 498h1c0 1 1 2 1 4-1 0-2 0-2-1-1-1 0-2 0-3z"></path><path d="M401 223h2c22-1 46 2 63 18 16 16 19 39 20 60 0 21-1 43-17 59-17 16-44 16-67 16l-1-153z" class="B"></path></svg>