<svg xmlns="http://www.w3.org/2000/svg" xmlns:v="https://vecta.io/nano" viewBox="52 40 424 616"><!--oldViewBox="0 0 520 752"--><style>.B{fill:#2a2a2a}.C{fill:#222122}.D{fill:#4a494a}.E{fill:#141415}.F{fill:#3c3b3c}.G{fill:#313131}.H{fill:#616062}.I{fill:#fefefe}.J{fill:#929192}.K{fill:#909090}.L{fill:#050505}</style><path d="M224 362c1-1 2-1 3-2 4-3 13-3 19-2-2 1-2 1-3 2h-1v-1h0c-1 0-2 0-3 1h0c-1-1-3-2-5-1-1 0-3 2-4 2-2 1-3 2-3 3l-1 1c-1 0 0-1 0-2l-2-1z" class="D"></path><path d="M416 408h0c1 1 2 0 4-1 8-4 15-5 23-6 2 0 4-1 6-1 1 0 1-1 2-1 4 0 7-4 9-6h3c0 1-1 3-2 4v-1l-1 1c-1 0-1 0-2 1h0 0v1h0 0-1-1c0 1 0 1-1 1-2 1-4 2-6 2l-3 1h-1-2c0 1-1 0-1 1-2 0-4 0-5 1h-2c-1 0-2 1-3 1h-3c0 1-1 1-2 1 0 1-1 1-1 1-2 0-4 2-6 3-1 1-2 2-4 3 0 1 0 1 1 1v5c-1 0 0 1 0 1v1 4c-1-1-1-3-1-5-1-4-1-9 0-13zm-4 144v3l-2 3v1c-1 0-1 1-1 2-2 2-4 6-5 9h-1v1l-1 1c-1 0 0 0-1 1v1c-1 1-2 2-3 4-1 1-2 2-3 4-1 1-2 2-2 3h-1c0 1 0 1-1 2-1 0-1 1-2 2-2 3-6 5-8 8v1c-1 0-1 1-1 2h-1l-3 3c-1 2-3 4-4 5l-1 1c-2 2-4 4-6 5s-3 3-4 4c-1 0-2 1-3 1-2 2-5 4-8 6-1 1-2 1-2 1-1 1-1 1-2 1 0 0-1 1-2 1-1 1-2 1-3 2s-4 2-6 3h-1c-1 0-1 1-2 1-1 1-3 1-4 2-1 0-1 1-2 1h-1c-2 0-3 1-4 2-2 0-3 0-4 1h-1-1l-2 1-5 1h-2c0 1-2 1-2 1l-9 2c-1 1-2 0-3 1h-6c-1 0-4 0-4 1-2 0-6-1-6 0h-2c-3 1-7 0-9 0h-1 0-1 0-1-1 0-1c-1-1-5 1-6-1v1c-2-1-4 0-5-1h-1 0c-1 0-6 0-7-1h-5c-2 0-4-1-5-1s-2 0-3-1c-2 0-4 0-5-1-1 0-1 1-2 0h-1l-2-1-4-1h0-1l-3-1h0c-2-1-3-1-5-1v-1h0c-2 0-3-1-4-1-2-1-3-2-5-2 0 0-1-1-2-1l-6-3c-1-1-3-1-4-2-1 0-1-1-2-1h-1l-3-2-5-4c-1 0-4-2-4-4h0c-2-1-4-2-5-3l-4-2-1-1c-1 0-3-1-4-2-1 0-2-1-3-2l-2-1c-1-1-2-2-3-2-2-1-4-3-5-5l28 18c22 12 45 18 69 21 26 3 51 1 76-6 9-2 19-6 28-10 24-11 45-29 59-52 4-6 7-12 10-18zM263 111c4 0 9 0 13-1l20-2c10 0 20 2 30 2 3 1 6 2 9 4 4 2 9 4 13 7 9 5 17 12 24 20 2 2 4 4 5 6h-1l-2-2h0c-3-3-5-6-8-9h-2c-1 0-1-1-2-1s-2-1-3-1c-3-1-6-3-9-4h-1c0-1 0-1-1-1s-3-1-4-1c-1-1-1-1-2-1-1-1-2-1-3-1-1-1-3-1-4-2h-3l-5-2c-2 0-3-1-5-1-1 0-4 0-5-1h-6c-1-1-2 0-3-1-3 0-17 0-18 1-1 0-3-1-4 0h-3c-1 0-3 0-3 1-3 0-6 1-9 1-1 1-2 1-3 1 0 0-1 1-2 1s-2 1-3 1h0c-1 0-4 1-6 2-1 0-2 1-3 1-3 1-6 3-9 5-2 1-5 2-7 4-2 1-5 3-7 4-3 2-5 5-8 7-2 1-3 3-5 4-1 0-11 10-12 11h0c-2 1-4 4-4 6-1 1-3 2-4 4l-1 1c-1 1-1 2-2 3s-2 2-2 3h-1 0v1h-1c-1 1-1 1-2 1v1c0 2-2 4-2 6l-1 1h0c0 1 0 1-1 2v1h0 0c0 1-1 2-1 2 0 2-1 3-1 4l-1 1h0c0 1 0 2-1 2 0 1 0 2-1 3v1 1h0c-1 2-2 4-2 6-1 1 0 1 0 2h-1c0 1 0 3-1 4v2c-1 1 0 2-1 2 0 1 0 1-1 1v-1c1-3 2-7 3-10 5-18 13-34 23-50 4-8 10-16 17-22l6-6c8-7 17-13 26-18 4-2 10-4 14-6z" fill="#c6c5c5"></path><path d="M263 111c4 0 9 0 13-1l20-2c10 0 20 2 30 2 3 1 6 2 9 4 4 2 9 4 13 7-1 0-2 0-3-1-1 0-2-1-3-2h0l-2 1v-1-1c-3-1-7 0-10-1-2-1-3 0-5-1h-2-3-1c0-1-1-1-2-1-2 0-3 0-4-1v1h-1v-1h0 0-1-1-1 2c-2 0-5 0-6-1-1 1-4 1-6 1-1-1-2-1-3-1-3 1-7 1-11 1h2-7v1h0c-3 0-7 1-10 2-2 0-4 1-5 1 0-1 0-1 1-1-1 0-2 0-2 1h-1c-2 1-4 1-6 2-1 1-3 1-4 2-2 0-2 1-4 1l-6 3-6 3h0v-1h1l1-1c-1-1-3 1-5 1-1 1-3 3-5 4l-7 6c-1 1-3 3-5 4l6-6c8-7 17-13 26-18 4-2 10-4 14-6z" class="J"></path><path d="M263 111c4 0 9 0 13-1l20-2c10 0 20 2 30 2 3 1 6 2 9 4l-20-3c-11-2-23-2-34 0-7 0-13 2-19 3h-1-2c-3 1-6 3-10 3 4-2 10-4 14-6z" class="K"></path><path d="M142 599c-9-6-16-13-23-21-20-21-36-46-47-72-12-29-18-59-19-90 0-10 0-21 1-31 2-51 13-102 33-150 13-32 31-62 54-88 13-14 28-28 44-38 12-8 25-14 38-20 32-13 66-16 100-9 6 1 13 3 20 5 8 3 16 6 24 10l15 6c5 2 14 6 19 3h0 2c5-4 6-11 7-17h26l2 65v37c1 17 1 35-3 52-4 14-11 28-21 38-18 19-42 27-67 28-12 1-24-1-33-9s-13-18-14-29c0-10 3-19 9-25 5-5 12-7 19-7 9-1 16 2 23 8 4 4 7 10 7 16 0 3-1 5-3 7s-4 3-6 3c-3-1-5-2-7-4 0-1-1-2-1-3 1 0 2 0 3-1s2-4 2-5c1-4 0-6-2-9-3-3-7-5-11-5-6-1-12 0-17 4-4 3-6 8-6 14-1 9 2 18 8 25s15 10 25 11c15 1 31-3 43-14 13-11 20-29 21-46 2-26-7-53-19-75-3-5-7-11-11-16-1-2-3-4-5-6-7-8-15-15-24-20-4-3-9-5-13-7-3-2-6-3-9-4-10 0-20-2-30-2l-20 2c-4 1-9 1-13 1-4 2-10 4-14 6-9 5-18 11-26 18l-6 6c-7 6-13 14-17 22-10 16-18 32-23 50-1 3-2 7-3 10v1c-6 23-9 47-12 71l-3 55-1 34v16c10 0 19 0 29 2 3 0 6 1 9 2 2 0 4 1 6 1-1-1-2-3-2-4l-16-4c4 0 7 1 11 1 1 1 3 1 5 1 0-1-1-1-2-2l-19-5c5 0 9 1 14 2 2 1 4 1 6 2-1-6-1-10 1-16 0-2 1-4 1-6s-2-5-2-8c-1-6-3-11-3-17 0-4 1-8 1-11 10 7 19 15 27 25v-1l2 1c0 1-1 2 0 2l1-1c0-1 1-2 3-3 1 0 3-2 4-2 2-1 4 0 5 1h0c1-1 2-1 3-1h0v1h1c1-1 1-1 3-2 2 0 5 0 7 1 1-1 2-1 2-2v-1c1-2 3-4 5-6 5-5 10-9 16-13 1 6 3 12 3 18l-1 11v6c0 1 1 2 2 2 3 5 6 12 7 17v2h3 14v-26l165-1v15c0 4 1 8 0 11-1 1-4 1-6 1h-3c-2 2-5 6-9 6-1 0-1 1-2 1-2 0-4 1-6 1-8 1-15 2-23 6-2 1-3 2-4 1h0c-1 4-1 9 0 13 0 2 0 4 1 5 1 12 5 24 7 36 2 10 4 21 4 32-1 20-7 40-16 58-3 6-6 12-10 18-14 23-35 41-59 52-9 4-19 8-28 10-25 7-50 9-76 6-24-3-47-9-69-21l-28-18z" class="L"></path><path d="M299 491c2 1 4 1 6 2 1 0 1 0 2 1h0 0-7c-1-1-1-1-2-1h0l-2-1c2 0 2 0 3-1z" class="G"></path><path d="M255 581h0c-3-1-3-2-4-4-2-1-3-2-3-3v-1c2 3 5 4 7 6h1 0l1 1h-2v1z" class="C"></path><path d="M240 401h2c-1 2-4 5-6 7l-1 1v-1c0-3 3-5 5-7z" class="I"></path><path d="M272 410c3 1 5 3 7 5l8 8c-1-1-2-1-3-2h-1c-2-2-3-4-5-6s-4-3-6-5zm-11-22c-3 1-6 0-9 0-2 0-5 1-8 1 5-2 11-4 17-4-1 1-3 2-4 2v1h4z" class="E"></path><path d="M265 398c-6 2-13 4-19 7 1-3 5-4 7-5l11-3 1 1h0z" class="F"></path><path d="M261 385c5 1 11 2 15 5 1 0 3 1 4 2h-1c-1 0-3-1-4-2-3-3-10-2-14-2h-4v-1c1 0 3-1 4-2z" class="B"></path><path d="M285 495l13-2c1 0 1 0 2 1l-9 2c-5 1-10 2-16 1 3-2 7 0 10-2z" class="F"></path><path d="M255 408h3c3 1 6 1 9 2l10 7c1 0 2 1 3 2h-1v1c-1-1-3-3-4-3-1-1-2-1-3-2-2-2-5-4-8-5-2 0-3 0-5-1h-1c-1 0-2 0-3-1zm-28-44c2 0 2 0 3-1h1v1h0c1-1 3-2 4-3-1 1-4 4-4 6-1 2-2 4-3 5 0-2 1-4 1-6h0c-2 1-2 3-2 4-1-2-2-5-3-7v-1l2 1c0 1-1 2 0 2l1-1z" class="E"></path><path d="M296 492c-3 0-5-1-8-2-5-2-10-5-12-10 1 1 2 3 4 4 5 5 13 6 19 7-1 1-1 1-3 1z" class="F"></path><path d="M258 489l-3-6c-1-5 1-11 4-15h1c-3 6-4 11-3 17 0 1 1 2 1 3v1z" class="G"></path><path d="M276 432c6 1 10 2 15 4 2 1 5 2 6 4-3-2-7-3-11-4-5-2-11-2-17-2 2-1 4 0 6-1h-1c1 0 2-1 2-1z" class="H"></path><path d="M287 391v2h3c0 1-6 1-8 1-6 1-11 2-17 4h0l-1-1c8-3 15-3 22-4l1-2z" class="D"></path><path d="M355 525c0 3 0 6-1 9 0 1 0 2-1 3v2l-3 6v2h-1c-1 2-3 4-4 5 1-3 3-6 4-9 3-5 5-12 6-18z" class="C"></path><path d="M257 485c2 3 3 6 6 8 1 1 2 1 3 2s3 2 4 3c2 0 3 1 5 1-1 1-3 1-4 0h-3c-4-1-8-6-10-9v-1-1c0-1-1-2-1-3z" class="B"></path><path d="M329 504c-3-5-10-8-15-9-2-1-5-1-6-3h0 3c7 1 14 5 18 11v1z" class="D"></path><path d="M366 556c0-1 0-2 1-2 0-1 1-2 1-3l4-10c0-2 0-5 2-7 0-1 1-1 2-1-2 8-5 15-9 22l-1 1z" class="C"></path><path d="M242 476c1 1 1 3 1 5 1 6 5 14 9 17 1 1 3 2 4 3l-1 1c-1-1-2-1-3-1v-1c-2-2-4-4-5-6-3-5-4-9-5-15-1-1 0-2 0-2v-1z" class="E"></path><path d="M269 477c1 1 1 3 1 4l1 1c0 1 1 2 1 3 5 6 13 7 21 8-3 1-9 0-12-1-5-1-9-5-11-10h-1c-1-2-1-4-1-7l1 2h0z" class="B"></path><path d="M276 507c8-3 16-8 24-8h5v1c-9 1-20 3-28 8l-1-1z" class="D"></path><path d="M226 401h14l-6 3c-2 0-4-2-6-2 1 1 2 2 3 4 1 0 1 1 1 2v1c-2-3-7-6-8-8h2z" class="I"></path><path d="M273 404c4 0 8 0 11 1 3 0 5 1 7 1l1-1v2c-2 1-5 0-8-1h-5-17 0 0c1-1 1-1 2-1h4c2 0 3 0 5-1z" class="F"></path><path d="M263 416v-1c-1-1-3-1-5-1-2-1-5-2-8-2-1 0-5-1-5-1 3-2 12 1 15 2 2 1 3 1 5 2l10 5h-1v1c1 0 2 1 3 2-2-1-3-2-5-3-3-1-6-2-9-4z" class="B"></path><path d="M313 484h4c7 2 13 8 17 14l-6-6c-2-2-5-3-8-4-3-2-7-3-11-1-1 1-2 2-2 3v1-1c-1-1-1-2 0-3 1-2 4-2 6-3z" class="H"></path><path d="M297 464h1v1c-2 0-5 1-7 3s-5 5-5 8c-1 2 0 4 0 5 1 2 4 4 5 5 2 1 3 1 4 3h-1c-2-1-5-2-7-4-1-1-3-4-3-5v-5c2-3 4-6 7-8l6-3z" class="C"></path><path d="M278 398h2c2-1 6-1 7 0l1 1-1 1v-1c-3-1-8 0-11 1-6 0-11 1-17 3-3 1-7 1-10 2 3-2 5-2 8-3 7-2 14-3 21-4z" class="D"></path><path d="M236 434s1-1 2-1h0l-1 2c1 0 3-1 4-1l1-1v1c0 1-1 1-1 1v1l-1 1 1 1h-1l-3 3v-1h-1c-1 1-1 3-2 4v-7l-3-2c1-1 3 0 5-1h0z" class="E"></path><path d="M332 541c1 0 1 0 1 1-1 2-3 4-6 6-6 4-13 5-20 4-2 0-3-1-5-1 1-1 3 0 4 0h6c5 0 11-2 15-5 2-1 4-3 5-5z" class="H"></path><path d="M309 466h3v1c-5 0-10 1-14 6-3 3-4 6-3 11v1h0c-1-1-2-3-2-4 0-3 0-6 2-9 4-5 8-5 14-6z" class="D"></path><path d="M329 478c1 1 3 2 4 3 6 5 10 12 13 19 1 3 2 6 2 9h0-1 0v4c-2-9-4-19-9-26-3-4-6-6-10-8l1-1z" class="C"></path><path d="M332 541c2-2 3-4 4-5 3-7 4-17 3-24 0-2 0-3-1-5 0-1-1-2-1-4h0c1 2 2 4 2 6h1c0 2 1 4 1 6 0 6 0 12-2 17-1 4-3 7-6 10 0-1 0-1-1-1z" class="D"></path><path d="M256 501c4 2 8 4 12 4 3 0 7-1 11-1-4 2-9 2-13 2-1 0-3 1-5 0h0c-4-1-9-3-12-6h1v-1l2 2c1 0 2 0 3 1l1-1z" class="C"></path><path d="M275 497h-1c-3-1-6-3-8-6-3-5-5-11-4-16v-1c1-1 1-2 2-3h1l-1 2c-2 4 0 10 1 14 1 3 4 6 7 7h0l-1-2h0 0l-1-1h1c1 1 3 3 5 3 1 0 2 0 4 1 1 1 3 0 5 0-3 2-7 0-10 2z" class="B"></path><path d="M328 479c-3-2-6-4-9-4-5 0-9 1-12 4s-4 6-4 10v-1c-1-3-1-6 0-8 2-3 5-5 8-6 7-2 12 1 18 4l-1 1z" class="J"></path><path d="M313 546c2 0 6-2 8-3 5-3 10-9 11-15v-1h1c-1 6-4 12-8 16-5 4-11 5-17 5-2 0-3-1-5-1 2-2 7-1 10-1z" class="H"></path><path d="M262 406c-3 0-5 0-8 1-2 0-6 1-8 0h1c1-1 2-1 3-1l6-1c3 0 5-2 8-2 2-1 5-1 7-1 6-1 11-1 16 0 1 0 2 1 2 1 1 1 1 1 1 2h0c-2-1-2-2-4-2-4-1-8 0-13 0-1 0-3 0-5 1h0 5c-2 1-3 1-5 1h-4c-1 0-1 0-2 1h0 0z" class="B"></path><g class="D"><path d="M242 477v-8c2-5 3-8 7-12 11-9 27-12 40-11-3 1-7 0-10 0-1 0-2 1-3 1h4c2-1 6 0 8 0h0-5c-4 0-7 0-10 1-5 1-10 3-15 5-4 2-8 4-11 7-3 4-5 11-5 16v1z"></path><path d="M247 481c-1-5-1-11 3-16 4-6 13-13 21-15 1 0 5-1 6 0 0 1-4 1-5 2-5 1-9 3-13 6h0c-4 2-8 7-9 11-1 2-1 4-2 7-1 1 0 3 0 5h-1z"></path></g><path d="M277 423c1 0 2 1 2 2-8-4-16-7-26-7-3 0-6 2-9 1h-1c-1 0-1-1-2-1h-1c-2-1-3-2-4-4h0c2 2 4 2 6 3l1 1c2 0 9 0 11-1 1 0 3 0 4-1h-6c-2 0-5-1-8-1 3-1 5 0 8 0 2 0 5 0 8 1h3c3 2 6 3 9 4 2 1 3 2 5 3z" class="F"></path><path d="M272 443c2-1 13-1 15 0-1 1-2 0-4 0l-8 1h-4c-1 0-3 0-5 1-4 1-7 3-10 4-2 1-3 1-4 2h0c-2 1-4 4-6 5-1 0-3 4-4 4 0 1-1 1-1 2s-1 1-1 2c-1 2-2 4-2 6l-1 2v1h-1v-2c1-1 1 0 1-1v-1-2c1 0 1-1 1-1 0-2 1-3 2-4 0-1 1-2 1-2 2-4 7-6 9-9 1-1 1-1 2-1 3-2 6-4 10-5 1 0 1 0 1-1 2-1 4-1 6-1h3z" class="E"></path><path d="M295 511h6c4 0 7 2 10 6h0l-2-1c-3-3-8-4-13-3-5 0-12 3-16 6-2 2-4 5-6 7-4 5-5 9-5 15h0c-1-6 0-11 4-16 5-7 14-12 22-14z" class="K"></path><path d="M289 528v-2c1-1 3-3 4-3h2v-1c2 0 4 0 6 1 1 0 4 1 5 3v1 1c-1 0 0 1 0 1 0 1 0 2-1 3-1 3-5 4-6 7l-1 1v1h-1v-1c-1 0-1-1-1-2h1c0-3 2-4 4-5h0c1 0 2-1 3-1 1-2 0-3-1-4h0l1-1c-2-2-5-2-7-2h-1c-3 0-5 1-7 3z" class="E"></path><path d="M289 446c6 0 11 1 16 3 3 1 5 1 7 2 2 0 4 1 6 2 1 1 2 1 3 1 4 2 8 4 12 7 5 3 10 7 14 11 2 2 4 3 5 5v1l-6-6c-3-3-6-6-9-8-4-2-7-4-10-6-13-7-29-11-44-11h5 0c-2 0-6-1-8 0h-4c1 0 2-1 3-1 3 0 7 1 10 0z" class="F"></path><path d="M246 358c2 0 5 0 7 1h-3c-2 2-5 5-8 6 1-2 3-3 5-5h0c-2 1-4 2-5 3-2 2-5 3-6 5-1 0-1 0-1 1 1-3 6-6 7-8-4 2-7 5-10 8h0c1-2 2-3 3-4s3-2 3-4c-2 1-5 4-7 6 0-2 3-5 4-6-1 1-3 2-4 3h0v-1h-1c-1 1-1 1-3 1 0-1 1-2 3-3 1 0 3-2 4-2 2-1 4 0 5 1h0c1-1 2-1 3-1h0v1h1c1-1 1-1 3-2z" class="G"></path><defs><linearGradient id="A" gradientUnits="userSpaceOnUse" x1="272.442" y1="429.659" x2="249.707" y2="442.784"><stop offset="0" stop-color="#676769"></stop><stop offset="1" stop-color="#949293"></stop></linearGradient></defs><path fill="url(#A)" d="M269 434c-6 1-12 2-18 6-4 2-9 7-12 11-2 2-3 4-5 5 1-2 3-4 4-6a57.31 57.31 0 0 1 11-11c7-7 18-8 27-7 0 0-1 1-2 1h1c-2 1-4 0-6 1z"></path><path d="M307 539c3-2 5-4 7-5s5-2 6-3 2-3 3-4h1v-1-3l1-1c0 5-1 9-4 13-3 3-8 6-13 6h-6 4v-2h1z" class="G"></path><path d="M250 376c6 0 12 0 17 2-7 0-12 1-17 4-1 0-1 1-2 1-1 1-4 0-5 0-2 2-3 4-4 6 0-3 2-6 3-8 2-3 5-4 8-5z" class="I"></path><path d="M268 475c1-2 1-3 2-5 3-5 8-8 13-9 14-4 29 1 41 8h-1c-2-1-4-2-7-3-9-4-20-6-31-4-5 1-10 4-13 9l-3 6h0l-1-2z" class="H"></path><path d="M345 474c5 5 9 10 12 15 7 14 18 32 12 48v1h-1l-1 1 1-9c0-8-1-17-4-24-1-3-2-6-3-8l-6-12c-3-4-7-7-10-11v-1z" class="G"></path><path d="M264 471c2-7 7-10 14-13 11-4 25-2 37 3 11 4 20 11 29 19h-1c-5-5-11-9-16-12-13-8-30-14-46-9-4 1-10 4-13 7-2 2-2 4-3 5h-1z" class="D"></path><path d="M213 378c2-1 5-1 7 0 4 3 6 7 7 11-1-1-2-4-4-5-2 0-3 1-5 2-4-2-7-4-12-3-2 0-4 1-6 2 4-5 7-7 13-7z" class="I"></path><path d="M274 439h4 11c3 1 5 2 8 2h1c-1 0-2 0-2 1h1 2 0v1l-4-1c-6-2-13-2-19-1-5 0-10 0-14 2-5 2-9 4-13 7h-1c-2 1-3 3-5 5-4 3-7 7-8 11l-1 4h-1c0 2 0 3-1 4h0c0-2 0-3 1-5 0-1 1-3 1-4 1-3 3-6 5-8 1-2 3-4 5-6 5-3 10-7 15-9s10-2 15-3z" class="B"></path><path d="M307 539c1-2 2-2 3-3h0c2-1 6-4 7-5h0l1-1c1-1 1-1 2-1h0v-1c1 0 1-1 2-1 0-3 0-5 1-8h0c-2-5-6-8-11-10h0l-3-1h-3l-1-1c-1 0-6 0-7 1h-4-1l-6 3c-3 2-6 3-8 5h0c-3 2-6 5-9 8 1-3 3-6 6-7l2-2s1-1 2-1l3-2 1-1c3-1 6-3 9-4h1 2c1 0 1-1 1-1h1 1 6 3c0 1 1 1 2 1 7 1 10 6 14 12v-1c1 0 0-2 0-3 0 0 1 0 1 1v1 5l-1 1v3 1h-1c-1 1-2 3-3 4s-4 2-6 3-4 3-7 5z" class="C"></path><path d="M259 468c6-10 16-16 27-18 1-1 4-1 5-1 15 0 29 7 41 15 4 3 10 6 13 10v1c-4-4-9-7-13-10-13-9-31-17-47-13-6 1-14 4-19 9-3 2-4 5-6 7h-1z" class="F"></path><path d="M287 391c-3 0-3-2-5-4-5-9-13-12-22-14h0c3-2 8 1 12 2h0c-2-1-4-2-7-3-1-1-2-1-3-1v-1c4 0 9 2 13 4 1 0 2 1 3 1s1 0 2-1c3 5 6 12 7 17z" class="C"></path><path d="M289 528c2-2 4-3 7-3h1c2 0 5 0 7 2l-1 1c-2-2-6-2-9-2-2 1-4 3-5 5-2 4-2 9-1 12v1c3 5 8 10 13 12 7 2 17 1 23-1 6-3 12-8 15-14h1c-2 6-10 12-15 15-6 3-16 4-23 2-6-2-11-6-14-12-2-4-3-9-1-14 0-1 1-3 2-4z" class="D"></path><path d="M263 111h1c5-2 11-3 17-4 15-2 31-2 45 3-10 0-20-2-30-2l-20 2c-4 1-9 1-13 1z" class="J"></path><path d="M347 513v-4h0 1 0c1 3 1 6 1 9 1 9-2 21-7 28-6 9-17 16-27 18-3 0-8 1-10 0-3-1-6-1-9-2-3-2-9-3-10-7 3 2 7 5 11 6 2 1 4 1 5 1 2 1 3 0 4 1h6c3-1 5-1 7-2 8-2 17-9 22-16 6-10 7-21 6-32z" class="F"></path><path d="M240 499h0c3 1 4 4 6 5v1c1 0 1 0 2 1h0c1 1 2 1 2 1l1-1h-1c-1-1-1-2-2-2s-2-2-3-2l-2-2h1c2 2 4 4 7 5 6 4 13 4 19 3 2 0 5-1 6-1l1 1c-1 1-1 1-2 1-2 2-5 3-8 4-1 1-3 3-5 4-1 0-2 1-2 2-1 2-3 4-4 6 0 1 0 3-1 4-1-1-1-1-1-2s1-1 1-1v-1c0-1 1-2 2-3 1-2 2-4 3-5 3-2 6-4 8-6-3 1-5 2-7 3h-1c-2 1-3 3-5 5h-1c1-2 3-4 4-5-1 0-2 1-3 2h0c0-2 0-3 2-4 1 0 1 0 1-1h0c-7-1-14-6-18-12z" class="B"></path><path d="M258 514c1 0 3-1 3-2s-1-1-1-1l-1-1h8c-1 1-3 1-4 2l-1 1c-1 0-1 1-2 1-2 1-3 3-5 5h-1c1-2 3-4 4-5z" class="E"></path><path d="M329 503c4 5 6 13 5 19 0 1-1 5-1 5h-1v1c-1 6-6 12-11 15-2 1-6 3-8 3-3 0-8-1-10 1l-1-1c-3-1-4-3-5-5h1l3 2 6 1c7 0 11-1 16-5 4-4 7-9 7-15 1-7-3-14-7-19h0c6 5 7 12 10 19 0-5 0-11-1-15-1-2-2-3-3-5v-1z" class="B"></path><path d="M297 541h1l3 2c1 1 2 2 4 2h1c2 1 5 0 7 1-3 0-8-1-10 1l-1-1c-3-1-4-3-5-5zm-50-60h1c0-2-1-4 0-5 0 7 1 13 7 19 2 2 5 4 8 4 2 0 3 1 5 1 2 1 5 1 7 1l12-3c7-2 14-3 21-2 1 1 3 1 5 2 4 2 7 3 10 7h0c-6-5-11-5-18-5v-1h-5c3 0 5 0 7-1-7-1-13 0-19 1-4 1-7 2-10 3-7 1-15 1-21-3s-9-11-10-18z" class="F"></path><path d="M344 480c10 10 19 33 19 48v7c-1 1-1 3-2 5-1 3-3 6-5 9-1 2-2 4-4 5a30.44 30.44 0 0 1-8 8c-3 2-7 6-11 8-1 0-2 0-2 1-1 0-2 1-3 1h-1c3-2 6-3 8-5l8-5c1-1 2-2 3-2 1-1 1-2 2-3l4-4v-1c1 0 1 0 1-1s1-1 1-3c2-2 3-6 5-9 1-3 2-8 3-11 0-4-1-8-2-12-2-9-5-18-10-27-3-3-5-6-7-9h1z" class="C"></path><path d="M367 539l1-1h1c-1 2-2 5-3 8l-6 12c-1 2-2 3-3 5-5 6-11 11-18 16-3 1-5 3-8 5s-7 3-10 5l1 1c-7 2-13 4-19 4l2-2c3-1 6-2 9-2l-1-1c1 0 2-1 3-1-1-1-2 0-3-1h0c2-1 5-2 7-2l1-1h-1c1-1 3-1 4-1l-1 1h0c1 1 2 0 3 0 2-1 4-1 6-3h0l1 1c4-3 8-5 12-8l6-6c2-2 6-5 7-8v-1l-3 3-6 6c-4 4-8 8-13 10v-1l3-1c6-4 11-10 16-15l3-3c5-5 8-13 9-19z" class="H"></path><path d="M324 583l-1 1h0c1 1 2 0 3 0 2-1 4-1 6-3h0l1 1c-6 3-12 6-19 8l-1-1c1 0 2-1 3-1-1-1-2 0-3-1h0c2-1 5-2 7-2l1-1h-1c1-1 3-1 4-1z" class="C"></path><path d="M324 469c2 1 5 3 7 5 5 3 10 8 14 13s6 11 9 17c0 2 1 4 1 6 3 13 2 24-3 35-2 6-7 11-11 14-9 7-19 14-30 15-5 1-12 2-16 0h-5c-4-1-6-2-10-4v-1l6 3h1 2l1 1h3c5 1 10 1 14 0h6c2-1 3-1 4-1 11-4 23-11 29-20l3-5h1v-2l3-6v-2c1-1 1-2 1-3 1-3 1-6 1-9 0-5 0-10-1-15s-3-9-5-14c-2-4-5-9-8-13-5-5-12-10-18-14h1z" class="B"></path><path d="M241 436c3-3 7-7 11-9 1 0 1-1 2-1 0-1 1-1 1-1 2 0 3-1 5-1 4-1 6-1 10 1 1 0 3 0 4 1l1 1s2 1 3 1l5 2c1 0 1 0 1 1h-1c-1 0-2-1-3-1-4-1-11-2-15-1h-2c-1 0-2 0-3 1h0c-3 1-7 3-9 4s-3 2-4 4c-2 3-6 5-7 8l-1 1-5 6c0 1-1 3-1 4h-1v-1h0v-1l1-1c0-1 0-1-1-2h0c1-1 2-3 2-4 1-2 2-3 3-5l3-3 4-4c1-1 2-2 4-3v-1c2-2 7-4 10-5 2-1 5-1 8-2-5 0-8 1-12 2-1 1-2 1-3 2h-1l-3 3-6 6-1-1 1-1z" class="C"></path><path d="M257 580c5 2 10 3 14 3 10 2 20 2 29 2 7-1 14-3 21-4 2 0 5-1 6-2 2 0 3-1 4-2 2-1 5-2 7-4 8-5 14-12 19-19 1 1 0 2 0 2-1 2-2 3-3 4-7 9-15 15-26 19v1c2 0 6-2 8-3h0v1c5-2 9-6 13-10l6-6 3-3v1c-1 3-5 6-7 8l-6 6c-4 3-8 5-12 8l-1-1h0c-2 2-4 2-6 3-1 0-2 1-3 0h0l1-1c-1 0-3 0-4 1l-24 4h-1-4c-3 1-7 0-10 0h0 8 1c-1-1-2 0-3 0l-7-1c-6 0-11 0-16-1-1-1-3-1-4-2-4 0-10-2-12-5 2 1 3 2 5 2 3 1 6 2 8 3h1 3c-1-1-3-1-4-1l-6-2v-1h2z" class="G"></path><path d="M290 588c2-1 5-1 8-2l17-2c5-2 10-3 15-3l-6 2c-1 0-3 0-4 1l-24 4h-1-4c-3 1-7 0-10 0h0 8 1z" class="L"></path><defs><linearGradient id="B" gradientUnits="userSpaceOnUse" x1="434.538" y1="392.951" x2="436.585" y2="404.416"><stop offset="0" stop-color="#949394"></stop><stop offset="1" stop-color="#d0d0d0"></stop></linearGradient></defs><path fill="url(#B)" d="M416 408c0-4 1-7 3-10 2-2 5-3 8-4 6-2 14-1 20-2h22c-1 1-4 1-6 1h-3c-2 2-5 6-9 6-1 0-1 1-2 1-2 0-4 1-6 1-8 1-15 2-23 6-2 1-3 2-4 1h0z"></path><path d="M237 577c1-1 2-1 3-2 1 1 1 2 2 2-1-5-1-11 0-16 4 2 7 6 11 8 2 1 5 0 8 2l-1 1-1-1h-1-1l-1 1c1 3 8 5 10 8h0c-2 0-2-1-3-2-3-1-6-2-8-4-2-1-3 0-5-1l-1-1-2-1v1l1 1v1c0 1 1 2 3 3 1 2 1 3 4 4h0l6 2c1 0 3 0 4 1h-3-1c-2-1-5-2-8-3-2 0-3-1-5-2 2 3 8 5 12 5 1 1 3 1 4 2 5 1 10 1 16 1l7 1c1 0 2-1 3 0h-1-8 0c3 0 7 1 10 0h4 1l24-4h1l-1 1c-2 0-5 1-7 2h0c1 1 2 0 3 1-1 0-2 1-3 1l1 1c-3 0-6 1-9 2h-5c-3 0-6 1-9 1h-18c-3-1-8 0-11-2-2-1-4-1-6-1 2 0 3 0 4-1-2-1-5-1-7-2h-1c-1-1-3-1-4-2s-2-2-3-2l-3-3c-1-1-3-2-5-3z" class="E"></path><path d="M320 584h1l-1 1c-2 0-5 1-7 2h0c1 1 2 0 3 1-1 0-2 1-3 1l1 1c-3 0-6 1-9 2h-5c-3 0-6 1-9 1h-18c-3-1-8 0-11-2-2-1-4-1-6-1 2 0 3 0 4-1-2-1-5-1-7-2 2-1 7 1 9 2h3 4 14c5 0 9 0 13-1l24-4z" class="B"></path><path d="M260 589h4c2 2 7 2 9 2s4 1 6 1h13c2 0 5-1 7-1l1 1c-3 0-6 1-9 1h-18c-3-1-8 0-11-2-2-1-4-1-6-1 2 0 3 0 4-1z" class="E"></path><path d="M292 405l-3-6c11 1 22 2 33 6 1 0 6 3 6 2-1-1-4-2-6-3-7-3-14-4-22-5l-8-1h-3c0-1-1-2-1-3v-1h5 19 23c5 1 9 1 13 3 15 6 23 22 29 36 5 12 9 25 12 38 2 10 4 20 3 30 0 14-3 27-8 39-10 25-28 45-53 56-11 4-22 9-34 11-22 5-48 3-69-6-5-2-10-4-14-7-19-13-32-33-41-54-5-13-8-26-10-40-4-24-5-48-5-72v-27c14-1 29 0 42 5h1c2 1 3 3 5 4-13 1-26 2-38 8-2 1-4 3-6 4v1h0c3-2 6-4 10-6 6-2 12-4 18-5 3 0 7-1 10-1 3 1 5 0 8 1-2 1-4 1-6 2l-8 2c-11 3-25 11-31 21h1c3-3 5-6 9-9 8-7 19-11 30-14h5l2 1c-2 2-5 3-7 5-9 7-14 17-14 28 0 2 1 4 2 5 0-2-1-4-1-6 1-10 4-16 10-23 2-3 5-5 8-6 1-1 2-2 3-2s3 1 4 2c-9 5-15 10-17 20-1 5-2 11 0 16h1c0-2-1-6-1-8 0-5 2-12 5-17 2-4 6-7 11-9 1-1 2-2 3-2h1c2 1 4 3 6 5 6 3 11 3 17 3-4 2-8 2-13 1 0 1 3 4 4 4h3l-1 1s-1 0-2-1v1c1 1 1 2 3 2h1 0c-2 1-4 0-5 1l3 2v7c-2 6-4 12-4 18 1 3 0 6-1 9 0 9 3 17 8 24 1 1 2 3 3 4h0c4 6 11 11 18 12h0c0 1 0 1-1 1-2 1-2 2-2 4h0c1-1 2-2 3-2-1 1-3 3-4 5h1c2-2 3-4 5-5h1c-2 2-5 5-7 8-1 3-1 5-1 8 1 6 1 11 3 16 1 3 3 7 5 10 2 2 4 4 5 7 1 1 1 2 0 3 0 1-1 2-2 3-1 0-3 0-3 2-3-2-6-1-8-2-4-2-7-6-11-8-1 5-1 11 0 16-1 0-1-1-2-2-1 1-2 1-3 2 2 1 4 2 5 3l3 3c1 0 2 1 3 2s3 1 4 2h1c2 1 5 1 7 2-1 1-2 1-4 1 2 0 4 0 6 1 3 2 8 1 11 2h18c3 0 6-1 9-1h5l-2 2c6 0 12-2 19-4l-1-1c3-2 7-3 10-5s5-4 8-5h1c1 0 4-2 5-2h1c1-2 3-3 5-4 5-5 10-11 15-17l1-1c4-7 7-14 9-22 1-14-1-26-7-38-1-4-3-8-5-12-3-5-6-9-10-13-3-4-7-9-11-12-5-5-11-9-17-13-10-7-20-15-26-25-3-4-5-8-8-12 6 2 11 4 17 7 1 1 3 1 4 3 2 1 3 2 5 3-7-7-16-12-26-14v-2z" class="I"></path><path d="M300 592h5l-2 2c-9 2-18 3-26 2h4c2-1 5 0 7-1 0 0 1-1 2-1h-1l2-1c3 0 6-1 9-1z" class="D"></path><path d="M339 579h1c1 0 4-2 5-2h1l-3 3c-7 4-14 7-21 10l-1-1c3-2 7-3 10-5s5-4 8-5z" class="B"></path><path d="M366 556l1-1c-1 7-9 15-14 18-3 3-6 5-10 7l3-3c1-2 3-3 5-4 5-5 10-11 15-17z" class="K"></path><defs><linearGradient id="C" gradientUnits="userSpaceOnUse" x1="247.888" y1="599.905" x2="258.05" y2="578.719"><stop offset="0" stop-color="#161516"></stop><stop offset="1" stop-color="#3e3e3e"></stop></linearGradient></defs><path fill="url(#C)" d="M216 581c2 0 2 0 4 1 3 2 7 5 11 6 2 0 5 1 7 0 4-1 8 0 12 1 2 0 4 0 6 1 2 0 4 0 6 1 3 2 8 1 11 2h18l-2 1h1c-1 0-2 1-2 1-2 1-5 0-7 1h-4c-2 1-4 1-6 1-5-1-10-1-16-1l-14-3c-4-1-8-1-12-2-6-1-10-5-13-10z"></path><path d="M215 572c0-1 0-2 1-2 3-2 8-2 10-1l6 3c1 2 3 4 5 5s4 2 5 3l3 3c1 0 2 1 3 2s3 1 4 2h1c2 1 5 1 7 2-1 1-2 1-4 1-2-1-4-1-6-1-4-1-8-2-12-1-2 1-5 0-7 0-4-1-8-4-11-6-2-1-2-1-4-1-1-1-1-2-2-3 0-1 0-4 1-6z" class="L"></path><path d="M215 572c0-1 0-2 1-2 3-2 8-2 10-1l6 3c-1 1-1 1-2 1s-2-1-4-2h-1c0 1 5 4 6 4l-1 1c-2-2-5-3-8-4-2 0-4-1-6 0h-1z" class="B"></path><path d="M216 572v1c1 1 5 1 7 1 2 1 5 2 7 4v1h0c-2-1-3-2-4-2-3-2-6-1-9-1h-1c3 2 6 0 7 1 1 0 1 0 1 1 3 0 3 2 5 3l3 3h0c-4-2-13-7-17-6h-1c0-1 0-4 1-6h1z" class="C"></path></svg>