<svg xmlns="http://www.w3.org/2000/svg" xmlns:v="https://vecta.io/nano" viewBox="52 36 440 628"><!--oldViewBox="0 0 532 752"--><style>.B{fill:#f7f6f7}.C{fill:#eae9ea}.D{fill:#dfdee0}.E{fill:#f0eff1}.F{fill:#212022}.G{fill:#2c2c2c}.H{fill:#040404}.I{fill:#fefdfd}.J{fill:#111011}.K{fill:#181819}.L{fill:#c1c0c1}.M{fill:#d7d6d7}.N{fill:#626262}.O{fill:#747376}.P{fill:#949394}</style><path d="M247 294v-3-2h1l1 1 1 1c2 1 4 0 6 2-1 1-6 1-8 1h-1zm9-24c1-1 2-1 3-1s1 1 1 1l14-4c-3 2-8 3-11 4h-3v1 1c-1 1-7 3-8 3h0c0-1 1-1 1-1 1 0 3-1 4-2h1v-1c-1 0-4 1-5 2h0-2v-1c1-1 2-1 3-1 1-1 2-1 2-1h0zm-29-31c1-1 1-1 0-2 1 0 2 0 2 1 3 3 4 6 4 10v1h-2c-1-2-2-5-3-7 0-1-1-2-1-3zm29 40c0 1 1 1 2 1l1-1c0 1 0 1 1 1h0c3-1 5-1 7-1h11l29 1h0l-47 1-1 1c-1 0-1 0-2 1h-1-3l1-1h0l2-2v-1z" class="H"></path><path d="M248 271c1 0 1-1 2-1h1 1c1 0 2 0 3-1h2l-1 1h0s-1 0-2 1c-1 0-2 0-3 1v1h2 0c1-1 4-2 5-2v1h-1c-1 1-3 2-4 2 0 0-1 0-1 1h0v1h-4c-2-1-2 0-3 0-1-1-1-1-1-2s1-1 1-1c1 0 2 0 2-1h1 1l-1-1z" class="F"></path><path d="M256 252v4c1 0 9-4 10-5 9-4 18-8 28-11v1l-9 3c-8 3-16 6-24 10-1 1-3 1-4 2-2 2-4 5-7 5h0c0-1 2-2 3-3h0-2l-1 1c-1 0-1 1-2 2h-1c0-2 3-3 4-4v-1c1-1 2-2 4-3h0l1-1z" class="H"></path><path d="M237 271h1 1v3c-1 3-2 8-5 10-2 0-3 0-4-1v-2l-1-1c-1 1 0 2-1 2h-2c-3-2-5-3-8-6 6-1 13-2 19-5h0z" class="J"></path><path d="M239 270c0-1 0-1-1-2-1-2 0-3 1-5 2-5 6-10 9-14 2-1 3-3 5-3 2-1 3-2 4-3 4-2 9-5 13-7 1 0 2-1 3-1-3 2-18 9-19 12v2c-1 1-2 3-3 4l-7 7c-2 2-4 4-5 6 4-4 8-9 12-13 1-1 2-3 4-3h0l1 2-1 1h0c-2 1-3 2-4 3v1c-1 1-4 2-4 4h1c1-1 1-2 2-2l1-1h2 0c-1 1-3 2-3 3h0 0c-1 1-2 2-3 2l-2 2h0c-2 2-4 3-6 5z" class="K"></path><path d="M251 262l5-4 1 1v2c4 1 10-1 13-2h2c-4 1-7 2-12 2l-2 2c0 1 0 2 1 4h1c2-1 4-1 5-1l13-2c4-1 7-2 10-2 2-1 3 0 5-1 2 0 5-1 7 0h0c-2 0-6 0-8 1l-16 3c0 1-1 1-2 2v-1l-14 4s0-1-1-1-2 0-3 1l1-1h-2c-1 1-2 1-3 1h-1-1c-1 0-1 1-2 1l1 1h-1-1c0 1-1 1-2 1 0 0-1 0-1 1s0 1 1 2c1 0 1-1 3 0-1 1-2 0-3 1h-2c-1 0-1-1-1-1-1 0-1 1-1 1 0 2 0 4-2 5-1 1-2 1-2 1h0c2-5 4-8 2-13 2-2 4-3 6-5h0l2-2c1 0 2-1 3-2l1 1z" class="H"></path><path d="M257 269h1c5-4 12-2 17-5h1v1c0 1-1 1-2 2v-1l-14 4s0-1-1-1-2 0-3 1l1-1z" class="B"></path><path d="M239 270c2-2 4-3 6-5h0l2-2c1 0 2-1 3-2l1 1c-1 1-1 1-2 1l-1 1c-1 1-2 1-2 2h0s1 0 1-1c1-1 3-1 4-2 2 0 3-2 5-1h0l-6 3c-1 0-2 2-3 2l-3 3h0 2l1-1c1 0 1-1 2-1h1s0-1 1-1l1-1 1 1c-1 1-2 2-3 2l-4 2v1c1 0 2-1 2-1l1 1h-1-1c0 1-1 1-2 1 0 0-1 0-1 1s0 1 1 2c1 0 1-1 3 0-1 1-2 0-3 1h-2c-1 0-1-1-1-1-1 0-1 1-1 1 0 2 0 4-2 5-1 1-2 1-2 1h0c2-5 4-8 2-13z" class="G"></path><path d="M127 196l-5-1c3-8 6-16 10-23 17-31 41-57 72-74 38-21 85-27 127-17 15 3 29 8 43 12 12 4 29 8 40 1 6-3 9-9 10-15h28v174h-25c0-6 0-12-1-18 0-12-3-24-6-35-9-28-28-54-55-68-24-13-54-17-80-9-29 9-50 29-64 55h-1v-2h0l-1-1v-1-1-1h0v2 1c0 1 0 2-1 2-1-4 0-10-3-14-1-1-2-2-3-2-3 0-5 1-7 3-6 4-11 8-16 13h-1v-1l-13 12-11 12c-3 3-5 5-8 7l-29-11z" class="J"></path><path d="M188 176c5-5 17-17 24-17 1 0 3 1 4 3 3 3 4 10 4 14h0l-1-1v-1-1-1h0v2 1c0 1 0 2-1 2-1-4 0-10-3-14-1-1-2-2-3-2-3 0-5 1-7 3-6 4-11 8-16 13h-1v-1z" class="B"></path><path d="M189 177c5-5 10-9 16-13 2-2 4-3 7-3 1 0 2 1 3 2 3 4 2 10 3 14l1 22c0 3 0 7 1 11 1 3 3 6 6 8 6 7 16 11 22 18 2 3 3 6 5 9-7 4-13 13-16 20v3c-7-2-14-5-17-12l-1-1c8-1 14-1 19-8 3-5 4-9 5-14-1-1-2-1-4-1-4-1-8 0-12 2 1 1 2 2 2 4 0-1-1-1-2-1 1 1 1 1 0 2 0-1-1-3-2-4-3 2-6 7-7 11-1 3-1 8 1 11 4 7 8 9 16 12 0 0 1 0 1 1-2 1-4 1-5 2-5 1-10 2-14 4 3 5 9 8 15 9 1 0 2 0 3-1 1 0 1-1 2-1 0 0 1 0 2-1 2-1 2-3 2-5 0 0 0-1 1-1 0 0 0 1 1 1h2c1-1 2 0 3-1h4c4-2 8-2 13-3 4 0 9-1 13-2 4 0 9 0 13-1h0c-4 1-9 1-13 2l-18 3v2c-1 1-6 2-6 2 0 1 1 1 2 0v1l-2 2h0l-1 1h3 1c1-1 1-1 2-1 0 1 0 1 1 1h2 6c7 0 15 1 22 2 2 0 5 0 7 1-6 0-13-2-19-2-7-1-13-1-19 0h0v1c0 1-2 3-2 3l17 3 15 3h0l-14-2-13-2c-2 0-5-1-7 0-2 0-4-1-6 0l-1-1h-1v2 3l-2-1h0c2 1 5 2 8 2 5 0 13 5 18 7 1 1 3 1 4 2h0c-3 0-5-2-8-3-3-2-7-4-11-5-1 0-2-1-4 0h0c0 1 0 1-1 2l-1 1 1 1h-1c-2 7-6 14-11 19-5 4-10 8-16 11-2 2-5 3-7 6-5 4-8 11-9 18-2 7-2 14 0 22 0 3 2 6 3 9 3 8 6 15 13 21 1 1 3 2 4 3 2 1 3 1 4 2-1 1-1 1-1 2 1 1 1 1 2 1l1-1c1-1 0-1 0-2l1 1h2c-1-2-3-2-5-3l-6-3c-10-8-15-24-17-36-2-11 1-25 8-34l1-1v3c1-2 3-4 4-6-1 3-2 5-3 8-3 8-3 19 0 27 2 5 4 10 8 15s8 10 11 16 2 11 3 17c0 3 1 5 3 7 2 4 6 7 10 10 9 8 19 15 21 29 1 5 0 10-3 15-3 7-10 12-17 14-9 3-19 3-28 3v1c8 0 16 0 23 1 15 3 29 11 39 22 11 12 15 27 14 43 0 12-6 23-15 31-4 4-8 6-13 8h0c9-4 19-13 22-23v-1c-5 7-9 14-16 19-2 2-4 3-6 4s-3 2-5 3h-1c-1 1-2 1-3 1v-1s0-1 1-1 2 0 3-1c2-1 4-3 6-5-1 0-2 2-3 2l-2 2h-1-1s0 1-1 1h-1-1c0 1-1 0-2 0 0 0-3 2-4 2-3 1-6 1-9 2-14 1-30-4-41-13-9-7-16-18-17-29h-1v4c2 12 9 22 18 28 17 13 42 16 63 13 23-4 45-15 59-34 12-16 18-36 20-55 1-9 1-18 1-27v-29-24c0-6 0-13-1-20-2-13-9-25-19-33-13-9-28-9-42-8v-46h190v46h-10c-8 1-15 5-21 10-10 10-13 22-13 36v53 31c-2 18-6 37-14 54-7 14-16 26-27 37-4 3-8 7-12 10-1 1-5 3-5 4h0c-1 1-1 2-2 2 0 1 1 1 1 1 2-1 4-3 5-4h1l-2 2c-33 29-80 39-124 39h-22c-23-2-47-7-68-15-27-12-53-30-72-53-19-21-34-48-41-76-3-14-4-30-4-45 1-16 4-33 11-48 3-6 7-12 11-17 7-12 15-24 18-37 2-5 2-11 2-16s-1-9-2-14v-13l3 12c2 4 3 8 4 12v14c0 1 0 3-1 5v1h0c-1 0 0 0 0 1-1 1-2 2-1 3h-1v2c0 1-1 2-1 3l-2 2v1c0 1-2 4-2 5h0l2-2h0c3-4 5-10 7-15 3-9 4-18 1-26-1-5-3-10-5-15a65.35 65.35 0 0 1 0-34c0 8 1 15 2 23 1 4 2 9 4 13 0-6-2-11-2-16-2-11-1-23-2-34l-4-43-2-18c0-3 0-7 1-11 0-2 2-5 4-7 3-1 6-1 9 0 7 1 14 3 20 5h4l1 1h1 2v1h1c2 0 2 1 4 1-1-1-2-1-3-1 0-1 0 0-1 0-2-2-5-2-6-4l29 11c3-2 5-4 8-7l11-12 13-12v1h1z" class="J"></path><path d="M200 207c1 0 1 0 2 2l-1 1c-1 0-2 0-2-1l1-2z" class="D"></path><path d="M174 615c1 0 2 1 4 2 0 0 0 1-1 1l-3-2v-1z" class="F"></path><path d="M210 472h0c0 2 1 3 0 4h-1l-1-1h0l2-3zm33 2l1 1v1c-1 0-2 1-3 1l-1-1 1-1 2-1z" class="M"></path><path d="M202 466h1c1 0 2 0 3 1l-1 1h-2c-1 0-1-1-1-2z" class="E"></path><path d="M203 351l-1-1 1-1h2c1 1 1 2 0 3h0l-2-1z" class="M"></path><path d="M394 459h2c1 1 1 1 1 2l-1 1h-1c-1 0-1 0-2-1 0-2 0-1 1-2z" class="B"></path><path d="M143 225h1c1 1 1 1 1 3-1 1-1 1-2 1s-1-1-2-2h0l2-2z" class="M"></path><path d="M195 490l1-1c1 1 2 1 2 2s0 1-1 2h-1c-1 0-1 0-1-1-1-1 0-1 0-2zm-26-78l2-1 2 1h3v1c0 1 0 1-1 1s-3-1-4-1c0 0-1 1-2 1v-2z" class="E"></path><path d="M168 419h1v-1c-1-1-2-1-3-1v-1s1-1 2-1 2 1 3 2v1c0 2-1 3-2 3h-2c0-1 0-1 1-2z" class="C"></path><path d="M167 354c-1 0-1 1-2 2-1 0-2 0-3-1v-2-1c1 0 2-1 2 0 2 0 3 1 3 2h0z" class="B"></path><path d="M109 540h0c2 0 6 2 7 3 1 0 1 1 1 2h0c-3 0-7-2-8-5z" class="E"></path><path d="M109 590c2 1 3 3 5 4v1c0 1 3 4 3 4v1l-9-8 1-2z" class="D"></path><path d="M278 635c-3 0-7-1-9-3v-1c4 0 8 2 11 4h-2z" class="E"></path><path d="M150 551c0 5 0 8-3 11h-1c0-1 0-4 1-5l3-6z" class="D"></path><path d="M128 608h3c4 3 7 7 12 10l2 2v1h-1l-3-3c-1-1-2-2-4-3l-5-5c0 1-1 1-1 1l-3-3z" class="G"></path><path d="M167 421c-2-1-4 0-5 0v1h1v1c-1 0-2 1-3 1-1-1-2-1-2-2 2-1 3-2 5-3h1-1-2l-1 1h-2c1-1 1-1 2-1 2-1 4-1 5-1 0 1 1 1 1 1h2 0c-1 1-1 1-1 2z" class="D"></path><path d="M194 466h1l1 1h1c0 1 1 2 1 3-1 1-1 2-2 3-1 0-2-1-2-1-1-1-2-2-2-3v-1c1-1 1-2 2-2z" class="K"></path><path d="M405 403h2c2 0 3 0 4 2 1 1 1 2 1 3l-1 1c-1-1-1-2-2-3h-1c-1-1-4-1-6 0h-3c2-1 4-3 6-3z" class="B"></path><path d="M150 567h0l1 10c0 2 1 5 0 7h0c-1-3-3-8-3-11h0c0-3 1-4 2-6z" class="C"></path><path d="M215 193c0 1 1 3 1 5v11l-2 2-2-2c0-1 0-2 1-3h0c2-4 2-9 2-13z" class="G"></path><path d="M117 353h3c1 1 2 1 2 2 1 1 0 4 0 5-1 0-2-2-3-3s-2-1-3-1c-1 1-1 1-2 3 0 2-1 5-2 7h0l2-9c1-2 2-3 3-4z" class="I"></path><path d="M212 204h0c1-1 2-18 1-20v-3c1 1 1 3 1 4 1 3 1 5 1 8 0 4 0 9-2 13h0c-1 0-1 0-1-1v-1z" class="O"></path><path d="M105 474c2-1 4-3 5-4 4-2 9-2 13-1-1 1-2 1-3 1-3 0-6 1-9 2-1 1-2 2-3 2h-3z" class="L"></path><path d="M294 636c-2 0-5-1-7-3v-1c1-1 1-1 2-1 2 0 5 2 7 3 1 1 3 2 4 3h-2c-1 0-2 0-4-1z" class="C"></path><path d="M299 548c1 6 0 14-1 20h0v-5c0-2-2-4-3-6 0-1-1-3-1-5l5 3-1-6 1-1z" class="E"></path><path d="M156 601c1-1 1-1 2-1 3 4 6 8 10 10 1 1 2 2 4 3l2 2v1c-7-4-13-9-18-15z" class="G"></path><path d="M179 606c0-1 0-1 1-1 0 0 1 0 1 1 3 1 5 2 6 4l10 5c-4 0-9-2-12-4-2-1-5-3-6-5zm-64-18c-1-1-2-4-3-6-2-3-2-8-4-12-1-3-4-7-4-11h1 1c2 1 3 9 3 11 1 4 2 10 4 13h1c0 2 1 4 1 5z" class="C"></path><path d="M103 223c1 3 2 6 4 8v1 2c-1-1-1-1-1-2s-2-2-3-3v2h1c1 2 0 4 0 6 1 1 1 3 1 4 0 0 1 0 1 1 0 0-1 0 0 0v3h-1c-1-1 0-1 0-2-1-1-1-3-1-4v-1l-1-1v-2c-1-1-1-3 0-4 0-2-1-4-2-5 1-2 1-2 2-3z" class="F"></path><path d="M132 425l22-11h1c-3 2-7 3-10 6h-1c0 1-1 1-2 2 0 0-1 0-1 1h1l-9 4-1-2z" class="L"></path><path d="M399 459h0c3 3-1 12-2 15 0 3-1 6 0 8h1c0-1 0-2 1-3 1 0 1-1 2 0 1 0 1 0 2 1v1c-1 2-1 2-2 3-1 0-2 0-4-1-4-4 1-14 2-18v-6z" class="I"></path><path d="M179 189c1 0 1 0 2-1h0c1-2 3-4 5-6v1c-1 2-3 3-4 5 0 1-1 2-2 3-2 4-5 8-8 11h-1v-1h0-1l-3 3c0-2 1-2 2-4 3-2 10-7 10-11zm15 272c-1-1-1-1-1-2h-1c0-1 0-2-1-3v-3c1-1 1-2 2-3h1 1c1 1 1 0 2 1-1 1-2 0-3 0 0 1-1 2-2 3h0v1c1 0 1 0 1 1h0c1 0 1 1 2 1l1 1h2c0 1 1 1 2 1l1 1c0 1 0 1-1 1h0l-1 1-1 1h-2-2c0-1-1-1-1-1l-1-1h1 1z" class="F"></path><path d="M194 463c0-1-1-1-1-1l-1-1h1 1c1 0 3 0 3 1h0l-1 1h-2z" class="H"></path><path d="M362 582h0v5-1-1h1c-1 5-5 10-8 13l-3 3-1-1c1-1 3-3 3-5 1-1 1-2 1-3 0-3-1-5-3-7v-1h1c1 1 2 1 2 3 1 1 1 4 1 6l-1 2c3-4 6-8 7-13z" class="B"></path><path d="M106 390h1l1 1c-1 0-1 2-1 2-1 1-4 2-5 2 0 1 1 1 1 2h0v3s-1 0-1 1c-1-1-2-1-3-1 1-1 2-1 3-2 0-1 0-1-1-2h-1c-1-1-3 0-4 0-7 0-11 2-16 6l-6 5c1-2 3-3 4-5 4-3 9-6 14-7 4-1 11 0 13-3l1-1h0v-1zm-5-164c1 1 2 3 2 5-1 1-1 3 0 4v2 7c0 2 0 4 1 5s1 2 1 3c0 3 1 5 1 7h0l-1-1v-1h-1v-1h0v1l-1-2c0-2-1-4-1-7v-9c-1-4-1-9-1-13z" class="L"></path><path d="M102 248c2 3 2 6 3 10v-1h-1v-1h0v1l-1-2c0-2-1-4-1-7z" class="H"></path><path d="M411 453c-1-4-1-8-1-12 1-2 2-7 4-8h3c1 2 2 3 2 4-2 3-4 2-6 3-2 4-1 9-1 13h-1z" class="I"></path><path d="M123 469c2 1 5 2 6 4h0c-3-1-6-1-9-1-6 0-10 2-14 5l-3 2v-1l-1-1c0-1 3-2 3-3h3c1 0 2-1 3-2 3-1 6-2 9-2 1 0 2 0 3-1zm88-58c1 0 1 0 2 1 0 4 1 9 0 14l-1-2c-1 1-2 3-2 4-3 5-6 9-11 11 1-2 3-3 4-5l5-9c0 2-1 4-1 5 1-1 2-3 3-5 3-4 2-9 1-14z" class="D"></path><path d="M176 409c6-3 14-4 17-10 2-3 2-6 0-9 0-2-2-4-4-6 1-1 2-1 3-1 1 1 1 2 1 4 1 1 2 3 3 4v3c0 3-2 7-5 9-3 4-9 5-14 6-1 1-3 1-4 3l-2-1c2-1 3-2 5-2z" class="C"></path><path d="M202 413l-2-2c-3-2-7-3-10-3s-6 2-8 4-2 4-2 7c0 1 1 3 2 4 1 0 2 1 4 0 3 0 2-3 4-5h0c0 2-1 4-2 6h-4c-2 0-4 0-5-2-1-1-1-3-1-4 0-3 1-6 3-7 4-3 8-5 12-4 4 0 7 2 10 5l-1 1z" class="B"></path><path d="M224 426c1 1 2 2 2 3 2 3 3 6 4 8l4 12c0 1 1 3 1 4 1 1 3 1 4 2 0 1 0 1-1 2s-2 1-4 1c-1-2-1-3-1-5l-3-10-3-9c0-3-2-5-3-8z" class="I"></path><path d="M114 595c3 1 4 4 7 6 0 0 1 0 1-1l6 8 3 3c4 3 8 8 13 10 4 3 8 4 11 7-4-2-8-3-11-6-6-3-11-8-16-12-3-3-8-6-11-10v-1s-3-3-3-4z" class="L"></path><path d="M113 445c4-5 10-8 15-10 1-1 3-3 5-4 6-2 16-5 22-2h-8c-3 0-13 2-14 4h0l-1 1s-1 1-2 1l1 1c-3 2-8 3-10 5-1 1-1 1-2 1-2 1-3 2-6 3z" class="D"></path><path d="M286 523c0-3-6-8-8-9-6-5-16-10-24-9-1 0-2 1-3 1 0-1 0-3 1-3h3c13 1 24 9 32 19l-1 1z" class="E"></path><path d="M155 429c1 0 2 1 3 2l1 1c1 0 2 1 3 2 1 0 2 1 2 2v1l-6-3c-8-4-18-3-25-1h0c1-2 11-4 14-4h8z" class="G"></path><path d="M412 453l4 18c1 8 1 16 1 24v16c-1-1-1-5-1-7v1l-1-1v-5l1-1c1-9 0-20-2-30l-3-15h1z" class="C"></path><path d="M151 522c1-1 1-1 2-1 5 7 5 18 7 27 1 8 3 16 6 23v2l-1-1c0-4-3-8-4-12l-4-16c-1-7-2-15-6-22z" class="B"></path><path d="M203 412c2 4 3 8 1 13-1 3-2 6-6 8s-11 3-15 1c-2 0-3-1-4-2h0c1-1 2-1 3 0 1 0 3 1 5 1 4 1 8 0 11-2s5-4 5-7c1-3 1-7-1-10v-1l1-1z" class="C"></path><path d="M216 336l1-1v3c-4 10-5 22-1 32 2 7 6 12 11 17v1c-2-1-4-4-5-5-3-5-6-9-8-14v-5h-1v3l-1 2c-1-7-1-15 1-22 0-2 1-4 2-6 0-2 1-3 1-5z" class="L"></path><path d="M203 351l2 1h0 2v2c-2 7-2 14 0 22v3l-1-1s-1-1-1-2 0-1-1-2h0v-1-3h-1v-4-7c0-1 0-1-1-2 0 0 0-3 1-4v-2z" class="H"></path><path d="M112 218c5 3 8 7 11 11 2 2 4 4 5 6l-7-6c-2-2-5-4-7-6 0 1 1 1 1 2h0c2 1 4 3 5 5 2 1 4 3 6 4-4-1-8-4-10-7h0c0 2 2 4 4 5l3 5c1 1 2 1 2 2-4-2-7-6-9-9s-4-9-4-12z" class="L"></path><path d="M103 255c0 1 0 2-1 3-1-2 0-5-1-7v-2l-1-1c0-2 1-4 0-6-1-4-1-9-1-13v-6-2h1c0-2 0-3 1-5 0-1 1-1 1-2l1 1c-1 1-1 1-1 2l-1 2v3h1s1 0 1-1v2c-1 1-1 1-2 3 0 4 0 9 1 13v9c0 3 1 5 1 7z" class="K"></path><path d="M298 549c-1-5-2-14-7-18-2-2-6-4-9-6l-6-3h0c3-1 7 0 10 1l1-1c6 7 12 17 12 26l-1 1z" class="B"></path><path d="M98 382c2-2 4-4 5-6s2-4 3-7c0-1 0-3 1-4 0 2-1 4-1 6-1 1-1 2-1 3h0c2-3 5-9 4-13-1-1-1-2-3-2v-1h0c0-1 1-1 1-1 1-1 1 0 2 0 1 1 2 2 2 3v6c-1 3-3 5-4 8-1 1-2 2-3 2v1c2-1 3-2 4-2 1-1 2-1 3-2 2 0 4-2 6-3 1-2 2-3 3-4 0 1-2 3-3 4-2 2-4 4-7 5-2 1-5 2-7 4-2 1-4 3-5 3z" class="D"></path><path d="M111 366l-2-1v-4l2-1v6z" class="E"></path><path d="M362 582c0-3 0-7-2-9h-1l-2 2c-2-1-3-2-4-5 0-2 1-3 2-5 1-1 4-2 6-2s4 0 5 2c1 1 2 3 2 4h0c-2-2-3-4-5-5-2 0-4 0-6 1-1 1-2 2-2 3v2h3c3 0 5 2 6 4 1 4 0 8-1 11h-1v1 1-5h0z" class="I"></path><path d="M212 424l1 2-3 9c-3 5-8 8-14 10-5 2-11 1-16-2-3-1-6-4-7-8-1-2-1-4 0-6 1-1 2-1 3-1h0c0 1-1 1-1 2-1 2-1 5 0 7 2 4 6 6 10 7 5 2 10 1 15-2 7-4 10-10 12-18z" class="E"></path><path d="M212 369l1-2c1 3 1 6 2 9 2 6 8 17 14 21 1 1 4 2 4 4 1 0 0 1 0 1h-2c-11-7-16-21-19-33zm144 229c5-6 9-12 12-20 0-3 1-6 1-8 1-5-1-15 5-16h0v1c-3 5-2 11-3 17-1 9-8 21-14 27l-1-1z" class="I"></path><path d="M186 595l3 3c2 2 6 5 8 8 2 4 5 8 9 11 2 1 5 2 8 3 5 3 12 6 18 7l-1 2c-13-5-25-10-36-19-1-1-3-2-4-3 3 1 4 2 6 4 1 1 2 2 3 2 0-1-1-1-1-2-1 0-2-2-3-2-2-2-3-2-5-4s-3-7-5-10z" class="C"></path><path d="M197 606c1-1 2-1 4 0 1 1 1 2 2 3h0 2c2 3 10 6 9 10v1c-3-1-6-2-8-3-4-3-7-7-9-11z" class="H"></path><path d="M203 609h2c2 3 10 6 9 10-2-1-5-3-7-5-1-1-3-3-4-5z" class="C"></path><path d="M355 598h1l1 1c-8 7-16 13-25 19-1 0-10 4-10 5-1 1-4 2-5 1h0-1 0l12-6c5-3 10-6 15-10 3-2 5-5 8-8l1 1 3-3z" class="M"></path><path d="M182 295h0c-5 1-10 2-15 2-5 1-10 3-15 4l-25 7c-4 1-7 3-11 3 5-3 10-4 15-5 12-4 24-7 36-10l9-2c6-1 11-2 17-2-3 2-7 3-11 3z" class="O"></path><path d="M343 597c1-2 3-6 2-8-1-1-2-2-2-3-3 1-5 5-8 3 0-1-1-1-1-3 0-1 0-3 1-4s2-2 4-2 3 0 5 1c2 2 3 6 3 9s-1 5-2 8h0-1v-1h-1z" class="B"></path><path d="M103 215h0l1-1h1c1 1 2 1 2 1 1 1 0 1 1 1 2 0 3 1 4 1v1c0 3 2 9 4 12v1l3 4v1h-1c0 1 1 2 2 3h-1c-2-1-3-5-5-5h0c-2-3-2-5-4-8 0-2-1-4-1-6-1-1-2-2-3-2s-2 1-3 2v1c0 1-1 1-1 1h-1v-3l1-2c0-1 0-1 1-2z" class="K"></path><path d="M103 215h0l1-1h1c1 1 2 1 2 1 1 1 0 1 1 1 2 0 3 1 4 1v1c0 3 2 9 4 12v1l-2-2c-1-2-2-4-2-6-1-1-1-1-1-2s-1-2-1-3c-1 1-1 1-1 2-1-1-2-2-3-2s-2 1-3 2v1c0 1-1 1-1 1h-1v-3l1-2c0-1 0-1 1-2z" class="H"></path><path d="M120 558v1h-1c-2 1-4 1-5 0-2-1-3-3-4-4s-3-2-4-3c-3-3-5-8-6-11-2-8-1-14 3-21l-1 6c-2 8 3 13 8 19-5-2-8-7-10-12 1 4 2 9 4 13 2 5 8 9 13 11 1 0 2 0 3 1z" class="B"></path><path d="M173 608c0-1 0-2-1-3-2-1-3-3-4-5-1-1-4-7-3-9 1 2 3 4 5 7s3 7 6 10c2 3 6 5 9 7 14 9 28 15 45 19 3 1 7 2 11 2l-1 1-19-4c-17-5-34-14-48-25z" class="D"></path><path d="M191 565v-4c-1-12 2-24 10-33 8-8 19-14 31-15h4c-1 1-2 1-3 1-12 1-23 6-31 16-8 9-10 19-10 31h-1v4z" class="E"></path><path d="M343 597h1v1h1c-5 11-18 19-28 24l-3 1c-6 1-11 3-18 3 1 0 1 0 1-1h0 1c1-1 3-1 3-1h1c1 0 3 0 4-1 9-2 16-6 23-11 6-4 10-9 14-15z" class="C"></path><path d="M283 611c5-1 9-2 13-4 2-1 4-2 6-2h2l3 3v5c-8 6-18 8-28 9-2 1-3 1-5 1v-1c6 0 13-1 18-3 3-1 6-3 8-4 0-1 1-2 1-3s-1-2-1-3c-2-1-3-1-4 0l-10 3-3-1z" class="B"></path><path d="M144 585c-2-4-5-11-5-16 0-8 4-17 6-25l1 1-3 11c-1 2-2 4-2 6-2 10 2 20 7 28l8 11c5 6 11 11 18 15l3 2 7 5h-1-1c-1-1-2-1-3-1-3-1-5-4-8-6-2-1-4-2-5-4-9-7-17-17-22-27z" class="P"></path><defs><linearGradient id="A" gradientUnits="userSpaceOnUse" x1="125.637" y1="592.678" x2="119.997" y2="601.556"><stop offset="0" stop-color="#100e10"></stop><stop offset="1" stop-color="#313333"></stop></linearGradient></defs><path fill="url(#A)" d="M114 583h0l2 2v1h1v-1c-1-2-2-3-1-4h1c0 1-1 1 0 1v1c1 3 2 5 3 7h1c0 1 1 2 1 3 1 0 1 1 1 1 1 1 1 2 2 3 2 3 4 6 7 9 0 1 1 1 2 2s2 3 4 4h1l-1 1-1-1c-2-1-3-2-4-3l-1-1h-1-3l-6-8-6-8 1-1-1-1c0-1 0-1-1-2 0-1-1-3-1-5z"></path><path d="M213 287h1s0 1 1 1 2 0 2 1h3c1 1 1 2 1 4 0 1 1 2-1 3l-2 1-1-1h-2 0c-1 1-2 1-3 1h-1 0c1-1 2-1 2-1v-1h-1c-1 0-3 2-4 2v-1h1 0v-1-1-1c-1 0-2-1-2-2-1 0-2-1-3-1-2-2-3-1-5-1v-1h3c1-1 2-1 4-1 2 1 4 1 6 1l1-1z" class="G"></path><path d="M213 287h1s0 1 1 1h0c0 1 1 1 1 1v1l-3 1h-3 0v1h3v1c0 1-1 1-2 1h-1c0-1-1-1-1-1-1 0-2-1-2-2-1 0-2-1-3-1-2-2-3-1-5-1v-1h3c1-1 2-1 4-1 2 1 4 1 6 1l1-1z" class="F"></path><defs><linearGradient id="B" gradientUnits="userSpaceOnUse" x1="180.854" y1="573.474" x2="195.474" y2="553.057"><stop offset="0" stop-color="#d7d5d7"></stop><stop offset="1" stop-color="#fefeff"></stop></linearGradient></defs><path fill="url(#B)" d="M183 555c1-5 3-10 5-14 0 3-1 6-1 9-2 11 0 20 4 29l-1 1h-1v1-1c0-1-2-3-3-5l-3-5h1c-2-4-3-9-2-14l1-1z"></path><path d="M182 556l1-1c0 3 0 6 1 9 0 2 1 4 1 6h-1 0c-2-4-3-9-2-14z" class="N"></path><path d="M103 221v-1c1-1 2-2 3-2s2 1 3 2c0 2 1 4 1 6 2 3 2 5 4 8h0c0 2 2 3 2 4 2 3 4 6 5 9l-6-9c1 4 4 8 6 11h-1l-16-26 3 6c1 2 3 5 4 8v1l1 2c1 2 2 7 1 10h0c-1-2-1-4-1-6-1-4-3-9-5-12v-1c-2-2-3-5-4-8v-2z" class="L"></path><path d="M217 461h1c-2 3-4 6-4 10 0 2 2 4 4 6 1 1 4 2 6 1 2 0 4-1 5-3l1-2c0-1-3-2-4-4 1 1 2 2 4 3l1-1v-4h1c1 2 3 4 4 6 0 1-1 3-1 4-2 2-4 4-7 4-3 1-7 1-10-1s-5-5-5-8c-1-4 2-7 4-11z" class="E"></path><path d="M154 572c-1-3-2-7-3-10-1-4 1-9-1-13 1 0 1-1 1-2 1 6 1 12 2 18 2 7 6 14 10 19 2 3 4 5 6 7 3 3 6 6 9 8l4 2c-3-4-8-8-10-13-1-2-2-4-2-6 3 3 5 7 8 10 2 3 3 7 6 10 2 2 5 3 7 5-3 0-6-3-9-5-6-4-12-7-17-13l-11-17z" class="C"></path><path d="M189 581v-1h1l1-1c6 14 20 23 34 28 19 6 39 8 58 4l3 1c-9 2-19 2-29 2-24-1-51-10-68-29 1-1 1-1 1-2s0-1-1-2z" class="D"></path><path d="M318 638c7-2 16-3 23-6 4-1 7-2 10-3l1-1c-4 1-7 2-10 3-4 2-9 3-13 3-4 1-9 2-14 3h-3c3-1 6-1 9-2l13-3c16-4 30-12 44-21h0c-1 1-1 2-2 2 0 1 1 1 1 1-6 5-13 9-20 12-2 1-3 2-5 3-6 3-12 5-18 6l-16 4v-1z" class="B"></path><path d="M199 284c-4-4-75 2-85 3h-11 0l97-6h1 0c1 0 2 1 3 0 1 0 4 1 6 1h4l-1 1c-3 0-6-1-9-1h-2l-1 1c-1 0-2 0-2 1z" class="N"></path><path d="M202 177c0-1 1-1 1-2h-1 0-1c1-2 2-4 4-5h3c2 1 3 3 3 4v1c0 1 0 1 1 2h-1c-1-1-2-2-5-2h1 0c1 1 3 2 5 3 0 2 0 4 1 6 0 2-1 7-1 9v11 1c-1-1-1-2-1-3l-1-3v-4c-1-2 0-5 0-7v-3l-2-2c0-1 0-3-1-4 0-1-1-2-2-2-1 1-2 2-2 3h-1l-1-1h-1 0c0-1 1-2 2-2z" class="P"></path><path d="M202 177c2 0 5-1 7 1l2 2c-1 2-1 5-1 8v-3l-2-2c0-1 0-3-1-4 0-1-1-2-2-2-1 1-2 2-2 3h-1l-1-1h-1 0c0-1 1-2 2-2z" class="G"></path><path d="M155 414c6-2 13-4 19-6l2 1c-2 0-3 1-5 2l-2 1v2l-6 3-8 3c-1 1-3 1-4 2l1 2v1c-2-1-2-1-3-2v-1l-7 1h-1c0-1 1-1 1-1 1-1 2-1 2-2h1c3-3 7-4 10-6z" class="D"></path><path d="M155 414c6-2 13-4 19-6l2 1c-2 0-3 1-5 2l-2 1-10 4c-5 1-10 2-15 4h1c3-3 7-4 10-6z" class="G"></path><path d="M199 284c0-1 1-1 2-1l1-1h2c-1 1-1 2-2 3 1 1 3 1 4 1 2 0 5 0 7 1l-1 1c-2 0-4 0-6-1-2 0-3 0-4 1h-3c1-1 0-1 1-1h0v-1h-2-6c-20 1-40 5-60 8l-19 4c-3 0-6 1-9 1v-1l20-3 51-9 14-1c3 0 6 1 10-1zm51 345s-1-1-1-2h4c1 1 3 2 5 2l5 5 1-1 2 2c2 0 10 2 12 0h2c4 2 10 2 14 2v-1c2 1 3 1 4 1-5 1-11 1-16 1-14-1-28-3-42-7-3-1-6-1-9-2l1-2 13 4-1-1h1 1 3l1-1z" class="O"></path><path d="M250 629c3 2 10 5 13 5l1-1 2 2-15-2c-2-1-4-2-6-2l-1-1h1 1 3l1-1z" class="K"></path><path d="M250 629s-1-1-1-2h4c1 1 3 2 5 2l5 5c-3 0-10-3-13-5z" class="B"></path><path d="M234 426c4 2 8 5 12 7 2 2 6 3 7 6 1 1 1 4 0 6-1 1-3 1-4 2-2-1-3-5-5-4-1 0-2 1-3 2 0-1-1-2-2-3 0-1 0-2 1-3 0-1 2-3 3-4-3-4-6-6-10-8l1-1z" class="I"></path><path d="M154 572l11 17v2c-1 2 2 8 3 9 1 2 2 4 4 5 1 1 1 2 1 3-2-1-4-4-5-5-1 0-1-1-1-1h-2c-1-2-3-3-4-4-1-2-1-3-2-4-1-2-3-4-3-6-1-1-1-3-1-3 0-2-1-4-1-5v-3c0-1 0-1-1-2 0-1 1-2 1-3z" class="K"></path><path d="M133 516c2 0 5 0 7 1 3 1 7 4 9 7 3 5 4 12 5 17l2 13c1 4 2 6 3 10h0c-2-3-3-7-4-11l-3-17c-1-5-2-11-6-15-2-1-3-2-5-3h-1c-3-2-8-2-11 0-1 0-3 1-3 1-2 3 0 7-2 10h0v-9h0-1c0 1-1 2-1 2-2 4-2 8-1 11s2 4 5 5h2l1-2h3v3c-2 2-3 2-6 3-1 0-3-1-4-2-2-1-4-4-4-7 0-4 0-8 3-11 3-5 7-6 12-6z" class="B"></path><path d="M127 196l29 11c3-2 5-4 8-7l11-12 13-12v1h1l-10 10c-5 6-10 12-16 16 1 0 2-1 3-1 1-1 3-2 3-3l6-6 4-4c0 4-7 9-10 11-1 2-2 2-2 4v1c-1 1-1 1-3 1-1 0-1-1-2-2h0c-2 1-3 3-5 5l-33-11h4l1 1h1 2v1h1c2 0 2 1 4 1-1-1-2-1-3-1 0-1 0 0-1 0-2-2-5-2-6-4zm27 218l10-4 6-3c4-2 9-3 10-7 1-1 1-2 0-2 0-1-1-2-2-3-1-2-3-4-4-7h8c1 0 0-2 0-3 0-2-1-5-1-7l2 3c3 4 4 10 3 14-2 6-6 10-12 13-6 2-13 4-19 6h-1z" class="E"></path><path d="M454 375c-1 0-1 0-2-1-2 0-3-1-4-2 1-1 1-2 1-3h0c0-1 0-2-1-2-1-1-2-1-4-1-5 1-11 7-14 11-7 10-7 34-5 46v1h0v-2c-3-12-3-26 0-38 2-7 5-15 11-19 3-2 8-3 11-2 5 1 5 4 5 8 0 1 0 2 1 3h1v1z" class="B"></path><path d="M422 425l-5-23c-2-12 1-27 8-36 5-6 11-10 19-11 6 0 12 1 16 4 2 2 3 4 4 7 0 2-1 5-3 7-1 1-4 2-6 2h-1v-1c3 0 4 0 6-2s2-4 2-6-1-3-2-5c-4-4-10-4-15-4-7 0-14 4-18 9-8 9-10 23-9 35 1 8 3 16 5 23l-1 1zm-309 74c2 0 5 0 7 2h0c2 1 3 3 4 4-1 2-3 4-4 5 0 1-1 2-2 3l-1 1c-1 0-3 1-4 0-2 0-5-4-6-6v-4c1-2 4-4 6-5z" class="E"></path><path d="M114 501c1-1 2-1 3 0 2 1 4 3 5 5-1 2-2 3-3 5-1 1-2 2-3 2h-3c-1 0-4-3-5-4v-5c1-2 4-3 6-3z" class="J"></path><path d="M138 355c3 0 6 0 9 1 4 2 7 5 8 9 2 3 1 6 0 9-3 6-10 10-17 12 1 0 3-1 4-1 4-3 8-6 11-10 1-2 2-6 1-9-1-4-3-6-7-8l-3-1c-3 0-7 0-10 2-2 2-4 4-5 7 0 2 0 4 1 6s2 2 4 3c2 0 4 0 5-1s2-3 2-4v-1c1 0 1 1 1 1 1 2 1 3 0 4-1 2-2 3-4 4s-6 0-8-1-4-4-4-6c-1-4-1-7 1-10 3-3 7-5 11-6z" class="B"></path><path d="M211 408c0-1-1-2 0-3v1h1l3 6c5 6 13 10 19 14l-1 1-14-9c2 4 5 9 6 14 2 6 1 12 0 18 0 2-1 6-1 8s2 5 3 7h0c-1 1-2 0-3 1-1-1-1-2-2-2s-1 1-2 2h0c-1-2 0-6 0-8-1 1-2 2-3 2-1 1-3 2-4 2-4 2-8 2-13 2-1 0-2 1-4 1h-1l-1-2h0 2 2 1c6 1 13-1 18-4 4-3 7-10 7-14 1-9 0-17-4-24-2-3-5-6-7-9-1-1-1-1-2-1v-3z" class="C"></path><path d="M131 534c-2-2-2-2-2-4v-3c2-2 4-3 7-3 2 0 4 1 6 2 3 3 4 7 4 10 1 3 0 6 0 9l-1-1c0-5 1-9-1-13h-1 0c3 6 2 14-1 19-1 2-2 4-3 7-4 10-3 21 0 31 7 20 25 32 43 41 5 2 11 4 16 6s9 3 14 4l-1 1c-14-4-29-9-42-17-7-5-14-10-20-16-11-13-17-31-12-48 1-5 4-10 5-14s1-9 0-13c0-2-1-4-4-6h-5l-3 3c0 2 0 3 1 5z" class="D"></path><path d="M205 609l-1-1h2c9 5 17 9 27 12l-1 1 1 1c4 2 8 4 12 8h-1l1 1-13-4c-6-1-13-4-18-7v-1c1-4-7-7-9-10z" class="J"></path><path d="M219 617h0c5 2 8 6 12 9l-6-3c-2-1-6-3-6-6zm25 13c-2-1-5-2-7-3-1-1-4-4-4-5 4 2 8 4 12 8h-1z" class="C"></path><path d="M202 280l-85-2c4-1 8-1 12-1h15c10 0 20-1 30-1l16 1c3 0 6 1 9 1-3-2-7-2-11-3l-18-2-13-1h-11-3-1c0-1 0-1 1-1h3c4 0 8-1 11 0 4 1 7 0 11 1 13 1 26 2 38 5 4 1 7 1 10 3l1 1h-1l-1 1v1h0-2l1-1h-4c-2 0-5-1-6-1-1 1-2 0-3 0h0s0-1 1-1z" class="N"></path><path d="M202 280h7c2 0 4 0 7 1v-1l1 1h-1l-1 1v1h0-2l1-1h-4c-2 0-5-1-6-1-1 1-2 0-3 0h0s0-1 1-1z" class="F"></path><path d="M167 354c1 1 1 2 1 4l-3 6c2-2 4-4 5-6h1l1 1-3 3c-2 2-4 3-6 5-3 3-4 9-4 13 0 2 0 5 2 7 1 2 4 3 6 5l-6-3c-6-3-13-3-19-2 5 1 11 1 14 6 2 3 3 8 2 11-1 4-3 8-7 9-3 3-8 3-12 2-3-1-6-2-7-5-1-2-2-4-1-6 1-3 3-5 5-7 2-1 4-1 6 0s4 1 4 3c1 2 1 3 0 5 0 1-1 2-2 3h-1-1c2-2 3-3 3-4-1-2-1-3-2-4-2-1-3-1-4-1-2 0-3 1-4 2s-2 3-2 5c1 2 2 4 4 6 3 2 6 2 10 1 3 0 6-3 8-6s3-6 2-9-2-6-5-7c-4-3-9-3-14-3-3 1-6 2-9 4h-1c1-2 7-4 9-5h4c1 0 2-1 4-1 5-1 10 0 15 1l-1-5c-2-7 2-15 6-21 1-2 2-4 2-6v-1h0z" class="E"></path><path d="M232 513c13-2 28 3 39 10 10 7 18 19 20 31 2 11-1 23-7 32-4 6-10 11-16 15h0c-1 1-2 1-3 1v-1s0-1 1-1 2 0 3-1c2-1 4-3 6-5-1 0-2 2-3 2l-2 2h-1-1s0 1-1 1h-1-1c0 1-1 0-2 0 2-1 4-1 6-2 4-2 8-5 11-8 7-7 10-18 10-28-1-13-7-25-17-33-11-10-25-14-40-14 1 0 2 0 3-1h-4z" class="C"></path><path d="M414 481c1 5 2 12 1 18v5l1 1v-1c0 2 0 6 1 7-1 15-3 29-7 43-1 4-1 8-3 12-5 11-13 20-22 28-3 2-5 5-9 6 4-3 7-6 10-9 4-3 7-7 10-11 4-4 7-9 9-14s3-11 4-17c4-21 6-43 3-64h2s-1-1 0-1v-3z" class="E"></path><path d="M211 408c-4-11-7-25-16-33-3-2-7-5-11-5-3 0-7 1-10 4 0 1-1 2-2 3-1 0 0-1-1-2-1 0-1 1-2 2-1 4 1 8 2 12-2-1-4-2-5-4-1-3 0-8 1-10 1-4 5-7 9-9s9-1 13 1c14 6 18 26 23 39h-1v-1c-1 1 0 2 0 3z" class="B"></path><path d="M117 557c1 0 1-1 1-1 2-3 1-7 0-10 0-3-2-4-3-6-1-3-2-6-2-9-1-5 1-11 4-15l2-2c6-3 13-5 19-3 6 1 12 5 15 10-1 0-1 0-2 1-3-5-8-9-14-10-6 0-13 0-17 4-3 2-5 7-6 10 0 5 1 10 4 14 2 3 5 5 8 5s5-1 7-2c1-1 2-2 2-4 0-1 0-2-1-3s-3-1-3-2c2 0 3 1 4 3 2 2 2 5 1 8 0 2-4 6-6 8h-2c-2-1-3-3-5-4 0 1 1 4 0 5-1 2-3 2-3 4-1-1-2-1-3-1z" class="C"></path><path d="M412 485l-1-10c-3-13-10-29-21-36-2-1-4-1-7 0-1 0-1 1-1 2 0 2 1 2 2 3v1h-2c-1 0-1 0-2-1s-2-2-2-4c0-1 1-2 2-3 2-2 4-2 7-1 6 0 10 6 13 11-2-5-4-11-7-16 0-2-1-2-3-3-3 1-3 2-4 3-1 0-1 0-1-1 1-1 1-2 3-3 1-1 3-1 4 0 3 1 6 8 8 11 0-1-1-3-1-4 1-1 1 0 1-1v-1c0-3 2-5 4-7 2-1 3-1 5-1 4 1 5 4 7 6-2-1-3-3-5-4-2 0-4 0-6 1-1 0-2 1-2 3-5 8 3 21 6 29 2 8 4 15 5 22v3c-1 0 0 1 0 1h-2z" class="B"></path><path d="M198 286h2v1h0c-1 0 0 0-1 1v1c2 0 3-1 5 1 1 0 2 1 3 1 0 1 1 2 2 2v1 1 1h0-1c-4 2-8 4-12 5-1 0-1-1-2-2h-1l1-1h-1 0c-5-3-49 20-56 24-4 2-8 5-12 6 6-5 15-8 22-12 13-7 27-15 41-19h3 2c0-1 0-2-1-2-13 1-26 6-39 10l-27 9-12 5c-2 1-4 2-6 2h0l7-3 17-7 29-9c7-3 14-5 21-7 4 0 8-1 11-3l3-3c1-1 2-1 2-3z" class="D"></path><path d="M194 299h0c4-2 11-6 15-5v1 1h0-1c-4 2-8 4-12 5-1 0-1-1-2-2z" class="F"></path><path d="M103 379c3 1 6-1 9-2h1 0 1 0v1c0 1 0 1 1 2l1 1c5 1 8 4 10 7s2 6 1 9-3 6-6 8c-2 1-4 1-7 1-2-1-5-3-6-5v-2c1-2 3-4 5-5h3c1 1 2 2 4 2 1-1 2-2 2-3 0-2 0-4-1-6-2-3-5-4-8-5-3 0-5 0-7 1-6 1-11 4-15 8-1 0-3 2-4 2l7-6 1-2c0-1 2-2 3-3 1 0 3-2 5-3z" class="B"></path><path d="M108 381v-1h1c1-1 1-1 2-1s2-1 3-1c0 1 0 1 1 2l1 1h-8z" class="F"></path><path d="M103 379c3 1 6-1 9-2h1 0 1 0v1c-1 0-2 1-3 1s-1 0-2 1h-1v1h-2c-4 1-8 4-12 6l1-2c0-1 2-2 3-3 1 0 3-2 5-3z" class="G"></path><path d="M203 180c0-1 1-2 2-3 1 0 2 1 2 2 1 1 1 3 1 4l2 2v3c0 2-1 5 0 7v4l1 3-2-2c0 1 0 1 1 2 0 0 0 1-1 2h0v2l-1-1h0v2c1 0 2 1 2 1-1 1 0 1-1 2h-5v1l-1-1h-2l1-1c-1-2-1-2-2-2 0-1 0-2-1-4h0c1 0 1-1 1-1l-1-1v-2l1-1 3-6c-1 0-1 0-1 1l-2 2v-1c2-2 2-3 3-5-2 2-3 5-5 6-1 2-3 4-4 5h-1c1-2 3-4 4-6-1 1-4 4-4 6h-1 0c0-3 4-7 6-10 1-2 2-4 4-6 0 0 1-1 1-2h0l-2 2v1l-1-1 3-4z" class="P"></path><path d="M208 183l2 2v3c0 2-1 5 0 7v4l1 3-2-2c0 1 0 1 1 2 0 0 0 1-1 2h0v2l-1-1h0v2c1 0 2 1 2 1-1 1 0 1-1 2h-5v1l-1-1h-2l1-1h0c1-1 2-3 2-4 2-3 2-6 3-8h0c1 2 1 4 1 6l1 1v-4c-2-6-1-11-1-17z" class="K"></path><path d="M205 190c-1-1-1-1 0-2 1 0 1 0 1-1v-1h-1v1h-1c1-1 1-2 1-2v-1h-1 0l2-3v-1h1v6c0 2-1 5-2 7v6c0 2-1 4-1 6 0 1-1 3-2 4h0c-1-2-1-2-2-2 0-1 0-2-1-4h0c1 0 1-1 1-1l-1-1v-2l1-1 3-6h0l1-1c0-1 0-1 1-1z" class="F"></path><path d="M205 190c0 3-1 6-2 9 0 1-1 1-1 2-1 1-1 3-2 4 0-3 0-5 1-8h0l-1 1h0l3-6h0l1-1c0-1 0-1 1-1z" class="L"></path><defs><linearGradient id="C" gradientUnits="userSpaceOnUse" x1="292.869" y1="644.937" x2="291.658" y2="639.597"><stop offset="0" stop-color="#343235"></stop><stop offset="1" stop-color="#484948"></stop></linearGradient></defs><path fill="url(#C)" d="M318 638v1l16-4c-1 1-2 3-3 3s-2 0-3 1c-2 0-3 1-4 1h-2l-2 1h-3l-3 1h-2l-2 1h-1-1c-1 0-1 1-1 1h-2-1-1l-13 2c-9 1-18 1-28 1-4 0-7-1-11-1-11-1-21-1-31-4-3 0-6-1-9-2l1-1 13 3c14 3 29 3 43 4h11c1-1 6 0 7-1-3-1-6 0-9-1l1-1h0-9c4-1 7 0 11-1l-40-5 1-1c4 1 9 2 13 3 9 1 18 1 28 1 4 1 11 2 16 0h3 1c1 0 2 0 3-1 1 0 3 1 4 0h3c1 0 2 0 2-1 1 0 1 1 2 0h2z"></path><path d="M218 297c-5 3-10 6-15 8v1c1 1 6 1 8 1 7 0 13-3 18-7 3-4 4-8 5-12 1 4 4 8 8 9 3 1 6 1 9 1l-1 1 1 1h-1 0-6c-4-1-7-4-10-7l-1 4c-3 5-7 8-12 10-6 2-14 3-20 0v-1l-6 3c-6 3-11 7-16 12l-10 8c2-3 17-15 21-18 2-1 7-4 8-6-1 0-1-1-2-1-7 3-13 7-19 11l-17 13-13 10v-1c6-5 12-10 19-15 5-4 11-8 17-12l12-7-2-3c-9 3-18 9-27 14l-24 15c-3 3-7 5-10 8l-1-1 18-12c13-8 25-16 39-23 2-1 4-2 5-2h1c1 1 1 2 2 2 4-1 8-3 12-5v1c1 0 3-2 4-2h1v1s-1 0-2 1h0 1c1 0 2 0 3-1h0 2l1 1z" class="E"></path><path d="M208 297c1 0 3-2 4-2h1v1s-1 0-2 1h0 1c1 0 2 0 3-1h0 2c-4 4-11 6-17 9l-3-3h0c4-1 7-4 11-5z" class="F"></path><path d="M184 249h1c0 1 0 3 1 4 0 3 1 9 3 12 1 0 1 0 2-1v-4c-1-4-2-8-4-11 4 1 7 1 11 4 2 2 4 4 7 6 0 1 2 2 2 3-3 0-7 2-9 4-15 6-29 0-42-5 10-1 17-10 28-12z" class="I"></path><path d="M105 579c-5-5-8-13-10-20-7-18-10-39-6-58 1-5 3-10 5-15 5-12 16-21 28-26l1 1c-8 3-14 7-19 13-2 2-4 3-5 5v1l3-3 1 1v1c2 0 3-1 4-1 6-2 13-2 16 4 1 2 2 4 1 6 0 1-1 2-2 3 0 0-1 0-2 1h-2c-1 0-2-1-4-3h0c3-1 3 1 6 0 1-2 1-3 0-4 0-2-2-3-4-3-3-2-8-2-11 0-6 3-9 9-11 15-6 17-4 37 2 54 1 5 3 10 5 15l4 8c0 1 1 2 1 2 4 5 6 11 10 16l6 8c0 1-1 1-1 1-3-2-4-5-7-6v-1c-1-1-2-2-3-4 0-1-1-2-2-3-2-3-3-5-4-8z" class="E"></path><path d="M106 576c4 5 6 11 10 16l6 8c0 1-1 1-1 1-3-2-4-5-7-6v-1c-1-1-2-2-3-4 0-1-1-2-2-3-2-3-3-5-4-8h0c1 1 1 2 1 2 2 2 3 6 5 7 1 1 2 2 3 2-1-1-2-3-3-4v-1c-1-1-3-3-3-5l-2-2v-2z" class="M"></path><path d="M189 585c-4-5-8-10-11-16s-5-14-6-20c0-5 1-10 1-15 1-3 2-7 3-10 4-12 13-20 23-26 6-3 14-5 20-4h4c3 1 6 3 8 5 0 2 0 5-1 6 0 2-2 3-3 3-2 0-3 1-5 0-1-1-1-2-1-3v-1c2 0 3 1 4 0v-3c-1-1-2-2-4-3-6-3-14-1-20 1-9 4-19 12-23 22-3 7-3 15-3 23 0 4 0 8 1 12h0l1 1c-1-5-1-10 0-15 0-3 1-6 2-9l3-6c1-3 2-6 4-7h1l-4 5c5-4 9-7 15-9l-5 5c-2 3-3 7-5 10-3 7-6 14-6 21v4c-1 5 0 10 2 14h-1l3 5c1 2 3 4 3 5v1c1 1 1 1 1 2s0 1-1 2z" class="B"></path><path d="M178 549h1 0v1l1 3v-2h1v-1c0 1 0 1 1 2v4c-1 5 0 10 2 14h-1l3 5c1 2 3 4 3 5-4-4-6-9-8-15-1-2-2-3-3-5v-11z" class="H"></path><path d="M180 551h1v-1c0 1 0 1 1 2v4c-1 5 0 10 2 14h-1 0c-1-1-1-3-1-4-1-1-1-3-2-4-1-3-1-6 0-9v-2z" class="C"></path><path d="M178 549c0-8 2-17 9-24 1 0 2-1 3-2-5 8-9 18-10 28v2l-1-3v-1h0-1z" class="K"></path><path d="M133 433c7-2 17-3 25 1l6 3c5 5 8 10 8 17 1 5-1 10-4 14-3 3-8 6-13 6-3 0-7-1-9-4h0l-1-1c0 3 0 6-3 9-1 2-4 3-6 3v-1l1-1c2-1 5-1 6-4 1-2 1-4 0-7 0-2-5-5-7-7-4-2-9-1-13 0l-1-1c4-1 8-1 11-1 4 0 7 1 9 4h1c-1-5 0-9 2-13 1 3 2 6 5 8 2 1 4 1 7 1 2-1 4-3 5-5 2-2 2-6 1-9 0-4-4-7-7-9-7-4-18-2-25 0l-1-1c1 0 2-1 2-1l1-1zm118 37c0-2-2-3-3-4s-2-2-3-4l-1 1c-1 1-1 3-1 5v3c-2-3-3-7-2-10 2-5 6-10 10-12 3-1 6-1 9 0 4 1 8 4 10 8 2 3 2 7 1 11-2 5-7 9-11 11-10 5-22 7-33 8-4 1-7 1-11 1v1h-1v-1h0 2l21-4 2-2h2l1-1h-1-1c1-1 2-1 3-1 0 0 1 0 1-1 1 0 1 0 2-1h-1c1-2 3-4 4-6 0-1 1-1 1-2h0z" class="I"></path><path d="M251 470h1c0-1 1-2 1-3v-2c0-3-2-10 2-11 1 0 3 0 4 1 2 1 3 4 4 6 0 4-1 9-4 12-5 6-13 9-21 11l2-2h2l1-1h-1-1c1-1 2-1 3-1 0 0 1 0 1-1 1 0 1 0 2-1h-1c1-2 3-4 4-6 0-1 1-1 1-2h0z" class="F"></path><path d="M212 639c-5-1-9-2-14-4s-11-4-16-6c-18-9-36-21-43-41-3-10-4-21 0-31 1-3 2-5 3-7 3-5 4-13 1-19h0 1c2 4 1 8 1 13-2 8-6 17-6 25 0 5 3 12 5 16 5 10 13 20 22 27 1 2 3 3 5 4 3 2 5 5 8 6 1 0 2 0 3 1h1 1 1c4 1 8 4 12 6 10 4 19 7 29 9 6 2 11 2 17 3 3 0 7 1 10 1 6 1 11 1 16 1h9 0l-1 1c3 1 6 0 9 1-1 1-6 0-7 1h-11c-14-1-29-1-43-4l-13-3z" class="K"></path><path d="M243 641c3 0 7 1 10 1 6 1 11 1 16 1h9 0l-1 1c-9 0-20 1-30-1-1 0-3 0-4-1v-1z" class="N"></path><defs><linearGradient id="D" gradientUnits="userSpaceOnUse" x1="184.332" y1="629.043" x2="201.513" y2="626.536"><stop offset="0" stop-color="#7a7a79"></stop><stop offset="1" stop-color="#989999"></stop></linearGradient></defs><path fill="url(#D)" d="M179 622c1 0 2 0 3 1h1 1 1c4 1 8 4 12 6 10 4 19 7 29 9 6 2 11 2 17 3v1l-15-2c-12-2-26-6-37-12-4-1-8-4-12-6h0z"></path><path d="M179 622c-1 1-1 1-2 1 0-1-1-1-2-1h0c0 1 1 2 2 2v1c-1 0-2-1-2-1l-1-1h-1 0c0-2-4-5-6-6-1-1-2-1-3-2l-1-1c-2-1-3-3-5-4-3-2-7-7-9-10-1-2-3-3-3-6h-1c0-1-1-2-1-3l-1-1c0-2-1-3-1-5h0s1 1 2 1v-1c5 10 13 20 22 27 1 2 3 3 5 4 3 2 5 5 8 6h0z" class="F"></path><path d="M108 592c-3-3-5-5-7-8-9-9-17-19-23-30-6-10-12-21-16-32-6-18-8-35-8-54 0-20 3-39 13-57 2-5 6-10 9-15 4-5 8-11 12-17 4-8 7-16 9-24 0 1 0 3-1 5v1h0c-1 0 0 0 0 1-1 1-2 2-1 3h-1v2c0 1-1 2-1 3l-2 2v1c0 1-2 4-2 5h0l2-2v1c-5 8-11 16-17 24-5 8-9 16-12 25 2-2 3-5 5-7 6-9 15-16 27-16 1 0 3 1 5 1 3 1 6 3 10 4 2 1 5 2 7 3 0 1 1 2 2 4 1 0 1-1 2-1 1-1 6-1 7 0 2 2 3 4 3 6s-1 5-2 6l-2 2h0c0-2 1-5-1-7-1-2-4-2-6-2l-11 19c-1 2-2 5-4 7-1-2 1-3 1-4 3-7 8-13 11-20 0-1 1-3 0-5s-2-4-4-4c-1-1-1-1-2-1-2 1-3 2-4 4-2-4-4-7-8-8-5-2-12 0-16 2-11 6-18 16-21 27-3 8-4 16-4 25-2 20 0 40 7 58h0 0c1 1 2 2 2 3s0 2 1 3c0 2 1 4 2 5 0-1 0-2-1-3 0-1-1-3-1-5 0-1-1-1-1-2l1-1 5 17 2-1 5 13c0-1 0-2 1-4l-6-20v-2h0 0 1v1h1v-4l1 1c1 12 4 22 8 33 5 11 10 21 18 31 2 2 3 4 5 6h1l-1 2z" class="B"></path><path d="M79 548c0-1 0-2 1-4l2 6c-1 1 0 2-1 3-1-1-2-3-2-5z" class="H"></path><path d="M82 550l4 9c1 2 4 7 4 9-1-1-2-3-3-4-2-4-5-7-6-11 1-1 0-2 1-3z" class="J"></path><path d="M64 519h0c1 1 2 2 2 3s0 2 1 3c0 2 1 4 2 5 0-1 0-2-1-3 0-1-1-3-1-5 0-1-1-1-1-2l1-1 5 17c2 4 4 8 5 13-1-3-3-6-4-9-4-7-7-13-9-21z" class="H"></path><path d="M104 445c2-2 3-5 4-7l11-19c2 0 5 0 6 2 2 2 1 5 1 7h0c2 0 5-2 6-3l1 2c-8 3-14 10-20 16-2 2-4 4-5 6h0c2-1 3-3 5-4 3-1 4-2 6-3 1 0 1 0 2-1 2-2 7-3 10-5 7-2 18-4 25 0 3 2 7 5 7 9 1 3 1 7-1 9-1 2-3 4-5 5-3 0-5 0-7-1-3-2-4-5-5-8-2 4-3 8-2 13h-1c-2-3-5-4-9-4-3 0-7 0-11 1-12 5-23 14-28 26-2 5-4 10-5 15-4 19-1 40 6 58 2 7 5 15 10 20 1 3 2 5 4 8 1 1 2 2 2 3 1 2 2 3 3 4-2-1-3-3-5-4h-1c-2-2-3-4-5-6-8-10-13-20-18-31-4-11-7-21-8-33 1-20 7-40 17-57l6-11c1-2 3-5 4-7z" class="J"></path><path d="M123 448h1c1 0 2 1 3 2v1l-2 1c0 1-1 1-2 1l-1-1v-3l1-1z" class="I"></path><path d="M86 492l1 1c-1 3-2 6-2 9-7 26 1 51 15 73 3 5 7 10 11 16-3-2-4-4-5-6-5-5-9-10-12-16-2-4-3-8-5-12-6-14-9-29-7-44 0-7 2-14 4-21z" class="C"></path><path d="M132 425l1 2c-8 3-14 10-20 16-2 2-4 4-5 6h0v1c-1 1-1 1-1 2-7 8-12 18-16 28-1 2-2 5-2 7 0 0 1-2 1-3 1-3 3-6 4-8 3-6 6-10 10-15 1-1 2-3 3-3h1c0 2-5 6-6 7-5 5-8 13-11 19-1 1-1 3-2 5-1 1-1 3-2 4l-1-1c3-13 9-24 16-35 3-6 6-11 10-16l9-8c2-2 4-3 5-5h0c2 0 5-2 6-3z" class="M"></path><path d="M121 441c4-2 10-4 16-4 5 1 8 2 12 6 0 2 1 3 2 4-1 1-2 1-3 1-2-1-5-3-7-4-10-5-21 0-30 6l-4 2c0-1 0-1 1-2v-1c2-1 3-3 5-4 3-1 4-2 6-3 1 0 1 0 2-1z" class="B"></path><path d="M64 519h0c-7-18-9-38-7-58 0-9 1-17 4-25 3-11 10-21 21-27 4-2 11-4 16-2 4 1 6 4 8 8 1-2 2-3 4-4 1 0 1 0 2 1 2 0 3 2 4 4s0 4 0 5c-3 7-8 13-11 20 0 1-2 2-1 4-1 2-3 5-4 7l-6 11c-10 17-16 37-17 57l-1-1v4h-1v-1h-1 0 0v2l6 20c-1 2-1 3-1 4l-5-13-2 1-5-17-1 1c0 1 1 1 1 2 0 2 1 4 1 5 1 1 1 2 1 3-1-1-2-3-2-5-1-1-1-2-1-3s-1-2-2-3h0z" class="J"></path><path d="M80 414h1s0 1 1 1h0 0l-4 5-1 1v-1c0-2 1-5 3-6zm-6 110l-4-28c-1-13 0-25 4-38 1-3 2-6 4-9-2 7-4 13-5 19-3 12-2 26-1 37 0 4 2 6 2 9 0 1 0 1 1 2v1c0 2 0 4 1 6h-1v-1h-1 0 0v2z" class="C"></path><path d="M72 505h0c1-5 0-11 1-16 0-4 1-7 1-11 2-8 4-16 7-24 1-2 2-4 3-5 0 2-1 4-2 6l-3 8c-4 13-5 25-5 38 0 3 0 6 1 9v7-1c-1-1-1-1-1-2 0-3-2-5-2-9zm34-74v3c0 2-2 5-1 7 0 1-2 2-1 4-1 2-3 5-4 7l-6 11c-10 17-16 37-17 57l-1-1c0-4 1-9 2-13 2-14 6-27 12-39s13-23 16-36z" class="L"></path><path d="M106 431c0-5 0-9-4-11-1-1-4-2-6-2h-1l-1 2-2-2c-2 1-4 2-5 4s-1 4 0 6 2 4 4 4c1 1 3 1 5 0 1 0 2-2 3-4l1 1c0 2 0 4-1 5s-2 2-4 2c-2 1-5 0-7-2-2-1-4-4-4-6 0-3 1-6 2-8 2-1 4-2 5-4v-1c-1-1-2-1-3-2h-3c-1 1-2 1-2 1l-1-1c2-1 5-1 6 0h1c1 0 1 0 2 1l1 2h1c2-2 4-1 7-1 2 1 5 2 6 5 2 4 2 10 0 14v-3z" class="B"></path><path d="M67 519c-6-23-6-50 0-73 2-7 5-14 9-20 0 0 0-1 1-1h1v2c-1 3-3 6-4 9-2 4-4 9-5 14-7 27-6 60 5 85l-2 1-5-17z" class="I"></path><path d="M423 424l4 12c1 3 2 7 2 11 2 7 2 13 3 20 2 33-2 67-18 96-4 7-8 13-12 19-17 21-42 35-68 43-3 1-6 1-9 2-18 4-37 4-55 2-6 0-11-2-16-3l-1 1h-4c0 1 1 2 1 2l-1 1h-3-1c-4-4-8-6-12-8l-1-1 1-1c-10-3-18-7-27-12h-2l1 1h-2 0c-1-1-1-2-2-3-2-1-3-1-4 0-2-3-6-6-8-8l-3-3c-1 0-1-1-1-1l-1-1c0-2-2-2-3-4s-4-4-5-6h0l6 6h1l-6-8c-7-9-11-22-12-34-1-8-1-16-4-23-2-5-6-8-10-11-7-5-17-9-15-21 1-4 3-8 7-11-1 2-2 3-3 5-3 4-2 10 0 14 1 2 3 4 4 6 4 3 7 5 11 8 7 5 9 12 11 20 0-7 5-16 1-23h0c-1-2-2-4-4-5-1 0-2 0-3 1s-2 2-2 4c-2-2-3-3-4-6l2-2c2 0 5-1 7 0 3 2 5 5 6 8-1-7-1-15-4-21 0-2-1-3-2-4s-3-2-4-3l-4 2c1-2 2-3 2-4-3 0-6 0-8 2-1 1-3 2-3 4s1 3 2 5c1 1 2 1 3 1s2 0 3-1c1 2 1 4 0 6-2 0-4-1-5-1-3-2-5-4-5-7-1-2-1-4 1-6 1-3 4-5 7-5 3-1 7 0 9 2 1 0 2 1 2 1 1-1 1-2 1-3 2-4 6-7 10-8s9-1 13 2c4 2 6 6 7 11s-1 8-3 12c-4 5-9 9-13 13-10 12-12 30-10 45 4 19 16 35 32 46 18 13 37 20 58 24 11 2 23 3 34 1 9-2 19-4 24-11 4-5-1-12 3-17 1-2 3-3 5-3 2-1 4 0 6 1s4 3 4 5c0 4-1 6-3 9l-2 2v1c-7 5-14 9-23 11-1 1-3 1-4 1h-1s-2 0-3 1h-1 0c0 1 0 1-1 1 7 0 12-2 18-3l2 1h0 1 0c1 1 4 0 5-1 4-1 9-3 13-5s10-5 14-8c8-6 17-14 23-23 2-2 4-4 5-7 0-2 1-4 2-7 1-4 2-9 3-14 1-4 3-7 4-11 0-1 1-1 2-2v1c-1 2-3 5-4 8-2 6-2 12-4 18l-3 9 3-6c2-4 4-9 6-13 1-3 3-6 4-8 0-4 2-7 3-10 3-10 5-22 2-33-1 0-3 1-4 1h-3c-1-1-1-2-1-3s1-3 1-4h5c1 1 2 2 2 3 6 13 1 32-4 45 2-2 4-3 7-4 3-6 5-13 6-19 0-8 0-14-2-22 0-3-1-7-3-10-2-1-3-2-5-2-2-1-4 0-5 1-2 2-3 4-4 7v1-3c0-2 1-4 2-6 2-1 5-3 7-2 7 0 9 11 10 17 0 1 0 5 1 6v-5c0-5 0-9-1-14 0-3-1-6-2-9-1-1-2-3-1-5v1c2 4 4 9 4 14 1 4 1 9 1 13 0 13-2 25-7 37 2 0 4 0 6 2 1 1 1 2 1 3 0 2 0 3-1 4s-4 1-5 1h-1c-2 12-9 23-16 32-2 3-5 4-6 7-1 1-3 3-5 4-5 4-10 7-16 10h0c7-2 13-6 19-10 4-3 9-6 13-10 9-7 17-17 22-27 16-29 22-63 20-95-1-10-2-20-4-29-1-6-3-11-4-17l1-1z" class="B"></path><path d="M296 626c7 0 12-2 18-3l2 1h0c-3 1-5 2-8 2-7 1-14 2-21 2h0l9-2z" class="G"></path><path d="M233 620l21 6-1 1h-4c0 1 1 2 1 2l-1 1h-3-1c-4-4-8-6-12-8l-1-1 1-1z" class="H"></path><path d="M186 595c-1 0-1-1-1-1l-1-1c0-2-2-2-3-4s-4-4-5-6h0l6 6h1c5 5 11 10 17 15 2 1 4 2 6 4h-2l1 1h-2 0c-1-1-1-2-2-3-2-1-3-1-4 0-2-3-6-6-8-8l-3-3zm115 29c8-2 17-7 19-15 0-3 0-7 2-10 1-1 3-2 5-2 1 0 2 1 3 2s1 2 1 3v1c0 3-2 5-3 8h1v1c-7 5-14 9-23 11-1 1-3 1-4 1h-1z" class="K"></path><path d="M397 554s1 0 1 1 1 3 0 3c0 2-1 4-2 5l-4 12c-8 16-23 30-40 37-4 2-8 3-12 5h-1c1-1 5-2 6-3 3-2 6-4 8-6 8-6 15-13 22-20 6-8 9-18 14-27 2-3 4-6 8-7zm-221-80h1c4 0 7 1 10 4 3 2 4 5 4 9 1 10-9 15-15 22-1 2-3 4-4 6l-1 2-1-19c-1-4-2-8-2-13 0-1 0-3 1-4 1-3 3-5 7-7z" class="J"></path><path d="M177 493h0c0 4-1 8-3 11v-1c0-3 1-7 3-10z" class="B"></path><path d="M233 514c15 0 29 4 40 14 10 8 16 20 17 33 0 10-3 21-10 28-3 3-7 6-11 8-2 1-4 1-6 2 0 0-3 2-4 2-3 1-6 1-9 2-14 1-30-4-41-13-9-7-16-18-17-29 0-12 2-22 10-31 8-10 19-15 31-16z" class="J"></path><path d="M233 595h4v1l-1 1-1 1h-1c-1 0-1-1-2-2l1-1z" class="D"></path><path d="M245 595h1 0c-1 2-2 3-3 4s-1 1-3 2c-1-1-1-1-1-2s0-1 1-2c1-2 2-2 5-2z" class="C"></path><path d="M217 564h1c0 4 0 8 1 12 0 1 1 3 1 4-2-1-2-2-3-3-1-5-1-9 0-13z" class="B"></path><path d="M268 574v2c-3 2-6 4-10 4h-2v-2c1-1 3 0 4-1 3 0 6-1 8-3z" class="D"></path><path d="M260 592c1-2 3-4 4-5 4-4 7-8 9-12l1 1v4 1 1c-1-1-1-2-2-2l-1 2-1-1c-1 2-3 4-4 6h0l1-1h1c-1 1-3 3-4 3-1 1-1 1-1 2-1 0-2 0-3 1z" class="F"></path><path d="M253 526c-5 0-9 0-13 1-3 1-5 3-7 4 3-3 8-6 12-8h2c1 1 3 1 5 2l1 1z" class="D"></path><path d="M252 560c-1-2-2-4-3-5-1-2-2-3-3-4 3 2 6 3 7 6 1 1 1 3 1 5 0 3-1 7-1 10h-1c-1-2 1-5 0-7h0-1l1-1v-4z" class="C"></path><path d="M270 566h0c1 1 1 2 1 3l1 1-2 3 1 1-1 2c0 2-1 2-2 3h-1v-1c-2 1-3 2-5 2-2 1-4 1-6 1v-1h2c4 0 7-2 10-4v-2-1h0c-1-2 0-3 0-4l1 1 1-1v-3z" class="G"></path><path d="M270 573l1 1-1 2c0 2-1 2-2 3h-1v-1c1-2 2-3 3-5z" class="C"></path><path d="M276 547c5 5 6 10 7 16h-2c-1-2 0-5-1-6l-1-1v-1h-1c0-1-1-1-1-2v-1c0-2-3-3-4-4v-1h1v1c1 0 1 0 2-1z" class="F"></path><path d="M260 550v-1l-1-1h0l1 1v-1c6 4 9 11 10 18v3l-1 1-1-1 1-1c0-8-6-12-9-18h0zm-45-15c-2 3-4 7-5 11 0 2 0 5-1 7l-1-6c-1-5 2-10 5-15v1h0c1 1 1 1 1 2h1zm4 19h1l1-1v2l-3 9h-1c-1 4-1 8 0 13l-1 1-1-1h0c-1-1-1-2-2-3 0-5 2-9 3-13 1-2 2-5 3-7z" class="D"></path><path d="M215 577h0v-7c0-2 1-5 2-6-1 4-1 8 0 13l-1 1-1-1z" class="G"></path><path d="M262 585v-2c0-1-12 1-15 0-4-2-5-5-7-8 3 2 5 3 9 4 2 1 5 1 7 2 2 0 4 0 6-1 2 0 3-1 5-2v1h1l-6 6z" class="D"></path><path d="M219 554c1-3 3-6 5-8 5-4 12-6 19-6s13 3 17 8v1l-1-1h0l1 1v1c-5-4-9-7-16-7-4 1-6 3-9 6 3-5 5-6 9-8-6 0-12 1-17 6-2 2-5 5-6 8v-2l-1 1h-1z" class="B"></path><path d="M271 574c1-1 1-1 2-1v2c-2 4-5 8-9 12-1 1-3 3-4 5l-1 6c-1 0-1 0-1-1-1-2-2-3-4-3-3 0-3 1-5 3 0-1-1-3-2-3-1-1-6 0-7-1 1-1 1-1 1-2l5 1c5 1 10-1 13-4 1-1 1-2 2-3h1l6-6c1-1 2-1 2-3l1-2z" class="L"></path><path d="M240 593c-2-1-3-2-5-3-5-3-9-8-10-13s0-9 2-13 6-5 10-6c5-1 7 0 11 2l1 1h0c1-1 1-1 2-1h1v4l-1 1h1l-1 1c0 1-2 3-3 4-2 0-4 1-5 0-1 0-1-1-1-2s0-2 1-2c0-1 1-1 1 0v1l1 1c1-1 2-1 2-2 1 0 1-1 1-1-1-2-5-5-7-5-2-1-6 0-8 1-3 2-5 4-6 8-2 4-1 9 1 12 3 5 8 8 13 10 0 1 0 1-1 2z" class="B"></path><path d="M252 560v4l-1 1h0c-1-2-2-3-3-5l1 1h0c1-1 1-1 2-1h1z" class="G"></path><path d="M272 570v-1c1-4 0-10-2-14-4-8-11-14-19-17-8-2-16-1-22 3-8 4-14 12-16 20-1 4-2 8-2 11v5h-1c-1-1-1-1-1-3 1-12 4-22 13-30 6-6 14-9 22-8 10 0 17 5 23 12 5 5 8 12 8 20-1 1-1 3-2 5-1 0-1 0-2 1l-1-1 2-3z" class="D"></path><path d="M254 521c11 3 20 11 26 22 4 9 7 21 4 30-1 4-3 8-5 11-3 5-10 11-16 14-1 1-3 1-4 1 2-1 3-2 5-3 3-2 5-4 7-6 2-1 3-2 4-4v-2h0c1 0 2 1 2 0 2-1 4-6 4-8h0-2v-1h0c2-1 2-1 3-3 1-3 1-6 1-9-1-6-2-11-7-16-1-2-3-3-5-5-6-5-11-8-19-10 9-1 16 3 23 7h0c-6-7-14-12-22-13l-1-1c-2-1-4-1-5-2l5-1h0c1 0 1 0 2-1z" class="C"></path><path d="M213 532c3-4 7-6 12-9h0c-4 0-7 3-10 4-6 4-10 11-12 18-2 6-3 14 0 20 1 1 2 2 3 4v1c-4-6-6-10-7-16-1 4 0 11 1 16 1 3 4 8 8 9 1 0 3-1 4 0s1 1 0 2c0 1-1 2-2 2-1 1-2 1-3 0-3-1-6-6-7-8-4-10-3-23 1-33 3-10 12-17 21-21 9-3 23-4 32 0-1 1-1 1-2 1-3 0-6-1-8-1-7 1-14 4-19 8-4 4-4 8-6 13 0-7 1-11 6-16l1-1c-5 3-8 5-11 10h-1c0-1 0-1-1-2h0v-1z" class="B"></path></svg>