<svg xmlns="http://www.w3.org/2000/svg" xmlns:v="https://vecta.io/nano" viewBox="45 53 590 612"><!--oldViewBox="0 0 670 752"--><path d="M351 172c11-1 21 3 29 9v1l-5-3c-7-3-15-4-23-4-3 0-7 0-10-1 3-1 6-2 9-2zm-18 12c8 5 14 14 17 22 3 9 3 20-1 29v1l1-4c2-13-2-26-9-37-2-3-5-7-8-10v-1zm9-6h3c10 0 22 6 29 13 5 6 10 15 9 23 0 0-1-4-1-5l-3-6c-5-11-15-18-27-22-3-1-6-1-9-2l-1-1zm-11 12v1c8 6 13 18 14 28 1 12-2 22-10 31l-1 1h0c3-5 6-10 7-15 4-17-2-32-10-46zm215 304h0c18-1 40 3 54 15 10 9 16 21 16 33 1 14-3 26-13 36-5 6-12 11-20 15-2 0-3 1-5 1 6-2 12-5 16-11 6-8 9-17 8-26s-6-17-13-22c-15-12-34-12-51-10-17 3-33 8-49 14l-40 15c-8 3-16 6-23 8-7-2-13-6-19-10 6-2 11-5 17-7 14-6 28-12 40-20 11-7 22-15 33-20 4-2 9-3 14-4 11-4 23-6 35-7zM383 86c36 0 71 5 105 19 51 20 94 60 115 111 21 49 24 109 4 159-9 23-24 44-42 61-24 24-55 41-85 57l-73 33-22 8h0c3-2 7-3 10-5l18-10c12-6 22-13 33-20 22-17 42-40 57-64 25-42 36-89 34-138-1-16-3-32-7-47-14-60-51-105-111-124-12-4-25-7-38-8l-19-1h-11c0-1-1-2-1-2 0-2-1-4-2-5-4-9-11-15-18-19l53-5z"></path><path d="M310 43h1c1 1 1 3 1 4 0 4-2 9-2 14l-6 34c1 1 5 3 6 4 12 8 22 18 21 33 0 5-1 9 0 14 3 9 9 16 11 24-2 2-6 3-8 6-2 2-2 6-4 8s-6 1-8 3c-2 1-4 4-6 6-2 1-4 1-6 2-9 0-17-8-23-13l-10-8c-7-5-17-10-26-11 6 2 11 6 16 9-5-1-11-2-17-1-6 0-15 4-19 9 5-3 10-5 16-6 7-1 17-2 24 3 3 2 6 6 9 9l1 1c0 1-2 4-2 5-3 10-2 20 1 29 4 10 11 18 17 27 7 10 14 22 16 34l-3-6c-2-5-5-9-8-13-4-5-8-9-14-13s-13-8-19-13l-9-9c-1-2-2-4-4-5 1 3 3 7 5 10 9 12 22 17 32 27 6 5 12 12 15 20 4 10 5 22 0 32v-8c-2-10-8-20-17-26l7 9c4 8 6 18 6 27 0 3 0 5-1 7l-1-8c-2-14-9-26-20-34 0 2 3 5 4 6 6 8 9 18 10 27 0 10-2 18-7 28-1 2-2 4-4 6 2-4 4-8 5-12 1-7 1-15-1-21-4-9-11-16-20-19l3 2c9 8 14 18 14 30 0 9-2 17-6 25-1 2-1 4-3 5 1-5 2-9 2-14-1-11-6-22-14-29-5-5-12-9-19-10h-12c2 1 5 1 7 2 8 1 15 4 21 9 8 7 12 18 12 28 1 8-2 17-6 24-2 3-5 5-7 8l2-7c4-10 6-22 0-33-3-6-8-10-16-12 6 4 11 8 14 14 4 12 1 24-4 35 1-10-2-17-8-25 1 3 2 6 3 8 2 8 3 19-1 27 0-5 1-10 0-16-3-12-10-23-20-31 0 1 1 2 1 3 2 2 4 4 5 6 3 4 5 9 6 14s2 9 3 13l3 21 6 36 5 32 4 24c1 6 3 11 3 17 0 4-1 9-2 13-1 2-2 5-3 8s-1 6-1 9c-2 7-6 17-12 22-4 5-11 5-17 5-2 2-4 4-6 5-6 4-13 4-19 2-4 0-10-3-12-7-2-2-1-6 0-9 1-2 3-5 5-6 5-4 11-4 17-4 5 1 10 2 15 0 4-2 7-5 9-9v-1c1-3 1-5 1-7 0-6-1-11-1-17 0-5 1-10 1-16 1-5 1-10 1-15-1-28-14-53-25-78l-6-17c-2-4-3-8-4-11 0 4 1 8 1 12 3 14 9 27 13 41 5 13 9 26 10 40-1-1-2-3-2-5-7-26-25-48-48-61-17-10-37-13-56-8-13 4-23 12-29 24l7-7c10-9 22-15 35-17 19-1 40 8 55 20 20 17 33 41 35 67 1 20-5 42-21 54-5 3-12 5-16 10-4 6-4 11-4 18-4-9-6-17-7-27-2 9-1 19 3 28 3 8 11 18 19 22 5 1 10 2 14 4 6 3 11 7 13 13h1l7-3c6-3 12-8 17-12 6-5 12-10 16-16 14-21 15-51 10-75-3-17-11-34-11-52 0-5 1-10 2-15 3-8 9-14 16-18-4 5-5 9-7 15l16-16c-1 2-3 4-4 6-2 4-3 8-3 12-1 13 4 25 7 37 8 30 16 61 11 92-2 8-4 15-7 22l52-9c-9-9-16-19-23-29-5-10-10-20-13-30-12-34-10-74 6-106 13-26 35-46 62-55 21-7 45-6 66-2 3 1 8 1 11 3-26-1-49 1-71 15-23 15-41 39-46 67-7 33 1 66 19 93 20 31 51 54 83 71 20 10 42 19 64 23 32 7 70 10 98-9 12-8 22-21 25-34v-2c0 3-1 8-2 11-4 10-9 19-15 26-19 22-47 34-76 37-15 1-29 0-43-2-48-8-95-32-132-64l-51 7-15 1h-5c-1 0-3 3-3 4l-8 8c-8 8-17 15-28 20-6-3-14-7-19-12l-6-6 2 4c2 4 5 8 9 11 12 11 28 15 45 15 9-1 18-4 27-1 3 1 6 2 7 5v1c4 2 6 4 7 8 1 3 1 7-1 11-1 2-2 2-4 3-2 0-4 1-6 2-5 3-12 4-18 4-6-1-10-3-16-4l-18-3c-17-3-34-7-50-11-7-2-13-6-19-9-7-5-14-9-21-15-2-2-4-4-7-6l-12-12c-18-17-36-34-51-53-11-12-21-26-29-40-12-22-20-46-24-71-3-28 0-57 8-84 4-16 10-31 18-45 5-10 11-20 17-29 8-12 15-22 25-32 9-8 19-15 29-21-3 1-6 2-8 3-12 5-21 13-30 22-3 3-5 7-8 9l13-17c14-17 35-28 58-30 6-1 12-1 19-1-18-4-34-1-50 6 3-3 6-6 10-9 9-6 20-11 31-13 6-2 12-2 18-3l-9-1c-24-2-44 9-61 25-4 4-6 8-10 11h0c15-28 41-43 70-51 0-1 0-1-1-1-2-1-5-1-8-1-16-2-31 3-44 13-3 2-5 3-7 5s-4 3-6 5l1-1c15-19 34-32 57-37 9-2 17-3 26-4-12-2-23-1-35 0l-15 3c2-1 6-2 8-3 10-3 22-7 30-15 3-2 5-5 7-8-2 1-5 3-8 5-8 5-16 9-25 12 9-7 16-14 23-22 7-10 14-20 23-28 7-7 15-12 24-15 4-2 8-3 12-5l39-27c5-3 11-8 17-10z"></path><path d="M328 172h1c1 2 1 3 1 4v1c1 2 1 3 0 5h-1c0-2-2-7-1-10zm-14 460c1 0 2 0 2 1 3 1 5 4 6 6 0 3 1 7 0 9l-1-2c0-2-1-3-2-4-2-5-5-6-10-8l5-2zm-16-501c5 0 11 1 14 4 5 4 4 11 4 17l-5-3c-7-4-11-11-13-18z" fill="#fff"></path></svg>