<svg xmlns="http://www.w3.org/2000/svg" xmlns:v="https://vecta.io/nano" viewBox="60 40 591 628"><!--oldViewBox="0 0 676 752"--><path d="M128 254c7-4 15-7 19-14-3 2-7 5-10 7-2 0-4 1-5 1h1c5-3 8-6 12-9v-1c-3 2-8 5-12 5 2-1 3-1 4-2 4-2 8-6 10-9 1-1 2-2 2-3-3 3-6 6-10 8h0c5-4 10-9 12-15 1-4 0-7 0-11l-2-17-2-19c-6 10-12 20-15 32-1 6-1 11-2 17-7 20-30 33-48 42 0-43 20-83 50-113 52-53 127-80 201-81 68-1 137 21 186 69 43 42 69 99 70 158 0 65-22 129-57 183l-20 29-7 9c-1 1-2 3-2 3-1 1 4 25 4 27 19-14 41-24 65-20 13 2 25 9 33 20 7 9 9 20 7 32-2 11-9 22-19 29-1 1-3 2-4 3 8-7 14-15 15-26 1-9-1-18-7-25-7-9-19-14-30-15-21-2-40 4-56 17 8 28 21 60 48 74 12 7 27 8 40 5 15-5 27-15 35-29 4-9 6-19 3-28-2-6-5-10-9-14l-4-4c8 3 14 9 17 17 6 12 5 27 0 40-7 17-21 32-38 39s-35 6-52-1c-15-6-27-17-38-29-16-19-28-40-37-63l-3-7-3 3 6 15c1 2 3 6 3 8-7-5-12-9-17-15l-5 5c3 10 9 19 16 27-1 0-3-2-4-3l-15-19c4 11 11 17 19 26 5 5 9 13 12 20h-1c-6-14-18-24-29-34-3-3-6-7-9-9 2 5 5 8 7 12 6 8 12 17 15 27h0c0-1 0-2-1-3-4-11-14-20-23-28 5 12 13 22 19 34 1 3 2 7 3 11-1 0-1 0-1-1-2-13-13-21-22-30-3-3-5-7-8-10 3 10 10 17 16 25 6 7 10 16 12 25 1 5 2 10 1 14-1-15-5-27-16-37-7-7-16-12-22-19l-5 4c6 12 14 23 23 33v1l-15-15c-5-4-9-9-13-14l6 17c1 4 3 9 3 14h0c-1-2-1-5-2-8-2-5-5-9-7-14-2-2-3-5-6-8 2 6 4 10 6 15l6 21c1 2 3 5 3 8l-6-14-8-14c-1-4-3-8-5-12 1 5 2 9 4 14 1 3 2 7 3 10H59c4-5 9-8 16-11 8-3 16-6 25-7 15-2 30-2 45-2h38 25c-13-5-26-10-38-17-11-6-21-13-30-21-21-17-40-39-51-64-12-25-17-54-7-80 7-17 19-32 36-40 15-7 32-8 48-2 11 5 22 13 27 25 4 9 5 20 2 29-3 7-8 13-15 16-6 3-12 3-18 1-4-2-7-6-9-11 4 4 7 7 12 7 5 1 11-1 14-5 5-4 7-9 8-15 0-7-3-14-8-19-4-5-11-8-18-8-8 0-17 3-23 9-10 9-13 23-14 36 0 31 16 62 37 83 17 18 37 31 60 40l19 7c2-4 5-9 6-13 0-3-1-6-1-9l-1-13-15-83c-3-12-4-24-8-35 0-3-1-6-3-8 1 4 2 11 0 15 0-12-3-26-12-34l-1-1c2 3 4 5 5 8 5 10 6 20 4 31v-5-5c-1-9-5-17-9-25-4-6-8-13-12-19-1 0-1 0-1-1 4 10 9 19 11 30v1c0 1 0 2 1 3v2c-1-2-1-3-1-4-3-15-9-26-17-39-2-4-4-9-7-13l7 19c1 3 3 8 3 11 0-1-1-3-1-4l-3-8c-4-8-9-16-12-25-1-4-3-7-4-11-1-3-1-6-2-9 0 4 0 8 1 11l3 12c1 3 2 6 2 9v-1l-7-23c-3-15-3-31 1-46-2 1-2 4-3 6-3 11-4 22-3 34l1 7v1 1 1-2l-1-2c-2-11-2-21-1-32 1-4 2-9 3-13-3 4-4 9-5 13-1 2-1 4-2 6 1-7 2-13 4-20 4-9 9-17 16-23 2-4 6-6 9-10-11 7-24 15-27 29l-1 5c0-7 2-15 7-21l4-4c-6 3-11 6-13 12-1 2-2 4-2 6v-4c4-14 20-20 30-29-3 2-6 4-9 5-14 4-28 4-40 13v-1c5-4 12-7 19-9-5 0-10 1-15 2-4 1-7 3-10 3l6-3c-7 2-13 4-20 7h0c10-6 21-9 31-12 6-1 12-2 17-5 3-2 5-4 8-7-3 1-5 3-7 4-16 6-34 4-50 6-8 0-16 1-23 3h0c8-3 17-4 25-5 15-2 30-2 41-13-7 3-16 6-25 5 2-1 4-1 6-2 5 0 11-3 15-6l-16 5-18 5-21 4c-2 0-7 3-8 2 8-3 16-4 24-6 7-2 13-5 20-7 8-3 18-5 25-11l-10 3c-4 1-7 1-11 2-3 1-5 2-7 3s-4 2-5 2c8-6 18-9 25-17-1 1-2 1-3 2-3 3-7 4-11 6-4 1-8 3-12 4h-1-1v1h-3v-1l-1 1-1-1c1 0 2 0 3-1 0 0 1-1 2-1 1-1 3-1 4-2 1 0 2-1 2-1z"></path><path fill="#f6f5f9" d="M128 254h1c2-1 4-2 7-3l7-2c2 0 3-1 5-1-6 3-12 6-18 8l-6 3h-1-1v1h-3v-1l-1 1-1-1c1 0 2 0 3-1 0 0 1-1 2-1 1-1 3-1 4-2 1 0 2-1 2-1z"></path><g fill="#fff"><path d="M283 574c1 2 2 5 3 7l4 10c2 4 3 7 5 11h-8c1-8 0-14-2-21-1-2-2-4-2-7zm-31-308c8 9 17 13 28 17-5 0-9 0-14-2-8-3-11-8-14-15zm-3-44h1c-2 5-2 11-6 16-3 4-8 5-12 5h-1c-1-2 1-8 3-10 3-6 9-9 15-11zm-68-2c8 1 16 2 21 7 4 5 5 10 5 16-3 0-5 0-7-1-8-2-11-11-15-17-1-2-2-3-4-5zm87 322c2 2 2 6 3 7l6 15 7 21c1 2 2 6 3 9 0 2 0 6-1 8h-2-19l3-60z"></path><path d="M285 110h0c10-1 21 0 31 0 43 4 84 20 117 48 37 30 60 74 70 120 4 15 6 29 7 44 6 69-14 137-50 195l-11 19c-3 4-5 8-9 12 2-4 4-8 5-12 5-12 9-25 7-37 0 7 0 13-2 20-2 6-5 12-8 18 1-3 1-5 2-8l2-20c1-9 2-18 1-27-1-8-3-16-6-23-1-4-3-8-5-12-2-3-4-6-5-10v1c9 11 16 26 18 40 1 8 1 15 0 23v2h0c1-4 2-8 2-12 0-6 0-14-2-20-3-17-10-32-17-47-7-14-14-28-23-40-8-10-17-17-27-24v-1c7 4 14 10 20 16 13 11 23 25 31 40 9 17 16 36 24 54v-1c0-3-2-6-3-8l-10-24c-8-19-17-39-31-56-9-11-19-20-31-28-5-4-12-6-17-10 3 1 6 2 8 3 7 4 13 8 19 12 2 2 4 4 6 5-2-3-6-5-9-7-15-12-31-21-48-28l-12-4c-3-1-6-2-8-3 3 0 6 1 8 2 10 2 19 6 29 10h0c-9-4-18-9-28-12h0c14-4 32-3 45 4 2 1 4 3 7 4 1 1 3 2 4 3v-1c-2-1-5-3-7-5-19-11-41-13-62-13-8 0-16 0-24 1-4 0-8 1-12 2-3 0-6 1-9 1 8-2 15-4 24-5 18-3 36-3 54 0l8 2c2 1 4 2 6 1-12-4-25-6-37-7h-32c-15-1-31-2-42-13 3 2 7 4 10 5 14 5 31 4 45 4 6-1 13-1 20 0 2 0 4 0 6 1h0c-1-2-12-2-15-3 15-3 29-2 44 0 3 1 6 2 8 3l8 3c1 0 3 1 3 1-13-6-27-10-42-11-9-1-19 0-29 0-13 1-25 2-37-6 5 2 10 4 15 5 12 1 24-1 35-2 7-1 14-1 21 0-1-1-3-1-4-1h-17c-9 0-18 1-26 0s-15-2-22-5c16 1 30-3 45-3h9c2 0 7 1 8 0-8-1-16-1-25-1-8 0-18 2-27 0-10-2-17-7-25-14a57.31 57.31 0 0 1-11-11l9 6c12 7 29 11 42 11-1-1-2-1-3-1l-8-1c-12-2-25-8-34-15 4 2 8 4 13 5 12 2 25 1 37 0l14-1c-1 1-1 0-2 0h-6c-12 0-26 1-38-3-6-1-13-4-17-9-1-2-2-3-3-5 3 2 5 4 8 6 7 5 16 6 25 7h10c-2-1-7 0-9-1-10 0-21-3-28-10 7 3 14 5 22 4l-8-1c-9-2-14-6-20-14 3 3 6 5 9 6 9 6 20 6 31 7h0c-7 0-14-2-21-4-3-1-7-2-10-4h0c4 2 8 2 12 3-1-1-1-1-2-1-3-1-8-3-11-6 9 4 18 8 28 8h-3l-2-1c-10-2-21-7-27-16 3 3 6 5 10 7 1 1 0 0 1 0l-11-8 23-1h-5c-4-1-8-1-12-1-2 0-4 1-6 0l-2-3c12-5 27-3 40-1 3 0 7 2 10 2-3-2-7-2-10-3-8-1-15-2-23-2-3 0-17 1-18 0v-1c1-1 2-2 4-2 4-2 9-3 13-4-2-1-4 0-6 1l-12 2c1-5 2-10 4-16 2-8 4-17 6-26 0-1 1-5 0-6 0-1-1-1-2-2-2 1-5 2-7 4-7 4-14 10-19 16l-5 5s-6-3-7-3c-12-5-26-5-39 0-8-10-16-19-26-27 7-7 16-13 25-19 31-19 65-29 101-31z"></path></g></svg>