<svg xmlns="http://www.w3.org/2000/svg" xmlns:v="https://vecta.io/nano" viewBox="49 60 588 628"><!--oldViewBox="0 0 672 752"--><path d="M267 106h1l1 1-2 3h-1c0-1-1-2-1-3l2-1zm17-83l1 1c-1 8-5 11-10 17-1 1-1 3-2 4l-3 3c-1 2-1 4-2 6v-1c0-2 0-4 1-6l3-6c2-2 3-4 5-5 2-2 3-4 4-7-3 3-6 4-9 6l-1 1c0 5-3 10-5 15v1c-5-5-9-11-15-15l12-4c4-1 10-2 14-4 3-2 5-4 7-6zm-4 481h1l5 9c-8 4-16 6-25 8-4 1-9 2-13 2-3 0-6-1-9-2 4 3 8 4 12 4 8 1 16-1 24-4 2 0 5-1 7-2s3-2 5-4c1 1 3 5 3 6l10 19c-1 1-3 2-4 3-8 6-20 9-29 8l-12-3c6 4 12 5 19 5 9-1 20-4 27-10h1l7 12h0l-35 8c-2 0-6 2-9 2v-1c-2-1-4-3-6-5-8-7-13-17-18-27l-3-9c-2-4-2-8-3-13 12 2 24 1 36-2 3-1 7-2 9-4h0zm86-151c4 0 8 1 12 2l15 3-58 17c5 5 11 8 16 13 3 2 6 6 9 9 2 2 4 3 6 4-2 2-5 3-6 4-3 3-2 5-5 7l-1-1v1c0 1-2 4-3 6h-1l-1 1c-1 2-3 3-5 5-1 1-3 3-5 4-1-1-1-2-1-2l-2 2c-2 2-3 4-5 5-1 0-1-1-1-1v-1c-4 2-8 6-13 6-1-1-3-4-4-6l-7-14c-2-2-3-4-5-6l55-9c-4-2-11 0-16 1-11 1-23 3-34 6-2 0-4 1-6 2-2-3-3-7-5-10-2-5-5-9-7-13-3-3-5-6-8-9 1 3 3 7 5 10l9 21 28 52c16 27 34 52 53 77 24 32 51 63 83 87 27 21 59 33 94 28 21-3 40-12 54-30 10-15 16-35 13-53-2-12-8-24-18-31-9-5-20-7-30-5-8 1-16 5-21 12-6 8-5 16-3 26-2-2-4-8-4-11-1-7 1-14 5-20 7-8 17-12 26-13 13-1 26 2 35 10 11 10 18 25 20 39 1 22-7 45-21 62-13 15-31 24-49 30-43 15-90 17-132-3-14-7-27-16-39-27-31-28-55-63-77-98-14-22-26-44-37-68-6-12-10-25-15-38-8 4-15 10-20 17-12 17-15 41-12 61 3 21 14 42 32 54 19 14 45 17 68 13l17 22c-41 5-85 4-121-17-27-16-45-42-52-72-7-26-3-55 11-78 9-15 21-27 35-36 13-8 27-12 42-17l36-12 29-7 42-11zM297 95c10 0 19 0 29 1 16 1 31 3 46 7 58 15 103 56 133 106 20 34 32 72 37 111 2 18 2 37 2 55-1 24-4 48-11 71-10 41-31 82-64 111-10 8-20 15-31 21l-15 9-33-43c7-7 12-13 17-20 10-15 16-33 19-50 8-37 7-76 7-114 0-34 0-69-4-103-1-6-2-13-4-19-3-16-8-32-15-47-17-35-47-61-86-70-13-3-26-4-39-4l-13 1c-7 1-21 4-26 1 0-1 4 0 5 0 4 1 8 0 12-2 6-5 9-14 11-21l23-1z"></path><path d="M198 0c0 3 1 5 3 8 6 10 17 14 26 22 1 2 2 4 4 6v-1c0-2-2-4-3-5 7 1 14 2 19 5 8 4 12 11 17 17 3 4 6 7 8 11 2 2 3 5 4 7 0 1 1 3 0 3 0 1-1 2-1 2-1 1-2 3-3 4-1 2-2 4-3 5 0-1 0-3 1-5s3-3 5-5h-1l-1 1c-2 1-4 3-4 5-1 2-1 4-1 5 0 7 2 13 2 19l-7 1 2 7-3 3c-1 1-5 3-8 3-1 0-3-1-4-1-9-4-11-14-18-21-5-5-11-7-18-7 4 1 8 3 11 5 6 4 10 10 14 15-2 0-3-2-4-3-2-1-3-3-5-4 4 6 8 13 13 18 5 4 11 7 17 9 11 5 23 10 32 18v1c-7-6-15-10-24-14-7-3-14-5-21-9-2-1-5-3-7-5s-4-4-7-6c3 5 8 9 13 12 4 2 8 4 11 6 13 5 26 10 35 21 8 11 10 24 8 38l-3-9c-2-9-7-17-15-24 2 4 4 7 5 10 3 5 5 13 3 18 0 1 3 6 3 7 1 2 2 4 2 7 3 11 0 24 3 35 0 2 1 5 2 6 1 2 3 3 3 4-5-3-9-8-10-14-2-5-2-11-3-17-1-5-2-10-5-15-3-8-8-15-16-19-3-2-7-4-10-5-4-2-7-5-11-6 7 9 19 12 27 20 7 8 9 17 8 27l-3 12v9c-1-4-2-7-3-10-1-6 0-12-1-18-1-3-2-6-4-9-5-7-13-10-22-11 3 2 7 4 10 6 6 5 10 11 12 19 1 4 1 9 3 14 3 10 10 15 20 18l6 3c-4 0-8-1-12-2 4 7 8 16 9 25 1 14-4 30-13 41 1-2 2-5 3-8 4-8 7-18 4-27h0v12c-3 13-13 21-21 29 0-2 2-4 4-6 3-3 6-8 8-12 1-1 2-3 2-5-3 4-5 8-7 11-5 5-9 10-13 16-2 3-4 7-5 11-2-1-4-3-5-5-6-10-4-19-2-30l-5 7c-2 5-3 10-1 16 5 16 29 17 43 20 3 1 8 1 11 3 8 4 11 11 14 19l-11 3c-3 0-7 2-10 2-5 0-8-5-11-8-1-1-3-3-5-4h-2c-3 0-7 1-10 1-3 1-5 1-8 1 1 0 4 0 5 1l6 3c-10 1-21 1-31-1-5 0-10-1-14-3l-3-2c4 5 9 6 15 8 2 0 4 1 6 1 4 0 8-1 13-1-2 1-5 1-7 1-4 1-7 1-11 2h13 0s-1 0-2 1h-10c3 1 6 2 9 5-4-2-8-3-13-4-3-1-7-1-11-2v-1l12 1h-3c-6-1-15-5-19-9-3-3-5-6-7-9l1 2c2 6 5 12 11 15 2 2 4 3 6 4h0c-4 1-15-7-18-10 1 2 3 5 5 6s3 2 4 4l-3-2c-13-8-9-21-11-33 0-3-1-5-1-7-1 3 0 6-1 10-2 6-5 12-6 19-1 6 0 13 4 18 3 4 8 8 13 10 4 1 8 1 13 1-4 1-8 0-12 0 3 1 5 2 7 4-5 3-11 6-15 11-8-2-15-3-22-6-13-6-23-15-28-28-1-3-1-7-3-9v1c0 10 6 22 13 29 9 11 24 14 37 15-1 1-3 3-5 4-2 0-8-3-10-2l9 4c-6 5-11 12-14 19v-1c-4-7-15-10-22-14-4-2-7-4-10-7-7-6-12-14-13-23-1-4-1-9-1-14l-1 2c-1 7 0 16 3 22 2 5 4 10 8 15 5 6 12 11 18 16 4 4 8 8 12 13l-4 8-3-3c-3-1-6-2-10-3 4 3 8 4 12 8l-4 13c-7-4-13-9-18-15-3-3-4-7-7-11 2 11 9 21 18 27l4 3c1 1 2 1 2 1s0 2-1 2c-3 21-1 46 6 65 7 17 18 31 30 43 9 9 20 17 32 23-5 0-11 0-16-1-3-1-6-3-8-5-7-6-10-14-16-20-6-5-12-9-17-14-13-13-22-29-26-46-2-8-3-15-3-23l-1-11c-1 3-1 8-1 12 0 13 1 27 6 40 6 15 14 27 26 37 3 3 7 6 10 9 3 2 5 5 7 8 5 7 11 9 19 13-5-1-9-2-13-4-19-6-37-17-50-32-10-13-15-28-16-45 0-4 1-9 1-13-1 1-1 3-1 5-4 12-4 24-2 36v1c2 18 14 37 29 47l9 6 6 3c-4 0-8-2-12-4-12-5-23-14-31-25-20-26-21-59-17-90l5-31-14 30c-7 19-3 44 4 63 1 3 3 6 4 10-3-3-6-8-8-11-6-11-13-22-17-34-7-20-6-44 6-62 7-10 16-18 19-31-3 5-5 9-8 13-6 8-14 15-20 24-12 17-18 40-16 62 0 4 1 9 2 13l-3-7c-8-19-7-42-2-62 2-8 6-16 9-24-7 5-11 11-14 18 3-16 17-24 26-37 5-9 9-18 10-29 0-2 1-5 0-7l-1 7c-4 16-14 28-28 36-5 2-11 5-16 8-2 1-5 3-6 4-2 2-3 4-5 5 5-10 13-14 21-21 4-3 8-7 11-12 4-5 6-11 7-18l3-14c2-5 5-9 7-13-2 1-3 3-4 5-4 4-6 9-7 14-1 6-2 12-4 18-3 8-9 13-17 17-4 1-9 2-14 0-7-4-12-13-15-20 4 6 7 11 14 14 4 2 8 2 11 0 3-1 6-4 8-7 8-10 8-23 12-35 1-5 4-11 7-15 7-7 15-11 23-15 18-9 34-22 42-41l-1 15c2-2 2-5 2-8 1-6 2-12 2-18 0-2 0-5-1-6-1 0-1 1-2 2-2 5-2 11-4 17-9 24-34 39-59 43-10 1-21 0-30 4-9 5-16 14-17 25 0 2 1 5 0 7-1-1-1-1-1-2-2-10-2-21 4-31 7-11 18-16 30-17 8 0 16 0 24-2s19-6 23-14c-4 3-8 5-12 7-10 3-20 2-30 3-9 1-18 3-25 8-3 3-5 5-7 8 0-3 3-6 4-8 8-8 18-13 28-17 10-3 20-5 29-11 7-5 14-11 17-18 3-6 3-13 4-20 0-4 1-7 2-11-2 2-3 5-4 8-2 5-2 10-3 15-1 4-2 7-4 10-7 14-23 19-37 21-6 0-12 0-18 2-5 1-9 3-14 6 6-8 15-10 23-12 7-3 14-5 20-9 9-6 14-14 17-24 1-4 2-7 2-11 3-13 11-24 22-31l17-10c7-5 16-11 18-21-2 3-3 5-5 8-8 8-17 12-27 17-5 2-10 4-15 8-9 6-14 16-17 26-1 4-1 7-1 10-2-3-2-7-2-11-1-4 0-8 0-12 2-6 4-13 7-19 6-8 14-14 22-20l12-9c7-4 14-8 19-14-9 4-17 10-25 16-10 7-22 15-30 24s-10 19-9 30c-2-5-3-10-3-16s2-12 5-17c5-9 13-17 22-21 4-2 8-3 11-4 8-3 16-7 22-13-5 2-10 5-14 7l-15 5c-9 4-15 10-22 16 4-10 14-17 22-23 9-5 17-10 23-18 8-13 6-29 11-43 1-6 5-11 8-16-8 7-13 16-16 27-1 4-2 8-4 11-4 6-11 11-17 12 4-3 9-6 12-10 5-8 3-20 3-29 0-7 1-15 5-22s10-11 17-16c6-6 13-13 16-21-4 3-7 8-10 12 2-7 8-15 14-19 2-2 6-4 8-6l-1-1-3 2c0-1 2-2 3-3v-2-7c1-3 2-5 2-8 0-5-1-10 0-15s3-9 5-14z"></path><path d="M172 139c1 2 2 6 3 9 1 7-1 14-6 20l-1 1 4-9c2-7 1-14 0-21zm91 71h1c4 5 5 12 4 17-1 3-2 7-3 10v7 2h-1c-3-9 2-18 1-27 0-3-1-6-2-9h0zM197 6c1 2 2 5 3 7 2 3 6 6 8 9 1 2 2 6 5 8h0c0 2 1 4 1 6s-1 5-2 6h0v-1c0-4-1-7-2-10h0c0 1-1 3-1 5 0-5-1-10-4-14-2-2-4-4-5-6-2-3-2-7-3-10zm-27 337h0l2 7c4 11 12 24 22 30 3 2 7 3 11 5-6-1-12-3-17-7-10-8-17-22-18-35zm24-116c7 6 13 14 16 23-1-2-2-4-3-5-2-2-4-4-5-6-1 2-1 3-1 5-1 5-2 8-5 12s-6 7-11 9c5-4 11-10 13-17 3-8 0-14-4-21zm21-115c2 2 4 5 7 6 7 6 17 7 24 12 6 3 14 8 16 15h-1c-5-8-12-11-21-14-6-3-12-5-17-9-3-2-6-6-8-10zm21-44c2 0 4 1 6 1 5 1 10 1 14 4 2 3 1 8 1 11-4-1-8-3-11-6-4-3-7-7-10-10z" fill="#fff"></path><path d="M241 71c5 0 10 0 13 3 1 2 1 5 1 7h-1c-3-1-6-4-8-7-1-1-3-2-5-3z"></path><g fill="#fff"><path d="M237 151c2 2 5 4 8 6 3 1 7 2 11 3 8 3 18 5 25 11 4 3 7 8 8 13h-1c-8-11-19-16-32-20-4-1-9-3-13-6-2-2-4-5-6-7zm-23 41c6 6 8 14 7 23 0 9-2 18 0 26 1 5 5 10 8 14 4 7 8 14 10 21 1 6 1 13-2 18v-1c1-3 1-6 1-9 0-11-7-22-14-30-3-5-7-9-8-14-3-12 5-22 3-34-1-5-3-10-5-14z"></path><path d="M228 218s1 3 1 4c0 3 2 5 4 8l3-12c0 7-1 15 0 21 1 4 3 7 6 9-2-3-3-5-4-9 1 2 3 5 4 7 5 5 11 7 17 10 5 2 11 6 13 11 1 6-1 12-4 17-2 4-4 8-6 13-1 3-1 6-2 9 0-4 0-7 1-11 0-4 2-8 2-13 1-11-7-21-15-27-5-3-10-5-13-9-5-5-6-12-7-19v-9z"></path></g></svg>