<svg xmlns="http://www.w3.org/2000/svg" xmlns:xlink="http://www.w3.org/1999/xlink" xmlns:v="https://vecta.io/nano" viewBox="45 26 668 664"><!--oldViewBox="0 0 744 752"--><style>.B{fill:#d7c3a5}.C{fill:#efdcbb}.D{fill:#c1ae93}.E{fill:#d6c09b}.F{fill:#d4c0a2}.G{fill:#e3d6bf}.H{fill:#d8c9ae}.I{fill:#bcad9d}.J{fill:#e8cfa4}.K{fill:#f0d9a5}.L{fill:#af9c84}.M{fill:#161310}</style><path d="M339 467c0 3-1 5 0 7s1 8 0 10h0l-1 2 1-11c0-2-1-5 0-8zM131 193c0-1 1-1 1-2 2 0 8 0 10 1h1c2-1 1 0 3 0h2c-1 0-2 0-3 1h0-14zm207-38c5-1 12-2 17-2v2h-8c-1 0-1 0-2 1-2 0-4 0-6-1h-1zm57-82c1 0 2-1 3 0h0 1c1-1 2-1 3-1h11l1 1h1 0v1l-20-1h0z" class="K"></path><path d="M299 542c7 1 14 1 21 1h0c-4 1-9 0-13 0 0 1 2 3 3 3s2 0 3 1 1 1 1 2c-2-1-5-2-8-3-3-2-6-3-9-4h2z" class="C"></path><path d="M246 142v-1c-1-1-1-2-1-3V87c0-1 1-1 1-1 0-1 0-2 1-3l-1 19h18v1h-17l-1 29v10z" class="K"></path><path d="M453 161h1v1l1 1v10c-6-5-15-8-22-11h0 10 0c3-2 7-1 10-1h0z"></path><path d="M453 161h1v1l1 1-12-1h0c3-2 7-1 10-1h0z" class="I"></path><defs><linearGradient id="A" x1="303.621" y1="69.218" x2="271.763" y2="91.967" xlink:href="#B"><stop offset="0"></stop><stop offset="1" stop-color="#221c14"></stop></linearGradient><linearGradient id="B" gradientUnits="userSpaceOnUse"></linearGradient></defs><path fill="url(#A)" d="M310 73h1 1c0 2 0 3-1 4v1 4h-33-20 0-1l17-4c0-1 6-1 7-1 1-1 2-1 3-1h0c1-1 3 0 5-1 1 0 3-1 4 0h2c1-1 3 0 5-1 3-1 7-1 10-1z"></path><path d="M310 73h1 1c0 2 0 3-1 4v1c-2-1-5 0-7 0h-15-15c0-1 6-1 7-1 1-1 2-1 3-1v1c3 0 6 0 10-1h13c1 0 3 1 4 0v-2l-1-1z" class="D"></path><path d="M310 73l1 1v2c-1 1-3 0-4 0h-13c-4 1-7 1-10 1v-1h0c1-1 3 0 5-1 1 0 3-1 4 0h2c1-1 3 0 5-1 3-1 7-1 10-1zm178 42v-3-15-4c11 4 21 9 31 16 3 1 6 3 9 5-3 2-8 1-11 1h-29zm-107 31l1 1c-1 2 0 3 0 5l-21 1h-6c-5 0-12 1-17 2-9 2-17 5-25 7v-15h32l36-1zm76 454l31 28-7 3-24 7v-38zm173 5l19 17s2 1 2 2l9 8 1 1h-9c1 1 0 3 1 3-1 0-1 0-1 1v2h-1l-23 1c-1-3 0-5 0-7v-1c-1-1-1 0 0-1l2-26z"></path><path d="M649 622s2 1 2 2l9 8 1 1h-9c1 1 0 3 1 3-1 0-1 0-1 1v2h-1l-23 1c-1-3 0-5 0-7v-1c-1-1-1 0 0-1v1h11c3-1 8-1 12-1l-2-9z"></path><path d="M628 633v-1c-1-1-1 0 0-1v1h11c2 0 5-1 7 0h0c-1 0-2 0-2 1h-7-9z" class="B"></path><path d="M649 622s2 1 2 2l9 8 1 1h-9c1 1 0 3 1 3-1 0-1 0-1 1v2c-1-1-1-3-1-3-2-3-5-3-7-3 0-1 1-1 2-1h0c-2-1-5 0-7 0 3-1 8-1 12-1l-2-9z" class="D"></path><path d="M651 624l9 8h-8c-1-3-1-6-1-8zM253 83c2-1 3-1 4-1h1 0 20c1 1 3 0 4 1h-2c-1 2-1 5 0 8 0 3 0 7-1 10v2c-2-1-5 0-7 0h-8v-1h-18l1-19h6z"></path><path d="M253 83c2-1 3-1 4-1h1 0 20c1 1 3 0 4 1h-2c-1 2-1 5 0 8 0 3 0 7-1 10v2c-2-1-5 0-7 0h-8v-1c4 0 10 0 14-1 1-3 0-5 0-8V83h-7-18z" class="B"></path><path d="M456 81c1 0 2 1 4 1h1c0 5-1 30 1 31h0 0c-1-3 0-7 0-10V83c5 1 11 4 16 6 3 1 6 1 9 3v1l1-1v1 4 15 3h-14-18V95c0-5-1-10 0-14z"></path><path fill="#8c8277" d="M487 92v1l1-1v1 4 15 3h-14c4-1 8 0 12 0l1-23z"></path><path d="M177 250s0-1 1-1h5 15 0c4 1 8 1 12 1 4-1 8-1 12 0-1 2-2 3-2 5l-5 18h-22c-5 1-10 1-15 0v1c2 1 5 0 7 0h30v1c-2 1-6 1-9 1h-20-8 0c-1-1-1-4-1-6v-20zm87-147h8c2 0 5-1 7 0v23c0 2 0 6-1 9 0 1-1 2-1 3-3 2-4 2-7 2h5v1h-3c-4 1-24 0-25 1h-1 0v-10l1-29h17z"></path><path d="M246 132l1 9 16-1h7 5v1h-3c-4 1-24 0-25 1h-1 0v-10z" class="E"></path><path d="M290 141c3 0 21 0 23 1h0l1 3c2 1 5 0 7 0 2 1 5 1 7 1h12c2 0 4-1 6 0h-1v1h-32v15h-1c-3 2-5 3-8 4l-12 6c-2 3-6 5-10 7h0v-1h-1v-4l1-9v-13l-26-1c-3-1-6-1-9-1v-1h-1v-7h1c1-1 21 0 25-1 3 0 8 0 10 1h0 1c3-1 5-1 7-1z" class="F"></path><path d="M247 142c1-1 21 0 25-1 3 0 8 0 10 1v2c-1 1-3 1-4 1l-8-1h-15-8v-2zm43-1c3 0 21 0 23 1 0 1 0 2-1 3h-18-7-4v-3c3-1 5-1 7-1zm-7 6h18 11v5l-29-1v-4zm-34-2h2c3 0 6 1 9 1h17 4c0 1 1 1 1 1 0 1 0 3-1 4h-1l-33-3v-2l2-1zm43 27c-3 1-7 3-10 5l1-25 23 1 6 1v8c-3 2-5 3-8 4l-12 6zm-45-22c3 0 6 0 9 1l26 1v13l-1 9v4h1v1c-1 0-2-1-2 0-2 0-4 3-5 3h-6c-3 0-7 1-10 1-4 0-8-1-11 0v1c1 1 3 0 4 0l16-1h6l-15 14c-2 0-7 0-8-1s-1-3-3-4c-1 1 0 1 0 2v2l-1 1h-12l-1-4h0c2-1 3 0 4 0 1-1 3-1 5-1l2-1v-5-12-16-5h1c-1-1-1-1-1-2l2-1z"></path><path d="M234 193h0c2-1 3 0 4 0 1-1 3-1 5-1l2-1v-5-12-16-5h1c-1-1-1-1-1-2l2-1-1 43c-2 1-9 0-12 0z" class="K"></path><path d="M315 642h0c-1-1-1-7-1-8v-25h18c0 2-1 8 0 10 1-1 0-8 1-10h2 21v10c0 1-1 3 0 4l-1 23c-7 0-16 0-23-1 0-5 1-11 0-16h0l-1 16-16-3zm246-135l4-18h5 3 7 14c4 0 8-1 11 0l-9 19c-1 3-4 7-4 10l-1 1c-3 7-7 16-12 21l-3-3h-1v-1c-3-4-7-7-11-10l-9-8h-1c-2-1-3-2-3-4l3 3h4c2-4 2-8 3-12v2z"></path><path d="M551 514l3 3h4c2-4 2-8 3-12v2l-1 10 32 1-1 1c-4-1-10 0-15 0v18h-1v-1c1-2 0-14 0-17h-15c-1 0-2 0-3-1h-2-1c-2-1-3-2-3-4z" class="B"></path><path d="M555 518h2c1 1 2 1 3 1h15c0 3 1 15 0 17-3-4-7-7-11-10l-9-8zm21 19v-18c5 0 11-1 15 0-3 7-7 16-12 21l-3-3zM455 117v2l1 1v2c1 1 15 0 17-1v1h-1l2 1 4 18h1v-1l2 18h0 12c2 0 4 0 5 1l-1 1h1 1c2 0 4 0 6 1 2 0 4-1 6 0l-2 1-12-1c-2 2-4 3-5 5-2 2-3 4-4 6-2 3-3 7-5 9v-1l-1 1c0 3-1 5-2 8-1 1-1 3-1 4-7-8-15-13-23-19 0-1-1 0-1-1v-10l-1-1v-1c1-1 1-4 1-5-1-2-1-4 0-6h0v-2h1l-1-16v-5-4h0-1c1-1 1-5 1-6z"></path><path fill="#564b3d" d="M479 140l2 18h0c1 1 1 2 1 3h-1l-1-1-1-13c0-2-1-4-1-6h1v-1z"></path><path d="M455 117v2l1 1v2c1 1 15 0 17-1v1h-1l2 1c-3 0-18 0-18 1l-1 3v-4h0-1c1-1 1-5 1-6z" class="L"></path><path d="M455 148h1v14c8 0 15-1 23-2v1c-7 1-15 2-23 2v11c0-1-1 0-1-1v-10l-1-1v-1c1-1 1-4 1-5-1-2-1-4 0-6h0v-2z" class="D"></path><path fill="#50483f" d="M481 158h12c2 0 4 0 5 1l-1 1h1 1c2 0 4 0 6 1 2 0 4-1 6 0l-2 1-12-1c-2 2-4 3-5 5-2 2-3 4-4 6-2 3-3 7-5 9v-1l-1 1v-11c-1-1-1-3-1-5v-2h0c1 0 1 1 1 2v1c1 3 0 6 1 8v4c4-6 6-12 12-17h-9-4-1 1c0-1 0-2-1-3z"></path><path d="M234 193l1 4h12l1-1v-2c0-1-1-1 0-2 2 1 2 3 3 4s6 1 8 1l-2 1c-5 5-10 12-14 18l-8 11-1 1c-5 7-8 13-12 20 0 3 1 5-1 7h-1c0-2 1-3 2-5-4-1-8-1-12 0-4 0-8 0-12-1h0c1-1 3 0 4-1h6v-25h-23 0c2 0 4 0 6-1h17v-7h-12-3l1-1h5v-20c-1-1-2-1-2-1l1-1c0 1 1 1 1 1 2 0 8-1 10 0l1 1v-1h4 19v1l1-1z" class="G"></path><path d="M218 215h15v6l-8 1h0-16v-7h9zm-17-1l-1-21h9v21h-8zm34 13c-1-2-1-4-1-6v-13c0-3 1-6 1-10h0c7 0 15-1 22 0-5 5-10 12-14 18l-8 11zm-25-33v-1h4 19v1c1 6 0 13 0 19-1 1-5 1-6 1h-17v-20zm12 54h-12l-1-25h24c0 2 0 3 1 5h0c-5 7-8 13-12 20zm90-175h0 4l-3 1c-1 2 0 5 0 8v26l1 32h-2-13c-3 0-6 0-9 1h0c-2 0-4 0-7 1h-1 0c-2-1-7-1-10-1h3v-1h-5c3 0 4 0 7-2 0-1 1-2 1-3 1-3 1-7 1-9v-23-2c1-3 1-7 1-10-1-3-1-6 0-8h2c-1-1-3 0-4-1h33v-4-1c1-1 1-2 1-4z"></path><path d="M279 103v-2h1v18 10c0 4 0 8-2 11h3c3 1 6 0 9 1h0c-2 0-4 0-7 1h-1 0c-2-1-7-1-10-1h3v-1h-5c3 0 4 0 7-2 0-1 1-2 1-3 1-3 1-7 1-9v-23z" class="D"></path><path d="M312 73h0 4l-3 1c-1 2 0 5 0 8v26l1 32h-2l-1-56-20-1c-2 0-6 1-8 0h-1c-1-1-3 0-4-1h33v-4-1c1-1 1-2 1-4z" class="L"></path><path d="M340 558v1l1-1c1 0 4 1 6 1 2 1 4 0 6 1l1-1 1 1c1 1 4 0 5 0 1 1 2 1 3 1h1l-1 32v15c2 0 3 1 4 1h6v1c4 11 9 21 15 31 1 2 0 5 2 6h-26-2-2c-1 0-3 0-4-1l1-24-1-3v4c-1-1 0-3 0-4v-10h-21 4v-1c1-2 1-9 1-12v-38z" class="E"></path><path d="M360 560c1 1 2 1 3 1l-1 47h-1 0l-1-48zm-3 1h2v9 25c0 4 1 9 0 13h0-2v-47zm0 61h0v-13h2c1 2 1 4 0 6v7l-1 23h1l1-35 1-1 1 1h0v36l-2 1c-1 0-3 0-4-1l1-24zm7 25h-1c-1-1 0-7 0-8v-30c1 0 4 0 5 1h1 4c4 11 9 21 15 31 1 2 0 5 2 6h-26zm-23-89c1 0 4 1 6 1 2 1 4 0 6 1 1 0 1 0 2 1l1 47h-16l1-50zm149-354h4c1 2 2 7 4 8 0-1-1-2-1-3l-2-5 30-1c1 2 1 6 2 9v1h1v-1l1 1v11h11c-2 0-9 1-11 0h0c0 1 1 1 2 1h10c1 7 3 12 8 17 5 3 10 5 16 6h5l2 1h-9l2 1h-2l-33 1v15 12 2c1-2 2-4 3-5 0 1 0 1-1 2-2 5-2 10-2 15 0 3 0 6 1 9 0 3 1 6 2 8l-1 1-2-9h-2-7c0 6 0 13-1 18v-11-7h2l-1-1-1-1v-4c0-4 0-7-1-10v-2c1-3 0-6 0-8-1-8-2-16-4-23h0c-1-1-1-2-1-3-1-3-2-7-4-11-5-12-12-24-20-34z"></path><path d="M527 213h1v-1l1 1v11h11c-2 0-9 1-11 0h0c0 1 1 1 2 1h-2l1 24h33l2 1h-2l-33 1v15 12 2c1-2 2-4 3-5 0 1 0 1-1 2-2 5-2 10-2 15 0 3 0 6 1 9 0 3 1 6 2 8l-1 1-2-9h-2-7c0 6 0 13-1 18v-11-7h2l-1-1-1-1v-4c0-4 0-7-1-10v-2l1 1c2 0 6 3 9 4l-1-37h-12l-1 1h0c-1-1-1-2-1-3 1 1 3 1 4 1l10-1v-24h-10-7c-6-2-10-7-13-12 3 2 5 6 8 8 4 3 8 3 13 3h9c0-4 0-7-1-11z" class="J"></path><path d="M519 285c4 1 7 2 10 5v10h-8l-1-1v-4c0-4 0-7-1-10zm-4-33l1-1h12l1 37c-3-1-7-4-9-4l-1-1c1-3 0-6 0-8-1-8-2-16-4-23zm16-27h10c1 7 3 12 8 17 5 3 10 5 16 6h5l2 1h-9-33l-1-24h2zM295 572l1-19-1-6v-5h2c3 1 6 2 9 4l8 3h1l12 4c1 1 3 1 5 2h0 2c1 1 2 1 3 2h2l1 1v38c0 3 0 10-1 12v1h-4-2c-1 2 0 9-1 10-1-2 0-8 0-10h-18v25c0 1 0 7 1 8h0v2h0v1l-1-1c0-1 0-1-1-2h0v-33h-7c-2 0-7 1-9 0v-1h0c-1-1-1-1-2-1v-14-21z"></path><path d="M314 549h1c0 3 1 6 0 9 0 4 1 8 0 12v-3h-1l-1 2v-8c1-2 1-4 1-5v-7z" class="H"></path><path d="M314 567c0-1-1-5 0-6 1 1 1 5 1 6h-1z" class="C"></path><path d="M332 555h2l-1 1v3 11l-1 38h7v1h-4-2c-1 2 0 9-1 10-1-2 0-8 0-10h-18v25c0 1 0 7 1 8h0v2h0v1l-1-1c0-1 0-1-1-2h0v-33h-7c-2 0-7 1-9 0v-1h0 16v-39l1-2h1v3 9c-1 9-1 19 0 28h2c5 1 10 1 14 0l1-52z" class="G"></path><path d="M334 555c1 1 2 1 3 2h2l1 1v38c0 3 0 10-1 12h-7l1-38v-11-3l1-1zm-39 17l1-19-1-6v-5h2c3 1 6 2 9 4l8 3v7c0 1 0 3-1 5v8 39h-16c-1-1-1-1-2-1v-14-21zm95-12h10c4 0 7-1 11-1h2c1 0 2 2 3 2l8 9 17 14-1 1h-1v1h3c-15 0-29 4-40 15l-5 5c-2 3-5 7-6 11s0 10 0 14l-1 16h0c-2-1-1-4-2-6-6-10-11-20-15-31v-1h-6c-1 0-2-1-4-1v-15l1-32h0c2 0 3 0 4-1h0c1 1 7 1 9 1l1 1c0-1 0-1 1-2v1h6c2-1 3-1 5-1z"></path><defs><linearGradient id="C" x1="416.807" y1="587.541" x2="418.009" y2="593.226" xlink:href="#B"><stop offset="0" stop-color="#cab29d"></stop><stop offset="1" stop-color="#d6caa9"></stop></linearGradient></defs><path fill="url(#C)" d="M396 605c4-5 11-11 16-14 3-2 6-3 9-5h0l19-1h-1v1h3c-15 0-29 4-40 15l-5 5-1-1z"></path><path d="M364 561c2 0 3 0 4-1h0c1 1 7 1 9 1l1 1c-4 4-7 8-8 14-1 7-1 14 1 21l3 12c5 0 10 1 15 0v-12-30-6h-4c2-1 3-1 5-1v15 7c4 1 7 2 11 3 5 1 11 1 16 1-3 1-5 1-9 0-6 0-12-1-18-4v33c2-3 4-7 6-10l1 1c-2 3-5 7-6 11s0 10 0 14l-1 16h0c-2-1-1-4-2-6-6-10-11-20-15-31v-1h-6c-1 0-2-1-4-1v-15l1-32h0z" class="J"></path><path d="M374 610h15v28l-1 1c-5-9-9-19-14-29zm-10-49h0 1 11c-2 3-4 5-5 7-3 8-4 18-2 27 0 2 0 4 1 5 1 2 3 7 3 9h-6c-1 0-2-1-4-1v-15l1-32zm14 1c0-1 0-1 1-2v1h6 4v6 30 12c-5 1-10 0-15 0l-3-12c-2-7-2-14-1-21 1-6 4-10 8-14zm19 44l5-5c11-11 25-15 40-15l9 8c1 2 3 3 4 5l1 29c-2-1-4-1-5-1-3-1-6 0-9 0-11 1-20 3-29 8-6 2-12 7-16 12 3-1 5-4 8-6 7-5 15-10 23-12 5-1 9-1 13-1s8-1 12 0c1 1 2 1 3 1v9c-12 4-24 7-37 8l-12 1c-3 0-7 1-11 1l-1-1h-3-2l1-16c0-4-1-10 0-14s4-8 6-11zm256 30c-1 0 0-2-1-3h9l29 26 1 1 9 8c4 3 7 6 8 10l-1 6-63-1h-5c0 1-1 1-1 0h0c-11-1-22 0-33 0l-1-23v-1-17l1-1h0 21c1 1 0 1 0 2l1 8v-1h0v-9l1-1 23-1h1v-2c0-1 0-1 1-1z"></path><path d="M653 639l14-1v1c-2 2-11 1-14 1l1 12c1 2 1 4 2 6 2 1 5 1 8 1h17c2 0 6 1 9 0l1 1h-33-20c-3 0-5-1-8 0-1 0-1 0-2 1s-3 4-3 7 2 6 4 9c5 4 10 5 15 6h-5c0 1-1 1-1 0h0 0c-4-2-8-3-11-7-2-3-4-7-3-10 0-2 2-5 3-6 1 0 1 0 1-1-7 1-16 1-24 1v-1c4 0 19 1 22-1 1-5 0-10 0-15h0l1 8v-1h0v5c0 1 1 1 1 2h-1c3 3 23 2 27 2l-2-18h0 1l-1-1v-1h1z" class="D"></path><path d="M605 641h0 21c1 1 0 1 0 2h0c0 5 1 10 0 15-3 2-18 1-22 1v-17l1-1zm47-2v-2c0-1 0-1 1-1v3h-1v1l1 1h-1 0l2 18c-4 0-24 1-27-2h1c0-1-1-1-1-2v-5-9l1-1 23-1h1z"></path><path d="M652 639v-2c0-1 0-1 1-1v3h-1v1l1 1h-1-25l1-1 23-1h1z" class="I"></path><path d="M604 660c8 0 17 0 24-1 0 1 0 1-1 1-1 1-3 4-3 6-1 3 1 7 3 10 3 4 7 5 11 7h0c-11-1-22 0-33 0l-1-23zm49-24c-1 0 0-2-1-3h9l29 26c-3 1-7 0-9 0h-17c-3 0-6 0-8-1-1-2-1-4-2-6l-1-12c3 0 12 1 14-1v-1l-14 1v-3zm-399-58v-13c3 0 25 2 27 1 1-1 0-1 1 0 2 1 7 0 8 0 2 0 3 0 4 1v4l1 1h0v21 14c1 0 1 0 2 1h0v1c2 1 7 0 9 0h7v33l-41-11h-1l-17-7h-1l-18-9v-19c0-2 0-6 1-8h0l11-1c1 0 2 0 2-1h1c1 1 3 1 4 1v-3-6z"></path><path d="M270 579c0-1 0-3 1-4h4-1c1 1 2 1 3 1-2 0-4 0-5 1s-1 2-2 3v-1z" class="B"></path><path d="M270 579v1c-1 8 0 16 0 24h-1c-1-3-1-7-1-11l1-1c0-4-1-9 1-13z" class="K"></path><path d="M270 604l1 11 1 12v4h-1l-2-27h1z" class="D"></path><path d="M275 575c6 0 13 1 18 0 1-1 1-2 1-4l1 1h0v21 14c1 0 1 0 2 1h0c-1 0-2 1-3 0v-15c0-5 1-11 0-15-2-1-14-1-17-2-1 0-2 0-3-1h1z" class="C"></path><path d="M261 594c2 0 5 0 7-1 0 4 0 8 1 11l2 27-17-7v-30h7z"></path><path d="M236 588l11-1v2h4l1 1c1 1 1 1 1 2l-1 1h2v1l1-1v-1h2l1 1h3v1h-7v30h-1l-18-9v-19c0-2 0-6 1-8h0z"></path><path d="M236 588l11-1v2c-4 0-8 1-11-1h0z" class="C"></path><path d="M255 592h2l1 1h3v1h-7v30h-1c-1-3 0-6-1-9l1-21h-6c-2 0-9 1-10 0v-1h2c4-1 9 0 13 0h2v1l1-1v-1z" class="F"></path><path d="M247 594c-2 0-9 1-10 0v-1h2 11v1h-3z" class="C"></path><path d="M254 578v-13c3 0 25 2 27 1 1-1 0-1 1 0 2 1 7 0 8 0 2 0 3 0 4 1v4c0 2 0 3-1 4-5 1-12 0-18 0h-4c-1 1-1 3-1 4-2 4-1 9-1 13l-1 1c-2 1-5 1-7 1v-1h-3l-1-1h-2v1l-1 1v-1h-2l1-1c0-1 0-1-1-2l-1-1h-4v-2c1 0 2 0 2-1h1c1 1 3 1 4 1v-3-6z"></path><path d="M257 592h12l-1 1c-2 1-5 1-7 1v-1h-3l-1-1z" class="B"></path><path d="M254 578v9c0 1 0 4 1 5v1l-1 1v-1h-2l1-1c0-1 0-1-1-2l-1-1h-4v-2c1 0 2 0 2-1h1c1 1 3 1 4 1v-3-6z" class="E"></path><path d="M603 195c0 1 1 1 1 2l11 27v1c1 0 2 0 2 1v1l1 2c0 1 0 1-1 1 1 3 1 7 3 9h0c1 0 1 1 1 2h-1c0 3 1 5 2 8v1h-7-2-2 0-8l-1 1c-2-1-4-1-6-1h-2c-1 0-1 0-2-1h1c-1 0-2 0-3-1h-1 0c-2 1-4 0-6 0l-13-1c1 0 2 0 2 1h-2-5c-6-1-11-3-16-6-5-5-7-10-8-17h-10c-1 0-2 0-2-1h0c2 1 9 0 11 0h-11v-11-11c0-2-1-4 0-6h0 21c3 0 7-1 10 0h12 22c2 0 6 1 8 0 0 0 0-1 1-1z"></path><path d="M603 195c0 1 1 1 1 2-1 3-1 6-1 9v17c-1-1 0-5 0-7v-19h-1v19c0 2 1 5 0 7h0v-8-17l-33-1h1 0c-4 0-7 0-10-1h12 22c2 0 6 1 8 0 0 0 0-1 1-1z" class="I"></path><path d="M602 223h0c1-2 0-5 0-7v-19h1v19c0 2-1 6 0 7 4 1 8 1 12 1v1c1 0 2 0 2 1v1l1 2c0 1 0 1-1 1l-2-5h-12v20c-1 0 0-4-1-5v-15h-12c2 7 2 16 0 23h-1l1-4c1-4 1-16-2-19h-3c-1-2-5 0-7-2h9c-4-8-9-12-18-15 0-1 1-1 1-2 9 3 15 9 19 17h0c4 0 9 1 13 0z" class="K"></path><path d="M604 197l11 27c-4 0-8 0-12-1v-17c0-3 0-6 1-9zm-14 51c2-7 2-16 0-23h12v15 9h-4c-1 0-2 0-3 1h1-2c-1 0-1 0-2-1h1c-1 0-2 0-3-1z"></path><path d="M593 249h5c-1 0-2 0-3 1h1-2c-1 0-1 0-2-1h1z" class="J"></path><path d="M603 245v-20h12l2 5c1 3 1 7 3 9h0c1 0 1 1 1 2h-1c0 3 1 5 2 8v1h-7-2-2 0-8l-1 1c-2-1-4-1-6-1h-1c1-1 2-1 3-1h4v-9c1 1 0 5 1 5z"></path><path d="M620 239h0c1 0 1 1 1 2h-1c0 3 1 5 2 8v1h-7-2-2 0-8l-1 1c-2-1-4-1-6-1h-1c1-1 2-1 3-1h4v-9c1 1 0 5 1 5 0 1 0 2 1 3l8 1c1-2 2-4 4-6 1-2 3-2 4-4z" class="C"></path><path d="M622 249h-9c1-2 2-4 3-5s2-2 4-3c0 3 1 5 2 8zm-62-43c0-1 1-1 2-1l8 1c0 1-1 1-1 2 9 3 14 7 18 15h-9l-36 1c1-2 1-3 2-5l-2-1c1-2 3-4 4-5 3-4 9-7 14-7z"></path><path d="M560 206c0-1 1-1 2-1l8 1c0 1-1 1-1 2-7-1-12-2-18 2-3 2-6 5-7 9l-2-1c1-2 3-4 4-5 3-4 9-7 14-7z" class="J"></path><path d="M529 196h21c3 0 7-1 10 0s6 1 10 1h0-1-7v8c-1 0-2 0-2 1-5 0-11 3-14 7-1 1-3 3-4 5v1c0 1-1 3-1 4s-1 1-1 1h-11v-11-11c0-2-1-4 0-6h0z"></path><path d="M529 196h21c3 0 7-1 10 0s6 1 10 1h0-1-7v8c-1 0-2 0-2 1v-9h-21-9l-1-1h0z" class="B"></path><path d="M542 218l2 1c-1 2-1 3-2 5l36-1c2 2 6 0 7 2h3c3 3 3 15 2 19l-1 4h0c-2 1-4 0-6 0l-13-1c1 0 2 0 2 1h-2-5c-6-1-11-3-16-6-5-5-7-10-8-17h-10c-1 0-2 0-2-1h0c2 1 9 0 11 0 0 0 1 0 1-1s1-3 1-4v-1z"></path><path d="M542 218l2 1c-1 2-1 3-2 5l36-1c2 2 6 0 7 2h-1-42v1c1 6 4 11 9 15 5 3 13 6 19 6 1 0 2 0 2 1h-2-5c-6-1-11-3-16-6-5-5-7-10-8-17h-10c-1 0-2 0-2-1h0c2 1 9 0 11 0 0 0 1 0 1-1s1-3 1-4v-1z" class="C"></path><path d="M148 192v-1l1 1h1c1-1 4-1 5-1 2 1 2 1 3 1 2-1 2-1 4-1 1 2 4 2 6 1 1 0 2 0 3-1l2 1 1-1h1l-1 2h1 1 9 9 3s1 0 2 1v20h-5l-1 1h3 12v7h-17c-2 1-4 1-6 1h0 23v25h-6c-1 1-3 0-4 1h-15-5c-1 0-1 1-1 1v-1l-1-1h-24-2-14c-6 0-13 1-20 0l3-12v-1l9-34c1-1 1-3 2-4 0-1 1-3 1-4h14 0c1-1 2-1 3-1z" class="E"></path><path d="M196 215h12v7h-17l-14-1v-5c6 0 12 0 18-1h1zm-44 33l-1-15 24-3 1 12c0 2-1 4 0 6h-24zm-33-12l31-3v15h-14c-6 0-13 1-20 0l3-12zm57-43h9 9 3s1 0 2 1v20h-5c-2 0-4 1-5 1h-12l-1-22zm9 30h23v25h-6-7-18v-25h8zm-34 8l-1-38h25c1 3 0 8 0 11v24c-1 2-21 3-24 3zm-20-38h14 4l1 38c-6 1-11 1-17 2-3 0-12 2-14 2l9-34c1-1 1-3 2-4 0-1 1-3 1-4z"></path><path d="M622 434v2h0c-1 1-1 2-2 4-1 5-2 10-4 15-1 4-2 10-4 14v1l-7 19h0c-3-1-7 0-11 0h-14-7-3-5l-4 18v-2c-1 4-1 8-3 12h-4l-3-3c-5-5-10-9-15-14-2-2-5-3-7-6h-1l-3-3-2 1-2-3c-1 0-1 0-1-1h0c-2-1-3-3-4-4s-3-1-3-3h-1 0l-7-6-2-2v-2l7 7 9 7c0 1 2 3 2 3h7v-39-5h1v-3h37l-1-1h4 18c5-1 10 0 14 0l1-6h1 19z" class="C"></path><path d="M525 491l-2-2h0 5v5l-3-3zm80-2c0-1-2-1-2-2h-1c0-6 1-12 0-18h0l2 1c3 1 5 1 8 0l-7 19z"></path><path d="M569 466l30 1c2 0 2 0 3 2-1 1 0 2 0 3l-1 11v5h-3-33l4-22zm-40-22v-3h37 6l-4 24h-39v-21zm93-10v2h0c-1 1-1 2-2 4-1 5-2 10-4 15-1 4-2 10-4 14-2 0-4 1-6 1-1-1-3-2-3-3-1-2-1-6-1-8h0l-1 7-32-1 3-17c0-2 0-6 1-7h3 14v-1h-3 0c5-1 10 0 14 0l1-6h1 19z"></path><path d="M622 434v2h0c-1 1-1 2-2 4-1 5-2 10-4 15-1 4-2 10-4 14-2 0-4 1-6 1-1-1-3-2-3-3-1-2-1-6-1-8h0c-1-2 0-4 0-6v-12h-25-1 14v-1h-3 0c5-1 10 0 14 0l1-6h1 19z"></path><path d="M622 434v2h0c-2-1-4-1-6-1-4 1-9 1-13 0v32c-1-2-1-6-1-8h0c-1-2 0-4 0-6v-12h-25-1 14v-1h-3 0c5-1 10 0 14 0l1-6h1 19z" class="B"></path><path d="M529 494v-5h10 0c-1-2-6-1-8-1h-2v-22h39l-3 15c0 2-1 5-1 7h-20-4l1 1c1 0 1 0 2-1h1l1 1h19l-3 16c-1 4-1 8-3 12h-4l-3-3c-5-5-10-9-15-14-2-2-5-3-7-6zM355 73v-1l27 1v24c0 3 1 6 0 8v1c1 3 0 7 0 9l-1 1 2 1-1 2h0v-1 9c0 2-1 10 0 11h1v14h-1c0-2-1-3 0-5l-1-1-36 1v-1h1c-2-1-4 0-6 0h-12c-2 0-5 0-7-1-2 0-5 1-7 0l-1-3h0c-2-1-20-1-23-1h0c3-1 6-1 9-1h13 2l-1-32V82c0-3-1-6 0-8l3-1h13c1-1 3-1 4 0v1l2-2h10 8l1 1h0v1l1-1z"></path><path d="M329 87h1v4h-1c0-1-1-2-1-3l1-1z" class="M"></path><path d="M382 127c0 2-1 10 0 11h1v14h-1c0-2-1-3 0-5v-4h0c-1-1 0-1-1-2h-24-8c-1 0-1 0-1-1h-3c2 0 5-1 7 0 3-1 6 0 8 0l15-1c2 0 5 1 7 0v-12z" class="D"></path><path d="M345 140c2 0 5-1 7 0h7 1l-1 1h-2-8c-1 0-1 0-1-1h-3z" class="B"></path><path d="M314 140h20 7c0-1 0-1 1-1l3 1h3c0 1 0 1 1 1h-4l-31 1h-1 0c-2-1-20-1-23-1h0c3-1 6-1 9-1h13 2z" class="H"></path><path d="M354 73h0v1l1-1v42l26 1 2 1-1 2h0v-1c-2-1-4 0-6-1h-22v-14-30z" class="C"></path><defs><linearGradient id="D" x1="379.481" y1="146.884" x2="350.607" y2="138.48" xlink:href="#B"><stop offset="0"></stop><stop offset="1" stop-color="#372f2d"></stop></linearGradient></defs><path fill="url(#D)" d="M357 141h24c1 1 0 1 1 2h0v4l-1-1-36 1v-1h1c-2-1-4 0-6 0h-12c-2 0-5 0-7-1-2 0-5 1-7 0l-1-3h1l31-1h4 8z"></path><path d="M347 141c2 0 4 0 7 1l-6 1c-1 0-1-1-1-2z" class="M"></path><path d="M382 143h0v4l-1-1-36 1v-1h1c-2-1-4 0-6 0h-12c-2 0-5 0-7-1h25 29 6l1-2z" class="B"></path><path d="M382 143h0v4l-1-1c-2-1-6 0-8 0h-1c1 0 2-1 3-1h6l1-2z" class="E"></path><path d="M313 142h1l31-1h2c0 1 0 2 1 2l1 1v1h-3-25c-2 0-5 1-7 0l-1-3zm42-69v-1l27 1v24c0 3 1 6 0 8v1c1 3 0 7 0 9l-1 1-26-1V73zm248 507v1l25 23 2 1-2 26c-1 1-1 0 0 1v1c0 2-1 4 0 7l-1 1v9h0v1l-1-8c0-1 1-1 0-2h-21 0l-1 1v17 1l1 23h-2-9c-2-2-5-4-7-7-4-3-7-6-10-10-1-1-1-1-2-1l-42-38-1-2c-1 0-2-1-3-2 0-6-1-13 0-19v-1c-1-2 0-13 0-16 7 1 16 0 23 0-1-1-2-1-3-1 11-2 23-1 34-1l13-1c2 0 5 0 6-1v-1-1l1-1z"></path><path d="M532 625h56v1h4-1-16l1 30c8-5 17-10 26-9h0c0 1 0 1 1 1-10 1-18 5-27 9l1 9c-1-1-1-1-2-1v-4-11l-1-23h-27c-5 0-10-1-14 0l-1-2z" class="D"></path><path d="M592 626h10l1 9v8c0 1 0 3-1 4-9-1-18 4-26 9l-1-30h16 1z"></path><path d="M603 635l1-1v6c1 1 2 1 3 1h-2l-1 1v17 1l1 23h-2-9c-2-2-5-4-7-7-4-3-7-6-10-10l-1-9c9-4 17-8 27-9-1 0-1 0-1-1h0c1-1 1-3 1-4v-8z"></path><path d="M603 635l1-1v6c1 1 2 1 3 1h-2l-1 1v17 1l1 23h-2v-35c-1 0-1 0-1-1h0c1-1 1-3 1-4v-8z" class="F"></path><path d="M529 604c3 1 6 1 9 2l14 3 20 4h1 5c4 1 8 1 12 2 3 0 8-1 12 0 1 3 0 7 0 10h-14-56c-1 0-2-1-3-2 0-6-1-13 0-19z"></path><path d="M603 580v1l25 23 2 1-2 26c-1 1-1 0 0 1v1c0 2-1 4 0 7l-1 1v9h0v1l-1-8c0-1 1-1 0-2h-21 0 2c-1 0-2 0-3-1v-6l-1 1-1-9h-10-4v-1h14c0-3 1-7 0-10-4-1-9 0-12 0-4-1-8-1-12-2 0 0 0-1 1-1l23 1v-14c1-5 0-11 0-17v-1l1-1z"></path><path d="M603 580v1c-1 6 0 13 0 20l1 32 23-1 1-28 2 1-2 26c-1 1-1 0 0 1v1c0 2-1 4 0 7l-1 1v9h0v1l-1-8c0-1 1-1 0-2h-21 0 2c-1 0-2 0-3-1v-6l-1 1-1-9h-10-4v-1h14c0-3 1-7 0-10-4-1-9 0-12 0-4-1-8-1-12-2 0 0 0-1 1-1l23 1v-14c1-5 0-11 0-17v-1l1-1z" class="J"></path><path d="M604 634h9l14-1v7h-14c-2 0-4 0-6 1-1 0-2 0-3-1v-6zm-55-48c11-2 23-1 34-1l13-1c2 0 5 0 6-1v-1c0 6 1 12 0 17v14l-23-1c-1 0-1 1-1 1h-5-1l-20-4-14-3c-3-1-6-1-9-2v-1c-1-2 0-13 0-16 7 1 16 0 23 0-1-1-2-1-3-1z"></path><path d="M574 611l5 1c-1 0-1 1-1 1h-5l1-2z" class="G"></path><path d="M529 603c3-1 5 1 7 1l16 3v2l-14-3c-3-1-6-1-9-2v-1z" class="C"></path><path d="M552 607l20 4h2l-1 2h-1l-20-4v-2z" class="E"></path><path d="M572 611h2l-1 2h-1c0-1-1-1-1-1l-1-1h0 2z" class="J"></path><path fill="#8c8277" d="M549 586c11-2 23-1 34-1l13-1c2 0 5 0 6-1v-1c0 6 1 12 0 17v-10-4l-50 2c-1-1-2-1-3-1z"></path><path d="M382 73h1 3 5l1 1h1l2-1h0l20 1c3 0 5 0 8 1l7 1c2 0 5 0 8 1h2l1 1h1c2 0 3 1 5 1 2 1 3 1 4 1h1l1-1c1 1 2 2 3 2-1 4 0 9 0 14v20h18 14 29c3 0 8 1 11-1v1h1 0c-1 1-1 2-1 4l-1 2v-1h-1v1c-3 1-6 1-8 1h-21v1c0 1 1 2 1 3h0c-1-1-1-3-2-4l-16 1c-1 0-4-1-5 0l4 17v1h-1l-4-18-2-1h1v-1c-2 1-16 2-17 1v-2l-1-1v-2c0 1 0 5-1 6h1 0v4 5l1 16h-1v2h0c-1 2-1 4 0 6 0 1 0 4-1 5h-1 0c-3 0-7-1-10 1h0-10 0c-1 0-4-1-5-1v-1c-1 0-1 0-2 1-1-1-2-2-3-2l-14-3h-4-1l-1-1c-1 0-3 0-4 1l-1-1c-1 0-2-1-2-1-1 0-1 1-1 1h-4s0 1-1 1v-1h1v-1h-2c-2 0-4 0-6-1h-1s0 1-1 1h-7-11s-1-1-2-1l21-1h1v-14h-1c-1-1 0-9 0-11v-9 1h0l1-2-2-1 1-1c0-2 1-6 0-9v-1c1-2 0-5 0-8V73z" class="B"></path><path d="M397 110c3 1 7 1 11 2 1 0 1 0 1 2v1l-7 1-5-1v-5zm59 10v-3c1 0 13-1 15-1 0 1 1 3 1 3l1 2c-2 1-16 2-17 1v-2z"></path><path d="M418 112l36-1h0v2 2h-2-29-14v-1c0-2 0-2-1-2h10z" class="M"></path><path fill="#201e17" d="M408 112h10 0c-1 0-1 1-2 1l-4-1v2c3 1 8-1 11 1h-14v-1c0-2 0-2-1-2z"></path><path d="M419 106h35 1l-1 2 1 1c-2 1-5 1-8 1-4 0-9 1-14 1h-13c-2 0-5 1-8 0l-15-1v-3-1h22z"></path><path d="M412 111h4c2-1 4 0 5-1h0c1-1 2-1 3-1l1 1c0 1 6 0 8 1h-13c-2 0-5 1-8 0z" class="M"></path><path d="M474 119l-1-3c6-1 12 0 18 0h36v4h-1v1c-3 1-6 1-8 1h-21v1c0 1 1 2 1 3h0c-1-1-1-3-2-4l-16 1c-1 0-4-1-5 0l4 17v1h-1l-4-18-2-1h1v-1l-1-2h2z"></path><path d="M472 119h2l1 2c2 1 5 0 7 0h20l24-1v1c-3 1-6 1-8 1h-21v1c0 1 1 2 1 3h0c-1-1-1-3-2-4l-16 1c-1 0-4-1-5 0l4 17v1h-1l-4-18-2-1h1v-1l-1-2z" class="D"></path><path d="M423 115h29 0c-2 1-6 0-8 0v1h8l3 1c0 1 0 5-1 6-2-1-5-1-7-1h-12v1c-3 1-8-1-11 0h-13-14v-1h1c-1 0-1-1-1-1v-4h9v-1h-4l7-1h14z"></path><path d="M398 122h15 3c-1 1-3 0-5 1h0-14v-1h1z" class="H"></path><path d="M413 122c7-1 15 0 22 0v1c-3 1-8-1-11 0h-13 0c2-1 4 0 5-1h-3z" class="F"></path><path d="M423 115h29 0c-2 1-6 0-8 0v1h8l-30 1h-10-6v-1h-4l7-1h14z" class="L"></path><path d="M395 73l20 1c3 0 5 0 8 1l7 1c2 0 5 0 8 1h2l1 1h1c2 0 3 1 5 1 2 1 3 1 4 1h1l3 1v14c-8-3-17-6-25-8l-27-10c-2-1-6-2-8-4zm-13 0h1 3 5l1 1h1l62 22v8c-1 1-1 1-1 2h-35-22v1l-1 1h0v1c-1 2 0 5-1 7-1 1-2 0-4 1h-1v16c0 1 0 3-1 4-1-2 1-4 0-6l-1-24-4-1h0-2v-1c1-2 0-5 0-8V73z"></path><path d="M455 104c-1 1-1 1-1 2h-35c-1-1-3-1-4-1h-10-4l38-1h10 6z" class="L"></path><path d="M386 73h5l1 1h-2c-1 2 0 6-1 8v23c4-1 8-1 12 0h4 10c1 0 3 0 4 1h-22v1l-1 1h0v1c-1 2 0 5-1 7-1 1-2 0-4 1h-1v16c0 1 0 3-1 4-1-2 1-4 0-6l-1-24v-1s0-1 1-2l-1-1V82c0-3 1-6 0-8-1-1-1-1-2-1z" class="E"></path><path d="M391 117l-1-1c-1-1-1-8-1-10 3 0 5 0 7 2v1c-1 2 0 5-1 7-1 1-2 0-4 1zm-9-44h1 3c1 0 1 0 2 1 1 2 0 5 0 8v21l1 1c-1 1-1 2-1 2v1l-4-1h0-2v-1c1-2 0-5 0-8V73z"></path><path d="M382 73h1v32h5v-2l1 1c-1 1-1 2-1 2v1l-4-1h0-2v-1c1-2 0-5 0-8V73z" class="B"></path><path d="M382 106h2 0l4 1 1 24c1 2-1 4 0 6 1-1 1-3 1-4v-16h1c2-1 3 0 4-1 1-2 0-5 1-7v-1h0l1-1v3h0v5l5 1h4v1h-9v4s0 1 1 1h-1v1h14 13c3-1 8 1 11 0v-1h12c2 0 5 0 7 1h1 0v4 5l1 16h-1v2h0c-1 2-1 4 0 6 0 1 0 4-1 5h-1 0c-3 0-7-1-10 1h0-10 0c-1 0-4-1-5-1v-1c-1 0-1 0-2 1-1-1-2-2-3-2l-14-3h-4-1l-1-1c-1 0-3 0-4 1l-1-1c-1 0-2-1-2-1-1 0-1 1-1 1h-4s0 1-1 1v-1h1v-1h-2c-2 0-4 0-6-1h-1s0 1-1 1h-7-11s-1-1-2-1l21-1h1v-14h-1c-1-1 0-9 0-11v-9 1h0l1-2-2-1 1-1c0-2 1-6 0-9z" class="F"></path><path d="M390 138h5v16l-5-1v-15zm-7 0h5l1 15c-2 0-5 0-6-1v-14zm7-21l5 1 1 19h-6v-4-16zm-6-11l4 1 1 24-1 6h-5v-21c0-3 0-7 1-10zm17 25l45 1h8l1 1h0v-1l1 16h-1v-1h0c-1-1-1-3-1-5l-1-1h-1v-1c-5-1-12 1-17 0 1-1 3 0 4-1h-2l-40-2v-3h1v-1h-1v-2h4z"></path><path d="M443 134h10v2l-15-1c2 0 5 1 7 0l-2-1z" class="L"></path><path d="M454 132l1 1h0v-1l1 16h-1v-1h0c-1-1-1-3-1-5l-1-1h-1v-1c-5-1-12 1-17 0 1-1 3 0 4-1h-2 11c2 0 4 0 6-1 0-1 0-1-1-2v-2l1-2z" class="B"></path><path d="M398 133l45 1 2 1c-2 1-5 0-7 0h-26-11c-1-1-2-1-3-1v-1z" class="I"></path><path d="M401 131l45 1h8l-1 2h-10l-45-1h-1v-2h4z"></path><path d="M435 122h12c2 0 5 0 7 1h1 0v4 5 1h0l-1-1h-8l-45-1-1-1h-3v-1s0-1 1-1h6 17 13 3c-1 0-5 0-6-1h-34v-3-1h14 13c3-1 8 1 11 0v-1z" class="I"></path><path d="M397 130v-1s0-1 1-1h6 17 13c4 1 9 0 13 0 2 0 5 0 7 1v2h-3c-5 0-10-1-16-1h-38zm0-7h14 13 0c4 1 8 0 11 1h19v3h0-23-34v-3-1zm0 16c3-1 6 0 9 0h16c4 0 9 1 13 1 5 1 12-1 17 0v1h1l1 1c0 2 0 4 1 5h0v1 2h0c-1 2-1 4 0 6 0 1 0 4-1 5h-1 0c-3 0-7-1-10 1h0-10 0c-1 0-4-1-5-1v-1c-1 0-1 0-2 1-1-1-2-2-3-2l-14-3h-4-1l-1-2h-6v-6-1-7-1z"></path><path d="M455 147h0v1 2h0l-11 2c-1 0-3 1-5 1s-3 0-5-1h0c5-1 18-2 21-5z" class="F"></path><path d="M397 147h0 4l8 1c15-1 29-2 43-7h1l-8 4c-2 1-6 1-9 2-4 1-8 1-13 1-6 1-13 2-20 1-1 0-4 1-5 0-1 0-1-1-1-1v-1z" class="D"></path><path d="M439 153c2 0 4-1 5-1l11-2c-1 2-1 4 0 6 0 1 0 4-1 5h-1 0c-3 0-7-1-10 1h0-10 0c-1 0-4-1-5-1v-1c-1 0-1 0-2 1-1-1-2-2-3-2l-14-3h-4-1l-1-2 31-2h0c2 1 3 1 5 1z"></path><path d="M423 159l17 1c4 0 9 0 13 1h0c-3 0-7-1-10 1h0-10 0c-1 0-4-1-5-1v-1c-1 0-1 0-2 1-1-1-2-2-3-2zm-20-5l31-2h0c2 1 3 1 5 1-4 1-8 1-11 1-8 0-16 0-23 1l4 1h-4-1l-1-2z" class="D"></path><path d="M397 139c3-1 6 0 9 0h16c4 0 9 1 13 1 5 1 12-1 17 0v1c-14 5-28 6-43 7l-8-1h-4 0v-7-1z"></path><path d="M397 140v-1h0c1 2 4 3 5 4 2 1 4 1 7 1 2 0 5-1 7 1l1-1h1c10 0 19-3 30-2-4 0-7 0-10 1-8 1-16 2-24 2-4 1-9 1-13-1l-4-4z" class="I"></path><path d="M527 121l1-2c0-2 0-3 1-4 7 5 14 10 20 15 11 9 20 19 30 30 2 0 3 1 4 2v3h0c1 0 2 1 3 2v1c0 1 0 1 1 2v1h0c1 0 1 1 1 1 2 1 3 1 4 2-1 1 0 1-1 2h0c2 0 2 0 2 1 1 2 2 3 3 4 0 0-1 0-1 1l3 4h0v2h1c1 1 1 3 2 4 0 0 0 1 1 2l1 1c-1 0-1 1-1 1-2 1-6 0-8 0h-22-12c-3-1-7 0-10 0h-21 0c-1 2 0 4 0 6v11l-1-1v1h-1v-1c-1-3-1-7-2-9l-30 1 2 5c0 1 1 2 1 3-2-1-3-6-4-8h-4l-2-2c-2-2-4-6-7-8h-1c1-4 2-9 3-13 2-2 3-6 5-9 1-2 2-4 4-6 1-2 3-3 5-5l12 1 2-1c-2-1-4 0-6 0-2-1-4-1-6-1h-1-1l1-1c-1-1-3-1-5-1h-12 0l-2-18-4-17c1-1 4 0 5 0l16-1c1 1 1 3 2 4h0c0-1-1-2-1-3v-1h21c2 0 5 0 8-1v-1h1v1z" class="G"></path><path d="M529 196v-1-1h73l1 1c-1 0-1 1-1 1-2 1-6 0-8 0h-22-12c-3-1-7 0-10 0h-21zm59-24c2 1 3 1 4 2-1 1 0 1-1 2h0c2 0 2 0 2 1 1 2 2 3 3 4 0 0-1 0-1 1l-2-2-37 1v-1h0-12-3-8-4c0-1-1-2 0-3h19v-1h16 5-14v-1h11 25l-3-3z"></path><path d="M588 172c2 1 3 1 4 2-1 1 0 1-1 2h0c2 0 2 0 2 1 1 2 2 3 3 4 0 0-1 0-1 1l-2-2-37 1v-1h0-12l38-1c3-1 7 0 10-1v-1h-1c-1-1-39 0-43 0v-1h16 5-14v-1h11 25l-3-3z" class="B"></path><path d="M550 189h3 8l36-1h2c1 1 1 3 2 4h-1-4-8l-59 1h0v-4h21zm-52-63c0-1-1-2-1-3v-1h21c2 0 5 0 8-1v22c-2 0-5-1-7-2s-4-2-5-4l-10-7c-2-2-4-2-6-4z"></path><path d="M556 181l37-1 2 2 3 4h0v2h1-2l-36 1h-8-3c0-1-1-1-1-1-1-1-13 0-16 0h-4v-7h27z"></path><path d="M598 186h0v2h1-2-6-13c-3 0-6 1-9-1h28l1-1z" class="E"></path><path d="M533 188l36-1c3 2 6 1 9 1h13 6l-36 1h-8-3c0-1-1-1-1-1-1-1-13 0-16 0z" class="D"></path><path d="M529 169v-1c0-1-1-2 0-3h54 0c1 0 2 1 3 2v1c0 1 0 1 1 2v1h0c1 0 1 1 1 1l3 3h-25-11c-3 0-6 1-8 1h-19c1-2 0-4 1-6v-1z"></path><path d="M583 165c1 0 2 1 3 2v1c0 1 0 1 1 2v1h0-9l-25-1c4 0 10-1 14 0l2-1h-6 0 13 10c-1-1-2-3-3-4z" class="H"></path><path d="M563 169h13 1 3c-4 1-9 2-13 1l2-1h-6 0z" class="J"></path><path d="M529 169h34 0 6l-2 1c-4-1-10 0-14 0h-24v-1z" class="C"></path><path d="M529 169v-1c0-1-1-2 0-3h54 0c1 1 2 3 3 4h-10-13-34zm-50-29l-4-17c1-1 4 0 5 0l16-1c1 1 1 3 2 4 2 5 2 11 6 15l-4-12c5 2 9 6 14 10 2 2 3 3 5 4s4 1 6 1c1 1 1 0 1 1v3l-1 1c-5 1-9 2-13 3-3 1-5 2-7 3s-5 2-7 4c-1-1-3-1-5-1h-12 0l-2-18zm48-19l1-2c0-2 0-3 1-4 7 5 14 10 20 15 11 9 20 19 30 30l2 3-32 1h-21c-1-14-1-29-1-43z"></path><path d="M498 159c2-2 5-3 7-4s4-2 7-3c4-1 8-2 13-3v1h1l1 14v1l1 45c0 1 0 1-1 2-1-3-1-7-2-9l-30 1 2 5c0 1 1 2 1 3-2-1-3-6-4-8h-4l-2-2c-2-2-4-6-7-8h-1c1-4 2-9 3-13 2-2 3-6 5-9 1-2 2-4 4-6 1-2 3-3 5-5l12 1 2-1c-2-1-4 0-6 0-2-1-4-1-6-1h-1-1l1-1z"></path><path d="M498 159c2-2 5-3 7-4s4-2 7-3c4-1 8-2 13-3v1h1l1 14v1l1 45c0 1 0 1-1 2-1-3-1-7-2-9l-30 1 2 5c0 1 1 2 1 3-2-1-3-6-4-8h-4l-2-2h6c-2-3-3-6-5-9-2-2-5-4-6-7v-1c5 6 9 11 12 17h29l-13-40h-2l2-1c-2-1-4 0-6 0-2-1-4-1-6-1h-1-1l1-1z" class="F"></path><path d="M499 160c3-2 7-5 10-5l3 6h-1 0c-2-1-4 0-6 0-2-1-4-1-6-1zm26-10h1l1 14-13-2-5-8c5-2 11-3 16-4zm3 60c-1-1-1-2-1-3l-3-9-11-35c5 1 9 2 14 2l1 45z"></path><path d="M389 389v1h2 0v1c0 1 1 2 1 2h2c1 1 2 2 4 3h1l15 14c0 1 0 1-1 2h0l4 3v23c0-3 1-6 0-8h1v-1c-1-1 0-3 0-4v-9l14 12c4 3 8 7 12 11 1 0 1 1 2 1 2 2 4 4 6 5 1 1 2 2 2 3v12c-3 0-6-1-9 0 3 1 7-1 9 2l-1 25c0 1-2 1-3 1h3v1h-1l2 1v5c1 4 0 9 0 14h0v7h-36-2c0-1-1-1-1-1l-6-6-2-2-1-1c-3-3-6-5-9-8 0 0 0-1-1-1l-3-3-5-5-1-2-20-18h0v-1h-1c0 1 0 0-1 1-6-6-14-12-18-19l-2-1h0c-2 0-2-1-4-1v1c0 3 0 6-1 9-1 1 0 4-1 6h0v-7c1-16 6-32 12-48l1 2c1 0 1 0 1-1l3-9c7-1 14 0 21 0 3 0 7 0 11-1v-1h0c1-4 1-7 1-10z" class="B"></path><path d="M407 507h8l1 7-1 1-6-6-2-2zm-52-90h12 15c1 0 5-1 6 0v2l-1 1c-4 0-31 0-33-1v-2h1zm12 52c1-1 3 0 4 0h7 10l-1 13c0 1 1 4 0 5l-20-18zm-14-48h25c3 0 7-1 10 0v2 3h-18c-3 0-6 0-9 1-1-1-5 0-6-1-1 0-1-1-2-2l1-2-1-1z"></path><path d="M388 421v2 3c0-1 0-2-1-2h-34l1-2h23c3 0 7 1 11 0v-1z" class="I"></path><path d="M353 421h25c3 0 7-1 10 0v1c-4 1-8 0-11 0h-23l-1-1zm-8 28l-4-4 3-9c1-8 4-16 7-23 0 0 1-2 2-3v10l-1 19v16c-2-2-3-4-5-5l-2-1zm71 67l1-9c4 1 9 0 14 1h17c1 1 5 0 6 1v7h-36-2zm-28-27h5 4 0 4c5 0 10 1 15 0v17h-10c-3-3-6-5-9-8 0 0 0-1-1-1l-3-3-5-5z"></path><path d="M388 400c1 1 0 3 0 4v11h-34c0-1 0-3-1-5l3-9c7-1 14 0 21 0 3 0 7 0 11-1zm8 74v14l-7-1v-27c1-1 2 0 3-1-1-1-2 0-3-2l1-66h1c0 1 1 2 1 2 1 1 3 2 3 3v2c1 5 1 9 1 13v46c-1 1-1 0-2 0l-1 2c1 1 2 1 3 2v13zm31 15s0-1 1-1h6 16 3v1h-1l2 1v5 12l-37-1v-17h10 0z"></path><path d="M427 489s0-1 1-1h6 16 3v1h-1-25 0z" class="G"></path><path d="M353 420h0v1l1 1-1 2c1 1 1 2 2 2 1 1 5 0 6 1 8 1 17 0 25 0h0l2 1v3 8 29h-18c-1 0-3 0-4-1-1 0-2-2-3-2l-8-8s-1-1-2-1v-3l1-8v-3c-1-3 0-6-1-9v-1l-1 7 1-19z"></path><defs><linearGradient id="E" x1="365.606" y1="429.41" x2="366.195" y2="425.236" xlink:href="#B"><stop offset="0" stop-color="#cdb8aa"></stop><stop offset="1" stop-color="#e6dac1"></stop></linearGradient></defs><path fill="url(#E)" d="M353 420h0v1l1 1-1 2c1 1 1 2 2 2 1 1 5 0 6 1 8 1 17 0 25 0h0-1l-31 2v13c-1-3 0-6-1-9v-1l-1 7 1-19z"></path><path d="M392 393h2c1 1 2 2 4 3h1l15 14c0 1 0 1-1 2h0l4 3v23c0-3 1-6 0-8h1v-1c-1-1 0-3 0-4v-9l14 12c4 3 8 7 12 11 1 0 1 1 2 1 2 2 4 4 6 5 1 1 2 2 2 3v12c-3 0-6-1-9 0 3 1 7-1 9 2l-1 25c0 1-2 1-3 1h-16-6c-1 0-1 1-1 1-3-2-7 0-10-2v-2h-1v3h-19v-14h-1v-13c-1-1-2-1-3-2l1-2c1 0 1 1 2 0v-46c0-4 0-8-1-13v-2c0-1-2-2-3-3z"></path><path d="M392 393h2c1 1 2 2 4 3h1l15 14c0 1 0 1-1 2h0l-16-15h0c1 7 0 14 0 20v41c6 1 13 1 19 0l1-1v1h1c1 1 2 1 3 1 2 0 14 0 15 1h-5l-14-1v10c0 3 0 8-1 10-1-3 0-7 0-10v-9c-6-1-13-1-19-1v10 5h-1v-13c-1-1-2-1-3-2l1-2c1 0 1 1 2 0v-46c0-4 0-8-1-13v-2c0-1-2-2-3-3z" class="F"></path><path d="M452 445v-1h1l1 1c1 3 9 10 11 11l3 3c1 0 1 1 2 2s3 2 4 3c4 3 6 6 9 9h2c2 2 4 5 6 6l3 3c2 1 4 4 6 5 0 1 1 1 1 1 2 1 3 2 4 3 0 1 1 1 1 2 4 2 7 5 10 8s7 6 10 9c2 3 4 5 6 6s3 3 4 5c3 2 7 6 10 8 2 0 3 1 4 2s2 1 2 3c3 2 6 5 8 7 1 0 1 0 2 1v1c1 1 3 3 5 4 5 5 11 9 16 15h1c2 1 4 4 6 5l12 13h1l-1 1v1 1c-1 1-4 1-6 1l-13 1c-11 0-23-1-34 1 1 0 2 0 3 1-7 0-16 1-23 0 0 3-1 14 0 16v1c-1 6 0 13 0 19l-1-1-12-11c-2-1-3-2-4-4l-18-17-1-1c-1-3-4-5-6-7-10-10-21-20-32-29 0-1 0-1-1-2l-9-7h0l-1-2c0-1-17-16-20-18h-1c-1 0-1 0-1-1-2-1-3-3-5-5s-7-5-8-9l6 6s1 0 1 1h2 36v-7h0c0-5 1-10 0-14v-5l-2-1h1v-1h-3c1 0 3 0 3-1l1-25c-2-3-6-1-9-2 3-1 6 0 9 0v-12c0-1-1-2-2-3z" class="B"></path><path d="M560 541v1l-11-1c0-3-1-7 0-10l3 3c3 2 6 5 8 7zm-11 45h-12c-3 0-6 1-8 0v-2h4 10 1c-5-1-10 0-15-1v-2c4 0 9 1 13 1l27-1h21 12v1 1c-1 1-4 1-6 1l-13 1c-11 0-23-1-34 1zm-36-81h5c3 1 9 7 10 9l-1 1c-4 1-9 1-13 0h-13-15-1c8-6 18-9 28-10zm33 24c1 0 1 1 1 1 1 1 1 10 1 11h-19v-14c0-4-1-8 0-11h0c3 1 5 3 7 4v1c3 2 7 6 10 8zm-77-50l1-16 28 25c-1 1-3 0-5 0h-10-13l-1-9zm115 83c2 1 4 4 6 5l12 13h-10-18c-15 0-30 1-45 0 0-3-1-8 0-10h7l14 1c4 0 8 0 11-1 4 0 7-1 11-3 4-1 7-3 12-5z"></path><path d="M583 562c-2 0-3 1-5 2-4 1-8 3-12 4-12 3-25 2-37 1v-27l33 1c1 1 3 3 5 4 5 5 11 9 16 15zm-99-46l43 1v24c-1 1-5 0-7 0l-13 1h-43l3-6c3-7 10-17 17-20zm-3 0v1c-7 5-12 10-16 18-1 3-1 6-3 8h0 21v20 10c0 1-1 3 0 4h1v-34h18l-1 19c-1 9-2 19-8 27-1-3-4-5-6-7-10-10-21-20-32-29 1-4 0-7 1-10h4v-1h-4v-25h16c3 0 6 0 8-1h1zm13 74v-1c8-8 8-24 9-35v-11l24-1v15c0 2 1 5 0 8v3l1 18c0 12-1 24 0 36l-12-11c-2-1-3-2-4-4l-18-17z"></path><path d="M512 575h1v1h1c0 2 0 6-1 8h-1c-1-3 0-6 0-9z" class="B"></path><path d="M512 575l2-5c-1-2-3-3-3-5h1c2 1 3 4 4 7-1 1-2 2-2 4h-1v-1h-1z" class="F"></path><path d="M512 584h1v1c1 8-1 17 3 26-2-1-3-2-4-4v-5l-1-11c0-2 0-5 1-7z" class="E"></path><path d="M452 445v-1h1l1 1c1 3 9 10 11 11l3 3c1 0 1 1 2 2h-1v1c1 1 0 2 0 3v-1 17-2l1 9h13 10c2 0 4 1 5 0 1 0 1 1 1 1s1 0 2 1c1 0 2 2 3 2 4 4 9 7 12 11-5 1-10 1-15 3-4 1-8 3-11 5-3 1-5 3-7 4-1 1-2 0-3 0h0l1 1h-1c-2 1-5 1-8 1h-16v25h4v1h-4c-1 3 0 6-1 10 0-1 0-1-1-2l-9-7h0l-1-2c0-1-17-16-20-18h-1c-1 0-1 0-1-1-2-1-3-3-5-5s-7-5-8-9l6 6s1 0 1 1h2 36v-7h0c0-5 1-10 0-14v-5l-2-1h1v-1h-3c1 0 3 0 3-1l1-25c-2-3-6-1-9-2 3-1 6 0 9 0v-12c0-1-1-2-2-3z" class="C"></path><path d="M445 544l3-1c2 0 4 0 6 1 0 2 1 5 0 7l-9-7zm11-95c1 2 2 3 4 4l8 8-13-1 1-11zm13 32l-1 7h-13c0-9-1-18 0-27l9 1h5v2 17zm-45 43l-7-7h37v14 6h0c0 1 1 4-1 5s-6 0-9 0c0-1-17-16-20-18z"></path><path d="M498 488c1 0 1 1 1 1s1 0 2 1c1 0 2 2 3 2 4 4 9 7 12 11-5 1-10 1-15 3-4 1-8 3-11 5-3 1-5 3-7 4-1 1-2 0-3 0h0c-3 1-7 1-10 1l-2-1 1-1-1-1c1-2 1-7 1-9h-1v4c0 3 0 5-2 8h-10c-1-3-1-6-1-8v-19h14c0 3 0 5-1 8 0 1 0 4 1 5h0v-12c1-1 3-1 4-1h10v-1h10c2 0 4 1 5 0z"></path><path d="M498 488c1 0 1 1 1 1-2 1-6 1-8 1-7-1-15-1-22 0 1-1 3-1 4-1h10v-1h10c2 0 4 1 5 0z" class="L"></path><path d="M528 363h0c1 0 1-1 1-2v1 8h70c-1 1-2 0-4 0-3 0-7 0-10 1h16v21c0 2 0 7 1 8v-9c0-7-1-14 0-20h26l-3 43v2l-2 10v1c0 3-1 5-1 7h-19-1l-1 6c-4 0-9-1-14 0h-18-4l1 1h-37v3h-1v5 39h-7s-2-2-2-3l-9-7-7-7s-2-1-2-2l-5-4-24-21-2 1-2-2c0-1-1-1-1-2-3-1-5-3-6-5l-6-6-5-4c-2-2-4-5-7-7h0c-2-1-4-3-5-5-1 0-2-1-2-1v-2s-1-1-2-1c-1-2-3-3-4-5h0 5c4 1 9 1 13 0h1c1-1 5-2 6-2l1 1h1 1c1 0 2 0 3-1 12-2 24-7 34-14 1-2 4-3 5-5v-1c0-1 1-1 2-1 3-3 7-7 9-10l1-1 15-1 1-7z" class="H"></path><path d="M449 405l7-1v25c-5-4-10-9-15-14-2-1-3-3-5-4 0 0-1-1-2-1-1-2-3-3-4-5h0 5c4 1 9 1 13 0h1zm52 15h26l1 19-1 1h-9-17v-20zm68 20c-6-1-13 0-19-1 9-7 21-11 32-13 4-1 9-1 14-1 1 0 3 0 5 1l1 6v2l-1 6c-4 0-9-1-14 0h-18zm-112-22c4 1 9 1 13 1l30 1c0 6 0 13-1 20h-26-6c-1-1-2-2-3-2l-5-5c0-1-2-2-2-3v-4-8z"></path><path d="M500 384v-1c0-1 1-1 2-1l-2 27h-1l1 10-21-1c-3 0-7 1-10 0-4-1-8 0-12-1v-4-9h1c1 0 2 0 3-1 12-2 24-7 34-14 1-2 4-3 5-5z"></path><path d="M472 407c-5 1-10 1-14 1v-1-1h12c-2 1-3 1-5 1h3 1 3z" class="B"></path><path d="M470 406c4-1 8-1 12 0l-1 1h-9-3-1-3c2 0 3 0 5-1z" class="H"></path><path d="M500 384v-1c0-1 1-1 2-1l-2 27h-1v-1c-2-1-4-1-6-1h-12l1-1h0c1-1 4 0 6 0 3 0 7-1 11 0h0l1-8v-10c0-1 1-3 0-4z" class="C"></path><path d="M511 372l17-1c0 3-1 6 0 8v1l-1 39h-26c0-3 0-7-1-10l2-27c3-3 7-7 9-10zm-39 72l-4-3h0 14 17v25h0c1-1 1-4 1-6 0-6 0-13 1-19h27v8 39h-7s-2-2-2-3l-9-7-7-7s-2-1-2-2l-5-4-24-21z"></path><path d="M528 363h0c1 0 1-1 1-2v1 8h70c-1 1-2 0-4 0-3 0-7 0-10 1h16v21c0 2 0 7 1 8v-9c0-7-1-14 0-20h26l-3 43v2l-2 10v1c0 3-1 5-1 7h-19-1v-2-1h0c0-1 1-3 0-4v-1h0c1-5 0-9 0-13 0-3 1-9 0-11-1 1-1 8-1 10-2 0-5 1-8 1h-20c-1 0-4 0-5 1 1 1 5 1 7 1l26-1v11c-3-1-7-1-10-1-10 1-21 3-30 8l-8 4c-2 1-4 3-6 3-2 1-4 0-6 0h-12v-1-8-2c2-2 5-3 7-4 4-2 8-6 11-10 2-2 8-7 8-10h-1c-3 4-6 8-10 12-2 1-3 2-4 4-4 3-7 4-11 6l-1-33v-5c-1-1 0-7 0-9-1-2 0-5 0-8l-17 1 1-1 15-1 1-7z"></path><path d="M602 432v-1h0c0-1 1-3 0-4v-1h0c2 1 9 0 12 0h9v1c0 3-1 5-1 7h-19-1v-2z"></path><path d="M602 432v-1h0c0-1 1-3 0-4v-1h0c2 1 9 0 12 0h9v1l-20 1v6h-1v-2z" class="D"></path><path d="M528 363h0c1 0 1-1 1-2v1 8h70c-1 1-2 0-4 0-3 0-7 0-10 1h-15c-2 6-11 30-15 32h0l5-10c3-5 4-10 6-15 1-2 2-5 3-7h-40l-1 22v-5c-1-1 0-7 0-9-1-2 0-5 0-8l-17 1 1-1 15-1 1-7z" class="G"></path><path d="M570 247l13 1c2 0 4 1 6 0h0 1c1 1 2 1 3 1h-1c1 1 1 1 2 1h2c2 0 4 0 6 1l1-1h8 0 2 2 7v1 1c1 2 1 3 1 4l3 22c0 2 0 4 1 6h1l-1 1v1l1 15v7c-1 0-1 1 0 1v6 11 1 16 2 24 2h-26c-1 6 0 13 0 20v9c-1-1-1-6-1-8v-21h-16c3-1 7-1 10-1 2 0 3 1 4 0h-70v-8-1c0 1 0 2-1 2h0l-1 7-15 1c3-5 5-12 6-17 1-1 0-2 1-4v-2-3c0-1 0-2 1-3 1-5 0-12 0-17l1-1h2 0l-1-1h-2v-4c1-5 1-12 1-18h7 2l2 9 1-1c-1-2-2-5-2-8-1-3-1-6-1-9 0-5 0-10 2-15 1-1 1-1 1-2-1 1-2 3-3 5v-2-12-15l33-1h2l-2-1h9l-2-1h2c0-1-1-1-2-1z"></path><defs><linearGradient id="F" x1="578.348" y1="251.295" x2="588.696" y2="245.877" xlink:href="#B"><stop offset="0" stop-color="#b8a37e"></stop><stop offset="1" stop-color="#e7cd9d"></stop></linearGradient></defs><path fill="url(#F)" d="M570 247l13 1c2 0 4 1 6 0h0 1c1 1 2 1 3 1h-1c1 1 1 1 2 1-7 1-14-1-21 1-5 1-10 3-14 5-2 0-4 2-5 1v-1c1-1 15-5 17-5l-8-1h2l-2-1h9l-2-1h2c0-1-1-1-2-1z"></path><path d="M611 250h0 2l-7 13c-1 1-3 3-3 4v4 8 1h1c1 0 1 0 1 1 0 0-2 2-2 3v4c1 7-1 14 0 20v2 4h-1l-1-43c-1 0-3 0-4 1l-9 3c-8 3-17 7-23 13-1 2-3 3-4 5s-2 3-4 5l1-2c5-10 15-16 24-20 3-2 5-3 8-4 2-1 5-1 8-2 1 0 2-1 4-1v-18l1-1h8z" class="H"></path><path d="M611 250v1l-5 9c0 1-1 4-3 5v-15h8z"></path><path d="M613 250h2 7v1 1c1 2 1 3 1 4l3 22c0 2 0 4 1 6h1l-1 1v1l1 15v7c-1 0-1 1 0 1-3 0-7 0-10 1h-15v-2c-1-6 1-13 0-20v-4c0-1 2-3 2-3 0-1 0-1-1-1h-1v-1-8-4c0-1 2-3 3-4l7-13z" class="E"></path><path d="M628 308c-2 0-3 0-4-1-2-7-1-15-2-23 1 1 3 1 5 2l1 15v7zm-19-26l5 1 1 17c0 2 1 6 0 8h-3c-1-1-1-1-1-2-1-3-1-7-1-10l-1-14zm6 1l6 1 2 24h-6l-2-25zm-10-2c1 0 2 0 3 1l1 26c-2 0-4 1-6 0-1-6 1-13 0-20v-4c0-1 2-3 2-3zm8-31h2 7v1c-2 2-3 4-4 6l-7 12c-2 4-3 8-7 11h0-1v-1-8-4c0-1 2-3 3-4l7-13zm9 2c1 2 1 3 1 4l3 22c0 2 0 4 1 6h0c-3 0-5-1-7-1l-14-3c5-6 8-14 12-21 1-2 2-5 4-7z"></path><path d="M528 301h2l2 9 1-1 2 13 13-1h0c-1 1-2 1-4 1l-9 1 3 7h-1l-3-7-4 1v19l11 1-3-13h0l4 13h6v-9c0-1 0-3 1-3v4c0 2 0 4-1 5l1 2c5 1 10 1 15 1h12v-1-2c1-3-1-4-1-7l1 1v-1c1 3 1 7 1 10 8 0 17 1 24-1l1-29h1v-4h15c3-1 7-1 10-1v6 11 1 16 2 24 2h-26c-1 6 0 13 0 20v9c-1-1-1-6-1-8v-21h-16c3-1 7-1 10-1 2 0 3 1 4 0h-70v-8-1c0 1 0 2-1 2h0l-1 7-15 1c3-5 5-12 6-17 1-1 0-2 1-4v-2-3c0-1 0-2 1-3 1-5 0-12 0-17l1-1h2 0l-1-1h-2v-4c1-5 1-12 1-18h7z" class="F"></path><path d="M530 301l2 9 3 12-5 1v-16c0-2-1-4 0-6zm-10 24c3-1 6 0 9 0l-1 19h-8v-2c1-5 0-12 0-17zm0-6c1-5 1-12 1-18h7l1 22h-7-2v-4zm-1 29c0-1 1-2 1-3h8v18l-1 7-15 1c3-5 5-12 6-17 1-1 0-2 1-4v-2zm84-38h15c3-1 7-1 10-1v16h-25v-11-4zm0 17l25-1v17c-3 1-6 1-8 1l-17-1v-16zm25 18v24c-3 1-6 0-9 0h-16v-16c0-3-1-6 0-8 3-1 6 0 8 0h17zm-99 17v-1c1-5 1-11 1-16h11c1 3 5 21 7 22v-4h0c-3-3-3-7-4-11l-2-7h6c0 4-1 10 0 15l1-1h-1v-7-7h53v24c-1 0-1 1-2 1h-70v-8z"></path><path d="M150 248h2 24l1 1v1 20c0 2 0 5 1 6h0v1h24 8c2 0 3-1 4 0v1 1 10l-1 1c-1 0-1 0-1 1 0 0 1 0 1 1 1 0 1 49 0 51l1 1v27h-35c1 1 4 0 6 0h11s1 0 1 1h-20v18c-1 0-1-1-1-1h-1-34v-9h0l-1 9h-30c-1-1-1-15 0-17 2-1 4 0 6 0 0-1-1-1-2-1h-5c0-2 0-6 1-8 0-1-1-1-1-2l1-1v-4-12-4c-1 0 0 0 0-1s-1-2-1-3l1-1-1-1v-4h1l-1-1v-8l2-5v-4-12c0-9 2-19 1-29v-2l4-20v-1c7 1 14 0 20 0h14z" class="G"></path><path d="M178 277h24 8c2 0 3-1 4 0v1c-4 1-10 1-14 1h-16-7v-1l1-1zm-32-27c2-1 3-1 4-1 0 0 0 1 1 1v4 16l-5-1v-12-7zm0 21h5v29l-1 21v11c0 3 0 5-1 8-1 1-1 1-2 1v-1-21l-1-48zm68 18c-1 1-3 1-4 1l-9-1-8 1-16-1v-8l37-2v10zm-62-40h24v22c-8 0-17 0-24-1v-21zm-36 0h18 10c1 7 1 14 1 21h-14c-6 0-12 1-18 0l-1-1 4-20zm-6 95h31v27h-27-5c0-2 0-6 1-8 0-1-1-1-1-2l1-1v-4-12zm32-1l34 1v27h-13-21v-28zm37 28c-1 0-2 0-2-1l1-26h36v27h-35zm-69 1h22c3 0 7 0 9 1v4l1-5h34v11c0 2 0 4-1 5v1h-34v-9h0l-1 9h-30c-1-1-1-15 0-17zm2-101h1c3 1 7 0 10 0 2 0 3 0 5 1v4 11 2 1l-1 52-16 1v-18-9-4-12c0-9 2-19 1-29z"></path><path d="M128 290v-1c-2 0-8 3-9 3-5 3-6 6-7 10-1-2 0-6 0-9 5-1 11-4 16-6v2 1z" class="D"></path><path d="M129 270h4l12 1v66c0 2 0 4-1 5-5 1-11 1-15 0v-45-23-4zm23 1l24 1v71l-25-1v-6l1-17v-48zm61 72h-36v-53l23 1h11 1s1 0 1 1c1 0 1 49 0 51z"></path><path d="M177 390v-18h20 17v24 1s0 1 1 2c0 2 0 6-1 8v2l2 15c1 9 3 17 6 26 0 2 1 4 2 6h1 0l-1 1v1l6 13c1 2 3 5 4 7v3h1c1 1 2 3 3 5 5 8 10 15 16 22 2 2 3 4 6 6-2 0-3 0-5 1 4 0 6 0 8 2h1l23 18v-4c-1-1-1-2-1-3l1-1v-1c1 5 2 11 7 14 1 0 2 1 2 1l3 1h-2-2v5l1 6-1 19h0l-1-1v-4c-1-1-2-1-4-1-1 0-6 1-8 0-1-1 0-1-1 0-2 1-24-1-27-1v13 6 3c-1 0-3 0-4-1h-1c0 1-1 1-2 1l-11 1h0c-1 2-1 6-1 8v19l-1-1-9-7h-1c-11-8-23-16-33-24l-17-17c-8-10-16-19-23-30-5-6-8-14-12-20l-1-1v-2l-10-22c-2-4-4-8-5-12-2-4-3-8-4-12 0-3 0-5-2-7v-2c0-2-1-5-1-7-1-8-3-15-4-23-1-6-2-12-2-19v-1c-1-3-1-16 0-18v-1h30l1-9h0v9h34 1s0 1 1 1z" class="H"></path><path d="M235 540v-7h1c3 2 6 2 9 5l1 2c-2 1-9 0-11 0zm2-26l-2-1v-5c4 1 8 1 11 3h1c1 1 3 2 4 3h-14zm-108-99l-1-1v-5h23v6h-22zm97 99c2 0 6 0 8 1v16h-8v-17zm-74-105h23l1 7h-24v-7zm25-4c1 1 3 2 5 3 2 3 5 6 6 9 0 4-1 7-4 9-2 2-5 3-7 4v-25zm9 137h-6c-1 1-2 1-3 0v-4c8 1 54-2 57 0v3l-48 1zm34-52c3 0 11-1 14 0l-1 1 1 1v3 9 4 4l-1 1h-7c0-6-1-11-3-17l-3-6zm-43 42h9 17 19c3 0 8-1 12 1v3l-57 1v-5zm-57-123c2 0 4-1 6 0 1 2 0 7 1 9v27c0 3-1 6 0 8v5h-8v-5c1-7-1-42 1-44zm7-19h23c0 6 1 11 1 17l-24 1v-18zm25 0h24v18l-24-1v-17z"></path><path d="M111 390h2 5 2 6v18c-2 1-5-1-6 0v1c-2 2 0 37-1 44-1 1-1 1-1 2v1c-1 1-1 1-1 2 0-2-1-5-1-7-1-8-3-15-4-23-1-6-2-12-2-19v-1c-1-3-1-16 0-18h1z" class="E"></path><path d="M111 390l1 1v12 5h-2c-1-3-1-16 0-18h1zm2 0h5c1 5 0 13 0 18h-5v-18zm7 0h6v18h-6v-18zm-10 19h7l1 1c0 1 0 2-1 3v1c1 2 1 5 1 8 0 11-1 23 0 34-1 1-1 1-1 2 0-2-1-5-1-7-1-8-3-15-4-23-1-6-2-12-2-19zm106 105h8v17h-37-10v-16c5-1 10-1 14-1h25zm-39-124v-18h20 17v24c-4 1-8 0-12 0-8-1-17-1-25-1v-5zm0 99h41v1c5 6 7 16 6 23h-1l-46 1v-25zm-60-29c3-1 7-1 10-1v29l30 1h19v25c-5 1-11 1-16 1-8-1-15 0-22-2h0l-10-22c-2-4-4-8-5-12-2-4-3-8-4-12 0-3 0-5-2-7zm22 56c2-1 16 0 19 0l1 12v13c0 2-1 4 0 6h1l-1-31h17v49h33 1c-3-1-7-1-9-1h-24v-20c4-1 9 0 12-1h21v41 8 4c1-1 1-2 1-3v-9-36-5-1h5 6l2 65c-11-8-23-16-33-24l-17-17c-8-10-16-19-23-30-5-6-8-14-12-20z"></path><path d="M129 415h22c0 1 1 1 1 1h0 1l23 2v70h-13-6v1l-30-1v-29c-3 0-7 0-10 1v-2c0-1 0-1 1-2v-1c0-1 0-1 1-2v5h8v-5 2c0-1 0-2 1-2v-30c0-1-1-5 0-7l1-1z"></path><path d="M129 415h22c0 1 1 1 1 1h0c-1 4 0 9 0 13v30l23 1h0c-3 2-19 1-23 0v27h0-1v-27h-6l1 28h11v1l-30-1v-29c-3 0-7 0-10 1v-2c0-1 0-1 1-2v-1c0-1 0-1 1-2v5h8v-5 2c0-1 0-2 1-2v-30c0-1-1-5 0-7l1-1z" class="J"></path><path d="M145 419c0-1-1-2 0-3 2 0 4 0 6 1v24c0 6 1 12 0 18h-5l-1-25v-10-5zm-17 40l16 1v20c0 2 1 5 0 8l-16-1v-28z"></path><path d="M129 415h22c0 1 1 1 1 1l-1 1c-2-1-4-1-6-1-1 1 0 2 0 3-1 1-1 3-1 4v8 4 24h-12c-1 0-3 0-4-1v-5-30c0-1-1-5 0-7l1-1z"></path><path d="M129 415h22c0 1 1 1 1 1l-1 1c-2-1-4-1-6-1-1 1 0 2 0 3-1 1-1 3-1 4v8 4l-1-19h-5-10l1-1z" class="C"></path><path d="M182 440l-5-2v-6c3-1 7-3 9-6 2-2 4-6 3-9 0-5-5-9-9-11-1-1-2-1-3-2v-3-1c2 1 4 1 5 1h8l16 1c1 0 6 0 7-1h-1l-25-1c-2 0-7-1-9 0h-1v-3c0-1 0-1 1 0 12 0 24 1 35 0l1 4v8l2 15c1 9 3 17 6 26 0 2 1 4 2 6h1 0l-1 1v1l6 13c1 2 3 5 4 7v3 3 4h-11c-1 0-4 0-5 1-3 0-4-1-6-2 0 1-1 1-1 1-2 1-6 0-8 0h-26v-17c9 1 18 2 26 7 2 1 4 3 6 4h1c-9-8-22-12-33-12v-30l4 1 1-1z"></path><path d="M182 440h1c4 1 8 0 12 0s8 1 11 0c2-10 7-22 1-31-2-2-3-3-6-4-7 0-15 0-23-2h0c3-1 6 0 10 0l23 2h1c-1 1-5 1-6 1h0c4 6 5 12 4 19 0 5-2 10-2 15-1 5 0 10 0 16h16 1 0l-1 1v1c-1 1-6 25-7 29h0l-1-1 7-29h-15c0 7 1 15 0 22h0c-1-2-1-4-1-6v-16h-29-1c1-1 3-1 4-1 9-1 17 0 26-1l-1-13-11-1c-4 0-9 1-13 0h-1l1-1z" class="I"></path><path d="M182 440l-5-2v-6c3-1 7-3 9-6 2-2 4-6 3-9 0-5-5-9-9-11-1-1-2-1-3-2v-3-1c2 1 4 1 5 1h8l16 1c1 0 6 0 7-1h-1l-25-1c-2 0-7-1-9 0h-1v-3c0-1 0-1 1 0 12 0 24 1 35 0l1 4v8l2 15c1 9 3 17 6 26 0 2 1 4 2 6h-16c0-6-1-11 0-16 0-5 2-10 2-15 1-7 0-13-4-19h0c1 0 5 0 6-1h-1l-23-2c-4 0-7-1-10 0h0c8 2 16 2 23 2 3 1 4 2 6 4 6 9 1 21-1 31-3 1-7 0-11 0s-8 1-12 0h-1z"></path><path d="M235 481c1 1 2 3 3 5 5 8 10 15 16 22 2 2 3 4 6 6-2 0-3 0-5 1 4 0 6 0 8 2h1l23 18v-4c-1-1-1-2-1-3l1-1v-1c1 5 2 11 7 14 1 0 2 1 2 1l3 1h-2-2v5l1 6-1 19h0l-1-1v-4c-1-1-2-1-4-1-1 0-6 1-8 0-1-1 0-1-1 0-2 1-24-1-27-1v13 6 3c-1 0-3 0-4-1h-1c0 1-1 1-2 1l-11 1h0c-1 2-1 6-1 8v19l-1-1-9-7h-1l-2-65h-6-5v1 5 36 9c0 1 0 2-1 3v-4-8-41h-21-3v-1l48-1 1-1c2 0 9 1 11 0l-1-2h1c-3-4-7-4-11-6v-17h19c-2-1-5-4-8-4-2-3-7-3-11-4h0c0-7 1-13 0-19 0-2-1-6 0-7z" class="B"></path><path d="M250 586c-4-4-9-7-9-13 0-2 1-4 2-6 3-2 7-2 10-2l1 19v3c-1 0-3 0-4-1zm-14 2l-1-1v-16-29l19-1-1 23h-6c-2 1-4 2-6 4-1 2-1 5-1 8 1 4 5 8 9 10h0c0 1-1 1-2 1l-11 1zm-11 19l-2-65h11v41 23c0 2 1 6 0 8l-9-7zm62-81c1 5 2 11 7 14 1 0 2 1 2 1l3 1h-2-2v5l1 6-1 19h0l-1-1v-4c-1-1-2-1-4-1-1 0-6 1-8 0l1-1-29-1 1-23h28v-1h10c-2-2-4-3-6-5v-4c-1-1-1-2-1-3l1-1v-1z"></path><path d="M287 526c1 5 2 11 7 14 1 0 2 1 2 1l3 1h-2-2v5l1 6-1 19h0l-1-1v-4c-1-1-2-1-4-1-1 0-6 1-8 0l1-1h3c2-1 6 0 8-1 1-2 1-4 1-6-1-1-1-1-1-2l1-1c0-4-1-9-1-13-4-1-8 0-11-1v-1h10c-2-2-4-3-6-5v-4c-1-1-1-2-1-3l1-1v-1z" class="G"></path><path d="M283 565h3 7-1s-1 0-2 1c-1 0-6 1-8 0l1-1z" class="C"></path><path d="M235 481c1 1 2 3 3 5 5 8 10 15 16 22 2 2 3 4 6 6-2 0-3 0-5 1 4 0 6 0 8 2h1l23 18c2 2 4 3 6 5h-10-24c1-6 2-11 0-16v-1c-1-1-2-3-3-4h0c1 3 3 6 3 10 1 4 0 8-2 11-1 1-8 0-10 0 0 0-1-1-1-2-3-4-7-4-11-6v-17h19c-2-1-5-4-8-4-2-3-7-3-11-4h0c0-7 1-13 0-19 0-2-1-6 0-7zm52 45c-1-7 0-15-2-22-2-4-4-8-5-12l-8-17-11-30c-2-6-4-12-5-18-1-5-2-11-3-17s-1-12-1-19c0-3 0-6 1-9l5-29c5-17 14-34 26-48 5-5 10-10 16-15-2-2-4-4-6-7-3-3-5-7-6-11-5-12-4-24 1-35v-1c-1-1-1-1-1-2-1-3-4-30-3-31s1-1 1-2c2 0 3 2 4 3l13 13a30.44 30.44 0 0 0 8 8c2 0 5 0 7-1 4-1 8-1 12-1l12-1c1 0 4 1 5 0l1-1c1-2 2-3 4-5 4-5 9-9 14-13 2-2 4-4 6-5 1 0 1 0 2 1v8l-3 18c0 2 0 6-1 8-1 3 3 15 4 19 0 5 0 12-2 17-1 1-2 1-3 0l-1 2 3 1c0 1-1 1-1 2v1 1h-1c-1 1-2 2-2 3l-2 1v1 1l-4 5c-5-5-11-8-17-12-3-1-5-2-8-3 5 5 11 7 17 10 2 2 5 5 8 7l-6 9c-2 3 4 33 4 39 1 3 1 6 1 10 1 1 1 5 1 7 1 2 1 7 1 9l-1 1c3 3 6 5 9 7h1c1 1 2 2 4 3s3 3 5 4l3 3 1 1c1 0 1 1 2 2v1l3 3v1c0 3 0 6-1 10h0v1c-4 1-8 1-11 1-7 0-14-1-21 0l-3 9c0 1 0 1-1 1l-1-2c-6 16-11 32-12 48v7 3c-1 3 0 6 0 8l-1 11-1 17c0 6-1 12 0 18 1 2 3 5 4 7 6 0 13-1 18 3 1 2 2 3 2 5s-1 5-2 6c-2 2-5 2-8 2-4 0-8-1-12-1-3-1-6-2-9-2-2 0-3 1-5 1-2 1-3 1-5 1-7 0-14 0-21-1l-3-1s-1-1-2-1c-5-3-6-9-7-14z"></path><path d="M329 265h9l-4 4-1 2h-1c-1-2-4-4-5-6h2z" class="C"></path><path d="M368 271c-3-1-5-2-8-2-6-1-12-1-18-2 9-2 19 0 27 2l-1 2z" class="G"></path><path d="M369 276c-1-2-7-2-9-3l-7-2c-4 0-8-1-11-3 5 1 11 1 16 3 4 1 7 2 11 3h1v1 1h-1z" class="B"></path><path d="M365 281c-3-1-5-3-8-4-6-2-11-3-16-6-1 0-2-1-2-1 8 2 19 4 26 10v1z" class="G"></path><path d="M316 268h5l-14 3c-5 1-9 3-13 5-1 0-2 1-3 0h0c7-5 16-7 25-8z" class="C"></path><path d="M309 245h5c3 2 5 5 7 9-3 1-5 2-7 2-1 0-4 1-5 0h-1-1c-2-1-5-3-5-5 0-1-1-2 0-2 1-3 4-3 7-4zm41 0c4-1 6-1 10 1l2 2c0 1 0 2-1 2-1 3-5 5-7 5-3 1-7 1-10-1-1-1-1-1-1-2 1-4 4-6 7-7z" fill="#fff"></path><path d="M350 245c4-1 6-1 10 1-1 1-1 1-2 1-2-1-4-1-6-1l-2-1h0z" class="K"></path><path d="M360 347c1 1 1 5 1 7 1 2 1 7 1 9l-1 1c3 3 6 5 9 7h1c1 1 2 2 4 3s3 3 5 4l3 3 1 1c1 0 1 1 2 2v1l3 3v1c0 3 0 6-1 10h0v1c-4 1-8 1-11 1-7 0-14-1-21 0l-3 9c0 1 0 1-1 1l-1-2c3-6 5-12 6-19 3-14 4-29 3-43z"></path><path d="M360 347c1 1 1 5 1 7 1 2 1 7 1 9l-1 1c3 3 6 5 9 7h1c1 1 2 2 4 3s3 3 5 4l3 3 1 1c1 0 1 1 2 2v1c-3-3-13-12-16-12-2-1-6 0-9 0l-5 26h32v1c-4 1-8 1-11 1-7 0-14-1-21 0l-3 9c0 1 0 1-1 1l-1-2c3-6 5-12 6-19 3-14 4-29 3-43z" class="H"></path><path d="M361 364c3 3 6 5 9 7-2 1-7 1-9 1 0-2-1-7 0-8z"></path><path fill="#fff" d="M308 462c4 0 8 1 12 1 0 4 2 62 1 64 0 0-1 1-2 1 0 1-3 0-4 0-2 0-9 0-11-2 0-1-1-2-1-3-1-5-1-10-1-15 0-15 1-29 3-44 1-1 2-1 3-2z"></path><path fill="#ca2c21" d="M220 28h13l1 151h-21-39l-77 1H60 47v-3c-1-6 0-12 0-17v-30-8-8-85l173-1z"></path></svg>