<svg xmlns="http://www.w3.org/2000/svg" xmlns:v="https://vecta.io/nano" viewBox="55 48 537 628"><!--oldViewBox="0 0 632 752"--><path d="M113 326h1c0 1-1 2-1 2l-4 6c-1 2-2 4-4 4-1 0-2 2-2 2-2 2-3 4-5 5-2 2-3 5-4 7s-2 5-3 7l-3 9h0c1-3 1-6 2-9l3-8c1-2 2-5 3-7h1v2h0c1-3 6-5 7-8 0-2 0-5 1-6 1 0 3 0 3-1 2-1 4-3 5-5zm54-87l-3 9c-1 5-2 10-4 14-3 5-9 10-14 14v-1c3-2 8-6 9-10v-6c1-2 4-4 5-5 3-5 4-10 7-15zM86 398c0 3 1 6 0 8 0 2-1 4 0 6 1 1 1 1 3 1h1c1-2 1-4 2-5 0 1 1 2 1 2 1 2 1 4 0 6l-1 1c-2 1-3 1-5 1s-3-1-4-2c-4-4 1-9 2-13 1-2 1-3 1-5zm163 226c4-1 7 2 11 3 2 1 5 1 7 2h-6c-6 1-11 1-16 0l-19-4 21 1h0c1-1 1-2 2-2zM128 313c8 0 15 1 21 6 1 1 4 3 4 4-5-4-8-6-14-7-7-1-14 0-19 5-1 1-3 2-4 3-1-1-1-2-2-3 0-1 1-2 1-3 3-4 9-5 13-5zm193 276c2 2 3 5 5 8 4 6 9 13 11 20 1 4 2 9 2 13-1-2-1-4-2-6-4-6-7-10-10-17-2-5-4-12-6-18zM137 327c1-1 2-1 3-1 3 0 6 2 7 4 1 1 2 2 2 3-2 1-5-1-6-1-2-1-4-1-6-1-4 1-6 4-9 7 1 2 4 2 6 4 0 1-1 1-1 2-1 0-2 1-3 1-2-1-2-2-3-3-1-3 0-6 1-9 2-3 5-5 9-6zm70 176c4 0 8 1 11 3l4-3 1 1c2 1 4 3 5 5 0 2 0 3-1 4s-2 1-3 0c-2-1-5-2-7-2-1 0-7 0-8-1s-2-3-3-4h-8l9-3zm-74-184h1c6 0 12 2 17 7-4-2-6-3-10-3-6 0-11 3-15 7-1 2-2 4-4 5h-3-2c-1 1-3 3-4 3l3-3c0-3 0-5 1-7 3-5 11-8 16-9zm98 193h2c2 1 5 5 6 7 7 10 10 23 12 35 0 3 1 6 0 9v-3c-1-4-2-8-3-11s-3-6-4-10c-1-3-1-8-4-11-2-3-6-7-10-7-1 0-1 0-2-1v-1c1-1 2-1 3-1 1-2 0-4 0-6zm81 103h0c-2 5-3 11-5 15-2 5-5 10-8 13-3 4-10 7-15 5-1-1-3-2-4-3s-2 0-3 0h-1l-5 1c4-2 10-3 14-3h7c2-1 3-2 5-3 2-3 3-8 5-11 3-5 7-9 10-14zm-107-25c1-1 2-1 2 0 1 1 1 3 1 5 0 1 2 5 3 6v1c-1 3-3 5-6 6l-2 1c-2 0-3-2-5-3-1 0-3 2-3 2-2-2-3-3-4-6l-6-10c4 3 6 7 11 9 2 0 3 0 4-1 1 0 3-2 3-3 1-1 0-4 0-6 0-1 1-1 2-1zm46-70c1 3 2 6 4 9 2 5 5 8 7 13 3 6 0 11-2 17l-1 3c-2-3-4-6-5-10-1-5 0-10-1-15 0-6-2-11-2-17zm-59-3c9-1 16 1 24 4 6 3 12 7 17 12 2 2 4 4 5 6-6-6-13-11-21-14-6-3-14-5-21-3-2 0-5 2-7 2-1-1-1-1-2-1s-3 1-4 1c-6 2-12 3-17 6 2-1 3-2 5-3 6-5 14-9 21-10zm-34-249c0 2-1 4-1 6l-3 14-3-6c-7 5-9 8-11 16-1 2-1 3-2 5h-4c0 2 0 4-1 5v1s-1 0-2 1v-1c-1 0-1-5-1-6 0 0-1-1-1-2 0-2 0-3 1-5 1-1 4-2 6-4s3-5 5-7 5-4 7-5c4-4 7-8 10-12zm157 349h0l4 11c1 2 2 4 2 6 1 4-3 9-5 13-1 2-2 5-4 7v1h0c1-2 2-5 2-7 0 0-1-2-2-2l-3-6c-3-7 3-16 6-23zm-96-43h1c-1 1-2 2-3 4 1 4 5 8 7 12 1 4 1 8-2 12-3 6-9 10-16 12-1 0-3 1-5 1 2-2 5-2 7-4 6-3 7-10 5-16-1-4-2-8-1-13 1-4 3-6 7-8z"></path><path d="M84 375c1 6 1 13 0 19 0 2-1 5-1 7-2 5-5 10-6 14 0 4 1 9 4 12 1 2 3 2 5 3 3 0 4-4 6-6 1 0 3-1 4-1 2 0 4 1 5 3 1 1 2 2 1 3 0 1-1 2-2 3-5 2-9 3-13 3-1 2-2 3-3 4-1 0-1 0-2-1-2-2 0-3 0-5-2-1-3-2-4-4-3-4-2-8-2-13 0-2-1-4-1-6 1-8 5-14 7-22 2-4 1-8 2-13z"></path><path d="M71 423c1 0 4 16 5 18 0 3 0 8 1 11 1 1 1 1 2 1 4-4 3-10 6-15h2c2 0 3 1 4 2 1 6-10 19-13 24-5 8-8 15-9 25v-1-3-7c0-10 3-20 3-30v-15c0-3-1-7-1-10zm216 152c8 0 13 3 19 6-2 0-4 0-6-1-3-1-6-1-9 0-4 1-8 4-10 8-1 2-1 5-1 7l3 3c2 0 3 0 4-1 1 0 1-1 1-2s0-2-1-3h-2c-1 1-1 2-2 3h-1v-1-2c0-1 0-2 1-3 2-1 4-1 5-1 2 0 4 1 5 3 1 1 1 4 1 5-1 4-2 6-5 7s-7 1-10-1-5-5-5-7c-1-4-1-9 2-12 2-5 6-7 11-8zm-20-15c4-1 5 2 9 3 4 2 10 0 14-2-5 5-8 10-13 14-2 1-5 2-8 3-2 1-4 1-6 3-4 3-7 8-9 13-3 5-6 10-10 14h0c6-8 10-18 13-28 1-5 2-10 4-15 1-2 3-4 6-5zm49 44h1v5c0 3 1 6 2 9 4 9 12 18 22 22 3 1 8 2 12 1 1-1 2-2 2-4 0-1 0-1-1-2h-3-1v-4c1-1 2-1 3-2 1 0 3 0 5 1 2 2 3 5 3 8 1-2 1-5 1-8 0-1-1-3-1-5 2 3 4 6 4 10-1 3-3 7-6 10-4 3-10 4-14 3-8-1-15-6-19-12-7-9-11-21-10-32zm-232 9c3-1 6 0 9 2 2 1 4 3 5 6 0 1 1 2 0 3h0c0-1-1-1-1-2-1-2-4-4-6-4-3-1-6 0-9 1 2 1 4 1 5 2 0 2-1 2-2 4 0 0 1 1 1 2 1 1 0 1 0 2-1 2-4 2-7 2l1 3c1 3 2 5 4 6 2 2 4 2 7 2 2-1 4-2 4-4 1-1 1-3 1-4-1-1-2-2-3-2-1 1-2 2-2 3s0 2-1 2h-2c-1-2 0-4 1-6 1-1 1-2 2-3 2 0 3 0 4 1 2 1 3 2 3 4 1 2 0 5-1 7-2 3-6 5-9 6-4 1-8 1-11-1-4-3-6-8-7-13s0-10 3-14c3-3 6-5 11-5zm3-233c0 4 2 8 3 12 4 10 14 18 23 22-2-2-4-4-5-7 8-1 17-1 24 3 2 1 4 3 6 4s4 1 6 0c0 0 1-1 1-2 1-2 1-4 0-5s-1-1-2-1c-3 0-2 2-4 4h0c-1-1-1-2-1-3 1-2 2-3 4-5 2 0 4-1 6-2 2 0 4 1 6 2 1 2 2 4 2 6s-2 4-3 5c-3 3-6 4-9 5-8 2-15 3-22 3-9-1-19-5-25-11-7-8-11-19-10-30z"></path><path fill="#fff" d="M115 408c1 0 2 0 3 1s5 5 5 7h-1-2c-2-1-6-1-7-3l1-2c0-1 0-2 1-3z"></path><path d="M142 337c2 0 4 0 5 1 1 0 2 1 2 2s1 2 0 3c-1 0-2 0-3-1-2 0-2 0-3 1 0 4 4 4 6 7 1 2 1 5 2 7 1 4 2 9 3 14 1 8 0 16-5 22-5 7-13 11-21 12-10 2-21-1-29-8-5-4-9-10-10-16-1-8 2-17 5-24 1-3 2-5 4-7l-2 5c-2 6-3 11-2 17 0 8 4 15 10 20 6 6 16 10 24 9 8 0 14-3 19-9s7-13 6-20c-1-10-7-17-16-21l-6-3 1-1h1c1-1 2-3 3-5l8 9-4-5c-1-2-1-4-1-6l3-3h0zm-72 80c1 1 0 3 0 4l-1 18-3 25c-2 25-3 51 3 75 2 11 7 23 12 33 6 12 13 22 21 32 14 16 32 27 52 35 5 2 10 3 16 4h-3l-7-1c-4-1-9-3-14-4-26-9-46-24-60-48-12-19-19-42-23-65-3-21-4-42-1-63 1-16 5-30 8-45z"></path><path d="M113 338h0c0 2-4 4-6 6-1 2-2 3-3 5 3-3 7-9 12-10 1 0 3 0 4 1s2 2 3 4v3c-1 1-3 2-4 3-2 1-5 2-6 5-3 5-6 13-4 19 1 6 5 12 11 15 5 3 11 5 16 3 4-1 7-3 9-6 3-5 3-11 2-17-2-6-5-11-11-14-4-2-9-4-14-2-3 1-6 4-8 8-1 2-1 5 0 7 0 3 3 5 5 6s4 1 6 0 3-3 4-5c0-1 0-3-1-5-1-1-2-2-4-2-1 0-2 0-3 1 0 1-1 1 0 3 0 0 1 1 2 1 0 2 0 2-1 3s-1 1-2 1h-3c-1-1-2-3-2-4 0-3 1-5 2-7h1c0-1 1-1 2-2 3-1 7-1 9 0 4 2 6 5 7 8s1 7-1 10c-1 3-4 5-7 6s-7 1-10-1c-3-1-6-4-7-8s0-9 2-13 6-8 10-9c5-1 10 0 15 3s9 8 11 14c2 7 1 14-3 21-3 4-8 9-14 10-5 1-10 1-15-1-8-2-15-8-18-16-5-8-4-18-1-26 2-7 8-15 15-18z"></path><path fill="#e9e8ec" d="M116 342h1 1c1 1 1 1 1 2-1 2-2 2-4 3h-1-1c1-2 2-4 3-5z"></path><path d="M162 413c1 1 1 3 1 4 1 2 2 4 3 7-1 1-2 0-4 0-9-2-21 0-30 3-22 7-38 20-49 40l1 1 9-14c11-13 26-22 43-24 11-1 23 1 31 8 6 5 10 11 12 18 1 2 2 4 2 6-2-5-4-10-8-14-9-8-21-10-33-9-17 0-32 8-44 21 4-2 7-4 11-5 8-2 18-2 27 2 8 5 11 10 13 19 1-5 0-11-3-15-2-5-7-9-12-10-1-1-3-1-5-2 4 0 9 0 13 2 6 1 11 5 14 9l2 4c-2-5-3-9-7-12-8-7-19-5-30-5 7-2 14-5 21-4 9 0 17 3 23 9 5 5 8 12 8 18 0 9-8 15-14 21 0-2 1-3 1-5 0-4-1-7-1-11v1c-3 8-9 13-14 20l1-4c2-5 2-11-1-16-3-6-10-11-17-13-12-3-23 1-32 6 4-1 10-1 14 0 6 2 8 6 11 10v1 1c-6-2-14-4-21-1-6 2-13 12-16 18 6-7 13-13 23-15 7-1 14 0 21 4 5 3 7 9 8 15-4-2-7-4-11-5v1c0 1 1 3 0 5 0 1-1 1-1 2-4 2-14-4-18-5-5-2-10-1-14 1-6 4-9 10-10 17-3 11-2 24 1 34l3 9-1-8c-2-9 0-19 6-26 4-6 10-10 17-10 4-1 10-1 14 2h0c-4 1-7 2-11 4-7 4-10 12-13 19h3c1-1 2 0 3 0 1 1 1 2 1 3 1 3 1 7 1 11 0 7 0 15 1 23 4 22 24 41 42 53v1c-3-2-6-4-9-7l-15-10c-7-6-14-13-21-20-8-8-15-18-20-27-7-12-11-26-12-39-2-13-1-28 2-41 6-27 24-52 50-63 5-2 9-3 14-4s9-2 14-2c2 0 6 0 8-1 1-2 3-5 4-6zm43 70c24-1 48 1 71 8 15 4 29 10 41 19 14 9 26 22 37 34l49 49c15 14 32 27 52 35 18 6 38 9 55 1 16-7 27-22 33-38 6-17 8-38 0-55-4-8-10-16-18-22-11-8-25-13-39-15-5-1-11-1-16-3l70-1c13 1 27 5 36 16 10 12 13 29 11 45-2 26-15 51-35 68-28 24-66 30-102 27-19-1-39-5-57-12-20-8-39-21-55-36-10-9-18-19-27-29l-24-27c-19-22-42-45-73-48-15-1-29 3-40 13-12 10-18 25-19 40-1 19 5 35 17 48v1c8 7 17 13 27 15 3 1 6 1 9 1 9 0 15-4 21-10 8-8 11-18 11-29 0-10-5-20-13-27s-18-12-29-12c-6 1-11 3-14 7-3 3-5 8-5 13 0 4 2 8 4 10 3 2 6 3 10 3 3-1 5-2 6-4 2-3 2-6 2-8-1-2-3-5-4-6-2-1-5-2-7-1-1 0-3 2-4 3v3c1-1 2-3 3-3 2 0 3 0 4 1 2 1 2 2 2 3 1 2 0 4-1 5-1 2-3 3-5 3s-4-1-5-2c-2-2-3-5-3-7 0-4 1-8 4-11 4-3 8-5 13-5 5 1 9 3 12 7 5 4 6 10 6 16-1 5-4 11-8 14-4 4-10 6-16 5-6 0-12-4-16-9-5-6-6-13-5-21 0-7 5-15 11-20 8-6 18-8 28-7 12 1 23 8 31 17 8 11 12 25 11 39-2 9-6 21-13 28-3 2-5 4-8 6 9-3 19-10 26-16 2-1 4-3 6-4 6 2 12 5 17 7 2 1 5 1 7 2l-1 1c-2 2-7 3-10 3 1 3 2 6 1 9 0 1 0 2-1 2-1 1-2 1-4 1-2-1 0-6-1-8-2-1-4-1-5-2l-6-1c-7-3-13 3-19 6-14 8-29 5-44 0v1c2 1 4 1 5 2 10 5 20 9 31 11 5 1 10 2 16 2 19-1 38-10 51-24 8-9 14-20 14-31 2 2 4 4 4 8 1 4-1 9-2 13-3 9-7 17-14 24-16 17-38 24-61 24-14 1-27 0-41-2-10-1-21-3-31-6-9-4-20-10-27-17-15-14-25-33-25-54-1-21 6-43 22-59 16-17 42-27 66-27zM362 77c10-1 19 0 28 0 36 3 73 14 102 37 34 28 48 72 53 114a420.83 420.83 0 0 1 0 71c-2 24-6 48-13 71-4 14-10 28-17 42-7 16-16 32-27 46-33 40-83 63-134 69-4 0-8 1-12 1h-2l-5-5-9-8c-26-20-57-29-89-32-11-1-23-2-34-1-5-12-14-21-21-32-8-13-13-26-17-41l-3-14c-2-11-5-23-5-34-1-12-1-23-1-35v-13c0-2 1-5 0-7-2 0-4 1-6-1-2-1-4-3-5-5 0-2-1-5 0-6 1-2 3-4 5-4h3c0 3-3 4-3 7 0 1 0 1 1 2 0 0 1 1 2 1 2 0 3-1 3-3 1-2 2-6 2-9l2-16c1-8 3-16 5-23 5-17 10-34 19-49 11-20 27-39 42-56 31-34 69-58 115-65 7-1 14-2 21-2z"></path><path fill="#e9e8ec" d="M229 243c-12-2-24-3-36-2v-1h3 13c7 0 15 1 22 2h-2v1z"></path><path d="M314 270c3 3 6 7 10 8 2 1 5 1 7 1l-6 1c-3 1-5 3-8 5 0-6-1-10-3-15zm-49-7c-23-8-47-11-71-7h0c17-5 37-3 55 1 5 2 11 3 16 6h0z" fill="#fff"></path><path fill="#e9e8ec" d="M262 267c9 0 20-1 29 3h-3c-4-1-9-1-13-1-11-1-22-1-33 4-5 4-10 9-11 16 0 1 0 1-1 2 0-1 0-1 1-2 0-4 2-9 5-12 7-8 16-10 26-10z"></path><path d="M231 242l14 3c12 3 23 9 34 15 4 3 8 5 12 9h0c-20-12-40-22-62-26v-1h2zm-17-16h9c23 3 47 11 64 27 3 3 6 5 8 9l-4-4c-4-3-7-6-11-9-14-9-31-16-47-20l-15-3h-4z" fill="#fff"></path><path fill="#e9e8ec" d="M265 263c2 1 6 2 7 3-6-1-13-1-19 0-14 0-29 2-40 11l-5 5c-1 2-2 3-3 4 0-2 2-3 3-5 4-5 9-8 15-11 7-3 16-5 24-5 3 0 6 0 9-1-4 0-7 0-10-1-10-1-21-1-30 1s-18 6-25 11c-5 3-10 6-14 11 1-2 2-3 3-4 7-7 16-13 25-16 14-6 27-5 41-4 6 0 11 1 17 2h2v-1h0z"></path><path fill="#fdd996" d="M347 258h-1l-1 2c-4 3-10 1-15 1l-1 10v-1c-1-2 0-5 0-7 0-5 0-10 3-13 2-3 5-5 8-5 4 0 7 1 10 3-1 2-1 5-2 7 0 1 0 2-1 3z"></path><path d="M339 247c2 0 4-1 5 0 1 3-1 6-2 8s-2 3-4 4h-1c-2-1-3-2-4-3v-3c1-3 3-5 6-6z"></path><path fill="#fdd996" d="M282 203c10 3 22 7 28 16 6 8 4 16 2 25v1h0l-1-2v-3c-2-5-8-5-12-7-12-6-13-18-17-30z"></path><path d="M299 211c4 3 8 5 10 10 0 3-2 6-4 9l-2 1c-1 1-1 1-2 0-2 0-4-2-4-4-2-5 0-11 2-16z"></path><path fill="#fff" d="M350 248c1 1 2 2 3 1 1 0 1 0 1-1 1-1 0-4 0-6 1-4 2-9 1-13 0-3-1-7-2-10-5-13-14-25-24-35l-7-7c-6-4-10-7-17-9-1 6-1 13-4 17a147.75 147.75 0 0 0 0-42c-1-3-1-8-4-11l-1-1c-2 0-5 3-6 4l-29 34c10-26 29-51 54-63 22-10 49-11 72-3 28 10 48 35 61 61 12 27 17 57 19 86l1 39-1 30c-3 34-7 68-19 101-12 34-37 65-71 81-8 4-18 7-27 8l-13 2c3-2 6-4 9-7 10-7 17-17 20-29 2-9 0-19-5-27-5-7-12-12-21-14-6-2-15 0-20 4-6 4-10 10-11 16s0 13 3 18c3 4 8 7 12 8 5 0 10-1 14-4 3-2 6-6 6-9 1-4 0-9-3-12-2-3-5-4-8-5-2 0-3 0-4 1 0 1 3 0 5 1 4 1 6 6 6 10 0 3-1 5-3 7-2 1-5 2-7 2-3 0-5-2-6-4-2-2-3-6-3-9 1-3 2-6 5-8 4-3 8-3 12-3 4 1 8 4 11 7 3 5 4 10 3 16s-5 12-10 16c-7 4-15 6-22 4-17-3-31-19-39-32-8-12-14-24-19-37-15-38-22-79-14-119 2-9 6-22 14-27 2-2 4-2 7-3 7-1 15-1 21 1h3c-10 0-26-3-33 5-10 9-14 32-13 45 0 11 3 22 11 29 6 5 12 8 19 11 12 7 21 17 21 31 1 7-1 14-6 19-2 2-4 4-5 6 8-6 15-14 16-24 1-8-2-18-7-24-16-22-51-24-47-58 2-9 6-18 13-23 2-2 5-3 7-4 2 3 3 6 5 8 4 5 10 8 16 9 8 1 17 0 24-4v-5c-1-2-3-5-5-6-4-2-9-2-13-2h-5c5-2 12-2 17 0 3 2 5 4 6 7 1 2 1 3 1 5v1 1c3 0 5 0 8-1 0 0 0-1 1-1h0c1 0 1-1 2-1l1-1 1-1h1c13 9 28 18 30 35 1 5 0 11-1 16 0 1 0 3-1 5 5-9 4-20 2-29-2-5-4-10-7-13-2-3-5-5-7-7-1-1-2-2-4-3 0 0 0-1-1-1-3-2-6-3-9-6l2-2 1 1h0c2 1 4 2 6 2l6 3c8 4 13 12 18 19s8 15 8 23c1-12-6-25-13-33-5-6-14-11-22-15-1 0-2 0-3-1h1c1-1 3 0 5 0 4 1 8 3 11 5 6 3 11 5 15 9 7 6 13 13 16 22 1 3 2 6 2 9 1 0 1 1 1 1 0-3-1-6-2-8-2-8-6-15-12-21-8-9-19-12-29-17 0-1 0-1 1 0 3 0 6 2 8 3 10 3 19 7 27 15 4 4 7 8 10 13 0-1-1-2-1-3-3-5-7-10-11-13-7-7-16-11-25-14-5-2-10-3-16-3 3-3 9-6 9-11 1-3 0-7 1-10 0-3 1-6 2-8 1-1 1-2 1-3 1-2 1-5 2-7z"></path><path d="M254 354l3 4c3 3 5 3 8 3-1 2-1 5-2 8h0c-1 1-1 2-2 2-2-1-1-5-1-7-1-1-2-3-3-4l-3-6zm16-40c2 0 4 1 6 2s3 3 4 5c0 1 0 3-1 4-2 2-3 3-6 4-2 0-4 0-6-2s-3-4-4-6c2 1 4 3 6 3s3 0 4-1 1-3 1-4c0-2-3-4-4-5zm1 28h2c6 1 10 7 13 11-1-2-2-4-1-6 1-1 1-1 2-1s2 1 3 2l2-4h1c2 2 2 4 2 6 0 1 0 3-1 3-1 1-3 0-4 1-1 2 3 7 5 9 2 3 4 7 5 11-3-4-4-7-7-10-2-3-5-5-8-8-3-2-14-10-15-13l1-1zm5 45h0l-1 3c0 8 8 7 12 11 1 2 2 4 2 7 0 8-9 15-15 20l-4 4c3-4 6-7 9-11 3-5 2-10-1-15-2-3-4-5-5-9 0-3 1-7 3-10zm20 32l10 1c-3 1-7 1-10 1-5 1-8 5-10 9h0 0c3-1 5-1 8 1 2 2 4 7 4 10 1 6-3 11-7 15l-3 4c0-1 1-3 2-4 2-3 4-7 3-12 0-2-2-4-4-5s-4 0-6 1c-1 0-2 0-2-1-1-1-2-3-3-4 0-3 1-7 3-9 4-5 10-6 15-7zm-26-129v1c-1 1-4 4-5 6-2 2-3 4-5 7-3 6-3 13-1 20 1 3 4 7 7 8s5 1 8 0 5-5 7-8c1 4 2 7 0 11-1 2-2 3-4 4-3 2-6 2-10 1-5-1-8-4-11-8-3-6-4-13-2-19 2-9 7-18 16-23zm3 81c4 0 9 1 12 4 6 4 10 11 10 18 1 8-1 16-6 22 3-6 4-10 3-17h0c-1-5-3-11-7-14-2-1-4-2-6-2-6 0-7 9-12 9-2 0-4 0-5-1s-2-3-2-5c-1-3 0-7 2-10 3-3 7-4 11-4zm97-201h1c2 0 3 0 4 1 1 2 1 4 0 6-2 5-6 9-9 14-5 7-10 15-13 24-1-3-3-6-5-9-3-5-6-9-9-13-2-2-6-6-7-8 12-6 24-13 38-15z"></path></svg>