<svg xmlns="http://www.w3.org/2000/svg" xmlns:v="https://vecta.io/nano" viewBox="50 35 557 636"><!--oldViewBox="0 0 652 752"--><path fill="#383839" d="M521 355h2l3 3v3 1l-2-1h-1v-1c0-2-1-4-2-5z"></path><path d="M523 355c2-1 4-2 6-1h1c0 2-2 3-3 4h-1l-3-3zM404 520l21-4c-3 2-6 3-9 5-1-1-2-1-3-1-3 0-6 1-9 0z" fill="#f0eef1"></path><path fill="#383839" d="M612 288h0v1c-5 3-12 4-18 7l-9 3-1 1-2 1h0c-2 1-3 1-4 2l-1 1h-1c-2 2-4 2-6 3 0 1-1 1-2 2h-1l-2 1v1c-2 0-2 1-4 2h0-1v-1c1 0 2-1 3-1l6-4 1-1h1l7-4c0-1 1-1 1-1 1-1 3-1 4-2l2-1c2 0 3-1 4-1 7-4 15-7 23-9z"></path><path fill="#f0eef1" d="M488 351c-1 0-3-1-5-1-7-1-14 0-21 2-2 1-5 2-8 2 6-4 14-7 22-7h8c2 1 3 2 4 3v1z"></path><path fill="#383839" d="M537 364h1c2 1 3 1 4 2h2l2 1s1 1 2 1h0l2 1h1l1 1c2 1 5 4 8 5 1 1 3 1 5 2l1 1c1 1 2 1 3 2h1c1 1 1 1 1 2h0l-1-1h0c-1 0-2-1-3-1 0-1-1-1-2-1l-1-1c-1 0-3 0-4-1l-1-1-4-2v1h0 0c-2 0-3-2-5-2-1 0-2 0-3-1l-3-3v-1h0c-1 0-2-1-4-1v-1c-1 0-1 0-1-1-1 0-2 0-2-1z"></path><path fill="#fdfdfd" d="M495 318h1c1 0 2 2 3 3h0v1h0l2-2 2 2s1 0 1-1h1c1 1 2 1 2 2 1 2 1 6 0 7l-2 1-1-1c-1 0-2 0-3-1l1-2c0-1 0-2-1-3h0c-1 2-1 4-1 6-2-3-5-8-5-12z"></path><path fill="#383839" d="M622 322h2v1c-5 0-10 0-15 1s-9 2-13 3c-9 1-17 3-25 6l-3 1-4 1-3 2h-1c-1 0-1 0-1 1-2 0-3 1-4 1l-1 1-4 1c-3 1-5 2-7 3l-1 1c-1 0-2 0-2 1h-2l-2 1h-2l1-1 4-1 1-1c1 0 2 0 3-1l5-2 2-1c5-2 9-4 13-6l19-6c6-2 13-3 20-4 6-1 13-1 20-2z"></path><path fill="#818282" d="M536 353h1c2-1 5 0 7 0 8 0 17 1 25 2 10 1 19 2 28 4 6 2 11 4 17 5l14 4c3 1 6 2 8 3-3 0-6-2-9-2l-14-4c-20-5-40-10-61-11h-15l-1-1z"></path><path d="M484 347h-1c-6-3-11-5-18-5l8-2c1 0 0 0 1-1-5 1-12 2-17 4-2 1-3 3-5 4 3-5 11-11 17-12 5-1 10-2 15-2-5-2-12-3-17-3h-2c3-1 8-3 11-3 7-1 13 1 18 4h1c-4-3-9-8-13-9h-6c4-2 7-2 12-2 1 0 1 1 2 2 4 2 6 7 10 9 2 2 5 2 8 2v1c2 9 7 15 13 21 1 1 2 3 2 5v1l-3 3c-6 5-11 6-19 5 2-1 5-1 7-2 2 0 4-2 6-3-3-1-7-3-10-3s-6 2-8 3c-3 2-6 3-8 5-2 1-4 3-6 5s-5 3-7 5l-23 22h0c4-5 9-10 14-15 2-1 4-3 6-5l10-9c3-2 5-4 7-5s4-2 6-4c3-1 4-2 7-3h0c-4-1-8-2-12-2l-11-2c-2-1-5-1-7-2h0l17-2-1-1v-1c-1-1-2-2-4-3zm-47 34c1 3-2 7-2 10-1 5 0 11 1 16 2 5 4 11 7 16 4 6 9 11 15 16 2 2 5 4 7 5 3 2 5 3 8 4 2 2 5 2 7 3 12 4 25 6 38 4 5 0 10-2 15-2-2 1-6 2-9 3-15 5-31 8-48 7-11 0-24-3-33-9-3-2-7-5-10-8-2-2-4-4-5-7-4-7-7-13-7-21-1-6-1-12 1-18 1-2 1-3 2-4v3c-1 2-1 4-1 6 0 7 3 14 7 19l9 9c-3-6-7-10-8-18-2-9-1-19 3-28l3-6zm-21 147c8 0 16 0 23 2 8 3 18 9 22 17 4 7 4 15 2 23-4 11-15 19-25 24 2-3 6-5 9-8 4-4 7-10 7-16 0-7-3-12-7-16 1 6 3 12 0 19-4 7-9 13-17 17-1 1-3 2-5 3-1 0-5 1-7 1l1-1h0c6-1 14-8 18-13 3-6 4-13 2-20-1 3-1 6-2 8-3 5-8 10-12 13 2-4 6-7 7-11 2-4 3-11 1-15-3-6-8-9-14-12-5-1-10-2-16-2 6 2 11 4 15 7 3 2 7 5 9 8 1 2 1 5 2 7-2-2-3-4-4-6-2-2-4-3-7-4 2 5 2 10 1 15-2 8-8 14-15 17 4-4 9-10 9-16 0-5-1-9-5-13-6-6-18-6-26-6h-15c3-2 7-3 10-5 1 0 3-1 4-1-3 0-7 1-10 1-8 1-18 0-26-3 11 0 22-2 33-4 14-3 27-7 42-6 7 1 14 4 21 7-1-1-3-2-5-3-3-2-7-4-11-6l-9-2zm0-7c-4 2-9 3-14 5-20 7-42 12-63 8-14-2-27-8-37-18-4-4-8-10-12-15 1 11 5 21 8 31 1 5 3 12 5 17 3 5 5 10 9 14l-3-8c0-3-1-6-1-9v-2c1 2 1 3 2 5 1 3 2 7 4 10 2 2 5 4 7 7 1 2 3 4 4 6 0-1-1-3-1-3l-2-10c2 3 4 8 7 11 2 3 5 5 7 7 4 3 7 6 11 8 2 1 5 3 7 4 3 1 5 3 8 4l9 5c-1 0-3-1-5-1-7-1-15-2-22-5-3-2-6-4-10-5 7 5 14 8 22 11-5 0-9-1-13-2-21-6-38-21-48-40-4-7-6-15-9-23l-7-20c-7-23-9-47-8-72v-11c0-3 0-5 1-8l1 8c2 25 14 52 34 68 22 19 52 25 81 24 5 0 10-1 16-2 3 1 6 0 9 0 1 0 2 0 3 1zm92-300h2c7 5 3 18 2 25l-2 19c0 3-1 6 0 9 0 1 1 3 2 4l5 9c4 9 9 19 10 28 1 3 1 7 0 10 0 5-2 12 0 18 0 1 1 2 2 4-6-5-10-11-12-19 0-2 0-5-1-8 0-3 0-6-1-9-1-2-4-4-5-6l-6-6 13 8c-3-5-7-8-11-13 4 2 7 4 10 6-3-5-6-10-8-15-2-6-2-13-1-20l4-29v-7c-1-1-1-1-2-1h-1c-9 6-25 48-29 59-2 4-3 9-4 13-4-1-9-3-12-6-8-8-9-17-9-28-3 7-3 13-4 20-1-4-2-7-1-11-1 1-2 4-3 5l-2 2-6-1c-7 0-14 2-21 3-19 6-37 16-52 30a30.44 30.44 0 0 0-8 8c-2 2-4 4-6 7 2-4 5-8 7-11 2-2 3-5 5-7l3-3c6-7 12-14 20-20 2-1 4-3 6-4 7-5 13-9 20-13h0c-7 3-15 6-22 10s-14 9-21 13c-2 2-5 4-7 6l-4 4c-3 3-6 5-8 8-3 3-6 8-9 12-3 5-6 10-8 16-2 5-5 10-6 15-5 16-5 35-2 52 3 15 11 30 22 42 3 3 6 6 10 9-6-6-10-12-13-18-4-6-7-12-8-18 1 2 3 5 4 7 5 7 12 13 19 19 7 5 14 10 23 13 1 1 3 2 4 2-4-3-9-5-13-8-2-1-3-3-5-4-2-2-4-3-6-5s-4-4-5-6c-4-5-7-10-10-15-9-19-10-39-4-58 5-15 15-28 29-35 12-6 27-8 40-5 2 0 5 0 7 1l1 1c-6-1-12-1-18 0-15 1-27 8-36 19 2-1 4-2 6-4 9-5 21-10 32-9-2 1-5 1-7 2-7 3-14 7-19 12-10 10-15 24-15 38 0 7 1 14 4 21l3 9c2 5 4 10 7 14 1 3 4 6 6 8-1-3-3-5-4-8-4-11-3-22-1-34 1 3 1 7 1 10 0 7 3 16 7 22 2 3 4 5 7 7-2-5-6-9-7-15-2-13 3-29 10-40l6-6c7-6 14-10 23-12-2 1-5 2-8 4-9 6-16 16-18 27 2-4 4-7 7-10 2-2 5-4 7-6 5-4 11-7 17-9-2 2-5 3-7 5-6 4-11 10-14 16-5 10-4 23 0 33 3 7 7 15 12 21 6 6 13 12 20 16 5 3 10 5 15 7-4 0-7-1-10-3-7-2-14-5-20-8-9-6-17-14-23-23-2-3-3-6-5-10v1c0 3 1 6 2 9 1 8 3 17 8 23 3 3 6 7 9 10s6 4 10 7c4 2 9 4 14 6 12 3 25 3 38 3-20 5-39 9-59 9-7 0-14-1-21-3-5-1-9-3-14-5 1 1 3 2 5 3s5 3 7 4c3 1 6 2 10 3h-1c-2 0-4 0-6-1-9 0-17-3-25-7-4-2-8-4-11-6-5-3-9-7-13-11 2 2 3 4 5 6 4 6 10 12 17 16 8 6 18 9 27 14-4-1-8-2-13-3-3-1-7-3-10-4-5-2-10-5-14-8-2-2-4-3-6-5-3-2-5-4-7-6l-6-6c3 6 7 10 11 15 21 21 51 26 80 22l13-3c1 0 4-1 5-1v1l-12 3c-28 10-62 11-90 3-5-1-10-3-15-5-18-8-35-21-44-38-3-4-4-8-6-12-5-13-7-28-7-42-1-24 3-48 13-70 2-4 4-9 7-13 7-12 16-23 27-32 2-2 5-4 8-6 4-3 8-7 14-9l-17 14c-8 9-16 20-21 30-3 5-6 10-8 16-5 15-8 33-8 49 0 23 5 46 17 65 2 3 4 5 5 8 3 3 8 7 11 10-2-4-6-8-8-12-6-10-11-21-14-32-3-12-4-25-3-37 0-2 0-4 1-5v6c0 4 1 9 2 13 3 8 6 17 11 24l4 4c2 2 3 4 5 6l-8-15c-3-6-4-13-5-19-4-21-3-47 5-67l7-13c1-3 2-5 3-7s3-4 4-6c8-12 18-22 30-29 2-2 5-3 7-5 23-13 48-21 72-30l20-7 9-4c5-2 10-4 15-7 8-5 15-10 24-14zM303 78c17-1 36 0 52 3 7 1 13 3 20 5 13 4 26 9 38 17 4 3 9 6 13 10 6 5 11 12 15 18l6 9c9 17 14 37 15 56-6-18-17-34-32-47-9-7-18-12-28-17l-12-6c-10-3-21-6-32-7-13-3-26-4-39-2-16 1-32 4-47 10-24 9-45 25-61 44-11 14-21 30-28 46-2 4-4 9-6 13l-6 21c-2 5-3 9-4 14-5 18-7 37-9 55-3 24-4 49-2 73 2 21 5 42 11 62l4 13c2 5 3 10 5 14 5 13 12 25 19 36 5 8 10 15 15 21 7 8 14 15 22 22l11 9c3 2 6 4 9 5 7 5 14 9 22 12 6 3 12 6 19 8 36 12 75 14 113 11 11-1 22-3 33-6 7-1 14-3 21-5l18-6 15-6 8-5c5-2 11-5 16-8l6-5c2-1 5-3 7-5 14-10 26-22 37-35 8-10 15-20 22-31l8-16c2-3 3-7 5-9-3 15-8 31-15 46l-6 12c-2 3-3 7-5 10-2 2-3 4-5 6-5 8-9 14-15 21-2 2-3 5-5 7l-5 5-6 6c-22 21-49 37-78 47-6 3-12 5-19 6-28 8-57 13-86 14-26 2-53 1-79-2-30-4-60-11-88-24-4-2-9-4-13-6-10-5-20-12-29-18-2-2-4-3-6-5-2-1-4-3-6-4-2-2-4-4-7-6-6-6-11-12-16-18l-6-6c-2-2-3-4-4-6-7-10-14-19-19-30l-5-11c-2-3-4-7-6-11l-6-20c-2-5-3-9-5-14-5-21-8-43-9-65-1-16 0-32 1-49 3-57 17-115 48-163 2-3 3-5 5-8 7-10 16-20 24-30 26-28 59-50 95-62 7-2 15-4 22-5 7-2 14-4 22-5 11-2 22-3 33-3z" fill="#fdfdfd"></path></svg>