<svg xmlns="http://www.w3.org/2000/svg" xmlns:v="https://vecta.io/nano" viewBox="39 35 558 640"><!--oldViewBox="0 0 620 752"--><style>.B{fill:#070606}.C{fill:#272727}.D{fill:#f9f9f9}.E{fill:#222}.F{fill:#2c2c2b}.G{fill:#121212}.H{fill:#dcdbdc}.I{fill:#1a1919}.J{fill:#e9e9e9}.K{fill:#494849}.L{fill:#585859}.M{fill:#cfcfcf}.N{fill:#6c6c6d}.O{fill:#f2f1f2}.P{fill:#727373}.Q{fill:#a4a4a5}.R{fill:#878989}</style><path d="M290 546c0 2 1 3 1 4h-1v-4zm5-270h4 0c-2 1-2 1-4 1v-1zm-74 161v2h-1c1-1 1-2 0-2v1-3l1-1v3zm-23-161c1 0 2 0 2 1v3h-1c0-1 0-3-1-4z" class="B"></path><path d="M232 71h1 1l-1 2h-1v-1-1z" class="D"></path><path d="M302 320h5 0l-3 1c-1-1-2-1-3-1h1zM147 597h1v4h-1c-1-1 0-3 0-4z" class="B"></path><path d="M363 53c1 0 1 1 2 1v1l-1 1-2-1v-1l1-1zm96 605h2c0 1 0 1-1 2l-1 1c-1-1-1-1-1-2l1-1z" class="D"></path><path d="M247 506l-1 1h0 0v-5l1 1v1h0v-1h1l-1 3z" class="B"></path><path d="M281 48h1 1v2h-2v-1-1zm133 19h1c0 1 0 1 1 2l-1 1c-1 0-1 0-2-1v-1l1-1z" class="D"></path><path d="M388 527h0 2v2h-2v-1-1z" class="J"></path><path d="M217 451l1-1v1 1h0c1-1 0-2 1-3v5 2c-1-2-2-4-2-5z" class="B"></path><path d="M542 603h1c1 1 1 1 1 2l-1 1h-1c-1-1-1-1-1-2l1-1zM301 204l1-1c1 1 1 1 1 2l-1 1h-1l-1-1 1-1z" class="D"></path><path d="M301 283v1h1 2v1h-2c-1 0-3 0-4-1h0c1-1 2-1 3-1z" class="B"></path><path d="M72 284c1 0 1 0 2 1 0 1 0 1-1 2h-1c-1-1-1-1-1-2l1-1zm42 45l5-1c1 0 1 0 2-1l1 2h-3s0 1-1 1c-1-1-1-1-2-1h-2zm266 176h1 1c0 2 0 2-1 3-1 0-1 0-2-1v-1l1-1zM52 218l2-1c0 1 0 1 1 2l-1 1h-1c-1 0-1 0-2-2h1zm-1 113l1-1 1 1 1 1-1 1h-1c-1 0-1 0-2-1l1-1zm326 0l2 1h0c0 2 0 2-1 2h-1s-1 0-1-2l1-1z" class="D"></path><path d="M166 343h4v1h7-7-3-1v-1z" class="O"></path><path d="M457 55h2v3c-1 0-2 0-2-1-1-1-1-1 0-2zm88 277h1c1 1 1 1 1 2l-1 1s0 1-1 1l-1-1c0-1 0-1 1-3zm-295 22l3 3s-1 0-1 1c-1 0-2-2-3-2 0-1 1-1 1-2zm142-60h1c1 1 1 1 1 2l-1 1c-2 0-2 0-3-1l2-2zm-49-58h1l1 1c0 1 0 1-1 2-2 0-2 0-2-1v-1l1-1zM505 92h1c1 1 1 1 1 2v1h-1c-1 0-1-1-2-2l1-1zM381 473h1c1 0 1 0 1 1v1l-1 1c-1 0-2-1-2-1v-1l1-1zM103 168h1c1 0 1 0 2 1l-1 2h-2l-1-1c0-1 0-1 1-2zM243 45l2-1c0 1 1 1 1 2l-1 2h0c-2 0-2 0-2-1v-2z" class="D"></path><path d="M136 630v-1h1c1 1 0 4 1 5v1h-1l-1 2v-7z" class="M"></path><path d="M579 304h0c2 0 2 1 3 2-1 1-1 1-2 1-1 1-1 0-1 0-1-1-1-1-1-2l1-1zm-45-23h1l1 1v2h-2c-1 0-1-1-1-2l1-1zm14 108c0-1 1 0 2 0l1 2h-1l-1 1c-1 0-1-1-2-1 0-1 0-1 1-2zM421 236c1-1 1-1 2-1 0 1 0 1 1 2l-1 1c-1 1-1 1-2 1l-1-1c0-1 0-1 1-2zm138 128h0c2 0 2 0 2 1s0 1-1 2h-1l-1-1c0-1 0-1 1-2zm-155-51h1c1 1 1 1 1 2s0 1-1 2h0c-2 0-2-1-2-2s0-1 1-2zM177 100h2c1 1 0 1 0 3v1c-2 0-2 0-3-1 0-2 0-2 1-3z" class="D"></path><path d="M253 351c1 1 4 2 5 2 0 1-1 1-1 2l-5-2 1-2z" class="O"></path><path d="M274 512c-1-1-1-2-2-3 0-1 1-5 1-6 1 2 1 3 1 5v4z" class="K"></path><g class="D"><path d="M73 259h1s0 1 1 1l-2 2c-1 0-2-1-2-1 0-2 1-2 2-2zm205-27h1c1 0 1 0 2 1-1 1-1 1-1 2h-2c-1 0-1 0-1-1s0-1 1-2zm285 283h1l1 1c0 1 0 1-1 2h-2v-1c0-1 0-1 1-2zM54 480h1c1 0 1 0 2 1-1 1 0 1-1 2-2 0-2 0-3-1 0-1 0-1 1-2zm312-273h0c2 0 2 0 2 1s0 1-1 2h-1c-1 0-1-1-1-2s0-1 1-1zM308 44c0-1 0-1 1-1s1 1 2 1c0 2 0 2-1 2 0 1-1 1-1 1-1-1-1-1-2-3h1zm240 203h1c1 0 1 1 2 1l-2 2h0c-1 0-1 0-2-1 0-1 0-1 1-2zm-149 4h0c1 0 1 0 2 1-1 1-1 2-2 2h-1c-1-1-1-1-1-2 1-1 1-1 2-1zm137-54c2 0 2 0 3 1l-1 2-1 1-1-1c-1 0-1 0-1-1s0-1 1-2zm-135 43s0-1 1-1l2 2c0 1-1 1-1 2h-2c-1-1-1-1-1-2l1-1zm-95-17h1c1 0 1 1 2 1 0 1 0 1-1 2 0 1 0 1-1 1s-1-1-2-1c0-2 0-2 1-3z"></path><path d="M564 431h1c1 0 2 0 2 1s0 1-1 2h-1c-1 0-1 0-2-1 0-1 1-1 1-2zM463 634h1c1 0 1 0 1 1s0 2-1 2-2 0-2-1 0-2 1-2zM103 116h1c1 0 1 0 2 1v2h-1c-1 1-2 0-2 0-1-2-1-2 0-3zm388 498h1c1 0 1 1 1 2s0 1-1 2h0c-1 0-2 0-2-1 0-2 0-2 1-3zM246 250h1c1 0 1 1 2 1 0 2-1 2-1 2l-1 1-2-2c0-1 0-1 1-2zm280-16h1c1 1 1 1 1 2s0 1-1 2h-1l-2-2 2-2zM181 48h1c1 0 1 1 2 1-1 1-1 2-2 2h-1c-1 0-1 0-2-1l2-2zm239 621h1c1 0 1 0 2 1-1 1-1 2-2 3-1-1-2-1-2-2s0-1 1-2zm13-417h1c2 1 2 1 2 2l-1 1-2 1c-1-1-1-1-1-2s0-1 1-2zm-197-43h1c1 1 1 1 1 2s0 1-1 2c-1 0-2-1-2-1 0-2 0-2 1-3zM135 421h2 0v2l-3 2h0c-1-1-2 0-3-1l1-1v1l3-3zm319-137h1c1 0 1 1 1 1 0 2 0 2-1 3h-1l-2-2 2-2zm-105 56h2c1 0 1 1 2 1 0 1 0 1-1 2l-1 1c-1-1-2-1-2-2v-2z"></path></g><path d="M159 351l7-1v1h3l-9 1c0-1 0-1-1-1z" class="O"></path><path d="M376 541l1-1 2 2-2 2h-1c-1 0-1-1-2-1 1-1 1-2 2-2z" class="D"></path><path d="M165 429c0 2-1 4-2 6-1 0-2 0-3-1h0c1-1 3-5 5-5z" class="H"></path><path d="M150 352l9-1c1 0 1 0 1 1l-9 1-1-1z" class="D"></path><path d="M55 608v1c1 0 1-1 1-1v5c-1 1-1 2-1 3s0 1-1 2h0v-8l1-2z" class="B"></path><path d="M358 402l1-1 2 2c0 1 0 1-1 2h-1c-1 0-1 0-2-1 0-1 0-1 1-2zM187 71h1c1 0 1 0 2 2l-2 2h-1c-1-1-1-1-1-2 0-2 0-2 1-2zM35 414l1-1c1 1 1 1 1 2s0 2-1 2l-1 1-2-2c1-1 1-2 2-2z" class="D"></path><path d="M342 589l2-2h0l-1-1c-1 0-1 0-1-1h0c1 0 1 0 2 1h4l2 2-8 1z" class="C"></path><path d="M260 534c1 1 1 2 1 2v1c1 1 1 3 1 4-1 0-1 0-1 1v2c0 1 0 2-1 3v-13z" class="B"></path><path d="M41 518l1-1 2 2c-1 1-1 2-2 2h-1c-1 0-1 0-2-1 1-2 1-2 2-2zm23-364h2c1 0 1 0 2 1 0 1 0 1-1 2l-1 1c-1-1-2-1-2-2-1-1-1-1 0-2zm30 55h1l2 2c-1 2-1 2-2 3l-1-1c-1 0-1-1-2-2l2-2zM210 37l2-1c1 1 1 1 1 2s0 1-1 2h-1c-1 0-1 0-2-1 0-2 0-2 1-2zm188 2l1-1c1 1 2 1 2 2v1l-1 1-1 1c-1-1-2-1-2-2s0-1 1-2zm58 266h2c1 1 1 1 1 3l-1 1h-2l-2-2 2-2zM313 163h2c1 1 1 1 1 2s0 1-1 2h-2c-1-1-1-1-1-2s0-1 1-2zm35 118h1c1 0 1 0 2 1 0 2 0 2-1 2l-1 1-2-2v-1l1-1zm17-21h2c1 0 1 1 1 2s0 1-1 2h-1c-1-1-2-1-2-2s0-1 1-2zm-6 241h1c2 1 2 1 2 2l-2 2h-1l-2-2 2-2zM78 311h1c1 0 1 1 2 2l-2 2h-1l-2-2 2-2zm488-42h2c0 1 0 1 1 2l-2 2h-2c-1-1 0-1-1-2 1-2 1-2 2-2zM452 36h1c1 0 1 0 2 1 0 1 0 2-1 2-1 1-1 1-3 0 0-1 0-1-1-2l2-1zM79 405h1c1 1 1 1 1 2 0 2 0 2-2 2h-1c-1-1-1-1-1-2s1-1 2-2z" class="D"></path><path d="M277 511h0c0-1 1-2 1-3h0l1 7c0 2 1 5 0 7-1 0-1-2-1-3v-1c-1-3-1-5-1-7z" class="B"></path><path d="M155 344l11-1v1h1 3c-4 1-8 2-11 1l-1-1h-3z" class="H"></path><path d="M533 75h1c1 1 2 1 2 2s0 2-1 3c-1 0-2 0-2-1-1 0-1-1-1-2s0-1 1-2zM322 310h2c0 1 1 1 1 3 0 1 0 1-1 1l-2 1c-1-1-1-1-1-2 0-2 0-2 1-3zm163-208h1l2 2c0 1-1 2-1 2h-2c-1 0-1 0-2-2l2-2zm21 153l1 1c1 0 1 1 2 2l-2 2h-2c-1-1-1-1-1-3 0-1 1-1 2-2zM358 665h2c0 1 0 2 1 3-1 1-1 1-3 2h-1c-1-1-1-2-1-3l2-2z" class="D"></path><path d="M204 450c0-3 0-8 2-10 0 5-1 10 0 15h-1v1-1c-1-1-1-2-1-3v-2z" class="N"></path><path d="M495 56s1 0 1 1c1 0 2 1 2 2l-2 2h-2c-1-1-1-1-1-3 0-1 1-1 2-2zm-21 206h1c1 0 2 1 2 2s0 1-1 2h-2l-2-2 2-2z" class="D"></path><path d="M335 549c1 1 1 2 2 4l1 2v2 1h0l-2-2-1-2h-1v-3c1-1 1-2 1-2z" class="B"></path><path d="M474 234h1c1 0 2 0 2 2 0 1 0 1-1 2h-2l-2-2c1-1 1-2 2-2zm44 263l1 1c1 0 1 1 1 2s-1 1-2 2h-2v-3c0-1 1-1 2-2zm13 82h2c1 1 1 2 1 3l-2 2h-1c-2-1-2-1-2-3 0-1 0-1 2-2zm17-29h2c1 0 2 0 2 2 0 1 0 1-1 2h-1c-2 0-2-1-3-2 0-1 0-1 1-2z" class="D"></path><path d="M274 508c1 2 1 4 1 6 0 1 1 3 1 4 0 3-1 5-2 8v4 1h-1v-1c1-2 1-4 1-6 1-4 1-6 0-10v-2-4z" class="L"></path><path d="M80 175h2c1 1 1 1 1 2s-1 2-2 2h-1l-2-2c1-2 1-2 2-2zM47 319h2c1 0 1 0 1 2 0 1 0 1-1 2h-2l-2-2 2-2zm310-152h2l2 2c0 1 0 1-1 2s-1 1-2 0c-1 0-1 0-2-2 0-1 0-1 1-2zm-95 76h1c1 1 2 1 2 2 0 2 0 2-1 3h-2c-1-1-1-1-2-3l2-2z" class="D"></path><path d="M214 437c-1-6 0-13 0-19h0c1 2 1 5 1 7v11l-1 1z" class="P"></path><path d="M372 411s1 0 2 1c1 0 1 1 1 2l-2 2h-2c-1-1-1-2-1-3s1-1 2-2zm7 249h2c1 1 1 1 1 2s0 2-1 2c-1 1-1 1-2 0-1 0-1 0-2-2l2-2zM272 182c1-1 1-1 2-1 1 1 1 1 1 3 0 1 0 1-1 2h-2l-2-2c1-1 1-2 2-2zm117 98c1-1 2-1 2-1 1 1 2 1 2 2s0 1-1 2-1 1-2 1l-2-2c0-1 0-1 1-2zm174-130h2c1 1 1 1 1 3-1 1-1 1-2 1h-1c-1 0-2-1-2-2s1-1 2-2z" class="D"></path><path d="M237 513l1-1c-1 3-1 6-2 8 0 3-1 5-1 7h0c-1-1-1-2-1-2v-1l1-1h0c0-1 0-1-1-2 0-2 2-6 3-8z" class="K"></path><path d="M297 265h5 0s-1 0-2 1h-3s-1 0-1 1h-1-1-1c-1 1-1 1-2 1-1 1-3 1-4 2h-1 0l1-1c1 0 1-1 2-1h0l3-2h1 1 1c1-1 1-1 2-1z" class="B"></path><path d="M333 176h2c1 1 1 1 1 3 0 1 0 1-1 2h-2s-1 0-1-1c-1 0-1-1-1-2s1-1 2-2zm202 259c1-1 2-1 3-1 1 1 1 1 1 2s0 2-1 3h-2l-2-2c0-1 0-1 1-2zM75 370c0-1 1-1 2-1l2 2c-1 2-1 2-2 3h-2l-2-2c1-1 1-2 2-2zm398-84h2c1 1 1 1 1 2s0 2-1 2c-1 1-2 1-3 0 0 0-1-1-1-2s1-1 2-2zm-93-88h2c1 0 2 1 2 2s-1 1-2 2c0 0-1 1-2 0-1 0-1-1-1-2s0-1 1-2z" class="D"></path><path d="M252 353c-2-1-14-7-14-8 1 0 12 5 15 6l-1 2z" class="J"></path><path d="M100 625l1 1v4l-1 7v6l-1-1v-5c1-2 0-4 0-5l1-7z" class="F"></path><path d="M135 322h3c2 0 4 0 5 1-4 0-7 0-11 1-2 0-6 0-7 1h0-1c1-1 1-1 1-2 3 0 7-1 10-1z" class="K"></path><path d="M577 175c1-1 1-1 2-1l2 2c0 2 0 2-2 3h-2c-1-1-1-1-1-2s0-1 1-2zm-59 145c1 0 1 0 2 1 1 0 1 1 1 2s0 1-1 2h-2c-1-1-2-1-2-3l2-2zM73 429h2l2 2c0 2-1 2-2 3h-1c-2-1-2-1-2-2 0-2 0-2 1-3zm288-245h3c0 1 0 1 1 3-1 1-1 1-2 1-1 1-2 0-2 0l-2-2 2-2zm-220-64c1-1 2 0 2 0 1 1 1 2 1 3s0 1-1 2c-1 0-2 0-3-1 0-1 0-1-1-3 1-1 1-1 2-1zm419 91h2l2 2c-1 1-1 1-1 2-1 1-2 1-3 1-1-1-1-1-2-3l2-2zm-189 94h1c1 0 2 0 2 1 1 1 1 1 0 2 0 1-1 1-2 2-1 0-1 0-2-1s-1-1-1-2l2-2zm-15-64c1-1 2-1 2 0 1 0 2 1 2 2s0 1-1 2h-2c-1 0-2-1-2-2s0-1 1-2zM74 339h3c1 1 1 1 1 3 0 1 0 1-1 2h-2c-1-1-2-1-2-2s0-1 1-3zM256 64s1 0 1 1l2 2c-1 1-1 2-2 2-1 1-2 0-3 0-1-1-1-1-1-3 1-1 1-1 3-2z" class="D"></path><path d="M194 338h12c2 0 4-1 5 0v1h-15-5 0c1 0 2-1 3-1z" class="Q"></path><path d="M561 290c1-1 2 0 3 0 0 1 1 1 1 2s-1 2-2 2c-1 1-2 1-3 0 0-1 0-1-1-3 1-1 1-1 2-1z" class="D"></path><path d="M242 280c1 4-2 12-3 16h0c-1-2 0-5 0-6l1-1c-1-3 0-7 2-9z" class="L"></path><path d="M156 427c3-4 6-7 10-9-1 2-4 4-6 6-1 2-2 4-4 7 0-1-1-2-2-2l2-2z" class="D"></path><path d="M243 537c0-2 1-3 1-5v-1c1 2 0 5 1 6s2 6 2 7c1 0 1 0 1 1v1 1h-1c0-1-1-3-1-4v-1-1c-1 0-1-1-1-1l-1 3c0-2 0-4-1-6z" class="E"></path><path d="M133 258v-2l1-1c1 0 2 0 3 1h3l5 1h0l-1 1h-2-9z" class="I"></path><path d="M137 256h3c-1 1-1 1-2 1s-4 0-5-1h4z" class="C"></path><path d="M168 437l5-5c2-2 4-6 7-7-1 1-3 3-4 5-2 2-3 5-5 9-1-1-2-1-3-2z" class="H"></path><path d="M153 61h1c1 0 2 0 2 1 1 1 1 1 1 2-1 1-1 1-3 2-1 0-1 0-2-1s-1-1-1-2c1-2 1-2 2-2zm393 396c1 0 2 0 3 1s1 1 1 2l-2 2h-3c-1-1-1-2-1-3l2-2z" class="D"></path><path d="M207 344c-2 1-6 1-9 2-3 0-6 1-9 2-1 0-1-1-2-1h0 1l-1-1h1c6-1 13-1 19-2z" class="O"></path><path d="M100 623c0-1 0-3 1-4 1-2 0-5 1-6h1v5c-2 2-1 12-1 13l-1-1v-4l-1-1v-2z" class="C"></path><path d="M100 623h0c1 1 1 2 1 3l-1-1v-2z" class="E"></path><path d="M207 342h2v1h-1s-1 0-1 1c-6 1-13 1-19 2h-1c1 0 1 0 2-1h1 0-4c1 0 2 0 4-1h0c6 0 11-1 17-2z" class="B"></path><path d="M321 226h3c1 1 1 2 1 3s-1 1-2 2h-3c0-1-1-2-1-3l2-2zm119 46c0-1 0-1 1-1s2 0 2 1c1 0 1 1 2 2-1 1-1 2-2 2-1 1-2 1-2 0-2 0-2-1-2-2s0-2 1-2z" class="D"></path><path d="M135 421l9-6c2-2 5-4 8-5-4 5-10 8-15 13v-2h0-2z" class="M"></path><path d="M437 645h3c1 1 0 2 0 3s-1 2-2 2-2 0-2-1c-1 0-1-1-1-2s1-2 2-2zM88 134c1 0 2 0 3 1 0 1 1 1 0 3 0 1 0 1-2 1-1 0-1 0-3-1v-3c1-1 1-1 2-1zm446-23c1 0 2 0 2 1 2 0 2 1 2 2-1 2-1 2-2 3-1 0-2 0-3-1s-1-1-1-3c0-1 1-1 2-2z" class="D"></path><path d="M294 256h3 5l-1 1h0-2c-1 0-4 1-4 1-1 0-1 0-1 1h-1c-1 0-2 0-3 1s-4 2-6 2v-1c1-1 3-2 4-2l6-3z" class="B"></path><path d="M516 522h3c1 1 1 2 1 3-1 1-1 2-2 2-1 1-2 1-3 0s-1-2-1-3c1-1 1-2 2-2zm-168-47h1c1 0 2 0 2 1 1 0 2 1 2 2-1 1-1 2-2 2-1 1-1 1-2 0-1 0-2-1-2-2 0-2 0-2 1-3zm84-420h1 3c1 1 1 2 1 3s-1 1-1 2c-2 1-2 0-3 0-1-1-2-1-2-3 0-1 0-1 1-2zm146 289v-1c1 1 1 2 1 3 1 0 2 1 3 1h0v1c-1 0-2 0-3 1 0 1 1 1-1 3v-1c0-1 0-2-1-3h-3l-1-1h1l3-1c0-1 1-2 1-2zM57 402h1c1 0 2 0 3 1 0 0 1 1 0 2 0 1-1 2-2 2h-2c-1-1-1-2-1-3s0-1 1-2zm330-179h1c1 0 2 0 3 1s1 1 1 3c-1 1-1 1-2 1-2 1-2 1-3 0l-2-2c1-2 1-2 2-3zm-9 262c1 0 2 0 3 1s1 2 1 3-1 1-2 2c-1 0-2 0-3-1s-1-2-1-3 1-1 2-2zm205-64c1-1 1-1 2-1 1 1 1 1 1 2 1 0 1 1 1 2-1 1-2 2-3 2h0-2c-1-1-1-2-1-3s1-2 2-2z" class="D"></path><path d="M249 356c-2-1-5-3-6-5v-1c-2-1-5-2-7-4h1c1 1 5 2 7 4 2 1 4 2 6 4 0 1-1 1-1 2z" class="M"></path><path d="M522 551h1c1 0 2 1 2 2 1 1 1 1 1 2-1 1-2 2-3 2s-2-1-3-1c0-1-1-2 0-3 0-1 1-2 2-2zM327 295l1-1c1 0 2 1 3 1v3c-1 1-1 2-2 2h-2c-1-1-2-1-2-3 0-1 0-2 2-2zM69 452h1c1 0 2 1 2 2v2l-2 2c-2 0-3-1-4-2v-3c1-1 2-1 3-1z" class="D"></path><path d="M306 286v5l1-1v-1h0l-1 11c0 2 0 4-1 4h-1c0-6 1-12 2-18z" class="O"></path><path d="M111 383c4-1 8-3 12-4-4 2-9 3-13 6l-6 6v-1h-1 1l-1-1v1l-1-1c1 0 1-1 2-1 2-2 5-3 7-5z" class="H"></path><path d="M211 81v-1c1 0 2 0 3 1s1 2 1 3-1 1-2 2h-1c-1 0-2 0-2-1-1 0-1-1-1-2s1-2 2-2z" class="D"></path><path d="M133 251h2c0 1 0 1 1 2 2 0 4 0 6 1 1 0 2-1 3 0h3 0c1 0 1 0 2 1h-1-1-3 0c-2 0-4 0-5-1-2 0-5 0-7 1-1 0-2-1-3 0h-2l1-1h1c0-1 1 0 1 0l1-1h1v-2z" class="C"></path><path d="M294 58c2-1 3 0 3 1 1 0 1 1 1 2s0 2-2 2h0c-1 1-2 1-3 0s-1-2-1-3 1-1 2-2zm-16 156c1-1 2-1 3 0s1 2 1 3c-1 2-1 2-2 2h-1c-1 1-2 0-2-1-1-1-1-1-1-2s0-2 2-2z" class="D"></path><path d="M313 404h1l4 4 4 6 1 1v2c1 1 0 1 1 1 0 2 1 3 1 6-2-2-2-5-3-7l-4-5c0-1-1-2-1-3-2-2-3-3-4-5z" class="B"></path><path d="M299 338c3-1 5-1 8-1 6 0 11-1 17 0 2 0 5 1 7 2-6-1-11-1-16-1h-8c-1 0-3 1-4 1v-1h-4z" class="M"></path><path d="M380 433c2-1 2 0 4 0 0 1 1 2 1 3-1 1-1 2-2 2-1 1-2 1-3 0-1 0-1 0-2-1v-3s1-1 2-1zm39-113h1c1 1 2 1 3 2v3c-1 1-2 1-3 2h-1c-1 0-1-1-2-1-1-2-1-3 0-4 0-1 1-1 2-2zM338 52c1 0 2 0 3 1s1 1 1 2c0 2-1 2-2 3h-2c-1 0-2-1-2-2-1 0-1-1 0-2 0-1 1-2 2-2z" class="D"></path><path d="M130 628c0-6 0-14 1-20l3-12c0 5-1 9-2 14-1 3-1 7-1 11v10 2l-1 1v-6z" class="H"></path><path d="M278 519c0 2 1 5 0 7v3c0 1-1 1-1 2v1 2l-1 2v1l-1 4h-1l1-2v-1c1-1 0-2 1-4v-3c0-1 0-1 1-1v-4-1-8h0v-1l-1-1v-7h1v2 1c0 2 0 4 1 7v1z" class="C"></path><path d="M136 279h2 2c2 0 4 1 6 2v1c-3-1-6 0-9 0-3-1-7 0-10 0v1l-1-1h0c3-2 7-2 10-3z" class="K"></path><path d="M575 242h2c1 0 2 0 3 1v3c0 1-1 1-2 2h-1c-1 0-2 0-3-1s-1-2-1-3l2-2z" class="D"></path><path d="M164 337h-25c-4 1-9 1-13 2h0-1 1c5-2 10-3 15-3s9-1 14-1c-1 1-2 1-3 1h0 3c3 0 6 0 9 1z" class="H"></path><path d="M166 350l21-4 1 1h-1 0c1 0 1 1 2 1l-20 3h-3v-1zm-11-15l37 1c-3 1-8 0-12 0h-3v1h0-13c-3-1-6-1-9-1h-3 0c1 0 2 0 3-1z" class="D"></path><path d="M278 508v-1-3c0-1 0-1-1-2 0-1 1-1 0-2 0-1-1-3-1-4h0 1l1 4v1l1 1v1 3l1 1 2 2v1 1 1h0v1 1-1c-1 0-1-1-1-1v-1c-2 2 0 7-1 8-1-1-1-2-1-3v-1l-1-7z" class="I"></path><path d="M549 403h1v3c1 1 2 1 4 1v1c-1 1-3 1-4 1-1 1 0 4-1 6l-1-1c-1-1-1-4 0-5-1-1-3-1-5-2 2-1 3 0 5-1 0-1 0-2 1-3z" class="D"></path><path d="M215 436c0 4 1 8 2 12v3c0 1 1 3 2 5 1 3 3 7 4 11h0c-1 0-1-1-2-1v-1c-4-8-6-18-7-28l1-1z" class="Q"></path><path d="M46 262h0c1 1 1 2 2 3 2 1 5 0 7 2h-7v5c-1 1 0 1-1 1h-1c0-2 0-4-1-6h-4v-1c1-1 3 0 4-1 0-1 0-2 1-3z" class="D"></path><path d="M134 245h-4c0-1 0-2 1-3s3 0 5 0c1 0 3 0 4 1h1 1v1c1 0 2 0 3 1-1 1-2 0-3 1-2 0-6-1-8-1z" class="E"></path><path d="M137 268h1c6 0 16 3 20 7h0l-8-3c-5-2-9-3-14-2-2 0-8 1-10 1l1-1c3-1 6-2 10-2z" class="N"></path><path d="M223 234h1c1 1 1 4 1 6 1 0 3 0 4 1-1 1-2 0-4 1 0 1 0 2-1 3h-1v-3c-2-1-4 0-6-1h0c1-2 4-1 6-1v-6z" class="D"></path><path d="M159 345c-3 0-5 0-7 1-6 0-12 1-17 3-4 1-8 2-12 4-1 0-2 1-3 1 11-6 23-9 35-10h3l1 1z" class="O"></path><path d="M378 678h1c1 1 0 3 1 5h5v1c-1 1-4 1-6 1v4 1h-1c-1-1-1-3-1-5h-3l-1-1 1-1h3c1-2 1-3 1-5zm103-351h2l2 2v3c-1 1-2 1-3 2-2 0-2 0-4-2v-3c1-1 2-1 3-2z" class="D"></path><path d="M306 520h0c-1 1 0 3 0 5 0 7 0 13 2 20 0 2 2 6 1 8h0c-3-7-4-15-4-22-1-5-2-11 0-15 1 1 1 2 1 4z" class="N"></path><path d="M543 483c1-1 1-1 2-1s2 1 3 2 1 2 1 3-1 2-2 2h-1c-1 1-2 0-3 0-1-1-1-2-2-4l2-2zm20-395h1c1 2 1 5 1 6h3l1 1c-1 1-3 1-5 1v6 1l-1-2-1-5h-3c-2 0-2 0-3-1 1-1 5-1 7-1v-6zm-406 3c0-1 0-1 1-1 1 1 2 1 3 2v4c-1 1-2 1-4 2l-2-1c-1 0-1-1-2-2 0-1 0-2 1-3s2-1 3-1z" class="D"></path><path d="M192 336l19-1v1 1h-34 0v-1h3c4 0 9 1 12 0z" class="H"></path><path d="M579 467h2c0 1 1 2 2 3 0 1-1 2-1 3-1 1-2 1-3 2-1 0-2 0-2-1-1 0-2-1-2-2v-2c1-2 2-2 4-3z" class="D"></path><path d="M175 343c2-1 4 0 7 0l12-1h13c-6 1-11 2-17 2h-9-4-7v-1h5z" class="H"></path><path d="M170 343h5 0 8 4c-1 1-4 1-6 1h-4-7v-1z" class="D"></path><path d="M126 328h0 1l2-1h3c2 0 4-1 6-1v1h-1c-1 0 0 0-1 1h-3-1-2c1 1 1 1 2 1 2-1 4 0 6-1h1v1h-4c-3 1-7 1-10 2-2 0-3 2-5 2h0v-1l-1-1c2-1 5-1 7-3z" class="F"></path><path d="M271 343l7-1-1 1c2 1 5 1 7 1 1-1 2-1 2-1h7 2 5c2 1 4-1 5 1-1 1-3 0-5 0h-9-7c0 1 0 1-1 1h0-3-8l-2-1h0 1c1 0 1 0 1-1h-1z" class="I"></path><path d="M443 75h3c1 1 2 1 2 2 1 1 1 3 1 4l-2 2h-2c-1 0-2-1-3-2s-1-2-1-4c1 0 2-1 2-2zM46 359h3c1 1 2 1 2 2 1 1 1 2 0 3 0 2-1 2-2 3h-2c-1 0-2-1-3-2 0-1-1-2 0-3 0-1 1-2 2-3zm302-43h1c2 0 3 0 3 1 1 1 1 2 1 3 0 2 0 2-2 3l-1 1c-2 0-2 0-3-1-2-2-1-4-1-5s1-2 2-2z" class="D"></path><path d="M178 451h0c1-4 3-7 5-10 1-4 2-8 4-12 1-1 1-2 2-3 0 3-2 5-3 8l-3 14c0-1 0-1-1-2v1l-1 2c-2 3-2 6-3 9v1l-1 1v-1-3c1 0 1-1 1-2v-1h0v-2h0z" class="M"></path><path d="M349 429c1-1 2-1 3-1l2 2c1 1 1 3 1 4-1 1-2 1-3 2h-2c-1 0-2-1-3-1 0-1-1-2 0-3 0-2 1-3 2-3zm15 15h1c1 1 1 8 1 9 2 0 4 0 5 1h1c-2 1-5 1-6 1v7 1l-1-1c-1-2-1-5-1-7-2 0-6 1-7 0h0c2-1 5-1 7-2v-9z" class="D"></path><path d="M196 339c-2 1-4 1-6 1h-11c-11 0-22 0-33 1 7-2 14-2 21-2l27-1c-1 0-2 1-3 1h0 5z" class="N"></path><path d="M296 499h0c1-2 1-3 1-5 0 2 0 3 1 5 0 2 0 4 1 6l1-1c1 4 2 9 1 13h-1c-4-5-4-12-4-18z" class="C"></path><path d="M296 499h0c1-2 1-3 1-5 0 2 0 3 1 5 0 2 0 4 1 6v7h0 0c-1-1-1-2-1-3v-2h-1v-8h-1z" class="F"></path><path d="M118 414h0c1 0 1-2 2-2 1-2 2-3 4-4 4-4 10-7 15-10-2 2-5 4-8 5-4 3-7 6-10 10l-3 6h0 0v2c-1 2-1 2 0 4l-1 1-1-1v-3-1c0-2 0-5 2-7z" class="D"></path><path d="M236 513h1c-1 2-3 6-3 8 1 1 1 1 1 2h0l-1 1v1s0 1 1 2h0 0c0 1-1 2-1 3-1 2-1 5-1 7 1 5 3 10 5 15 1 1 2 3 2 4-1 0-2-2-2-3-4-8-7-16-6-25 1-5 2-11 4-15z" class="R"></path><path d="M234 521c1 1 1 1 1 2h0l-1 1v1s0 1 1 2h0 0c0 1-1 2-1 3-1 2-1 5-1 7-1-5 0-11 1-16z" class="C"></path><path d="M138 309h13c2 1 5 1 7 2l-1 1c-5-1-11-2-17-2 1 1 4 1 5 1l4 1c2 0 6 1 7 2-1 1-3 0-4 0l-15-3c-1 0-3 0-5-1 1-1 5-1 6-1zm144 204c1 2 1 4 2 6 0 3 1 6 2 9 0 4-1 8-2 12 0 5 0 11 1 17v5 1c-1-2-1-5-1-8 0-4-1-8-1-13s1-11 1-16c0-4-2-8-2-12v-1z" class="L"></path><path d="M123 417h0c3-2 4-4 6-5s3-2 4-3c3-2 8-5 11-6-4 3-8 5-12 9l-7 7c-1 2-2 3-3 4h-1s0 1-1 1h0c1-1 1-2 1-3s1-3 2-4z" class="H"></path><path d="M248 503h0c1-4 0-9-1-12v-1c-1-4-4-9-7-13-2-2-5-3-7-5l1-1c3 2 7 6 9 9 4 5 6 9 6 15h0c1 5 0 11-2 15 0 1 0 3-1 4v1c-1-2 0-3 0-4l1-5 1-3z" class="K"></path><path d="M538 151c1 0 1 0 2 1 1 0 3 1 3 2 1 1 1 3 0 4 0 1-1 1-2 2h-2c-1 0-2-1-3-2s-1-2-1-4l3-3zm-24 289c1-1 2 0 3 0s2 0 2 1c1 2 1 4 1 5-1 1-2 2-3 2h-1c-1 0-2-1-3-2s-1-2-1-4c0-1 1-2 2-2zM109 146c1-1 1-1 2 0 1 0 3 1 3 2 1 1 1 2 1 3-1 1-2 2-3 2-1 1-2 1-3 0-1 0-2 0-2-1-1-1-1-3-1-4 1-1 2-2 3-2z" class="D"></path><path d="M252 358c0-1 1-1 1-1 11 7 24 15 31 25l-32-24z" class="J"></path><path d="M102 631c0-1-1-11 1-13 0 9 1 19 0 28 0 6-2 13-4 19-2 3-3 7-5 10 0-1 2-6 3-8 2-5 3-10 4-16 2-7 1-13 1-20z" class="L"></path><path d="M136 637l1-2h1c2 18 8 36 23 47l1 2h0c-12-6-19-22-23-34-1-4-2-9-3-13z" class="H"></path><path d="M529 264c1-1 2 0 3 0s2 1 3 1c1 2 1 3 1 5l-2 2h-3c-1 0-2-1-3-1-1-2-1-3-1-5 0-1 1-1 2-2z" class="D"></path><path d="M130 628v6l1-1v-2c0 3 1 5 1 7v1l3 11h0v1-1c-1-1-1-3-2-4 0-1 0-2-1-4v1c0 3 1 5 2 8 2 9 7 18 14 26l4 4c1 0 2 1 2 2-1 0-5-4-6-5-8-9-15-21-17-33-1-6-1-11-1-17z" class="Q"></path><path d="M267 335h1c10 0 20-4 30-3l-13 2c-15 2-30 4-45 4v-1h4c5-1 10 0 15-2 3 1 5 0 8 0z" class="M"></path><path d="M308 182h2c1 0 2 1 3 3 1 1 1 2 0 3-1 2-2 2-3 3h-3l-2-2c-1-2-1-3 0-5 0-1 1-2 3-2zM69 230c2 0 4 0 5 1s1 2 1 3c0 3-1 4-3 5h-3c-1 0-2-1-3-2v-4l3-3zm272-26h1c2 0 3 1 4 2s1 4 0 5c0 1-1 2-3 2h-2c-1 0-2-1-3-2 0-1-1-3 0-5 0-1 1-2 3-2z" class="D"></path><path d="M257 342l42-4h4v1l-25 3-7 1h-8-6 0-1l1-1z" class="O"></path><defs><linearGradient id="A" gradientUnits="userSpaceOnUse" x1="141.19" y1="249.87" x2="142.945" y2="245.652"><stop offset="0" stop-color="#070608"></stop><stop offset="1" stop-color="#252525"></stop></linearGradient></defs><path fill="url(#A)" d="M145 245l6 3h1c1 1 3 2 3 3h-2 0l1 1v2l-2-1s-1-1-2-1c-1-1-2-1-4-2h-1l-2-1h0-1l-2-1s-1 0-1-1h-5c-1 0-1 0-2-1-1 0-1 0-1-1h3 0c2 0 6 1 8 1 1-1 2 0 3-1z"></path><path d="M479 67h1v10h5c1 0 3 0 4 2h0-9v8l-1 1c-1-2-1-7-1-9-2 0-6 0-8-1h0c2-1 5-1 8-1 0-3 0-7 1-10z" class="D"></path><path d="M305 516c1-8 2-16 1-24-1-4-2-7-3-10 2 4 4 9 5 13 0 6-1 11-1 16-1 8 0 17 4 24 2 5 5 8 8 12h0c-2-2-4-3-5-5-5-7-7-14-8-22 0-2 0-3-1-4z" class="P"></path><path d="M136 630c-1-4-1-8-1-12 1-11 4-23 7-33l5-13h1c0 3-2 6-3 8-2 4-3 9-4 13-2 7-4 15-4 23 0 6 1 12 1 18-1-1 0-4-1-5h-1v1z" class="Q"></path><path d="M258 353l24 8 22 7c3 1 7 2 9 4-1 0-3-1-4-1l-7-3-14-3-31-10c0-1 1-1 1-2zm258 118h1c2 0 4 2 5 3s1 2 1 4l-3 3c-1 0-2 1-3 0-2 0-3-1-3-2-1-1-1-4-1-5l3-3zM391 57h1c2 0 3 1 4 2s2 3 1 4c0 2-1 3-3 4h-3c-1 0-2-1-3-2s0-3 0-5c0-1 1-2 3-3zm183 56c1-1 2-1 3-1 2 1 3 1 3 2 1 2 1 3 1 4-1 2-2 3-3 4h-3c-2 0-3-1-3-2-1-1-1-3-1-4 0-2 1-3 3-3z" class="D"></path><path d="M284 261c-1 1-2 1-3 2-2 1-3 3-5 3-1 0-2 1-2 2h-1v-1l1-1v-1c1-1 3-4 5-4 1-1 0 0 0-1 2-1 3-2 5-3 0-1 1-1 2-1 1-1 3-2 5-3h1l2-1c1 0 4 0 5-1h0 1v1h-1c-1 0-2 0-3 1h-1-2c0 1-1 1-1 1l-2 1h1 0c0 1 0 1 1 1h0 2l-6 3c-1 0-3 1-4 2z" class="E"></path><path d="M290 255h1 0c0 1 0 1 1 1h0l-2 1c-1 0-3 1-4 2l-3 2c-1 0-2 0-3 1v-1l1-1c2-1 3-2 4-3s3-2 5-2z" class="B"></path><path d="M426 288s1 0 2 1c1 0 2 1 2 3 1 1 1 3 0 5-1 1-2 2-4 2h-2l-3-3c0-1 0-4 1-5s2-2 4-3z" class="D"></path><path d="M319 400h1s1 1 1 2l3 3h1l1 1 2 2 1 2c0 1 1 1 2 2 0-1 0-2-1-4v-1-1c1 1 1 1 1 2v1c1 1 0 1 1 2v2c1 1 0 3 0 4 1 1 1 1 1 2h-1c-1 1 0 2 0 2v7c-1 1 0 3-1 4v3c-1 2 0 6-2 8v-3c0-1 1-2 1-3s-1-3 0-4c1-3 1-10 0-12v-3h0c0-1 0-1-1-1v-2l-1-1c0-1-1-3-2-4h0l-4-6h0l-2-2c0-1-1-1-1-2z" class="I"></path><path d="M252 342h-4c2-1 5-1 7-2l11-1 9-2 17-3 15-3h10 1l-12 2-19 3-24 4c-2 1-4 1-6 2h-5z" class="J"></path><path d="M257 217h3c1 0 2 1 3 3 1 1 1 3 0 4 0 2-2 3-3 3-1 1-3 1-4 0-1 0-2-1-2-2-1-1-1-3 0-5 0-1 2-2 3-3z" class="D"></path><path d="M145 257c6 2 14 4 19 8 1 2 3 3 4 5-6-3-11-6-17-8-4-1-7-2-11-3h-7c0 1-6 1-6 1h-1c2-2 5-2 7-2h9 2l1-1h0z" class="N"></path><path d="M183 460c0-7 3-14 6-20l5-11c0 2-1 4-2 6l-2 7h1l1 1c-2 5-4 13-7 18h0c0 1 0 1-1 2h0v-2-1h0-1 0z" class="J"></path><path d="M190 442h1l1 1c-2 5-4 13-7 18l5-19z" class="B"></path><path d="M46 290h3c1 1 3 2 3 4 1 1 0 3 0 4-1 2-3 2-5 3-1-1-3-1-4-1-1-1-2-2-2-4 0-1 0-3 1-4s2-2 4-2zm3 198h3c2 1 3 2 3 4v4c-1 2-3 2-5 3h-3c-1-1-2-2-2-3-1-2-1-4 0-6s3-2 4-2zm-6-46l1-1c1 0 3 0 5 1 4 3 0 8-1 11v5h0v-1c-1-2-1-4 0-6h0-1-4c-2-1-3-1-3-2-1-1-1-3 0-4 0-2 2-3 3-3zm456-154h4c2 1 3 2 3 3 1 1 1 3 0 4 0 2-1 2-3 3h-4c-1 0-3-1-3-3-1-1-1-2-1-4 1-2 2-2 4-3z" class="D"></path><path d="M297 494c1-5 2-12-2-17h0-1c-2-3-6-6-9-8s-7-4-9-6c-8-6-15-15-18-23 0-1 0-2-1-3 0-2-1-3-1-5v-1c1 1 1 1 1 2 1 6 4 10 7 15 1 3 3 5 5 7s4 5 7 6c3 3 7 5 11 8 2 2 5 4 7 6s4 5 5 8c1 7-1 14 1 21l-1 1c-1-2-1-4-1-6-1-2-1-3-1-5z" class="N"></path><path d="M207 52c1 0 2 0 3 1 2 0 3 1 3 2 1 1 1 2 0 4 0 2-2 4-5 5h-4c-1-1-2-2-2-3-1-2 0-4 0-5 1-2 3-3 5-4zm288 575c1 0 3 0 4 1 2 0 3 2 4 3 0 1 0 3-1 4-1 2-2 3-4 3h-4c-2-1-3-1-3-3-1-1-1-3 0-4 0-2 2-3 4-4z" class="D"></path><path d="M232 499h0c1-1 1-3 1-4 1-3 0-7 0-9l-3-22c-1-1-1-3-1-3 1 1 2 3 2 5 2 7 3 14 4 22 0 1-1 6 0 7s2 3 2 4c1 2 2 5 3 7 1-8 4-17 1-25h1c2 3 1 13 1 17-1 2-1 4-2 6v2c0 1 1 3 1 4v2c-1-2-1-4-2-5h-1v1c0 1 0 3-1 4l-1 1h-1v-1c0-2 1-3 1-5 1 0 1-1 1-2s-2-4-2-6c-1-2-1-3-1-5l-4 16c-1 2-1 4-3 6h0l4-17z" class="N"></path><path d="M559 308h3c2 0 3 1 5 2 1 1 1 4 0 5 0 2-2 4-4 5h-3c-2 0-3-1-4-2-1-2-1-4-1-5 1-3 3-4 4-5z" class="D"></path><path d="M243 342h0 5c3 2 6 2 9 3l22 6 12 3c17 4 37 8 47 24h0 0c-4-4-7-7-11-10s-7-4-11-6c-1 0-2-1-4-1l-8-3c-2-1-5-1-7-2l-13-2c3 1 5 2 8 2 1 1 3 1 5 2 2 0 4 0 5 1 2 0 5 1 7 1 1 1 5 1 5 3-8-4-18-4-27-7-2 0-4-2-6-2l-17-6-13-4c-3 0-5-1-8-2z" class="H"></path><path d="M577 391h4c2 0 3 1 3 2 2 2 2 5 1 7-1 3-2 4-4 5-1 0-3 0-4-1-1 0-3-2-4-4 0-1 0-4 1-6 0-2 2-2 3-3z" class="D"></path><path d="M331 562l1 2c2 1 4 2 5 3 5 4 10 5 16 5 7 0 14-2 21-5-5 4-11 5-17 6-3 1-6 2-11 2-6 0-14-3-19-8 1 0 1 0 1-1 1-1 1-2 2-3l1-1z" class="L"></path><path d="M330 563c4 3 9 7 13 9 3 1 5 1 8 2-7 0-13-1-19-4-1-1-2-2-4-3v-1c1-1 1-2 2-3z" class="G"></path><path d="M545 517c1 0 3 0 5 1 1 0 3 2 3 3 1 2 1 4 0 6s-3 2-5 3c-1 0-3-1-5-1-1-1-3-2-3-3-1-1-1-3 0-5s2-3 5-4zM329 260c1 0 2-1 4 0 1 0 3 2 4 3 1 2 1 4 1 6-1 2-3 3-5 4h-3c-2 0-4-1-5-3-1-1-1-5 0-6 1-2 2-3 4-4z" class="D"></path><path d="M204 452c0 1 0 2 1 3v1-1h1c0 3 1 5 3 8 1 3 2 5 4 8 1 2 2 5 3 7 0 1 1 2 1 4h0c1 1 1 3 1 4v2c-1 1-1 2-1 3v10c1-3 1-6 1-9v-3c1 1 1 2 1 4 0 3-1 6-1 10-1 2-4 7-6 9h0c1-3 2-5 3-8 0-2 1-4 1-6 0-7 0-16-3-22-1-5-4-10-7-15 1 6 4 11 5 17s0 13-2 19c-1 2-2 6-3 8l-1 1-1-2h1c4-7 6-17 5-25-1-6-3-11-5-17-1-3-1-6-1-10z" class="P"></path><path d="M221 434c0-1 0-2-1-3 0-2 0-7 1-10 1 4 0 9 0 12 1 10 6 18 11 25l6 6c-7-12-12-24-12-38v-6l1 9c0 6 2 13 4 20 2 6 6 12 10 18 1 2 2 4 4 6 8 12 18 23 18 38 1 8-2 16-3 23v13c1 4 1 8 2 11 1 7 6 13 10 18 2 2 4 3 6 5-3-1-5-3-7-5-5-4-8-11-10-17-1-3-1-7-2-10v-13l2-9c0-2 1-3 1-5 0-5 1-9 0-14-2-11-8-20-14-29l-9-11c-6-7-12-13-15-22-2-3-2-6-3-9v-3z" class="R"></path><path d="M314 366l10 5c8 4 14 15 16 23h0c-1-1-1-3-2-4-3-6-7-13-12-17-1-1-3-2-5-2 0 0 1 0 1 1 2 1 5 4 6 6-2-1-5-4-7-6-4-6-41-15-50-18l-14-5c-6-2-14-5-20-8 2 0 4 1 5 1l1 1v-1c3 1 5 2 8 2l13 4 17 6c2 0 4 2 6 2 9 3 19 3 27 7h1c0 1 0 1 1 1-1 0-2 0-3-1h-1 0l-2-1h-2l-1-1h-1-1 0c-1-1-2-1-2-1-1 0-3 0-4-1h-1 0-2c1 1 2 1 3 1 1 1 0 1 1 1 2 0 3 1 5 1h1c0 1 0 1 1 1h1 0l1 1h1 1c1 1 0 1 1 1h1c1 0 2 0 3 1h-2z" class="J"></path><path d="M243 342c3 1 5 2 8 2l13 4 17 6c2 0 4 2 6 2 9 3 19 3 27 7h1c0 1 0 1 1 1-1 0-2 0-3-1h-1 0l-2-1h-2l-1-1h-1-1 0c-1-1-2-1-2-1-1 0-3 0-4-1h-1 0-2c1 1 2 1 3 1 1 1 0 1 1 1 2 0 3 1 5 1h1c0 1 0 1 1 1h1 0l1 1h1 1c1 1 0 1 1 1h1c1 0 2 0 3 1h-2l-71-23v-1z" class="B"></path><path d="M249 462l6 8c1 2 2 3 3 4 2 2 3 3 4 5 3 3 5 7 6 10v1c1 2 1 4 1 7 2 5 1 13 0 19v2c-1 1-1 2-1 3l-2 7-1 3s0 1-1 1h0c0-1 0-2 1-2v-1c0-2 1-5 2-8v-1c0-2 1-4 1-6v-1c1-2 0-3 1-5v-4c-1-2 0-5-1-7v-4c-1-1-1-3-2-5 0-1-1-3-2-4 0-1-1-2-1-3h-1c-2-4-5-7-8-10-5-6-10-13-14-19-1-2-2-4-2-6-3-7-5-16-5-24 0-3 0-6 1-9v7l1 4c2 6 3 12 5 17 3 8 7 15 11 22h0l-2-1h0z" class="L"></path><path d="M235 424v1l-1-1v-4h0l1 4z" class="N"></path><path d="M249 462c-4-4-8-10-10-16h0c-1-1-1-3-2-4-1-5-2-9-2-14h0c3 12 8 23 14 34h0z" class="B"></path><path d="M306 286c1-11 2-38-5-46-1-1-2-2-3-2-9 0-31 21-38 27l-6 5c-1 1-2 3-4 3-1 1-1 1-2 0 2-3 7-7 10-10 11-9 23-22 38-26 1-1 3-1 4 0 4 2 6 9 7 13 3 12 2 26 0 39h0v1l-1 1v-5zm-83 45c3 0 7 0 10 1 2 0 3 1 3 3 0 4-5 2-6 5-3 4-1 10-4 14h-2c-4-2-2-10-4-14-1-2-3-2-5-2l-2-2c0-1 0-2 1-3 2-2 7-1 9-2z" class="D"></path><path d="M290 546h0c-1-3-1-7-2-10 0-2-1-5-2-8v-13c0-4-1-8-3-11l1-1c0-1 0-2-1-3v-2c1 1 1 1 1 2v1c1 1 1 2 1 3s0 3 1 4c0 3 1 5 1 7v13c0 3 2 5 2 8 0 2 1 4 1 6 2 11 6 21 12 29 2 0 7 0 8 1-2 1-7 0-8 0 4 5 7 10 13 13h0c-2 0-6-4-7-5l-5-5c-1-1-2-2-2-3-1 0-2-1-3-1l-9-3c3 4 5 9 9 13h-1c-3-3-5-7-8-10-1-2-1-3-2-5-2-1-4-3-6-4l5 12h0c-1-1-1-2-2-3h0c-1-3-3-6-3-8-1-3-5-7-7-9-1 1-1 1 0 2v1 1c1 0 1 1 1 1v1 1l1 1v2s0 1 1 1v1 2l1 2c1 2 2 3 2 4v1h1c1 0 2 1 2 2 2 1 3 3 5 4 2 2 5 4 7 6h-3v-1s-3-1-4-2-3-2-4-3c-5-5-11-13-13-20-2-5-2-10-3-16 0-3-1-6-1-9-1-8 3-17 6-24 0 5-3 10-4 15-2 8-1 17 4 24 3 4 13 15 18 16h1c3 2 6 3 10 4-2-1-3-4-4-6l-2-2 2 6h0c-4-6-4-13-7-19 0-1-1-2-1-4z" class="Q"></path><path d="M280 574c-4-4-8-11-9-17l-2-10 5 7c-1 1-1 1 0 2v1 1c1 0 1 1 1 1v1 1l1 1v2s0 1 1 1v1 2l1 2c1 2 2 3 2 4zm-28-232h5 0l-1 1h1 0 6 8 1c0 1 0 1-1 1h-1 0l2 1h8c1 1 2 0 4 0 7 2 16 0 23 3 1 0 4 0 5 1 5 1 9 4 13 6 0 1 0 1 1 1-4 0-7-1-10-1l-25-3h0c0 1 1 1 2 2h-2l-12-3-22-6c-3-1-6-1-9-3h4z" class="B"></path><path d="M273 347l4 1h0-3-2 0v-1h1z" class="O"></path><path d="M277 348c2 0 5 0 7 1h-3v1c-2 0-5-1-7-2h3 0z" class="J"></path><path d="M272 348c-5-1-10-2-14-4 5 0 10 1 15 3h-1v1h0zm9 2v-1h3l41 6c0 1 0 1 1 1-4 0-7-1-10-1l-25-3-10-2z" class="D"></path><path d="M199 437v-1c1 0 1 0 1-1h0v-4h0l1-1v1 4c-1 1 0 7 0 9h0c1-1 0-2 1-3v-2c0 2 1 5 0 6v1 1 1h0l1 1v-2c1 1 1 2 1 3v2c0 4 0 7 1 10 2 6 4 11 5 17 1 8-1 18-5 25h-1c-1-6 0-10 1-16l-1-1h0l-1 8-2-9-1-1h0c-1-1-1-1-1-2 1-3-1-9-1-12-1-6-1-11-1-16 0-6-1-13 2-18h0z" class="B"></path><path d="M204 487v-13c-1-5-3-9-4-13 0-3-1-4 0-7l1 8c2 4 3 9 4 13s0 9 0 13l-1-1h0z" class="M"></path><path d="M199 483c1-3-1-9-1-12-1-6-1-11-1-16 0-6-1-13 2-18h0c-1 5-1 11-1 16v13l3 20-1-1h0c-1-1-1-1-1-2z" class="D"></path><path d="M221 465v1c1 0 1 1 2 1h0c2 3 3 7 4 10 1 4 3 10 3 15 1 2 1 5 1 8 0-1 1-1 1-1l-4 17-1 1c-1 6-2 14-2 20 0 3 1 5 1 7-1 0-1 0-1-1-1-1-1-2-2-2-2-1-3-3-4-5-5-6-9-13-11-20l-1-1c1 0 1-1 2-1h0c1 0 2-1 3-1 3-2 6-3 7-6l2-2c7-12 3-27 0-40z" class="G"></path><path d="M229 490l1 1v1c1 2 1 5 1 8 0-1 1-1 1-1l-4 17-1 1c-1 6-2 14-2 20 0 3 1 5 1 7-1 0-1 0-1-1s-1-3-1-4v-12l3-17c1-2 2-5 2-7 1-4 0-9 0-13z" class="P"></path><path d="M231 500c0-1 1-1 1-1l-4 17-1 1 4-17z" class="B"></path><path d="M221 465v1c1 0 1 1 2 1h0c2 3 3 7 4 10 1 4 3 10 3 15v-1l-1-1c0-4-2-10-4-14 0 2 1 6 1 8 0 7 0 13-3 20-1 2-2 3-3 5-2 3-5 7-9 10v-1c2-3 5-5 8-8-4 2-7 5-11 6l-1-1c1 0 1-1 2-1h0c1 0 2-1 3-1 3-2 6-3 7-6l2-2c7-12 3-27 0-40z" class="R"></path><path d="M312 491v-2c-1-1-2-3-3-5s-2-4-2-6l-2-7c0-3-1-6-2-8s-2-5-3-7l-1-1v-1c-2-2-3-4-4-7l-2-3c0-1-1-2-2-3-2-4-6-6-8-10l-3-3-2-2h1 0c3 3 6 6 9 10l2 2c0 1 2 2 2 3 2 2 3 5 5 7l3 7 1 1v1c1 0 1 1 1 1v1l3 6h0v2l1 3 1 1v2c0 2 0 3 1 4v1 1l1 3c1 1 1 2 2 3l1 2c1 1 1 2 2 3 3 5 8 9 11 13l3 5c1 1 1 2 2 4 1 1 1 3 2 4v2c1 1 1 2 1 2l2 9c1 1 0 3 1 4h1c2 0 3 2 5 2 1 1 2 1 3 1h2c1 1 3 1 4 1v-1l1 1c-1 1-1 0-2 1-1 0-2 0-4-1-1 0-2 0-4-1h0c-2 0-4-2-6-2h0v1 7 2 2h0c-1 1-1 2-1 3 0 0 0 1-1 2v3h1l1 2c-1 0-2-2-3-2l-2 6v2l-1 1c-1 1-1 2-2 3 0 1 0 1-1 1 0 1 0 3-1 4s-2 3-3 4v1l2 1c3 2 8 2 12 3h7c3 0 6 0 10-1 7 0 14-3 21-5-1 1-3 2-5 3-6 2-12 3-18 4h-8c2 1 5 1 8 2 1 0 6 0 7 1 1 0 1 0 1 1-1 0-2 0-3 1-1-1-3-1-4-2-2 0-5-1-8-1-1-1-3-1-4-2-6-1-12 0-18-3 0-1 0-1-1-1l-3 5-1 1s0 1-1 2h0c-1 1-1 2-2 2h0c0-2 2-4 3-6 1-1 2-2 2-3s1-2 2-3l5-9c0-1 1-2 2-3v-1c-1-1-2-1-2-2l-2-4c-2-3-4-6-5-10-1-2-1-3-1-4-1-1-1-1-1-3h1l1 4 1 3c0 2 1 4 2 6s2 4 3 5l3 4 3-5 1-5v-1c1-1 1-4 1-5s-3-4-3-5v-1c0-1 0-1-1-2v1c-1 0-1-1-1-1-1-1-1-1-1-2l-1-1c0-1-1-1-1-2v-1c-1 0-1 0-1-1h0c0-1 0-1-1-2v-1c-1-1 0-1 0-2-1-1-1-3-1-5-1 0-1-1-2-2l-1-2c-1 0 0 0-1-1l-1-1v-1c-1-1-1-1-1-2s-1-1-1-2l-1-2h0v-2s-1-1-1-2l-1-3v-4h0v-1-2s0-1-1-2z" class="N"></path><g class="B"><path d="M323 520v1l4 4c1 2 4 5 6 7 1 0 1 0 1 1l1 2v8c-2 0-3-3-4-4 0-1 0-1-1-2v1c-1 0-1-1-1-1-1-1-1-1-1-2l-1-1c0-1-1-1-1-2v-1c-1 0-1 0-1-1h0c0-1 0-1-1-2v-1c-1-1 0-1 0-2-1-1-1-3-1-5z"></path><path d="M312 491c3 2 5 4 7 7 1 2 3 3 4 4l4 6c4 6 5 13 7 20v2c-2 0-6-4-7-6v-1l-1-1c-1-1-2-3-3-4l-3-3h0l-1-2c0-1-1-1-1-2s-1-2-1-2v-1-1l-2-5-1-5s0-1-1-1v-1-2s0-1-1-2z"></path></g><path d="M183 302c3-1 5 0 8 0 6 3 13 10 16 16-1 4-3 7-6 10s-7 6-11 6c-2 1-3 1-5 1l-2-1c-9-1-18-10-23-17 6-7 14-13 23-15z" class="D"></path><path d="M187 304h0c1 0 2 1 2 1 3 3 4 8 3 12 0 3-1 7-3 9h-2c-1 0-1 0-1-1-3-3-3-11-2-16 0-2 1-4 3-5z" class="G"></path><path d="M259 335h-2-7-10 1c5-1 10-1 15-1h0c-7-3-13-10-16-17 1-3 3-4 4-6 5-5 13-11 21-10 9 0 19 8 25 15l-3 3c-5 6-12 14-20 16-3 0-5 1-8 0z" class="D"></path><path d="M265 304h1c1 0 1 0 2 1 2 2 3 7 3 11 0 3-1 6-3 8l-1 1c-2 0-2 0-3-1-2-3-2-8-2-11s1-7 3-9z" class="G"></path><path d="M360 585c14-5 25-13 32-25 4-6 6-13 7-20s1-14 1-21v-26-52c-1-11 0-21-3-31-2-9-8-17-16-21-5-3-10-4-16-3-4 1-8 2-12 4l-1-40h188v40l-11-2c-7-1-15 0-21 4-6 5-9 13-10 20-1 9-1 18-1 27v52 36c0 9 0 17 1 26 1 5 2 11 6 15 4 5 9 7 15 8l1 23c-8-3-16-6-24-4s-15 6-21 10l-23 13c-45 25-97 39-149 35-62-4-118-39-158-85 0 2-1 4-2 6 0-2 1-5 2-6 0-1-7-9-8-10-3-4-5-9-8-13-5-9-10-18-14-27l-5-14-2-8-1 1c-4 7-12 12-18 16-3 2-6 4-9 5 9-6 20-12 26-21 0-1 1-2 2-2 0-1-1-4-2-5-3 5-8 10-13 14l-15 13c-11 9-21 17-27 30l-3 15c0 3 0 6-1 8v3h0c0-10 1-21 5-30 3-6 7-10 11-15l9-8v-5c1 1 1 3 1 4h0c3-1 5-4 7-5 6-5 12-10 17-15 3-2 5-5 7-7 0-1 2-3 2-3 0-2-1-4-1-6-5 12-19 20-29 28-1 1-3 3-5 4-1 1-3 3-5 4-4 4-8 8-11 13h-1c2-4 5-7 8-10l6-6c1 0 3-2 3-3v-2h1v1h0c3-2 6-4 8-6 7-6 16-11 21-19 1-1 3-4 3-5v-2l-1-7-3-12-1-9c-1 1-1 3-1 4l-3 6c-2 5-6 10-9 15-5 8-9 17-12 26 0-2 1-4 1-5 3-8 7-16 11-22 5-9 10-16 12-26 1-2 0-5 0-7l-1-15-2-37v-7c0-1-1-1-1-2 1-3 0-7 0-10l1-19 2-48c1-15 2-29 5-44 8-40 24-80 51-111 12-13 26-25 40-35 22-15 46-23 71-29 22-5 43-9 66-8 15 0 31 2 46 4 19 2 39 6 57 13 10 4 20 8 30 14l15 7c6 4 13 8 20 9s14 0 19-4v101c-2 1-6 0-8 0h-18l-76 1v-3c0-4 0-9-1-13-2-15-9-31-20-42-18-18-43-20-68-20-11 0-23 0-34 2-19 4-38 15-52 29-11 11-18 23-25 38-8 18-14 37-13 57-4 0-7 1-10 2-1 0-5 2-6 2v-1l-6-6-14-12c-4-3-7-7-11-9-5-4-11-8-18-9-2 0-4 0-7 1-3 3-4 7-5 11-5 16-4 33-2 49 0 7 3 15 2 22l-7 2h5 1c0 1 0 1-1 1-1 3-5 3-8 4-1 0-3 0-4 1l1 1c1-1 2-1 2-1h2c1 0 1 0 2 1 1 0 1-1 1-1h3 0l4-1c-2 2-5 2-7 3l1 1v1h0l-1 1 2 2s1 0 1-1v1s0 1-1 1c-6 3-11 5-16 9-1 1-2 1-3 3 5-3 9-5 13-6 3-1 5-2 7-3-5 4-10 6-14 9v1c3-2 6-5 10-6-5 5-11 8-16 13 1-1 3-1 4-2 2-1 9-6 11-6-2 2-6 3-8 6 4-2 9-4 13-6l-11 9c-1 1-3 2-4 4 3-2 6-6 10-7l1-1v1c-6 3-12 9-16 16 2-2 3-4 6-5 3-2 7-3 11-5 11-4 20-7 31-9l1 1c-13 2-24 5-36 12h3c-2 1-4 2-5 3-1 0-2 1-2 2h0c3-1 7-1 10-2 1 0 3-1 4-1l-17 8v1c3-1 5-2 7-3l-12 8h0 0c2-1 3-1 4-2l1 1s6-3 8-3c2-1 5-2 8-2-5 3-11 4-16 7v2h1c1-1 1-1 2-1-2 2-5 3-7 5-1 0-1 1-2 1l1 1v-1l1 1h-1 1v1 1h0l3-3c1-1 3-2 4-2v1l-3 2-3 3h1c3-3 6-5 10-7l14-8c12-6 25-11 37-16l25-10c3-1 7-3 11-4-7 4-14 6-21 9l-22 9c-14 6-29 11-41 20v1 1c-3 2-7 5-9 8-1 3-7 10-7 13 1-1 2-4 3-5 6-9 15-14 26-16-3 1-6 2-9 4-4 2-8 6-12 9-2 3-4 5-5 8v1c5-6 10-10 18-14 2-1 4-2 6-2l1-1c-1 1-2 1-3 2-2 1-4 2-5 3 1 1 1 1 2 1l9-3 2-1c-4 3-9 4-13 7-3 2-6 6-8 9-1 3-3 6-3 9v1c2-5 4-11 8-14 3-4 7-5 11-7-1 1-3 2-5 3-4 3-6 7-8 11-2 2-2 5-2 7v1 3l1 1 1-1c-1-2-1-2 0-4v-2h0l1-1c3-7 11-12 18-14-1 1-3 2-5 3-4 2-6 6-9 10h0c-1 1-2 3-2 4s0 2-1 3h0c1 0 1-1 1-1h1v1c6-5 11-12 19-15-4 4-10 8-12 14 5-3 9-8 14-10l-11 10-1 1c1 1 2 0 3 1-2 2-4 4-5 6h1c4-6 10-10 17-13l-1 1c-4 2-8 7-11 11 3-3 6-6 9-8s5-3 8-4c2-1 4-3 6-4h0c-2 2-5 3-7 5h0c0 1 1 1 1 1h1c-2 2-3 3-4 5-5 5-8 11-10 18h0c3-7 7-11 12-16 3-2 5-5 8-6h0s-2 1-2 2-1 2-1 3v1l-2 2c1 0 2 1 2 2l-3 9c3-4 5-8 9-11 0 2-3 4-3 6h0l1-1c1 1 2 1 3 1 1-2 2-4 2-6 0 1 1 1 2 2 2-3 5-6 9-8-6 6-10 10-11 18l3-4c1 1 2 1 3 2 2-4 3-7 5-9h2l2-1c-1 1-2 2-2 3v1h2 0c-1 4-3 7-4 11 2-3 4-7 6-10-2 7-6 13-8 20 0 3-1 6-1 8 1-4 3-8 5-11h0v2h0v1c0 1 0 2-1 2v3 1l1-1v-1c1-3 1-6 3-9l1-2v-1c1 1 1 1 1 2v4 1c-1 2-1 5-1 8l1-1h0 1 0v1 2h0c1-1 1-1 1-2h0c3-5 5-13 7-18l1-6h1c-2 11-3 22 0 33 2 4 3 9 5 13 0 1 0 1 1 2h0l1 1 2 9 1-8h0l1 1c-1 6-2 10-1 16l1 2c1 3 2 6 2 9l1 1c2 7 6 14 11 20 1 2 2 4 4 5 1 0 1 1 2 2 0 1 0 1 1 1 1 2 3 4 4 5 7 7 15 13 22 19-6-9-9-20-9-31 1 2 1 4 1 6 1 6 3 11 5 16 1 3 3 7 6 10 1 1 2 2 4 3-4-6-8-13-9-20-1-2-1-3-1-5 0-3-1-6-1-8 0-5 1-10 2-15l4-16h0v3c-1 3-2 5-2 8-4 16-4 33 5 47 1 3 3 6 6 8 4 4 9 6 13 7l16 6h3l19 3c7 1 15 1 22 0 2 0 4 0 6-1l8-1 7-2c1-1 2-1 3-1z" class="O"></path><path d="M365 370l1 1v1h-1 0v-2z" class="D"></path><path d="M256 628c0 1 1 1 2 2h-1c-1 0-1 1-2 0l1-2z" class="J"></path><path d="M399 361h1v2 1l-1-1v-2z" class="E"></path><path d="M212 576c1 0 1 0 2 1l-1 1h-1v-2z" class="J"></path><path d="M238 573h1l1 1v1h-2 0v-2z" class="F"></path><path d="M450 441h1v1 1c-1 0-1 0-2-1v-1h1zm-39 75h1c0 1 1 1 0 2l-1 1v-1-2zm-109 86h2 0l-1 1-1 1-1-1 1-1zM130 482l1 1v1l-1 1-1-1v-1l1-1z" class="B"></path><path d="M218 111c1 1 1 2 1 3l-1 1c0-1 0-1-1-1 1-2 0-1 1-3z" class="I"></path><path d="M402 361h1 1v2h-1-1v-2z" class="E"></path><path d="M410 525c1 0 1 0 2 1 0 1 0 1-1 2h-1v-3z" class="C"></path><path d="M112 468h1l1 1-1 1h-1 0v-2z" class="G"></path><path d="M302 639h2 0v1c-2 0-2 1-3 0l1-1z" class="B"></path><path d="M454 169l2 2v1c-1 0-2 0-2-1v-2zm-4-20h1v1 1c0 1-1 1-2 1 0-2 0-2 1-3z" class="C"></path><path d="M208 189l1-1c1 1 0 1 1 2l-1 1c-1 0-1-1-2-1v-1h1z" class="F"></path><path d="M405 142v3h0c-1-1-2-1-3-2h3v-1zm12 397h1v2 1c-1 0-1-1-2-1v-1l1-1z" class="C"></path><path d="M479 463h1c1 0 1 0 2 1v1h-3v-2z" class="B"></path><path d="M312 85h1c1 0 1 0 1 1l-1 1h-1c-1-1-1-1 0-2z" class="C"></path><path d="M402 143v-1c1 0 1-1 2-1l1 1v1h-3z" class="F"></path><path d="M395 130c1 0 1 0 2 1v1h-2v-2z" class="C"></path><path d="M111 427h2c0 2 0 2-1 3-1 0-1-1-1-1-1-1 0-1 0-2zm135-276c1 0 1 0 1 1 1 1 0 1 0 2h-1 0c-1-1 0-1 0-3z" class="B"></path><path d="M110 443h1 0l-1 3h-1v-1c0-1 0-1 1-2z" class="G"></path><path d="M459 491h1l1 1v1l-1 1h-1v-3z" class="N"></path><path d="M167 505c1 0 1 1 2 1 0 1 0 1-1 2h-1l-1-1v-1l1-1z" class="E"></path><path d="M366 121h1 1v2h-1c-1-1-1-1-1-2z" class="B"></path><path d="M142 193h1v1c0 1 0 1-1 2l-1-1c0-1 0-1 1-2z" class="C"></path><path d="M291 635l1-1v1c1 1 1 1 0 2h0c-1 0-2 0-2-1l1-1zm197-168h1c1 1 1 1 0 3l-1-1v-2zm15-257h1c1 0 1 0 1 1v1h-2v-2z" class="B"></path><path d="M442 179l1-1 1 1v2h-1c-1-1-1-1-1-2z" class="C"></path><path d="M421 438h1 0c0 1 0 2-1 3-1 0-1 0-1-1s0-1 1-2z" class="B"></path><path d="M417 104c1 0 1 0 1 1 1 1 0 1 0 3h0c-1 0-1-1-2-2l1-2z" class="K"></path><path d="M216 603h1l2 2v1h-2c-1 0-1-1-1-3z" class="F"></path><path d="M488 418h0l1 1v3c-1-1-1-1-2-1 0-2 0-2 1-3z" class="G"></path><path d="M486 443c1 0 1 1 2 1 0 1 0 1-1 2h-1-1c0-1 0-2 1-3zM171 139h1l1 1-1 2h-1c-1-1-1-1-1-2l1-1z" class="C"></path><path d="M455 552v-1c1-1 0-2 1-3v1h1v4l-2-1z" class="J"></path><path d="M377 115h2c0 1 0 2-1 3h0-1v-3z" class="F"></path><path d="M196 546h1c1 0 1 0 1 1l-1 1-1 1v-1c-1-1-1-1 0-2zm-27-328c-1 0-1-1-1-1 0-1-1-2 0-3l2 2s0 1 1 1h-1-1v1zm252-101h0c1 0 1 0 2 1l-1 2h-1 0c-1-2-1-2 0-3z" class="C"></path><path d="M404 569h1c1 1 1 2 1 3h-1-1c-1-1-1-1-1-2l1-1z" class="B"></path><path d="M433 395c1 0 1 0 2 1 0 1 0 1-1 2h-1l-1-1c0-1 0-1 1-2zM196 120h1 0c0 2 0 2-1 3-1-1-1-1-2-1v-1l2-1z" class="F"></path><path d="M479 406h1c1 1 1 1 0 2h0-2v-1l1-1z" class="I"></path><path d="M107 425c1 0 1 0 2 1 0 1 0 1-1 2h-2c0-2 0-2 1-3z" class="B"></path><path d="M349 638h0c1 0 2 1 2 2v1c-1 0-1 0-2-1s0-1 0-2z" class="F"></path><path d="M116 237l1-1v1 2h-2c0-1 0-1 1-2z" class="G"></path><path d="M456 592h1c1 0 1 0 1 1l-1 1h-2c0-1 0-1 1-2z" class="K"></path><path d="M449 611l1-1 1 1v1l-1 1h-1-1v-1l1-1z" class="C"></path><path d="M487 486h1l1 1v2h-2-1c0-1 1-2 1-3zM265 586h1c1 0 1 0 1 1v1l-1 1-1-1v-2z" class="B"></path><path d="M111 271h1l1 1c0 1 0 1-1 2-1 0-1 0-1-1s-1-1 0-2z" class="F"></path><path d="M190 154h1c1 1 1 1 1 2v1h-1l-2-2 1-1z" class="C"></path><path d="M205 203h0c1 0 1 1 1 1 1 0 2 0 3 1h-4-1c0-1 1-2 1-2z" class="J"></path><path d="M143 547h1 1c1 1 0 1 1 1l-1 1h0c-1 1-1 1-2 0v-2z" class="C"></path><path d="M114 310c1 0 1-1 2 0 0 1 0 2-1 3h-1c0-1-1-2 0-3z" class="G"></path><path d="M254 610h0c1 1 1 1 1 3h-1s-1 0-2-1l2-2z" class="L"></path><path d="M208 576h2v1 1c-1 1-1 1-2 0v-2zm53-467h1v1c0 1 0 1-1 1h-1l-1-1c1-1 1-1 2-1z" class="B"></path><path d="M301 115h1c1 1 1 1 1 2v1h-1c-1 0-1-1-2-2l1-1z" class="F"></path><path d="M484 429c1 0 1 0 1 1 1 1 1 1 1 2-1 0-2 1-3 0 0-1 0-2 1-3z" class="I"></path><path d="M281 641h1v1l-2 2c-1-1-1-1-1-2s1-1 2-1z" class="B"></path><path d="M188 500h2v1l-1 1h-2c0-1 0-1 1-2z" class="E"></path><path d="M457 408h2c1 0 1 0 1 1l-1 1c-1 0-1 0-2-1h-1l1-1zm8-287h1c1 1 1 1 1 2h-1c-1 0-1 0-2-1v-1h1z" class="B"></path><path d="M451 163h1c1 0 1 1 1 1v2h-1l-2-2 1-1z" class="C"></path><path d="M221 185h2c0 1 0 2-1 3-1 0-1-1-1-1-1-1-1-1-1-2h1z" class="E"></path><path d="M167 541h1c0 1 1 1 1 2l-1 1h0c-1 0-2-1-2-2l1-1z" class="C"></path><path d="M483 130c2 0 2 0 3 1v1l-1 1h0c-1-1-2-1-2-2v-1z" class="I"></path><path d="M239 620c1 1 2 1 3 2 0 1 0 2-1 3h-1c-1-1 0-2 0-3s0-1-1-2z" class="R"></path><path d="M477 502c1 0 1 0 2 1v1l-1 1s-1 0-1-1c-1 0-1 0-1-1l1-1z" class="B"></path><path d="M433 145l1 2v2h-1l-2-2 2-2z" class="I"></path><path d="M239 613l-1-1v-1l1-1c2 0 2 0 3 1-1 1-2 1-3 2z" class="C"></path><path d="M403 397h0c2 0 2 1 3 2l-1 1h-1c-1-1-1-1-1-2v-1z" class="I"></path><path d="M412 381h1c1 1 1 0 1 2h-1-2c0-2 0-2 1-2z" class="C"></path><path d="M219 135h1c0 1 1 1 1 2l-1 1c-1-1-2-1-2-2s0-1 1-1zm-61 16h1 1c-1 2-1 3-2 4-1-1-1-1-1-2s1-1 1-2z" class="B"></path><path d="M202 202c1 0 2 0 3 1 0 0-1 1-1 2h-1 0c-1-1-1-2-1-3z" class="F"></path><path d="M149 495h2l1 1-1 1h0-2v-2z" class="B"></path><path d="M151 558h1c1 1 1 1 1 2v1c-2 0-2-1-3-1v-1l1-1z" class="C"></path><path d="M425 483c1 0 1 0 2 1 0 1-1 2-1 3-1 0-1 0-2-1 0-1 0-1 1-3z" class="B"></path><path d="M301 91l1-1 1 1v1l-1 1h-2c0-1 0-1 1-2z" class="C"></path><path d="M469 360c1-1 1-1 2 0s1 1 0 2h0c-1 0-1 0-2-1v-1z" class="G"></path><path d="M146 191h2v3l-1 1v-1c-1 0-1 0-2-2l1-1z" class="I"></path><path d="M366 87h2l1 1v2h-1c-1 0-1-1-2-2v-1zm50 362l1-1 1 1c-1 1-1 2-2 3v1l-1-1c0-1 0-2 1-3z" class="B"></path><path d="M474 588h0c1 0 1 0 2 1v2h-1c-1 0-1 0-1-1-1 0-1-1 0-2z" class="C"></path><path d="M281 137h1c1 1 1 1 1 2l-1 1h-1l-1-1v-1l1-1z" class="F"></path><path d="M210 563h2v2s-1 0-1 1c-1 0-1-1-2-1v-1l1-1zm201-30c0-1 1-1 2-1v1l-1 2c0 1-1 1-1 1l-1-1c0-1 0-1 1-2z" class="C"></path><path d="M482 448h1l1 1v2h-1l-2-2 1-1z" class="I"></path><path d="M143 520h1c1-1 1 0 2 0 0 1 0 1-1 2h-1c-1 0-1 0-2-1l1-1z" class="E"></path><path d="M487 507c1 0 1 1 1 1 1 1 1 1 0 2l-1 1c-1-1-1-1-1-2s1-1 1-2z" class="G"></path><path d="M427 100h1c1 0 1 1 1 2h0c-1 1-1 1-2 1v-1c-1-1-1-1 0-2z" class="E"></path><path d="M149 448h1c1 2 1 2 1 3-1 1-1 1-2 1v-1-3z" class="L"></path><path d="M192 182h1l2 2-1 1h-1c-1-1-1-1-1-2v-1z" class="F"></path><path d="M412 499c0-1 0-1 2-2 1 0 1 0 1 1 0 2 0 2-1 3h0l-1-1-1-1z" class="E"></path><path d="M130 216h1c1 1 1 2 1 3v1l-1-1c-1 0-2 0-2-2l1-1z" class="B"></path><path d="M335 616c1 0 1 0 3 1 0 1 0 1-1 2h-1-1v-3z" class="C"></path><path d="M409 386h1c1 0 2 1 2 1v1h-2v2c-1-1-1-3-1-4z" class="J"></path><path d="M451 541h1v3c-1 0-2-1-2-1 0-1 0-2 1-2z" class="F"></path><path d="M221 599h0 1c1 1 1 2 1 3h-1c-2-1-2-1-1-3zm202-53c1 0 1 0 2 1v2h-1c-1-1-1-1-1-2v-1z" class="C"></path><path d="M375 141h1s1 1 1 2v1h-1c-1 0-1 0-2-1 0-1 0-1 1-2z" class="F"></path><path d="M467 425c1 0 1 0 2 1v2h-2c0-1-1-1 0-3z" class="C"></path><path d="M375 88c1 0 1 0 2 1 0 1 0 1-1 2h0c-1 0-2-1-2-1v-1l1-1z" class="B"></path><path d="M436 564h2v1c0 1 0 1-1 2h-1c0-1-1-1-1-2l1-1z" class="F"></path><path d="M430 567h2v1c-1 1-1 1-2 1h-2 0c0-1 1-2 2-2z" class="K"></path><path d="M350 622h1l1 1c0 1 0 1-1 2h-1c-1-1-1-1-1-2l1-1z" class="F"></path><path d="M201 545c1 0 1 0 2 1 0 1 0 1-1 2h-2c0-1 0-1 1-3zm-52-90h3c0 2 0 2-1 3h-1c-1-1-1-1-1-2v-1z" class="C"></path><path d="M527 368h1 1c0 2-1 3-1 4l-1 1v-1-4z" class="B"></path><path d="M209 546h1c1 0 1 0 2 1l-1 1c-1 1-1 0-3 0 0-1 0-1 1-2z" class="E"></path><path d="M414 501h-2c-1-1-2-1-2-2v-3c2 0 1 1 1 2s1 1 1 1l1 1 1 1z" class="G"></path><path d="M410 155c1 0 1 0 2 1v2h-1-1c-1-1-1-1-1-2l1-1z" class="N"></path><path d="M366 114c1 0 1 0 2 1 0 1 0 1-1 2h-1-1v-2l1-1z" class="C"></path><path d="M467 370v-2l1-1c2 1 1 1 2 2v1c-1 0-1 1-2 1l-1-1z" class="F"></path><path d="M449 506h1 1c0 2 0 2-1 3h-1-1c0-2 0-2 1-3z" class="E"></path><path d="M127 211h1c1 1 1 1 1 3l-1 1h-2c0-1 1-3 1-4z" class="B"></path><path d="M465 408c1 0 2 0 2 1l1 1-2 1c-1-1-2-1-2-2s1-1 1-1z" class="F"></path><path d="M206 118h1c1 0 1 1 1 2l-1 1h-1l-1-1v-1l1-1z" class="C"></path><path d="M371 368h2c1 2 0 2 0 3h-1c-1-1-1-1-1-2v-1z" class="B"></path><path d="M184 532c1-1 1-1 2-1 0 1 0 3 1 5h-1l-2-4z" class="E"></path><path d="M185 477h1c1 0 1 1 1 1 1 1 1 1 1 2-1 0-1 0-2 1h0v1h0l-1-1 1-1c0-1-1-1-1-2v-1z" class="B"></path><path d="M136 188h1c0 1 1 1 1 2l-1 1h-1l-1-1c0-1 0-1 1-2z" class="C"></path><path d="M302 112c2 0 2 0 4 1v2h-1l-3-2h0-1l1-1z" class="D"></path><path d="M479 401l1-1 2 2c-1 1-1 1-2 1h-2v-1l1-1z" class="I"></path><path d="M417 377h2v1c0 1 0 2-1 3l-1-1s-1-1-1-2l1-1zm-52-238c1 0 1 0 2 1v1l-1 1c-1 0-1 0-1-1-1 0-1 0-2-1 1-1 1-1 2-1z" class="B"></path><path d="M197 142h1c2 0 2 0 2 2h0c-1 1-1 1-2 1-1-2-1-2-1-3zm167 467c-2 0-3 0-5-1 0 0 0-1 1-1h2c1 1 1 1 1 2h1zm-146-10h1l1 1c0 1-1 2-1 3-1 0-1-1-2-1v-1l1-2z" class="C"></path><path d="M394 364h1l1 1c0 1 0 1-1 3-1-1-1-1-2-1v-2l1-1z" class="B"></path><path d="M184 527h1 1v3h0 0 1v1h-1c-1 0-1 0-2 1v-1-4z" class="H"></path><path d="M404 560h2 1c0 2 0 2-1 3-1 0-2 0-2-1-1-1 0-1 0-2z" class="B"></path><path d="M437 204h3c0 1 1 2 1 3l-1 1c0-1 0-1-1-1h-1c0-2 0-2-1-3z" class="M"></path><path d="M447 500l1-1c1 1 1 1 1 3h-1c-1 1-1 1-2 0v-1l1-1zM192 250h2c1 2 0 2 0 3h-1c-1 0-1-1-1-2v-1z" class="F"></path><path d="M454 131v-1c1 0 1 0 2 1 0 1 0 2-1 2l-1 1c-1-1-1-1-1-3h1z" class="E"></path><path d="M479 591h1v3l-1 1-1-1h-1c0-2 1-2 2-3z" class="L"></path><path d="M187 193h1l1 1c0 1 0 2-1 2l-1 1-1-1c0-1 1-2 1-3z" class="C"></path><path d="M369 359c1 0 1 0 2 1 0 1 0 1-1 2h0c-1 0-1 0-2-1v-1l1-1z" class="F"></path><path d="M140 208h0c1 0 2 1 2 1v1 1h-2c-1-1-1-1-1-2l1-1z" class="B"></path><path d="M232 566h2v2l-1 1c-1 0-2-1-2-1 0-1 0-2 1-2z" class="F"></path><path d="M530 377h1c1-1 1-1 2 0 0 1 0 1-1 2v1c-1-1-1-1-2-1v-2z" class="E"></path><path d="M500 360h2c0 2 0 2-1 3h-1l-1-1c0-1 0-1 1-2z" class="F"></path><path d="M162 239c1 0 1 0 2 1v3l-1-1c-1 0-2-1-2-1 0-1 0-1 1-2zm248 193h1c1 0 1 0 1 1v2c-1 0-1 1-2 0v-3z" class="B"></path><path d="M487 394h2c1 1 1 1 1 2l-1 1c-1 0-2 0-3-1v-1l1-1zM167 534c2 2 4 2 7 2h0c-1 1-2 1-4 1h-1l1 1c-1 0-2-1-2-1-1-1-1-2-1-3z" class="F"></path><path d="M264 136h1l2 2-1 1h-2 0c-1-1 0-2 0-3z" class="B"></path><path d="M152 440l1 1c0 1 0 3-1 4h-1c0-1-1-1-1-2 1-1 2-1 2-2v-1z" class="C"></path><path d="M487 437h1c1 0 1 0 1 1s0 2-1 3h0l-2-2c0-1 1-1 1-2z" class="F"></path><path d="M300 97v-1h2c0-1 0-1 1-2h1v1l-1 2v2h-1c0-1 0-2-1-2h-1z" class="H"></path><path d="M309 637h2c-1 2-1 2-2 2l-1 1-1-1v-2h2z" class="B"></path><path d="M420 99h3v2h-1c-1 1-1 0-2 0-1-1 0-1 0-2zm5 510c1 1 2 1 3 2l-3 3c-1-1-1-1-1-2h0l1-3z" class="E"></path><path d="M183 471c1-1 2 0 3 1s1 1 0 2l-1-1h0-1c-1 0-1-2-1-2z" class="J"></path><path d="M163 521h1c1 1 1 1 1 2l-2 2h-1v-1c0-1 0-2 1-3z" class="K"></path><path d="M462 577h1c1 1 1 1 1 2v1h-2l-1-1c0-1 0-1 1-2z" class="C"></path><path d="M426 466c0-1-1-1-1-2s0-1 1-2c1 0 2 0 3 1-1 1-1 2-2 2 0 1-1 1-1 1z" class="B"></path><path d="M488 187h1v1c1 0 1 1 0 2 0 1 0 0-1 1v-1c-1-1-1-1-2-1 1-2 1-1 2-2z" class="M"></path><path d="M419 610l1 1c1 1 1 1 0 3h0 0c-1 0-1 0-2-1 0-1 0-2 1-3z" class="B"></path><path d="M209 538c1 0 2 2 3 2l-1 1c-1 0-2 0-3-1 0-1 0-1 1-2z" class="L"></path><path d="M274 141h2v1c0 1 0 1-1 2-1 0-1 0-2-1 0-1 0-2 1-2z" class="B"></path><path d="M157 234h1c1 0 1 1 1 2l-1 1c-1 0-1 0-2-1v-1l1-1z" class="I"></path><path d="M432 462l-2-2c1 0 1-1 2-1 2 0 3 0 4 1h-2 0l-2 2h0z" class="J"></path><path d="M434 360c1 0 1 0 2 1v1l-1 1h-2l-1-1 2-2zm-65-232h1c1 1 1 1 1 3h-1-1c-1-1-1-1-1-2l1-1z" class="B"></path><path d="M474 407h1c0 1 1 1 1 2l-2 2c-1 0-1-1-2-1v-1l2-2z" class="F"></path><path d="M527 361c1 1 1 1 2 1v2l-1 1c-1 0-2-1-2-2s0-1 1-2z" class="B"></path><path d="M366 622h2v1 3c-1 0-1 0-1-1-1 0-1 0-2-1 0-1 1-1 1-2z" class="C"></path><path d="M483 136c1 0 1 0 2 1s1 1 0 2c0 1 0 1-1 1h-1v-4z" class="F"></path><path d="M406 105h1v1c1 1 1 2 0 4h-1v-1c-1-2-1-3 0-4z" class="E"></path><path d="M411 557h0c1-1 2 0 3 0 0 1-1 1-1 2-1 1-1 1-2 1v-1c-1-1-1-1 0-2z" class="B"></path><path d="M462 402h2c0 2 0 2-1 3h-1s0-1-1-1c0-1 0-2 1-2z" class="C"></path><path d="M404 157l1-1v1 2s-1 1-1 2l-1-1h-1v-2h1 1v-1z" class="J"></path><path d="M204 561h3v2l-1 1h-2c-1-1-1-2-1-3h1z" class="B"></path><path d="M416 177h2c0 1 0 2 1 3v1h-1c0-1-1-1-2-2v-2z" class="C"></path><path d="M325 601c1 0 1 0 2 1s1 2 0 3h-1l-2-2c1-1 1-1 1-2z" class="B"></path><path d="M138 225h1c1-1 1 0 2 0 0 2 0 2-1 3h-1c0-1-1-1-1-2v-1z" class="E"></path><path d="M180 587h1c1 1 1 1 1 2v1h-2l-1-1c0-1 0-1 1-2z" class="F"></path><path d="M465 419c1 0 1 0 2 1s1 1 1 2h-1c-1 1-1 0-2 0 0-1-1-2 0-3z" class="B"></path><path d="M228 559h1c1 1 3 2 3 3l-1 1s0-1-1-1-1 0-2-1v-1-1z" class="F"></path><path d="M444 612h1c0 1 1 1 1 2s-1 1-1 1h-2s-1-1-1-2l2-1z" class="K"></path><path d="M493 391c1 0 1 0 2 1s1 1 0 2c0 1-1 1-1 1-1-1-1-1-1-2-1-1-1-1 0-2z" class="F"></path><path d="M377 590c1 0 1 0 2 1v3h-2c-1 0-1 0-1-1l2-2-1-1z" class="C"></path><path d="M409 399h0 2c0 2 0 2-1 3h0-2c0-2 0-2 1-3z" class="F"></path><path d="M309 602h2c1 0 2 0 3 1l-1 1-1 1c-2-1-2-1-3-2v-1z" class="B"></path><path d="M201 117c1-1 1-1 2 0h0c0 1 0 1-1 2h-2l-1-1 1-1h1z" class="E"></path><path d="M396 117c1 0 2 0 2 1v2h-2-1c0-2 0-2 1-3z" class="F"></path><path d="M488 133h0c1 0 2 1 2 2s0 1-1 1l-1 1-2-2 2-2z" class="C"></path><path d="M458 519l1 1c1 1 1 1 1 2l-1 1c-1 0-2 0-3-1h0c1-2 1-2 2-3z" class="F"></path><path d="M224 132c2 0 2 1 2 1 0 1-1 2-2 2h0c-1 0-1 0-1-1s0-1 1-2z" class="I"></path><path d="M421 538c0-1 1 0 1 0 1 0 2 1 2 2h-1v1c-1 0-2 0-3-1 0-1 0-1 1-2z" class="C"></path><path d="M194 501h0l2 2-2 2-2-2 2-2z" class="B"></path><path d="M476 412h2c1 0 1 0 1 1v2h-2-1v-3z" class="F"></path><path d="M224 583h0c1 0 1 0 2 1l-2 2h-2v-1c0-1 1-2 2-2z" class="K"></path><path d="M249 146c1 0 1 0 1 1s1 1 0 2l-1 1-2-1h0c1-2 1-2 2-3z" class="B"></path><path d="M368 616h0c1 0 2 1 3 1v1l-2 1c-1 0-2 0-2-1s0-1 1-2z" class="L"></path><path d="M457 479h0c1 0 2 1 3 1 0 1 0 1-1 3-1 0-1-1-2-1-1-2-1-2 0-3z" class="E"></path><path d="M168 537h-2c-1-1-1-2-1-4h-1l1-1h1v1l1 1c0 1 0 2 1 3z" class="H"></path><path d="M466 431c1 0 2 0 3 1-1 1-1 1-1 2l-2 1-1-1c0-1 0-2 1-3z" class="K"></path><path d="M199 135h0c1 0 2 1 3 2l-1 1v1c-2 0-2-1-3-1 0-2 0-2 1-3z" class="C"></path><path d="M409 424c2 0 2 0 2 1s1 1 0 2h-2v-1c0-1-1-1 0-2zm-214 87c1-1 1-1 2-1 0 1 1 1 1 2s0 1-1 2c-1 0-1 0-2-1v-2z" class="B"></path><path d="M404 384h2c1 1 1 2 1 2v1l-2 1h-1v-4z" class="K"></path><path d="M262 589c1 2 2 3 3 4h1c-1 0-1 1-2 1l-2-2h0c-1 0-2 0-2-1h0c0-1 1-1 1-2h1z" class="H"></path><path d="M147 552h1c0 1 1 1 1 2s0 1-1 2c-1 0-1 0-2-1 0-2 0-2 1-3z" class="F"></path><path d="M472 452h1c1 0 1 1 2 2 0 1 0 1-1 2-1 0-2 0-2-1 0-2-1-2 0-3z" class="E"></path><path d="M269 113c1-1 1-1 2 0 0 1 0 1 1 2l-1 1c-1 0-2 0-2-1-1-1-1-1-1-2h1z" class="G"></path><path d="M174 514h1c1 1 1 1 1 2s0 1-1 2c-2 0-2-1-3-2l2-2z" class="C"></path><path d="M343 84h0c2 0 2 0 3 1v2h-1-2c-1-2-1-2 0-3z" class="B"></path><path d="M399 386h1c2 1 3 2 4 3-1 1-1-1-3-1h0c-1 1 0 2 0 3h-1c-1-1-1-3-1-5z" class="F"></path><path d="M359 377v-1c1 0 2 0 2 1 1 1 1 1 0 2l-1 1c-1 0-1 0-2-1 0-1 0-1 1-2z" class="B"></path><path d="M427 197h-1c-1 0-1 0-2-1v-1c1-2 2-1 4-2v2c0 1-1 1-1 2z" class="C"></path><path d="M248 626h1l3 3v2h-2v-1-2l-2-1v-1z" class="I"></path><path d="M297 133h1c1 0 1 0 2 1 0 1-1 2-1 2h-1l-2-1c0-1 0-1 1-2zm-63 441h0c1 0 2 1 2 2l-2 1h-2v-1c0-1 1-2 2-2z" class="C"></path><path d="M378 618v-1s-1-1-2-1h-1c-1-1-1-1-1-2v-1c1 1 1 1 2 1v1h2v-1c1 1 1 2 2 3-1 1-1 1-2 1z" class="J"></path><path d="M217 114v-1h-1c-1 0-1 0-2-1 0-1 1-1 1-1 1-1 1-1 2-1l1 1c-1 2 0 1-1 3zm-77 411h1 2v1 1l-1 1c-1 0-2 0-3-1 0-1 1-1 1-2z" class="C"></path><path d="M480 417h1c1 0 2 1 3 1 0 1-1 1-1 2-1 0-1 1-2 0-1 0-1-1-1-2v-1z" class="I"></path><path d="M451 123c-1-1-2-1-3-2v-5h-2-1l1-1h1c1 1 2 2 2 3 1 2 2 3 2 5zm-11 270h1c1 0 1 0 2 1 0 1 0 1-1 2h-1c-1 0-1 0-2-1 0-1 0-1 1-2z" class="F"></path><path d="M331 628h2v1c1 1 0 2-1 3h-1 0c0-2-1-3 0-4z" class="C"></path><path d="M460 583c1 1 2 1 3 2 0 2 0 4-1 6h0c-1 0-1-1-1-1l1-1c1-2-1-2-2-4v-2z" class="E"></path><path d="M360 614h3 0c-1 1-1 2-2 2h-3v-1-1h2z" class="P"></path><path d="M197 204c2 1 3 2 4 3l-1 1c-2 0-2 0-3-1s0-2 0-3z" class="E"></path><path d="M307 104h0c1 0 1 1 1 2h1l1-2h1l-1 2c0 1 0 1-1 2 0-1-1-1-1-1-1 0-2-1-3-2v-1h2zm146 350h1c1 0 1 0 2 1 0 1 0 1-1 2h0c-2 0-2 1-3 0 0-1 0-2 1-3z" class="F"></path><path d="M342 129h2c0 1 0 1 1 2 0 1-1 1-2 2-1 0-1 0-2-1 0-1 1-1 1-3z" class="K"></path><path d="M222 151h1c1 1 1 2 2 3l-1 1h0c-1 0-2 0-3-1 0-1 0-2 1-3z" class="E"></path><path d="M309 612h0c-2 1-3 2-5 3v1h0c0-2 1-3 2-4 2-2 4-2 6-2v2h-3z" class="B"></path><path d="M396 610h1l2 2-1 2h-2l-1-1c0-2 0-2 1-3z" class="C"></path><path d="M189 257h1c1 0 1 0 2 1-1 2-1 2-2 3h0l-2-2c0-1 0-1 1-2z" class="B"></path><path d="M398 151h-1c0 1 0 1-1 2v-1c-1-1-1-4 0-6h1v1h1c-1 1-1 2-1 3l1 1z" class="H"></path><path d="M386 377c0 1 1 2 0 3s-1 1-2 0l-2-1v-1c2 0 3-1 4-1zM129 204h2v3h-1-2 0c0-2 0-2 1-3z" class="B"></path><path d="M425 180c1 0 2 0 2 1 1 0 2 1 2 2h-1v1c-2 0-2-1-3-1v-3z" class="L"></path><path d="M184 149h1c1 0 2 1 2 2 1 1 0 1 0 2h-1c-1 0-2-1-2-2v-2z" class="F"></path><path d="M230 104c2 0 2 0 3 1v1c-1 1-2 0-3 1 0 1-1 1-1 1-1-1-1-1-1-2 0 0 2-1 2-2z" class="L"></path><path d="M450 461h1l1 1c0 1 0 2-1 2 0 1 0 1-1 1s-2 0-2-1c0-2 1-2 2-3z" class="I"></path><path d="M409 126h3l1 1-1 1c-1 1-2 1-3 1-1-1-1-1-1-2l1-1zm-214 50h1c1 0 1 0 1 1 0 2 0 2-1 3-1-1-2-1-3-2l2-2z" class="E"></path><path d="M167 455v1h1l-1 1c1 1 1 2 1 3h-1-2v-2c0-1 1-2 2-3z" class="C"></path><path d="M230 601h0c1 0 2 0 3 1 0 1 0 1-1 2 0 1-1 1-1 1l-1-1c0-1-1-2 0-3z" class="F"></path><path d="M184 543h2v1c0 1 0 1-1 2v2h0-2v-1h-1c0-1 1-2 2-2v-2z" class="H"></path><path d="M160 434c1 1 2 1 3 1l-2 4c0-1-1-1-1-1h-1-1c0-1 0-2 1-3h0l1-1z" class="M"></path><path d="M479 192c-1 0-2 0-3-1s-1-2-1-3l1-1 1 1c0 1 0 1 1 2l1-1v3z" class="E"></path><path d="M213 609h1c1 0 1 0 2 1 0 2 0 2-1 3h-1l-2-2c0-1 0-1 1-2z" class="C"></path><path d="M207 194h0c1 0 1 0 2 1 0 1-1 2-2 2l-1 1c-1-1-1-1-2-3 1-1 1-1 3-1z" class="E"></path><path d="M333 111h0l2 2c0 1 0 1-1 2-1 0-2-1-4-1v-1-1h1l1 2 1-1-1-1 1-1z" class="B"></path><path d="M169 185c2 1 2 2 3 4-1 0-2 0-2 1l-2-2c0-2 0-2 1-3z" class="I"></path><path d="M106 308l1-1c1 1 1 1 1 2 0 2 0 2-1 3h-1c-1-1-1-1-1-2 0-2 0-2 1-2z" class="F"></path><path d="M359 360h3v3h-1-1c-1 1-1 0-2-1 0-1 0-1 1-2z" class="B"></path><path d="M412 415h1c1 1 1 1 1 2s0 1-2 2l-1-1c-1 0-1 0-1-1 1-1 1-2 2-2z" class="E"></path><path d="M422 104h2l2 2-1 1c-1 1-1 1-2 1l-1-1c-1-1 0-2 0-3zm-92-19h0c1-1 2-1 3 0l-1 1h0v1 1l-1 1c-1-1-1 0-2-1 0-2 0-2 1-3z" class="C"></path><path d="M296 634c2-1 2-1 3 0 0 1 0 2-1 4h-1-1v-1-3z" class="B"></path><path d="M128 226h1c1 0 2 0 2 1 0 2 0 2-1 3h-1c-1 0-1-1-2-1 0-2 1-2 1-3z" class="G"></path><path d="M113 455h3v1l-2 2h-2v-1c0-1 0-2 1-2z" class="F"></path><path d="M488 496h1v2c1 1 0 2-1 3h0c-1 0-1 0-2-1 0-2 1-3 2-4z" class="B"></path><path d="M436 104h1c1 0 2 1 3 1 0 2 0 2-1 3h0c-2 0-2 0-3-1v-3z" class="F"></path><path d="M208 152c-1-5 0-8 2-13v4c-1 1-1 2-1 3h0v2h-1 0l1 1v1h1v-1 1c0 1-1 1-2 2z" class="H"></path><path d="M411 509h1l2 2c0 1-1 1-1 2h-1c-1 0-1-1-2-1 0-2 0-2 1-3zm60 83h1l1 1c0 1 0 1-1 2v1c-1 0-2-1-2-2s0-1 1-2z" class="F"></path><path d="M300 97h1c1 0 1 1 1 2h1l2 2v1h-2c-1 0-1-1-2-2s-1-2-1-3z" class="E"></path><path d="M167 159h-1c0-1 0-3 1-4 1-2 2-3 4-3l1 1c-1 1-3 1-4 3v2l-1 1h0z" class="C"></path><path d="M178 139l1-1 2 2c0 1-1 1-2 2h-1c-1 0-1 0-1-1s0-1 1-2z" class="F"></path><path d="M201 158l1 1c1 0 1 1 1 2s0 1-1 1h-1c-1 0-1-1-2-2l2-2z" class="G"></path><path d="M201 532v-1c1 0 2 1 3 1 0 2 0 2-1 3h0c-2 0-2 0-3-1 0-1 0-1 1-2z" class="C"></path><path d="M477 387c1-1 0-1 1-1h0c2-1 2-3 2-5l1 2h2c-1 1-2 3-3 4h-3z" class="P"></path><path d="M463 553h0c1 0 1 1 2 2 0 1 0 1-1 2h-2s-1-1-1-2 1-2 2-2z" class="E"></path><path d="M359 627h2l1 1c1 1 2 0 3 0v1s1 1 0 1c0 1-1 1-2 1-2-1-3-2-4-4z" class="K"></path><path d="M467 385h1c1 0 1 0 2 1 0 2 0 2-1 2-1 1-1 1-3 0v-1c0-1 1-2 1-2z" class="E"></path><path d="M249 587c1 1 1 2 1 3h-1v-1h-1-3 0-1c-1 0-2 0-3 1 0-1 0-1-1-2 1 0 1-1 2-1 1 1 3 1 5 1 1 0 1 0 2-1z" class="J"></path><path d="M194 188h2l1 1v1l-2 2-2-2s-1 0-1-1h0l2-1z" class="E"></path><path d="M475 205h1c1 0 2 1 3 2v2h-1c-1 0-2 0-3-1v-3z" class="F"></path><path d="M398 147c1 1 1 1 2 1 1 1 1 2 1 3l-1 1h-1l-1-1-1-1c0-1 0-2 1-3z" class="K"></path><path d="M398 147c1 1 1 1 2 1-1 1-1 2-2 2h-1c0-1 0-2 1-3zm21 438h3c1 1 1 1 1 3v1h-2c-1-1-2-1-2-2v-2z" class="C"></path><path d="M467 370l1 1v1c1 1 1 2 0 3h-1l-1-1c-1-1-1-1-2-1h0-1c1-1 2-2 3-1 0 0 1-1 1-2z" class="D"></path><path d="M154 158h0c2 1 2 1 3 2 0 1-1 1-2 2l-1 1c-1-1-1-1-1-2s0-2 1-3z" class="B"></path><path d="M459 162l3 3c1 0 1 1 1 2h-1c-1 0-3-1-3-2-1-1-1-2 0-3z" class="C"></path><path d="M412 136h1s0 1 1 2c0 1-1 2-2 2h-1c-1 0-1-1-1-2s1-1 2-2zm-89-50h3c1 1 1 1 1 2l-1 2h-1c-1 0-2 0-2-1v-3z" class="F"></path><path d="M459 364h1c1 1 2 1 2 2l-1 2-1 1-2-2c0-1 0-1 1-3z" class="I"></path><path d="M326 104h1c2 1 2 1 2 2s0 1-1 2h-1c-1 0-2-1-2-2s0-1 1-2z" class="E"></path><path d="M447 547l1-1c1 0 2 1 2 2 1 1 0 1 0 2h-1c-1 0-2 0-3-1 0-1 1-2 1-2z" class="F"></path><path d="M239 113c-1 1-1 0-2 0s-1 0-1-2c0-1 0-1 1-1h1c1 0 1 0 2 2l-1 1z" class="C"></path><path d="M238 110c1 0 1 0 2 2l-1 1v-1h-1l-1-1 1-1h0z" class="K"></path><path d="M172 246h2c1 1 1 2 1 3h-1-3v-3h1z" class="E"></path><path d="M408 407h1s1 0 1 1c1 1 0 2 0 3h-1c-1 0-2 0-2-1 0-2 0-2 1-3z" class="G"></path><path d="M267 107h2v1 3h-2l-1-1c0-1 0-2 1-3z" class="B"></path><path d="M115 466h2 0c1 0 2 1 2 1v1c0 1-1 1-1 1l-1 1h-2v-3-1z" class="H"></path><path d="M161 461l1-1 1 1v2l-1 2c-1-1-1-1-2-1h-1v-3h2z" class="J"></path><path d="M427 113c1 1 2 1 2 2l1 1-1 1h0c-1 1-1 1-2 1l-2-2 1-2 1-1z" class="F"></path><path d="M427 113c1 1 2 1 2 2l1 1-1 1c0-1 0-1-1-2-1 0-1 0-2-1l1-1z" class="C"></path><path d="M462 595l1-1c1 1 1 1 2 1h1l1 1v1s-1 0-1-1l-1 2v1c-1 0-1-1-1-2h0l-1 1h-1v-1-2z" class="H"></path><path d="M391 147h1c1 1 2 1 2 2s0 2-1 3c-1 0-1-1-2-1 0-1-1-1-1-2s0-1 1-2z" class="K"></path><path d="M478 442l2-1c1 1 1 1 1 2s0 1-1 2h-1c-1 0-1 0-2-1 0-1 0-1 1-2z" class="C"></path><path d="M452 529h2l2 2c0 1 0 2-1 2v1c-1 0-2-1-2-2-1-1-1-2-1-3z" class="F"></path><path d="M226 619c0-1 0-1 1-1s1 1 2 2c0 1 0 1-1 2h-2c-1-1-1-1-1-3h1z" class="E"></path><path d="M147 203h1c1 0 1 0 2 1 0 1 0 1-1 2 0 1-1 1-1 1l-2-2c0-1 0-1 1-2z" class="G"></path><path d="M236 606h1v3h-1c0 1-1 0-1 0-1 1-1 1-2 1l-1-2-1-1c1 0 1 0 2-1 1 1 1 2 1 3h1l1-3z" class="F"></path><path d="M507 361h0c2 1 2 1 2 3 0 1 0 1-1 2h-1l-2-2c1-1 1-2 2-3z" class="E"></path><path d="M385 359c1 0 1 0 2 1v1c0 1-1 1-2 2h-2v-2c0-1 1-1 2-2zm89 3h3c1 1 1 1 1 3h0-2l-1-1c-1 1-1 1-2 1v-1c0-1 0-1 1-2zm10 156h2l1 1c0 2 0 2-1 3h-1c-1-1-2-1-2-2s0-1 1-2z" class="B"></path><path d="M427 445h1l2 2c-1 1 0 1-1 2h-2c-1 0-1 0-1-1 0-2 0-2 1-3z" class="F"></path><path d="M412 478c2-1 2-1 3 0v3l-1 1h-2c0-1 0-1-1-2 1-1 0-1 1-2zM220 610h1c1 0 1 1 2 1v3h-1-1c-1 0-1-1-2-1 0-2 0-2 1-3z" class="C"></path><path d="M211 602h0c1 1 2 1 2 2s-1 2-1 3l-2-1c-1 0-1 0-1-2l2-2z" class="E"></path><path d="M181 449l1-2v-1c1 1 1 1 1 2v4 1l-1-1v2l-1 2-1 2v1h-1v-2c1 0 1-1 1-2l1-2v-1c1-1 1-1 1-2l-1-1z" class="H"></path><path d="M372 626h1c1 0 2 1 3 2h0l-1 1c-1 1-1 1-2 1s-1-1-2-1c0-2 0-2 1-3z" class="F"></path><path d="M271 136h1c1 0 1 1 2 1 0 2 0 2-1 3h-1c-2 0-2 0-2-1 0-2 0-2 1-3z" class="C"></path><path d="M333 101h1c2 0 2 1 3 2 0 1 0 1-1 2h-2s-1-1-1-2c-1-1 0-1 0-2z" class="B"></path><path d="M180 433c-2 3-5 6-7 9 1-3 3-7 5-10v1h2z" class="I"></path><path d="M454 576l1-1c1 0 2 1 3 2 0 1 0 1-1 2s-1 1-2 1-1-1-1-1v-3z" class="F"></path><path d="M383 125h1c1 0 2 0 3 1v3h-1c-1 0-2 0-3-1v-3z" class="I"></path><path d="M119 478h2c0 1 1 1 1 2s-1 2-2 3h-1c-1-1-1-1-1-3 0-1 0-1 1-2z" class="B"></path><path d="M422 200c1-1 1-1 2-1s1 1 2 2c0 1 0 1-1 2l-1 1c-1 0-1-1-2-1v-3z" class="C"></path><path d="M191 123h1v1l2 2c0 1 0 2-1 3-1 0-2-1-3-1 0-2 1-4 1-5z" class="E"></path><path d="M411 447c1 0 1 0 2 1v2c0 1 0 2-1 3h-1c-1-1-1-1-1-3 0-1 0-2 1-3z" class="C"></path><path d="M404 123c2-3 3-5 4-8 0 1 0 2 1 3h2v1h-1-2c0 2 1 2 0 4h-1-3z" class="H"></path><path d="M214 594l2-1c1 0 1 1 1 1l-1 3-1 1c-1 0-1 0-2-1v-1-1c0-1 0-1 1-1z" class="M"></path><path d="M306 86h1l2 2c-1 2-1 2-2 2s-2 0-3-1c0-1 1-2 2-3z" class="B"></path><path d="M160 528h2l1 1c0 2-1 2-2 3 0 1-1 1-1 1l-2-2c1-1 1-2 2-3z" class="C"></path><path d="M484 429c2-1 2-2 5-1h0v1c0 1 0 2-1 3l-1 1s0-1-1-1h0c0-1 0-1-1-2 0-1 0-1-1-1z" class="H"></path><path d="M480 496h2l2 2c0 1 0 1-1 2h-1c-1 0-2 0-3-1 0-2 0-2 1-3z" class="G"></path><path d="M390 590h1c1 0 1 1 2 2 0 1 0 2-1 2l-1 1c-1-1-2-1-2-2 0-2 0-2 1-3z" class="C"></path><path d="M486 457l1-1 2 2c0 1 0 2-1 3h-1s-1 0-2-1c0-1 0-2 1-3zM243 143h0c1 1 0 2 1 3v-3h0c1 4-1 7-3 10l-1-1c2-3 3-5 3-9z" class="B"></path><path d="M184 138c-1-1-2-1-3-2 1-1 1-2 2-3h1l-2 2v1c1 0 2-1 3-2 1 1 2 2 2 3s-1 1-1 2c-1 0-1 0-2-1z" class="E"></path><path d="M184 138v-1h1v1h-1z" class="I"></path><path d="M424 451h2c1 0 1 1 2 2l-2 2-1 1v-1c-1 0-2-1-2-2s1-2 1-2zm-305 6l1-1c1 1 1 1 1 3 0 1 0 1-1 2h-1c-1 0-2-1-2-2s0-1 2-2z" class="C"></path><path d="M275 591h1 1l1 2c1-1 1-1 2 0v1c1 0 1 1 1 1l-1 1-1-1v-1h-1c-1 0-2 1-3 1l-1-2c0-1 0-1 1-2z" class="H"></path><path d="M209 556c-5-1-9 0-14 1l3-2c4-1 8-2 12-1l-1 1h0c-2-1-3-1-5 0 1 0 3-1 3 0h1c1 0 1 1 2 1h-1z" class="B"></path><path d="M333 598l1 1c1 0 1 1 1 2s-1 1-2 2c-1 0-1-1-2-1 0-1-1-1-1-2 1-1 1-1 3-2zm138-163h0c2-4 2-7 3-10 1 4 1 9-1 14v-3-3l-2 2h0z" class="E"></path><path d="M432 452h2s1 1 1 2 0 2-1 3h-2c-1-1-1-1-1-2 0-2 0-2 1-3z" class="F"></path><path d="M167 227h0c1 1 1 1 1 2 1-1 1-1 1-2h1 1v3c-1 1-1 2-3 2l-2-2c0-1 0-2 1-3z" class="G"></path><path d="M319 124c0-1 0-1 1-1s1 1 2 2v3h-2c-1 0-1-1-2-2 0-1 0-1 1-2z" class="K"></path><path d="M390 601s1 0 1 1c1-1 2-1 3-1l-2 2c1 1 1 1 2 3 0 1-1 1-1 2-1 0-1 0-2-1s-2-2-1-3c0-1 1-1 1-2l-1-1z" class="E"></path><path d="M498 583v-1c2 0 2 0 4 1v1c-1 1-1 2-2 2-1 1-1 1-2 1l-2-2c1-2 1-2 2-2z" class="F"></path><path d="M138 202h2c1 1 1 1 1 3-1 1-1 1-2 1s-1 1-2 0-1-1-1-2c1-1 1-2 2-2z" class="B"></path><path d="M362 601c1-1 1-1 2-1 1 1 1 1 2 3l-2 2h-2c-1-1-1-1-2-3 1-1 1-1 2-1z" class="F"></path><path d="M323 104h1c-1 1-1 1-1 2h-1 1c0 2 1 4 0 6h-1c-1 0-2-1-2-2 0-2 1-5 3-6z" class="L"></path><path d="M114 338c2-1 3-3 5-4l2 2s1 0 1-1v1s0 1-1 1c-3-1-16 6-17 5l10-4z" class="E"></path><path d="M438 207l-1 1c-1 1-1 1-2 0-1 0-1-1-1-1-1-1-1-2 0-3h3c1 1 1 1 1 3z" class="C"></path><path d="M482 207h2 3c1 0 2-1 2-2h1 2l-2 2c-3 2-7 3-10 3l2-3z" class="I"></path><path d="M143 174h2c1 1 2 2 2 3l-2 2h-2c-1-1-1-1-1-2s1-2 1-3zm145-86h0c2 0 2 0 3 1v3h-2s-1 0-2-1-1-1-1-2 1-1 2-1z" class="E"></path><path d="M330 634h1l1 1c1 1 1 1 1 2-1 1-1 2-2 2-1 1-2 3-3 4-1 0-1 0-1 1 0-2 1-3 1-4 1-2 2-4 2-6z" class="G"></path><path d="M339 621c1 0 1 1 2 1 0 1 1 2 1 3s-1 1-2 2h0c-1 0-2 0-2-1-1-2 0-3 0-4l1-1z" class="E"></path><path d="M341 635c2 1 3 2 3 3 0 2 0 4-1 5 0 1 0 1-1 2v-1-4c0-2 0-2-2-4h0 0l1-1z" class="B"></path><path d="M197 204c2-3 3-2 5-2 0 1 0 2 1 3h0v2h-2 0c-1-1-2-2-4-3z" class="J"></path><path d="M480 584h2c1 0 2 1 2 2s-1 2-2 2l-1 1c-1-1-2-1-3-2 1-2 1-2 2-3zM171 152c2-1 4-1 6 0s4 3 4 5v4c-1-2 0-4-2-5v2h0c-1-1-1-3-2-4-2-1-3-1-5-1l-1-1z" class="E"></path><path d="M489 567h1v2l2-1c0 1 1 2 1 3h-1l-1 1v1h-1v-2h-3v-3h2v-1z" class="J"></path><path d="M165 429c0 1 1 1 2 2-3 4-6 9-7 14-1 1-1 2-1 3 0-3 1-6 2-9l2-4c1-2 2-4 2-6z" class="I"></path><path d="M490 363h1c1 0 1 1 2 1v1h-2l-1 1 2 2h0l-1 1c-1 0-2 0-2-1-1-1-1-1-1-2 0-2 1-2 2-3z" class="B"></path><path d="M308 95l1-1h2c-1 0-1 1-2 1h0c1 0 1 2 1 2 0 1 0 1-1 2v1h0c-1 0-1 0-2 1v1s-2 1-3 1l-1-1h2v-1l-2-2h-1 1v-2l1 2c1 0 2 1 3 1 1-1 2-2 2-3s-1-2-1-2z" class="D"></path><path d="M410 617h1c1 0 3 1 4 2 0 2 0 2-1 2-1 1-1 1-2 1s-1-1-2-2c-1-2-1-2 0-3z" class="C"></path><path d="M416 469h2s1 1 1 2c-1 1-1 2-3 3h-1c0-1-1-1-1-2 0-2 1-2 2-3z" class="B"></path><path d="M432 599c1 1 4 2 4 4-1 0-1 1-2 1h-1c-1 0-2-1-3-2 0-1 0-2 1-3h1z" class="F"></path><path d="M237 102c1-1 2 0 3 0 0 1 1 2 1 3-1 1-1 1-2 1h-3c-1-1-1-1-1-3 1-1 1-1 2-1z" class="E"></path><path d="M121 231h3c1 2 1 2 0 3 0 1 0 1-2 2 0 0-1 0-1-1-1 0-2-1-2-2s1-1 2-2z" class="G"></path><path d="M458 387h0c1 2 1 5 0 7v1h1v-1c1-2 0-2 0-3l2-2h0c-1 6-4 11-8 15 4-6 5-10 5-17zM158 563c1 0 1 0 2 1 1 0 2 1 2 2s0 2-1 3h-2c-1-1-1-2-2-3 0-1 1-2 1-3z" class="E"></path><path d="M130 454c0-1 1-2 2-2 1-1 2-1 3-1 1 1 1 1 1 2s0 2-1 2c-1 1-2 1-3 0l-1-1-1 1v-1z" class="B"></path><path d="M412 395h-1v2h-1l-1-1v-1h0-1-2v-2c0-2 1-1 2-1l1-1h1v1h1c0 2 0 2 1 3z" class="J"></path><path d="M472 162l1 1c-1 1-2 3-3 4s-3 1-5 1c0 0-1 0-1-1 0 0 0-1 1-1 1-1 2-1 3-1s3-1 4-3z" class="F"></path><path d="M492 374h1c1 0 1 0 2 1-1 1-1 2-1 2l1 1v1c0 1-1 1-1 2h-1c-1 0-1 0-2-1 0-1 1-2 1-3l-1-1c0-1 0-1 1-2z" class="J"></path><path d="M442 363c1-1 2-1 3 0 1 0 1 0 1 1 0 2 0 2-1 3h0c-1 0-3 0-4-1v-1c0-1 0-2 1-2zM216 142c1-1 1-1 2 0s2 1 1 2c0 1 0 2-1 3-1 0-2 0-2-1-1 0-2-1-2-2s1-2 2-2z" class="B"></path><path d="M304 95h4s1 1 1 2-1 2-2 3c-1 0-2-1-3-1l-1-2 1-2z" class="E"></path><path d="M360 369h3c1 2 1 3 1 4l-2 1s-1 0-2-1l-2-2 2-2z" class="B"></path><path d="M189 171h1c-1 1-3 1-3 3 1 0 2 1 2 2v2c-1 2-2 2-3 3-1-1-2-1-2-2l-1-2h1c1 0 1 1 3 1 1 0 1-1 1-2h0c-1-1-2-1-3-2h0c1-2 3-2 4-3z" class="C"></path><path d="M171 217v-1c1 0 2-1 2-2h2c1 0 1 1 1 1 0 1 0 2-1 3s-3 1-4 1-2 0-2-1v-1h1 1z" class="I"></path><path d="M497 183s0-1 1-1 2 1 3 2v1c0 1-1 2-2 2 0 1-1 1-1 1-1 0-2-1-2-1-1-1-1-1-1-2s1-2 2-2z" class="E"></path><path d="M460 568l1 1v1h0 1c1 0 1 0 2 2-1 0-1 1-2 1s-1 1-1 1l-1 1c-1-1-1-1-1-2h-1c-1-1-1-1-1-2-1 0 0 0 0-1h2c0-1 0-1 1-2z" class="H"></path><path d="M241 615c3 0 3 0 6 1 0 1 1 1 1 3h-1-2c-1-1-1-1-1-2l-1 1c-2 0-2 0-4-1h0l2-2z" class="C"></path><path d="M239 617h0l2-2h3v1 1l-1 1c-2 0-2 0-4-1z" class="E"></path><path d="M254 131c4 4 6 8 5 14v3c0-6-2-11-6-16h0c0-1 1-1 1-1z" class="B"></path><path d="M449 177h2c1 1 1 2 1 3s-1 2-2 3h-1c-1 0-2-1-2-3 0-1 1-2 2-3z" class="K"></path><path d="M342 640c-1 1-2 2-3 2-1-1-2-2-2-3 0-2 0-3 2-4h2l-1 1h0 0c2 2 2 2 2 4h0z" class="I"></path><path d="M340 636c2 2 2 2 2 4h0c-1 0-2-1-3-2v-1l1-1z" class="D"></path><path d="M168 158h0c1 1 2 1 3 2l1-1c0-1-1-2 1-3 0 0 1 0 1 1 1 1 1 1 1 2s-1 2-2 2c-1 1-3 1-4 1-1-1-2-1-2-2v-1h0l1-1z" class="F"></path><path d="M363 620h1c1 1 1 1 1 2-1 2-1 1-2 2-1 0-2 2-2 3h-2v-4c1-1 2-2 4-3z" class="E"></path><path d="M412 392v-1c1 0 1 0 2 1v-1c0-1 1-1 1-1 1 1 1 1 1 2l1 1c1 0 1 0 2 1 0 0 0 1-1 1h-2l-1 1h0c-1-1-1-1-2-1h-1c-1-1-1-1-1-3h1z" class="J"></path><path d="M412 392c1 0 1 0 2 1-1 1-1 1-1 2h-1c-1-1-1-1-1-3h1z" class="C"></path><path d="M241 153c-1 2-2 3-3 4-2 2-4 3-6 3v-1c1-2 3-3 5-4l3-3 1 1z" class="G"></path><path d="M104 392h0l3-3c1-1 3-2 4-2v1l-3 2-3 3h1c-2 2-4 4-5 6l-3 6v-1c0-1 1-2 1-3 1-3 3-8 5-9z" class="K"></path><path d="M108 382v2h1c1-1 1-1 2-1-2 2-5 3-7 5-1 0-1 1-2 1-2 1-3 3-4 5h0c0-1 1-3 2-4 2-3 4-6 8-8z" class="C"></path><path d="M154 429c-1 1-2 3-3 4s-2 3-3 4v-1h0c0-1 1-3 1-4 2-3 5-7 8-9 0 1-1 2-1 3v1l-2 2z" class="I"></path><path d="M242 611c0 1 1 1 2 1h0 1v2h2 1v1h-1v1c-3-1-3-1-6-1l-2 2h0v-1h0-1 0-1v-1h2c0-1 0-1 1-1v-1h-1c1-1 2-1 3-2zm121 20v1c-3-1-3-3-5-4v2h0c-1-1-1-2-1-3 0-2 0-4 2-6 0-1 1-2 2-2 0-1 1 0 1 0v1h1c-2 1-3 2-4 3v4c1 2 2 3 4 4z" class="J"></path><path d="M356 122h1c1 0 2 0 3 1v3c0 1-1 1-2 2-1 0-2 0-3-1 0-1-1-2-1-3l2-2z" class="B"></path><path d="M479 189c0-1 1-2 2-2s2 0 3 1c0 0 0 1 1 1-1 1-1 2-2 3s-2 1-3 1l-1-1v-3z" class="G"></path><path d="M352 600c1 1 2 1 3 1v-2h1v3h-1l-1 1v-1h-1-1v1c-1 1-1 1-2 1h2v-1h0l1-1v2h0c-1 1-1 1-1 2h-1l-1 1c0-1-1-1-1-2h-1c-1-1-1-1-2-1l1-1h0 2 0v-2c1-1 2-1 3-1z" class="J"></path><path d="M349 603v-2c1-1 2-1 3-1 0 2-1 2-1 3h-2z" class="F"></path><path d="M195 590h1c1 1 2 1 2 2v3l-2 2c-1 0-2-1-3-2v-3c0-1 1-1 2-2z" class="G"></path><path d="M152 420l-18 14c2-2 4-4 5-6 4-4 7-6 12-9 0 1 1 1 1 1z" class="B"></path><path d="M115 365h3c-2 1-4 2-5 3-1 0-2 1-2 2h0l-10 6h-1c5-4 10-8 15-11z" class="E"></path><path d="M171 439c2-4 3-7 5-9h2c-1 2-3 4-5 7s-3 7-5 10c1-2 2-6 3-8z" class="I"></path><path d="M122 494h1c0-1 1-1 2 0l2 2c-1 2-1 2-2 3-1 0-1 1-2 1l-1-1c-1-1-2-2-2-3 1-1 1-2 2-2zm163 123h1c1-2-1-4 1-6 1 0 2 0 3 1s1 2 0 3c0 1-1 2-2 3s-3 0-4 0c0-1 0-1 1-1zm-107-69l2 2c-2 2-5 3-7 3-3-1-6-2-8-4v-1c3 0 5 3 7 1 0 1 1 1 1 1 1 1 3 1 4 1 1-1 0-2 1-3zm101-445l2-1c1 1 1 1 2 1 0 1 1 2 1 3s-1 2-2 2h0-3c-1-1-1-2-1-3s0-2 1-2z" class="B"></path><path d="M396 626h2c1 0 2 1 3 2v3c-1 1-2 1-3 1 0 1-1 1-1 1-1 0-2-1-2-2h0c0-1 1-1 2-1v-2c-1 0-1-1-2-1l1-1z" class="G"></path><path d="M172 549h0c0-1 0-2-1-2h0v-1c1 0 1 0 1-1h0c2 0 2 0 3-1h1 1v1c-1 0-1 1-1 1l2 2h0c-1 1 0 2-1 3-1 0-3 0-4-1 0 0-1 0-1-1z" class="D"></path><path d="M463 155h1 0c0-1 2-2 2-2l1-1h0c2 0 3-1 4 0h1l2 2c-1 1-1 0-2 0h-1-2v-1c-1 1-1 1-2 1v1c2-1 2-1 3 0s1 1 1 2v1c-1-1-1-2-3-3-3 0-1 2-3 4-1-1-1-3-2-4zM117 332l2-1 1 1v1h0l-1 1c-2 1-3 3-5 4-1-1-1-2-3-2v-1l1-1h0c1-1 4-2 5-2z" class="H"></path><path d="M117 332l2-1 1 1v1c-2 0-5 1-7 2l-1-1h0c1-1 4-2 5-2z" class="C"></path><path d="M429 137c1-1 2-1 3 0h1 1v1c-1 1-1 2-2 2s-2 1-3 2h-2v2 2 1l-1-1c0-1 1-5 1-7 0-1 1-2 2-2z" class="M"></path><path d="M219 109c1-1 2-1 3 0 2 0 3 1 3 2 1 2 0 3 0 4h-1c-1 0-2 0-2-1l-3-3v-2z" class="I"></path><path d="M427 113h0c1 0 2-1 3-2h0c-1 0-1-1-1-1 0-2 1-2 2-3h1v1l-1 1h0 1v-1h1c0 1 1 2 1 2l1 1h0v1c0 1-1 1-1 2-2 0-3-1-4 0v1 1l-1-1c0-1-1-1-2-2z" class="H"></path><path d="M106 320c2 0 3 0 5 1h-1v1l1 1 1-1h3s0 1 1 1h0l-1 1h-1c0 1-1 1-1 1l-1-1h-1-1 0c-1 0-1 0-1-1h-2v1c-1 0-1 0-2-1v-1l1-2h0z" class="J"></path><path d="M122 435h2c1 0 2 1 3 2v3c0 4-2 5-4 7l-1-1c1 0 2-1 2-2v-1h-1v-1l2-2c-1-2-2-3-3-4v-1z" class="C"></path><path d="M506 157h1c2 1 2 1 3 2v3l-2 2h-2c-1-1-2-1-2-2v-3c0-1 1-1 2-2z" class="G"></path><path d="M321 134c-1-1-2-1-3-1-3-2-7-5-8-8-1-1-1-1-1-2h-2l-1-2c0-1 1-2 1-4 1 2 1 4 2 5 3 5 7 8 13 9h-2 0c-1 0-3 0-4-1h0l1 1c1 1 3 2 4 2h0 1l-1 1z" class="F"></path><path d="M419 610h2 0v-2h0 2c0 1 1 1 2 1h0l-1 3h0c0 1 0 1 1 2h0c-1 0-1 0-1 1l1 1-1 1h0c-1 0-2 1-2 1l-2 2v-1l2-2v-3l-1-1-1 1h0c1-2 1-2 0-3l-1-1z" class="H"></path><path d="M424 612h-1v-3h2 0l-1 3h0z" class="C"></path><path d="M262 589l-1-2v-1h0c1 2 3 4 5 5 2 0 2-1 4-2 1 1 1 1 2 1 0 1 1 2 0 3l-1 1c-2 1-4 0-5-1h-1c-1-1-2-2-3-4z" class="G"></path><path d="M433 145h0c1 1 2 1 3 0v-2l-1-1h1 1v-2-1c1 1 1 1 1 2l1 2v3s0 1-1 1c0 1-1 1-1 2h0l-2 2c-1-1-1-1-1-2h0v-2l-1-2z" class="D"></path><path d="M417 424h1 3c0 1 1 2 1 3-1 2-1 2-2 3h-1c-1 0-2 0-3-1 0 0-1-1-1-2s1-2 2-3z" class="B"></path><path d="M158 516v-2c1-1 1-1 2-1h1v2c0 1-1 1-1 2-1 2-2 2-3 3 0 1 0 2-1 2h0v-2h-3c-1-1 0-3 0-4s0-1 1 0c1 0 1 1 2 1h0c1 1 0 1 1 1l1-1v-1z" class="H"></path><path d="M432 573c4 0 7 0 9 2 2 1 2 2 2 4 1 5-2 8-5 11h0 0c2-2 3-4 4-7 0-3 0-4-2-6s-5-2-7-3h3-1-2l2-1h-3zm-120 37c4 1 7 3 9 7 1 2 2 4 3 5-1 0-1 0-2 1-1-3-2-5-4-7-3-3-6-4-9-4h3v-2z" class="E"></path><path d="M477 473h1c1 0 2 0 3 1s1 2 1 3-1 2-2 3h-1c-1 0-2-1-3-1 0-1-1-2 0-3 0-1 0-2 1-3zm7 71c1-1 3-1 3 0 2 0 3 2 3 3s0 2-1 3h-2c-1 0-2 0-3-1 0 0-1-1-1-2 0-2 0-2 1-3z" class="B"></path><path d="M137 217c1 0 3 0 4 1h8c1 0 3-1 5-1h0l-1 1h0c-3 2-7 4-11 3-2-1-3-2-5-4z" class="E"></path><path d="M434 460h0 2c1 0 1 1 1 2v1h-1 0c0 1-1 1-2 2h1v1h0-1v-1c-1 0-1 0-1-1h0c-1 1-1 1-2 1s-1 0-1 1c1 1 1 1 1 2l-1 1-1-1h0c-1-1 0-1 0-3l-1 1h-2s1 0 1-1c1 0 1-1 2-2h0c2 0 2 0 3-1h0l2-2z" class="D"></path><path d="M432 462l2-2c1 1 1 2 1 3-1 1-1 1-2 1-1-1-1-1-1-2z" class="B"></path><path d="M125 399c-9 4-14 11-17 21 0-1 0-3 1-4 1-7 7-14 14-18 1 1 1 1 2 1z" class="E"></path><path d="M415 547h1c1 0 2 1 2 2 0 0 1 1 0 2 0 1-1 2-2 3h-1c-2 0-2-1-3-2s-1-2 0-3c0-1 1-2 3-2z" class="B"></path><path d="M428 193h2v1h1l2 1h2v1c0 1-1 1-1 1-1 1-1 3-1 4h-2c-1-1 0-3-1-3s-2 0-3 1l-1-1 2-1h-1c0-1 1-1 1-2v-2z" class="H"></path><path d="M433 195l-2 2c-1-1-1-1-1-2l1-1 2 1z" class="C"></path><path d="M306 130h2c2 1 2 2 3 3 0 1 0 2-1 3l-1 1h-1c-2 0-2-1-4-2v-3c1-1 1-2 2-2zm-161 96h1v2c1 1 1 2 2 2 0-1 0-1 1-2s2 0 3 0c1 1 1 1 1 3h0l-2 2c-1 0-4 0-5-1-1 0-2-1-2-3 0-1 0-2 1-3z" class="I"></path><path d="M482 207c0-1 0-1-1-2l2-1c1 0 1 1 2 1s1 0 2-1v-2h2v-1l1 1v1h0 1s1-1 2-1 1 0 2 1v1c-1 1-1 0-1 0-1 0-1 1-2 1h-2-1c0 1-1 2-2 2h-3-2z" class="H"></path><path d="M494 209h1v1c-3 2-5 3-8 4-4 1-8 1-11-1l-2-1 1-1c7 3 12 1 19-2zm-274-43h0c1-1 3 0 4 0 2 1 3 2 3 3s0 2-1 3-1 1-3 1c0 0-1 0-2-1s-1-1-1-2c1-1 3-2 4-3h-4v-1z" class="G"></path><path d="M117 332v-1h-2 0-2v-1c-1 0-3 1-5 0h0v-2h-1l1-1h3c1 0 2 0 3-1h1v2c-1 0-3 0-4 1l1 1c1-1 2-1 2-1h2c1 0 1 0 2 1 1 0 1-1 1-1h3 0l4-1c-2 2-5 2-7 3l-2 1z" class="J"></path><path d="M112 330c1-1 2-1 2-1h2c1 0 1 0 2 1h-3-3 0z" class="M"></path><path d="M200 126c1 0 1 0 2 1 1 0 2 0 3 1v3c-1 1-1 2-3 2 0 0 0 1-1 1s-2-2-3-2v-3c0-1 1-2 2-3z" class="B"></path><path d="M426 406h0c0-2 0-3-2-4-1-1-3-2-5-2-1 1-3 2-4 4v2c-1 0-1 1-1 1 0-2 1-6 3-8h0 0c1-1 5-1 6 0 2 0 4 1 5 3s1 4 1 6c-1-1-1-2-1-3l-2 1z" class="F"></path><path d="M461 590c0-1-1-1-1-2-1-1-2-1-3-1-2 0-3 0-4 1s-2 3-2 4v1-1l-1-1c0-2 1-4 2-6 2-2 5-2 8-2v2c1 2 3 2 2 4l-1 1z" class="C"></path><path d="M338 598h0 3c1 1 1 2 1 3 1 2 0 4-2 5-1 1-3 1-4 1s-3-1-4-2h0 1 2l3-3c-1-1-1-2 0-4z" class="I"></path><path d="M181 490c1-1 1-1 2 0 2 0 3 1 4 3v2c-1 1-1 1-2 1-1-1-1-2-2-2h0c-1 0-2 1-2 2v1c-1 1-1 0-1 1-1-1-2-1-2-1-1-1 0-2 0-3 0-2 1-3 3-4z" class="G"></path><path d="M449 118c1-1 1-2 3-3 1 0 3 0 4 1s1 2 1 3c0 2-1 3-2 4h-3-1c0-2-1-3-2-5z" class="E"></path><path d="M395 574h0v2c0 1 0 2 1 3h1l1-1 2-2c1 1 2 1 2 2v3c-1 1-2 2-4 2-1 0-3 0-4-1s-1-2-1-4 0-3 2-4z" class="G"></path><path d="M471 158v1 1c0 1-1 1-2 2-1 0-4 0-5-1-1 0-2-2-3-3 0-1 0-2 1-3h1c1 1 1 3 2 4 2-2 0-4 3-4 2 1 2 2 3 3z" class="E"></path><path d="M186 224c-1 0-1 0-1-1s1-2 1-2h3c0-1 1-1 1 0h2c1-1 1-1 2-1v1c1 1 1 1 0 3 0 0 0 1 1 1-1 1-3 1-5 2-2 0-3-1-4-3z" class="H"></path><path d="M194 224h0c-2 1-2 1-3 0s-1-1 0-2h1c1-1 1-1 2-1 1 1 1 1 0 3z" class="C"></path><path d="M322 131c6 0 13-1 17-5h1c-1 2-5 5-7 6-3 2-7 3-12 2h0l1-1h-1 0c-1 0-3-1-4-2l-1-1h0c1 1 3 1 4 1h0 2z" class="E"></path><path d="M483 505h1c0 1 0 1 1 2l-3 3c-1 1-3 1-5 1h-1c-2 0-3 0-4 1-2 0-2-2-4-2l-1 1v-1l1-1c1-2 1-2 3-2 1 1 3 2 5 2 3 0 5-2 7-4z" class="C"></path><path d="M400 374c0-2 1-4 2-5 3-2 7-3 10-2 3 0 5 1 7 3s2 5 3 7v1l-2-2c0-1-1-2-2-3-2-3-4-4-7-5h-3c-3 1-5 1-7 3 0 1-1 2-1 3z" class="G"></path><path d="M141 530h2l3 3v3c-1 2-1 2-2 2-1 1-1 1-2 0-1 0-2-1-3-2s-1-2-1-3l3-3z" class="B"></path><path d="M420 161c4 1 8 2 13 0 6-2 10-6 12-12 1 1 1 2 0 2v1c-1 2-2 3-3 4 0 0-2 1-2 2s1 2-1 3h0c-1 0-2 0-2 1-1 0-1-1-2-1l-1 1h-2c-1 0-1 1-1 1h-3c-1 0-2 0-3 1h-1s-1 0-1 1v1h-3l-1-1c0-2 1-3 1-4z" class="H"></path><path d="M185 214c2 0 3-1 4 0 2 1 2 2 2 3s0 1-1 2c-2 0-2-1-3-2h-3c-1 2-1 2-1 3v1l-1-1c0-1 0-1-1-1-1 2 0 4-1 5h-1c-1-1-2-1-2-2 1-1 2-2 3-4s3-3 5-4zm249 383c1-1 2-1 3-1 1 1 3 2 3 3h0c1 1 1 2 0 3 0 1-1 2-2 3h0c-2 2-3 2-6 2l-1-1h2 2c1-1 1-2 1-3h0 0c0-2-3-3-4-4l1-1c1 0 1 0 1-1h0z" class="E"></path><path d="M440 599c1 1 1 2 0 3 0 1-1 2-2 3v-3c1-2 2-1 2-3z" class="C"></path><path d="M432 599l1-1c1 0 1 0 1-1h0 0c0 1 1 1 1 2 1 0 2 2 1 3v1h0c0-2-3-3-4-4z" class="D"></path><path d="M336 612l-1 1h-2c0-1-1-1-1-2h0l1-1v-1c1 0 1 0 1 1l2-1h0 1c1 0 1 1 2 1v1l-1 1 1 1c1 0 0 0 1-1v-1h0 1s1 0 2-1l1 2s1 1 1 2h3v1c-1 0-2 0-2 1l-1-1h-1l-1 1h0c-2 0-2-1-3-2h-1v2h0l-1-1v-2h-2v-1z" class="H"></path><path d="M336 612l-1-1c0-1 0-1 1-2l2 2c0 1-1 1-2 1v1-1z" class="C"></path><path d="M340 614c0-2 1-2 2-3 1 1 1 1 1 2v3c-2 0-2-1-3-2z" class="K"></path><path d="M256 628c0-2 0-3 1-4s2-1 3 0h1c1 0 2 0 3 1v1c0 2 1 2 0 4-1 1-2 1-4 1-1 0-2 0-2-1-1-1-2-1-2-2z" class="E"></path><path d="M264 626l-2 2c0 1-1 1-2 1-1-1-1-1-1-2 0-2 0-2 1-3 1 0 2 0 2 1h1 1v1z" class="H"></path><path d="M440 453h1c1 0 3 0 4 1 2 1 2 2 2 3 0 2-1 3-2 3l-2 1c-1 0-2 0-3-1s-1-2-1-3c0-2 0-3 1-4z" class="I"></path><path d="M443 454c1 0 1 0 2 1v1 1l-2 1v-1c0-1-1-1 0-3z" class="H"></path><path d="M195 565h2c1 1 1 2 1 3 1 2 0 4-1 6-2 2-5 4-8 4-3 1-4 0-6-1-1-1-1-2-1-3v-1c1 1 3 2 5 2 2 1 4 0 6-1s3-3 4-5c0-1-1-2-1-3l-1-1z" class="E"></path><path d="M171 177h3c2 0 4 1 5 2 1 2 2 4 2 7-1 2-1 4-3 5h0v-1-5c0-1-1-3-2-4-3-2-5-2-7-1h-2 1c0-2 2-3 3-3z" class="F"></path><path d="M470 545h0c1 0 1 1 1 1 1 1 2 0 3 0v1h-1v1l1 1c0-1 0-1 1-1h1c0 1 0 2-1 3 0 1-1 2-2 3v-1-2-1h-1l-2 1 1 2-1 1s-1 0-2-1c0 0-2 0-2-1 0 0 1 0 0-1h0l-1-1c0 1 0 1-1 1v-2h1v1-3h2 1 1l1-2z" class="J"></path><path d="M415 457h1c1 0 3 1 3 2 1 1 1 3 0 4 0 1-1 2-3 2-1 1-2 1-3 0-1 0-1-1-2-2 0-1 0-2 1-4 0-1 1-2 3-2z" class="B"></path><path d="M200 594h1c1 0 1 1 2 2 0 1 0 3-1 5-1 1-2 2-3 2-3 1-6-1-8-2-1-1-1-2-2-4h0c1 1 2 2 3 2 2 1 3 1 5 0 1-1 2-4 3-5zm315-230h1c2-1 3 0 4 1s2 3 2 5c0 1 0 1-2 2h0l1-2h-1 0c-1 1-2 2-4 2 0 0-1 0-2-1s-1-2-1-4c1-1 1-2 2-3zm-58 189c1 1 1 2 1 3 1 4-2 7-4 10v-5c0-4-2-6-5-8 1-1 2-2 3-2s2 0 3 1l2 1z" class="G"></path><path d="M177 196h0 0c-1 2-2 4-3 5-4 3-8 4-12 4-4-1-6-3-9-6v-2h0c2 1 3 3 5 4 4 1 8 2 12 0 1-1 5-2 6-3 0-1 0-2 1-2z" class="E"></path><path d="M206 171l1-1c1 0 2 1 3 2s1 3 1 4c0 2-1 3-2 4s-1 1-2 1l-3-3v-5c0-1 1-2 2-2z" class="G"></path><path d="M452 174h2c1 0 3 2 3 3 1 2 1 4 1 6-1 2-3 4-4 5-4 1-9 2-12 0-1 0-1-1-2-2h1c1 1 2 1 3 2 3 0 5 0 8-2 1-1 3-3 3-4 1-4-1-5-3-8z" class="F"></path><path d="M383 375l-1 1h-4c-1 0-2-2-3-2 0-2 0-2 1-3 1 1 1 1 1 2 1 0 1-1 1-1 1-1 1-2 2-3 2 0 4 0 6 2 1 0 1 1 1 2v3l-1 1c-1-1-2-1-3-1v-1z" class="B"></path><path d="M383 375s0-1-1-2c0 0-1-1-1-2h1c1 0 2 1 2 2 1 1 1 1 0 1 0 1 0 1-1 2v-1z" class="H"></path><path d="M472 392c2 1 3 1 4 3 0 2 0 3-1 4l-1 2h-2c-2 0-3 0-4-1s-1-2-1-3c1-2 3-3 5-5zM187 530c1-2 1-3 2-3 1-1 2-1 4 0 1 1 1 2 2 3 0 2-1 3-2 4-1 2-3 2-5 2h-1c-1-2-1-4-1-5h1v-1h0z" class="G"></path><path d="M187 530h0 1 1c1 1 1 1 1 3 0 1-1 2-2 3h0-1c-1-2-1-4-1-5h1v-1z" class="D"></path><path d="M169 185c0-2-1-2-2-2l-1 1h-1c2-2 3-1 6-1 0 0 1 1 2 1 0 1 0 1 1 1v1c1 1 1 2 1 3h-1v1c0 1-2 2-2 2v1l-1 1h-1-4 0l-2-1c0-1 0-1-1-1v1 1h0-2l-1-1h2c0-2-1-3-1-4 1-1 1-1 2-1 0-1 1-1 1-2h0c1 1 0 2 1 3 0 2 2 3 4 3 1 0 2 0 3-1 1 0 0-1 0-2h0c-1-2-1-3-3-4z" class="H"></path><path d="M414 487c2-1 5-1 7 0s4 2 4 4c1 3 0 6-1 9h0v-3l-1-1c0-2-1-4-3-5-3-3-7-1-11-1 2-1 3-2 5-3z" class="G"></path><path d="M462 195l1 1h2v1c-1 1-3 2-4 4h0-4 0-1c-1 0-2-2-2-3-1 0 0-1 0-2h1v-1c0-1-1-1-1-1v-1-1h0l3 1h3l2 2z" class="H"></path><path d="M457 193h3l2 2-1 2c-1 1-1 1-3 1-1-1-2-1-2-2-1-1 0-2 1-3z" class="B"></path><path d="M404 123c-1 0-2 1-3 1-3 2-8 2-11 0-2 0-5-2-6-4v-3c2 2 3 4 6 5 4 1 10 0 14-1 1-1 1-2 2-3v-2h1l-1-2 1-1 1 1v1c-1 3-2 5-4 8zM170 224c1 0 2-1 3 0 1 0 2 1 3 2 1 2 1 4 1 6-1 2-2 3-3 4-2 1-5 1-8 1-2-1-4-3-5-5l-1-2h1c1 2 2 3 4 4s4 1 6 0 3-2 3-3c1-2 1-3 0-4s-2-2-3-2h-3l1-1h1zm193 385c2-1 4-2 5-4 1-1 1-2 1-3-1-2-2-3-4-4h-4v-1c1-1 3-2 5-2 1-1 3 0 5 1 1 1 2 2 2 4s0 4-2 6-4 3-7 3h-1z" class="E"></path><path d="M440 381l-1 2-2 2c-1-1-3-1-4-2s-1-3-1-5c0-1-1-2 0-3 0-1 2-3 2-4 2-2 4-2 6-2v1c-1 1-3 2-4 4v3c0 1 1 2 2 3 1 0 1 0 2 1zM186 234l1-1c1 0 3 1 4 2s2 2 2 4c0 1 0 2-1 4h-1c0-1 0-2-1-2v-1h-1c-1 1-2 1-2 2s-1 1-1 1c-1 0-2-1-2-1-1-2-1-2-1-4s1-3 3-4z" class="G"></path><path d="M259 602c2 0 3 0 5 1 1 1 3 3 3 4 0 2 0 3-1 4h-1l-1-4c0-1 0-1-1-1 0 1 0 1 1 2l-1 1c0 1 0 3-1 4h-2-1l1-1h1v-1h-1l1-2c-2-1-4-1-5-1l-1-1c0-1 0-1 1-2 0-2 2-2 3-3z" class="E"></path><path d="M376 130c1 0 4 2 5 3 2 1 4 1 6 2 7 1 14 1 21-3 0-1 0 0 1 0l-1 1-3 3c-4 2-10 3-15 3-5-1-11-5-14-9z" class="C"></path><path d="M133 510c1 0 2 0 3 1 1 0 3 2 4 3v3c-1 2-2 2-3 3-1 0-1 0-2-1v-2l1-1v-1h0c-1-1-1-1-2 0-2 1-2 4-2 6h-1c-1-1-1-1-1-2-1-2-2-4-1-6 1-1 2-2 4-3z" class="G"></path><path d="M472 392c2 0 4-1 6-1s3 0 5-1c0 0 1 0 1 1h3v1l-1 1c-1 1-1 1-1 2h-1l1 2h1v1l-1 1v-1c-1 0-2-1-3 0h-2c-1 0-2-1-2-2v-1l-1 1v-1c0 2 0 4-2 6h-1l1-2c1-1 1-2 1-4-1-2-2-2-4-3z" class="J"></path><path d="M484 394l1-1-1 2 1 2v1h-1 0c-1-1-1-1-2-1l1-1c0-1 1-2 1-2z" class="H"></path><path d="M482 397h-2c-1-1-1-1-1-2 0 0 1-1 1-2 1 0 3 0 4 1 0 0-1 1-1 2l-1 1z" class="E"></path><path d="M429 408c-1 2-2 4-4 5-1 1-2 1-3 1-2-1-3-2-4-3 0-1-1-3 0-4 0-1 1-2 2-3 2 0 2 0 3 1l2 2 1-1 2-1c0 1 0 2 1 3z" class="G"></path><path d="M291 117h0c0 1-1 2-2 3-2 4-6 8-11 9h-7c-5-1-11-5-15-8l-2-1h0c8 3 15 8 24 6 6-1 10-5 13-9zm150 439h2c3 0 5 1 7 3 1 2 1 5 1 8h0c-1-1-1-3-2-3-1-3-4-3-7-4-5 0-10 1-15 3 4-4 9-6 14-7z" class="E"></path><path d="M195 225h0c2-1 3-3 4-5 0-3-1-6-3-8s-8-4-11-4h-1v-1h6 2c3 2 6 3 8 7 1 2 1 5 1 8-1 2-3 4-5 5s-6 1-8 0c-1 0-2-1-2-3 1 2 2 3 4 3 2-1 4-1 5-2z" class="C"></path><path d="M433 574c-3 1-4 2-6 4v2c0 2 1 4 3 5 1 0 2 0 3-1s1-1 1-2v-2c1 0 1 0 2 1v2c-1 2-2 4-4 5-2 0-4 0-6-1-1 0-2-2-3-3 0-2 0-4 1-6 2-3 5-4 8-5h3l-2 1h2 1-3z" class="G"></path><path d="M468 196h1c-1 4-2 7-5 10-3 2-6 3-9 2-5 0-8-4-11-7-1-2-1-2-1-3 1-1 2-1 2 0 1 0 1 1 2 2 1 2 3 3 5 4 3 1 7 1 11 0 2-1 4-3 5-5v-1-2zm-90 418c1 0 1-1 2-1s3 0 4 1c1 2 2 3 2 5-1 2-2 3-3 4s-3 2-5 2c-1 0-2-1-3-2v-3-1c1 0 2 0 3-1 1 0 1 0 2-1-1-1-1-2-2-3z" class="I"></path><path d="M186 562h0c2 0 7 3 8 4s1 1 1 2c-1 2-2 3-3 4-1 0-2 1-3 1-2-1-3-1-4-2-2-2-2-4-1-5 0-2 0-3 2-4z" class="G"></path><path d="M442 483c2-1 4-1 6 0s4 3 5 5c1 1 1 1 1 2-1 0-2-1-2-1-4-3-9-2-13-1-5 2-7 4-10 8l2-5c3-5 6-7 11-8z" class="I"></path><path d="M500 376c1-1 2-3 3-4 1 0 3 0 4 1 2 1 3 2 3 4 0 1-1 3-2 4-1 2-2 2-4 3h-1c-1-1-2-2-2-3l-1-1v-4z" class="E"></path><path d="M504 377l2 1v-1c-1-1-1-1-1-2h0c1 0 1 0 2 1 0 2 0 4-1 6l-1 1-1 1h-1c-1-1-2-2-2-3l-1-1v-4c2 1 3 0 4 1z" class="D"></path><path d="M501 381l-1-1v-4c2 1 3 0 4 1l1 2-1 1v1h-2l-1-1v1z" class="H"></path><path d="M359 91c1 0 2 0 2 1 1 0 2 1 2 2 0 2 0 2-1 3 0 1-1 1-1 1-1 0-2-1-3-2l-1-1h0-1v4l3 3c2 1 4 0 6 0 1-1 1-2 1-3l1 1c-1 1-1 2-1 3-1 2-2 3-3 3-2 1-3 0-5-1s-4-3-4-5c-1-2 0-4 1-6s2-2 4-3z" class="G"></path><path d="M309 616c2 0 3 0 4 1s2 3 2 4c0 2-1 4-2 6-2 1-4 2-6 2s-4 0-5-2v-2c0-1 0 0 1-1l2 1h0c1 1 2 1 3 0 1 0 2-1 2-2s0-3-1-4c0-1-1-1-2-1h0l2 4h-1-1l-3-3 1-1c1-1 3-2 4-2z" class="C"></path><path d="M438 380c2-3 4-5 7-6s6-1 8 1c4 2 6 5 7 9 1 2 1 3 1 5l-2 2c0 1 1 1 0 3v1h-1v-1c1-2 1-5 0-7h0v-2c-1-3-3-6-6-7s-6-1-9 0c-2 0-3 1-3 3-1-1-1-1-2-1z" class="I"></path><path d="M449 383h1c1 0 2 1 2 2 2 3 3 7 2 10-2 8-6 10-12 14h0v-1c3-3 6-6 8-10 0-2-2-1-2-3 0-1 2-2 3-3v-3c0-1-2-1-3-2v-1c0-1 0-2 1-3z" class="C"></path><path d="M466 128h1c1 1 3 2 3 4 1 1 1 3 0 5s-2 4-4 5-4 1-6 0c-1-1-2-1-2-2v-4c0-1 1-2 2-2 2 0 3 1 4 1 1 1 1 1 2 0 1 0 2-2 2-3 0-2-1-3-2-4z" class="G"></path><path d="M408 368h3c3 1 5 2 7 5 1 1 2 2 2 3 0 0-1 0-1-1h-1-5l-1-1v-1-1c1 0 1-1 2-1s1 0 1 1l1-1-1-1h-3v1c0 1-1 1-1 2h1l-1 1s0 1-1 1h0c-2 0-2 0-3 1h0-1l1-1h-2-2c-3 0-1 1-2 3l-1-1h0v-3c0-1 1-2 1-3 2-2 4-2 7-3z" class="D"></path><path d="M403 375l-1-1s0-1 1-1c0-1 1-1 2-1h1l-1 3h-2z" class="F"></path><path d="M408 368h3c0 2-1 3-2 4h-1v-1l-1-1 1-2z" class="J"></path><path d="M153 471h5c4 0 7 2 10 5s5 9 5 14c0 1 0 3-1 4 0-2 0-4-1-6v-1c-1-4-4-8-8-11-6-3-11-2-18-1 3-2 5-3 8-4z" class="I"></path><path d="M156 546c4 5 10 9 17 10 5 1 8 0 12-3 0-1 1-2 2-3v1c-2 4-7 8-11 9h-7c-3-1-5-2-7-4-3-2-6-6-6-10zm198-433c3 0 5 0 7 2 1 2 2 4 2 6h-1-1c-1-1-2-1-3-1-2 0-3 1-4 2v1c-1 1-1 2-1 4h0 0c-3-2-4-5-4-9 1-2 2-4 5-5zM130 455v2c1 0 1 1 2 1 1 1 3 0 4 0 1-1 3-2 3-4 1-1 0-2 0-3-1-1-2-2-3-2-2-1-5 0-7 1s-3 3-3 5c0 3 0 6 2 8h0c-1 0-2-1-2-2-1-2-1-5-1-7 1-2 2-4 4-6 2-1 4-1 7-1 2 1 4 3 5 6 1 1 1 4 0 6 0 2-2 3-3 4-2 0-4 1-5 0-2-1-3-3-4-4 0-2 0-3 1-5v1zM256 95c1-1 2-1 3 0 1 0 2 1 3 3 1 1 1 5 0 6-1 2-2 3-4 3-2 1-4 0-6-1-1 0-2-1-2-2-1 0 0-1 0-1h5c2 0 2 0 3-1h0-1c-2 0-3-1-4-2 0-1-1-2 0-2 0-2 2-3 3-3zm213 463c2 0 3 0 5 1s5 4 6 6c1 4 0 8-2 11v-2c1-3 1-5 0-7-1-1-2-2-4-3-1-1-3-1-4 0-3 1-4 3-5 5l-3-3c1-2 1-4 2-5 1-2 3-2 5-3zm-147 65c1-1 1-1 2-1v1c1 5 1 12-2 17-2 3-6 5-9 6-7 1-14 0-20-4l-1-1c7 3 15 4 22 1 4-2 7-5 8-9 1-3 1-5 1-8-1 0-1-2-1-2z" class="G"></path><path d="M322 623c1-1 1-1 2-1v1c0 2 0 3-1 4v-2c-1 0-1-2-1-2z" class="B"></path><path d="M179 158h0v-2c2 1 1 3 2 5-4 9-16 9-21 16-2 2-2 3-2 6 0 1 0 2-1 3h-1l-2-2c-1-1 0-4 0-5 3-6 11-10 17-12 4-2 6-4 8-8v-1z" class="I"></path><path d="M385 97h3c4 0 8 1 11 4 2 3 2 5 2 9-3-1-5-3-8-4-5 0-7 2-11 5h-1l-1-1v-3l1-1 2-2h2c1 1 2 1 3 1 1-1 1-2 1-2 1-1 2-1 3-1 1 1 2 2 3 2s1 1 2 1c0-1 0-2-1-3-3-3-7-3-11-4-2 1-4 3-6 3v-1c1-1 4-2 6-3z" class="E"></path><path d="M471 435h0l2-2v3 3l-1 1c-3 5-9 8-15 9-5 1-11 0-16-3-3-2-7-6-7-9 1 0 1 2 2 3l3 3c4 3 9 4 14 4 7-1 13-6 18-12zM243 143h0c-1-1-2-3-3-3-1-1-3-1-4-1-2 0-3 1-4 3-1 1-1 2 0 3s1 1 2 1 1 0 1-1c1-1 0-2 1-3 1 0 2 1 2 1 1 2 1 3 0 4 0 2-2 3-4 3-1 1-4 1-5 0l-3-3c0-3 0-5 1-7 2-2 4-4 6-4 3-1 6 0 8 1 2 2 3 4 3 6h0v3c-1-1 0-2-1-3h0z" class="G"></path><path d="M276 93c4 0 7 0 10 2s5 5 5 8c1 3 0 6-1 8-2 2-5 4-8 4-2 1-4 0-5-1-2-2-2-5-2-7h0c1 2 2 3 4 4h2c2 0 4-1 5-3s2-4 1-6c0-2-1-4-3-5-2-2-4-2-6-1-3 0-6 1-8 4-1 1-2 3-3 5 0-3 0-5 2-7 1-3 4-4 7-5zm53 1c3 0 7 0 10 1 3 2 6 5 7 8 2 4 2 8 0 12-2 3-5 6-9 7-4 2-9 0-12-2-3-1-5-3-6-5h0l2 1c5 3 8 4 14 3 3-1 6-3 8-6 1-2 2-6 1-9s-3-5-5-7c-5-2-11-2-15 0-2 0-3 1-4 1h0c2-2 7-3 9-4z" class="I"></path><path d="M210 554c4 2 7 5 9 9 2 5 2 11 0 17s-7 9-12 12c-3 0-4 1-7 1v-3c1-1 3-1 5-2 6-2 11-8 12-15 1-4 0-9-2-12-2-2-4-4-6-5h0 1c-1 0-1-1-2-1h-1c0-1-2 0-3 0 2-1 3-1 5 0h0l1-1z" class="G"></path><path d="M249 587v-1l3 3c1 3 1 6 0 8s-3 4-6 5c-2 0-5 0-7-1-1-1-2-2-2-3 0-2 0-3 1-4 0-1 1-1 1-2l2-2c1-1 2-1 3-1h1 0 3 1v1h1c0-1 0-2-1-3z" class="I"></path><path d="M244 589h1 0 3 1v1h1c-1 2-2 5-4 6s-3 2-5 1c-2 0-2-1-3-3h0 0c0-1 1-1 1-2l2-2c1-1 2-1 3-1z" class="D"></path><path d="M241 590c1-1 2-1 3-1 2 1 2 1 2 3 0 1 0 1-2 2h-3l-2-2 2-2z" class="E"></path><path d="M174 533h-3c-1-1-1-1-1-2-1-2-1-3 0-5s3-3 4-4c2-1 5-1 7 0 2 2 2 3 3 5v4c-2 4-5 7-9 8-2 0-3 0-5-1l-1-1h1c2 0 3 0 4-1h0 1c0-1 1-1 1-2h1c2-1 3-3 3-4 0-2-1-2-2-3h0l1 1c0 1 0 3-1 4s-2 1-4 1z" class="I"></path><path d="M176 526v1h0c1 1 1 0 1 1l1 1c0 1 0 2-1 3h0l-1-1h-2v-1c-1 0-1 0-2-1l1-2c1 0 1-1 3-1z" class="H"></path><path d="M177 528l1 1c0 1 0 2-1 3h0l-1-1h-2v-1h1l-1-2h1 2z" class="C"></path><path d="M176 526c1 0 2 0 3 1s2 2 2 3c0 2-2 3-3 4s-2 2-3 2c0-1 1-1 1-2h1c2-1 3-3 3-4 0-2-1-2-2-3h0l1 1c0 1 0 3-1 4s-2 1-4 1l3-1h0c1-1 1-2 1-3l-1-1c0-1 0 0-1-1h0v-1z" class="M"></path><path d="M493 139c1 0 4-1 6 0 1 0 3 1 3 3 1 2 1 4 0 6s-3 4-5 4c-2 1-4 1-5 0-2 0-4-1-5-3-1-1-1-4 0-5 1-3 3-4 6-5z" class="G"></path><path d="M493 142h2c1 1 1 1 1 2 0 2-1 2-2 3h-2c-1-1-1-2-1-3l2-2z" class="D"></path><path d="M470 462c0-1 1-1 1-2 0 1 1 1 1 1 1 1 2 1 2 3s-1 4-2 6c-2 1-5 2-7 2s-4-1-6-3c-1-1-1-4-1-6s1-3 3-5c1-1 3-1 5-1 1 0 2 1 2 2 1 1 1 2 1 3h-1l2-1v1z" class="G"></path><path d="M468 462l2-1v1c0 1-1 3-2 3-2 1-3 1-4 0s-1-1-1-3h0c1 1 2 1 3 2l2-2h0z" class="D"></path><path d="M472 383h0c0-1-1-1-2-3s0-4 1-6 2-3 4-4c2 0 5 0 7 1s3 3 3 5c1 3 0 5-2 7h-2l-1-2c0 2 0 4-2 5h0c-1 0 0 0-1 1l-1-1c0-1 2-1 2-2h-1v1h-3l-2-2z" class="C"></path><path d="M472 383c2 0 3 1 4 1 2 0 2-1 3-2h0c-2 0-3 0-5-1-1-1-2-3-2-4 0-2 0-2 1-3s3-2 4-2c1 1 2 1 3 2 2 2 1 5 0 7 0 2 0 4-2 5h0c-1 0 0 0-1 1l-1-1c0-1 2-1 2-2h-1v1h-3l-2-2z" class="H"></path><path d="M475 375c2-1 2-1 3 0v3l-1 1c-1 0-2-1-3-1 1-2 1-2 1-3z" class="F"></path><path d="M156 522c-2 6-4 12-4 18 2 1 2 1 3 3v2h0l1 1c0 4 3 8 6 10 2 2 4 3 7 4h-3 0l-1-1h-1c-1-1-2-2-3-2h0c1 1 1 1 2 1 0 0 0 1 1 1l1 1h1 1l2 1c1 0 1 1 1 1 1 0 1 1 2 1l-1 1s-1 1-2 1c-3 0-8-2-10-5-6-4-9-11-10-18 0-6 3-15 7-20z" class="E"></path><path d="M152 540c2 1 2 1 3 3v2h0l1 1c0 4 3 8 6 10 2 2 4 3 7 4h-3 0l-1-1h-1c-1-1-2-2-3-2h0c1 1 1 1 2 1 0 0 0 1 1 1l1 1h1 1l2 1c1 0 1 1 1 1-3-1-6-2-9-4-6-4-8-10-9-18z" class="H"></path><path d="M450 418c2 0 4 0 6 1s4 3 4 5c1 3 0 6-1 9h-1l1-1c1-2 0-5-1-7s-3-3-4-3c-3-1-6-1-8 1-1 0-2 1-2 2 0 2 0 3 1 4s2 1 3 1 1 0 2-1v-1c-1 0-2-1-2-2l1-1h2c2 1 3 2 3 3 1 1 1 3 0 4-1 2-3 3-4 4-2 1-4 1-6 0s-4-3-4-6c-1-2 0-5 1-7 2-3 5-4 9-5zm-43 175h3c2 0 4 2 5 4 2 1 2 4 1 6 0 2-2 4-3 6-3 1-5 2-8 1s-5-2-6-5c-1-1-1-3-1-5h0c1 1 2 3 3 3 2 2 4 2 6 2s3-1 4-2v-1c-2 1-4 1-5 1-2-1-3-1-3-3-1-1-1-3 0-4 1-2 2-2 4-3z" class="G"></path><path d="M445 163l-1-1c0-1 0-1 1-2h0 1c1 0 1 0 2 1 1-1 1-1 1-2l1-1h-1-2 0c0 1 0 1-1 2h-1c-1-1-1-1-1-2s1-1 1-1h2s-1-1 1-1c0 0 1 0 1-1 1 0 1 1 2 1v1 1h1v2c-1 1-1 1-3 0v3 1h-1-1-1 0c1 1 1 1 2 1s1 0 1 1 1 1 1 1v1c1 0 1 1 2 1v-1l2 1v2h-1l-1-1c-1-1-1-2-3-2v1l-1 1h-1v-1l1-1h0-2c-1-1-1-1-1-2h-1v1h-1 0 0c0 1 1 1 1 2l-2 2v1h-1 0-1s0 1 1 2l-2 2c0 1-1 1-1 2v2l1 1v1c1 1 1 1 0 2-1 0-3-1-3 0v1h-1-3c-1 0-1 0-1-2-1-1-1-1-1-2l1-1h2 1c0 1 1 1 2 2h0v1c0-1 0-2-1-2h0l1-1c-1-1-2-1-2-1 0-1 1-2 1-3h-1c1-1 2-1 2-2h0c1-1 1-1 1-2v-1-1c-1 2-1 3-2 3l-1 1c1 0 1 0 1 1-1 0-1 1-1 1-1-1-2-1-2-2h1c-1-1-1-2-2-2v-2h0l1-1h1c1 0 2 0 3 1 1 0 0 0 1-1-1 0-1 0-1-1v-3-1-1l1-1 1 1v1h0v1h0 1 0l1-1 1 1h1l1-1h0 2v-1h0z" class="H"></path><path d="M445 163v-2h2v1s0 1-1 1h-1 0z" class="C"></path><path d="M439 176c-1-1-1-2-1-2v-3l2 1s0 1 1 2l-2 2z" class="L"></path><path d="M439 165h2l1 1c0 1-1 2-1 2-1 1-1 1-2 1l-1-1c0-2 1-2 1-3zm-6 4c1 0 2 0 3 1v2c-1 1-2 1-3 1-1-1-1-1-1-3l1-1z" class="N"></path><path d="M431 183c0-1 0-1 1-2 1 0 2 0 2 1 1 0 1 1 1 2v1h-3c-1 0-1 0-1-2z" class="L"></path><path d="M470 523c2 0 3 0 4 1 2 1 4 4 4 6s0 4-1 6c-2 3-5 4-8 5-3 0-8 1-11-1 1-1 2 0 3 0 2 0 4 0 5-1 3-1 5-2 6-5h-1c-1 1-2 2-3 2-1 1-3 1-4 0s-2-2-2-3c-1-2 0-4 1-6 2-2 4-3 7-4zm-32 67c-4 4-7 7-13 7-5 0-9-2-12-6-4-4-5-10-5-16 0-9 9-16 16-21 2-1 5-3 7-5h1v-1c1 1-1 3-2 3-7 7-17 16-18 27-1 4 0 8 3 11 2 3 6 5 10 5 5 1 9-1 13-4h0zM208 152c2 5 5 7 7 11l-5-4c-3-3-6-7-6-11 0-7 4-13 8-18 6-5 15-7 23-8 8 0 14 3 19 9 0 0-1 0-1 1-7-5-15-7-23-6-7 1-13 4-17 9-1 1-2 3-3 4-2 5-3 8-2 13zm76 466c-1 0-1 0-2-1-1 0-2-2-2-3 0-2 0-4 1-6 2-2 4-3 7-4 2 0 5 0 7 2s3 4 4 7c0 3-1 7-3 9-2 3-5 5-8 5-4 1-8 0-12-3-2-2-3-5-4-8 0-1 1-2 1-2h1c0 2 1 3 2 5 2 2 5 3 7 3 3 0 6 0 8-2s3-4 3-6 0-3-1-4c-2-1-3-2-5-2-2 1-4 1-4 3-1 1-2 2-1 4 0 1 1 1 2 2h0c-1 0-1 0-1 1z" class="G"></path><path d="M420 161c-2-2-3-3-3-5 1 0 1 1 2 2 3 1 8 1 11 0h0l-2-1v-1c3-1 6 0 8-1 2 0 3-2 4-4 2-4 2-8 0-12-1-3-2-5-5-6s-5-1-8 0c-5 3-7 7-9 12l1-3c0-4 1-8 5-10 3-2 8-3 12-2 4 0 6 3 8 5 3 5 2 9 1 14-2 6-6 10-12 12-5 2-9 1-13 0z" class="I"></path><path d="M481 161c2 0 3 0 5 1 3 1 5 3 6 6 1 2 0 4-1 6-1 3-4 5-7 6-2 0-4 0-6-1-2 0-4-2-5-4s0-5 1-7c1-4 3-6 7-7z" class="C"></path><path d="M481 163h4c2 1 3 1 4 3 1 1 1 2 0 4 0 3-2 4-4 5s-3 1-4 1c-2-1-3-1-4-2-1-2-1-4 0-6 0-2 2-4 4-5z" class="O"></path><path d="M481 169c1 0 2 1 4 1h1l-1 1c0 1-1 1-2 2-1 0-2-1-2-2-1-1-1-1 0-2z" class="F"></path><path d="M481 169c0-1 1-2 2-3 1 0 1 0 2 1s1 1 1 3h-1c-2 0-3-1-4-1z" class="C"></path><path d="M443 469c2-1 4 0 6 0 7 1 14 5 18 10 3 4 5 9 4 15-1 7-6 11-12 15 3-5 6-9 7-15 1-4 0-8-3-12-2-5-6-7-11-8-6-1-14 1-19 5-2 1-3 3-5 4l-1-1c0-2 1-3 2-5 3-5 8-7 14-8zm-299 10h7c5 1 8 5 10 8-1-1-3-3-4-3-4-2-9-2-12-1s-6 3-7 6-1 5 0 8c2 3 4 5 7 7 2 0 6 1 8-1 2-1 4-3 4-5 1-2 1-3-1-5-1-2-2-3-4-3-3-1-5 0-6 2h-1-1c0-1 0-2 1-2 0-2 2-3 3-4 3-1 6 0 8 1 3 1 4 4 5 7s2 7 0 10c-1 3-4 5-7 6-4 1-9 1-12-1-4-2-8-5-9-9-1-5-1-10 1-14 2-3 6-6 10-7zm288 27c3 0 5 1 7 3 3 2 5 6 5 9 1 4 0 8-3 10-2 4-5 4-9 5-2 0-4-1-6-2-3-2-6-5-6-9-1-4 0-7 2-10 2-4 6-5 10-6z" class="G"></path><path d="M430 511h4c2 1 4 2 4 4 1 1 1 4 0 6-1 3-3 4-6 5h-4c-2-1-4-2-4-4-1-2-1-4-1-6 1-3 4-4 7-5z" class="D"></path><path d="M432 515h0c1 0 2 0 3 1 0 1 0 1-1 2h-2-1c0-2 0-2 1-3z" class="C"></path></svg>