<svg xmlns="http://www.w3.org/2000/svg" xmlns:v="https://vecta.io/nano" viewBox="55 35 592 646"><!--oldViewBox="0 0 692 752"--><style>.B{fill:#efeeef}.C{fill:#e6e5e7}.D{fill:#030202}.E{fill:#f9f9fa}.F{fill:#cacacb}.G{fill:#0b0b0b}.H{fill:#f5f4f6}.I{fill:#dcdcdd}</style><path d="M179 604l1 5v1h-1l-1-3c1-1 1-1 1-3z" class="H"></path><path d="M319 271v1h0-1v1h1v1h-2 0c-1 1-2 0-2 0h0c1-1 2-2 4-3z" class="D"></path><path d="M179 462l-1-1v-1l1 1 5-1c1 0 1 0 2 1l-7 1z" class="F"></path><path fill="#666667" d="M233 553v3c0 1 0 1 1 1v7c0-1 0-1-1-1v2-9-3z"></path><path d="M151 595l1-1h1l3 6-3-3h0v4c-1-2-1-4-2-6z" class="H"></path><path d="M140 420l12 1h-1c-2 0-6-1-9 0l2 1-7-1h0c1-1 2-1 3-1z" class="B"></path><path d="M265 388c2 1 2 1 3 2l-1 4-1-1h-2l1-5z" class="C"></path><path d="M453 239c-1 0-8 1-10 1 3-2 7-3 11-3-1 0-1 1-2 1h1l1 1h-1z" class="B"></path><path d="M465 220c-2-1-8 1-10 2l11-6c0 1 0 2-1 3v1z" class="I"></path><path d="M341 242c4-2 9-2 13-3-4 2-8 4-12 4l-1-1z" class="F"></path><path fill="#9d9d9f" d="M398 161l-1-6c1 1 5 6 5 6-1 2 0 2 1 4l1 2h-1l-1-3c-1-1-2-2-4-3z"></path><path d="M185 460c5-1 9-1 14-1l-11 2h-2c-1-1-1-1-2-1h1z" class="F"></path><path d="M184 460h1 3v1h-2c-1-1-1-1-2-1zm7-23l9 2h0l-1 1-16-1c1-1 5 0 6-1 1 0 1 0 2-1z" class="C"></path><path d="M284 655l13 2c-1 1-1 1-2 1-5 0-9-1-14-1 1-1 2-1 2-1h1c0 1 1 1 2 0h2c1 1 2 1 3 1l-7-1v-1z" class="I"></path><path d="M452 316c0-1 1-1 2-1v1c1 1 2 2 2 3 1 0 2 1 2 1l3 3h-1-1v1c-3-3-5-6-7-8z" class="B"></path><path d="M462 227c-4 3-11 5-15 5l13-6 1 1h1z" class="C"></path><path d="M297 657h20 0-3c-3 1-6 1-9 1h-10c1 0 1 0 2-1zm-97-218c5 0 8 1 12 2 2 1 4 1 5 2l-18-3 1-1h0z" class="F"></path><g class="B"><path d="M398 161c2 1 3 2 4 3l1 3v2c0 1 0 2-1 3-1-1-1-2-1-3l-3-8z"></path><path d="M402 161c2 2 4 4 6 7v3l-1 1c-1-2-2-4-3-5l-1-2c-1-2-2-2-1-4z"></path></g><path d="M125 419h2 0l13 1c-1 0-2 0-3 1h0c-3 0-7-1-10-1-2 0-6 0-8-1 1 0 4 1 6 0h0zm77 41c3-1 19-3 22-1-1 1-3 1-4 1h-6c-3 0-7 1-10 1l1-1h0 1 2-4-2z" class="C"></path><path d="M291 465c2 3 4 6 7 9 2 2 4 3 6 6l-11-9h-1v-2h0l-1-3v-1zm-82-34h0c2-1 3 0 5 0 5 1 10 3 14 5l-13-3c-1 0-5-1-6-1v-1z" class="I"></path><path d="M79 587c0 1 0 2 1 3v-2l1 11c0 4 1 8 0 11l-2-23z" class="C"></path><path d="M447 250h-5c-5 0-10-1-15-2h18 0c-1 1-3 1-4 1h-2-3c1 1 3 0 5 1 1 0 1-1 2-1l1 1c1 0 4-1 4 0 0 0-1 1-1 0z" class="I"></path><path d="M232 668h1s-1 0-2-1h0l-4-1s-1-1-2-1h1 2l2 1c1 0 1 1 2 1h1l8 2s2 0 3 1h0c1 1 3 1 4 1l-1 1c-1-1-1-1-2-1h-1-3c-2 0-6-2-9-3z" class="B"></path><path d="M342 218h-1l-9 3c6-5 13-6 20-7-2 1-6 4-8 4l-1-1-1 1h0z" class="I"></path><path d="M180 609c2 5 3 10 6 14 1 2 2 5 3 7-5-4-9-14-10-20h1v-1z" class="B"></path><path d="M151 595c-3-6-5-13-5-19l7 18h-1l-1 1z" class="C"></path><path d="M265 388c3-6 4-12 8-17l1 1c-3 4-5 9-6 14v4c-1-1-1-1-3-2zm86-198c2 0 2 0 3 1v1h2c-1 1-2 2-3 2h0l2 1h-4c-1 0-2 1-3 1h-2 0c-2 0-4 1-7 1 2-1 4-2 6-2 2-1 6-1 7-3h-1v-2z" class="F"></path><path d="M244 670l24 5c-5 0-10-1-14-2-4 0-9-1-13-2h3 1c1 0 1 0 2 1l1-1c-1 0-3 0-4-1h0z" class="I"></path><path d="M344 226h4v1c-1 0-1 1-1 1h-1c-2 1-3 1-5 1-3 1-5 2-7 4l-3 2h0v-1c2-3 9-7 13-8z" class="F"></path><path d="M296 282l-5 4c2-5 8-9 11-13l2 2-8 7zM194 628c-4-7-7-14-8-22v-1l1 1c1 4 2 8 3 11 2 3 3 6 5 9-1 1-1 2-1 2zm185-471c5 5 8 11 10 17-2-2-4-3-5-5-2-3-4-8-5-12zM183 554v1c0 2-1 4-1 6h1v-1c0-1 1-1 1-2 0 0 0-1 1-2 0 2 0 3-1 4-3 4-4 10-5 14 0-1-1-1-1-2l5-18z" class="B"></path><path d="M303 439c-1-8-3-17 0-24 1 2 0 6 0 9 0 4 1 9 1 14h0l-1 1z" class="F"></path><path d="M457 369c-2-2-2-5-3-7l-6-9 7 7c1 2 2 4 3 5l1 1v2h-1l-1 1zm-13-116c-2 0-4 1-6 1-5 0-9-1-14-3 3 0 6 1 9 1 4 0 7-1 11-1l1 1h0v1h-1 0z" class="C"></path><path d="M316 280c1 0 2 0 3 1-1 0-1 0-2 1h-1-1c-1 0-2 1-3 1h0l-5 3-2 1h-1c-1 1-1 1-2 1h-1 1v-1c-1 0-1 0-1 1l-1-1 8-4 3-1 4-1 1-1z" class="D"></path><path d="M293 288c-2 2-5 3-8 4l-13 7c6-5 14-9 20-13l1 1v1z" class="B"></path><path d="M273 365h0c0 2-2 5-3 7l-7 16v-1h0l-2 1c2-5 5-11 7-16 2-2 4-4 5-7z" class="C"></path><path d="M131 551c3-7 6-12 10-18 1-1 1-2 2-3-1 4-3 7-5 10-2 4-4 8-5 13v-3l-1 1h-1zm260-392l-2-4 6 7c2 2 5 4 5 7v2h-1c-1-1-3-5-4-5l-4-7z" class="H"></path><path fill="#6d6e6f" d="M233 565v-2c1 0 1 0 1 1 1 5 1 10 3 14 1 5 4 9 5 14-2-2-3-5-4-8-3-6-4-12-5-19z"></path><path d="M84 550c3-6 6-12 10-17 2-3 3-5 6-6-7 7-10 16-14 25v-3c1-1 0-1 0-2 0 1 0 2-1 3h-1z" class="H"></path><path d="M93 422h7c-2 1-5 1-8 2-4 1-8 2-12 4l-6 3c5-5 11-8 19-9z" class="B"></path><defs><linearGradient id="A" gradientUnits="userSpaceOnUse" x1="244.663" y1="512.951" x2="247.997" y2="505.995"><stop offset="0" stop-color="#cbcacc"></stop><stop offset="1" stop-color="#f0f1f3"></stop></linearGradient></defs><path fill="url(#A)" d="M240 510l20-4 1 1-7 2h0c0 1 0 1-1 1-5-1-8 1-13 3v-3z"></path><path d="M370 160c7 3 13 7 16 15-4-2-7-7-10-10-2-2-6-2-7-4l1-1z" class="B"></path><path d="M310 269h0c2-1 3-2 5-3 3-2 8-5 12-6-1 1-3 1-4 2-4 3-8 5-12 8 0 0-2 1-2 2l-5 3-2-2 2-2c2 1 4-2 6-2z" class="I"></path><path d="M272 670c6 1 13 1 20 1h10c1 0 3-1 4 0-10 1-20 2-30 1h-6c1 0 2 0 3-1h0c2 1 6 1 8 0-2 0-3 1-4 0h-2c-1 0-2 0-3-1h0z" class="F"></path><path d="M320 258h-2-1c-1 0-1 0-1 1h-2c-2 1-3 1-4 2h-1-2 0l4-2 1-1h2l1-1h1c1 0 2 0 2-1h1 1 1c0-1 1-1 1-1h1l1-1h1 1c1-1 0-1 1-1l2-1h3 0l-2 1h-1l-3 2h-1 1c1 0 3-1 4-1l1-1h2 1s0-1 1-1l1 1-16 5zm-50 104h1v1h0c-1 0-1 1-1 1-1 1-1 2-2 3 0 3-2 5-3 8v1 1c-1 0-1 1-1 2s-1 1-1 2v1l2-4c0-1 0-1 1-2v-1l1-1v-1-1c1-1 2-3 3-4s1-1 1-2l1-2 1 1c-1 3-3 5-5 7-2 5-5 11-7 16l-1 3v-2c1-5 3-10 5-14 1-5 3-9 5-13z" class="D"></path><path d="M343 222h2 1c2 1 3 0 5-1l2-1c-2 2-4 4-7 5h0c-1 0-1 0-2 1-4 0-8 3-11 4l3-3v-1s2-2 3-2 2-1 3-1 1 0 1-1zM129 451l-26 11c3-3 6-5 10-7 8-4 17-7 25-9-1 2-3 2-4 2-4 1-8 3-12 4 1 0 2 0 2-1h5z" class="B"></path><path d="M260 506l12-3c8-2 16-3 24-1l-14 1c-3 0-7 1-11 1-3 0-7 2-10 3l-1-1z" class="E"></path><path d="M349 209h1l-1 1c-1 0-1 0-2 1l7-1-16 7c-2 0-2 0-3-1h0c1 0 2 0 3-1h-2v-1c1-1 5-3 6-3 2 0 3 0 5-1 0-1 1-1 2-1z" class="C"></path><path d="M352 205h1v1c-4 1-8 4-13 5-3 1-6 1-9 1-1 1-1 1-1 0 1-1 3-1 5-2 4-1 7-3 10-4 2 0 4 0 6-1h1z" class="B"></path><path d="M135 520h1c1 0 1-1 2-1v-1c1-1 2-2 3-4h0c1 1 1 1 0 2h0c0 1 0 1-1 1v1l-1 2-3 7-1 1-1 4-1 3v1c0 1 0 1-1 1v2h-1 0v-1-2c1-1 1-2 2-3v-1-1c0-1 0-1 1-1v-1c0-1 0-1 1-1 0-1-1-1 0-2s1-2 1-3c-1-1-2-1-3 0h0 0-1l1-1v-1s0-1 1-1h1z" class="G"></path><path d="M74 622c1 4 2 8 4 12l6 12c1 2 3 5 3 7-7-9-11-20-15-30 1 0 1 1 2 2l1 3c0-1 0-1-1-2v-1-1h0v-2z" class="H"></path><path d="M447 406c-1-3-1-5-3-8-1-2-3-5-5-7 2 5 3 10 4 14 0 2 1 3 0 5v-1c0-3-1-5-2-7-2-6-5-12-8-17 5 4 9 9 12 15 1 1 2 3 3 5 1 1 0 3 0 5v-4h-1zM299 522h0c3 1 7 0 10 0 9 1 19 0 29-1-12 5-27 3-39 2v-1h0z" class="C"></path><path d="M96 502c3-2 6-3 9-4 5-4 11-9 17-10-1 1-2 1-4 2-2 2-5 3-7 5 3-1 5-2 8-2h1c-4 2-7 3-10 4-5 1-9 4-13 6l-1-1z" class="B"></path><path d="M297 300c7-6 17-11 25-14 2-1 5-2 6-2l-16 9c-2 0-6 2-6 3-2 2-5 4-8 4h-1z" class="F"></path><path d="M336 234c2-2 5-4 7-5h1 1c3-1 7-2 10-3l-13 8h0c-1 1-1 1-2 1-1 1-2 2-3 2l-1-1h0c-1-1-1-1 0-2z" class="C"></path><path d="M342 234h0c-1 1-1 1-2 1-1 1-2 2-3 2l-1-1h0c-1-1-1-1 0-2h0c2 1 4 0 6 0h0z" class="G"></path><path d="M355 195c1 0 3 1 5 2-3 0-6 1-9 2-1 1-3 1-5 2h-4 0c1-1 2-1 2-2h-3c1-2 4-2 5-3h0 2c1 0 2-1 3-1h4z" class="B"></path><path d="M349 201c4-1 7 0 10 1h-3c-2 0-3 0-4 1l-2 1c0 1-4 2-5 2l-10 1c4-2 7-4 10-5 1-1 3-1 4-1z" class="C"></path><path d="M159 538v1c-1 3-4 7-5 10-4 9-7 23-3 32v1 1c-2-4-3-9-3-13 0-9 2-18 7-26 1-2 2-4 4-6z" class="F"></path><path d="M342 218h3 2l1 1-2 1c2 0 5-1 7-1-3 1-5 3-8 2-1 1-1 1-2 1 0 1 0 1-1 1s-2 1-3 1l-11 1c4-2 9-3 13-6l1-1h0zm-10 26h1 2l6-2 1 1-9 3 9-1c-3 2-7 2-11 4l-8 2-6 3c3-2 5-4 8-5 1-1 3-2 4-3s2-1 2-2h-1l1-1 1 1z" class="C"></path><path d="M178 572c0 1 1 1 1 2-2 10-2 20 0 30 0 2 0 2-1 3-3-12-3-23 0-35z" class="E"></path><path d="M452 316v-1l-8-8-9-6-3-3c7 3 13 8 19 12 3 2 6 4 8 7h0c-1 0-2-1-2-1h-1l1 1s0 1 1 1v2s-1-1-2-1c0-1-1-2-2-3v-1c-1 0-2 0-2 1z" class="I"></path><path d="M392 495h0c-5 5-12 8-18 9-10 2-19-1-27-6l-1-1 13 5c9 2 18 0 27-4l6-3zm-271-48c-3 1-7 2-10 2-13 4-25 10-37 16h0c1-2 5-3 6-4 13-8 26-13 40-16v1c-1 1-2 1-3 1l-4 1-5 1h0 1 1 1 0c1 0 0 0 1-1h1 1 0 0c1-1 2-1 3 0 0-1 2-1 2-1h0 2zm58 15c-2 0-5 1-7 1-5 2-9 4-14 7l3-3c10-7 23-11 35-13h11l-19 3-9 3h-1v1l1 1z" class="B"></path><path d="M336 253h1 0c-4 2-7 4-11 5-6 3-11 7-16 11-2 0-4 3-6 2 4-5 10-8 16-13l16-5z" class="C"></path><path d="M70 549l-1-1c1-2 1-4 1-6 2-12 8-23 16-31 3-3 6-6 10-9l1 1c-3 3-6 5-9 8-9 10-17 24-18 38h0z" class="E"></path><path d="M200 447h4c1 0 3 1 4 1-12-1-26 1-38 5-3 1-6 2-8 4-1 0-3 1-4 2h-8s1 0 1-1h-1 0v-1c5 2 23-6 28-8 7-1 15-2 22-2zm85-41h0c1 2 0 6 1 8 1 9 5 19 10 26-1-4-2-7-2-11h0c1 4 2 8 3 11s3 5 4 7l5 10-7-10c-6-8-11-16-13-26-2-5-1-10-1-15zM123 547h1c-1 3-3 6-4 10-2 11-2 23 0 34 1 4 3 8 4 13h-1l-2-7c-6-17-6-34 2-50z" class="C"></path><path d="M260 389l-1 3h0v-8c2-10 7-20 13-28 3-4 6-8 10-11-1 2-3 4-5 6-3 3-5 7-7 11s-4 8-5 13c-2 4-4 9-5 14z" class="H"></path><path d="M394 167l2 5v1c-3-2-5-6-6-9 1 3 3 8 2 11h-1c0-3-2-5-3-7-2-5-2-13-1-18l2 10v-1h1c0-1 0 0 1 0l4 7-1 1h0z" class="B"></path><path d="M389 160v-1h1c0-1 0 0 1 0l4 7-1 1h0c-2-2-3-4-5-7z" class="D"></path><path d="M171 636v-1c-1-2-4-4-5-5l-3-6c-3-4-5-9-6-13-1-2-1-4-1-6 1 1 1 3 1 4 2 4 3 7 5 10 6 11 14 21 24 28 4 2 8 4 11 7-6-2-13-6-18-10-2-2-5-5-8-7v-1z" class="C"></path><path d="M172 534h0l-5 8c-7 13-8 26-4 40 1 3 3 6 4 10h0c-2-2-2-4-3-6-3-5-4-11-5-17 0-11 2-21 8-30 2-2 3-4 5-5z" class="B"></path><path d="M204 461c-1 1-2 1-3 1-2 0-4 1-6 1-4 1-9 3-14 5-6 3-12 6-17 9-3 3-6 6-9 8v-1c3-4 8-7 12-10 10-7 22-13 35-14h2 4-2-1 0l-1 1z" class="H"></path><path d="M171 637c-8-4-14-11-18-18-3-4-5-9-7-14l-4-12c0-2-2-4-2-6-3-6-3-13-1-19v14c1 3 1 6 2 8 3 3 4 8 5 12 5 13 14 25 25 34v1zm135-341c3-1 8-4 12-4-15 8-31 17-41 31-4 4-6 10-10 15 1-4 3-7 5-10 6-11 15-20 25-28h1c3 0 6-2 8-4z" class="E"></path><path d="M314 272l15-8h2c-2 1-11 6-12 7-2 1-3 2-4 3-3 1-4 2-6 4l-12 8c-1 1-3 2-4 2v-1l-1-1 6-4h-2l8-7 5-3v1l-3 2h0 1l2-2h1l2-1 1-1h1v1z" class="C"></path><path d="M309 272v1l-3 2h0 1l2-2h1l2-1 1-1h1v1l-16 10h-2l8-7 5-3z" class="D"></path><path d="M342 234h1c2 0 6-2 8-2-4 4-8 6-13 8-2 1-4 3-6 4l-1-1-1 1c-5 2-10 4-15 7-4 1-7 3-10 5s-5 4-8 6c1-2 4-4 5-5 5-4 10-7 16-9l10-5c3-1 6-4 9-6 1 0 2-1 3-2 1 0 1 0 2-1z" class="B"></path><path d="M274 420v-9c2 9 3 18 5 27 3 9 8 19 12 27v1c-6-8-12-18-14-27-2-7-3-13-3-19zm29 19l1-1h0c3 10 9 19 16 27 2 2 3 4 5 6 3 3 6 5 9 8h0c-3-2-7-4-10-7v1c-1 0-1-1-2-2h0c0 1 0 1 1 2h-1-1c-2-2-4-5-6-7-5-8-10-18-12-27z" class="E"></path><path d="M322 473c-4-5-8-10-10-15 1 1 2 3 4 4l5 7 3 3v1c-1 0-1-1-2-2h0c0 1 0 1 1 2h-1z" class="D"></path><path d="M169 502c-2 6-6 11-10 18-2 4-4 8-5 12l-3 9c3-4 6-8 10-11v1c-2 2-5 5-7 8s-3 7-5 10l-6 15h0 0c0-2 0-3 1-5 1-5 3-9 5-14s2-10 3-14c1-5 4-10 7-14 3-6 5-11 10-15z" class="E"></path><path d="M228 627c12 13 27 21 43 26 5 1 9 1 13 2v1l7 1c-1 0-2 0-3-1h-2c-1 1-2 1-2 0h-1s-1 0-2 1l-1-1c-19-2-41-11-53-27 1-1 1-1 1-2z" class="H"></path><path d="M269 420v-3 3c1 1 1 0 1 0v2 1 1h0l1 1v3 1l1 2v1 2l1 1v1c1 1 2 2 3 2-1-1-1-1-1-2v-1h0v-1c0-1 0-2-1-3v-1-1c-1-1 0-2 0-4-1 0 0-2-1-2v-1-7c0 2 0 3 1 4v1c0 6 1 12 3 19 2 9 8 19 14 27l1 3h0c-5-3-8-8-11-13l-9-16v-1c0-1 3 0 5 1l-4-3c-1-2-2-4-2-6-1-4-2-8-2-11z" class="G"></path><path d="M86 552l-1 2h1c4-9 9-19 18-24a30.44 30.44 0 0 1-8 8c-7 11-12 23-14 35-1 5-1 10-2 15v2c-1-1-1-2-1-3-1-13 1-25 5-37h1c1-1 1-2 1-3 0 1 1 1 0 2v3z" class="E"></path><path d="M155 496c1-1 7-3 8-4 5-11 17-18 28-21 1-1 3-2 5-2 0 1 0 1-1 1-3 1-5 2-8 3-7 4-13 8-18 13-2 2-4 4-5 6h0c3-1 8-3 12-2l-9 2c-1 1-2 1-3 2-1 3-2 6-4 8-3 4-5 6-7 10-2 3-4 6-5 9s-2 7-3 10c0-4 0-7 1-10 2-5 5-10 8-14 2-2 3-4 5-6 1-2 2-4 4-7l-6 3h0l1-1h1-4z" class="B"></path><path d="M120 494c3-1 6-2 8-4 5-3 8-7 14-9 1-1 2-1 3-1h1c-1 1-1 1-2 1-6 2-10 7-15 10-4 3-9 5-13 8-10 6-20 18-24 28 0 1-1 2-1 3h0c-1-7 7-16 11-22l-5 5-6 6-2-1c9-10 19-18 31-24z" class="H"></path><path d="M275 373c2-5 6-10 10-14-2 4-5 7-7 11-8 15-11 33-9 49v1c0 3 1 7 2 11 0 2 1 4 2 6l4 3c-2-1-5-2-5-1-1-1-1-1-1-2 1-2 0-4-1-7-1-2-2-5-2-8-1-5-2-11-1-17l-1 1h0l-1-3c1-3 1-6 2-9l1-4v-4c1-5 3-10 6-14h1v1z" class="C"></path><path d="M274 372h1v1c-4 10-7 21-8 32l-1 1h0l-1-3c1-3 1-6 2-9l1-4v-4c1-5 3-10 6-14z" class="D"></path><path d="M131 551h1l1-1v3c-8 27-2 54 13 78l6 9c1 1 3 3 3 4-2-2-4-4-5-6-6-8-11-15-15-24-2-3-3-7-4-11-5-18-6-35 0-52zm220-361c-1 0-7 0-8-1 3-1 7-1 10 0l2 1c-2-3-6-3-9-3v-1h1v-1h0l4-2c-2-7-3-14-3-21-1-2-1-4 0-6s2-3 4-4c4-1 7 3 10 5 3 1 5 2 8 3l-1 1h-2c1 1 3 2 5 3 4 2 7 5 10 9l-19-12c-3-2-5-4-7-6-1-1-2-1-3-1s-2 1-2 2c-3 5 1 22 3 27l2 6c1 1 1 1 1 2h-3c-1-1-1-1-3-1zM194 628s0-1 1-2c13 21 36 36 60 41l17 3h0c1 1 2 1 3 1h2c1 1 2 0 4 0-2 1-6 1-8 0h0c-1 1-2 1-3 1-3 0-6-1-8-1l-15-3c-21-7-42-20-53-40zm38 40c-9-3-18-7-26-13-5-3-10-6-14-10v1c1 1 3 3 5 4l12 10c2 1 5 3 6 5-4-2-7-5-11-8-4-2-8-5-11-8-13-12-23-26-27-43-1-3-2-7-2-10h0l7 19c8 20 26 35 44 44 6 3 12 5 18 8h-1c-1 0-1-1-2-1l-2-1h-2-1c1 0 2 1 2 1l4 1h0c1 1 2 1 2 1h-1zM89 518l2 1c-5 6-10 13-13 21-9 18-11 40-9 60 1 6 2 12 4 18 0 1 1 3 1 4v2h0v1 1c1 1 1 1 1 2l-1-3c-1-1-1-2-2-2-8-23-8-48-2-71 5-12 10-24 19-34z" class="E"></path><path d="M97 503c4-2 8-5 13-6 3-1 6-2 10-4v1c-12 6-22 14-31 24s-14 22-19 34c-1-1 0-2 0-3h0c1-14 9-28 18-38 3-3 6-5 9-8z" class="D"></path><g class="E"><path d="M152 421c7 0 15 1 23 2 3 0 7 1 10 2l-9-1c3 2 7 4 10 5 5 1 11 1 16 3-2 0-4 0-6-1l9 7c-3-1-6-1-9-2-2 0-5-1-7-1l-17-3c-14-1-27 1-40 6-4 1-7 2-11 4-2 1-5 2-7 3 1-3 16-9 20-10 15-5 32-7 47-4 3 0 6 2 10 2-3-1-5-3-8-4-2-1-5-2-7-2-6-2-12-3-19-4-4 0-9 0-13-1l-2-1c3-1 7 0 9 0h1zm109 90l6-2c-5 4-10 6-15 10-9 6-16 19-18 30 0 1-1 2-1 4v3l-15-8c2-3 3-7 6-10 9-13 22-23 37-27zm-106-15h4-1l-1 1h0c-9 5-16 14-22 23h-1c4-9 9-14 16-20-3 1-7 4-9 6-3 1-5 3-7 5-9 7-15 17-19 27-2 5-3 11-5 16 0-10 4-20 9-28-3 2-5 5-7 8-9 12-14 27-15 42-2 28 11 51 28 71 4 4 9 8 13 12-6-3-11-8-16-13-9-10-16-20-21-32-8-19-9-43-2-62 4-10 10-20 17-28l9-9c6-5 12-10 19-14 3-2 7-4 11-5z"></path><path d="M214 546c1 0 2 1 3 1v1c1-4 3-7 5-10 8-13 22-25 37-28 1 0 2 0 2 1-15 4-28 14-37 27-3 3-4 7-6 10-1 0-1 0-1 1s0 2-1 3c0 3-1 5-2 8-4 17-4 36 4 52 3 5 6 11 10 15 0 1 0 1-1 2v-1c1 4 6 9 8 12 1 1 4 3 4 5-8-7-15-15-19-24-2-3-3-7-5-10-1-1-3-2-4-3-2-2-4-4-5-7-1-2-2-4-2-6 0-5 2-10 2-15 1-9 0-17 3-25 1-3 2-8 4-9h1z"></path></g><path d="M208 582c2 4 1 9 2 14 1 4 3 8 4 12h-1c-1-2-2-3-3-4-1-2-3-4-3-6-2-5 0-12 1-16zm6-36c1 0 2 1 3 1v1c1-4 3-7 5-10 8-13 22-25 37-28 1 0 2 0 2 1-15 4-28 14-37 27-3 3-4 7-6 10-1 0-1 0-1 1-5 8-7 19-8 29-1-4 0-8 0-11 1-8 2-14 4-21h1z" class="D"></path><path d="M120 445c7-1 14-1 20-2l15-4c12-2 24-3 36-2-1 1-1 1-2 1-1 1-5 0-6 1-7 0-15 1-22 3 11 0 22 0 33 2 2 1 4 1 6 2h0v1c-7 0-15 1-22 2-5 2-23 10-28 8v1h0 1c0 1-1 1-1 1-6 1-11 5-16 8-6 3-13 5-18 9l-9 6c1-2 3-4 5-5 5-4 11-7 17-10 4-2 8-3 11-7h0c-5 0-7 4-11 6 1-2 2-3 4-5-5 1-8 2-13 4-12 5-23 13-30 24-3 4-5 9-7 13l1-2c0-2 1-4 2-6 1-3 2-5 3-7 3-4 6-7 9-11-1 1-2 2-3 2l-4 3c-3 2-6 5-8 7-10 9-20 21-25 33-2 7-4 15-5 22-1-2 0-5 0-6 1-7 2-13 5-19 10-26 35-44 60-54 3-1 7-2 10-3 2 0 4-1 5-1 3-1 6-4 8-6 5-3 10-5 15-8-9 1-19 3-27 5h-5c0 1-1 1-2 1 4-1 8-3 12-4 1 0 3 0 4-2l14-2h0l-31 3h-2 0s-2 0-2 1c-1-1-2-1-3 0h0 0-1-1c-1 1 0 1-1 1h0-1-1-1 0l5-1 4-1c1 0 2 0 3-1v-1z" class="E"></path><g class="D"><path d="M149 456l-9 3c1-2 2-3 4-4 2-2 5-3 8-4 8-5 19-8 28-6-10 2-21 5-31 11h0z"></path><path d="M180 445h1 6l7 1h6v1c-7 0-15 1-22 2-5 2-23 10-28 8h1v-1h-2 0c10-6 21-9 31-11z"></path></g><path d="M180 445h1 6c-7 0-12 2-18 4-3 1-7 2-10 4-3 1-6 3-8 4v-1h-2 0c10-6 21-9 31-11z" class="B"></path><path d="M185 533v-1c-1-8 0-16 5-23 1-2 2-4 4-6 1-1 2-1 3-2 3-2 4-5 7-7 9-8 20-14 32-17-6 3-13 6-19 10-4 2-7 5-11 7-3 3-5 5-9 8h0v1l3-3 6-4h1c-3 3-5 6-8 9-3 5-7 9-9 14 2-3 4-6 7-8 14-14 37-24 57-24v1c-7 0-15 3-22 5-6 2-13 5-18 9-3 3-5 7-7 11l1-1c3-4 7-7 11-9l1-1c-3 4-7 7-11 11-4 5-8 12-11 18 5-2 9-8 12-11s6-5 9-7c1-1 3-2 4-2-3 3-7 5-10 8-5 5-9 11-12 17 4-2 6-5 8-8l6-6c1-1 3-2 5-3 5-4 9-7 14-10 1 0 2-1 4-1-1 1-3 1-4 2-1 0-2 1-3 2-5 4-8 8-11 14-1 1-2 2-2 4 1-2 2-4 3-5 4-5 8-9 13-12h0l6-3v3c5-2 8-4 13-3 1 0 1 0 1-1l10-1v1l-5 1c-15 3-29 15-37 28-2 3-4 6-5 10v-1c-1 0-2-1-3-1-2-2-4-3-6-4-2-2-5-4-7-5-5 12-4 27-1 39 1 4 2 7 3 10-5-9-7-21-7-32 0-4 0-9 1-13l2-5h0l-8-7c-3 7-6 15-6 22 2-3 4-7 7-9-3 4-6 9-7 14-1 1-1 2-1 2 0 1-1 1-1 2v1h-1c0-2 1-4 1-6v-1c-1-6 1-13 3-18 0-2 0-2-1-3z" class="E"></path><path d="M234 513l6-3v3c-2 0-4 1-6 0z" class="C"></path><path d="M185 533l2-5v-1h1 0c1 1 1 1 2 1l-4 8c0-2 0-2-1-3z" class="G"></path><path d="M209 505v1c-3 5-8 9-12 13-2 3-5 6-7 8h0l3-6a120.94 120.94 0 0 1 16-16z" class="D"></path><path d="M185 556c1-5 4-10 7-14-3 2-5 6-7 9 0-7 3-15 6-22l8 7h0l-2 5c-1 4-1 9-1 13 0 11 2 23 7 32-1-3-2-6-3-10-3-12-4-27 1-39 2 1 5 3 7 5 2 1 4 2 6 4h-1c-2 1-3 6-4 9-3 8-2 16-3 25 0 5-2 10-2 15 0 2 1 4 2 6 1 3 3 5 5 7 1 1 3 2 4 3 2 3 3 7 5 10 4 9 11 17 19 24h0l3 3h-1 0c-1 0-2-1-3 0v-1h-2 0c-1 0-2 0-3-1h0c-11-4-21-10-28-19s-11-19-13-30v-8c-1-3-2-6-2-9-1-6-2-11-2-17h1v-2h-1v2c0-1-1-1-1-1l1-1c0-1-1-2 0-3v-1l-3 2v1s0-1 0 0l-1 1v-1c1-1 1-2 1-4z" class="G"></path><path d="M236 647c-1 0-2 0-3-1h0c-11-4-21-10-28-19s-11-19-13-30v-8c-1-3-2-6-2-9-1-6-2-11-2-17h1c0 6 1 12 3 19 0-5 0-12 3-16l-2 15c-1 2 0 4 1 6 2 7 6 13 9 19-4-5-7-10-10-16 0 6 1 12 3 18 3 9 10 18 17 25 5 4 10 7 16 10 2 1 5 2 7 4zM125 419l-5-21c-2-13-4-27-5-40-3-43 2-87 17-127 7-21 17-41 29-59 29-43 70-77 121-90 4-2 9-3 14-4 11-2 22-4 33-4 46-3 93 8 132 34 30 20 53 49 68 82 4 8 7 16 10 25 4 11 8 23 10 35 3 14 5 28 6 42 4 65-9 132-46 185-16 24-37 45-63 59-7 3-13 6-20 8 6 6 12 12 19 17 24 19 55 30 85 28 31-3 56-19 75-41 13-15 22-34 29-52 2-6 4-12 5-18l2-10 1-2c1 7 1 16 0 24-4 32-17 65-37 91-21 28-50 47-86 52-10 1-21 2-31 1h0l16 14c20 16 43 28 65 38 7 3 15 5 22 8l-8-1c-11-2-22-4-32-7-16-5-31-11-46-18-8-4-15-8-22-12l-30-18c-22-12-45-23-68-31-21-9-43-15-65-21l-44-12-24-9c-6-2-12-5-18-8 2-15 9-28 21-37 3-3 9-7 13-8 8-2 16-1 23-1l9-1h5c-7 2-14 3-21 4l27 4h-12c1 1 3 1 4 1h-5-1c-1 0-3 0-4-1-1 0-3 1-4 0h-2 0 1l1 1h2c1 0 1 0 2 1h1 1c1 0 1 1 1 1h3c2 1 4 0 5 0v1c-1 0-3-1-5 0h0v1h-8c7 2 15 4 21 4 16 2 31-1 45-6-2 2-4 3-7 4-13 4-26 3-39 3-5 1-11 1-16 1s-9-1-13-1c4 2 9 3 13 3 7 1 14 0 21 0 8 0 15 0 23-1 5-1 10-2 15-2-7 3-14 4-20 6 2 0 5-1 8-1 12-1 22-4 32-9-4 4-12 7-17 8h2s-1 1-2 1h-1 0l-3 1h-2c-1 0-4 0-5 1h-3-5-3c-2 0-5 0-6 1-2 0-6-1-8 0h-3 0c1 0 2 0 3 1 2 0 4-1 5 0 1 0 3 0 4 1 2 0 14 0 16-1h3c1-1 3 0 4-1h0 1 3c1-1 2-1 3-1h1 0 2v-1l1 1h0c10-3 20-9 28-15-2 4-5 6-8 9-2 1-4 3-6 5 11-5 21-12 29-20l1 1-2 2v1l-1 1v1l1-1 1 1 2-2c3-2 5-6 8-9-5 11-15 18-24 25 3-1 5-2 8-4 4-2 8-5 12-8 2-2 4-4 5-6 3-2 6-4 9-7 2-2 3-5 4-6h1v1h3c1-1 2-4 2-6 1-3 3-7 4-10 3-4 6-7 8-11-1-1-3 1-4 2-5 4-12 8-19 9 4-2 9-4 13-7 5-4 9-9 12-14s6-10 9-16c-3 3-5 7-8 9 0-1 2-3 3-4 2-3 4-6 6-10-3 4-6 8-9 11-1-4 2-8 3-12 2-6 5-14 4-21-2 6-5 11-9 16-1 2-2 4-4 5l14-27c-4 6-9 10-14 14 2-9 1-17 1-26h1v4l1 5c1-3 0-6 1-8l-3-21c2 4 4 7 7 10l-11-18c3 2 4 4 6 7l7 8c-2-5-5-10-6-15 1 0 1 0 1 1l3 5c-1-5-5-12-9-16-2-2-4-4-6-7 4 3 9 6 12 11 2 3 4 6 7 9v-1c-3-4-6-9-7-13 3 2 4 6 8 8h0c0-1-1-1-2-2s-2-3-3-4c-2-3-3-6-5-8-4-6-10-10-14-14 5 1 15 12 18 17 2 3 3 6 5 8 0-1-1-2-1-3l1-1h1v-2c-1-5-4-11-7-14-2-1-4-3-6-4l21 13c-2-2-4-4-5-6-6-5-11-9-16-14 3 1 6 3 9 5s6 5 8 7c-1-3-2-6-4-8-4-7-10-14-16-20l-11-9c2 1 4 2 5 3 6 5 12 10 17 15 3 3 5 6 8 9-4-8-11-16-17-23l-9-9c0-1 0-1-1-1 4 1 8 4 11 6s5 4 8 6h0l8 6c-1-2-2-3-3-4v-1h1 1l-3-3v-2c-1 0-1-1-1-1l-1-1h1s1 1 2 1h0l2 2h1c-3-4-5-8-8-10-5-4-9-7-13-11 6 4 13 7 19 11-1-2-2-3-4-5s-4-4-6-5l-3-3v-1h-1c-2-1-3-2-4-3h1c1 0 1 1 2 1h0c2-1 3-1 5 0 3 0 5 0 8-1h0l-8-2h7c-4-1-10-3-14-5 5 1 13 3 18 2-2-1-6-1-8-2-6-2-11-4-17-7 7 1 13 3 20 3-3-1-5-1-8-2-5-2-9-4-13-6-3-1-7-3-9-6 5 3 10 5 17 7l-6-3h1c2 1 5 1 7 1-2-1-5-2-8-3l11 1c-5-2-10-4-14-6 1 0 5 2 7 2 4 1 7 1 11 1-8-2-15-6-22-10-4-2-7-3-11-6l6 2c6 3 12 3 19 0h0 1v-1h0l-1-1 3-1c0 1 1 0 1 0 0-1-3 0-4 0l-1-1c-1 0-1 1-2 1-2-1-4 0-5-1h3 2c1 0 3 0 4-1h0l9-2c-4 0-8-1-12-1 4-1 9-1 13-2h-13 0c1-1 3-1 4-1 3-1 5-2 7-3h1l-1-1h-1c1 0 1-1 2-1 4-1 7-3 9-6h0c-2 1-4 3-7 4h0c-3 1-5 0-8 0 0 0 2 0 2-1l6-2c2-2 5-3 7-5h0-1-1l-1-1h0-1c-3 1-6 2-9 2h1c2-1 3-2 4-2 2-1 3-1 5-2-3 0-6 1-9 2 5-3 10-4 14-6v-1c1-1 1-2 1-3l1-1h0c-5 1-9 1-15 1v-1h3c4-2 9-3 12-8-2 1-4 3-6 4l-2-1c1-1 5-3 6-3-3 0-6 1-9 1h0l2-1c0-1 1-1 1-2v-1c-2 0-4-1-5-2 3 0 5-1 8-1-1-1-3 0-3 0-4 0-8-1-11-2v-1c4-5 7-10 9-15s5-11 6-17c0-2 1-5 1-7l-2-2c-7-1-18 11-25 14-3 2-7 1-11 1l-6 3h0v-1c2-3 5-2 8-3h-3c-4 1-8 1-12 2l4-5-6 3c-2 1-3 2-4 3v-1-1l1-1c1-2 2-5 3-7 1 0 1 0 2 1v2c1 0 3 0 4-1 4 0 7 1 10 2-3-7-6-15-11-21-9-12-22-21-35-27-24-11-53-11-78-1-30 13-51 39-63 69-13 30-18 64-20 96s-1 64 1 96l4 32h1c5 2 10 5 14 7 5 3 10 5 13 9v1h1c1-1 1-6 1-8 1-5 3-9 3-14 1-3 1-7 1-11 1-2 1-3 1-5l1-3 2-1h0v1l-2 12c1-1 1-3 2-4 0-1 0-2 1-3h2l1 1c-1 3-1 6-2 9l1 3h0l1-1c-1 6 0 12 1 17 0 3 1 6 2 8 1 3 2 5 1 7 0 1 0 1 1 2v1l9 16c3 5 6 10 11 13v2l-9-6-7-7c-3-4-7-7-10-9-5-4-10-6-15-9 2-1 4 2 5 1l-2-7c-2-2-5-3-7-4-12-7-25-9-37-9 0 0 2 1 3 1l6 3c7 4 14 9 21 14 3 3 8 7 11 11h-1c-5-5-11-9-16-13-10-7-20-13-31-17-20-7-40-9-62-5-4 1-9 2-14 4h0-2z" class="E"></path><path d="M432 504h3c-4 5-8 9-13 11 4-4 7-5 10-11z" class="G"></path><path d="M447 296v-1h-1c-2-1-3-2-4-3h1c1 0 1 1 2 1h0c4 1 7 1 10 3-2 0-5-1-7-1 1 1 3 2 4 3-2-1-3-2-5-2z" class="D"></path><path d="M459 204h5c3-1 6-4 9-6-2 2-4 5-6 6-3 2-7 2-9 3 0-1 1-1 1-2v-1z" class="G"></path><path d="M406 517v1l-1 1v1l1-1 1 1c-2 2-5 3-7 5-2 1-8 5-10 5 6-4 11-8 16-13z" class="D"></path><path d="M264 393h2l1 1c-1 3-1 6-2 9v7h0c0-1 0-2-1-3h0v-1c-1-2-1-3-1-5 0-1 1-1 1-2s0-2-1-3c0-1 0-2 1-3z" class="I"></path><path d="M256 436c3 1 9 10 11 12l-10-6c0-2-1-4-1-6z" class="D"></path><path d="M450 407c1 1 1 2 1 3l1 1c0-1 0-1 1-1v3h0c0 1 0 1-1 2v1 1 1l-1 1c0 1 0 1-1 2v-4h-1v-2c1-3 0-6 1-8z" class="B"></path><path d="M299 522c-3-1-6-2-9-2-6-2-13-2-18-5l27 3c1 1 3 1 4 1h-5-1c-1 0-3 0-4-1-1 0-3 1-4 0h-2 0 1l1 1h2c1 0 1 0 2 1h1 1c1 0 1 1 1 1h3c2 1 4 0 5 0v1c-1 0-3-1-5 0h0z" class="D"></path><path d="M265 403l1 3h0l1-1c-1 6 0 12 1 17 0 3 1 6 2 8 1 3 2 5 1 7-4-8-5-18-6-27v-7z" class="G"></path><path d="M445 320l-9-9c0-1 0-1-1-1 4 1 8 4 11 6s5 4 8 6h0v1h0l4 6c1 2 2 3 3 5h0l-3-3-3-3c-1-1-3-2-3-4-1-2-4-4-6-5l-1 1z" class="F"></path><path d="M364 535c-3 1-7 2-10 2-11 2-22 1-33 0-5 0-10 0-15-2h15c12 0 24-1 36-3h2s-1 1-2 1h-1 0l-3 1h-2c-1 0-4 0-5 1h-3-5-3c-2 0-5 0-6 1-2 0-6-1-8 0h-3 0c1 0 2 0 3 1 2 0 4-1 5 0 1 0 3 0 4 1 2 0 14 0 16-1h3c1-1 3 0 4-1h0 1 3c1-1 2-1 3-1h1 0 2v-1l1 1z" class="D"></path><path d="M449 477l1 1h2l2-2v2h0l-2 4c-2 3-4 6-5 9l-4 5s-1 1-1 2c-1 0-1 1-2 1v1h-1c0-1 1-3 0-4h0v1c-1 0-1 1-2 1 1-3 3-7 4-10 3-4 6-7 8-11z" class="B"></path><path d="M257 431c0-1-1-1-1-1v-2c0-3 1-7 1-10 1-5 3-10 5-14 1 12 2 23 6 34h-1l-1-1c-3-3-6-5-9-6z" class="G"></path><path d="M257 431c3 1 6 3 9 6l1 1h1c0 1 1 1 2 2h1 1l9 16c-1 1-1 1-1 2h-1c-6-5-11-11-16-16-2-3-6-6-7-9 0-1 0-1 1-1v-1z" class="D"></path><path d="M257 431c3 1 6 3 9 6l1 1h1c0 1 1 1 2 2h1 1l9 16c-1 1-1 1-1 2h-1c0-2-2-4-3-5-3-5-6-11-11-15-2-2-7-5-9-5 0-1 0-1 1-1v-1z" class="B"></path><path d="M254 429l-1 1-12-6c-8-3-16-4-24-6-3 0-7-1-11-1-6-1-12-4-18-5-21-4-41-3-61-2 4-1 10-2 15-3 31-5 65-1 94 13 4 1 8 3 11 5 2 1 4 3 6 4h1z" class="G"></path></svg>