<svg xmlns="http://www.w3.org/2000/svg" xmlns:v="https://vecta.io/nano" viewBox="65 40 590 628"><!--oldViewBox="0 0 700 752"--><style>.B{fill:#f6f5f7}.C{fill:#e8e8ea}.D{fill:#fdfdfe}.E{fill:#1c1a1c}</style><path d="M568 446l-12-2c4-1 9-1 13 0h-4c1 1 1 1 2 1 0 0 1 0 1 1z" class="C"></path><path d="M318 532v-12c-1-1-1-3-1-3 3 5 3 11 2 17 0-1 0-1-1-2z" class="B"></path><path fill="#a8a5a8" d="M294 648h8c2 0 5-1 7 0-4 2-12 2-17 1 1 0 1 0 2-1z"></path><path d="M318 532c1 1 1 1 1 2 0 5-3 11-6 15 1-2 2-4 2-6 2-4 3-7 3-11z" class="C"></path><path d="M296 414v-1-1l1-1c1 5 2 9 4 14 1 2 3 4 4 6-5-5-8-10-9-17z" class="B"></path><path d="M296 414c-2-7-2-13-6-19h1c1 1 2 3 3 5 1 3 2 7 3 11l-1 1v1 1z" class="C"></path><path fill="#5c5c5d" d="M230 365c1 0 1 0 1 1 5 6 6 13 5 21h0c-1-1-1-6-1-8-1-5-2-9-5-14z"></path><path fill="#afafb1" d="M292 649c-7 0-14-3-19-7 7 3 13 5 21 6-1 1-1 1-2 1z"></path><path d="M337 275c0-1 0-2 1-2h0 2 6c4 0 9 1 14 2-4 1-8 0-12-1-3 0-7 0-11 1zM195 504c0 4 0 7 1 11 0 2 2 5 2 8 0-1 0-1-1-1-3-6-5-15-4-22v4h2zm55 169c4 2 8 3 12 5 3 1 7 1 10 3-1 0-3 0-4-1-6-1-13-3-19-6h-1c2 0 3 1 4 1 0-1-1-1-1-2h-1zm108-406h3 0l-20 5h0-2v-2c7-1 12-3 19-3z" class="C"></path><path fill="#afafb1" d="M288 523l2 7c2 8 3 15-1 22h0l-1-1c2-3 3-7 2-11 0-4-3-14-2-17z"></path><path d="M337 278v-1c1-1 3-1 5-1 6 1 13 4 18 7-6-2-11-4-18-5h-4-1z" class="C"></path><path d="M273 331c3-6 6-11 7-18 1-1 1-5 2-5 0 8-2 17-7 23v-1l-1 1h-1z" class="B"></path><path d="M179 590c-5-8-6-17-9-26 1 1 1 2 2 3 2 4 3 8 4 12l4 10c-1 0-1 0-1 1h0z" class="C"></path><path fill="#5c5c5d" d="M322 644c2 0 5 2 7 2 5 1 10 2 15 2 2 0 7 0 8 1h-1c-9 1-22 1-29-5z"></path><path d="M302 478c3 2 5 5 7 8 3 6 5 15 2 22v1h0c1-12-2-22-9-31z" class="B"></path><path d="M248 616c6 3 11 4 17 5-1 0-2 0-2 1v1c-3 0-8-1-11-1h0l1-1h0l-1-1c-2-1-3-2-5-2l2-1-1-1z" class="C"></path><path d="M252 620c1 0 3 1 5 1 1 0 4 0 6 1v1c-3 0-8-1-11-1h0l1-1h0l-1-1z" class="E"></path><path d="M219 518c1 1 0 5 0 7 1 10 5 19 10 27h0c-4-3-7-10-9-15-1-5-2-9-2-14 0-2 0-4 1-5zm37-190h1c-2 2-4 4-6 5-5 6-7 14-6 21v6h1c-3-5-3-9-2-15 1-7 6-13 12-17zm-42 56h0c0 4 3 9 2 14-1 8-8 12-14 16h0-1c6-5 14-10 13-19 0-4-1-7 0-11h0z" class="B"></path><path d="M274 507c1 0 2 4 3 5l5 9c4 8 5 14 3 23v1h-1c2-12-1-20-6-29-2-3-4-6-4-9zm-17 22v1l1 1c6 11 8 25 3 37h0c0-1 1-3 1-5v-8c0-6-1-12-2-17-1-3-2-5-3-8v-1z" class="C"></path><path d="M193 500c1-8 4-16 10-21 2-2 4-3 6-5-2 3-5 5-7 8-5 6-7 14-7 22h-2v-4z" class="D"></path><path d="M321 273c1-1 4-1 5 0 0 1 1 1 0 2s-1 1-3 1h-2c0 1 0 0-1 1h-1-1l-1 1h0l-2 1h-2l-2 1c-1 1-2 2-3 2s-1 0-1-1h1c0-1 2-1 2-2h1c1 0 2-1 3-1l1-1h1l1-1h1 1 1v-2c-2 0-4 1-7 2h-2c-1 1-1 1-2 1h-1c-1 1-1 0-2 0v-1h2c0-1 1-1 1-1 1 0 2 0 3-1h2 1c1-1 2-1 3-1h3z" class="E"></path><path d="M254 436v1c1 8 2 16-1 25-2 5-4 11-5 17h-1c0-1 0-2 1-3 0-8 4-15 5-23 1-5 1-11 1-17z" class="B"></path><path d="M230 448c0 1 0 2-1 3-3 10-14 14-23 18-3 1-6 3-9 4 2-2 5-4 8-6 5-2 10-4 15-7 4-3 7-7 10-12zm-61 98h0c1 0 1 0 1 1 1 4 2 7 4 11 4 6 9 10 12 16 2 4 2 9 4 14v1c-3-5-4-10-6-14-6-10-15-17-15-29z" class="D"></path><path d="M225 400h1v3c2 7 0 16-4 22-7 9-15 11-25 13h-1c3-1 6-2 8-3 7-2 12-6 16-11 5-7 7-16 5-24z" class="B"></path><path d="M197 427h1c-3 7-13 11-18 16s-8 9-12 14h0 0c4-10 11-16 19-22 4-2 8-5 10-8z" class="D"></path><path d="M309 538c1 2 1 5 0 8 0 8-3 14-8 20-2 3-5 5-6 8-2 2-3 5-4 8h0v-4c2-7 6-10 10-15 2-2 3-6 5-9 2-5 3-10 3-16z" class="B"></path><path d="M241 470c0 1-2 5-2 6-1 3-2 6-2 9-1 9 0 18-1 27 0 3 1 8-1 10h0v-13c-1-13-3-28 6-39zm-16 144c1 1 4 6 5 7 6 4 12 6 18 11 5 4 7 10 12 15 1 2 4 3 6 5h-1c-1 0-2-1-3-1-6-4-10-12-15-17-3-3-7-5-10-7-5-3-9-7-12-13zm4-280h1v2c1 7 4 13 6 19 3 6 6 11 7 17s0 12-1 17v1h-1c1-7 1-15-1-22-3-8-7-15-9-24-1-3-2-7-2-10zm44-3h1l1-1v1c-2 4-5 8-8 11-5 6-9 14-10 21-1 4-1 8-1 12l-1-1c-1-11 1-21 8-30 3-5 7-9 10-13zm-40-49c-1 1-3 2-4 3l-6 6c-3 3-5 7-7 10-4 6-9 9-15 11 2-2 5-4 8-7 3-2 5-6 8-9-5 2-9 3-13 3 4-2 9-4 14-7s9-7 15-10zm14 336c-13-7-22-18-31-30l-10-10c13 8 20 22 32 32 3 2 7 4 10 6l1 1-2 1zm1 56c-3-1-6-3-9-4-10-5-20-11-29-18-2-2-4-3-5-5l45 26h1c0 1 1 1 1 2-1 0-2-1-4-1zm75-168h0c2 1 6 10 7 13 1 6 2 12 0 18-3 5-7 10-10 15-3 4-6 8-8 12 0 1 0 1-1 1 2-11 11-18 16-27 3-8 2-16-1-24-1-3-2-5-3-8h0zm-140-16l-1 10c-1 12 1 23 6 33 2 5 6 10 7 16 1 4 0 9-1 13 0 1 0 3-1 4 0-3 1-6 1-9 0-2-1-5-1-7-2-7-6-13-9-19-6-13-6-28-1-41zm-4 100h0c0-1 0-1 1-1h0c4 8 12 12 15 20 1 3 1 7 1 10 0 4 0 8 1 13 1 1 1 2 1 3 4 5 10 10 14 14 3 1 5 3 7 5-12-6-25-16-29-29-1-1-2-5-2-6l3 6c2 4 4 6 6 9-1-2-2-5-2-7-1-6 0-13-3-18-3-7-10-11-13-19zm100-115v5c1 6 2 12 5 17 5 9 15 13 19 23 2 6 2 12 3 18 0 6 0 11-3 17 0 1-1 1-1 1l1-3c1-5 0-10 0-15 0-6-1-12-3-18-1-3-3-6-5-8-4-4-9-7-12-12-5-7-6-17-4-25zm81 175h2v1c-5 1-9 2-13 3-14 4-29 7-43 5 1 1 3 2 4 4 4 3 8 5 12 7h0c-1 1-3 0-4 0h-7c-17 0-34 0-49-9l-1-1h0c9 4 17 6 26 8 9 1 18 0 27 0l-19-12c7 1 13 1 19 1 9 1 18-1 27-3l19-4z" class="D"></path><path d="M263 623c6 2 11 3 17 4 9 0 18-1 27-2 2-1 5-2 7-2l-5 6h-1c3-1 6-1 9-2 6-1 12-3 17-6-1 2-2 5-4 7-1 1-2 2-4 3 4-1 8-1 11-2 4-1 7-2 11-3-2 4-4 6-8 9 12 0 21-2 31-8-2 3-3 6-6 9h0c3 1 7 0 10 0-6 2-14 3-20 4 2-1 4-2 6-4 2-1 4-3 5-4-5 2-9 4-14 4-4 1-8 0-13 1s-10 2-15 2c1-1 4-1 6-2 5-1 9-4 13-7-9 2-18 3-27 2 6-1 9-4 14-7-4 1-7 3-11 4-5 1-9 1-14 2l-9 2c2-1 4-2 5-3 2 0 4-2 6-3-3 1-6 1-9 1-15 2-32 1-46-6 3 0 8 1 11 1z" class="B"></path><path d="M227 306h1c-4 3-7 5-10 8-4 5-5 11-8 16-2 5-4 9-6 13s-4 9-6 13c-1 2-3 4-4 6 4-2 9-5 13-8v-1c-2 5-3 10-4 14-2 7-7 12-11 18l14-4 1-1c-2 3-3 5-4 7-2 4-5 8-6 12-1 8 2 16-2 24-2 5-7 7-12 9 4-3 7-5 10-8 4-7 0-16 1-23 0-2 1-5 2-7l6-9c-6 2-14 1-20 5l-6 6c3-5 7-8 11-11 9-6 13-15 15-25-5 3-10 4-16 7 5-5 9-10 12-16l-6 3c-2 1-4 2-7 3 4-3 9-6 12-9 2-2 3-4 4-6 4-6 7-12 9-18-3 2-6 5-10 7 2-3 6-5 8-8 6-7 9-14 19-17zm111-28c4 3 9 6 13 10h0c-2-1-3-2-5-3-3-2-7-4-10-6-1 1-1 1-1 2 1 2 3 3 4 5 3 4 5 9 6 14-3-6-6-12-10-17-2 2-3 4-5 5s-5 1-7 2h-4c-4 6-5 15-6 22-1 5-1 10 0 15 1 6 6 12 8 18 4 10 5 22 4 33-1 4-2 9-2 13 5 1 11 3 16 5 17 6 33 18 44 33 7 9 13 19 19 29l22 40 6 13c1 1 2 4 2 4 15-17 25-39 32-61 14-47 14-97 10-146-4-42-12-84-32-121-12-22-28-42-47-58-31-25-72-37-112-33-30 2-60 12-84 29-11 8-20 17-28 28-15 18-25 41-31 64-9 32-11 64-11 96 0 16 1 31 3 47 2 28 9 58 20 84l8 19c2 2 3 5 4 7 5-10 10-20 22-24h1c-2 1-4 2-6 4-6 6-10 13-14 21-3 6-5 11-7 17-2 14-2 28-2 42l1 26c-1 5-1 10-1 15-1 2-2 5-2 7 4-5 5-11 5-17h0c2 6 5 13 6 19 2 8 2 17 4 25 1 5 3 9 6 13-1-4-1-9 0-13 0 3 0 6 1 9 1 7 3 12 7 17l6 6c-11-6-18-15-22-27 0-3-1-5-1-8 0-1 0-3-1-4l-1 12c-2-7 0-16-1-24 0-6-2-11-3-17-3 9-7 18-13 25 6-17 7-34 7-52 0-2 0-7-1-8-1-2-4-4-6-6-12-10-22-22-31-34-43-57-57-133-50-202 3-25 8-50 17-74 14-35 37-69 67-93 19-15 40-27 62-36 4-2 8-3 12-4 37-13 76-16 114-12 21 3 42 8 62 16 34 14 63 39 85 67 24 31 41 66 49 104 5 19 7 40 8 60 1 21 0 43-2 63-1 9-2 19-4 28-10 53-36 101-78 134-4 3-7 6-11 8 6 9 10 18 16 27 12 17 28 32 49 38 23 6 50 4 71-8s36-33 42-57c6-23 4-49-9-70-11-19-28-32-50-37 0-1-1-1-1-1-1 0-1 0-2-1h4c8 0 17 3 25 6 22 9 39 25 49 47 10 24 9 52-1 76-11 28-33 49-61 60-23 10-47 13-71 11-15-2-29-5-42-10-23-9-41-24-54-45-3-4-6-9-9-14-25 11-53 17-81 20-21 2-43 3-65-1-4-1-7-2-11-3s-9-4-14-5c-4-2-9-2-13-3v-1c-3-1-4-3-7-5-2-2-5-4-7-6-4-4-5-9-5-15 0 1 1 5 1 6 4-9 3-17 2-26h0c4 9 2 18-1 27 1 1 1 3 2 4 3 3 6 6 9 8l5 5c5 2 10 2 15 3 8 3 16 7 25 8 10 2 20 2 30 0s19-7 27-13 18-15 23-24c3-7 5-14 5-21 2-11 1-23-4-34-1-4-4-8-6-12s-4-8-7-12c-1-2-4-4-5-6-3-4-7-10-8-14s0-9 0-13l2-15 2-11c1-9 0-17 1-25l3-17c0-7-1-16-3-23-1-4-2-7-4-11-2-5-5-10-6-15-1-7 1-14 2-21-2 3-4 7-5 11 0 2-1 4-1 6l-1 1c0-2 0-3 1-5 0-5 2-10 3-14 1-3 3-6 4-9-4 3-8 8-10 12-2 3-4 6-6 8h0c4-9 9-15 15-22 2-3 5-7 8-9h1c2 1 5 1 7 0 2 0 4-2 5-4h0c1-3 2-7 1-10-1-1-3-2-4-3s-3-2-4-3c-2-3-4-8-5-11l-1 2c0 1 0 2-2 3-1 2-4 1-5 1-6-1-9-5-12-9l5-2c2 0 6-1 8 0 1 0 2-1 3 0s3 2 4 3c4 5 6 14 14 12 1 0 2-1 2-1 0-4-4-7-6-10-2-4-2-8-4-12-2-2-4-4-6-5-3-2-6-4-10-4-4-1-8 0-12-1-2 0-3-2-5-2h0v4c-1-2-2-5-2-7-1-5-2-11-4-16-2 4-4 7-5 11-2 3-3 7-4 10-1 1-1 7-1 7-2-3-2-7-1-10 2-5 4-9 6-13l-16 15c-9 8-17 17-27 24l-9 6c12-9 21-20 32-30l27-24c0 2 1 5 2 8v-1c4-4 9-8 13-11-1 9-1 18 5 26 7 2 15 6 19 12 1 1 1 2 2 4 1 4 2 8 5 12 2 2 4 4 5 7l-3 6v6c-1 0-1 1-1 2s0 1-1 2l1 1h1z" class="D"></path><path d="M314 247c1 0 2-1 3 0h-1v2c1 3 2 5 1 8-2-3-2-6-3-10z" class="E"></path><path d="M302 206c0 4 0 9 1 13 1 3 3 6 4 8-3 0-6 0-9-1-1 0-2-1-3-2-2-2-2-6-3-9 3-4 7-6 10-9zm48 313c-1-6-2-11-4-17-3-5-6-11-9-16-2-4-4-9-7-13-2-2-4-4-5-6-3-3-6-7-7-11h0c-1-3-1-6-1-8 1-9 3-18 4-26 3 0 6 1 9 3 7 4 14 12 18 19 9 14 15 29 22 44l15 36c3 8 6 16 10 24-4 2-7 4-11 6-16 8-35 13-53 16 3-3 6-6 8-10 7-10 9-22 10-34v-1-1l1 1v-6z" fill="#121212"></path><path d="M350 519c2 10 2 23-3 33 1-7 2-13 2-19 0-2 1-5 0-7v-1-1l1 1v-6z" class="B"></path></svg>