<svg xmlns="http://www.w3.org/2000/svg" xmlns:v="https://vecta.io/nano" viewBox="65 40 595 644"><!--oldViewBox="0 0 700 752"--><path d="M309 508v-6l1 2h1v5c-1-1-1-1-2-1zm1 62c5-3 10-5 16-5 1 0 2-1 4 0l7 2c-8 0-16 0-24 3h0-3zm-44-292h1 0c-3 2-8 4-12 5l-21 8h-2c2-1 4-2 5-3 9-5 19-7 29-10z" fill="#f6f5f8"></path><path d="M299 646c8 7 17 13 27 18 2 1 5 2 7 3h-2c-3 0-6-2-9-3-9-4-17-10-23-18zm-124-20c1 1 1 2 1 3l1 6 9 27-2-3c-5-8-8-16-9-25v-8zm101-371h1v1c-9 8-19 15-30 19h0-1c4-3 8-6 11-8 4-3 9-5 13-8l6-4zM123 548h0c-3 5-7 10-10 16-2 3-3 7-4 11h-1c0-4 1-9 2-13 2-6 7-11 13-14z" fill="#fdfdfc"></path><path fill="#979799" d="M401 296c19-5 40-4 57 7 3 2 6 4 8 7-4-3-8-7-14-9-13-7-31-7-45-5-2 0-3 1-5 1 0-1-1-1-1-1z"></path><path fill="#fdfdfc" d="M272 265h1c-2 2-4 3-6 4-7 6-15 11-24 15h0v-1c8-8 18-15 29-18z"></path><path fill="#f6f5f8" d="M151 613c1 7 0 14 1 21 1 2 1 5 2 7 1 0 1 1 2 2 2-8 3-16 8-23-1 4-3 7-4 11 0 4-1 7-1 11-1 5-1 9 0 14 0 3 1 6 1 9-2-5-3-9-4-14 0-2 1-4 0-6 0-1-2-3-2-4-5-8-5-19-3-28z"></path><path d="M214 592v1c1 2 2 4 4 6 7 8 18 12 28 15 4 1 7 2 11 2 2 1 5 1 8 1-13 2-28-1-39-8-6-4-11-9-12-17zm-84-23l-4 4c-9 12-10 29-10 44l-1-1c-1-5-2-10-2-15 0-2 0-3 1-5l1-7c2-8 8-17 15-20zm13 18h1l-1 1c-9 9-12 21-13 32v10h-1c-1-3-1-5-1-7-1-6-1-12 0-17 2-9 8-15 15-19zm166-85l3-19c1-8 3-15 4-22 1-3 2-7 4-10l-9 53h-1l-1-2zm19-99h0c2 2 3 6 3 9 2 6 4 11 5 17 1 7 1 14 1 21-6-10-5-22-7-34 0-4-2-9-2-13zm-5-83c3 2 5 4 8 7 10 10 16 22 18 36 1 3 1 6 1 9 0 0-1-6-2-7-4-16-13-32-25-45zm-133 20h1 0c-11 4-21 9-31 15-5 2-9 4-14 7 0 1 0 1-1 1l11-10c2-1 4-3 6-4s5-3 8-4c6-3 13-4 20-5zm137 128h-1c-1-2-3-5-3-7-1-2-1-5-1-7l3-22c0-4-1-9-1-14 3 10 3 21 3 31 0 6-2 14 0 19z" fill="#fdfdfc"></path><path fill="#f6f5f8" d="M115 495h0c-5 8-10 16-12 26 4-7 8-17 15-20-4 4-7 8-9 14-4 8-6 17-9 25v-12c1-12 6-25 15-33z"></path><path d="M133 555h0 0c-2 1-3 2-5 4-10 9-13 23-15 36 0 3 0 5-1 7 0 3 1 7 1 10h0c-4-11-4-26 1-37 4-9 10-17 19-20zm55 79c1 0 2 3 2 4 1 3 2 5 4 7 10 17 26 28 42 39-1 0-4-2-5-2-7-4-13-8-19-12-9-7-17-16-21-26-1-3-3-7-3-10zm-55-49h0 0c-5 10-7 20-8 31-1 7-2 14-1 21v1l-1-1c-1-4-1-9-2-13 0-8 0-17 2-24 2-6 6-11 10-15zm8 23c0 4 0 10 1 15 0 7 2 14 3 21 1 5 1 9 3 13 0 3 2 6 2 8h0c-3-5-6-10-8-15-4-13-3-29-1-42zm64 42c1 1 3 2 4 3l8 5c11 7 22 13 34 17 4 2 8 3 12 4 2 1 5 1 7 2h0-4c-12-1-23-5-34-11-10-5-20-12-27-20zm-4-21l22 21c6 5 11 11 17 16l15 9-12-6c-11-6-21-13-29-22-5-5-9-12-13-18zm-73-164h1l-7 5c-10 8-18 19-19 33l-10 7h0c0-2 3-4 4-6s1-4 2-6l1-2c1-4 3-9 5-12 5-8 14-15 23-19zm41 162c1 3 0 7 0 10 0 11 2 23 7 33 1 3 3 7 5 10l6 6c1 1 2 1 3 2h-1c-9-4-16-13-19-22-6-12-5-26-1-39zm13-3v7c0 2 1 5 2 8 1 5 4 9 7 13 10 15 22 25 39 34h-1c-1 0-2-1-3-1-7-3-14-8-20-12-9-7-18-15-23-26-2-5-2-11-2-17 0-2 0-4 1-6zm92 24c2 2 4 5 7 7 15 12 35 16 52 25 5 2 10 4 14 8-2-1-5-2-7-3-3-2-6-3-9-4-7-3-14-4-21-6-14-5-29-13-36-27zm-20-361h10c-6 3-14 5-21 7l10 1h0c-5 0-11 0-16 1-6 1-11 3-16 4 8 0 16 0 23 2 4 1 7 1 10 3-4-1-9-1-14-2-16 0-31 3-47 6 6-4 14-5 21-8 2 0 3-1 4-2 2-2 4-2 5-3 3-2 7-3 10-4 7-2 13-4 21-5zm33 356s3 4 3 5c2 2 4 4 6 5 24 18 55 25 84 24 4 0 8-1 12-2v1h-2c-23 8-48 6-70-4-11-5-21-12-28-21-2-3-4-5-5-8zm-62-333c6 0 11 1 17 1-5 1-11 1-16 1-11 1-21 5-31 9-4 2-8 4-12 7h0c12-6 25-10 39-9-1 1-6 1-7 1-3 1-7 1-10 2-11 4-21 10-30 16l-4 2 13-6c6-2 14-4 20-3-15 3-30 9-43 17l12-14c8-9 18-17 29-20 8-3 15-4 23-4zm106 29v1c2 2 4 5 5 8 13 21 13 44 12 68-1-4-2-8-3-11-1-4-3-8-4-11-1 2-1 4-1 6v10 23c-3-6-4-12-6-19l-3-9 3 5 3 6-1-44c4 7 4 15 6 22 1 3 3 7 5 11l-10-42 6 10c-1-7-4-15-7-22-2-4-4-7-5-11v-1zm-74 49h0c4 7 7 16 10 23 10 29 16 58 11 89v-3-9c0-12-1-23-3-35-1-5-2-10-4-14l2 11c0 7-1 15-3 22v-13c0-19-7-34-22-45l-5-4c-1-1-2-1-3-2 3 1 5 2 7 3 7 5 15 11 20 18h1c-2-7-3-15-5-23l-4-11c-1-2-2-4-2-7zM114 529c1 0 4-4 5-5 1-2 4-4 6-6-1 3-5 6-6 9-4 5-7 11-9 17 6-7 12-15 21-18-5 3-9 7-13 12-2 2-4 6-5 9l-7 12c2-2 4-5 7-8l6-3c0 1-3 3-4 4-2 2-4 5-6 8-5 9-7 19-9 29 0-3 0-6-1-8v-21c1-15 5-30 14-42 2-3 5-5 8-8-4 5-7 10-9 16v1l-4 10h1v-1l1-1 1-2s0-1 1-1c0-1 1-3 2-4v1z" fill="#fdfdfc"></path><path fill="#010101" d="M112 526v1l-4 10h1v-1l1-1 1-2s0-1 1-1c0-1 1-3 2-4v1c-2 4-5 8-6 12-2 5-2 10-3 15 0 3-1 6-2 8 1-13 3-26 9-38z"></path><path d="M202 618c2 4 4 7 6 10 3 5 7 9 11 12s8 5 12 7c6 4 14 6 21 9l7 3c1 0 1 1 3 1-11-6-21-13-29-22l8 6c6 4 11 7 17 10l8 4 6 3c2 1 4 4 7 6 5 5 11 8 17 12l9 4c1 1 5 2 6 3-2 0-5-1-6-2-10-3-19-8-28-13 5 5 10 10 12 16l1 1h0v1c-3-3-5-7-7-10-12-12-29-17-44-23-7-4-16-8-22-13-7-7-12-16-15-25zm109-109c1 1 4 2 6 3 7 4 12 11 14 19 1 6 2 11 2 17 0 1 0 3-1 4 0-2 0-5-1-7-3-9-11-16-17-23l14 11c0-2-1-4-2-5-4-9-9-14-18-18 2 8 1 18 0 25h8c4 1 7 3 10 6 1 2 2 4 1 7-1 5-5 7-9 10 7 0 13 3 19 6-3 0-6 0-8-1-7-3-15-2-22-1 5 1 11 0 16 1 2 0 4 0 6 1h-9c-3 0-6 0-9 1-8 1-15 4-23 6l9-6 15-7c3-1 7-2 10-5 1-2 3-4 3-7 0-2-2-4-4-6-3-2-6-3-10-3-7 1-9 6-13 11l6-11c3-7 4-19 1-27-5-1-9 0-13 0l4-1c0-1 1-1 1-1 6-4 4-17 4-23 0-15 5-30 9-45 3-10 6-20 8-31 0 6-1 13-2 18l-5 23c-4 17-10 33-7 51 1 1 1 4 2 6 0 1 2 1 3 1s1 0 2 1zm-90 106c4 1 7 2 10 3 9 1 19 1 28 2 16 1 32 4 48 7 14 3 26 8 36 17 2 2 4 3 5 6-7-6-14-10-22-13h-1c12 6 21 15 31 24l5 6c3 2 6 5 9 8l-43-25-10-5c2 0 4 1 6 1 9 2 18 6 26 11-3-4-8-7-12-9-10-6-20-10-31-12-12-2-25-1-37-2-5-1-11-1-17-3l59 2c-4-2-7-2-10-3l-25-3-30-4c-6-1-12-3-18-5-2 0-5-1-7-3zm181-318c-2 0-4 0-6 1-1 1-1 4-1 5 16-4 37-2 51 6 1 0 2 1 2 2-4-2-7-4-11-5-12-4-26-5-39-3-1 0-2 1-3 1-1 2-2 3-3 5 9-2 21 1 29 5 7 2 14 7 20 12 0 1 2 2 2 3-1-1-2-2-4-3-1-2-3-3-6-5-12-8-27-12-42-11-2 2-4 4-6 7 7 2 12 4 18 8 7 4 13 9 19 15 1 1 2 2 2 4-6-7-13-13-21-18-2-1-17-9-19-8l-1 1-4 3c-8 7-16 11-26 14v17c-2-3-3-7-5-11-4-6-9-12-13-18 5 4 10 10 15 15l-1-6c1-1 2-1 3-1h5c5-2 8-5 12-8l9-9-7-2c2 0 4 0 6 1h2s1-1 1-2c2-1 3-2 4-3s1-1 2-1c-2 0-4 2-6 2 3-2 7-5 9-9v-1c-2-1-5 1-7 2 2-2 6-3 8-5v-2h-1v-1s1-1 2-1c1-3 2-7 2-10 1-5 2-10 0-15s-6-10-10-14c-3-5-6-9-6-15 0-9 4-19 6-28 1-5 3-12 1-17 0-2-2-4-4-4-1-1-2-1-3 0l-9 6-16 14c-2 3-5 5-8 7-1 0-2 1-3 1-4 0-8-1-12-1-7-1-14-1-21 0-3 1-6 1-9 3-1 0-3-1-4-1-7-4-15-8-22-13-3-1-8-5-11-5-2 0-2 0-2 1-1 2-1 4-1 6 1 5 3 10 4 15 2 7 3 15 4 22 5-3 7-7 10-11-1 3-2 6-4 9-2 2-4 4-5 6 0 1-1 4-1 6-2 5-7 9-12 12 3-3 6-5 8-9 1-2 1-4 2-6 0-2 0-5 2-6l-1-1v-5l-2-9c-2-8-5-17-7-25 0-1-1-4 0-5 0-1 1-2 2-2 2-1 4 0 5 0 4 2 8 5 12 7l22 11c2 0 5-1 8-2s7-1 10-1c5-1 9-1 14-1 3 1 7 1 10 1 7-1 24-17 30-22 3-3 7-6 10-5 2 0 4 1 5 3 5 7 2 17-1 25-1 7-3 13-4 20-1 2-1 5 0 7 1 6 8 11 12 16 8 11 7 21 5 34 6-3 15-5 21-4h0c-5 0-12 2-17 3-1 1-3 1-4 2s-1 3-1 4l5-1s1 0 1 1zm-242 66c5-1 10-3 15-4-3 2-6 3-9 4-7 4-14 9-20 14-2 2-5 4-6 7 5-4 10-7 17-8-4 2-8 3-11 5-5 4-9 8-12 13-2 1-4 3-5 5 7-5 14-10 22-12h5 1l-9 3c-12 6-20 14-28 24h0c5-4 10-7 15-9 3-2 5-3 8-3l-9 6c-11 8-20 20-24 33 5-8 13-13 21-18l-22 32c6-5 13-11 21-12-2 1-5 2-7 4-7 5-15 13-19 21 2-1 3-3 4-4 3-4 7-7 10-9-4 5-9 11-11 17 4-6 9-9 15-12-12 11-20 23-24 39v-10c1-9 2-17 6-25 1-2 2-4 3-7 1-2 2-5 3-8l3-6c-6 6-9 12-12 19-5-11-12-22-16-34-8-19-14-40-17-61-4-37 0-78 13-113 6-18 14-36 24-52 24-41 62-75 104-95 15-8 31-14 47-19 62-18 132-16 193 5 53 19 99 52 130 98 6 9 12 18 17 28 7 14 13 29 17 45 5 17 8 35 9 53 2 32-1 65-12 96-18 53-56 98-103 128 3 3 6 5 9 7l15 11c26 17 57 36 89 35 10-1 18-4 24-11s9-15 8-23c0-5-2-9-4-14 5 6 7 13 7 20-1 14-9 25-19 34-16 14-36 18-57 16-27-2-54-11-78-24-10-6-19-12-29-18 0-1-8-6-8-6h-2l-5 3-23 8c-25 7-51 12-76 13l-32 1c-8 0-16 0-24-1l-22-3c-3-1-6-1-8-1-4 0-8 3-12 4s-10 2-13 4c-1 1-1 2-1 4s0 3 1 4c4 4 9 5 14 6 1 0 3 0 3 1-1 1-8-1-10-1-4-1-8-3-10-6-1-2-1-4-1-6 2-5 9-8 14-10 7-4 14-5 22-8l20-6c2 0 4-1 5-1h1 0c0-1 4-3 5-3h3 14c5 0 10 3 14 2 2 0 3-2 5-2 1-1 4-1 6-1l16-2c14-3 27-5 41-9 10-3 20-6 29-11h0c-2-1-3-2-5-3l-9-8-25-22-28-24c-5-5-11-11-18-15-4-3-8-5-13-5-4 0-8 1-12 5s-6 10-6 16v5c0-1-1-3-1-4-2-9 2-17 7-24h-1c-2-5 0-13 0-19 1-1 1-2 1-3h0v-21c3 12 1 25 6 37 7-8 18-12 28-13 18-2 36 5 51 16 5 3 10 8 15 12l17 15 34 30c2-1 4-3 5-4 9-6 16-13 23-21 35-38 44-93 45-142v-22c-3-46-9-92-32-133-10-18-24-34-40-48-40-36-94-52-147-50-12 1-24 2-36 5-41 9-78 29-106 60-45 49-52 119-49 183l1 19 8-6c9-7 20-12 31-14-2 2-4 2-7 3-5 2-11 5-16 9l1 1-3 2c1 0 2-1 3-2v1z" fill="#fdfdfc"></path><path d="M327 449c1-1 1-2 1-3h0c1 6 2 11 5 17-2 1-3 2-4 3 0 1-1 2-1 2h-1c-2-5 0-13 0-19zm-167-86c-6 3-11 6-16 10-5 5-10 12-15 17 0-1 1-3 1-4 0-2 0-4 1-5 6-5 12-9 18-13l10-7 1 1-3 2c1 0 2-1 3-2v1zm145 210c6-1 12 0 19 1h7l-3 1c-5 1-9 4-14 5-3 0-5-1-8-1-3-1-7-1-10 0 1-1 2-1 4-2 4 0 9-1 13-1s7 0 11-1c-5-1-10-1-15-1-1 0-3 0-4-1h0z" fill="#010101"></path><path fill="#121212" d="M297 581c4-1 8-1 11 0 2 0 3 1 3 2s1 2 0 3c-2 0-4 1-6 1h-17l-17-2c4-1 8-2 12-2l14-2z"></path></svg>