<svg xmlns="http://www.w3.org/2000/svg" xmlns:v="https://vecta.io/nano" viewBox="50 40 625 652"><!--oldViewBox="0 0 700 752"--><style>.B{fill:#f3f3f4}.C{fill:#fff}.D{fill:#dedddf}.E{fill:#1c1b1b}.F{fill:#aaaaab}</style><path d="M231 689l6-1 1 1h3l-10 1h0v-1z" class="D"></path><path d="M459 387h-1c-1 0-2-1-3-2-1 0-1 0-1-1-1 0-1-1-2-1v-2l5 4 2 2z" class="E"></path><path d="M231 690v1h-18c1-2 15-2 18-2v1h0z" class="F"></path><path fill="#888989" d="M248 653c5-1 11-1 17 0-2 1-5 0-7 1v1c-3 0-8-1-10-2z"></path><path d="M264 691h0c1-2 3-2 4-3l7-2 1-1h2 1c-3 2-6 3-9 4h0c0 1 1 1 2 1l-8 1z" class="E"></path><path d="M402 377c6 0 11 0 16 2h-5l-16-1h0c2-1 3-1 5-1z" class="D"></path><path d="M430 601c2 2-1 7 1 9h1c0 3-1 8-2 11 0 2 0 4-1 5h0l1-25z" class="F"></path><path d="M442 409c1 1 2 3 2 5 3 5 4 10 4 15h0c-1-1-2-4-2-6l-4-14zM209 622l13 11c-1 0-1 1-2 1h0l-1-1-1-1c-3-2-6-4-9-7h1c1 0 1 1 2 1-1-1-2-2-3-4h0zm180-293h1c1 1 3 0 5 0h11l-22 3c1 0 1-1 2-2h1l1-1h1z" class="D"></path><path d="M414 342c5 0 10 0 15 1-4 1-10 0-14 0l-14 2c3-2 9-3 13-3z" class="F"></path><path d="M166 546c-2-7-2-14-2-21 0-1 0-4 1-5v3l1 10 1 9c-1 0-1-1-1-1v3 2z" class="B"></path><path d="M445 394h0c2 2 3 5 4 8 2 5 4 11 3 17 0-2-1-4-1-5l-4-13c-1-2-2-4-2-7z" class="D"></path><path d="M383 648c-1 3-4 6-6 8-3 3-6 7-10 8 1-1 3-2 4-3l6-7c2-2 3-5 5-8v3l1-1h0zm-39-11l1 2c-8 2-18 5-26 5v-1l25-6zm78-325l-16-4c-3-1-7-1-10-2 3 0 5 0 8 1 7 0 12 2 19 3l-1 2z" class="B"></path><path d="M43 539c10-1 21 2 29 6-4-1-8-2-13-3l-10-2c-2 0-5 0-6-1zm484-37h3c6 0 11 2 15 7-1 0-3-1-4-2-6-3-13-3-20-4l6-1z" class="D"></path><path d="M409 535c8 7 11 15 14 25l-14-25z" class="B"></path><path d="M399 372c1-1 1-1 2 0h0c-1 2-2 3-4 4h-1l-1 1c-1 0-3 1-4 3h-1 0l-1-1 2-1c0-1 1-1 2-1 1-1 1-1 1-2h0c-2 0-3-1-4 0h-1 0l1-1c1 0 2-1 3-1h0l1-1h1 4z" class="E"></path><path d="M364 424c0 1-1 6-1 7 0 5 0 10 1 15 0 3 1 5 1 8v-1l-1-2c-4-7-3-19 0-27z" class="B"></path><path d="M430 601l-2-23c4 10 5 21 4 32h-1c-2-2 1-7-1-9z" class="D"></path><path d="M394 579c1 3-1 6-1 8l-2 14c0 3 0 6-1 8h0v-4c-1-6 0-13 2-18 0-3 1-5 2-8z" class="B"></path><path d="M222 633c1 1 2 1 3 1 0 1 1 2 2 3l10 5h-1c-5-1-11-3-16-6l2-1c-1 0-2-1-2-1h0c1 0 1-1 2-1z" class="D"></path><path d="M222 633c1 1 2 1 3 1 0 1 1 2 2 3-1 0-2 0-3-1l-2-1c-1 0-2-1-2-1h0c1 0 1-1 2-1z" class="C"></path><path d="M427 280c10 4 18 12 24 20l-24-20z" class="B"></path><path d="M225 634h0l-2-2v-1c2 1 3 2 4 3 3 2 6 3 10 6 2 1 4 3 7 5-2-1-6-1-8-3h1l-10-5c-1-1-2-2-2-3z" class="F"></path><path d="M278 661h5l-29 4-4 1c8-4 19-5 28-5zm100-88v2c-1 10-7 21-15 27 2-4 5-7 7-11 3-6 6-12 8-18z" class="B"></path><path d="M131 651h0c1 0 3 1 4 1l7 1 16 3h5c-8 1-18 0-25-2-3-1-5-2-7-3zm327-417h0l-3 6-3 6c-3 6-6 12-8 18h-1c1-4 2-7 3-11 3-7 6-13 12-19z" class="C"></path><path d="M404 341h1l-30 14h0c1-1 3-2 5-3 5-4 10-6 16-8 3-1 5-3 8-3z" class="B"></path><path d="M232 629c5 2 8 4 12 6 6 4 12 7 17 11-8-3-16-8-24-13-1-1-3-2-5-4z" class="C"></path><path d="M416 563l1 1c4 8 7 17 8 26 0 2 1 4 0 6h0c-2-11-6-22-9-33z" class="B"></path><path d="M383 447h0l1 1v1 2c1 1 1 1 1 2v2h0c0 2 1 4 0 5h-1v-2l-1-1v5l1 1v3 2l-1-1v-1c-1 0 0 0 0-1-1-1-1-1-1-2v-2c-1-1-1-1-1-2v-3c-1 0 0-1 0-2l-1-1v-2h1l1 1h0c1-2 1-3 1-5z" class="E"></path><path d="M406 552c1 2 0 4 0 7v9 13c0 3 1 6 1 9h0c-5-12-4-26-1-38z" class="C"></path><path d="M431 381l1 1 1 1c10 8 13 21 14 33-2-3-3-8-4-12-2-9-7-16-12-23zm-75 90h1c1 11 3 21 6 31l3 8c1 2 2 4 2 5h0c-1-2-3-5-4-7-5-12-8-24-8-37z" class="B"></path><path d="M412 593c1 4 0 8 0 11l-2 20c0 3 0 6-1 10l-1-1c0-13 2-27 4-40z" class="C"></path><path d="M404 629v1c-2 14-8 29-20 37 1-2 3-4 5-6l9-15c1-3 2-5 3-8l3-9z" class="B"></path><path d="M344 637c8-3 15-6 22-10 4-3 7-6 11-8-6 8-15 13-24 17-3 1-5 2-8 3l-1-2z" class="C"></path><path d="M344 448h0c1-8 1-14 3-21-1 9-1 19 0 29l1 10c0 2 1 4 1 6-2-4-3-9-4-14 0-2 0-7-1-8v-2z" class="D"></path><path d="M194 606c4 6 10 11 15 16h0c1 2 2 3 3 4-1 0-1-1-2-1h-1c-1 0-5-4-6-5l-11-11 1-2 1-1zm240-279h1c6 4 12 9 17 14 7 6 13 11 19 18-4-3-8-6-11-9l-26-23z" class="B"></path><path d="M417 364c4 0 7 1 10 3 8 3 16 9 21 17 1 3 3 6 4 9-2-2-3-5-5-8-6-8-14-13-23-18l-6-3h-1z" class="D"></path><path d="M403 349c4 0 7 0 11 1-3 0-7 0-10 1-11 2-22 4-32 9l-7 3h0c1-1 2-2 4-3 10-6 22-9 34-11zM45 541c12 1 24 5 35 11 3 2 7 4 9 6-3-1-6-3-10-5l-18-7c-5-2-11-3-16-5h0z" class="C"></path><path d="M272 690c5-2 10-4 15-4-8 4-16 5-25 7l-14 3c-7 1-14 1-21 1h-1l38-6 8-1z" class="D"></path><path d="M174 576c6 11 11 22 19 31l-1 2c-3-3-5-6-7-9-4-6-7-12-10-18 0-1-1-3-1-4-1 0 0-1 0-2z" class="F"></path><path d="M183 666c8 2 15 3 23 4h24 8 5-1c-3 1-5 1-8 1-12 1-23 1-35-1-5-1-10-2-16-4z" class="D"></path><path d="M104 519h1c2 0 4 2 6 3 7 4 13 9 19 16 5 4 10 10 13 16-3-3-6-6-9-10l-10-10c-4-4-8-7-12-10-3-2-5-3-7-5h-1zm205 144l1 1c-3 1-6 1-9 2-7 3-15 5-22 6h-15-1l46-9z" class="B"></path><path d="M489 273h6l7 7-6 1-4 1-8-8 5-1z" class="C"></path><path d="M385 621h1c-8 17-22 30-34 43v-1l33-42zm-148 67c4-1 7-1 11-2 13-4 25-8 37-12h1c-12 6-25 10-38 14-2 0-5 1-7 1h-3l-1-1z" class="B"></path><path d="M382 646c3-4 6-9 8-13l9-18c2-4 3-8 6-12-6 16-12 32-22 45h0 0l-1 1v-3zm-238-32c5 0 37 20 43 24 3 2 7 5 11 8h-1l-39-24-9-5c-2-1-4-2-5-3zm141 60c6-3 12-4 18-6l15-5c7-2 13-6 19-9-2 2-5 4-7 5-10 6-20 10-31 12-4 1-8 1-11 3h-2-1z" class="C"></path><path d="M395 487h1c1 0 3 2 5 4 13 11 20 28 27 44v2c-1-1-2-4-3-5-5-11-11-23-18-33l-12-12z" class="B"></path><path d="M380 519h0 0c1 4 2 8 2 11 2 12-1 24-5 35l-1 1c0-5 2-9 3-14 1-11 1-22 1-33z" class="C"></path><path d="M168 675h51l-1 1c-7 0-13 1-19 2-8 0-16 0-23-1-3-1-6-1-8-2z" class="B"></path><path d="M384 332c-5 2-10 5-14 7-9 6-17 13-25 20l3-4c12-12 27-23 43-27 2-1 5-2 8-2h0l-10 3h-1l-1 1h-1c-1 1-1 2-2 2zm39-22c12 3 22 10 33 16 3-5 7-8 11-12 3-2 7-5 10-7-6 6-14 12-20 19v1l2 1h-1s-1-1-2-1l-2 2v-1c1 0 1-1 1-2l-6-3c-6-3-13-6-19-8-3-1-5-2-8-3h0l1-2z" class="C"></path><path d="M452 381l-8-8-22-18c-3-2-7-4-9-7l12 8c10 7 19 15 28 23 1 2 4 3 5 5l-1 1-5-4z" class="D"></path><path d="M57 555c4 0 9 1 13 3 12 4 22 11 32 18l14 9c-2 0-11-6-13-7-10-5-18-12-28-16-4-2-8-3-11-5-2 0-6 0-7-2zm337-35c1 2 2 4 4 6l3 9c1 8-1 17-3 24l-3 12-1 1c0-2 1-7 2-9 1-9 3-20 2-30-1-5-3-9-4-13z" class="B"></path><path d="M366 584c0 3-1 6-3 9-1 2-3 4-5 6-9 9-20 13-32 17v-1c3-2 7-3 11-5 8-4 18-10 24-18 2-2 4-5 5-8z" class="C"></path><path d="M341 431c1-1 1-1 1 0 0 0 1 1 0 2h0v1 2l-1 1v2 2l-1 1v3c-1 0 0 0 0 1-1 1-1 2-1 3h0v3c-1 0-1 0-1 1v1h-1v-2h0l-2 1v6h0c0 2 0 7 1 8 0 2 0 3-1 4h-1v-3-3-10c1-1 0-2 0-3 1-1 1-2 1-3h0v-2l1-5h1c0-1-1-1 0-2v-1s0-1 1-1v-1-1l1-1v-1-1h0c1-2 1-2 2-2z" class="E"></path><defs><linearGradient id="A" gradientUnits="userSpaceOnUse" x1="347.549" y1="470.842" x2="342.362" y2="472.139"><stop offset="0" stop-color="#cfd2d1"></stop><stop offset="1" stop-color="#f6f4f6"></stop></linearGradient></defs><path fill="url(#A)" d="M344 448v2l1 7v9c0 5 0 10 1 15 1 6 3 11 4 16 1 3 2 5 3 8-3-4-4-8-5-12-5-14-7-30-4-45z"></path><path d="M146 480h0c1 14 4 28 9 41l6 18c1 2 2 4 2 6h0c-2-2-3-6-4-9-8-18-14-37-13-56z" class="B"></path><path d="M372 464c-1 6-2 11-2 17-1 13 2 25 4 37h0 0l-6-20c-2-12-3-24 4-34z" class="C"></path><path d="M387 454c2 3 5 7 8 9 10 10 23 18 27 32-3-4-5-8-9-11h0l1 1c2 4 5 8 6 14l-3-6c-2-3-4-6-6-8-1-3-2-5-4-7l-6-6c-6-6-11-11-14-18zM58 573h1c5 1 10 2 15 4 13 4 25 10 37 18 5 4 12 8 16 14h0c-11-10-24-18-37-24-4-2-8-4-12-5l-13-5c-2 0-5 0-7-1v-1z" class="B"></path><path d="M278 685h0c9-3 19-7 27-11 5-2 10-4 14-7l12-7c4-3 10-5 14-8l16-12c3-3 7-6 11-8-8 8-18 17-28 23-5 2-10 4-15 7l-9 6c-6 4-12 7-18 9l-9 4-10 3c-1 0-3 1-4 1h-1zM122 502h0c4 3 6 6 9 9 9 10 17 22 23 34s11 25 15 38c-1 0-5-11-6-13-8-21-19-41-33-58-3-3-5-7-8-10zm32 158h59c2 0 13 1 14 2h-14c-18 1-37 2-54-1-2 0-4 0-5-1zm-10-117c1 2 1 4 2 6l4 7 22 33c4 7 10 12 14 19l-1-1c-2-1-3-3-5-4-10-10-18-22-25-34-5-8-9-16-11-26zm22 3v-2-3s0 1 1 1h0l3 14c5 18 13 35 24 50l-1 1c-8-9-13-20-19-31-2-4-4-9-5-14l-3-16zm75 110c-14 1-26 3-40-1-11-4-21-9-31-14-2 0-5-2-6-3 2 0 5 2 6 2l15 7c6 2 12 4 17 5 8 3 16 3 24 3 5 1 10 0 15 0v1zm147-123v1c1 0 1 2 2 3 1 3 2 7 2 11 1 9-1 20-5 28-3 6-8 12-13 17l-1 1h0l3-5c9-12 14-28 13-43 0-4-1-8-1-13z" class="C"></path><path d="M220 636l-2-1c-4-2-8-4-11-6-14-7-29-18-34-33 2 3 4 6 7 8 6 8 14 15 23 20 1-1 0-3 0-4 1 1 5 5 6 5 3 3 6 5 9 7l1 1 1 1s1 1 2 1l-2 1z" class="B"></path><path d="M203 620c1 1 5 5 6 5 3 3 6 5 9 7l1 1c-2-1-5-2-7-4l-9-5c1-1 0-3 0-4z" class="E"></path><path d="M415 574s1 2 1 3c1 2 2 5 2 7 3 13 3 26-1 39-2 8-7 17-12 24 0 0 0 1-1 1 1-4 4-7 5-10 5-12 8-25 8-38 1-6 0-11-1-17 0-3-1-6-1-9h0zm-247-54h1l4 19c5 18 12 37 21 54 4 6 9 12 13 18h-1c-3-3-5-6-7-9-15-18-23-40-28-63l-3-19z" class="C"></path><path d="M205 591c1 0 2 2 2 3l5 7c3 4 7 9 11 13 2 2 4 5 7 7 18 16 39 23 63 24h18-1l-8 1c-12 1-24 0-35-3-14-4-28-12-39-22-8-7-14-15-20-24l-3-6z" class="D"></path><path d="M64 610h5c3 0 6 1 10 1 31 4 60 18 88 33l10 5c2 0 3 1 4 2-2 0-6-2-8-3l-27-12c-16-7-31-14-47-19-7-2-15-3-22-5-2 0-11-1-13-2z" class="B"></path><path d="M384 594h0c-1 2-3 4-4 5-5 8-10 15-19 20-19 13-47 13-69 8h-2c4-1 9 1 12 1 24 1 50-3 68-19 5-4 8-10 14-15h0z" class="C"></path><path d="M226 655l15-1c-3 0-6 0-8-1-5-1-9-2-13-3-9-3-17-6-25-10-11-6-21-13-31-20-4-3-9-6-13-9v-1c12 7 24 15 36 23 4 2 9 5 14 7 10 4 19 8 29 10 6 2 12 2 18 3 2 1 7 2 10 2 12 1 24 1 35 0 6 0 12-1 18-1-3 1-6 1-10 2-12 2-25 2-38 1-7 0-14-2-22-1v-1c-5 0-10 1-15 0z" class="B"></path><path d="M345 384c15 0 30 3 43 10 19 10 34 25 48 41l27 29 39 40c14 15 30 29 47 42 18 13 41 23 64 20 24-4 38-24 51-42 0 4-1 9-3 13-2 9-6 18-11 27-11 16-28 28-47 32-10 2-19 2-29 1-13-1-25-4-38-9-48-19-79-61-110-101l-32-41-14-17c-13-14-28-29-48-31-10 0-18 3-25 9-11 9-16 22-17 36-1-4-2-8-2-12 0-10 5-22 12-30s19-14 30-16c5-1 10-1 15-1zm134-72h0c0-3 5-7 7-8 7 1 17 4 23 0 4-2 7-8 9-12 1-1 2-3 2-5 1-1-2-4-3-5-3-3-6-6-8-10-1-2-2-5-2-7-1-4-1-8-3-11s-5-7-8-10c-1-2-2-3-3-4 0-3 1-6 2-9l2-7c1-4 3-7 4-11v-3-1c-2-1-2-1-4-1l-6 3-11 5c-1-2 0-5-1-6l-1-9c0-4-1-8-2-12-10-37-34-68-70-83-28-11-58-10-86 2-29 12-49 39-60 67-8 19-12 39-15 59-3 22-5 43-5 66 0 21 2 42 6 63 2 14 5 27 11 40 8 18 18 34 32 47 3 3 7 7 11 9-2 11 0 23 4 33l-24-9c-30-14-56-36-75-64-6-9-12-20-16-30-6-14-10-29-13-44a270.15 270.15 0 0 1 0-106c2-13 6-26 11-38 6-18 15-35 27-51 13-17 30-32 48-44a313.77 313.77 0 0 1 25-14c12-5 23-9 35-12 29-7 59-7 88 0 9 2 17 5 25 8 35 14 66 39 86 72 6 8 10 18 15 28 6 14 10 29 13 44 8 39 6 81-4 120-2 7-4 15-7 22-11 26-25 51-46 71-7 6-14 13-22 19l-5-30 3 9c0 1 0 3 1 4-1-16-6-30-15-44 7 5 13 13 16 21 0 2 1 5 2 7 0-5-1-10-2-15-1-3-2-5-2-8l3 6c-2-7-4-14-8-21-1-2-3-5-4-6h0l-2-2 1-1c9 8 13 17 17 29l-1-18c2 4 3 10 3 15 1-2 1-5 1-7 0-5 0-10-1-15 0-7-4-13-8-20 4 3 7 7 10 11 2 5 4 10 5 15v-6c0-3 0-7-1-10-2-7-5-14-9-20l12 13c0-2-2-5-3-7-2-5-4-10-7-15-2-3-5-6-7-9 6 4 13 11 17 17 0 1 1 2 2 3-2-6-5-12-9-18 4 2 7 6 10 10-1-4-4-7-6-10l-12-18 15 9-10-13v-1h0-1v-1-1h0c1-1 1-2 2-2 0-1 1-2 2-3z" class="C"></path><path d="M479 312v1c0 4 7 10 10 13-4-2-9-5-13-7h0-1v-1-1h0c1-1 1-2 2-2 0-1 1-2 2-3z" class="E"></path></svg>