<svg xmlns="http://www.w3.org/2000/svg" xmlns:v="https://vecta.io/nano" viewBox="60 55 551 596"><!--oldViewBox="0 0 672 752"--><style>.B{fill:#040404}.C{fill:#1a1a1b}.D{fill:#272727}.E{fill:#444}.F{fill:#aeadad}.G{fill:#f5f4f5}.H{fill:#e1e0e3}.I{fill:#686868}.J{fill:#414042}.K{fill:#7f7f80}.L{fill:#121212}.M{fill:#585859}.N{fill:#eeedf0}.O{fill:#fffffe}.P{fill:#919192}</style><path d="M295 607c-1-1-1-1-1-2h-1c-1-2 1-5 1-6v-1l1 9zm-162-8c3 0 7 0 9 2h-1c-2 0-6-1-8-2z" class="D"></path><path d="M267 533s4-1 4-2l1 2-6 3c0-1 0-1 1-2v-1z" class="M"></path><path d="M302 538l-6-3c-2 0-3-1-5-2h1c3 0 8 2 10 4v1z" class="C"></path><path d="M200 594h9c3 0 6-1 10-1 0 0 2 0 2 1h0c-5 2-12 2-17 2-2 0-5 0-7-1h13 0c-3 0-7 0-10-1h0z" class="E"></path><path d="M342 595c1-1 0-2 1-3 1 1 2 2 2 3l1 1c1 1 1 2 2 3h0c0 1 0 1-1 1v2c-1 0-1 0-2 1 0-3-2-6-3-8zm-8 12h0l2 2h0l1 1c1 0 1 1 2 0l1-1v1c0 1-1 1-2 2l-1 1v1l-1 1c0 1-1 2-2 3l-1-1 1-1 1-1c0-1 0-2-1-3h-2 0l1-1v-1c1-1 1-1 1-2v-1zm-10-13h1v1 2c-1 0-1 1-1 2v1c-1 1 0 2 0 3h2 0c0 1 0 1-1 2s-1 1-2 3h0-1v1h-1l-1 1h0v-1l2-4h0v-1-1l1-1v-1-1h0v-1c0-1 0-1 1-1v-1-1-2z" class="C"></path><path d="M294 598c1-1 1-3 0-4-1-3 0-6 1-9 0 1 0 3 1 3v2l1 3c-1 2-1 4-1 6 0 3-1 5-1 8v4c0-1-1-1-1-2 0 0 0-1 1-2l-1-9z" class="I"></path><path d="M178 590c3 0 6 1 9 2 4 1 8 2 13 2h0c3 1 7 1 10 1h0-13c-6 0-12-2-18-4h-2l1-1z" class="J"></path><path d="M173 608c3 0 4 0 7-1 4-1 7-2 11-2v1c-3 0-6 0-9 2l-2 1c2 0 5 0 8-1h2c-2 1-5 3-7 3h-8c1-1 1-1 1-2-1 0-2-1-2-1h-1z" class="M"></path><path d="M271 531c5-1 7-1 12 0 1 0 2 0 3 1v1c-3-1-5-1-7-1h1 0c4 2 8 2 12 5-6 0-11-4-17-4h-3l-1-2z" class="E"></path><path d="M240 550v1c2 0 4-1 6-1s5-1 8-1c-2 1-5 1-8 2-5 2-9 3-15 2v-1h0 1c3 0 4-2 8-2z" class="G"></path><path d="M163 607l10 1h1s1 1 2 1c0 1 0 1-1 2s-3 1-5 2l-6 2c-1 0-2 1-3 1l-1-1c2-2 5-2 8-3 2-1 4-2 6-2l-11-2v-1z" class="I"></path><path d="M127 606c4-1 7-1 10-1 2 0 4-1 6-1 1 0 3 1 5 1l15 2v1l-14-2c-4-1-8 0-12 0-2 0-4 1-6 1-1-1-2-1-4-1z" class="K"></path><path d="M334 607h-2c-1 1-2 3-2 4 0-1 0-2 1-3v-1l-1-1h-1-1v-2h0v-1c0 1-1 1-1 2h-1c1-1 2-3 3-4v-4-5c1 3 1 5 2 8 0 1 1 2 2 3 1 0 1 0 1 1s-1 1 0 2v1h0 0z" class="G"></path><path d="M267 533v1c-1 1-1 1-1 2l-5 2c-1 0-2 1-2 0h-1c-2 1-4 2-7 2-1 0-1-1-2-1l-5 2 2-2c3 0 7-1 9-2l12-4z" class="K"></path><path d="M331 600v-1c1-2 1-3 2-4v-1-1-1l1-1v-1-10h1c1 7 1 16-2 23-1-1-2-2-2-3z" class="B"></path><path d="M285 585c0-1 1-2 1-2v-3l2-4c1-4 2-6 4-9 1-3 3-5 4-8 1-4 0-8 0-12 2 5 2 11-1 17-1 2-3 5-4 8-1 0-1 1-2 2 0 1 0 2-1 3v2s0 1-1 2c0 2 0 3-1 4h-1z" class="J"></path><path d="M117 626c-7 1-15 1-23 4-3 0-5 1-8 2-2 1-3 2-5 3-1 0-2 2-3 2 2-2 3-3 6-4l2-1c6-4 13-5 20-7 2 0 5-1 8-1h0c1 1 2 1 3 1v1z" class="N"></path><path d="M206 567h8l19 2h15c2 0 5-1 7-1v1h-1c-9 4-22 1-32 0-4 0-9 0-13-1-1 0-2 0-3-1zM72 606c1 0 1-1 2-1h0c6-1 12-1 18-1 4 1 8 1 11 1s5-1 7-1h8c-3 1-6 1-9 2H97c-4 0-9-1-13-1s-8 1-12 1z" class="H"></path><path d="M335 580c0-4-1-7-2-11h0c1 2 2 4 2 6 1 4 2 9 4 13v1l3 6c1 2 3 5 3 8h1l-1 1-1-2c0-3-3-8-5-11l-1-4c-1 3-4 16-3 17h-1c0-1 0-1-1-1 3-7 3-16 2-23z" class="K"></path><path d="M72 606c0 1-1 1-1 1h0-2c1-1 1-1 2-1h0l1-1 1-1c1-1 4-2 5-2h1c3-1 7-1 11-1h5s0 1 1 1c2 0 7-1 8 0v1h-3-3c-2-1-8 0-10 0 1 1 3 0 4 1-6 0-12 0-18 1h0c-1 0-1 1-2 1z" class="D"></path><path d="M160 615l1 1c-5 2-11 4-16 6l-18 3c-3 0-7 1-10 1v-1c-1 0-2 0-3-1h0 1c3 0 6 0 9-1 12-1 25-3 36-8zm18-51c2 0 3 1 4 2 2 1 4 1 6 2 7 2 14 2 21 5 5 1 9 4 14 6 3 2 6 3 10 4-1 0-3 0-4-1-7-1-13-5-19-7-11-4-22-4-32-11z" class="H"></path><path d="M107 561c-9-9-20-18-26-30-2-3-3-7-3-11h0c1 4 2 7 4 10 6 12 17 21 26 30 0 1 0 1-1 1z" class="O"></path><path d="M190 587h1 2 4c4 1 8 1 12 1 1 1 2 0 2 1h1 4c1 0 2 0 3 1l9 2c4 0 7 1 11 1h7l-1 1c-5 2-18-1-24-2-1-1-2 0-3-1h-2c-5-1-10-1-15-2-2-1-4 0-6-1h0-1-2c-1 0-1-1-2-1z" class="E"></path><path d="M200 569h7c2 1 5 1 8 2 6 2 11 4 17 5 5 1 9 0 14 0 3-1 7-1 10-3h0c2 0 4-1 5-2h1c1 0 1-1 2-1h1-1c-3 2-5 3-9 4-9 4-20 5-29 3-5-2-10-4-15-5-3-2-7-2-11-3z" class="H"></path><path d="M341 563c0-1-1-3-2-4l-5-8c-2-3-5-5-8-8l-6-6c-4-4-7-9-10-14l2 6v2c-1-1-2-4-2-5-1-2-2-5-4-6-1-3-4-4-6-6h1c2 0 3 2 5 3 6 6 10 13 15 19 7 8 15 14 20 23 0 2 1 3 1 4h-1z" class="I"></path><path d="M64 587c13-2 27 3 39 8h0c-3 0-6-2-10-2 8 3 16 6 24 8 1 1 1 0 1 1-2 0-5-1-8-1l-15-6c-5-2-10-5-16-6-5-1-11-1-16-1-2 0-5 1-7 1v-1l8-1z" class="H"></path><path d="M289 610v-3l1 1h0c2 0 2 0 3 1h1 0c0 1 1 1 1 2l1 1 4 1h0v3c2 1 3 0 5 1h1c-1 0-1 1-2 2 0 0 0 1-1 2h0c-1-1-3-1-4-2-1 1-1 2-2 3v-1c0-1 1-2 1-3l-6-3h0v-1s1 0 1-1c-1-1-2-1-4-1 0-1 0-1-1-1-2 2-2 5-3 8 0 0 0 2-1 3 0-1 0-2 1-3v-1c0-3 1-6 2-9 1 0 1 0 1 1h2-1z" class="G"></path><path d="M289 610v-3l1 1h0c2 0 2 0 3 1h1 0c0 1 1 1 1 2l1 1h-1c-2-1-4-1-5-2h0-1z" class="H"></path><path d="M335 604c-1-1 2-14 3-17l1 4c2 3 5 8 5 11l1 2c0 1-1 1-1 1-1 0-2 1-3 0v-2h0v2c-2 0-5-1-6-1z" class="L"></path><path d="M339 591c2 3 5 8 5 11l-2-1h-2v-1-3c-1-1-1-2-2-4 1 0 1-1 1-1v-1z" class="C"></path><defs><linearGradient id="A" gradientUnits="userSpaceOnUse" x1="190.752" y1="613.136" x2="192.341" y2="607.051"><stop offset="0" stop-color="#414243"></stop><stop offset="1" stop-color="#5b5858"></stop></linearGradient></defs><path fill="url(#A)" d="M237 599v1h-1c-6 2-12 5-18 6l-6 2c-4 0-10 0-13 3h-2c-4 1-9 0-13 1-2 1-3 2-5 2 0 0 0 1-1 1s-2 1-3 1l-1 1v-1c0-1 1-1 2-2 2-1 6-2 7-3 2 0 5-2 7-3h-2c1-1 2-1 3-1v1l-1 1c4 0 9-1 13-1 12-2 22-4 34-9z"></path><path d="M174 616v1c-8 3-17 7-26 9-14 4-30 3-44 10-3 1-6 3-8 5h-1 0c14-13 36-13 54-17 8-2 17-5 25-8z" class="H"></path><path d="M302 537c5 3 9 9 11 14 2 9-2 17-2 25 0 10 5 20 3 29 0 2 0 4-1 6-1 3-3 6-4 8h-1c2-5 4-9 5-14 1-9-3-20-3-29 0-8 3-16 2-23-2-7-4-11-10-15v-1z" class="I"></path><path d="M108 560c14 14 29 25 47 32l12 3 8 2 1 1h0c-5 0-10-2-14-3l-9-3c-4-1-7-3-11-5-11-5-20-11-29-19l-6-6v-1c1 0 1 0 1-1z" class="G"></path><path d="M263 596h0v2c-1 1-1 2-2 3h0v1l-3 3h0c-1 1-1 2-2 2 0 1-2 4-3 4l-3 3c-1 0-2 2-3 2l-3 3h-1c0 1-1 1-1 2l-4 2-1 1-2 2-5 4h0l-7 5c-1 0-1 1-2 1 0 1 0 1-1 1h0 0l1-1c1-1 2-2 4-3v-1l6-4 1-1h0c-1 0-2 1-3 1-1 1-3 3-5 3-1 1-2 1-3 2h-1 0l-2 2v-1c0-1 1-1 1-1l2-1 2-1 1-1 7-4h1c1-1 1-2 2-2l2-2c3-1 6-5 8-7 1-1 1-2 2-2l2-2c1 0 1-1 2-2 1 0 2-1 3-2 2-1 5-4 7-7 0-1 1-1 2-2l1-2z" class="B"></path><path d="M150 611v1h-2c-9 3-18 3-26 5h-1l-22 1c-5 0-10 0-15 1l-12 3c-2 1-4 2-5 2 3-4 14-6 19-7 9-1 18-1 27-2l18-1c6-1 13-1 19-3z" class="N"></path><path d="M131 607c2 0 4-1 6-1 4 0 8-1 12 0v1c-2 0-3 0-5 1h-3-2v1c-1 0-2-1-2 0h-3c-1 0-2 0-3 1-1 0-3-1-4 0h-3c-1 0-2 0-3 1-1 0-6-1-7 0h-11 1v-1c1-1 3-1 5-2 6-1 12-2 18-2 2 0 3 0 4 1z" class="B"></path><path d="M127 606c2 0 3 0 4 1l-27 4v-1c1-1 3-1 5-2 6-1 12-2 18-2z" class="H"></path><path d="M177 591c-1-1-3-2-5-2l-7-3c-13-6-27-12-38-20-10-7-18-16-22-26l-3-6h1v1c2 3 3 7 5 10 12 16 28 25 45 34 8 4 16 8 25 11l-1 1z" class="G"></path><defs><linearGradient id="B" gradientUnits="userSpaceOnUse" x1="302.263" y1="577.385" x2="292.255" y2="582.56"><stop offset="0" stop-color="#484648"></stop><stop offset="1" stop-color="#7a797a"></stop></linearGradient></defs><path fill="url(#B)" d="M295 585l1-10c1-2 1-4 1-6 1-2 1-5 1-7 1 6 1 12 0 19 0 1 1 3 0 5-2 5 2 12 3 17 0 3 0 7-1 10h0l-4-1-1-1v-4c0-3 1-5 1-8 0-2 0-4 1-6l-1-3v-2c-1 0-1-2-1-3z"></path><path d="M295 611v-4c0-3 1-5 1-8 0-2 0-4 1-6 1 4 2 7 2 11 1 3 1 6 1 9l-4-1-1-1z" class="B"></path><path d="M290 495c1 0 4 0 5 1 1 0 3-1 4 0h2c1 0 1 0 2 1h1c1 0 2 0 3 1h1 1l1 1h1 0c1 0 2 1 2 1 1 0 1 1 2 1l3 2h0c1 0 2 1 3 2 1 0 1 1 2 1l1 1c1 0 1 1 2 2 2 1 2 2 4 2 4 3 8 10 9 15v1h0v2h0l1 1 1 4v1c1 1 1 1 1 2h0c0 1 0 2 1 2v2 1l1 2h-1c-1-1-1-1-1-2s0-1-1-2l-1-2s0-1-1-1c0-1 0-1-1-2 0-1-1-1-2-2s-1-2-2-2c0-1-1-2-1-2l-4-4c-1 0 0 0 0 0l-3-3h1l1 1c2 1 5 4 6 5s0 1 1 1c2 2 4 5 5 7v1h1c-1-1-1-2-1-3-1-1-1-2-1-3l-1-2c0-1-1-1-1-2-2-4-3-7-6-10v-1c-1-1-1-1-1-2h-1c-1-2-4-5-6-6v-1l-2-1-4-2-4-2-3-2-3-1h-1-1c-1-1-1-1-2-1h-1-2c-1-1-2-1-3-1h-2c-1-1-3 0-4-1h-1v-1z" class="E"></path><path d="M136 551s2 3 3 4c3 2 5 5 8 8 9 7 19 11 30 14 13 4 25 5 38 6l15 3 10 1c1 0 3 0 4 1-10 0-19-2-29-3-11-2-21-2-32-4-17-4-36-12-46-28l-1-2z" class="N"></path><path d="M285 585h1c-1 2-1 4-2 5-1 3-2 5-3 7 1 1 2 1 3 3h0c1 0 2-1 3-2-1 2-1 3-1 5v1c1 0 2 1 3 1l1-2c0 1 0 3-1 4v3h1-2c0-1 0-1-1-1h-4c0-1 0-1-1-1-2 2-5 5-7 8-1 2-3 4-4 6h0 0c1-4 6-10 9-14 1-1 1-2 2-3l1-1c-1-1-3-1-5-2v-1c1 0 2 0 3-1h0c-1 0-3 0-4 1 0 0-1 1-1 2-2 2-3 5-5 7-4 5-9 9-13 13-2 2-4 5-7 7 0-3 15-17 17-19s4-4 5-6c2-2 3-5 4-7l1-1-3-3 2-2c2 1 2 1 3 3h1c2-3 3-6 4-9v-1z" class="O"></path><path d="M281 552h2 0c-1 1-3 1-4 2h-1-1l-2 2h-1 0c-1 0-1 0-2 1h-1 0l-1 1h-1-2c0 1 0 1-1 1h-2c0 1 0 0-1 0-1 1-1 1-2 1h-2c-1 1-1 1-2 1h-2-2c-1 1-3 1-4 1h-2c-1 1-3 0-4 0-1 1-2 1-3 1h-4c-1 1-2 0-3 0-1 1-5 1-6 1h0c-1 1-2 0-3 1h-4-2 0l4-1 1-1h1 0 1 2 0l1-1h2 1c1-1 1-1 2-1h2c0-1 1 0 1 0 1-1 1-1 2-1h2c1-1 2-1 3-1h2c0-1 1 0 3 0 0-1 0-1 1-1h3c1-1 1 0 1 0 1-1 2-1 3-1h2c1-1 2-1 3-1h2c1-1 2 0 3 0 1-1 0-1 1-1h3l1-1h2 0 2c1-1 2-1 3-1 0-1 0-1 1-1h2 0z" class="B"></path><path d="M66 520c-2-5-2-10-2-15 0-6 2-17 7-22-1 1-1 2-1 3-6 10-6 23-2 33 1 4 2 6 4 9 4 6 9 10 13 15 8 9 14 19 23 28 3 3 6 6 10 8 1 1 10 7 10 8v-1c-11-4-21-13-28-22l-15-18c-4-5-10-10-14-16-2-3-4-7-5-10z" class="G"></path><path d="M86 617h-3v-1c1 0 2 0 3-1h2c1-1 1-1 2-1h1 4c1-1 2-1 3-1h5c2-1 8 0 10 0 1-1 4-1 5-1h5c1-1 3 0 4 0 1-1 2-1 3-1h2c1-1 2-1 4-1h1 1 2c0-1 0-1 1-1h0 1 1c2 0 4 0 5-1 1 0 4 0 6-1 1 1 3 1 4 1-1 0-1 1-3 1h0c-1 1-3 1-5 2h0c-6 2-13 2-19 3l-18 1c-9 1-18 1-27 2z" class="B"></path><path d="M342 563c0 1 1 2 2 2h0l1-1c0-3-1-8-2-11l-6-9c-7-8-15-18-24-25-2-2-4-3-7-4 0-1-2-1-3-2 3 0 5 1 7 3 9 5 17 14 23 22 3 3 5 7 8 11h1s1 0 1 1h1 0l-1-1c1 0 1-1 0-2h0v-1-2h1v1 2l1 2s0 1 1 1h1l1 1 1 5 1 2c-1 2 0 4-1 6v1c-1 1-1 1-2 1l-1-1c-1 1-2 1-2 2v2l1-1s1 0 1-1v1c2 0 2 0 3-1h2 0v1c-1 2 0 5 1 7h0c-3-2-5-4-8-6v5c0 3 2 6 5 8 0 1 1 1 1 2l-2-2c-7-5-4-12-6-18l-1-1h1z" class="N"></path><path d="M343 544h1v1 2l1 2s0 1 1 1h1l1 1 1 5v3c-1 1-1 0-1 1s-1 3-2 3v-1c-1-1-1-6-2-8 0-2-1-3-2-5 0 0 1 0 1 1h1 0l-1-1c1 0 1-1 0-2h0v-1-2z" class="D"></path><path d="M150 612h2c1-1 2-1 2-1h2c1-1 2 0 2-1h5 1l1 1h0 2c1 0 1 0 1 1-3 1-6 1-8 3-11 5-24 7-36 8-3 1-6 1-9 1 1-1 3-1 4-1s1-1 2-1h2c0-1 1-1 1-1h2 2c1-1 1-1 2-1h1c1-1 2 0 3 0 0-1 0-1 1-1h1 0c1 0 2 0 3-1v-1h-2c-1 1-1 1-2 1h-1 0c-1 1-1 1-2 1h-2-1c-1 1-1 1-2 1h-1-4 2c1-1 0-1 1-1h2 1c1-1 2-1 3-1h1l2-1h1 3c1-1 1-1 2-1s2 0 3-1c1 0 3 0 4-1h2c1 0 1 0 1-1h2 0l-1-1c-1 1-2 1-3 1h-1 0l-1 1h-2-1 0-1c-1 0-1 1-1 1h-1-1-1c-1 1-3 1-5 1-1 1-2 0-4 0-2 1-3 1-5 1h-2-1 1c8-2 17-2 26-5h2z" class="B"></path><path d="M226 615h1c0 1-1 2-2 2 0 1-1 1-1 2-1 0-2 1-2 1l-1 1c-1 0-2 1-3 2l-2 1-2 1-1 1c-1 0-2 1-2 1l-4 1-2 1-1 1c-2 1-4 1-6 2s-4 2-6 2c0 0-1 1-2 1l-6 2-1 1c-1 0-2 0-2 1l-3 1h-1c-2 1-4 2-5 3-6 3-11 6-16 10-3 2-5 5-7 7 1-2 3-4 4-6 2-2 3-4 5-5 2-3 6-5 9-7l13-7 7-3 11-4 2-1 7-4h1l2-2h1l3-2h1c1-1 2-2 3-2h1l-2 1-3 3c-1 0-2 1-3 2h-1l-5 3h-1l-1 1h-1l-1 1s-1 0-2 1c0 0-1 0-2 1 0 0-1 0-1 1 0 0 1 0 1-1h1 2l7-4h1l2-1 4-2h2c0-1 1-1 2-2h1l4-3v-1h1c1-1 1-1 2-1v-1z" class="M"></path><path d="M66 520c1 3 3 7 5 10 4 6 10 11 14 16l15 18c7 9 17 18 28 22v1h1l1 1c3 1 6 4 10 5l2 1h0c1 1 2 1 3 1l5 3s1 1 2 1 2 1 3 1c0 0 1 0 1 1h-2c-2 1-3 0-4-1l-1-1h-2 0c-1 0-1 0-2-1-3-1-7-2-10-4h-1l-1-1h-1-1c-1-1-2-1-2-1h-1l-1-1c-1 0-2-1-3-1l-2-1-2-1c-1-1-2-1-3-2s-2-1-3-2v-1c0-1-1-1-1-1l-1-1h-1l-4-4-10-10-2-3-2-3-7-9c0-1-1-1-1-2l-2-2c0-1-1-1-1-2-1-1-2-1-2-2l-2-2c0-1-1-1-2-2 0-2-2-2-3-4h0c-1-2-2-3-3-4 0-1-1-1-1-2l-1-2c-1-1-2-3-2-5v-1h-1c0-2 0-2 1-2z" class="B"></path><path d="M237 599h0l9-4h1c1 0 2-2 4-2 5-2 9-8 15-10h0l-3 3c-3 2-5 6-9 7l-1 1c-4 1-8 5-12 7-1 0-2 0-3 1l-9 3c-3 1-7 2-11 4-2 1-3 2-4 3-5 3-11 7-16 9h-1l-2 1c-1 1-2 1-4 2 0 0-1 0-2 1h-2c-3 1-5 3-8 3-1 0-1 1-2 1h0l-7 2h-1 0l-1 1h-2l-2 1c-2 0-5 1-8 2v1c-4 1-8 3-11 4h-1l-2 2h-1v-1s1 0 1-1h1c1-1 1-1 2-1l1-1h1l4-2 2-1 2-1c1 0 2-1 3-1l3-1c1 0 2-1 3-1h1l1-1h3l1-1h1l5-2h2l2-1c1 0 3-1 4-1s0 0 1-1h1l4-1 1-1h2l4-2c6-3 13-7 19-11-5 1-12 1-17 3s-9 5-14 7c-1 1-3 1-4 2l-2 1-2 1h-3l-7 3c-1 0-1 0-2 1l-6 1-1 1h-2-2v1h-1-1-2c-1 1-2 1-2 1h-2-1s-1 0-1 1h-2-1c-1 0-1 0-2 1l-4 1h-1l-1 1-1-1c2-1 4-2 6-2l1-1h1 1l3-1 3-1h0 3l3-1h0l3-1h1c1 0 2 0 3-1h0 2l3-1c1 0 1 0 2-1h1l8-3 9-3c4-2 9-4 12-7h2c3-3 9-3 13-3l6-2c6-1 12-4 18-6h1v-1z" class="E"></path><path d="M335 604c1 0 4 1 6 1v-2h0v2c1 1 2 0 3 0 0 0 1 0 1-1l1-1c0 1 0 2 1 2 1 1 3 0 5 1 6 0 14 2 17 8 1 2 1 6 0 8-1 1-3 2-5 3-3 1-6 1-9 1-4 0-8-1-13-1-1 0-2 0-4 1v-1c-3 0-7 2-11 2-1-1-3-1-5-1h-1l-1 1h0v-1c-2-1-4-1-5-1-2 0-4-2-6-2-1 1 0 1-1 0-1 0-3-1-4-1l-1 1c0-1 1-1 0-2h0c1-1 1-2 1-2h4 0 1v1h1c1 0 1 1 2 1s1-1 2-1h0 0c0 1 0 1 1 2h2l1-1c1 1 0 1 0 1 1 0 1 1 1 1 1-1 2 0 3 0l1 1c1-1 2-1 4-1-1 0-1 0-1 1 1 0 4 0 5-1l1-1c3-1 5-4 7-6l-1-1h-1 0v-1-1l1-1c1-1 2-1 2-2v-1l-1 1c-1 1-1 0-2 0l-1-1h0l-2-2h0v-1c-1-1 0-1 0-2h1z" class="N"></path><path d="M336 609c1-1 1-1 3-1 0-1 0 0 1 0v1l-1 1c-1 1-1 0-2 0l-1-1zm10 0l1-1c4 0 7 0 10 1h0c-3 1-5 1-8 1-2 0-2 0-3-1zm17 8c1-1 3-1 5-1-4 1-7 2-10 3-2 1-4 2-5 2v1s1 0 2-1c2-1 6-2 8-2h1-1c-3 1-6 2-8 4h-6v-2c1-3 6-2 8-2 1-1 3-1 4-2s1 0 2 0z" class="B"></path><path d="M340 610l3-3v1h2l1 1h0c1 1 1 1 3 1-1 1-2 1-2 2 1 0 1-1 2-1 2 0 6 0 8 1h1 3l-2 2c2 1 5-2 6-1l-2 2v2c-1 0-1-1-2 0s-3 1-4 2c-2 0-7-1-8 2v2h-3-5-2-5c-1 1-2 0-3 0l1-1c3-1 5-4 7-6l-1-1h-1 0v-1-1l1-1c1-1 2-1 2-2z" class="I"></path><path d="M358 614c-2 1-7 2-9 2v-1-1c2 0 8-1 9 0h0z" class="B"></path><path d="M341 623c2-2 4-4 6-5h1 0c1 2 0 2 0 4h0c-1 1-2 1-2 1h-5z" class="L"></path><path d="M340 610l3-3v1h2l1 1-1 1-2 1c-2 0-4 2-6 4v-1-1l1-1c1-1 2-1 2-2z" class="B"></path><path d="M359 614c2 1 5-2 6-1l-2 2v2c-1 0-1-1-2 0s-3 1-4 2c-2 0-7-1-8 2v2h-3s1 0 2-1h0c0-2 1-2 0-4h1 1c0 1 0 1 1 0h1 1l1-1h2c1-1 1-1 2-1h1v-1h0l-1 1-1-1 1-1h0 1z" class="P"></path><path d="M334 623h-1c1-1 2-1 2-2l6-5v-3h1l1 1c-1 0-1 0-1 1l3-2h0c1 1 0 1-1 2h1 1 1v1l-8 7h-5z" class="C"></path><path d="M231 552h-1c-2-1-3 0-6 0-3 1-7 2-10 2 1-1 7-2 9-2 1-1 3-1 4-1-12-5-24-10-36-16-36-19-67-50-83-88-13-28-18-60-18-91 0-30 4-60 14-89 2-3 3-7 4-10 22-56 60-104 112-135 10-6 20-11 30-16 65-27 142-33 208-6 55 22 98 65 121 119 19 46 25 98 14 147-3 15-8 29-14 43-4 9-9 19-14 27-28 47-72 86-123 107-8 4-18 8-28 10 20 10 37 25 56 36 17 10 35 17 54 17 9 1 18 0 26-3 8-2 15-6 21-11 3-2 6-4 8-7 3-3 11-14 17-10 0 0 1 1 1 2 2 7-3 15-7 21-15 21-38 34-64 38-8 1-16 2-24 2-24-1-48-7-69-18-11-6-22-14-32-21-11-8-21-16-33-23l-11-6-6-3h0-2c-1 1-1 1-3 1v-1c0 1-1 1-1 1l-1 1v-2c0-1 1-1 2-2l1 1c1 0 1 0 2-1v-1c1-2 0-4 1-6l1 2h1v-3c0-2 0-5 2-6 0-3 0-4-1-6h1c1 2 3 4 4 5l-2-6 3 4c1-2 1-5 2-7h0c1 1 1 2 1 3h0 0c1-4 2-6 5-8l-2 6h1 1c0-1 0-3 1-5v-4-11c-1-4-1-7-2-11-1-7-3-13-5-19h1c2 6 4 11 5 17v-2c1-1 1-2 0-3v-1-1-1c0-1-1-5 0-6v3h0c1 8 2 16 4 24 0 3 0 6 1 9l1-1v6 1l-2 2v3c2 0 4-1 6-1 3-1 6-1 9-2h1c5-2 10-3 14-4 24-8 45-21 62-38 10-10 18-21 25-32 23-40 32-87 32-133 1-63-16-129-62-175-30-31-71-48-114-48-41 0-82 16-112 46-47 48-62 118-62 184 1 28 4 57 13 83 7 19 18 38 31 53 6 8 14 15 22 22 2-1 4-3 6-5 5-4 10-7 16-10 2-1 5-3 7-3h0c-1 1-3 2-4 2-8 4-14 9-20 14-1 1-3 2-4 3l2 2c2-1 4-3 6-4 4-3 8-5 12-7s9-4 14-5c1 0 2-1 3 0-3 1-7 2-10 3-7 3-13 6-18 10-2 1-4 2-6 4 0 1 0 1 1 1 1 1 1 1 2 0 3-1 6-4 10-5 6-4 12-6 19-8 1-1 5-2 6-2-3 2-6 3-9 4-10 4-20 8-28 15 1-1 3-1 5-2-1 1-2 2-3 4 4-3 8-6 12-8h1c-2 2-5 3-7 5-2 1-3 2-4 3h0 1 1c-1 2-3 4-4 6 3-1 5-2 7-3 3-1 5-2 7-3l-1 1c-6 4-10 8-15 13l22-11c1-1 2-1 3-1h1c1-1 3-2 4-2l4-1h1 3 0c0 1-1 1-2 1h-1c-1 1-1 1-2 1h0l-5 2-1 1c-1 0-1 0-2 1 0 1-4 3-5 3-8 5-14 11-20 18 5-3 26-14 29-14h1c-1 1-4 2-5 3-3 1-6 2-9 4-6 3-11 7-16 12 10-4 19-10 29-13 2 0 4-1 6-1 0 0-9 3-11 4-6 3-13 6-19 10l-2 2 5-2c1 0 1 1 2 1 3 0 5-1 7-2h1c-7 4-14 6-20 11l25-7h2l-1 1-25 7c-4 0-5 2-8 2h-1 0z" class="O"></path><path d="M266 510h1c1-1 3-2 4-2l4-1h1 3 0c0 1-1 1-2 1h-1c-1 1-1 1-2 1h0l-5 2-1 1c-1 0-1 0-2 1l-20 10c5-6 13-10 20-13zm101-1v-2c1-1 1-2 0-3v-1-1-1c0-1-1-5 0-6v3h0c1 8 2 16 4 24 0 3 0 6 1 9l1-1v6 1l-2 2v3h0-2-1v-3l1-12c0-6-1-12-2-18z" class="B"></path><path d="M372 531l1-1v6 1l-2 2v3h0v-2c-1-3 0-6 1-9z" class="F"></path><path d="M255 500c-4 2-8 5-12 8 1-2 2-3 3-4-2 1-4 1-5 2 8-7 18-11 28-15 3-1 6-2 9-4-1 0-5 1-6 2-7 2-13 4-19 8-4 1-7 4-10 5-1 1-1 1-2 0-1 0-1 0-1-1 2-2 4-3 6-4 5-4 11-7 18-10 3-1 7-2 10-3-1-1-2 0-3 0-5 1-10 3-14 5s-8 4-12 7c-2 1-4 3-6 4l-2-2c1-1 3-2 4-3 6-5 12-10 20-14 1 0 3-1 4-2h0c-2 0-5 2-7 3-6 3-11 6-16 10-2 2-4 4-6 5-8-7-16-14-22-22-13-15-24-34-31-53-9-26-12-55-13-83 0-66 15-136 62-184 30-30 71-46 112-46 43 0 84 17 114 48 46 46 63 112 62 175 0 46-9 93-32 133-7 11-15 22-25 32-17 17-38 30-62 38-4 1-9 2-14 4h-1c-3 1-6 1-9 2-2 0-4 1-6 1v-3l2-2v-1-6l-1 1c-1-3-1-6-1-9-2-8-3-16-4-24h0v-3c-1 1 0 5 0 6v1 1 1c1 1 1 2 0 3v2c-1-6-3-11-5-17h-1c2 6 4 12 5 19 1 4 1 7 2 11v11 4c-1 2-1 4-1 5h-1-1l2-6c-3 2-4 4-5 8h0 0c0-1 0-2-1-3h0c-1 2-1 5-2 7l-3-4 2 6c-1-1-3-3-4-5h-1c1 2 1 3 1 6-2 1-2 4-2 6v3h-1l-1-2-1-2-1-5-1-1h-1c-1 0-1-1-1-1l-1-2v-2-1l-1-2v-1-2c-1 0-1-1-1-2h0c0-1 0-1-1-2v-1l-1-4-1-1h0v-2h0v-1c-1-5-5-12-9-15-2 0-2-1-4-2-1-1-1-2-2-2l-1-1c-1 0-1-1-2-1-1-1-2-2-3-2h0l-3-2c-1 0-1-1-2-1 0 0-1-1-2-1h0-1l-1-1h-1-1c-1-1-2-1-3-1h-1c-1-1-1-1-2-1h-2c-1-1-3 0-4 0-1-1-4-1-5-1v1h-4c-2 1-4 0-5 1h-3c-1 0-1 0-1 1h-3-2c-1 0-1 0-2 1h-1c-1 0-1 0-2 1h-2 0c-1 1-2 1-3 1l-3 1c-2 1-3 2-5 2h-1c-2 1-3 1-4 1 2-2 5-3 7-5h-1z" class="L"></path><path d="M386 526c1-2 1-2 0-3 1 0 2 1 3 1v2l-1 2h-1c0-1-1-1-1-2z" class="C"></path><path d="M355 465c1 0 1 0 2 1h-1l4 6c-1-1-2-1-3-2h0c-2-1-2-4-2-5z" class="D"></path><path d="M385 518c-1-1-1-1-1-2v-4-1l1 1 1 5c-1 1 0 1-1 1z" class="B"></path><path d="M392 426c2 3 4 5 6 8-3-1-4-5-7-5h-1v-1c0-1 1-1 2-2z" class="F"></path><path d="M348 551v-1c1 0 1 0 1 1h0l1 1c1 1 1 2 1 3 1 1 0 3 0 5l-1-2-1-2-1-5z" class="B"></path><path d="M262 423c2-1 4-3 6-3h0c2-1 3-1 5-1-1 1-3 2-5 3-1 0-2 0-3 1h-3z" class="M"></path><path d="M380 517h0v6l1-1v-2h1v-1c1 1 1 2 1 3s-1 2-1 4l-1-1v-1l-1 1v1h-1c0-3 0-6 1-9z" class="B"></path><path d="M393 407c0 1 2 2 2 2 0 1 1 2 1 2s1 0 1 1v1c1 1 1 1 1 2v1h0c-1 0-2-1-3-2h0v-1c-1 0-1-1-1-1-1-2-2-3-1-5z" class="C"></path><path d="M381 525l1 1c0 2 0 3 1 5h1c1 2 1 6 3 8h-1c-1 0-1-1-1-1-2-1-2-2-3-3 1-2-1-7-1-10z" class="D"></path><path d="M262 423h3c-1 1-1 2-2 3l-1-1c-5 2-9 3-14 4 2-1 4-2 5-2l9-4z" class="I"></path><path d="M409 370h0c2 1 4-1 6-2h1c0 1 0 1-1 2 0 2-3 3-4 3h0l-1-1c-1 0-4-1-5 0h-1-2c1-1 2-1 3-1s2-1 4-1z" class="C"></path><path d="M391 361h4v1 2c1 0 2 1 3 2 1 0 2 0 2 1h1c1 0 4 1 5 0h0 2l1 1h-1c-2 1-5 1-7 0-2 0-6-2-7-4l-3-3z" class="D"></path><path d="M399 494c0 1 2 2 3 4 3 2 7 5 8 9-1-1-10-9-11-10-1-2-4-5-4-7 1 1 2 3 4 4z" class="F"></path><path d="M320 378c1 0 2 0 3-1h1c1-1 2-1 3-1l1-1h0 2c0-1 0-1 1-1h1 1l3-1h2l3-1c3-1 7-3 10-2h0c-1 1-5 2-7 3h-3-2v1h0-1-2 0-1l-1 1h-1-1l-2 1h-2l-1 1c-2 0-5 2-7 2v-1z" class="C"></path><path d="M395 468v1c1 1 5 3 5 4v2c1 1 3 4 3 5h-1 0l1 1c1 0 1 0 2 1l2 3c-2-2-5-3-7-5-2-1-2-3-3-5h1s0 1 1 1v-1c-2-2-3-4-4-6h0v-1z" class="F"></path><path d="M340 387c3 0 6 0 9 1 2 0 9 2 11 3l-1 1h-1c2 2 6 4 7 6 0 0-1-1-2-1l-3-3h-1c-7-5-16-7-24-5h0v-1h1c1 0 3-1 4-1z" class="J"></path><path d="M268 422c2 1 9-4 12-4l2 1-15 6c-3 1-6 3-9 4-1 0-2 1-3 1 2-2 5-3 8-4 1-1 1-2 2-3s2-1 3-1zm117 90l-4-29h0v1c1 2 2 5 3 8 1 8 1 17 5 24v1l-2 1v2l-1 1v-3h-1 0c1 0 0 0 1-1l-1-5z" class="K"></path><path d="M385 518h1v3l1-1v-2l2-1v-1c1 2 2 7 2 9l-3-5c0 1 0 3 1 4-1 0-2-1-3-1 1 1 1 1 0 3v-2h-1v3h-1v-2c-1 2 0 4 0 6h-1c-1-2-1-3-1-5s1-3 1-4l1-1h0c0-1 0-2 1-3z" class="F"></path><path d="M353 434c-1 0-1 0-1-1-1 0-1 0-2-1 0 0 0-1-1-1h0c-1-1-3-2-4-2-5-3-9-4-14-5-3-1-5-1-8-2 5-1 12 0 16 2l6 3 3 2 3 2s1 1 2 1c1 1 1 2 2 3 1 0 2 1 2 1l5 5v1 1c-2-2-4-4-5-6-1 0-2-1-2-2-1 0-1 0-2-1z" class="D"></path><path d="M375 529l1-1 1 1 1 1c-1 3-1 5 0 8v1 1l-1 1c-2 0-4 1-6 1v-3l2-2s0 1-1 1v1l1 1c1-1 1-4 1-6v-3s1-1 1-2h0z" class="B"></path><path d="M375 529l1-1 1 1 1 1c-1 3-1 5 0 8v1 1c-1-3-2-5-3-7 0 2 1 4 1 6h-1c0-2 0-3-1-5v-3s1-1 1-2h0z" class="F"></path><path d="M363 372l6-3c2 1 6 2 8 3 2 0 3 1 5 2h1c1 1 2 1 2 2h0c-1 0-2-1-3-1l-2-1s-1 0-1-1c-2 0-4-1-6-1h0c4 3 9 5 12 9l1 1c1 0 1 0 2 1h-1c-1 0-1-1-2-1 0-1-1-1-1-2h-1l-2-2h-1c-1-1 1 0-1-1-2-2-6-3-9-5h-7z" class="D"></path><path d="M353 434c1 1 1 1 2 1 0 1 1 2 2 2 1 2 3 4 5 6h0c0 1 1 1 1 1l1 1c0 1 0 1 1 1v1c1 1 2 3 3 4 1 4 3 8 4 12v1c-2-2-3-6-4-8-1-1-1-2-2-3l-2-3c0-1-1-1-1-2h-1c0-2-2-3-2-4l-1-1-1-2-1-1c-1-2-3-4-4-5v-1z" class="B"></path><path d="M385 381c-3-4-8-6-12-9h0c2 0 4 1 6 1 0 1 1 1 1 1l2 1c1 0 2 1 3 1h0 1l1 1 2 1 2 1c1 0 1 1 2 1h0c2 1 4 1 6 1 1 0 1 0 1 1 2 0 5 0 7-1l1 1h0c-1 1 0 1-1 1h-2-1s-3 0-4-1c-3 0-5-1-7-1-1-1-2-1-3-1l-1-1h-1 0c0 1 1 1 1 1l2 2h0c-2 0-3-1-4-1h0-2z" class="C"></path><path d="M360 458l8 13c6 9 12 23 11 35-1-2-1-6-3-8v2c-1-6-1-12-4-18-2-9-9-16-13-24h1z" class="K"></path><path d="M383 454h1c1 1 2 3 3 5 1 0 1 1 1 1l1 1v1h1v-1h0c1 1 2 3 3 4h0c1 1 2 2 2 3v1h0c1 2 2 4 4 6v1c-1 0-1-1-1-1h-1c1 2 1 4 3 5l-1 1c-3-4-6-8-8-13 0-1 0-2-1-2l-1-1v-1l-2-3-2-4c-1-1-1-2-2-3z" class="C"></path><path d="M333 384c-1 1-2 1-4 1l-7 2c-1 0-3 1-4 1h-1l-7 3-2 2c-1 0-2 0-3 1l-4 2-5 2-5 1c-1 1-1 0-2 1h-1 0v-1h1 0c1 0 2 0 2-1h1 1c1-1 1-1 2-1l6-3 11-5h0c1 0 1 0 2-1h0c1 0 1 0 2-1h2c2-1 4-2 6-2 2-1 4-1 5-2 1 0 1 0 1-1h3v2z" class="E"></path><path d="M273 419l24-7c5-1 9-3 13-3h0c-4 1-10 3-15 5h6c-2 0-4 1-6 1-5 1-9 2-13 4l-2-1c-3 0-10 5-12 4 2-1 4-2 5-3z" class="F"></path><defs><linearGradient id="C" gradientUnits="userSpaceOnUse" x1="348.076" y1="363.347" x2="355.676" y2="368.576"><stop offset="0" stop-color="#2e3031"></stop><stop offset="1" stop-color="#4e4b4a"></stop></linearGradient></defs><path fill="url(#C)" d="M358 364h2c7-1 13-5 19-6 3 0 7 0 9 2-10-2-19 2-28 5-6 2-14 4-20 4h-1c0 1-2 1-3 1h-1l-2 1h-1-1l-1-1h1 2c2-1 3-1 5-2 7-1 14-2 20-4z"></path><path d="M326 400h0-2 0l2-1h-5c-1 0-2 0-3 1h-2c-1 0-1 0-2 1h-1-1l-1 1h-1 0l-2 1-12 5-3 1c-1 0-1 0-2 1h-2l-1 1h-1c-1 0-2 0-3 1h-1-2l1-1h1s0-1 1-1h2 1c0-1 1-1 1-1l4-1h1l1-1c2 0 5-1 6-2 3-2 7-4 11-4l1-1h1c1 0 3-1 5-2 2 0 4 0 7-1h8v2c-2 0-5-1-7 1z" class="D"></path><path d="M359 458c-7-9-14-18-24-23-4-2-8-3-12-4h-3c2-1 4 0 6 0 4 1 9 2 13 4-3-2-6-4-10-6l2 1c2 0 4 1 6 3 10 6 17 16 23 25h-1z" class="F"></path><path d="M362 448c0-1-1-1-2-2 0-1-1-1-1-2l-8-8-2-1c-1-1-2-2-3-2l-1-1c-1 0-1-1-1-1-3-1-5-2-7-2l-12-4c-6-1-13-1-18 3h-2 0c2-2 5-4 7-4l4-1h5c1 0 2 0 3 1l13 3c2 1 5 2 7 3 1 1 2 1 2 2l2 1c1 0 1 0 2 1h0c1 1 2 1 2 2 2 1 3 2 5 4l1 1 1 2 1 1c0 1 2 2 2 4z" class="D"></path><path d="M385 403l3 3h0l2 3 1 1v-1c0-1 0-2-1-4h0 1l2 1v1c-1 2 0 3 1 5 0 0 0 1 1 1v1l-4-3c2 3 3 7 5 10l4 4v1l-4-4-3-3v-1c-1-1-2-1-3-2 0-1 0-2-1-3-3-3-6-5-8-8h0l2 2c1-1 2-1 3-1l-1-3z" class="H"></path><path d="M385 403l3 3h0c0 2 1 4 1 5-2 0-4-3-6-4 1-1 2-1 3-1l-1-3z" class="D"></path><path d="M328 487c1 0 2 1 2 1l2 1 2 2c1 0 1 1 2 2 2 1 6 5 8 7v1l1 1 1 1v1l3 3 1 2c4 5 6 12 7 18 1 1 1 4 1 5 2 3 1 7 1 10-1-3-1-7-2-10-1-5-2-10-4-14-1-3-2-5-4-7l-2-4-1-2c-1-1-2-2-2-3-1-2-3-3-5-5 0 0-1-1-2-1 0-1 0-1-1-1l-2-2-1-1-1-1-2-2c-1 0-1-1-1-1l-1-1z" class="J"></path><path d="M375 392c2 1 4 1 5 2s1 0 2 1l1 1 3 1h0c1 1 1 1 1 2 2 2 5 3 6 6v1l-2-1h-1 0c1 2 1 3 1 4v1l-1-1-2-3h0l-3-3h0c-1 0-1-1-1-1l-1-1s-1-1-1-2c-1 0-2-2-3-2-2-1-3-3-4-4v-1z" class="C"></path><path d="M353 545c-3-9-1-19-5-28-1-3-3-6-5-8-1-3-2-5-4-7-1-2-3-4-5-5-1-2-3-5-5-6h-1c0-1-1-1-2-2-1 0-1-1-2-1-1-1-2-1-3-1 0-1-2-1-2-2h0c1 0 0-1 1 0h2l1 1c1 1 2 1 3 2 2 1 3 2 5 3l4 4 3 3c1 2 2 3 3 4 2 3 3 6 5 9s3 5 4 9c1 2 2 5 2 7s1 5 1 7v5c1 2 1 4 1 6h-1z" class="E"></path><path d="M399 446c1 1 2 2 2 3-1 0-2-2-3-2l-5-6c-1-1-1-3-3-4v1c2 3 8 11 11 12 2 1 4 5 5 7h0l-4-5-1 1c-1 0-1-1-2-2l-1 1h0v-1-1l-1 1h-1c0-4-2-6-4-9-3-4-5-7-8-10h1 1 1c1 1 1 2 2 2h1l1 1v-1l1 1v-1c3 3 5 7 7 11v1z" class="F"></path><path d="M385 432h1 1c1 1 1 2 2 2h1l1 1v-1l1 1v-1c3 3 5 7 7 11v1c-2-3-5-8-8-9-2-1-4-3-6-5z" class="C"></path><path d="M358 364c2-2 4-2 6-3 7-4 15-7 23-4 4 1 7 3 11 4h1l-1 1h-3v-1h-4c-1 0-3 0-3-1-2-2-6-2-9-2-6 1-12 5-19 6h-2zm-59 78c-5 0-13 1-18 3l-4 2h-2l-1 1-4 2c-2 1-5 2-7 4l-2 1c-1 0-2 1-2 1l-1 1c-1 0-1 1-2 1-1 1-2 2-4 3h0l-1-1 2-1 2-2c1 0 2-1 4-2 2-2 4-3 6-4 7-4 15-8 23-9 3-1 8-1 11-2s9 0 13 1l-3-1-1 1v1c-2 0-3 0-4-1-1 0-3 0-5 1z" class="J"></path><path d="M379 506c1 4 1 7 1 10v1c-1 3-1 6-1 9h1v-1l1-1v1c0 3 2 8 1 10 1 1 1 2 3 3 0 0 0 1 1 1-3 1-6 1-9 2l1-1v-1-1c-1-3-1-5 0-8l-1-1c2-2 1-4 1-6v-12h0c2-1 1-3 1-4v-1z" class="K"></path><path d="M378 530h0c0 1 1 1 1 2s1 1 2 2h0c0-1-1-2 0-3 0 1 1 2 1 4 1 1 1 2 3 3 0 0 0 1 1 1-3 1-6 1-9 2l1-1v-1-1c-1-3-1-5 0-8z" class="L"></path><path d="M359 400h-1l-6-3-3-1c-7-3-14-5-21-5s-16 3-23 7l-2 1-3 1-3 1c-3 2-5 2-8 3-1 1-1 1-2 1h0l-1 1v-1c0-1 2-2 3-2l2-1c1 0 1 0 2-1l2-1 4-1 2-1 1-1 3-1h1c6-3 14-6 21-6 8 0 15 2 22 4l6 3c2 1 3 2 5 3h-1z" class="E"></path><path d="M370 480v1l3 8c0 1 0 2 1 2v-2l-1-1c0-1-1-3-1-4v-2h0c3 6 3 12 4 18v-2c2 2 2 6 3 8h0v1c0 1 1 3-1 4h0v12c0 2 1 4-1 6l-1-1c0-7-1-15-1-22-1-3-1-5-1-8-1-6-2-12-4-18z" class="B"></path><path d="M376 500v-2c2 2 2 6 3 8h0v1c0 1 1 3-1 4h0l-2-11z" class="P"></path><path d="M255 500h1c0-1 1-1 1-1h1l2-1 3-2h1l1-1c2 0 3-1 4-2h1c1 0 2 0 3-1h0 2c1-1 2-1 3-1l1-1s1 1 2 0h1 0c1-1 2 0 4 0 0 0 0-1 1-1h3c1 0 4 0 5 1h0-8c-1 1-1 1-2 1h-3 0c-1 0-1 0-2 1-1 0-3 0-4 1h-1-1c-1 1-1 0-1 1h-2 0c-2 1-4 1-5 2h-1l-1 1c-1 0-1 1-2 1s-1 1-2 1h-1c-1 0-1 1-1 1h-1v1h0 2c2-1 4-2 6-2h0c1-1 2-1 2-1h3c0-1 0-1 1-1h2c1-1 1 0 2 0 1-1 1-1 2-1h3c1-1 2 0 3 0 1-1 5-1 7-1v1h-4c-2 1-4 0-5 1h-3c-1 0-1 0-1 1h-3-2c-1 0-1 0-2 1h-1c-1 0-1 0-2 1h-2 0c-1 1-2 1-3 1l-3 1c-2 1-3 2-5 2h-1c-2 1-3 1-4 1 2-2 5-3 7-5h-1z" class="C"></path><path d="M315 413h12 1 1c2 0 8 2 9 3h-2c-1 1-4 0-6-1-2 0-4-1-7-1-4 0-9 0-13 2l-17 4-6 1c-2 1-5 2-7 3h-1c-1 0-3 1-5 1 0 1-1 1-1 1l-2 1h-1l-1 1h-1c-2 1-3 1-5 2h-1-1v1l-1-1h0l5-2 8-4c1 0 3 0 4-1s3-1 4-1c0-1 1-1 1-1 6-2 11-2 16-4 6-1 11-3 17-4zm45-13l6 3c3 2 7 5 10 6-1-2-4-3-5-4 1 0 3 1 4 1 3 3 7 5 11 7 0 0 1 1 2 1 0 0 0-1 1-1 1 1 1 2 1 3 1 1 2 1 3 2v1 1c1 2 3 4 4 5v1l-1-1c-1 0-1-1-2-1-1-1-2-1-3-2l4 4v1l-1-1-1-1-2-1c-1 0-1 0-2-1h-1c-1-1-1-2-2-2l-2-2h0 3c0 1 1 1 2 2h0l1 1h1 0l-1-1h0s-1 0-1-1c0-2-1-3-3-4l-27-16h1z" class="J"></path><path d="M326 400c2-2 5-1 7-1 12 3 21 10 31 16l19 9c3 2 5 4 7 5-3-5-8-8-14-12h1c2 1 5 2 7 4 2 1 3 2 5 3 1 1 2 2 3 2-1 1-2 1-2 2v1h1c1 1 1 2 2 2l2 2-1 1-1-2h-1l3 4c2 2 3 5 5 8 1 2 3 3 3 5l-4-4c-2-4-4-8-7-11l-6-6c-7-6-17-9-24-14-8-4-16-10-25-13-4-1-7-1-11-1z" class="P"></path><path d="M333 382l21-4c3-1 5-1 8-1 2 1 4 1 6 2 0 0 1 1 2 1v1l7 4 3 2c1 1 2 1 4 2l4 3s1 1 2 1l-1 1c-1-1-2-1-3-2l-4-2-3-2c-1-1-3-2-4-3-1 0-3-2-4-3s-4-2-6-3h-1 0c-3-1-11-1-13 0l-1 1h-1l-10 2h-1v1c1 0 2 0 4-1h6c1 1 2 0 3 1 1 0 2 0 4 1h1c1 0 2 1 3 1l6 2 1 1c1 0 2 0 2 1h2l1 1h1l1 1s1 0 2 1h0v1l-3-2h-1l-1-1h-2c-1 0-1-1-2-1l-9-3h-1c-2-1-4-1-6-2-1 0-2 0-2-1-5-1-10 1-15 1v-2z" class="D"></path><path d="M383 477h1v1c1 0 1 1 2 2l2 5v-2c0 2 1 3 1 4l1-1c-1-1-1-1-1-2v-1-1c-1-1 0-1-1-1v-2-2h0c1 1 2 3 2 5h0l1 1v2 1s0 1 1 1v1h0v1c0 1 0 1 1 2h0c0 1 0 1 1 2l1 2c0 1 1 1 1 1 1 2 3 3 4 4 1 2 0 1 0 1l2 2v1h-2v-1 2s0 1 1 1c0 1 1 1 1 2v1l-2-2-1-2-1-1-2-3h0l-1-1s0-1-1-1c-1-1-1-2-1-3l-2-2v1 1c1 2 1 4 2 5l2 5h0l2 3h-1-1s-1-2-1-3c-1 0-1-1-1-1 0-1-1-3-2-4v-2-1c-1-1-1-2-2-3h0v-2c-1-1-1-1-1-2s-1-2-1-3c-1-1-1-2-1-2v-1l-1-1c0-2-1-3-1-4l-1-1v-2z" class="C"></path><path d="M361 538h0v-3h0v-6c-2-3-1-7-2-10-1-5-4-9-6-14-2-3-3-6-6-9v-1c-1-1-1-1-1-2-1 0-2-1-2-1 0-1-1-2-2-3s-2-2-3-4h-1c-1-2-3-3-4-4l-2-2h-1l-2-2c-1 0-1-1-2-1 0 0-1-1-2-1l-1-1c-1-1-3-1-4-2h0-2-1c-1-1-2-1-3-1h-3c1-1 1-1 2-1h2 1c1 1 2 0 3 1h1c1 0 1 0 2 1 1 0 2 0 2 1h1l3 2h1l1 1 1 1c1 1 2 2 3 2 2 1 3 3 5 5l1 1c1 2 2 2 3 3 1 2 3 4 4 5 1 3 3 5 5 7 3 6 6 14 9 21 1-3 1-8 1-11-1-1-1-2-1-3-1-1 0-2 0-3v-1h0c1 1 1 2 1 3v1c0 1 0 1 1 2v4c0 2-1 5 0 7 0 1 1 4 0 5v5c-1 2 0 2-1 4h0v2h0c0 1-1 2-1 2zm2-166l-24 6-12 3c-4 1-9 3-13 5l-6 3c-1 1-2 2-4 2-3 2-6 3-9 4h-1c-1 0-3 0-4 1h-1-5v-1h2c2 0 3 0 4-1h2l2-1 4-1h1l3-1 2-1c3-2 7-4 10-6h1c2-1 5-2 8-3 5-2 11-2 16-4l18-5c6-2 11-5 17-5 2 0 4 1 5 2 5 2 12 4 16 7l-1 1-14-7c-4-2-7-1-11-1l-6 3z" class="E"></path><path d="M320 379l-2 1-1 1c-1 0-1 1-2 1l-1 1c-1 1-3 1-4 2l-1 1h-1c-1 1-1 1-2 1-1 1-3 2-5 2l-3 1c-2 1-3 1-5 1l-1 1h-3-1c-2 0-4 1-6 0l-7-1c6-2 13-2 20-4h0 1 2s1 0 1-1c1 0 3 0 4-1h0l1-1 2-1c1 0 1 0 2-1s2-1 3-1l1-1c1-1 2-2 3-2 0-1 1-1 2-1 0-1 0-1 1-1s0 0 1-1l3-1h0 2c-1 0-1 1-1 1l-4 2c-1 0-1 0-2 1h0-1c-1 1-1 1-1 2h2 0l1-1c1 0 2 0 2-1v1z" class="D"></path><path d="M395 490c0-1-1-2-1-3-1-2-1-5-2-7v-1c0-1 0-2-1-3v-1c0-1 0-1-1-2v-2c0-1-1-2-1-3l-1-1h0l-2-5-1-2s0-1-1-2l-1-3s0-1-1-1c-1-1-2-2-2-4h0l1 1c1 1 2 2 2 3 1 1 1 2 2 3l2 4 2 3v1l1 1c1 0 1 1 1 2 2 5 5 9 8 13 1 3 4 5 6 6v1h0 0c-2-1-3-1-5-2 1 2 3 4 3 5v2h1v1c-2-1-2-2-3-2s-1-1-1-1l-1 1h0v2c-2-1-3-3-4-4z" class="B"></path><path d="M390 466c1 0 1 1 1 2 2 5 5 9 8 13 1 3 4 5 6 6v1h0 0c-2-1-3-1-5-2 1 2 3 4 3 5-3-2-7-6-7-10h0v-1c-1-1-1-3-2-4l-4-10z" class="F"></path><path d="M299 442c2-1 4-1 5-1 1 1 2 1 4 1v-1l1-1 3 1c3 1 7 2 10 3 3 2 5 4 8 5 6 5 11 9 16 14l6 6c1 2 2 3 4 5 5 6 10 12 12 20v6c1 2 1 5 2 7l2 13c0 3 1 5 1 8v2l-1 1c-1-3-1-6-1-9-2-8-3-16-4-24 1-2 1-4 0-6-3-6-7-11-11-17-8-9-16-17-26-24-3-2-7-4-11-6-1-1-2-2-3-1 4 2 8 4 11 7h0c-3-1-5-2-8-4-6-3-12-4-20-5z" class="M"></path><path d="M354 460l-3-3v-1c7 4 12 12 15 18 1 1 3 6 4 6 2 6 3 12 4 18 0 3 0 5 1 8 0 7 1 15 1 22l-1 1c1-7 0-15-2-22-3-13-6-25-13-35l-4-6h1c-1-1-1-1-2-1 0 0-1-1-1-2l-2-2h1 0l1-1z" class="I"></path><path d="M354 460c8 7 13 16 16 26 1 3 2 6 2 10h0c-1-2-1-5-2-7-3-8-8-17-13-23-1-1-1-1-2-1 0 0-1-1-1-2l-2-2h1 0l1-1z" class="C"></path><path d="M361 503v-3-1l-1-3h0c0-1 0-1-1-2v-1-2h-1c0-1 0-3-1-4h0l-1-2v-1l-1-1v-1c1 0 2 1 2 3l1 1v1c1 1 1 2 2 3h0c0 1 1 1 1 2 2 6 4 12 5 19 1 4 1 7 2 11v11 4c-1 2-1 4-1 5h-1-1l2-6c-3 2-4 4-5 8h0 0c0-1 0-2-1-3v-3s1-1 1-2h0v-2h0c1-2 0-2 1-4v-5c1-1 0-4 0-5-1-2 0-5 0-7v-4c-1-1-1-1-1-2v-1c0-1 0-2-1-3z" class="B"></path><path d="M401 346h1 0c3-1 6-4 7-6h1c-3 4-6 6-10 8-2 1-5 1-7 2-3 0-6-1-9 0h-5c5 1 9 3 14 6v1c-2 0-3-1-4-2-6-3-12-4-18-3-5 1-10 5-14 8-1 1-3 2-5 3v-1c1 0 1-1 2-1 5-3 9-8 15-10 1 0 1 0 2-1-3 0-6 2-8 3-3 1-6 2-9 4-4 1-7 4-10 6l-1 1h-2c-1 1-2 1-4 2l-8 3c-2 0-3 0-4 1l-8 4-6 3-1 1c-2 1-3 1-4 2h-2v1h-1-1v-1h1l1-1h2l6-3c0-1 1-1 1-1 1-1 3-2 4-3h0l6-3h1l1-1h1l3-1h0l1-1c1 0 2 0 3-1h2c1-1 2-1 3-1h0c1 0 1-1 2-1 5-2 8-5 13-7 4-3 10-5 16-6 1-1 3-1 4-1 3 0 5-1 8-1 7 0 14 1 20-2z" class="J"></path><path d="M343 326c5 5 9 12 17 12 5 1 11-1 16 0 5 0 10 3 14 2 3 0 5-1 7-2-1 2-2 2-4 3h1c1-1 2 0 3 0-6 3-11 1-17 0h0c-5-1-11-1-15 0-3 0-7 0-10-1-1 0-2-1-2-1-2-1-3-1-5 0h-2c-2 0-3 1-5 2h-1l-1 1v-1c0-1 1-1 1-1l1-1v-1h-1-1 0l-1-1h1v-1l-1-1v-1-1-1-2h0c1 0 1-1 0-1h-1v-1l2-2h2v1l1-1h1z" class="G"></path><path d="M375 392h0c-1-1-2-1-2-1l-1-1h-1l-1-1h-2c0-1-1-1-2-1l-1-1-6-2c-1 0-2-1-3-1h-1c-2-1-3-1-4-1-1-1-2 0-3-1h-6c-2 1-3 1-4 1v-1h1l10-2h1l1-1c2-1 10-1 13 0h0 1c2 1 5 2 6 3s3 3 4 3c1 1 3 2 4 3l3 2 4 2c1 1 2 1 3 2l11 7v1h-5c-2-1-5-4-7-5-1-1-1-2-2-2 1 2 4 4 6 5s3 2 4 4h-1c-2 0-5-4-7-5h-1c0-1 0-1-1-2h0l-3-1-1-1c-1-1-1 0-2-1s-3-1-5-2z" class="L"></path><path d="M325 363c-5 3-9 4-14 4 3-1 6-1 9-3 3-3 5-6 8-8 2-2 4-3 6-5 3-5 0-18 1-24 0-2 1-3 2-4 3 0 4 1 6 3h-1l-1 1v-1h-2l-2 2v1h1c1 0 1 1 0 1h0v2 1 1 1l1 1v1h-1l1 1h0 1 1v1l-1 1s-1 0-1 1v1l1-1h1c2-1 3-2 5-2h2c2-1 3-1 5 0 0 0 1 1 2 1 3 1 7 1 10 1h-1l-1 1h0v1c-5 1-10 3-14 4-7 3-13 4-18 10l21-8h0c-1 1-2 1-3 2-3 1-6 3-10 4-3 1-8 3-11 5 0 0 1 0 2-1 2 0 4-1 6-2l-11 6z" class="O"></path><path d="M346 339h2c2-1 3-1 5 0 0 0 1 1 2 1 3 1 7 1 10 1h-1l-1 1h0c-5 1-8 2-12 4-5 2-11 3-16 5 4-4 11-8 16-10h3 0c-1-1-3 0-5 0h-1l-10 6-1-1c1-2 2-3 4-4l5-3z" class="B"></path><path d="M254 437l3-2c1 0 2-1 3-1h0l2-1c1 0 1-1 2-1l7-3c8-4 18-5 26-6 3-1 6-1 9-1 6-2 11-4 16-4 11-1 24 1 34 7l3 3c4 3 7 7 10 11 0 0 0 1 1 1l1 3-1 1s0-1-1-2c0 0 0-1-1-1l-2-4c-2-4-6-7-10-10h0c-5-3-12-6-17-7s-9-1-13-1c-3 0-6 0-9 1-3 0-6 2-10 3-2 0-5 1-7 2-9 2-16 6-24 11-2 1-4 2-6 4l-9 6c-1 0-2 1-3 2-1 0-1 0-2 1l-1 1c-1 0-1 1-2 1l-5 4h-1c-1 1-1 0-1 0h0c1-1 1 0 1-1l5-4c3-1 5-4 7-5l3-2h1v-1h1c2-1 3-3 5-3l1-1 2-1c2-1 3-2 5-3h-2-1 0c-1 0-1 1-2 1l-7 4h0c-1 0-1 0-1 1l-3 1h0v-1l1-1h1s0-1 1-1l4-2s1 0 1-1h0-2 0l-1 1h-1-1c-1 1-2 1-3 1-1 1-1 1-2 1h0-2c-1 1-1 1-2 1h-1l-1-1h-1c0-1 1-1 2-1z" class="E"></path><path d="M254 437h0 2l3-1c1 0 1-1 2-1l3-1c2-1 4-2 7-3h0l1-1 9-3c5-2 11-3 17-3-6 2-11 4-16 7-2 1-3 2-5 3h-2-1 0c-1 0-1 1-2 1l-7 4h0c-1 0-1 0-1 1l-3 1h0v-1l1-1h1s0-1 1-1l4-2s1 0 1-1h0-2 0l-1 1h-1-1c-1 1-2 1-3 1-1 1-1 1-2 1h0-2c-1 1-1 1-2 1h-1l-1-1h-1c0-1 1-1 2-1z" class="C"></path><path d="M412 351v4l1 1v2l3 6c3 7 3 17 1 25v1l4-1h2c-3 1-6 1-8 3 3 0 12-2 14-1-1 1-2 1-3 1-3 0-9 0-11 2l1 1h20 0-14c-3 0-6 0-9 1 2 1 3 1 5 2 5 1 10 1 14 4h0c-2 0-4-1-5-2-4 0-7-1-10-2h-4s-2 1-2 2c-1 0-1 0-1 1 1 1 4 1 5 2 3 1 5 2 8 4 2 1 3 2 5 4-5-3-10-6-15-8-2-1-3-1-5-1-1 0-1 0-2 1 1 1 3 2 5 4 4 2 8 6 11 10-2-2-6-6-8-6-4-3-6-6-9-7-3 0-8 1-9 3l-1 2s-2-1-2-2v-1-1c-1-3-4-4-6-6h1c2 1 5 5 7 5h1c-1-2-2-3-4-4s-5-3-6-5c1 0 1 1 2 2 2 1 5 4 7 5h5v-1l-11-7 1-1c3 2 7 5 11 6 1 1 2 1 3 1 2 0 3 0 4-1-1-1-3-1-4-2 2 0 4 1 6 1v-1c-3 0-6-1-9-3 2 1 5 2 7 2s3-1 4-2v-1h-1v-1h2 0v-1h-1 0c1-1 2-1 2-2h0l-6-1c3 0 6-1 7-3v-1c-3 1-5 1-9 1 1 0 5-1 7-2 1 0 2-1 2-2h0l-7 1h0c-1-1-1-1 0-2h0-3v-1l3-1h2c2-1 4-2 6-4h0c-3 0-6 1-9 1h-1l5-2h0c1 0 4-1 4-3 1-1 1-1 1-2h-1c-2 1-4 3-6 2h0c2-1 3-2 5-4h-1c-1 1-3 1-4 2l-1-1c2-1 3-3 5-4-2 0-4 0-5 1l1-2c1-1 2-1 2-3h-1-3c2-1 4-2 4-4v-1l-6 3c3-2 5-3 7-6h0z" class="G"></path><path d="M410 378h0c2 0 5-1 7-2-2 2-6 5-9 6h0c-1-1-1-1 0-2h0-3v-1l3-1h2z" class="C"></path><path d="M397 338c4-4 9-7 14-11 2-1 4-3 7-4v1c1 11-3 21-5 32l-1-1v-4c0-1 0 0-1-1l-1 1c-1 0-1 0-2 1h0-1-1c-3 0-6 1-9-1-2 0-3 0-4-1 2-1 5-1 7-2 4-2 7-4 10-8h-1c-1 2-4 5-7 6h0-1c0-1 1-2 2-3h-1s-1 1-2 1-2 0-3 1h-1l-1 1h-2c-2 1-8 0-10 0h0c1-1 1-1 2-1-1-1-2-1-3-1l1-1h-1-1l-1-1h-3l1-1h-1 3 0c6 1 11 3 17 0-1 0-2-1-3 0h-1c2-1 3-1 4-3z" class="O"></path><path d="M410 340l6-6c-1 4-2 6-5 9h0 0c1 0 2-1 3-1h0c-2 2-4 4-6 5h0c-1 1-1 0-1 1h-4-3 0c4-2 7-4 10-8z" class="B"></path><path d="M409 348h0c2-1 4-3 5-4-2 3-2 4-5 6l1 1c-1 0-1 0-2 1h0-1-1c-3 0-6 1-9-1-2 0-3 0-4-1 2-1 5-1 7-2h0 3 4c0-1 0 0 1-1h0l1 1z" class="C"></path><path d="M409 348h0c2-1 4-3 5-4-2 3-2 4-5 6h-1-1l-1 1h-6v-1c2-1 4 0 6-1h1s1 0 1-1h1z" class="B"></path><path d="M398 343h1c4-4 7-8 12-11-1 3-5 5-5 8h0c2-1 4-3 5-5 2-2 3-4 5-6-1 4-4 8-7 11-1 2-4 5-7 6h0-1c0-1 1-2 2-3h-1s-1 1-2 1-2 0-3 1h-1l-1 1h-2v-1h0c1-1 3-1 4-1 0-1 0-1 1-1z" class="E"></path><path d="M397 341v-1c3-1 7-5 9-7h1c-3 4-6 7-9 10-1 0-1 0-1 1-1 0-3 0-4 1h0v1c-2 1-8 0-10 0h0c1-1 1-1 2-1-1-1-2-1-3-1l1-1h-1-1l-1-1h-3l1-1h-1 3 0c6 1 11 3 17 0z" class="L"></path><path d="M365 341c4-1 10-1 15 0h-3 1l-1 1h3l1 1h1 1l-1 1c1 0 2 0 3 1-1 0-1 0-2 1h0c2 0 8 1 10 0h2l1-1h1c1-1 2-1 3-1s2-1 2-1h1c-1 1-2 2-2 3-6 3-13 2-20 2-3 0-5 1-8 1-1 0-3 0-4 1-6 1-12 3-16 6-5 2-8 5-13 7-1 0-1 1-2 1h0c-1 0-2 0-3 1h-2c-1 1-2 1-3 1l-1 1h0l-3 1h-1l-1 1h-1l-6 3h-1c0-1 0-1 1-2h1l2-1v-1c1 0 2 0 3-1h1c1-1 2-1 3-1v-1h2c0-1 0-1 1-1h1v-1h-1c-1 0-2 0-2 1h-1c-1 0-1 0-2-1l11-6c-2 1-4 2-6 2-1 1-2 1-2 1 3-2 8-4 11-5 4-1 7-3 10-4 1-1 2-1 3-2h0l-21 8c5-6 11-7 18-10 4-1 9-3 14-4v-1h0l1-1h1z" class="B"></path><path d="M365 341c4-1 10-1 15 0h-3 1l-1 1h3l1 1h1 1l-1 1h-4c-1-1-4 0-5 0h-3-2l-1 1h-2 0-1 0 0c1-1 1-1 2-1h0c1 0 2-1 2-1v-1h-1c-1 1-2 1-4 1v-1h0l1-1h1z" class="D"></path></svg>