<svg xmlns="http://www.w3.org/2000/svg" xmlns:v="https://vecta.io/nano" viewBox="60 40 631 628"><!--oldViewBox="0 0 728 752"--><style>.B{fill:#f7f6f7}.C{fill:#fffffe}.D{fill:#f0eff1}.E{fill:#020202}.F{fill:#e2e1e3}.G{fill:#f8f8f8}.H{fill:#0a0909}.I{fill:#747375}.J{fill:#626263}.K{fill:#909091}.L{fill:#2e2f2b}.M{fill:#525254}</style><path d="M345 504h1v6c1-1 0-2 1-3v6h-1l-1-2v-7z" class="K"></path><path d="M466 588v-6h0c0 1 1 2 1 3v10c-1-2 0-5-1-7z" class="B"></path><path d="M362 404c1 1 1 3 2 4l1 2h-1-1c-1-1-1-3-2-5l1-1z" class="D"></path><path d="M370 394h1c0 2 1 5 0 7v2h-1v-4-5zm68 229v-1 1 2h0v1c0 1-1 3-1 4 1 0 1-2 2-2v-1l1-1h1c-2 2-3 4-4 7h-1l-1-1 3-9z" class="H"></path><path d="M364 503v-1h1v2l-1 10-1 1h0v-4c0-2 1-5 1-8zm-51 53l-2 6h0-1v-1c1-1 1-3 1-4v-5-4-1c-1-3-3-6-3-9h0c1 1 1 3 1 4 1 1 2 2 2 4v1l1 2v1h0c0 2 0 4 1 6zm34-43c0 5-2 11-5 15l3-17 1 2h1z" class="I"></path><path d="M387 438l-17-3c3-1 7 0 10 0 1 0 3 1 5 1h1 1v2z" class="F"></path><path d="M383 354c2 1 5 5 6 8 1 0 1 1 0 1h0l-7-8 1-1z" class="G"></path><path d="M316 351c4 0 7 1 10 2-4 0-8-1-12 0h0c-3 1-6 2-9 2 1 0 2-1 3-1 3-1 6-2 8-3z" class="F"></path><path d="M302 630l16 2-2 1h0 0v1l-18-3h1c1 0 2 0 3-1z" class="D"></path><path fill="#9c9d9e" d="M345 504l-3-17c2 4 4 8 4 12 1 3 1 5 1 8-1 1 0 2-1 3v-6h-1z"></path><path d="M466 573h1c1 2 2 4 2 6 1 5 1 11 0 16l-2-12c1-3 0-7-1-10z" class="B"></path><path d="M376 367c1 0 1 1 2 1l3 1c-8 0-16 1-24 4h-1c6-3 12-4 20-6z" class="J"></path><path d="M388 382v4c-1 2 0 4-1 5 0 2 0 3-1 5v1l-1 1h0c-1 0-1-1 0-2h0c1-3-1-7 0-10 1-1 1-2 1-3 1 0 1 0 2-1h0z" class="L"></path><path d="M441 571c3 9 4 17 2 26 0-1-1-1-1-2 1-8 1-15-2-23l1-1z" class="F"></path><path d="M399 492c2 7 0 14 0 21 0 3 1 6 0 9v-1l-1-2c-1-3 0-8 0-11v-13l1-1v-2z" class="D"></path><path d="M351 374h0c0-2 2-3 3-4 5-3 15-5 21-4h3v2c-1 0-1-1-2-1-3 0-5 0-7 1-6 0-10 1-14 3l-4 3z" class="M"></path><path d="M263 620c9 1 20 2 27 6l-27-4c-1-1 0-1-1-1h0 0l1-1z" class="D"></path><path d="M361 405c-2-5-4-11-3-16 0-2 1-6 3-7-2 7-1 15 1 22l-1 1z" class="B"></path><path d="M351 374l4-3c4-2 8-3 14-3 2-1 4-1 7-1-8 2-14 3-20 6l-1 1h-1-2c0 1-1 1-2 2v-1l1-1z" class="H"></path><path d="M398 495c0-2-1-5-2-7-3-6-8-11-9-19 1 1 2 5 3 7 2 3 5 6 7 10 1 2 1 4 2 6v2l-1 1z" class="G"></path><path d="M276 495c0-6-1-13 1-19 0-3 2-6 3-9 1-2 3-4 4-6-2 6-5 12-6 19-1 5 0 10-1 16l-1-1z" class="B"></path><path d="M356 533l1 1c-1 1-2 2-2 3-1 1-3 3-3 4l-3 3c0 1 0 0-1 1s-1 2-2 4c0 2-1 5-1 7v9c-2-3-2-8-1-12h0c0-3 1-6 3-8h0l9-12z" class="L"></path><path d="M297 348c5-3 16-7 21-5 4 1 7 3 9 4-3 0-6-2-9-3-6-1-12 2-17 4-1 0-2 1-3 1 0-1 0-1-1-1z" class="D"></path><path d="M323 475c5 9 10 18 9 29h0v-1c-1-6-3-12-5-17-2-3-4-6-5-9 1 0 1-1 1-2z" class="B"></path><path d="M380 492c1 4 2 8 3 11l1 10c1 5 2 8 1 12l-1 5h-1c0-2 1-4 1-6v-7c-1-6-2-12-4-19 0-1-1-4-1-5l1 1v-2z" class="I"></path><path d="M271 414h1v1c0 1-1 3-2 4-3 8-6 13-13 18 2-3 4-5 5-7 4-6 6-11 9-16z" class="C"></path><path d="M238 613c8 3 16 5 25 7l-1 1h0 0c1 0 0 0 1 1-9-2-19-4-28-8l3-1zm202-41c-2-4-5-8-9-12-3-2-6-3-8-6-2-2-3-5-5-8 2 2 3 5 5 7 2 1 4 3 6 4 6 4 10 8 12 14l-1 1z" class="G"></path><path d="M382 355c-2-2-3-5-3-7 0-1-1-2-1-3l-1-1h0c2 0 4-1 6 0 1 0 1 0 1 1 1 3 0 7-1 9l-1 1zm20 105v-2c-1-1-1-1-1-2h0l1 1c0 1 0 0 1 1h0c4 5 7 11 10 16 1 3 2 4 3 6-3-2-6-6-9-10l-5-10zm-92-149l1 1c-2 3-3 5-5 7l-2 1c1 0 1 1 1 0h3v-1l1-1 2-2v-1l1-1 1 1c-1 1-2 3-4 4h0 2 0v1c-2 2-4 5-6 7l-2 1h0c-3 1-5 1-8 1h0c5-1 9-4 12-8l-7 1c5-3 8-5 10-11zm106 177c3 3 6 4 9 7 5 3 10 6 16 9l-5-1c-8-2-16-7-20-15z" class="B"></path><path d="M381 614c9 1 19 2 27-3 2-1 4-3 6-4-1 1-2 3-4 4-3 3-9 5-13 5-5 1-9 0-14 0-2 0-4 0-6-1h3 1 3c-1 0-2 0-3-1z" class="F"></path><path d="M349 630l18-7c3-1 7-2 11-3 2 0 5-1 7 0-1 0-3 1-5 1l-7 2c-8 3-15 6-23 8l-1-1z" class="D"></path><path d="M318 632c11 2 20 1 31-2l1 1c-12 4-22 5-34 3h0v-1h0 0l2-1zm-21-291h2-1c-2 1-4 2-5 4-3 3-5 7-7 11-2 2-4 5-7 7l-1 1c2-2 3-4 4-6 2-3 3-6 4-8 2-5 6-8 11-9z" class="B"></path><path d="M363 377c3-2 5-3 8-3-3 1-5 2-6 5l-1 1c0 1-1 2-1 4l-1 4c0 3 0 7 1 11l-1 1c0 1 0 1 1 2l1 3v3c-1-1-1-3-2-4-2-7-3-15-1-22 0 0 0-1 1-1 0-1 1-2 2-3v-1h-1z" class="E"></path><path d="M363 511v4h0l1-1v15c-1 9-8 14-12 21-1 2-3 9-4 9h-1c2-6 5-11 8-16 2-3 5-6 6-9 3-7 0-15 2-23z" class="J"></path><path d="M396 361l2-2v1c3 0 5-1 8-1s7 0 11 1h-1-13c-1 1-3 1-4 1v1c1 1 4 1 6 1 2-1 4 0 6 0-1 1-2 0-3 0-2 0-7 0-8 1v1c1 1 3 1 5 1v1c-2-1-3-1-5 0h-1l1 1 7 1c1 0 1 1 1 1h1c1 1 2 1 3 2l-3-1c0-1-1-1-1-1h-1c-3-1-7-1-10-1h0c1 1 3 2 5 3l4 4c1 1 2 2 2 4h0c-3-4-6-7-10-9-1 0-1-1-3-1h1l-1-1c1-1 2-1 3-2 0-2-1-5-2-6zm31 265c1 1 1 1 0 1-1 2-2 3-3 5-2 1-3 3-4 5-3 2-6 5-8 7-3 3-6 6-8 9-1 2-2 5-3 6-1-1 2-6 3-8l6-9c4-4 8-7 12-10 2-2 4-4 5-6z" class="D"></path><path d="M390 457h0c-4-3-6-6-10-9-4-4-9-6-13-9-5-4-8-9-13-14h1c4 4 8 9 12 12 5 4 11 5 15 9 3 3 6 7 8 11z" class="G"></path><path d="M303 621c11 2 22 4 33 2 5 0 9-2 13-3 4 0 7-1 10-1l-9 3-14 3c-11 1-23-1-34-3h0l1-1z" class="D"></path><path d="M430 624v1 3c-2 7-9 13-13 18l-9 10h0c1-2 3-5 4-7 5-7 10-14 16-21 1-1 1-2 2-4zm-47-329h1l-9 18c-1 2-2 5-2 7-2 3-3 6-5 8-1 1-2 2-3 2-1-1-2-2-2-3-2-5 0-12 2-17-1 6-1 12 1 17 5-5 8-13 11-20l6-12z" class="B"></path><defs><linearGradient id="A" gradientUnits="userSpaceOnUse" x1="393.8" y1="453.601" x2="407.356" y2="449.652"><stop offset="0" stop-color="#d8e4db"></stop><stop offset="1" stop-color="#fffeff"></stop></linearGradient></defs><path fill="url(#A)" d="M384 442l-5-2c3 0 7 1 9 2 7 2 12 7 18 10 0 1 0 1 1 1 0 1 1 2 2 3 2 3 4 7 6 11-2-3-4-6-6-8-2-1-4-2-6-4-3-3-6-6-10-9h-1c-2-2-5-3-8-4z"></path><path d="M391 523c1 7 3 15 5 22 4 14 11 27 2 40-2 2-4 4-7 6 2-2 4-5 6-7 4-6 5-12 3-19 0-5-2-10-4-15-2-9-4-18-5-27h0z" class="I"></path><path d="M442 595c0 1 1 1 1 2-1 8-5 17-5 26l-3 9c-1 4-2 7-4 10 3-8 3-17 5-25 1-5 3-9 4-14 1-2 1-5 2-8zm-92 11c3 1 6 2 9 2 13 0 28-4 40-9 4-2 8-4 11-5-9 8-21 11-33 14-5 1-12 3-18 2-3 0-7-1-10-2h2c1 0 2 1 4 1h2c1 0 1 1 2 0 2 0 5 1 6 0h2c1 0 3 0 3-1h1 2 1 0 1c2-1 5-1 6-2-3 0-7 1-10 2h-1c-4 0-9 1-13 0h-1-1c-1 0-3 0-4-1h-1v-1zm18-224h1c-2 6-3 14 0 20 2 3 5 5 8 7-4-1-9-3-11-6-1-1-2-3-3-4-1-4-1-8-1-11l1-4c0-1 0-1 1-1v1c-1 3-1 6 0 9v-2c1-3 1-7 4-9h0z" class="B"></path><path d="M331 648h1 0c-6 2-13 4-18 6-8 3-15 7-23 9h-9-1c5-2 11-3 17-5s12-5 18-7c5-2 10-2 15-3z" class="C"></path><path d="M434 613c1 3 0 7 0 10 0 5-2 11-5 16-3 6-8 11-13 15 6-8 12-17 15-26l2-9c0-2 1-4 1-6z" class="B"></path><path d="M401 463l-4-4c-1-2-2-3-3-5 0-1 0-2-1-2-1-3-4-6-7-8l6 3c4 2 6 4 9 8 1 1 2 2 2 3h0c-1-1-1 0-1-1l-1-1h0c0 1 0 1 1 2v2l5 10-1 1c-1-2-3-6-4-7-1 0 0 0-1-1h0z" class="F"></path><path d="M401 463l1 1v-1c-1-3-3-7-6-10v-1h0l6 8 5 10-1 1c-1-2-3-6-4-7-1 0 0 0-1-1h0z" class="E"></path><path d="M379 493c-1-7-4-14-9-20-3-4-8-8-12-12-6-6-12-12-13-21h1c0 3 1 5 2 7 7 12 20 17 26 28 3 6 5 12 6 17v2l-1-1z" class="G"></path><path d="M363 377c-3 3-5 5-8 9 1-2 1-3 2-4 5-6 11-10 18-11 2 0 3 0 4 2h0 0-3v1c-1 2-4 3-6 5l1 2c-1 0-1 0-2 1h-1 0c-3 2-3 6-4 9v2c-1-3-1-6 0-9v-1c-1 0-1 0-1 1 0-2 1-3 1-4l1-1c1-3 3-4 6-5-3 0-5 1-8 3z" class="I"></path><path d="M364 384c1-4 2-5 5-7 0-1 1-1 2-2 1 0 2 0 3-1v1c-1 1-2 1-3 2 0 1-1 1-2 1v1 1l-1 2h0c-3 2-3 6-4 9v2c-1-3-1-6 0-9z" class="E"></path><path d="M387 644h1c-2 1-4 3-5 5-8 4-16 7-23 11-5 2-9 5-13 7h-1 0c7-7 15-12 25-16 6-2 11-4 16-7z" class="C"></path><path d="M419 616c0 2-1 4-2 6-4 8-9 16-16 22-3 2-8 4-11 6-4 1-7 3-10 5-1 0-1-1-1-1 4-3 9-5 13-8 3-2 6-3 9-6 8-6 13-15 18-24z" class="B"></path><path d="M393 437l-8-5c-3-2-6-4-10-6-2-1-4-2-6-4-2-1-4-4-5-6 2 2 4 4 6 5 2 2 4 3 7 4l7 4 11 6c5 2 9 4 13 8 2 2 3 5 4 7l-6-6c-3-2-6-4-9-5-1-1-3-2-4-2z" class="G"></path><path d="M361 647h1c-1 1-1 1-1 2-3 2-6 3-9 5-5 2-9 3-14 4-6 2-11 5-18 6-4 1-9 1-14 0h-1c5-1 9-1 14-2 7-2 13-4 19-6 8-3 16-4 23-9z" class="B"></path><path d="M391 523c-1-2-1-5-1-8-1-6 0-13-2-19-1-6-4-11-7-17-2-5-3-11-6-15l-3-3c-2-3-6-5-8-9h0c4 5 11 8 14 13 2 5 3 9 5 14 2 4 4 9 6 13 3 10 1 21 2 31h0z" class="K"></path><path d="M297 359h1c-7 6-11 12-13 21-1 5-2 10-5 15-3 4-7 7-11 10h0c3-4 7-8 9-12l3-9c2-7 4-14 9-19 2-3 4-4 7-6z" class="C"></path><path d="M298 349c-7 3-11 11-15 18 6-7 12-16 22-17h2c-6 2-12 6-16 10-1 2-2 4-4 6l-10 14c1-4 3-9 6-13h0c0-2 1-4 1-5 3-7 7-11 13-14 1 0 1 0 1 1z" class="B"></path><path d="M287 564v-1-1c-2-6 0-11-1-17s-5-12-4-18v-1c0-2 1-4 2-6 3-5 10-8 13-15v-2c1-1 0-2 1-3v-5c-1-2 0-4-1-6v-3-1h0 1v2h0c0 2 1 4 1 6v3 1 6l-1 1c0 2-1 3-2 5-3 5-9 8-11 12-4 7 0 16 2 23 2 6-1 12 2 18v1c-1 0-1 0 0 1h-2zm112-207c4-4 14-5 19-5 6 0 11 1 16 4 1 0 1 0 2 1l-9-3h-8c-5 0-12 0-16 2h0c4 0 8-1 12 0 2 0 4 1 6 2h0l3 2c1 1 2 1 2 2h-2v-1h-1-1l-1-1h-2-2c-4-1-8-1-11-1s-5 1-8 1v-1l1-1v-1z" class="J"></path><path d="M399 358c2 1 4 0 6-1 5 0 11 0 16 1l3 2c1 1 2 1 2 2h-2v-1h-1-1l-1-1h-2-2c-4-1-8-1-11-1s-5 1-8 1v-1l1-1z" class="H"></path><path d="M276 442c0 1 0 2-1 3l-4 9c-2 4-3 7-4 11 0 3-1 6 0 9v8c0 8-5 14-10 20-1 2-2 5-4 7 1-3 3-6 3-8h0c4-5 9-12 9-19 1-2 0-5 0-8 0-5 0-11 2-16 2-6 6-11 9-16z" class="C"></path><path d="M462 561c0-2-1-3-1-5 1 1 2 2 2 4v-4l2 2h0l8 8-1 1-2-2h0v1h0c1 1 1 2 1 2v1c1 4 1 8 1 12h0c-1-1-1-1-1-2h-2c0-2-1-4-2-6h-1c0-1-1-2-2-3l-2-9z" class="E"></path><path d="M462 561c0-2-1-3-1-5 1 1 2 2 2 4 1 4 3 8 4 13h-1c0-1-1-2-2-3l-2-9zm9 18l-5-19c2 3 4 6 5 9 1 4 1 8 1 12h0c-1-1-1-1-1-2z" class="D"></path><path d="M322 477c-3-6-4-12-2-19l3-15c1-3 1-6 1-8-1-9-5-18-4-27 0-5 2-12 6-15l-3 6c-5 13 3 25 2 38 0 9-5 17-5 26 0 5 2 8 3 12 0 1 0 2-1 2zm90 81h0c2 3 3 8 3 11 0 8-2 15-8 21-2 3-6 5-9 6-8 3-16 4-25 5l-1-1c7-2 14-3 20-5 7-2 12-4 16-9 7-9 5-18 4-28z" class="C"></path><path d="M410 541c1 4 2 8 3 11 3 4 6 7 9 11 1 3 2 7 3 11 0 7-2 17-7 23-3 4-8 5-13 7-5 3-9 5-15 6v-1h0c6-2 10-4 16-7 3-1 6-2 9-4 2-2 4-4 6-7 1-3 2-6 2-9 1-6 0-12-2-17-3-3-6-7-8-11l-3-6c-1-2 0-4 0-7z" class="B"></path><path d="M451 566c1 5 3 8 5 12 4 10 5 19 4 30-1 9-7 15-13 21h-2c1-1 3-3 4-5 3-5 7-10 8-16 1-4 1-7 1-11 0-8-2-15-5-22-1-3-3-6-2-9z" class="C"></path><path d="M364 503c0-10 0-20-5-28v-1l-4-5c-3-3-6-6-8-9l-6-9c0-1 0-2-1-3 0-2-1-4-1-5v-1l-1-4-1-1-1-6c0-1 0-2-1-3v-1-1l-1-3c-1-3-3-7-4-10-1-1-1-1-1-2h0v-1c2 3 4 6 5 9 0 1 1 1 1 2l1 5 1 1v2s0 1 1 2v1 1 2s0 1 1 2v1 2l1 1v3c1 0 1 1 1 1v1c0 1 1 3 2 4v2h1l3 5c0 2 1 3 2 4l7 7c1 3 3 4 4 7 5 8 7 19 5 28v1-2h-1v1z" class="M"></path><path d="M283 436h0c0 5-2 12-3 16-3 5-5 9-7 14-2 8-1 16-3 23-1 6-4 10-7 15-2 5-3 12-4 17h-1c-1-7 1-14 4-19 3-6 6-11 8-17 0-6 0-12 1-17 2-7 6-12 8-18 2-5 2-9 4-14z" class="B"></path><path d="M312 549h0v-3c-1-4-4-10-3-14h0v1c1 4 3 8 4 12 1 3 1 6 2 9 0-2 0-4 1-6 2-7 6-14 10-20 3-4 4-8 6-12 1-2 2-4 2-7l1-1v-2-1l1-2v-1-3c1-2 0-6 0-8v-3-1-1c1 1 1 3 1 5 1 1 0 2 1 3 0 3 0 6-1 9v2l-1 4c0 1-1 2-1 3l-2 6-1 1c-1 3-3 6-4 9-2 4-5 7-7 10a34.53 34.53 0 0 0-5 18c-1 2 0 4 0 7 0 1 1 3 1 5-1-2-2-4-2-6-1-2-1-5-2-6h0c-1-2-1-4-1-6h0v-1z" class="M"></path><path d="M365 410h1c3 5 8 7 12 11-2-1-6-3-8-3 6 4 14 9 21 10h7c-2 1-6 3-9 2s-6-2-9-4-6-3-8-5c-2-1-3-2-4-3-2-2-4-3-5-4-3-2-4-5-6-7-4-8-10-18-8-27 1-2 1-3 2-4-2 11-1 14 4 23 2 3 3 5 5 8 1 2 3 4 4 5 1-1 0-1 0-2h1z" class="B"></path><path d="M235 614c-9-4-17-10-22-18-3-5-5-10-9-15s-10-9-14-13c7 4 14 8 20 15 2 3 4 7 6 10 5 10 12 16 22 20l-3 1z" class="C"></path><path d="M329 357h1c-1 1-3 2-5 2-7 3-15 4-22 7-5 3-10 7-12 13-3 5-4 10-6 15-1 3-4 6-4 9-2 4-8 7-11 10l-1 1-1-1c2-2 4-4 6-7 3-4 6-8 8-13 2-4 3-8 5-12l3-5c6-9 14-12 24-15l15-4z" class="B"></path><path d="M274 439v2h0c-1 1-2 2-2 3-1 0-1 0-1 1-1 0-1 1-1 1l-1 1c0 1-1 2-1 3-1 1-2 3-2 5-1 1-1 2-2 3v4h-1v1h0v2c-1 1 0 1-1 2h0c0 1-1 3 0 4v-2l1-1h1c1 0 0-2 1-3v-2-2l1-1h0v-1c0-1 0-1 1-1v-1c0-3 2-5 3-7 0-1 1-1 1-2 0 0 1-1 1-2l1-1 1-1 1-2 1-1h0v1c-3 5-7 10-9 16-2 5-2 11-2 16 0 3 1 6 0 8 0 7-5 14-9 19 0-4 1-5 2-8l3-11c1-4 2-8 2-12-1 2-2 6-3 9l-2 8c0 3 0 7-2 8l3-18c2-7 3-15 6-23 2-5 6-11 9-15z" class="E"></path><path d="M272 526c2-6 3-11 6-17 3-5 8-9 11-14 2-5 5-13 6-19 1-9 0-18 3-27 1-3 3-6 5-10 2-2 4-4 5-6 5-6 5-14 6-22h0c0 4 1 7 0 11-1 7-5 13-9 18-3 4-5 7-6 11l-1 1c-1 6-1 13-2 19 0 4-1 9-2 14-1 4-3 8-5 12s-5 7-8 10c-7 9-9 19-6 30h-2c0-2 0-4-1-6v6h-1v2c-1-2-1-5 0-7 0-2 1-4 1-6h0z" class="K"></path><path d="M305 327h0l1-1s1 0 2-1v1l-4 3c3-1 7-1 10-1 5 0 9 2 13 4v1c-7-3-11-4-18-3-2 0-4 1-6 1v1l-2 1h1c-1 2-6 3-8 5 1 0 3-1 4-2 6-1 14-3 19-1 3 0 6 2 8 4-2-1-5-2-7-3-8-1-18 2-25 5-4 1-7 3-10 6-2 1-4 3-7 5 6-8 14-14 22-19-3 0-8 1-11 0 4-1 9-2 13-3 1 0 2-1 3-2h0 0l2-1z" class="D"></path><path d="M302 622c-22-2-50-9-63-29-3-5-5-11-8-16-1-2-3-4-5-6 2 2 5 3 6 5 5 5 7 12 10 17 13 20 39 23 61 28l-1 1z" class="C"></path><path d="M386 436l-6-3c-3-1-5-3-8-5-4-2-7-3-10-4-5-3-9-7-13-11-5-6-8-15-8-24v-1c1 3 1 6 2 9 4 10 10 21 20 25 4 2 7 2 10 4 6 2 10 7 16 9 1 1 2 2 4 2 6 4 10 9 14 15v1c-1 0-1 0-1-1l-4-4c-5-4-9-8-15-10v-2h-1z" class="G"></path><path d="M428 591c0 3-2 8-3 10-5 10-14 15-23 22-9 8-18 17-29 25l-6 3c-7 4-15 8-23 10-8 3-17 4-26 7 3-2 5-3 8-4 9-4 19-6 28-9 6-2 13-5 18-9 10-6 18-15 27-22l13-11c3-2 6-4 8-7 4-4 5-9 8-14v-1z" class="B"></path><path d="M306 592l-1-3c-1-1-1-5 0-6 1-3 3-5 5-6h2c-2 2-6 4-6 8-1 3 1 8 4 10 1 1 4 2 6 2h0v-1h2c1 2 2 2 4 2v-1l-3-3v-1c-1-1-1-2-1-3v1c1 3 4 5 6 7 5-2 9-5 13-9 0 5-2 8 1 12 0 2 1 2 3 2l1-1c1 1 0 1 1 2h1c1 1 2 2 4 2h2v1h1c1 1 3 1 4 1h1 1c4 1 9 0 13 0h1c3-1 7-2 10-2-1 1-4 1-6 2h-1 0-1-2-1c0 1-2 1-3 1h-2c-1 1-4 0-6 0-1 1-1 0-2 0h-2c-2 0-3-1-4-1h-2c-2 0-4-1-7-1l-12-3c-8-2-16-4-23-7h1l-2-1 1-1 1-1-2-2z" class="F"></path><path d="M298 631c-6 0-12 0-18 1-5 1-9 2-14 2h-15 1l15 3h-12c-6-1-12-3-17-5-10-3-18-7-26-12-4-2-7-4-9-7 12 8 28 15 42 18 8 1 18 1 26 0 10-1 21-2 31-1-1 1-2 1-3 1h-1z" class="C"></path><path d="M256 501c-1-1-1-2-2-3-2-10 3-17 4-26 1-3 1-7 2-10v-1c3-12 11-22 20-31 3-3 7-7 9-11 1-4 1-8 1-12 0-2 1-5 2-7 0-1 0-3 2-4 0 1 0 1-1 1 0 3-1 5-1 8v8 1c-1 2-2 6-3 8-4 6-11 10-15 17-3 4-7 10-9 15-3 8-4 16-6 23l-3 18c2-1 2-5 2-8l2-8c1-3 2-7 3-9 0 4-1 8-2 12l-3 11c-1 3-2 4-2 8h0z" class="B"></path><path d="M382 446l1-1 1 2 1 1c1 1 2 2 2 3l1 1v-1-1l1-1h1l-3-3-1-1v-2h-1-1-1l1-1c3 1 6 2 8 4v1l-6-3c3 2 6 5 7 8 1 0 1 1 1 2 1 2 2 3 3 5l4 4h0c1 1 0 1 1 1 1 1 3 5 4 7 2 2 4 6 6 8a30.44 30.44 0 0 0 8 8c-4-1-8-4-11-7h0l-7-8c1 2 2 5 3 8 5 9 12 16 20 22h0l-6-4-1 1c-1-1-3-2-4-3h-1-1c-2-4-5-8-6-13h-1c-2-10-7-17-14-25l-1-1c-2-4-5-8-8-11z" class="E"></path><path d="M406 483c1 1 2 4 3 5 3 4 6 7 10 10l-1 1c-1-1-3-2-4-3h-1-1c-2-4-5-8-6-13z" class="F"></path><path d="M409 480c-2-4-4-7-6-11l-8-8-3-3c-1-1-1-2-1-3-1-2-2-3-2-5h0c1 0 2 1 3 1 0 1 0 1-1 1 0 2 1 0 2 1v3h0c2 3 4 6 7 7h1 0c1 1 0 1 1 1 1 1 3 5 4 7 2 2 4 6 6 8a30.44 30.44 0 0 0 8 8c-4-1-8-4-11-7z" class="D"></path><path d="M387 375c0-1 1-4 2-5l2-1v-1l-2-1v-1l6 3 1 1h-1c2 4 7 5 8 9-1 0-1-1-1-1-2-2-4-4-7-6-1 4-3 7-6 9l-1 1h0c-1 1-1 1-2 1 0 1 0 2-1 3 0-1 0-2-1-2-1 1-1 1-1 3v1c0 1 0 1-1 1v-3l-1-1v1h-7l-2 8c0-2 1-6 0-8-1 2-1 5-2 8v5h-1c-1-1-1-6-1-9s1-6 4-9v1 1 1c1 0 2-2 3-3l4-4c-1 0-1 0-1-1s1-2 1-3h0 0c-1-2-2-2-4-2 1 0 3 0 4-1h4c1 2 3 3 4 5h0z" class="B"></path><path d="M375 371c1 0 3 0 4-1h4c1 2 3 3 4 5h0l-1 1h0c-1-1 0-1 0-2h-1c-1 1-1 1-1 3 1 0 2 0 3 1l-2 2-1-1 1-1h-1-1c0 1-1 1-1 2v1c-2 2-2 2-5 2h-2v-1-1l4-4c-1 0-1 0-1-1s1-2 1-3h0 0c-1-2-2-2-4-2z" class="J"></path><path d="M375 382c2-1 5-5 7-5l-1 1c0 1 1 1 1 2h0v1c-2 2-2 2-5 2h-2v-1z" class="E"></path><path d="M410 642c-3 2-6 5-9 7-8 6-17 10-27 12-3 1-6 2-10 2 7-3 14-5 20-8 8-4 17-10 24-15 2-3 4-5 7-7 3-3 7-5 9-9h0v-1c4-5 3-11 4-16 2-7 7-11 7-19-1-5-4-11-5-16l4 8c3 8 3 13-1 20-1 3-3 5-4 7-1 6-1 11-3 17l1 1h0v1c-1 2-3 4-5 6-4 3-8 6-12 10h0z" class="C"></path><path d="M426 624l1 1h0v1c-1 2-3 4-5 6-4 3-8 6-12 10h0l6-8c2-2 4-3 5-4s2-3 2-4h1l-1 2v1c2-2 2-3 3-5z" class="E"></path><path d="M272 537v-6c1 2 1 4 1 6h2c1 4 2 7 3 10 2 5 4 14 9 16v1h2c-1-1-1-1 0-1 1 2 3 3 4 5l1-1h0c2 1 4 2 7 3h8c-4 1-9 2-11 6-1 2-1 3-2 5h-1c-1 0-1-2-2-3-1-2-2-5-4-7-2-3-6-6-9-8-1-2-3-3-5-4-1-1-2-1-3-2 1 0 2 0 3 1h0 1l-1-1c1-2-1-4-1-6-2-4-3-8-3-12v-2h1z" class="F"></path><path d="M272 537v-6c1 2 1 4 1 6 2 8 5 16 9 24-4-4-5-7-7-11l-1 1c-2-4-3-8-3-12v-2h1z" class="H"></path><path d="M271 539v-2h1c1 4 2 8 3 13l-1 1c-2-4-3-8-3-12z" class="B"></path><path d="M387 624h2c-1 1-5 2-6 3-5 3-9 6-14 9-3 2-6 3-9 4l-6 1c-2 0-4 0-6 1-5 0-9 0-14 1-14 3-27 9-42 10-13 1-28-2-41-7-2-1-5-2-7-3l29 4c4 0 7 0 11-1 9-1 16-3 25-2-8 1-16 3-23 5-4 0-9 0-12 1 4 0 9 1 13 1s8 0 12-1c12-1 23-6 35-8 10-1 19 0 28-4 9-3 16-11 25-14z" class="C"></path><path d="M272 557c-3-4-6-7-8-12-1-3-2-7-3-11-2-8-2-16 2-23 3-5 6-8 8-13-1 6-5 11-7 18-1 3-1 5-1 8 0 0 0-2 1-2 0-4 2-6 4-9 4-6 7-11 8-18l1 1c-1 4-2 7-4 11-4 8-10 16-9 26 0 3 1 5 1 8 1-4 2-11 5-14 1 0 1-1 1-1h1 0c0 2-1 4-1 6-1 2-1 5 0 7 0 4 1 8 3 12 0 2 2 4 1 6l1 1h-1 0c-1-1-2-1-3-1z" class="D"></path><path d="M270 527c1 0 1-1 1-1h1 0c0 2-1 4-1 6-1 2-1 5 0 7 0 4 1 8 3 12 0 2 2 4 1 6-1-2-2-4-4-6s-2-4-4-6h0c-1-1-2-3-2-4 1-4 2-11 5-14z" class="E"></path><path d="M265 541c1-4 2-11 5-14-2 9-1 15 1 24-2-2-2-4-4-6h0c-1-1-2-3-2-4z" class="B"></path><path d="M254 463v-1c-1-3 1-8 2-11 3-6 7-12 10-18l4-12c1-3 2-6 4-9 4-4 8-6 12-9-5 7-11 13-15 21-2 6-4 13-7 19h0l6-9c2-4 4-8 7-12 0 2-2 4-3 6-2 4-3 9-6 13-2 4-5 8-6 13-3 5-3 10-4 15-1 6-4 13-8 17 2-5 3-9 4-14 0-1 1-3 1-4-1-2-1-3-1-5z" class="C"></path><path d="M254 463l7-15v1c-3 6-5 12-6 19-1-2-1-3-1-5z" class="H"></path><path d="M384 295c1-2 3-6 5-7h1c-1 4-4 8-5 12-1 3-2 9-4 11l1 1v-1h0 1c0 1-2 5-1 6 0 1 1 3 2 4 3 5 6 10 8 15 0 3 1 5 1 7v6c0 2 1 4 2 6l2 3c1 0 1 0 2-1v1l-1 1-2 2c-2-4-4-7-5-10 0-1 0-1-1-2-1 2-1 3-2 3-1-1 1-8 2-10 0-1-1-2-1-4-1 0-1 0 0-1l-4-8 3 9c-3-4-4-8-7-11 1 1 2 3 3 5 0 1 0 3 1 5l1 1v1c-2-4-4-7-6-10-1-2-4-4-5-7l-1 1v-1c0-1-1-1-1-2 0-2 1-5 2-7l9-18z" class="B"></path><path d="M384 295c1-2 3-6 5-7h1c-1 4-4 8-5 12-1 3-2 9-4 11l-1-1-1 1c1 0 1 1 2 1 0 1 0 3-1 3s-2-1-2-1c-1 1 1 2 1 4l-3-3 2 3v1h-1-1c0 1 1 1 1 2v1c-1-1-2-1-2-2h-1l1 2-1 1v-1c0-1-1-1-1-2 0-2 1-5 2-7l9-18z" class="E"></path><path d="M412 496h1c2 5 3 10 5 15 1 4 3 9 5 13 5 6 11 11 17 16 5 3 10 6 13 10 2 3 4 7 5 10 1 1 1 2 2 3-1-3-2-5-3-7 0-2-3-6-2-7 2 2 4 6 5 9 0 2 1 3 1 5 0-1 0-1 1-2l2 9c1 1 2 2 2 3 1 3 2 7 1 10v2c0-1-1-2-1-3h0v6c1 2 0 5 1 7 0 1-1 4-1 5h-1c-1 1-1 4-1 5l-3 16c0-4-1-8-1-12 1-8 2-15 2-22 0-4-1-8-2-12-1-7-3-17-8-22-4-6-9-9-14-12-5-4-10-8-14-13-4-6-7-12-8-19-2-4-3-8-4-13z" class="G"></path><path d="M462 561l2 9c1 1 2 2 2 3 1 3 2 7 1 10v2c0-1-1-2-1-3h0v6c0 2 0 5-1 7v4c0-12-2-24-4-36 0-1 0-1 1-2z" class="E"></path><path d="M464 570c1 1 2 2 2 3 1 3 2 7 1 10v2c0-1-1-2-1-3h0v6c0 2 0 5-1 7v-10c0-5 0-10-1-15z" class="F"></path><path d="M441 626c5-6 11-11 12-19 1-10-2-19-5-28-2-5-1-11-3-16-1-2-3-5-5-7-4-4-11-5-17-9-5-3-9-9-11-14-3-9-3-18-4-27-1-4-2-9-3-13-3-9-4-18-10-25-5-7-13-13-20-17-9-5-19-9-25-18-4-5-6-12-9-18-2-5-5-11-6-17-1-3-1-7-1-11 1-5 4-13 8-16h0l-5 9c-3 9-2 18 2 27l5 12c3 8 6 14 13 20 5 4 11 7 17 10 5 3 11 7 16 9h1c7 8 12 15 14 25 2 6 4 12 4 19 1 6 1 12 2 19 1 10 5 20 15 26 5 3 11 5 16 9 3 2 5 7 5 10 1 4 1 8 2 11l3 12c3 10 4 22-3 31-2 4-5 6-8 9-2 3-3 6-5 8l1-4c1-3 2-5 4-7z" class="C"></path><path d="M293 608c9-2 17-1 26-1l9 1 16 2c-5 1-10 0-16 0 2 1 5 1 7 2 9 1 18 0 27 0 5 0 10 1 15 2h4c1 1 2 1 3 1h-3-1-3-18c-7 1-13 3-20 3-10 0-19-4-29-5h-23c-4 0-9 0-14-1l17-2 2-2h1z" class="B"></path><path d="M292 608h1 11l16 3v1c-4-1-8-2-12-2-5-1-9-1-14 0h-4l2-2z" class="L"></path><path d="M290 610l2-2 1 1h2c-1 0-1 0-1 1h-4z" class="H"></path><path d="M320 611c9 2 18 4 28 4-2 1-4 1-5 1-5 0-10 0-15-1l-8-3v-1z" class="E"></path><path d="M310 311c2-8 3-17 7-25 7 8 14 17 25 18 6 0 13-2 19-4 4-2 27-15 30-14 1 2-5 16-6 19-1 2-2 4-2 6h-1 0v1l-1-1c2-2 3-8 4-11 1-4 4-8 5-12h-1c-2 1-4 5-5 7h-1l3-6-17 10c-7 4-13 10-21 13l6-6c-1 1-3 2-5 3v-1h0-2-1-1 0c0-1 0 0-1-1l-1 1c-1-1 0-1-1-1l-1 1h-1v-2h-1l-1 2c0-1 0-1-1-2-1 0-2 2-2 1-1 0-1-1-1-1-1 0-1 1-1 1-1 0-2 0-2 1l-1-1c0-1 0 0-1-1v1c-1 0-1 1-1 1-1 0-1-1-3-1v2c-1 0-3-2-3-1h-1c-1 0-1-1-2-1h-1l-1 2v-2-3c-1 4-2 7-4 11h0l-1-1-1 1v1l-2 2-1 1v1h-3c0 1 0 0-1 0l2-1c2-2 3-4 5-7l-1-1z" class="D"></path><path d="M425 502c-8-6-15-13-20-22-1-3-2-6-3-8l7 8c3 5 6 10 10 14s10 9 17 11c3 2 7 2 11 4s8 5 13 7c-1 1-1 1-2 1h1 2v1l-9 10c-2 2-4 5-7 7l4 4 13 15c1 2 2 3 3 4h0l-2-2v4c0-2-1-3-2-4 0 2 1 3 1 5-1 1-1 1-1 2 0-2-1-3-1-5-1-3-3-7-5-9-1 1 2 5 2 7 1 2 2 4 3 7-1-1-1-2-2-3-1-3-3-7-5-10-3-4-8-7-13-10-6-5-12-10-17-16-2-4-4-9-5-13-2-5-3-10-5-15h1c1 1 3 2 4 3l1-1 6 4h0z" class="H"></path><path d="M419 498l6 4c5 4 10 6 14 10s7 9 8 14c-2-4-4-7-8-10-3-3-8-5-11-8-4-3-7-5-10-9l1-1z" class="G"></path><path d="M425 502c-8-6-15-13-20-22-1-3-2-6-3-8l7 8c3 5 6 10 10 14s10 9 17 11c3 2 7 2 11 4s8 5 13 7c-1 1-1 1-2 1l-11-5c-3-1-6-2-9-4l-1-1v1c1 1 4 3 6 4l10 5c1 1 3 1 5 2l-1 1h0c-3 1-7-2-9-3 2 2 3 4 5 5v1h-1c-5-4-9-7-13-12-3-4-9-6-14-9z" class="D"></path><path d="M307 597c-3-1-7-2-10-3l-29-10c-30-11-61-22-88-38-14-7-26-16-38-27-49-41-72-103-77-165-4-52 7-106 32-151 7-13 15-26 25-37 13-15 27-28 43-39 26-20 56-33 88-42 17-4 36-8 54-9 69-5 140 13 193 59 11 10 22 20 31 32 32 40 49 89 53 139 4 51-7 102-30 148-10 17-21 34-33 50l-15 18 14 14 35 39c12 12 27 25 44 32 5 2 10 4 16 5 16 2 31-1 44-12 6-4 13-12 14-19v-1h10c-1 12-7 21-14 29-2 2-5 4-7 6-17 13-39 20-60 20-39 2-75-16-104-42l-17-17c-2-3-5-7-8-10l-8-8c-1-1-2-2-3-4l-13-15-4-4c3-2 5-5 7-7l9-10c5-5 10-11 14-16 21-27 34-60 41-94 2-13 4-27 4-41 2-24 1-47-1-70l-3-23c-7-40-23-79-50-109-24-28-58-49-93-59-11-2-22-4-33-5-12 0-25 1-37 3-32 6-60 20-84 42-10 9-19 20-27 31-27 40-38 89-41 137-4 68 9 142 55 194 16 18 36 33 58 44 2 2 6 4 8 5 1 1 2 1 3 2 2 1 4 2 5 4 3 2 7 5 9 8 2 2 3 5 4 7 1 1 1 3 2 3h1c1 3 1 7 4 9 1 1 2 1 3 1h1 0c1 1 1 1 2 1l2 2-1 1-1 1 2 1h-1z" class="C"></path><path d="M304 591c1 1 1 1 2 1l2 2-1 1c-1 0-2-1-3-1-1-1-1-2 0-3z" class="H"></path></svg>