<svg xmlns="http://www.w3.org/2000/svg">
	<symbol id="direction" viewBox="0 0 157 14">
    	<path d="m 0,6.201 56.104,-0.642 50.83,-1.964 c 6.92,-0.455 12.677,-0.997 16.663,-1.606 2,-0.308 3.54,-0.64 4.535,-0.966 0.65784,-0.16040325 1.22134,-0.57383165 1.708,-0.939 l 0.656,0.722 -0.37,0.372 c 0,0 -0.154,0.156 -0.456,0.356 -0.29,0.169 -0.714,0.363 -1.256,0.532 -1.085,0.345 -2.667,0.669 -4.686,0.968 -4.037,0.586 -9.81,1.084 -16.745,1.489 -13.868,0.818 -32.37,1.301 -50.87,1.587 z"/>
    	<path d="m 130.106,0.38 0.448,0.473 c 0.142,0.163 0.317,0.308 0.518,0.481 0.194,0.179 0.43,0.374 0.7,0.572 0.536,0.418 1.212,0.836 1.95,1.261 0.738,0.425 1.557,0.825 2.387,1.192 1.662,0.734 3.38,1.337 4.7,1.683 l 1.597,0.36 0.616,0.073 c 0,0 -0.226,0.009 -0.62,-0.025 -0.544,-0.052 -1.086,-0.132 -1.624,-0.24 -1.338,-0.25 -3.1,-0.721 -4.83,-1.335 l -2.506,-1.03 c -0.786,-0.376 -1.514,-0.757 -2.1,-1.155 -0.497,-0.309 -0.971,-0.662 -1.417,-1.054 L 129.448,1.2 129.063,0.848 129.84,0.084 Z M 0,6.201 56.106,6.56 l 50.9,1.397 c 6.94,0.381 12.724,0.858 16.785,1.432 2.033,0.294 3.633,0.612 4.762,0.968 0.562,0.172 1.026,0.382 1.36,0.575 0.367,0.24 0.57,0.46 0.565,0.445 l 0.38055,0.597788 -1.22963,1.28866 c -0.8665,-0.536233 -1.88088,-0.945606 -2.7238,-1.191599 -1.32374,-0.298917 -2.16619,-0.414822 -3.37612,-0.609849 -3.96,-0.62 -9.7,-1.184 -16.623,-1.665 -13.818,-0.97 -32.3,-1.66 -50.8,-2.152 z"/>
    	<path d="M129.106 10.914l.5-.38c.14-.12.377-.272.64-.443.264-.18.557-.355.87-.515.626-.354 1.38-.682 2.2-1.003l2.566-.86c1.763-.504 3.547-.874 4.9-1.055l1.638-.163.623-.002s-.227.016-.613.088a17.34 17.34 0 0 0-1.583.383c-1.297.36-2.993.968-4.622 1.688l-2.327 1.16c-.715.405-1.366.806-1.872 1.193a6.19 6.19 0 0 0-.655.52l-.477.435-1.134 1.163-1.43-1.592zm17.166-4.423l.03-.327c.038-.2.003-.535.14-.916l.2-.64.34-.716c.146-.24.34-.478.526-.74l.73-.72c.582-.4 1.283-.84 2.137-.996.23-.036.385-.103.696-.113l.616-.006c.195-.02.435.02.7.077.245.053.518.093.75.185.94.33 1.813.966 2.474 1.824.646.876.972 1.98 1.015 3.1l-.08.782c-.002.2-.095.5-.2.797-.153.6-.463 1.05-.75 1.507-.66.858-1.533 1.5-2.472 1.822-.947.278-1.914.368-2.746.143-.373-.047-.798-.243-1.17-.4-.377-.153-.664-.4-.97-.594l-.73-.718-.526-.74-.34-.715c-.086-.227-.13-.448-.2-.64-.14-.38-.104-.707-.14-.917l-.03-.327zm0 0l.037.327c.045.208.006.536.167.907l.226.618.405.657c.17.216.382.418.584.643.228.2.505.368.774.55.3.112.6.296.94.36.336.055.628.15 1.05.116.73.043 1.444-.235 2.083-.563.63-.38 1.134-.934 1.523-1.54.138-.338.325-.668.372-.96.04-.147.108-.27.115-.53l.03-.342.024-.257.004-.042v-.02l.001-.01c-.002.04.006-.107-.004.1a4.96 4.96 0 0 0-.547-2.07c-.388-.607-.893-1.157-1.52-1.54-.15-.095-.302-.14-.454-.224-.145-.08-.304-.16-.526-.2l-.603-.13c-.1-.024-.333-.012-.493-.02-.728-.045-1.4.198-1.995.474l-.775.547-.584.642-.406.657c-.1.216-.155.43-.226.617-.162.37-.123.7-.168.908l-.036.33z"/>
	</symbol>
	<symbol id="center" viewBox="0 0 78.6 20">
		<path d="m 39.336,9.54 c 0,0.001 0.02,0.793 -0.398,1.112 -0.455,0.227 -1.147,0.497 -2.016,0.874 l -3.14,1.337 -4.146,1.676 c -1.554,0.502 -3.13,1.182 -5.047,1.58 l -1.417,0.35 c -0.477,0.125 -0.96,0.24 -1.46,0.292 l -3.04,0.43 -3.158,0.135 -1.628,0.034 -1.596,-0.083 C 9.6097881,17.004068 7.877,16.729415 5.7000678,15.844415 2.6422505,14.611361 0.4453401,12.958205 0.044,9.985 -0.023,9.385 -0.004,8.895 0.038,8.339 0.126,7.264 0.438,6.167 1.078,5.259 1.7,4.337 2.611,3.675 3.536,3.204 4.466,2.707 5.434,2.422 6.38,2.182 8.277,1.736 10.1,1.705 11.742,1.729 c 1.618,0.04 3.198,0.136 4.545,0.532 0.624235,0.1817008 1.233949,0.410009 1.824,0.683 0.52,0.302 1.025,0.518 1.41,0.826 l 1.038,0.783 0.688,0.663 0.55,0.563 L 21.087,5.433 20.262,5.003 19.12,4.515 C 18.059307,4.1718533 16.779123,3.6947103 15.347951,3.4552457 13.75885,3.1893565 11.973594,3.0879761 10.300855,3.1373817 7.4006181,3.3763118 3.8337581,3.508764 1.8444561,6.2242997 -0.60882307,10.511433 2.0879041,13.238042 6.233,14.573 c 1.993,0.596 4.112,0.837 6.125,0.928 l 1.58,0.02 c 0.475,-0.003 1.015,-0.062 1.514,-0.09 l 3,-0.23 2.856,-0.507 c 0.47,-0.064 0.92,-0.188 1.362,-0.322 L 23.983,14 c 1.712,-0.43 3.392,-1.106 4.917,-1.612 l 4.077,-1.587 3.188,-1.213 2.058,-0.766 c 0.52,-0.06 1.042,0.53 1.042,0.53 z"/>
		<path d="m 39.263,9.354 c 0,0 0.008,-0.165 0.064,-0.38 0.048,-0.236 0.156,-0.493 0.353,-0.687 0.197,-0.194 0.504,-0.265 0.836,-0.424 l 4.302,-1.83 4.146,-1.68 c 1.555,-0.5 3.13,-1.183 5.046,-1.58 l 1.417,-0.35 c 0.478,-0.125 0.962,-0.24 1.462,-0.292 l 3.04,-0.43 3.158,-0.135 1.628,-0.034 1.596,0.083 c 2.23,0.167 4.413,0.68 6.484,1.565 3.058139,1.4397899 4.890135,2.4193367 5.669368,5.2016623 0.226102,1.8185857 0.380904,3.6299327 -0.916887,5.3787527 -0.623,0.92 -1.559483,1.447585 -2.484483,1.917585 -0.93,0.492 -1.9,0.764 -2.843,1.017 -1.896,0.455 -3.72,0.483 -5.36,0.47 -1.617,-0.034 -3.198,-0.12 -4.55,-0.507 -0.627191,-0.176861 -1.240241,-0.400488 -1.834,-0.669 -0.525,-0.297 -1.034,-0.5 -1.424,-0.814 L 58,14.4 57.302,13.746 56.739,13.19 l 0.125,-0.156 0.698,0.353 0.814,0.438 c 1.570355,0.692426 3.381848,1.25818 4.848991,1.522686 C 67.177624,16.033393 71.204894,15.823182 74.562,14.57 75.967103,14.065263 76.853652,12.909515 77.14345,12.155106 77.672055,10.784224 77.685492,9.5296345 77.06208,7.5860339 75.960082,5.8790339 74.319,4.934 72.36,4.319 70.367,3.723 68.248,3.482 66.234,3.392 l -1.58,-0.02 c -0.475,0.002 -1.015,0.062 -1.515,0.09 l -3,0.23 -2.856,0.508 c -0.47,0.064 -0.92,0.188 -1.36,0.32 L 54.61,4.893 c -1.712,0.43 -3.393,1.103 -4.918,1.61 L 45.62,8.09 41.252,9.752 c -0.35,0.116 -0.62,0.28 -0.895,0.274 C 40.082,10.02 39.831,9.91 39.637,9.771 39.45,9.655 39.333,9.541 39.333,9.541 Z"/>
		<path stroke-miterlimit="10" d="M29.716 13.308l19.167-7.723" fill="none" stroke="currentColor" stroke-width="2"/>
		<path d="M50.298 1.93c-.005.007-.064-.133-.23-.326-.146-.2-.438-.423-.854-.563-.833-.3-2.152-.246-3.673.172-.77.203-1.553.524-2.437.9l-2.748 1.152-5.992 2.458-6.02 2.383-2.78 1.075-2.593.874c-1.668.42-3.262.265-4.156-.357-.45-.298-.67-.684-.76-.936-.1-.26-.078-.405-.088-.402a1.7 1.7 0 0 0 .229.321c.15.2.44.424.856.565.832.298 2.15.246 3.67-.17.755-.2 1.556-.525 2.437-.9l2.748-1.15 5.993-2.46 6.02-2.382 2.78-1.076 2.593-.874c1.67-.42 3.262-.262 4.155.358.45.3.67.678.764.938.088.26.075.4.086.4zm10.334 8.598c-.005.007-.064-.134-.23-.326-.145-.2-.438-.423-.854-.562-.833-.3-2.15-.245-3.673.173-.77.203-1.552.525-2.437.9L50.7 11.866l-6 2.458-6.02 2.383-2.78 1.075-2.593.875c-1.668.42-3.262.264-4.155-.357a1.95 1.95 0 0 1-.762-.936c-.1-.26-.078-.406-.088-.402a1.7 1.7 0 0 0 .229.321c.15.2.44.424.856.565.832.297 2.15.245 3.67-.172.756-.198 1.556-.525 2.437-.9l2.748-1.15 6-2.458 6.022-2.382 2.78-1.075c.867-.342 1.755-.68 2.593-.875 1.668-.42 3.26-.263 4.154.357.45.3.67.678.764.938.088.258.076.4.087.4z"/>
	</symbol>
</svg>
