<svg xmlns="http://www.w3.org/2000/svg" viewBox="0 0 40 40.169">
	<g transform="matrix(.169492 0 0 .170209 67.602036 -5.5478)">
		<use href="#D" />
		<use href="#D" transform="matrix(1 0 0 -1 0 301.18804)" width="1" height="1"/>
		<use href="#D" transform="rotate(180 -280.852 150.594)" width="1" height="1"/>
		<use href="#D" transform="matrix(-1 0 0 1 -561.70444 0)" width="1" height="1"/>
		<use href="#C" />
		<use href="#C" transform="matrix(1 0 0 -1 0 301.18804)" width="1" height="1"/>
		<use href="#C" transform="rotate(180 -280.852 150.594)" width="1" height="1"/>
		<use href="#C" transform="matrix(-1 0 0 1 -561.70444 0)" width="1" height="1"/>
		<use href="#B" />
		<use href="#B" transform="matrix(1 0 0 -1 0 301.18804)" width="1" height="1"/>
		<use href="#B" transform="rotate(180 -280.852 150.594)" width="1" height="1"/>
		<use href="#B" transform="matrix(-1 0 0 1 -561.70444 0)" width="1" height="1"/>
		<use href="#A" />
		<use href="#A" transform="rotate(90 -280.852 150.594)" width="1" height="1"/>
		<use href="#A" transform="rotate(270 -280.852 150.594)" width="1" height="1"/>
		<use href="#A" transform="matrix(1 0 0 -1 0 301.18804)" width="1" height="1"/>
		<use href="#X" />
	</g>
	<defs>
		<path id="A" d="M-280.663 32.594l-7.484 84.047c-1.13 3.43.305 7.303 3.587 9.105 3.708 2.036 8.382.676 10.422-3.025l.03-.03a7.64 7.64 0 0 0 .526-6.111l-7.082-83.986z"/>
		<path id="B" d="M-364.767 66.797l54.252 64.712c1.63 3.22 5.4 4.95 8.987 3.907a7.67 7.67 0 0 0 5.226-9.494v-.043c-.63-2.126-2.1-3.78-3.958-4.692z"/>
		<path id="C" d="M-325.888 42.686l21.338 66.3.155.525.124.4.062-.03c.5 1.036 1.326 1.935 2.412 2.53 2.78 1.527 6.263.522 7.793-2.253 1.148-2.082.86-4.57-.526-6.327l-31.357-61.145z"/>
		<path id="D" d="M-389.98 105.915l62.9 32.28.022-.065a5.76 5.76 0 0 0 3.499.088c3.048-.883 4.8-4.05 3.914-7.093-.663-2.282-2.63-3.84-4.854-4.103l-65.5-21.105z"/>
		<path id="X" d="M-263.73 160.02a19.545 19.545 0 1 1 .051-.094"/>
	</defs>
</svg>