<svg xmlns="http://www.w3.org/2000/svg" xmlns:xlink="http://www.w3.org/1999/xlink" width="733.33" height="666.67"><style><![CDATA[.B{opacity:0}.C{fill:#23498c}.D{stroke-width:6.81}]]></style><path d="M0 0h687.5v625H0z" fill="#fff"/><g class="C"><g fill-rule="evenodd"><path d="M312.75 5.75c-169.2 0-306.5 137.3-306.5 306.5s137.3 306.5 306.5 306.5c154.15 0 281.8-114 303.28-262.22h-23.95c-21.28 135.1-138.3 238.5-279.33 238.5-156.1 0-282.8-126.7-282.8-282.8s126.68-282.8 282.8-282.8c140.53 0 257.2 102.7 279.08 237.08h24C593.72 119 466.4 5.75 312.75 5.75z"/><path d="M612 245.1l.07 36.04c16.4 0 31.92 13.52 31.92 30.17s-15.52 30.23-31.92 30.23H612v35.98c.05 0 .1.04.14.04 36.7 0 68.72-29.7 68.72-66.25s-32-66.2-68.7-66.2c-.05 0-.1 0-.15 0z"/><path d="M493.68 245.08h120.94v36.07H493.68zm-.94 96.45h121.88v36.02H492.74z"/><path d="M310.62 89.77c-111.96 0-204.5 83.38-219.04 191.38h37.2c14.23-87.6 90.25-154.54 181.83-154.54s167.6 66.95 181.83 154.54h37.2c-14.53-108-107.06-191.38-219.02-191.38zM89.77 301.48l-.24 9.38c0 122.04 99.05 221.1 221.1 221.1 111.63 0 203.96-82.88 218.9-190.42h-37.26c-14.63 87.1-90.4 153.58-181.65 153.58-101.7 0-184.25-82.55-184.25-184.25 0-3.15.08-6.27.24-9.38H89.77z"/><path d="M300.88 82.1l-4.3 9.2 30.25-.03-4.44-9.17h-21.5z"/></g><path d="M562.07 424.05L530.3 410.6l3.5-8.26 31.77 13.46-3.5 8.26m-15.13 24.44l-3.9-2.16-1.13 2.03-3.9-2.17 1.13-2.03-13.23-7.34c-1.63-.9-2.58-1.33-2.85-1.27-.28.07-.77.72-1.45 1.95l-4-2.2 1.7-3.04c.95-1.7 1.7-2.9 2.24-3.56a4.6 4.6 0 0 1 2.06-1.39 3.8 3.8 0 0 1 2.35-.06c.75.24 2.35 1.04 4.8 2.4l12.56 6.97.9-1.62 3.9 2.17-.9 1.62 3.9 2.16-4.2 7.55m-7.46 16.66l-6.44-4.33c.15 1 .13 1.94-.06 2.84a7.5 7.5 0 0 1-1.12 2.58c-.84 1.25-1.87 2.1-3.1 2.54-1.23.46-2.33.5-3.3.12-.96-.35-2.54-1.27-4.75-2.76l-16.18-10.88 4.8-7.14 16.5 11.1a12 12 0 0 0 2.78 1.56c.48.13.87-.04 1.2-.5.3-.44.3-.87-.01-1.3a9.9 9.9 0 0 0-2.23-1.84L510.8 445.9l4.8-7.14 28.63 19.26-4.8 7.14M503 486.1l-5.3-4.44c-1.95-1.63-3.3-2.93-4.05-3.9-.74-.95-1.24-2.08-1.5-3.4a7.5 7.5 0 0 1 .33-3.95 13 13 0 0 1 2.34-3.93 16.4 16.4 0 0 1 3.58-3.32c1.17-.74 2.32-1.13 3.44-1.15a7.7 7.7 0 0 1 3.35.77c1.13.53 2.6 1.57 4.45 3.1l5.56 4.65c2.02 1.7 3.4 3.22 4.18 4.6s1.02 2.93.76 4.64a10.8 10.8 0 0 1-2.6 5.21 12.7 12.7 0 0 1-3.85 3.25 7.9 7.9 0 0 1-3.78 1.03 7.8 7.8 0 0 1-3.18-.65c-.93-.4-2.17-1.26-3.7-2.54m7.16-5.24c1.1.93 1.86 1.45 2.24 1.57.4.13.76-.01 1.08-.4s.4-.78.2-1.15c-.17-.37-.82-1.02-1.93-1.95l-9.8-8.2c-1.02-.86-1.75-1.35-2.18-1.48-.4-.12-.78 0-1.1.4-.33.4-.4.77-.22 1.12a6.9 6.9 0 0 0 1.67 1.73l10 8.36m-19.1 31.27l-19.7-20.28 6.28-6.1 1.53 1.8a6 6 0 0 1 .1-3.1 6.2 6.2 0 0 1 1.67-2.6 6.8 6.8 0 0 1 2.78-1.75 4.5 4.5 0 0 1 2.62-.02c.8.26 1.53.65 2.17 1.16a50.3 50.3 0 0 1 3.51 3.4l13.3 13.68-6.18 6-13.4-13.8c-1.53-1.58-2.5-2.47-2.87-2.68-.4-.2-.8-.1-1.23.33-.46.45-.58.86-.36 1.25.2.4 1.1 1.42 2.73 3.08l13.26 13.65-6.18 6m-21.23 17.22l-13.5-17.1-3.37-4.6c-.43-.75-.6-1.75-.56-3a7.6 7.6 0 0 1 1.35-3.86c.83-1.3 2.12-2.65 3.87-4.04 2.15-1.7 4.17-2.7 6.06-3 1.88-.3 3.68.6 5.42 2.7l-6.55 5.18c-.78-.98-1.52-1.2-2.23-.63-.5.4-.73.82-.66 1.26s.48 1.13 1.24 2.1l1.32 1.67a8.4 8.4 0 0 1 .9-2.64 6.5 6.5 0 0 1 1.69-1.99 7.1 7.1 0 0 1 3.6-1.64 4.8 4.8 0 0 1 3.12.65c.92.57 1.97 1.6 3.13 3.07l6.37 8.06c1.66 2.1 2.48 3.92 2.46 5.45s-.82 2.9-2.36 4.12a6.5 6.5 0 0 1-2.72 1.3 7.1 7.1 0 0 1-3.1-.08l.84 2.06-6.3 4.97m2.12-11.24c.8 1 1.37 1.6 1.72 1.8.33.2.7.13 1.1-.2.4-.3.54-.7.45-1.15-.1-.44-.5-1.12-1.25-2.06l-5.9-7.46c-.78-1-1.36-1.6-1.72-1.8-.35-.2-.72-.14-1.1.17-.45.35-.6.76-.45 1.22a11.3 11.3 0 0 0 1.72 2.58l5.43 6.87m-13.04 26.05l-4.15-6.55a7.7 7.7 0 0 1-1.2 2.57 7.5 7.5 0 0 1-2.07 1.91 6.4 6.4 0 0 1-3.86 1.08c-1.3-.08-2.33-.48-3.06-1.2-.74-.7-1.8-2.2-3.23-4.43l-10.43-16.48 7.28-4.6 10.64 16.82c.88 1.4 1.52 2.24 1.9 2.55.38.3.8.32 1.3.01.44-.28.62-.68.5-1.18s-.54-1.37-1.3-2.58L440.46 515l7.28-4.6 18.45 29.15-7.28 4.6m-26 12l-2.05-3.95-2.06 1.07-2.06-3.97 2.06-1.07-6.98-13.43c-.86-1.65-1.42-2.53-1.68-2.63-.27-.1-1.04.18-2.28.83l-2.1-4.05 3.08-1.6c1.74-.9 3.02-1.48 3.83-1.73a4.6 4.6 0 0 1 2.49-.02 3.8 3.8 0 0 1 1.99 1.25c.5.6 1.4 2.16 2.68 4.66l6.62 12.74 1.65-.85 2.06 3.97-1.65.85 2.05 3.95-7.66 3.98m-46.8 14.78l-6.18-27.8 8.82-3.1 6.2 12.27a116.3 116.3 0 0 1-1.6-7.4l-1.14-6.1 8.82-3.1 12.85 25.45-7 2.47a1255 1255 0 0 0-7.15-14.63 1031.7 1031.7 0 0 1 3.57 15.89l-6.73 2.38-7.03-14.67c1.32 4.54 2.5 9.84 3.53 15.9l-7 2.47m-13.5 9.54l-1.72-7.56c-.57.83-1.23 1.5-2 2.03a7.5 7.5 0 0 1-2.59 1.11 6.4 6.4 0 0 1-4-.27c-1.2-.5-2.04-1.23-2.48-2.17-.46-.92-.98-2.67-1.57-5.26l-4.32-19 8.4-1.9 4.4 19.4c.37 1.6.68 2.62.95 3.04.26.42.66.57 1.22.44.5-.12.8-.43.88-.94s-.05-1.47-.37-2.87l-4.47-19.68 8.4-1.9 7.64 33.64-8.4 1.9m-28.76-12.23l8.02-1 .23 1.88c.27 2.17.23 3.87-.12 5.1-.36 1.25-1.24 2.42-2.64 3.5s-3.3 1.78-5.7 2.08c-2.9.36-5.13.1-6.73-.74-1.6-.83-2.63-1.98-3.1-3.44-.48-1.44-1-4.48-1.58-9.12l-1.74-14.08 8.3-1.03.3 2.5a5.5 5.5 0 0 1 1.75-2.5c.76-.6 1.7-.96 2.85-1.1a7.4 7.4 0 0 1 4.28.74c1.35.7 2.2 2.46 2.54 5.3l.3 2.3c.26 2.1.1 3.57-.46 4.42s-2.1 1.93-4.6 3.27c-2.67 1.45-4.08 2.37-4.23 2.78s-.15 1.2-.01 2.36c.18 1.47.4 2.4.7 2.8.27.42.65.6 1.16.54.58-.07.9-.3 1-.7.1-.38.05-1.36-.15-2.92l-.36-2.94m-3.18-3.5c1.24-1.17 1.94-2.1 2.08-2.8a10.4 10.4 0 0 0-.04-2.96c-.18-1.45-.4-2.38-.62-2.78-.25-.4-.66-.56-1.22-.5-.54.07-.86.27-.98.6-.13.36-.1 1.24.07 2.65l.7 5.77m-23.95 20.36l-.17-4.45-2.32.1-.17-4.47 2.32-.1-.56-15.12c-.07-1.86-.2-2.9-.4-3.1s-1-.28-2.42-.23l-.17-4.56 3.47-.13c1.96-.07 3.36-.05 4.2.08a4.6 4.6 0 0 1 2.26 1.05 3.8 3.8 0 0 1 1.27 1.98c.18.76.33 2.55.43 5.36l.54 14.35 1.85-.07.17 4.47-1.85.07.17 4.45-8.62.32m-30.03 1.48l2.45-34.4 8.95.64-2.45 34.4-8.95-.64m-6.53-11.85l.4 5.9-.66 5.24-6.47-.8.66-5.24 1.7-5.65 4.38.55m-33.5 5.47l6.86-33.8 8.44 1.7-.4 2a8.9 8.9 0 0 1 2.93-1.36 6.6 6.6 0 0 1 2.93-.06c1.3.27 2.37.84 3.2 1.7a4.8 4.8 0 0 1 1.37 2.78c.08.96-.1 2.46-.5 4.5l-2.63 12.97c-.43 2.13-.87 3.6-1.32 4.45a4.6 4.6 0 0 1-2.35 1.96c-1.1.48-2.34.6-3.7.32a7.3 7.3 0 0 1-2.75-1.14c-.8-.55-1.48-1.28-2.04-2.17l-1.6 7.85-8.44-1.7m11.1-11.36c-.2 1.02-.25 1.72-.14 2.1.1.38.4.63.92.73.5.1.87.01 1.12-.27.23-.27.45-.95.67-2.04L263 555.8c.23-1.13.3-1.9.2-2.3-.1-.38-.38-.62-.85-.72-.54-.1-.94.01-1.2.36-.26.37-.55 1.32-.86 2.87l-2.6 12.82m-50.05-1.08l11.78-32.43 8.1 2.94-.7 1.92a8.9 8.9 0 0 1 3.1-.91 6.5 6.5 0 0 1 2.9.37 5.8 5.8 0 0 1 2.9 2.17 4.8 4.8 0 0 1 .95 2.95c-.06.96-.45 2.42-1.16 4.38L231 561.58c-.74 2.04-1.4 3.45-1.96 4.2a4.6 4.6 0 0 1-2.62 1.59c-1.17.3-2.4.24-3.7-.23-1-.36-1.85-.88-2.55-1.54a7.6 7.6 0 0 1-1.7-2.45l-2.74 7.53-8.1-2.94m12.65-9.6c-.35.97-.5 1.66-.45 2.06.04.4.3.68.8.86.48.17.86.14 1.15-.1.27-.24.6-.87.97-1.92l4.73-13.02c.4-1.08.57-1.83.54-2.23-.04-.4-.3-.67-.74-.84-.52-.2-.94-.13-1.25.18-.3.32-.74 1.23-1.28 2.7l-4.47 12.3m-31.04-16.7l3-6.24c1.1-2.3 2.03-3.92 2.78-4.88.74-.95 1.72-1.7 2.92-2.28a7.5 7.5 0 0 1 3.91-.65 13 13 0 0 1 4.38 1.31 16.4 16.4 0 0 1 4.09 2.66 6.8 6.8 0 0 1 1.96 3.05 7.8 7.8 0 0 1 .07 3.44c-.24 1.22-.88 2.92-1.93 5.08l-3.14 6.53c-1.14 2.37-2.3 4.1-3.44 5.18s-2.6 1.7-4.3 1.87a10.8 10.8 0 0 1-5.69-1.25c-1.74-.84-3.1-1.82-4.1-2.94a7.9 7.9 0 0 1-1.93-3.41 7.8 7.8 0 0 1-.14-3.24c.17-1 .7-2.4 1.56-4.22m6.83 5.66c-.63 1.3-.95 2.16-.97 2.56-.03.4.2.73.65.95s.85.2 1.17-.07c.3-.26.8-1.04 1.4-2.35l5.54-11.5c.58-1.2.88-2.03.9-2.47.02-.43-.2-.76-.64-.97-.46-.22-.84-.2-1.14.06s-.74.94-1.27 2.04l-5.66 11.75m-51.24-22.4l18.97-21.25 7.68 5.34a472.4 472.4 0 0 1-6.34 12.2 110 110 0 0 1 5.07-5.6l4.3-4.5 7.68 5.34-13.17 25.3-6.1-4.24a1195.2 1195.2 0 0 0 7.7-14.35c-.65.8-4.26 4.85-10.8 12.18l-5.86-4.08 7.8-14.27c-2.92 3.72-6.53 7.77-10.85 12.15l-6.1-4.24m-3.56-17.66l6.05 5.35-1.26 1.42c-1.45 1.64-2.75 2.74-3.9 3.3-1.17.56-2.63.67-4.37.35s-3.52-1.3-5.34-2.9c-2.18-1.93-3.48-3.77-3.9-5.53-.43-1.74-.26-3.28.52-4.6.76-1.32 2.7-3.72 5.8-7.23l9.4-10.64 6.28 5.55-1.67 1.88c1.06-.4 2.08-.53 3.04-.35a5.5 5.5 0 0 1 2.7 1.4 7.3 7.3 0 0 1 2.28 3.7c.37 1.47-.4 3.27-2.28 5.4l-1.54 1.74c-1.4 1.6-2.6 2.45-3.62 2.58s-2.84-.3-5.5-1.28c-2.85-1.04-4.48-1.48-4.88-1.33s-1 .68-1.78 1.56c-.98 1.1-1.53 1.9-1.65 2.38-.14.48-.02.9.36 1.23.44.4.83.48 1.2.3.35-.18 1.05-.86 2.1-2.05l1.96-2.22m.52-4.7c1.7.16 2.86.05 3.48-.3a10.4 10.4 0 0 0 2.19-1.99c.97-1.1 1.53-1.87 1.67-2.3.13-.45-.01-.86-.44-1.24-.4-.36-.77-.47-1.1-.32-.35.14-1 .75-1.94 1.8l-3.85 4.36m-27.3-19.24l5.2 5.6-1.12 1.04a7.7 7.7 0 0 0-1.65 1.85c-.16.35-.04.74.36 1.17.33.35.7.5 1.1.46s.82-.27 1.3-.7c.63-.6 1.06-1.07 1.3-1.43.2-.36.28-.93.23-1.7-.06-.78-.4-2.17-1-4.17-.8-2.66-1.08-4.65-.82-5.96s1.14-2.66 2.65-4.06c1.7-1.57 3.16-2.53 4.43-2.9a6 6 0 0 1 4.03.36 12.3 12.3 0 0 1 4.13 3.06c1.5 1.6 2.52 3.2 3.08 4.82.55 1.6.6 3 .15 4.23s-1.55 2.63-3.28 4.24l-1 .93-5.2-5.6 1.3-1.22c1.1-1.03 1.77-1.77 1.98-2.22.2-.46.1-.9-.28-1.3-.42-.45-.82-.66-1.2-.63-.4.04-.95.4-1.67 1.05-1 .92-1.5 1.6-1.54 2.07-.03.47.37 2.38 1.2 5.73.68 2.82.8 4.82.32 6a9.6 9.6 0 0 1-2.46 3.42c-1.65 1.54-3.08 2.45-4.26 2.74a5.8 5.8 0 0 1-3.89-.52 13.2 13.2 0 0 1-4.03-3.06c-1.28-1.37-2.18-2.7-2.72-4a7.4 7.4 0 0 1-.7-3.5 5.1 5.1 0 0 1 .72-2.42c.38-.57 1.1-1.34 2.13-2.3l1.2-1.12m2.33-16.93l2.4-1.94c1.26-1.02 2.4-1.7 3.46-2.06a5.6 5.6 0 0 1 3.3-.1 7.7 7.7 0 0 1 3.14 1.57l-1.92 1.56c-.9-.36-1.72-.33-2.42.1l.9 1.13-5.25 4.25-3.63-4.5m-37.93-5.54l28.78-19.02 4.95 7.5-28.78 19.02-4.95-7.5"/><path d="M84.25 448.22l-4.44 3.92-4.56 2.68-3.3-5.62 4.56-2.68 5.5-2.1 2.23 3.8m-24.54-22.7l30.94-15.27 3.8 7.72-1.83.9a8.9 8.9 0 0 1 2.87 1.48c.78.63 1.4 1.4 1.84 2.28.6 1.2.8 2.4.6 3.58a4.8 4.8 0 0 1-1.36 2.79c-.7.65-2 1.44-3.87 2.36l-11.87 5.86c-1.95.96-3.4 1.52-4.33 1.68a4.6 4.6 0 0 1-2.99-.66 6 6 0 0 1-2.5-2.73 7.3 7.3 0 0 1-.78-2.87c-.05-.97.1-1.95.47-2.94l-7.2 3.55-3.8-7.72m15.77 1.82a5.4 5.4 0 0 0-1.75 1.17c-.24.3-.25.7-.02 1.17.23.46.53.7.9.72.36.01 1.03-.22 2.02-.7l12.42-6.13c1.03-.5 1.68-.92 1.93-1.24.24-.3.26-.68.04-1.1-.25-.5-.6-.74-1.03-.73-.45.02-1.38.37-2.8 1.07l-11.73 5.8M55.1 395.95l2.42-.62a8 8 0 0 1-2.93-1.72 6.3 6.3 0 0 1-1.64-2.65 5.6 5.6 0 0 1-.03-3.62c.37-1.15.97-2 1.8-2.5s2.3-1.12 4.43-1.8l11.34-3.66c2.45-.8 4.24-1.2 5.38-1.24 1.12-.05 2.14.28 3.05 1a5.9 5.9 0 0 1 1.96 2.95c.33 1 .4 2.03.2 3.05a8.1 8.1 0 0 1-1.34 3.05l6.16-2 2.64 8.2-30.74 9.92-2.7-8.33m7.08-4.86c-1.66.54-2.65.92-2.96 1.16s-.38.63-.2 1.18c.17.54.5.83.95.86.45.02 1.46-.22 3-.73l11.15-3.6c1.62-.52 2.6-.93 2.96-1.23s.44-.7.27-1.25c-.17-.53-.46-.8-.86-.8-.42-.01-1.35.2-2.78.67l-11.54 3.72M47.9 369.43l3.7-.5c-2.87-.63-4.64-2.1-5.32-4.37l9.7-2.2c.35 1.54.8 2.62 1.4 3.25s1.26.94 2.05.93c.77 0 2.5-.3 5.17-.9l10.9-2.47 1.9 8.4-27.58 6.25-1.9-8.4m9.46-32.72l1.5 11.04 6.06-.82c1.27-.17 2.07-.37 2.4-.6s.48-.6.4-1.13c-.1-.65-.4-1.04-.9-1.2-.52-.16-1.48-.14-2.88.05l-3.7.5-1.1-8.1 2.07-.28c1.73-.24 3.08-.3 4.04-.2.96.08 2.02.46 3.18 1.12a7.6 7.6 0 0 1 2.8 2.74c.7 1.15 1.16 2.66 1.4 4.52a13.6 13.6 0 0 1-.13 4.88 7.8 7.8 0 0 1-1.7 3.52 8 8 0 0 1-2.78 1.99 20.8 20.8 0 0 1-4.7 1.1l-8.17 1.1c-2.45.33-4.42.26-5.92-.2a6.8 6.8 0 0 1-3.69-2.81c-.96-1.4-1.58-3.08-1.85-5.04-.33-2.4-.14-4.43.57-6.1.7-1.68 1.74-2.94 3.17-3.76 1.4-.84 3.47-1.44 6.18-1.8l3.72-.5m-3.4 9.17l-2.05.28c-1.45.2-2.38.4-2.78.6s-.57.56-.5 1.04c.08.6.3.93.7 1.02.37.1 1.34.03 2.92-.18l2.05-.28-.34-2.5m-15.8-23.47l4.45-.23-.12-2.32 4.47-.23.12 2.32 15.1-.78c1.86-.1 2.9-.24 3.1-.44s.27-1.02.2-2.42l4.55-.23.18 3.47a25.1 25.1 0 0 1-.02 4.2 4.6 4.6 0 0 1-1.01 2.27 3.8 3.8 0 0 1-1.96 1.3c-.76.2-2.54.37-5.35.5l-14.34.74.1 1.85-4.47.23-.1-1.85-4.45.23-.44-8.62m18.73-28.42l-.38 11.14 6.1.2c1.28.04 2.1-.02 2.48-.2s.57-.52.6-1.05c.02-.65-.2-1.1-.68-1.32-.5-.24-1.44-.4-2.84-.44l-3.73-.13.28-8.16 2.1.07c1.75.06 3.08.22 4 .48.93.24 1.9.8 2.95 1.64a7.6 7.6 0 0 1 2.3 3.17c.48 1.25.7 2.82.63 4.7a13.6 13.6 0 0 1-.95 4.79c-.57 1.37-1.33 2.44-2.26 3.2a8 8 0 0 1-3.08 1.49c-1.12.26-2.73.36-4.83.28l-8.24-.28c-2.47-.08-4.4-.48-5.8-1.2a6.8 6.8 0 0 1-3.17-3.39c-.72-1.55-1.04-3.3-.97-5.28.08-2.4.6-4.4 1.6-5.92a7.4 7.4 0 0 1 3.75-3.18c1.53-.6 3.66-.84 6.4-.74l3.75.13m-4.9 8.47l-2.07-.07c-1.46-.05-2.4 0-2.84.14s-.66.45-.67.94c-.02.6.15.97.52 1.13.35.15 1.32.26 2.9.3l2.07.07.1-2.5m-7.9-25.35l2.56.5a6.4 6.4 0 0 1-1.99-2.58 6.2 6.2 0 0 1-.35-3.2 5.9 5.9 0 0 1 1.53-3.45c.83-.85 1.77-1.3 2.86-1.43 1.08-.12 2.84-.02 5.3.32l19.63 2.7-1.17 8.53-19.4-2.67c-1.93-.27-3.1-.36-3.55-.3s-.7.4-.78.97c-.08.6.1 1.02.58 1.24.46.22 1.74.48 3.85.77l18.94 2.6-1.17 8.53-28-3.86 1.2-8.68m1.72-39.76l33.5 8.27-2.06 8.36-2-.5a8.9 8.9 0 0 1 1.24 2.98c.2.98.17 1.96-.06 2.93a5.8 5.8 0 0 1-1.85 3.12 4.8 4.8 0 0 1-2.83 1.25c-.96.04-2.46-.2-4.48-.7l-12.85-3.17a18.7 18.7 0 0 1-4.4-1.5 4.6 4.6 0 0 1-1.86-2.43c-.44-1.13-.5-2.37-.16-3.7.26-1.03.68-1.93 1.26-2.7.6-.78 1.34-1.43 2.26-1.94l-7.78-1.92 2.06-8.36m10.9 11.56c-1-.25-1.7-.33-2.1-.23-.4.08-.64.38-.77.9-.12.5-.05.87.23 1.13.26.24.93.5 2 .76l13.45 3.32c1.12.28 1.88.38 2.27.3.4-.08.64-.35.75-.82.13-.54.03-.94-.3-1.22-.36-.28-1.3-.6-2.83-.98l-12.7-3.14m-1.22-39.3l32.2 12.4-3.22 8.37-32.2-12.4 3.22-8.37m27.17-40.4l23.07 16.7-4.53 8.18-12.8-5.06 6.1 4.47 4.9 3.8-4.53 8.18-26.5-10.5 3.6-6.5c.67.3 5.7 2.37 15.06 6.2-.85-.57-5.26-3.74-13.22-9.5l3.46-6.24 15 6.3c-4-2.52-8.4-5.7-13.2-9.55l3.6-6.5m17.2-5.38l-4.7 6.57-1.54-1.1c-1.78-1.27-3-2.45-3.67-3.55s-.94-2.55-.8-4.3.92-3.64 2.34-5.6c1.7-2.37 3.4-3.85 5.1-4.45s3.24-.6 4.63.04c1.4.63 3.98 2.3 7.78 5.02l11.54 8.26-4.87 6.8-2.05-1.46c.5 1 .74 2 .66 3-.08.96-.45 1.9-1.12 2.84-.88 1.22-2.02 2.1-3.44 2.65-1.42.52-3.3-.05-5.6-1.7l-1.9-1.35c-1.72-1.23-2.7-2.34-2.94-3.33s0-2.86.7-5.6c.74-2.94 1.02-4.6.82-5s-.77-.92-1.73-1.6c-1.2-.86-2.05-1.33-2.54-1.4a1.1 1.1 0 0 0-1.2.5c-.34.47-.4.88-.16 1.22.22.33.97.95 2.25 1.87l2.4 1.72m4.74.04c.02 1.7.24 2.85.66 3.43a10.4 10.4 0 0 0 2.21 1.97c1.2.85 2 1.33 2.47 1.42.46.1.86-.1 1.2-.56.3-.44.38-.82.2-1.13-.18-.34-.84-.92-2-1.75l-4.73-3.38m16.34-29.15l-5.03 5.74-1.15-1a7.7 7.7 0 0 0-2.01-1.45c-.36-.13-.74.03-1.13.48-.32.36-.43.74-.35 1.14s.35.8.84 1.2a7.9 7.9 0 0 0 1.56 1.14c.38.17.95.18 1.7.05.77-.14 2.1-.6 4.04-1.42 2.57-1.08 4.5-1.55 5.84-1.43s2.77.86 4.3 2.22c1.73 1.52 2.84 2.9 3.34 4.1a6 6 0 0 1 .06 4.04c-.45 1.46-1.32 2.93-2.62 4.42-1.44 1.65-2.93 2.83-4.48 3.56-1.53.72-2.93.9-4.2.58s-2.78-1.27-4.55-2.82l-1.03-.9 5.03-5.74 1.35 1.18c1.14 1 1.95 1.58 2.4 1.74.47.15.9.01 1.27-.42.4-.46.57-.88.5-1.26-.08-.4-.48-.9-1.22-1.55-1.02-.9-1.75-1.33-2.22-1.32-.47.02-2.33.6-5.58 1.77-2.73.97-4.72 1.28-5.95.94-1.24-.35-2.46-1.05-3.66-2.1-1.7-1.5-2.75-2.8-3.16-3.96a5.8 5.8 0 0 1 .12-3.92 13.2 13.2 0 0 1 2.63-4.33 13.7 13.7 0 0 1 3.7-3.1c1.22-.68 2.36-1.03 3.4-1.04 1.06-.02 1.88.14 2.48.47a14.3 14.3 0 0 1 2.5 1.9l1.23 1.08m28.3-24.83l4.5 5.25c1.66 1.93 2.78 3.43 3.36 4.5a8 8 0 0 1 .92 3.6 7.5 7.5 0 0 1-.97 3.84 13 13 0 0 1-2.95 3.49 16.4 16.4 0 0 1-4.07 2.68 6.7 6.7 0 0 1-3.58.57c-1.1-.17-2.16-.6-3.18-1.3s-2.32-1.98-3.88-3.8l-4.72-5.5c-1.7-2-2.83-3.74-3.37-5.23a7 7 0 0 1 .01-4.7 10.8 10.8 0 0 1 3.43-4.71c1.47-1.26 2.9-2.12 4.34-2.57a7.9 7.9 0 0 1 3.9-.4 7.8 7.8 0 0 1 3.02 1.17c.85.56 1.93 1.6 3.24 3.12m-7.92 4a9.2 9.2 0 0 0-1.96-1.92c-.37-.2-.75-.12-1.13.22s-.52.7-.4 1.1c.1.4.64 1.14 1.58 2.24l8.32 9.68c.87 1 1.5 1.62 1.9 1.82s.77.12 1.15-.2c.4-.33.52-.7.4-1.07-.1-.4-.57-1.05-1.36-1.98l-8.5-9.9m15.18-21.58l1.36 2.22a6.4 6.4 0 0 1 .55-3.21c.45-.95 1.16-1.76 2.13-2.43 1.2-.84 2.4-1.24 3.57-1.2a4.7 4.7 0 0 1 3 1.14c.82.7 1.93 2.08 3.34 4.1l11.28 16.3-7.08 4.9-13.33-18.92c-.35-.28-.76-.25-1.24.08-.5.35-.68.77-.52 1.27.15.5.83 1.6 2.04 3.36l10.88 15.72-7.08 4.9-16.1-23.25 7.2-5m40.17-7.12l-9.77 5.37 2.95 5.36c.62 1.12 1.1 1.8 1.43 2.03s.74.23 1.2-.03c.57-.3.84-.74.8-1.26a7.9 7.9 0 0 0-1.08-2.67l-1.8-3.27 7.15-3.93 1 1.83c.84 1.53 1.4 2.76 1.64 3.7a7.9 7.9 0 0 1 .1 3.37 7.6 7.6 0 0 1-1.55 3.6c-.83 1.06-2.07 2.04-3.7 2.94a13.6 13.6 0 0 1-4.6 1.63c-1.47.2-2.77.1-3.9-.3a8 8 0 0 1-2.86-1.88 19.1 19.1 0 0 1-2.7-4l-3.97-7.23c-1.2-2.17-1.84-4.03-1.94-5.6a6.8 6.8 0 0 1 1.29-4.46 11.4 11.4 0 0 1 4.04-3.53c2.12-1.16 4.08-1.72 5.9-1.66 1.82.04 3.37.57 4.65 1.6 1.3 1 2.6 2.72 3.9 5.12l1.8 3.3m-9.78.13l-1-1.8c-.7-1.28-1.23-2.07-1.57-2.37s-.73-.33-1.15-.1c-.52.3-.76.63-.7 1.02.05.38.45 1.27 1.22 2.66l1 1.8 2.2-1.2"/><path d="M229.4 66.55l2.42 6.5c.9 2.38 1.42 4.18 1.6 5.38.17 1.2.05 2.42-.37 3.7a7.5 7.5 0 0 1-2.24 3.27 13 13 0 0 1-3.98 2.26c-1.78.67-3.37 1.04-4.75 1.1-1.4.06-2.57-.17-3.56-.7-.98-.55-1.82-1.32-2.53-2.33-.72-1.02-1.5-2.66-2.33-4.9l-2.53-6.8c-.92-2.46-1.37-4.48-1.35-6.07s.56-3.05 1.63-4.4a10.8 10.8 0 0 1 4.84-3.24c1.8-.68 3.46-.98 4.96-.92a7.9 7.9 0 0 1 3.8.97 7.8 7.8 0 0 1 2.44 2.14c.6.82 1.26 2.17 1.96 4.04m-8.8 1c-.5-1.36-.9-2.18-1.17-2.47-.28-.3-.66-.37-1.14-.2s-.73.48-.76.9c-.03.4.2 1.3.7 2.64l4.46 11.96c.47 1.25.85 2.04 1.16 2.37.3.3.68.38 1.15.2.48-.18.73-.47.74-.87.03-.4-.17-1.18-.6-2.33l-4.56-12.22m21.28-21.35l1.2 4.2c-1.7.48-2.7.85-2.96 1.1-.26.24-.28.72-.07 1.46l.24.86 3.5-1 1.22 4.3-1.97.56 6.3 22.25-8.28 2.34-6.3-22.25-1.7.48-1.22-4.3 1.7-.48c-.5-1.8-.78-3-.83-3.64a3.1 3.1 0 0 1 .45-1.85 4.9 4.9 0 0 1 1.74-1.67c.8-.5 2.13-1 3.98-1.52l3.03-.86m26.67-2.98l.76 4.4 2.3-.4.76 4.4-2.3.4 2.57 14.9c.32 1.83.58 2.84.8 3.02.23.18 1.04.15 2.43-.1l.77 4.5-3.42.6c-1.93.33-3.32.5-4.18.48a4.6 4.6 0 0 1-2.38-.74 3.8 3.8 0 0 1-1.52-1.79 37.3 37.3 0 0 1-1.14-5.25l-2.44-14.15-1.83.3-.76-4.4 1.83-.3-.76-4.4 8.5-1.46m17.4-4.6l.67 7.73a7.8 7.8 0 0 1 2.25-1.73 7.5 7.5 0 0 1 2.72-.75 6.3 6.3 0 0 1 3.92.82c1.13.67 1.85 1.5 2.16 2.5.33.97.6 2.78.83 5.43L300.2 72l-8.58.74-1.7-19.83c-.14-1.64-.32-2.7-.53-3.14-.2-.45-.58-.66-1.14-.6-.52.05-.86.32-1 .8s-.15 1.46-.03 2.9l1.73 20.1-8.58.74-2.96-34.37 8.58-.74m39.16 15.2l-.12 6.92c-.04 2.54-.2 4.4-.48 5.6-.28 1.17-.84 2.27-1.7 3.3a7.5 7.5 0 0 1-3.28 2.22 13 13 0 0 1-4.53.64 16.6 16.6 0 0 1-4.83-.7c-1.3-.45-2.33-1.1-3.06-1.95-.7-.87-1.2-1.9-1.5-3.1s-.42-3.02-.37-5.42l.13-7.24c.05-2.63.37-4.68.96-6.14s1.64-2.64 3.13-3.5a10.8 10.8 0 0 1 5.69-1.24 12.6 12.6 0 0 1 4.95.96 7.9 7.9 0 0 1 3.18 2.29 7.8 7.8 0 0 1 1.48 2.88c.27 1 .38 2.48.35 4.48m-8.57-2.28c.03-1.45-.04-2.36-.2-2.73-.15-.4-.48-.58-1-.6s-.86.18-1.03.56c-.18.37-.28 1.27-.3 2.72l-.23 12.76c-.02 1.34.05 2.2.2 2.63.16.4.5.6 1 .6.5.01.85-.17 1-.54.18-.37.28-1.16.3-2.38l.23-13.04m33.04 3.98l-7.58-.9.18-1.52a7.7 7.7 0 0 0 .06-2.48c-.1-.37-.45-.6-1.04-.66-.48-.06-.86.06-1.14.36-.28.28-.45.74-.53 1.38-.1.86-.12 1.5-.05 1.92.08.4.4.9.93 1.44.55.55 1.7 1.4 3.46 2.53 2.34 1.5 3.84 2.84 4.5 4s.86 2.77.62 4.8c-.27 2.3-.77 3.98-1.5 5.08a6 6 0 0 1-3.3 2.34c-1.46.46-3.16.57-5.13.34-2.17-.25-4-.8-5.47-1.67-1.46-.86-2.4-1.9-2.85-3.12s-.53-3-.25-5.35l.16-1.35 7.58.9-.2 1.78c-.18 1.5-.2 2.5-.07 2.97.14.47.5.75 1.06.8.6.07 1.05-.03 1.32-.3.28-.28.47-.9.6-1.88.16-1.34.1-2.2-.17-2.57-.28-.38-1.83-1.57-4.62-3.6-2.35-1.7-3.73-3.16-4.14-4.37-.4-1.22-.53-2.62-.34-4.2.26-2.24.75-3.86 1.47-4.85a5.8 5.8 0 0 1 3.3-2.12 13.2 13.2 0 0 1 5.05-.29c1.86.22 3.4.64 4.66 1.28 1.26.62 2.2 1.36 2.8 2.2.6.86.95 1.63 1.02 2.3.08.68.03 1.73-.13 3.14l-.2 1.63m24.78 10.82l-10.9-2.38-1.3 5.97c-.27 1.25-.36 2.07-.26 2.47s.4.66.92.77c.64.14 1.1 0 1.42-.43.33-.44.64-1.34.94-2.72l.8-3.64 7.97 1.75-.45 2.04c-.37 1.7-.77 3-1.2 3.86-.4.87-1.12 1.74-2.14 2.6a7.6 7.6 0 0 1-3.53 1.69 12 12 0 0 1-4.73-.23 13.6 13.6 0 0 1-4.54-1.8c-1.25-.8-2.16-1.74-2.72-2.8a8 8 0 0 1-.91-3.3c-.05-1.15.14-2.75.6-4.8l1.76-8.06c.53-2.4 1.27-4.24 2.23-5.5a6.8 6.8 0 0 1 3.91-2.5c1.65-.42 3.44-.42 5.37 0 2.36.52 4.2 1.4 5.53 2.63 1.35 1.23 2.16 2.65 2.45 4.27.3 1.6.16 3.75-.43 6.43l-.8 3.66m-7.45-6.34l.44-2.02c.3-1.43.44-2.37.38-2.82s-.33-.73-.8-.83c-.58-.13-.98-.03-1.2.3-.2.32-.5 1.25-.83 2.8l-.44 2.02 2.46.54m49.73-1.3l-12.17 32.28-8.06-3.04.72-1.9a8.9 8.9 0 0 1-3.11.88 6.8 6.8 0 0 1-2.9-.4c-1.25-.47-2.2-1.2-2.88-2.2a4.8 4.8 0 0 1-.91-2.96c.07-.96.48-2.42 1.2-4.37l4.67-12.38c.77-2.03 1.44-3.43 2-4.18a4.6 4.6 0 0 1 2.64-1.56 6.1 6.1 0 0 1 3.7.28 7.3 7.3 0 0 1 2.53 1.57c.7.67 1.26 1.5 1.66 2.47l2.83-7.5 8.06 3.04m-12.76 9.45c.37-.97.52-1.65.48-2.05-.03-.4-.3-.68-.8-.87-.48-.18-.86-.15-1.15.1-.27.23-.6.87-1 1.9l-4.9 12.96c-.4 1.08-.6 1.82-.56 2.22.03.4.28.67.73.84.52.2.93.14 1.25-.17.32-.32.76-1.22 1.3-2.7l4.6-12.24m29.28 21.53l-9.97-4.98-2.73 5.47c-.57 1.14-.86 1.92-.86 2.34s.24.74.7.97c.58.3 1.08.27 1.5-.07.43-.34.95-1.14 1.58-2.4l1.67-3.34 7.3 3.64-.93 1.87c-.78 1.56-1.48 2.7-2.1 3.45-.6.74-1.5 1.4-2.7 2a7.6 7.6 0 0 1-3.84.77c-1.34-.08-2.85-.54-4.53-1.38a13.6 13.6 0 0 1-3.96-2.86 8.1 8.1 0 0 1-1.96-3.38 8 8 0 0 1-.08-3.42c.23-1.12.8-2.63 1.75-4.5l3.68-7.38c1.1-2.2 2.27-3.8 3.5-4.78a6.8 6.8 0 0 1 4.4-1.47c1.7-.01 3.44.43 5.2 1.3 2.16 1.08 3.73 2.38 4.72 3.9 1 1.52 1.45 3.1 1.33 4.74-.1 1.63-.76 3.68-2 6.13l-1.67 3.36m-5.67-7.97l.92-1.85c.65-1.3 1-2.2 1.06-2.64s-.14-.78-.57-1c-.53-.27-.95-.27-1.24 0-.3.25-.78 1.1-1.5 2.52l-.92 1.85 2.25 1.12m19.74 12.17l-6.82-4.32 1-1.6c1.17-1.85 2.28-3.14 3.33-3.87 1.07-.73 2.5-1.08 4.26-1.04s3.68.72 5.74 2.02c2.46 1.56 4.04 3.17 4.73 4.84.7 1.65.78 3.2.22 4.63-.55 1.42-2.07 4.1-4.57 8.05l-7.6 12-7.08-4.48 1.34-2.12a5.6 5.6 0 0 1-2.95.83c-.96-.02-1.93-.34-2.9-.95-1.27-.8-2.22-1.9-2.84-3.28-.6-1.4-.14-3.3 1.4-5.7l1.24-1.96c1.13-1.8 2.2-2.83 3.16-3.12s2.85-.16 5.63.4c2.98.58 4.66.75 5.03.54s.88-.82 1.5-1.82c.8-1.25 1.2-2.12 1.25-2.6.06-.5-.12-.88-.55-1.16-.5-.3-.9-.34-1.23-.1-.32.24-.9 1.02-1.74 2.35l-1.58 2.5m.23 4.74c-1.7.12-2.83.4-3.4.85a10.4 10.4 0 0 0-1.84 2.31c-.78 1.24-1.2 2.08-1.28 2.54-.06.47.15.85.63 1.16.46.3.84.34 1.14.14.33-.2.87-.9 1.63-2.1l3.1-4.92m33.8-1.9l-2.63 3.5c-1.42-1.07-2.3-1.63-2.67-1.7-.34-.06-.75.2-1.2.82l-.54.7 2.9 2.18-2.7 3.57-1.63-1.23-13.92 18.46-6.87-5.18 13.92-18.46-1.4-1.06 2.7-3.57 1.4 1.06a21.4 21.4 0 0 1 2.4-2.86c.48-.42 1.06-.68 1.75-.76a4.9 4.9 0 0 1 2.38.38c.88.34 2.1 1.1 3.62 2.25l2.52 1.9m1.52 24.03l-3.87 4.5-8.58-7.37 3.87-4.5 8.58 7.37m19.17 2.82l-2.06 1.73c1.23-.24 2.36-.2 3.37.1a6.2 6.2 0 0 1 2.75 1.75 6.1 6.1 0 0 1 1.39 6.15c1.27-.2 2.4-.15 3.42.15a5.8 5.8 0 0 1 2.66 1.65 5.9 5.9 0 0 1 1.7 3.37 4.7 4.7 0 0 1-.64 3.15c-.56.9-1.7 2.14-3.38 3.72l-14.66 13.75-5.7-6.1 13.45-12.6c1.76-1.65 2.8-2.73 3.1-3.25.32-.5.27-1-.14-1.42-.42-.45-.9-.54-1.44-.3-.53.26-1.68 1.23-3.45 2.9l-13.45 12.6-5.7-6.1 13.1-12.3c2.02-1.9 3.18-3.08 3.5-3.57.32-.47.27-.93-.15-1.38-.26-.28-.6-.42-1-.4-.4 0-.75.13-1.08.4a50.3 50.3 0 0 0-1.97 1.79l-14.3 13.4-5.7-6.1 20.63-19.34 5.82 6.2m31.46 38.42l-22.85 16.66-5.16-7.08 1.98-1.26c-1.12.08-2.14-.1-3.04-.52a6.2 6.2 0 0 1-2.34-2.01 6.8 6.8 0 0 1-1.34-3 4.5 4.5 0 0 1 .35-2.6 6.6 6.6 0 0 1 1.45-1.98 50.7 50.7 0 0 1 3.86-3l15.4-11.24 5.07 6.96-15.55 11.34-3.06 2.47c-.25.36-.2.78.15 1.26.38.52.77.7 1.18.54.42-.15 1.57-.9 3.44-2.27l15.38-11.2 5.07 6.96m12.1 12.4l-3.8 2.3 1.2 2-3.83 2.32-1.2-2-12.93 7.85c-1.6.97-2.43 1.58-2.52 1.85-.08.28.25 1.02.98 2.22l-3.9 2.37-1.8-2.97a25.7 25.7 0 0 1-1.98-3.7 4.6 4.6 0 0 1-.18-2.48 3.8 3.8 0 0 1 1.11-2.07c.57-.53 2.06-1.53 4.47-3l12.28-7.45-.96-1.58 3.83-2.32.96 1.58 3.8-2.3 4.48 7.38m-2.9 34.1l-4.95-10-5.48 2.72c-1.15.57-1.84 1.02-2.1 1.35s-.26.73-.02 1.2c.3.6.7.87 1.23.84.55-.02 1.45-.34 2.7-.96l3.34-1.66 3.63 7.3-1.87.93c-1.57.78-2.82 1.27-3.76 1.48-.93.23-2.06.2-3.37-.04a7.6 7.6 0 0 1-3.53-1.7c-1.02-.87-1.95-2.15-2.78-3.83a13.6 13.6 0 0 1-1.43-4.67 7.8 7.8 0 0 1 .48-3.88 8 8 0 0 1 2-2.78c.86-.76 2.23-1.6 4.12-2.54l7.4-3.66c2.2-1.1 4.1-1.66 5.68-1.7a6.8 6.8 0 0 1 4.4 1.48 11.5 11.5 0 0 1 3.36 4.2c1.07 2.16 1.54 4.15 1.4 5.96-.1 1.82-.7 3.34-1.8 4.58-1.07 1.24-2.83 2.47-5.28 3.7l-3.36 1.67m.3-9.78l1.85-.92c1.3-.65 2.12-1.14 2.44-1.47s.36-.7.15-1.14c-.27-.53-.6-.78-1-.75-.38.03-1.28.4-2.7 1.1l-1.85.92 1.12 2.25m13.55 29.8l-2.72-7.13 1.43-.55a7.7 7.7 0 0 0 2.23-1.1c.28-.26.32-.67.1-1.23-.17-.45-.45-.73-.84-.84-.38-.1-.87-.06-1.46.17-.8.3-1.4.6-1.73.84-.33.26-.6.76-.85 1.5a24.1 24.1 0 0 0-.64 4.24c-.25 2.77-.74 4.7-1.47 5.83s-2.06 2.04-3.98 2.77c-2.15.82-3.88 1.16-5.2 1.02a6 6 0 0 1-3.6-1.84c-1.08-1.08-1.97-2.54-2.67-4.4a14 14 0 0 1-1.05-5.62c.1-1.7.57-3 1.45-3.97s2.42-1.86 4.63-2.7l1.27-.5 2.72 7.13-1.67.64c-1.42.54-2.3.98-2.67 1.3-.35.35-.43.8-.23 1.32.22.57.5.92.87 1.04.38.1 1.03 0 1.94-.35 1.26-.48 2-.93 2.2-1.34.2-.43.55-2.35 1.05-5.76.43-2.87 1.08-4.77 1.96-5.7.9-.93 2.08-1.68 3.57-2.25 2.1-.8 3.77-1.12 4.98-.94a5.8 5.8 0 0 1 3.41 1.94 13.2 13.2 0 0 1 2.59 4.35c.67 1.75 1 3.33 1.02 4.72.03 1.4-.2 2.57-.68 3.5-.48.94-1 1.6-1.58 1.97-.57.38-1.52.83-2.84 1.33l-1.53.58"/></g><g stroke="#000"><path d="M314.48 5.95c-32.95-.17-65.8 4.9-96.88 15.1A306.1 306.1 0 0 0 96.21 95.7C47.7 144.22 16.98 207.05 8.75 274.62 2.3 327.5 9.5 380.77 29.58 429.2c41.3 99.55 131.77 170.28 237.94 186.04 9.68 1.44 19.63 2.4 31.44 3.04 4.9.27 24.43.2 29.84-.12 28.7-1.62 54.4-6.5 80.8-15.3a305 305 0 0 0 120.07-74.5c39.32-39.42 66.8-88.07 80.3-142.22l2.13-8.5 4.67-.4c17.86-1.56 33.18-8.75 45.3-21.26a62.2 62.2 0 0 0 12.4-17.75c3.22-6.8 4.97-12.9 5.82-20.33a77.6 77.6 0 0 0-.52-17.06c-2.38-13.17-8.82-25.33-18.56-35.03a69.5 69.5 0 0 0-45.61-20.38l-3.9-.22-1.3-5.28c-8.7-35.38-23-67.86-43-97.72C518.24 68.7 440.2 20.04 353.1 8.58a308.7 308.7 0 0 0-38.62-2.63zm-2.3 23.38c83.95-.2 163.47 36.55 218.3 102.3a284.3 284.3 0 0 1 55.67 107.76l1.42 5.37c.16.57-1.5.6-32.92.5l-33.1-.1-2.3-6.64c-15.62-45.2-45.55-84.05-85.6-111.07a227.7 227.7 0 0 0-53.33-26.27c-14.54-4.84-30.9-8.4-45.46-9.92l-8.7-.9-3.84-8.12h-21.38l-3.76 8.04-5.17.42a220.6 220.6 0 0 0-94.87 30.61c-55.32 33.28-93.6 89.16-104.2 152.1l-1.27 7.66h36.9l.95-5.02c7.83-41.42 30.3-79.5 63-106.78 30.25-25.22 66.68-39.74 106.57-42.47 7.12-.5 22.82-.2 29.96.54 30.75 3.2 59.8 13.77 85.02 30.9l4 2.7 14.45-1.34 1.66-.2-.43.8c-.24.45-1.92 2.28-3.74 4.08l-3.3 3.27 3.6 3.03c5.12 4.3 16.27 15.5 20.82 20.9 16.45 19.55 27.9 40.44 35.74 65.2 1.83 5.76 5 19.13 5.5 23.32l.1.85 125.3.34 2.55.78a42.3 42.3 0 0 1 12.17 6.36c5.03 4 8.98 9.9 10.7 16a31.3 31.3 0 0 1 .14 13.28 35.7 35.7 0 0 1-4.74 10.16 40.3 40.3 0 0 1-8.5 8.17 40.4 40.4 0 0 1-10.48 4.72l-2.86.77-124.4.2-.22 1.27c-1.9 11-5.54 23.97-9.85 34.98-7.66 19.55-18.35 37.28-32.2 53.46-4.47 5.22-14.32 15.04-19.37 19.3-28.54 24.17-61.32 38.64-97.7 43.14-26.68 3.3-54.2.6-80-7.86-62.85-20.6-110.36-74.2-123.2-139.04-2.37-11.97-3.14-19.67-3.35-33.8l-.18-11.66H90l-.24 5.02a240.8 240.8 0 0 0 1.03 26.3 220.8 220.8 0 0 0 25.59 83.24c33.4 61.33 93.88 103.58 162.34 113.38 12.43 1.78 16.44 2.04 31.66 2.04 14.12.01 17.42-.16 27.4-1.4 56.7-6.96 108.8-36 144.93-80.86 15.8-19.62 28.3-42.13 36.4-65.52l2.12-6.13 66.8.02c0 .45-2.2 8.86-3.42 13.13-11.2 38.88-30.73 74.88-57.73 106.36a383.9 383.9 0 0 1-24.31 24.84 281.6 281.6 0 0 1-163.9 72.01 259.7 259.7 0 0 1-13.79.87l-9.74.28a269.4 269.4 0 0 1-11.58-.14 279.3 279.3 0 0 1-60.61-8.54c-62.33-15.78-117.7-52.78-156.6-104.64-28.54-38.04-46.95-82.38-53.6-129.04-2.05-14.38-2.77-24.93-2.77-40.52 0-14.63.7-25.6 2.44-38.3a280.7 280.7 0 0 1 38.78-108.96c4.25-6.97 6.58-10.5 11.37-17.2C128.3 83.86 198.62 41.65 275.98 31.7c12.12-1.56 24.2-2.34 36.2-2.37zM432.9 159.88c-.28-.01-.76.05-1.5.16-3.6.52-13.23 1.22-24.24 1.75-5.83.28-12.44.73-14.7 1-18.68 2.2-26.96 9.07-30.4 25.24-.7 3.34-1.03 7.76-1.38 19.26-.6 19.45-1.75 27.17-5.9 39.24-4.38 12.78-11.25 24.2-20.03 33.3-2.38 2.47-3.44 3.9-3.18 4.3.46.75 8.88 12.62 9.13 12.88.1.1 2.3-1 4.9-2.47 19.1-10.76 32.2-13.9 44.68-10.7 10.93 2.8 18.82 10.95 22.58 23.36 2.7 8.93 3.4 14.94 3.4 29.13 0 11.36-.14 13.76-1.08 19.02-3.7 20.63-10.82 36.6-22.5 50.5-15.84 18.86-41.1 30.1-72.58 32.33-25.4 1.8-45.73-5.28-60.63-21.12-16.55-17.6-25.63-42.2-30.22-81.93a265.7 265.7 0 0 1-1.85-40.12c.37-23.24 2.82-40.02 8.6-58.82 3.48-11.3 9.96-25.98 14.38-32.54 2.94-4.37 7.9-9.1 11.32-10.8 2.55-1.27 3.38-1.44 7.22-1.45 5.52-.01 8.55 1.3 13.08 5.64 2.88 2.76 7.38 8.4 7.38 9.28 0 .2-2.86 3.3-6.35 6.92-10.75 11.12-14.45 16.53-16.1 23.54-.93 3.93-.66 9.26.72 14.62.52 2.02 7.13 23.36 14.68 47.43 18.88 60.2 17.85 56.26 17.87 68.08.01 9.1-.65 12.1-4.2 18.94-2.24 4.3-7.75 10.5-11.55 12.96-3.05 1.98-2.32 2.18 3.9 1.1 18.77-3.3 32.16-9.3 41.35-18.62 5.7-5.75 8.97-11.02 11.2-17.98 1.53-4.78 1.87-15.33.73-22.65-2.1-13.46-6.84-28.97-18.46-60.4-11.58-31.3-13.9-39.56-14.4-51.1-.53-12.24 1.9-20.53 9.03-30.8 12.25-17.65 13.86-21 14.3-29.7.14-2.7.08-4.94-.14-4.94s-7 6.73-15.1 14.96l-14.72 14.96-2.65-3.45a56.4 56.4 0 0 0-19.98-16.38c-6.2-3-9.36-3.82-16-4.16-14.36-.74-27.7 4.94-40.27 17.16-20.14 19.58-35.98 54.68-41.47 91.87-3.1 20.92-3 47.57.24 70.12 5.37 37.46 15.9 64.92 31.88 83.14 16.9 19.28 44.33 31.23 78.86 34.36 1.2.1 8.56.14 16.37.07 11.43-.1 15.43-.32 20.46-1.1 28.93-4.53 51.14-15.4 70.04-34.3 19.02-19.02 30.43-42.26 34.75-70.76 1.3-8.5 1.57-27.6.5-35.15-4.63-33.24-20.96-54.4-44.98-58.27a50.4 50.4 0 0 0-26.26 3.41c-1.73.78-3.24 1.34-3.35 1.22s.53-1.03 1.42-2.05a69.6 69.6 0 0 0 15.78-33.15 248.6 248.6 0 0 0 1.21-13.31c.84-11.76 1.43-16.77 2.46-20.87 1.16-4.6 3.8-9.56 6.77-12.78 4.78-5.16 9.5-8 23.98-14.4 3.7-1.64 8.46-4 10.56-5.23 3.8-2.23 9.5-7.07 10.46-8.9.3-.56.37-.78-.1-.8z" stroke-width="9.63" class="B"/><g class="D"><use xlink:href="#B" class="B"/><g class="C"><path d="M298.97 618.28c-11.8-.64-21.76-1.6-31.44-3.04C161.35 599.48 70.9 528.75 29.58 429.2 9.5 380.77 2.3 327.5 8.75 274.62 16.98 207.05 47.7 144.22 96.2 95.7a306.1 306.1 0 0 1 121.38-74.67C260.83 6.87 307.5 2.58 353.1 8.58c87.1 11.46 165.14 60.1 214.35 133.6 20 29.85 34.28 62.34 43 97.72l1.3 5.28 3.9.22a69.5 69.5 0 0 1 45.61 20.38c9.74 9.7 16.17 21.86 18.56 35.03a77.6 77.6 0 0 1 .52 17.06c-.85 7.42-2.6 13.54-5.82 20.33a62.2 62.2 0 0 1-12.4 17.75c-12.1 12.5-27.43 19.7-45.3 21.26l-4.67.4-2.12 8.5c-13.52 54.15-41 102.8-80.3 142.22a305 305 0 0 1-120.07 74.51c-26.42 8.8-52.1 13.68-80.82 15.3-5.4.3-24.93.38-29.84.12zm25.92-23.43a259.7 259.7 0 0 0 13.79-.87 281.6 281.6 0 0 0 163.9-72.01c6.43-5.82 19.1-18.76 24.3-24.84 27-31.47 46.54-67.47 57.73-106.36a258.3 258.3 0 0 0 3.42-13.13c0-.1-15.03-.15-33.4-.1l-33.4.1-2.12 6.13c-8.08 23.38-20.6 45.9-36.4 65.52-36.14 44.84-88.2 73.9-144.93 80.86-10 1.22-13.3 1.4-27.4 1.4-15.22-.01-19.24-.27-31.66-2.05-68.46-9.8-128.94-52.04-162.34-113.38a220.8 220.8 0 0 1-25.59-83.24c-.78-7.7-1.3-20.77-1.03-26.3l.24-5.02h36.27l.18 11.66c.22 14.12.98 21.83 3.35 33.8C142.64 411.8 190.15 465.42 253 486c25.8 8.46 53.34 11.16 80 7.86 36.4-4.5 69.17-18.98 97.7-43.15 5.05-4.28 14.9-14.1 19.37-19.3 13.86-16.17 24.55-33.9 32.2-53.45 4.32-11 7.97-23.97 9.85-34.98l.22-1.27 124.42-.2 2.86-.77a40.4 40.4 0 0 0 10.49-4.72 40.3 40.3 0 0 0 8.5-8.17 35.7 35.7 0 0 0 4.74-10.16c.9-3.57.85-9.74-.14-13.28-1.7-6.1-5.66-12.03-10.7-16-3.14-2.48-8.3-5.2-12.17-6.36l-2.55-.78-125.3-.34-.1-.85c-.53-4.2-3.7-17.56-5.5-23.32-7.85-24.76-19.3-45.65-35.74-65.2a244.1 244.1 0 0 0-20.82-20.91l-3.6-3.03 3.3-3.27c1.82-1.8 3.5-3.63 3.74-4.08l.43-.8-1.66.2c-.9.1-4.53.46-8.05.77l-6.4.56-4-2.7c-25.23-17.15-54.28-27.7-85.02-30.9-7.14-.74-22.84-1.03-29.96-.54-39.9 2.73-76.32 17.25-106.57 42.47-32.7 27.27-55.17 65.36-63 106.78l-.95 5.02H91.7l1.27-7.66c10.6-62.94 48.87-118.83 104.2-152.1a220.6 220.6 0 0 1 94.88-30.61l5.17-.42 3.76-8.04h21.38l3.84 8.12 8.7.9c14.56 1.5 30.9 5.08 45.45 9.92 18.1 6.02 37.43 15.54 53.33 26.26 40.05 27.02 69.98 65.86 85.6 111.07l2.3 6.64 33.1.1c31.4.08 33.08.06 32.92-.5a633.6 633.6 0 0 1-1.42-5.36 284.3 284.3 0 0 0-55.67-107.76C467.82 56.5 372.9 19.22 275.98 31.7 198.62 41.65 128.3 83.86 82.55 147.8c-4.8 6.7-7.12 10.2-11.36 17.18a280.7 280.7 0 0 0-38.78 108.96c-1.74 12.7-2.44 23.67-2.44 38.3 0 15.6.72 26.14 2.77 40.52 6.65 46.66 25.07 91 53.6 129.04 38.9 51.86 94.28 88.86 156.6 104.64 20.18 5.1 40.2 7.93 60.6 8.54 4.5.13 9.7.2 11.58.14l9.74-.28z" class="B"/><path d="M432.88 159.98l-1.57.1-11.9 1-22 1.2-6.58.6a49.2 49.2 0 0 0-9.26 1.97 42.1 42.1 0 0 0-1.46.49l-2.7 1.08a25.5 25.5 0 0 0-5.67 3.44c-.66.54-1.28 1.1-1.87 1.7a22.6 22.6 0 0 0-1.67 1.92 25.2 25.2 0 0 0-1.49 2.15l-1.33 2.4c-1.55 3.1-2.57 5.8-3.27 9.36a49.7 49.7 0 0 0-.52 3.29l-.55 6.14c-.2 3.12-.33 6.84-.45 11.37l-.36 9.88c-.22 4.22-.53 7.52-1 10.68a81.3 81.3 0 0 1-.54 3.14c-.4 2.1-.9 4.24-1.5 6.67l-.8 2.94-.88 2.9c-.3.97-.63 1.93-.97 2.88a96 96 0 0 1-1.06 2.84c-.37.94-.75 1.88-1.15 2.8l-1.23 2.76-1.32 2.7a93.2 93.2 0 0 1-4.43 7.8 90.1 90.1 0 0 1-2.62 3.9l-.7 1c-.25.34-.5.67-.76 1a86 86 0 0 1-2.85 3.61 82.3 82.3 0 0 1-3.88 4.31l-3.44 3.55 9.28 12.87c.28.35.46.55.5.57.18.06 2.13-.92 4.33-2.18a145 145 0 0 1 8.51-4.52 117.9 117.9 0 0 1 5.85-2.68c2.26-.95 4.43-1.78 6.48-2.46 1.03-.34 2.03-.64 3-.9a48.4 48.4 0 0 1 2.8-.69c.52-.1 1.1-.2 1.77-.3a41.4 41.4 0 0 1 2.13-.21c3.02-.22 6.66-.22 9.6 0a36.8 36.8 0 0 1 2.04.21 17.7 17.7 0 0 1 1.66.29c.55.13 1.1.26 1.62.4a35 35 0 0 1 4.54 1.58 30.9 30.9 0 0 1 1.4.64 28.7 28.7 0 0 1 2.65 1.47 27.2 27.2 0 0 1 2.45 1.72c.78.62 1.53 1.28 2.24 1.98a27.9 27.9 0 0 1 1.05 1.09 28.8 28.8 0 0 1 1 1.16c.65.8 1.27 1.64 1.85 2.53a33.7 33.7 0 0 1 .86 1.37c1.4 2.34 2.58 4.98 3.6 7.94a56.1 56.1 0 0 1 .59 1.81c.38 1.23.72 2.52 1.04 3.86s.6 2.73.88 4.18c.53 2.9.95 6 1.27 9.35l.4 5.18a105.3 105.3 0 0 1 .19 7.83 112.7 112.7 0 0 1-.12 3.97 118.2 118.2 0 0 1-.66 7.98l-.53 4c-1 6.64-2.54 13.2-4.57 19.43-1.63 5-3.57 9.77-5.8 14.2-.56 1.1-1.13 2.2-1.72 3.26-.73 1.32-1.5 2.6-2.27 3.87a94.3 94.3 0 0 1-1.92 2.97l-.5.73-.52.74-1.48 2.06-.55.74-1.33 1.7c-1.35 1.7-2.75 3.32-4.2 4.88L389 409.8c-.25.25-.5.5-.75.75l-.75.75-.8.75c-.77.72-1.54 1.44-2.33 2.13-1.06.93-2.15 1.84-3.27 2.72l-1.7 1.3c-1.14.85-2.3 1.68-3.5 2.48l-1.8 1.18a88.6 88.6 0 0 1-5.61 3.3c-3.85 2.08-7.93 3.92-12.23 5.52a109.9 109.9 0 0 1-6.62 2.23 130.4 130.4 0 0 1-18.23 4.02c-1.57.23-3.15.44-4.72.62a133.7 133.7 0 0 1-4.68.45c-1.55.12-3.08.2-4.6.28a108.3 108.3 0 0 1-4.46.09 99.6 99.6 0 0 1-9.53-.44c-.77-.07-1.53-.16-2.28-.25l-2.24-.3c-3.7-.56-7.25-1.35-10.63-2.37a67.2 67.2 0 0 1-3.99-1.35l-1.95-.76a63.8 63.8 0 0 1-3.78-1.7 60.8 60.8 0 0 1-1.84-.94 60.4 60.4 0 0 1-1.81-1c-3.58-2.05-6.97-4.46-10.18-7.23-.53-.46-1.06-.93-1.6-1.42s-1.04-.98-1.56-1.48c-2.06-2-4.04-4.18-5.96-6.52-.96-1.17-1.9-2.38-2.8-3.63a81.5 81.5 0 0 1-2.24-3.21c-1.46-2.2-2.84-4.5-4.16-6.95a104 104 0 0 1-3.73-7.68c-2.35-5.38-4.43-11.27-6.25-17.73a177.4 177.4 0 0 1-1.32-4.95c-.42-1.7-.83-3.4-1.22-5.17l-1.13-5.4a262.9 262.9 0 0 1-1.98-11.47l-.86-6.08-.77-6.33-.88-8.86-.34-4.37-.28-4.33-.22-4.3-.15-4.25c-.08-2.82-.12-5.6-.12-8.38l.04-4.13.1-4.1c.18-5.42.52-10.73 1.04-15.93.26-2.6.56-5.17.9-7.7l.54-3.8a205.1 205.1 0 0 1 1.28-7.45c.47-2.45.98-4.88 1.53-7.27s1.15-4.76 1.78-7.1a177.4 177.4 0 0 1 2.03-6.91c.72-2.27 1.48-4.52 2.3-6.73a163.5 163.5 0 0 1 2.54-6.54l1.36-3.2c.93-2.12 1.9-4.2 2.9-6.26a74.4 74.4 0 0 1 4.84-8.52c.33-.5.66-.97 1-1.43.66-.92 1.33-1.78 2-2.6 1.02-1.2 2.06-2.3 3.12-3.25.36-.32.7-.63 1.08-.92a26 26 0 0 1 1.09-.84c.74-.54 1.5-1.02 2.25-1.46a23.1 23.1 0 0 1 1.16-.62c.63-.3 1.14-.56 1.6-.75a10.7 10.7 0 0 1 .65-.25 12.6 12.6 0 0 1 3.76-.55c.66-.03 1.22-.05 1.7-.05 1.5 0 2.42.17 3.9.62a17.6 17.6 0 0 1 3.48 1.56 26.2 26.2 0 0 1 1.22.74 27.8 27.8 0 0 1 2.36 1.7c.75.6 1.46 1.24 2.08 1.88.5.5 1.15 1.26 1.86 2.12 2.13 2.56 4.73 6.02 4.73 6.4 0 .18-2.9 3.34-6.44 7.03-7.6 7.9-9 9.53-11.45 13.18-2.2 3.27-3.66 6.3-4.46 9.46a23.3 23.3 0 0 0-.58 3.21c-.18 1.64-.2 3.34-.06 5.14a42.1 42.1 0 0 0 .9 5.78 70.3 70.3 0 0 0 1.12 4.33c.65 2.23 7.1 22.9 14.33 45.94l14.55 47.15 1.35 5.05c.35 1.42.6 2.63.82 3.73a51.9 51.9 0 0 1 .27 1.58c.24 1.53.4 2.94.56 4.63a45.9 45.9 0 0 1 .2 2.85 44.4 44.4 0 0 1 .02 2.81c-.02.93-.08 1.85-.16 2.77s-.2 1.8-.33 2.7a40.8 40.8 0 0 1-.5 2.65 39.3 39.3 0 0 1-1.51 5.08c-1.83 4.92-4.63 9.35-8.28 13.02-.6.6-1.24 1.2-1.9 1.78-1.3 1.14-2.7 2.2-4.2 3.15-3.1 2-2.95 2.03 4.05.8 14.9-2.6 26.4-6.75 35.13-12.78 1.75-1.2 3.38-2.5 4.9-3.85a47.2 47.2 0 0 0 7.94-9.1c.3-.46.6-.92.9-1.37.57-.9 1.1-1.8 1.57-2.7a36.9 36.9 0 0 0 1.87-4.05c.18-.46.34-.9.5-1.37a35.1 35.1 0 0 0 .44-1.39 35.6 35.6 0 0 0 .38-1.42c.12-.48.23-.96.32-1.45a38.8 38.8 0 0 0 .27-1.49c.16-1 .3-2.04.38-3.1.14-1.6.2-3.28.2-5.07a64.1 64.1 0 0 0-.23-5.29 83.7 83.7 0 0 0-.7-5.83 125.5 125.5 0 0 0-2-10.01l-.94-3.73-1.07-3.95c-2.67-9.48-6.52-20.85-11.74-34.9l-10.5-28.98c-1.57-4.6-2.7-8.2-3.57-11.27a93.7 93.7 0 0 1-1.09-4.29c-.6-2.68-1-5.08-1.36-7.68-.85-6.4-.58-15.48.6-19.96a43.1 43.1 0 0 1 5.06-12.14 109.4 109.4 0 0 1 3.8-5.88l2.5-3.6c5.2-7.35 8.2-12.54 9.73-17.26a28 28 0 0 0 .41-1.4c.12-.46.23-.93.33-1.4a25.8 25.8 0 0 0 .25-1.37 26.6 26.6 0 0 0 .18-1.38c.05-.46.08-.92.1-1.4s.04-.94.04-1.4c0-.96-.03-1.88-.07-2.6s-.12-1.22-.2-1.35c-.2-.33-4.37 3.7-14.9 14.46l-13.62 13.74a17.1 17.1 0 0 1-1.25 1.18c-.14 0-1.05-1.03-2.04-2.28-2.84-3.62-5.9-6.83-9.1-9.6a59.6 59.6 0 0 0-3.93-3.11c-.67-.48-1.34-.95-2-1.4a51.5 51.5 0 0 0-4.11-2.44c-.7-.37-1.4-.72-2.1-1.05-1.4-.66-2.82-1.24-4.25-1.75a42.4 42.4 0 0 0-2.15-.69c-1.44-.42-2.88-.76-4.33-1.02-.93-.16-2.04-.3-3.24-.37a56.3 56.3 0 0 0-3.79-.12c-2.6 0-5.2.17-7.13.5a51.4 51.4 0 0 0-12.33 3.76c-2 .9-3.97 1.92-5.9 3.07s-3.85 2.44-5.73 3.86a72.5 72.5 0 0 0-5.54 4.64c-.9.84-1.8 1.7-2.7 2.6s-1.77 1.83-2.64 2.8c-.12.13-.23.27-.35.4-.75.84-1.5 1.7-2.25 2.6-.86 1.03-1.7 2.1-2.54 3.2a118.1 118.1 0 0 0-4.92 6.94l-3 4.73a169.2 169.2 0 0 0-2.84 4.83l-2.68 4.93c-9.52 18.27-15.83 38.62-19.16 61.8-.6 4.2-1.12 8.52-1.53 12.92a73.5 73.5 0 0 0-.22 3.52c-.24 5.66-.3 14.8-.16 22.87a220.6 220.6 0 0 0 .57 14.46l.5 4.8 1.13 9.16a267.2 267.2 0 0 0 3.89 21.62 241.7 241.7 0 0 0 3.84 15.08c1.04 3.56 2.13 6.98 3.3 10.25.78 2.18 1.58 4.3 2.42 6.36 2.5 6.17 5.3 11.8 8.4 16.92a97.3 97.3 0 0 0 4.89 7.34 90.3 90.3 0 0 0 3.54 4.51l1.86 2.14 1.9 2.07c.32.34.65.66.98 1l1 1c2.67 2.62 5.5 5.07 8.52 7.35a98.9 98.9 0 0 0 12.14 7.83 99.2 99.2 0 0 0 9.91 4.72c2.34.97 4.77 1.88 7.27 2.72a138.3 138.3 0 0 0 7.7 2.36c11.84 3.27 24.88 5.25 37.94 5.67l4.94.16c.78.03 2.07 0 3.64-.05 3.16-.1 7.46-.37 11.13-.65l4.8-.44c1.13-.13 2.27-.28 3.44-.44a143.3 143.3 0 0 0 7.12-1.21l3.6-.75c2.4-.53 4.75-1.1 7.04-1.73s4.5-1.3 6.56-1.98a116.9 116.9 0 0 0 4.46-1.6c1.48-.56 2.94-1.15 4.4-1.78a119 119 0 0 0 20.64-11.39c2.6-1.8 5.1-3.67 7.56-5.66 3.67-2.98 7.16-6.18 10.46-9.57a119.4 119.4 0 0 0 3.23-3.46 119.1 119.1 0 0 0 3.09-3.6c1-1.22 2-2.46 2.96-3.72a118.3 118.3 0 0 0 2.81-3.84c9.87-14.1 16.48-29.7 19.93-47.13l.8-4.4.66-4.47.53-4.55.4-4.62c.06-.84.1-1.77.15-2.74a150.6 150.6 0 0 0 .1-6.38c-.01-3.37-.12-6.87-.3-9.95-.12-2.05-.28-3.92-.48-5.43l-.34-2.5a112 112 0 0 0-1.31-7.22 98.8 98.8 0 0 0-1.71-6.79c-.64-2.2-1.34-4.3-2.12-6.36a78.5 78.5 0 0 0-1.63-3.99c-.86-1.94-1.78-3.8-2.76-5.6-.33-.6-.66-1.18-1-1.76-.68-1.15-1.4-2.27-2.13-3.36a56.9 56.9 0 0 0-3.5-4.62 53.6 53.6 0 0 0-1.25-1.43 49.7 49.7 0 0 0-6.82-6.28c-.97-.74-1.97-1.44-3-2.1a45.4 45.4 0 0 0-1.55-.96 46.4 46.4 0 0 0-3.22-1.73 45.4 45.4 0 0 0-2.36-1.07c-.8-.33-1.6-.64-2.4-.93a45.4 45.4 0 0 0-7.42-1.93 45.7 45.7 0 0 0-5.07-.58c-.85-.05-1.7-.08-2.55-.08-1.64 0-3.3.08-4.93.25l-.5.06a47.1 47.1 0 0 0-4.38.71l-.9.2a47.9 47.9 0 0 0-3.93 1.09c-.2.06-.4.12-.6.18-1.66.56-3.3 1.22-4.92 1.97-3.16 1.47-3.16 1.52.07-2.3a62.2 62.2 0 0 0 5.34-7.46 79.8 79.8 0 0 0 3.21-5.71 69.3 69.3 0 0 0 3.75-8.74 59.1 59.1 0 0 0 .78-2.42 54.6 54.6 0 0 0 1.24-5.05c.88-4.48 1.43-9.88 1.92-18.08.2-3.43.45-6.47.74-9.18a83.7 83.7 0 0 1 1.07-7.23c.03-.13.05-.25.08-.37.4-1.98.88-3.74 1.44-5.34.4-1.13.83-2.18 1.32-3.17a25.2 25.2 0 0 1 1.61-2.8 27.3 27.3 0 0 1 1.94-2.57 33.1 33.1 0 0 1 1.11-1.23c1.63-1.74 3.3-3.22 5.3-4.66a41.6 41.6 0 0 1 2.15-1.42c3.05-1.9 6.9-3.8 12.33-6.22 7.7-3.42 12.56-5.8 16.1-8 1.42-.88 2.62-1.73 3.7-2.6a31.3 31.3 0 0 0 1.55-1.33 35.2 35.2 0 0 0 1.57-1.53 29.1 29.1 0 0 0 1.31-1.45c.65-.78 1.06-1.38 1.06-1.6 0-.03-.01-.06-.02-.07-.02-.02-.2-.03-.48-.03z" class="B"/><use xlink:href="#B" class="B"/><use xlink:href="#C" class="B"/></g></g></g><g stroke="#23498c" class="C D"><use xlink:href="#C" class="B"/><use xlink:href="#B" class="B"/><path d="M309.77 29.6c-67.46.65-131.67 25.14-183.6 70.36-5.66 4.93-20.67 19.94-25.7 25.7a301.1 301.1 0 0 0-29.3 39.84 282.1 282.1 0 0 0-36.94 98.57c-13.76 80.7 7.44 162.33 58.6 225.66 11.64 14.4 27.72 30.5 42.16 42.2 47.5 38.5 106.53 60.63 167.17 62.7l9.2.3c6.14.17 23.7-.8 32.86-1.84a281.7 281.7 0 0 0 137.72-54.56c47.43-35.62 82.77-85.33 100.26-141.04a342 342 0 0 0 5.26-18.79l.2-.94h-66.24l-1.7 5.02c-14.9 44.3-46.26 85.17-85.47 111.42a219.3 219.3 0 0 1-110.83 37.49 292.1 292.1 0 0 1-33.03-.53c-44.15-4.33-83.56-20.2-117.63-47.35a221 221 0 0 1-82.03-148.1c-1-8.72-1.47-19.87-1.3-30.4l.07-4.17h37.1v9.46c0 10 .3 15.4 1.37 23.73 7.76 61.04 46.1 114.54 101.62 141.8 21.93 10.77 44.42 16.7 69.8 18.43 6.35.43 21.8.23 27.75-.36 15-1.5 30.05-4.72 43.07-9.2 59.2-20.42 104.1-69.53 119-130.13a205 205 0 0 0 2.25-10.12l.6-3.4 125-.18 2.65-.75a41.1 41.1 0 0 0 10.33-4.78c10.05-6.85 15.22-18.16 13.27-29.02-1.98-11.03-11.04-20.58-23-24.24l-2.55-.78-125.44-.18-.22-1.27c-5.63-32.34-19.44-62.28-40.2-87.13-28.83-34.53-69.24-57.38-113.34-64.1-8.55-1.3-14.14-1.75-24.34-1.95-10.75-.2-17.8.13-26.9 1.28-35.07 4.44-67.2 18.52-95.18 41.73-5.67 4.7-17.7 16.74-22.4 22.4-20.5 24.75-33.5 51.77-39.7 82.58l-1.27 6.3-37.2.18v-.94a58.8 58.8 0 0 1 .67-5.02c5.5-33.7 18.56-65.4 38.35-93.12 16.4-22.98 38.78-44.12 62.1-58.67 31.46-19.62 64.42-30.5 101.42-33.47L297 90l3.77-8.07h21.7l3.88 8.13 1.36.18c.75.1 3.13.34 5.28.55a225.6 225.6 0 0 1 51.75 11.61 230.3 230.3 0 0 1 48.01 24.08c40.57 26.9 71.9 67.5 87.18 113.02l1.86 5.52h65.48l-1.14-4.4c-10.83-41.8-31.2-80.23-60.58-114.27a392.4 392.4 0 0 0-26.07-26.21c-47.78-41.78-106.22-66-168.7-69.96-7.04-.45-14.05-.63-21.03-.57zm-24.26 8.8c.56-.03.64.65 1.05 5.15.2 2.16.25 2.3.8 1.8a8.5 8.5 0 0 1 7.63-1.11c1.5.64 2.63 1.95 3 3.5a397 397 0 0 1 2.18 24.24c-.25.25-8.32.86-8.53.65-.1-.1-.55-4.37-1-9.5-1.1-12.48-1.18-13.14-1.73-13.6-.26-.22-.7-.3-1-.2-.72.28-.67 2.62.33 14a213.4 213.4 0 0 1 .73 9.62c-.06.06-1.62.25-3.48.43-3.38.33-5.23.42-5.26.26a1913.9 1913.9 0 0 1-2.86-34.34c.07-.12 1.7-.32 3.63-.45s3.83-.32 4.24-.42c.1-.02.2-.04.27-.05zm30.45 4.76c4.05.18 6.9 1.82 8.37 4.85l.92 1.9-.16 7.92c-.1 5.4-.3 8.36-.62 9.3-.6 1.8-3.26 4.43-4.94 4.92-2.08.6-5.9.72-8 .25-2.67-.6-4.46-1.88-5.44-3.87-.73-1.5-.82-2.18-.93-7.37-.13-6.28.34-11.6 1.18-13.28 1.5-2.96 3.9-4.36 7.82-4.58.63-.03 1.23-.04 1.8-.01zm-48.2.1c1.15.02 1.17.64 1.38 2.37l.22 1.75 1.16-.13c1.3-.15 1.5.2 1.63 3 .07 1.44.01 1.54-.87 1.64-.5.06-.94.3-.94.5 0 1.04 2.8 16.4 3.08 16.95.25.46.6.57 1.44.43l1.12-.18.4 2.32a13.5 13.5 0 0 1 .29 2.42c-.06.06-1.4.33-2.96.6-5.37.94-7.64.42-8.65-2-.38-.9-3.57-17.96-3.57-19.07 0-.16-.44-.2-.98-.1-.94.2-1 .14-1.2-1.32a28.1 28.1 0 0 0-.41-2.32c-.17-.66-.05-.85.67-1.03.96-.24 1-.54.55-2.93-.16-.84-.27-1.56-.24-1.6s1.95-.4 4.27-.8c1.8-.32 2.9-.52 3.58-.5zm71.02 1.58c.6-.02 1.25-.01 1.96.03 2.1.1 3.52.38 4.77.93 1.95.85 4.03 2.9 4.38 4.3.2.85.01 5.16-.26 5.42-.13.13-4.52-.33-6.67-.7l-1.1-.2.16-4.23h-1.02c-.93 0-1.05.13-1.33 1.46-.4 1.88.17 2.7 3.4 4.93 5.3 3.67 6.02 4.66 6 8.3-.03 4.82-1.97 8.1-5.28 8.93-4.3 1.1-10.28-.5-12.4-3.27-.84-1.1-.95-1.55-1.05-4.43-.07-1.77.01-3.34.17-3.5s1.95-.1 4 .12l3.7.4.04 2.72.04 2.72h1c.85 0 1.05-.17 1.3-1.14.65-2.52.35-3.08-3.15-5.73-6.13-4.66-6.85-6.17-5.6-11.72.84-3.7 2.72-5.24 6.94-5.37zm-97.12 1.32c.34 0 1.63 4.02 1.37 4.28a9.2 9.2 0 0 1-1.47.6c-1.3.45-1.75 1.13-1.38 2.1.16.4.4.4 1.8-.01.9-.27 1.72-.38 1.83-.24s.4.93.63 1.78l.58 2.08c.1.4-.13.6-.87.76-.63.13-.96.37-.87.64.5 1.44 5.96 21.14 5.96 21.52 0 .3-1.4.84-3.87 1.52-2.13.6-4.02 1.06-4.2 1.06-.28 0-1.75-4.9-6.27-20.95-.23-.83-.47-1.03-1.2-1.02-.82.01-.96-.18-1.5-2.1l-.6-2.1.85-.2c.7-.17.8-.36.63-.96a20.1 20.1 0 0 1-.41-2.45c-.3-2.76 1.15-4.07 6.2-5.58 1.33-.4 2.57-.72 2.76-.72zm122.54 2.8c.52-.02 1.06-.01 1.63.04 3.43.27 5.5 1.13 7.57 3.13 1.93 1.87 2.5 3.28 2.5 6.13 0 1.74-1.08 7.5-1.48 7.9-.12.12-2.48-.27-5.24-.87l-5.26-1.08c-.28.01-.7 1.48-1.46 5.26-.47 2.34-.48 2.76-.06 3.18 1.28 1.28 2.5-.6 3.13-4.84.13-.85.37-1.55.54-1.55a137.7 137.7 0 0 1 7.53 1.58c.66.2.63.43-.45 4.2-.8 2.75-2.28 4.6-4.54 5.66-4.15 1.93-11.24-.03-13.8-3.83-1.37-2.03-1.34-4.9.16-11.82.68-3.16 1.56-6.6 1.94-7.62 1.33-3.54 3.7-5.32 7.3-5.47zm44.35 6.42l6.43 2.43c.98.37 1.8.74 1.8.83s-2.7 7.3-6 16.06l-6.2 16.1c-.12.1-2.03-.48-4.22-1.32-3.82-1.46-4-1.56-3.78-2.37.2-.77.14-.82-.6-.55-.45.16-1.68.28-2.74.27-1.5-.02-2.23-.22-3.35-.96-1.8-1.2-2.9-3.44-2.56-5.27.3-1.67 6.54-18.33 7.36-19.68 1.52-2.5 4.58-3.16 7.62-1.67 1.14.56 2.2 1.4 2.7 2.1l.8 1.2 2.32-6.08.44-1.1zm-188.18 3.9a8.7 8.7 0 0 1 4.41.87c2.17 1.1 3.5 3.06 5.37 8 3.45 9.1 3.87 10.97 3.1 13.8-.73 2.62-4.27 5.44-8 6.38-5.32 1.34-7.93.3-10.22-4.1a121.6 121.6 0 0 1-4.62-12c-1.7-5.43-.06-9.32 4.83-11.55 1.82-.83 3.54-1.3 5.14-1.37zM425.2 70.03c.32 0 .68.02 1.12.06a14.1 14.1 0 0 1 4.18 1.19c5.58 2.6 7.48 6.67 5.67 12.06-.57 1.68-2.47 5.9-2.88 6.34-.05.06-2.25-.98-4.9-2.3l-4.97-2.4c-.32 0-3.58 6.8-3.58 7.46 0 .83 1.2 1.26 1.92.67.3-.24 1.13-1.63 1.86-3.1l1.34-2.66 3.74 1.88c2.06 1.03 3.74 2 3.74 2.13 0 .48-2.98 5.35-3.62 5.92-.35.3-1.25.87-2 1.25-1.45.73-3.88 1.12-5.28.84-3.47-.7-8.04-4.1-9.05-6.76-1.1-2.86-.65-4.76 2.7-11.57 3.67-7.48 4.76-9.02 7.23-10.23 1.2-.6 1.82-.8 2.78-.8zm-239.13 5.1c4-.06 6.15 1.78 9.52 7.85l1.26 2.27-9.8 5.35 1.74 3.13c1.98 3.57 2.65 4.36 3.42 4.06 1.1-.42 1-1.34-.48-4.23-1.2-2.33-1.38-2.93-1-3.18 1.22-.8 6.83-3.76 6.93-3.65.06.07.7 1.27 1.4 2.67a8.4 8.4 0 0 1 1.32 4.94c.01 2-.14 2.64-.95 4.02-1.07 1.82-2.9 3.3-5.65 4.6a11.9 11.9 0 0 1-4.09 1 6 6 0 0 1-4.08-.78c-1.18-.6-2.2-1.46-2.9-2.43a117.8 117.8 0 0 1-6.89-12.44c-.96-2.3-1.07-5.23-.26-6.93 1.44-3.03 5.96-5.93 9.66-6.2.28-.02.56-.03.83-.04zm262.85 7.8c1.77 0 2.56.2 4.5 1.18 4.27 2.13 6.67 5.16 6.67 8.4 0 2.05-1 3.97-7.6 14.4-2.67 4.24-4.95 7.7-5.06 7.68s-1.78-1.03-3.7-2.26c-3.46-2.2-3.5-2.25-2.97-3.04l.52-.8-1.5.2c-2.1.3-3.68-.34-5.3-2.1-1.54-1.68-1.92-2.7-1.62-4.5.25-1.57 3.1-6.33 4.58-7.62 1.33-1.17 3-1.28 7.56-.47 4.54.8 4.53.8 5.94-1.45 1.35-2.16 1.45-3.26.3-3.43-.6-.1-1.07.38-2.35 2.3-.88 1.32-1.67 2.4-1.77 2.4a142.1 142.1 0 0 1-6.66-4.14c-.44-.3 1.4-3.15 3.08-4.78 1.64-1.6 2.68-1.98 5.36-1.98zM164.04 87.7c1.65 0 1.95.13 3.32 1.4 1.32 1.2 14.3 19.48 14.3 20.12 0 .46-7.05 5.12-7.3 4.83a630.7 630.7 0 0 1-6.12-8.8c-6.47-9.4-7.1-10.18-7.96-9.85-1.32.5-1.18.76 6.87 12.36a197.2 197.2 0 0 1 5.42 8.03l-3.33 2.28-3.6 2.43c-.32.2-15.87-21.73-16.3-23-.13-.36 2-1.96 6.33-4.78.95-.6.95-.6 1.46.34.43.8.52.84.54.27.01-.37.32-1.33.68-2.12.94-2.06 3.27-3.5 5.7-3.5zm308.78 4.38a6.2 6.2 0 0 1 2.91.58c1.6.82 5.4 3.62 5.4 4 0 .17-.55 1.07-1.23 2-1.15 1.57-1.28 1.64-1.96 1.2-2.15-1.4-2.18-1.4-2.74-.94-.82.68-.65 1.22.65 2.1.65.45 1.2.94 1.2 1.1 0 .4-2.38 3.62-2.67 3.62-.13 0-.56-.23-.96-.5-.7-.5-.95-.2-7.6 8.68l-6.96 9.2c-.1 0-6.44-4.76-6.78-5.1-.16-.16 2.68-4.25 6.32-9.1l6.88-9.25c.17-.28.04-.62-.35-.9-.6-.43-.57-.52.3-1.77 1.98-2.8 1.85-2.7 2.57-2.04.62.56.7.52 1.74-.8.6-.76 1.4-1.55 1.8-1.76.38-.2.9-.32 1.5-.34zm-331.06 13.28c2.23-.07 4.05 1.02 6.55 3.57 3.66 3.72 8.15 9.18 9 10.93.94 1.94.93 4.93-.04 6.92-.9 1.88-3.88 4.8-6.1 6-.95.52-2.48 1-3.48 1.1-2.95.3-4.74-.9-9.56-6.37-7.1-8.07-8.17-10.27-6.96-14.42.62-2.13 4.62-6 7.18-6.96 1.3-.48 2.4-.75 3.4-.78zm332.45 7.75l8.07 6.98c.64.6.6.66-1.2 2.82-1 1.22-2 2.22-2.2 2.23a79 79 0 0 1-8.66-7.41c.01-.13.9-1.22 2-2.42l1.98-2.2zm21.94 4.33c.2.02.43.22.86.62a66.5 66.5 0 0 1 2.92 3.12c2 2.24 2.04 2.33 1.45 2.98-.47.52-.5.67-.13.67 1.23 0 3.16.82 4.28 1.8a5.9 5.9 0 0 1 2.15 4.83v1.54l1.28.01c3.02.02 5.8 2.4 6.13 5.25.35 3.12.25 3.25-11.2 14.02l-7.5 6.9c-.07-.02-1.42-1.4-3-3.1l-2.88-3.06 10.8-10.28c3.32-3.15 6.04-5.93 6.04-6.17s-.24-.64-.54-.88c-.44-.37-.68-.36-1.33.04-.44.27-4.37 3.84-8.74 7.93l-7.94 7.44-5.95-6.37 1.1-1c5.03-4.57 15.55-14.62 15.7-15 .2-.5-.6-1.52-1.18-1.52-.42 0-4.53 3.73-15.85 14.4l-1.4 1.33-2.85-2.96c-1.57-1.63-2.9-3.07-2.94-3.2-.08-.2 18.06-17.42 19.92-18.9.4-.3.6-.47.8-.45zm-381.3 13.85c.9 0 2 .17 2.4.38 1.26.65 3.64 2.7 3.63 3.13-.01.22-1.13 1.62-2.5 3.1l-2.5 2.7-1.62-1.32c-1.28-1.05-1.73-1.25-2.18-.97-.95.6-.85 1.44.3 2.5 1.45 1.35 2.65 1.3 6.56-.2 5.67-2.2 7.75-1.97 11.3 1.3 3.38 3.1 3.94 5.7 2.04 9.46a16.9 16.9 0 0 1-6 6.07c-2.1 1-3.97 1.2-5.4.57-1.62-.72-4.78-3.15-4.77-3.66.01-.23 1.13-1.63 2.5-3.1l2.48-2.7 1.8 1.43c2.06 1.63 3.18 1.74 3.34.34.08-.66-.2-1.16-1.12-1.96-.67-.6-1.5-1.07-1.82-1.07s-2.2.54-4.16 1.2c-4.83 1.63-6.9 1.83-8.8.85-1.9-.97-4.58-3.47-5.27-4.93-1.27-2.68-.25-6.08 2.82-9.44 2.17-2.37 4.64-3.68 6.94-3.68zm406.9 14.33l2.5 3.4c1.37 1.86 2.5 3.53 2.5 3.7s-4.14 3.34-9.2 7.04c-5.78 4.23-9.2 6.94-9.2 7.3 0 .32.2.75.45.95.6.5 1.48-.08 11.12-7.14L528 155c.45-.27 5.65 6.48 5.36 6.95a439.5 439.5 0 0 1-11.39 8.46l-11.37 8.2a43.3 43.3 0 0 1-2.77-3.59c-2.47-3.4-2.58-3.62-1.98-4.06.62-.46.62-.48-.04-.7-3.76-1.2-5.76-4.15-5.12-7.54.33-1.77 2.03-3.25 12.25-10.7l8.83-6.43zm-423.02 5.12c1.06.02 2.2.4 3.55 1.1 2.48 1.3 18.26 12.4 18.26 12.86 0 .22-3.93 5.9-4.66 6.74-.08.1-.44-.03-.8-.26s-.7-.4-.75-.4a7.3 7.3 0 0 0 0 1.62c.12 2.03-.9 3.92-2.82 5.26-1.7 1.2-3.04 1.4-4.7.78a23.8 23.8 0 0 1-6.64-4.75c-1.33-1.52-1.36-2.36-.22-7.4.47-2.07.85-3.97.85-4.22 0-.6-1.2-1.7-3-2.77-1.33-.8-1.52-.82-2-.34-.78.78-.37 1.4 2.08 3.18l2.2 1.6-1.7 2.42a92.7 92.7 0 0 1-2.5 3.44l-.8 1.02-2-1.56a18.3 18.3 0 0 1-3-2.98c-.88-1.24-1-1.7-1-3.73 0-3.13 1.2-5.6 4.2-8.58 2.1-2.1 3.68-3.05 5.45-3zm298.62 11.23c.4 0 .8.02 1.1.06.6.08.1.14-1.1.14s-1.72-.06-1.1-.14a9.6 9.6 0 0 1 1.11-.06zm3.84 0c2.24-.1 4.3 1.42 8.27 6.12 2.55 3 3.98 4.14 6.23 4.95.7.26.94.44.55.44-2.15-.5-3.75-1.62-6.36-4.43l-1.54-1.75a31.4 31.4 0 0 0-1.39-1.52c-1.05-1.1-2.25-2.13-3.17-2.63-.22-.12-.38-.2-.57-.28-.07-.03-.14-.07-.2-.1a6.5 6.5 0 0 0-.59-.23c-.14-.05-.28-.1-.42-.13-.08-.02-.16-.05-.24-.06-.1-.03-.2-.06-.3-.08-1.07-.2-1.1-.24-.28-.28zm-7.63.34a4.7 4.7 0 0 1 .81.06h0c.42.08-.01.14-.94.14s-1.28-.07-.76-.15c.26-.04.58-.06.9-.06zm-2.27.33c.2.01.3.04.25.1a12.3 12.3 0 0 1-2.19.32c-1.34.12-1.7.1-1.02-.1a13 13 0 0 1 2.96-.33zm-59.1.43c.13.13.27 1.12.3 2.2s0 1.42-.07.76c-.05-.44-.13-.9-.2-1.34a4.5 4.5 0 0 0-.09-.59c0-.02-.01-.06-.01-.08-.01-.05-.03-.1-.04-.13-.17-.57-.47-.32-2.5 1.84-1.3 1.38-2.36 2.35-2.37 2.16-.02-.53 4.7-5.1 4.97-4.82zm54.38.25c.4.01-.66.37-2.36.8-.87.23-1.7.46-2.48.7-.06.02-.12.03-.18.05-.56.18-1.1.36-1.64.56-.17.06-.32.12-.5.18a35.2 35.2 0 0 0-1.35.54l-.46.2c-4.23 1.87-7.4 4.37-9.9 7.8a28.9 28.9 0 0 0-3.67 6.63c-.1.24-.23.68-.35 1a32.1 32.1 0 0 0-1.32 4.28c-.42 1.58-.76 2.6-.77 2.2-.02-1.04 1.57-6.4 2.62-8.8 2.74-6.26 7.44-11 13.36-13.5 2.65-1.1 7.96-2.7 8.98-2.66zm154.5 3.7c.1.02.18.06.24.14.64.8 4.15 6.73 4.15 7.03 0 .16-.77.77-1.7 1.35s-1.7 1.13-1.7 1.23a4.1 4.1 0 0 0 .53 1c.52.8.5.84-1.43 2.07l-1.96 1.26-1.5-1.87-6.85 4.16c-3.77 2.3-7.2 4.45-7.6 4.8-.74.6-.75.66-.18 1.67l.58 1.04-1.26.8c-.7.44-1.6.97-2 1.2a4.2 4.2 0 0 1-.9.39c-.3 0-3.38-5.47-3.83-6.78-.6-1.76-.13-3.7 1.17-4.8a127.3 127.3 0 0 1 7.43-4.75l7.7-4.7c1.22-.76 1.26-.83.77-1.54-.5-.7-.45-.8 1.27-1.85 2-1.24 2.57-1.36 2.85-.62.28.72.68.64 2.53-.5.92-.56 1.42-.8 1.72-.74zm-208.56 1.6c.02.02.04.1.05.22.08.5.08 1.36 0 1.87s-.14.1-.14-.94c0-.77.04-1.2.1-1.15zm-71.32.5c.86 0 1.74.02 2.42.05 1.37.06.34.12-2.28.12s-3.74-.05-2.48-.12c.63-.03 1.48-.05 2.34-.05zm-178.6.01c.1-.1 20.93 14.85 22.6 16.22.7.58.7.6-1.55 4.67l-2.32 4.17c-.03.04-2.2-.76-4.8-1.8s-4.87-1.82-5.03-1.77 1.57 1.52 3.83 3.27 4.1 3.35 4.1 3.56-.98 2.07-2.14 4.13-2.34 3.77-2.62 3.8-6.17-2.22-13.1-5l-12.94-5.2c-.34-.13 2.24-5.4 3.1-6.32.38-.4 1.34-.1 6.46 1.98 3.3 1.35 6.08 2.4 6.16 2.3s-2.23-1.86-5.14-3.96-5.3-3.97-5.3-4.16a25.3 25.3 0 0 1 3.57-6.08c.2 0 2.74 1 5.62 2.22s5.36 2.18 5.52 2.13-1.52-1.43-3.72-3.05l-5-3.77-1-.8 3.7-6.54zm173.05.32c.5.02-.3.25-1.8.52a45.3 45.3 0 0 0-2.85.61l-.13.03c-.52.13-1.04.26-1.56.4a55.8 55.8 0 0 0-17.57 8.51L230 180.8c-3.7 2.74-7.17 5.9-10.28 9.38-1 1.1-1.95 2.25-2.9 3.42l-.3.37c-.62.76-1.24 1.54-1.85 2.32l-.96 1.26-1.63 2.22-.5.68c-3.88 5.45-7.5 11.42-10.8 17.83-.02.04-.04.08-.06.12a166.8 166.8 0 0 0-1.7 3.4c-4.5 9.13-8.2 18.77-11.18 29.02l-1.7 5.92c-.83 3.18-1.53 5.56-1.54 5.28-.05-1.15 2.88-11.54 5.23-18.56 3.87-11.54 8.1-21.1 13.62-30.8 12.66-22.27 26.56-35.58 42.82-41.02 3.82-1.28 7.94-2.24 9.4-2.2zm11.47.05a9.8 9.8 0 0 1 2.04.26c.9.23.93.26.17.26-.25 0-.63-.04-1.03-.1a13.8 13.8 0 0 1-1.01-.17c-1.15-.24-1.15-.25-.17-.26zm3.9.64c.12 0 .22.04.28.1.1.1-.1.2-.45.18-.4-.02-.48-.1-.2-.2.12-.05.26-.07.38-.07zm.94.32c1.5-.1 10.76 4 13.05 5.77 1.24.96.38.8-1.02-.2a35.7 35.7 0 0 0-4.87-2.62c-.23-.1-.46-.2-.7-.3a50.7 50.7 0 0 0-3.98-1.62c-1.6-.55-2.7-1-2.5-1.02zm60.25 1.47c.04-.02.05.16.05.55 0 .47-.12 1.23-.27 1.7-.2.67-.27.7-.27.17 0-.37.12-1.14.27-1.7.12-.46.18-.7.22-.72zm88.34 1.57l-.62 1.05c-1 1.7-4.97 5.25-7 6.24-1.03.5-2.7 1.13-3.7 1.4s-2.2.48-2.68.46.22-.25 1.52-.53c.13-.03.26-.07.4-.1.1-.02.4-.06.47-.08 1.2-.3 2.43-.77 3.6-1.37l.2-.1c.23-.12.45-.24.67-.37 2.05-1.15 3.83-2.65 5.22-4.47l1.24-1.63-2.95-.4 3.6-.1zm-89.02 1.8c.23.23-1.2 3.96-2.63 6.84-.8 1.6-2.93 5.08-4.77 7.76-7.9 11.52-9.2 13.54-10.63 16.45a51 51 0 0 0-2.27 5.37 61.3 61.3 0 0 0-1.38 5.28c-.3 1.38-.54 2.25-.62 2.2a39.1 39.1 0 0 1 .32-2.28c.45-2.05 1.25-4.86 2.03-7.03.8-2.07 1.77-4.1 3.08-6.36.84-1.44 1.83-3 3-4.77l.2-.3 3.15-4.57c.04-.05.06-.1.1-.15l.28-.4c4.66-6.6 6.92-10.3 8.52-14.12.36-.82.67-1.62.95-2.4.34-.9.65-1.58.7-1.52zm-12.95 1.46c-.06.08-.4.45-1.06 1.13l-6.7 6.88-8.4 8.38c-.01.01-.08.07-.08.07s-.03-.03-.04-.03c-.2-.1-1.28-1.35-2.53-2.9l-.03-.04c-2.4-2.97-4.93-5.65-7.57-8.03-2.27-2.12-4.4-3.9-5.7-4.6-.32-.18-.5-.4-.4-.5.27-.27 4.64 3.16 7.76 6.08a71.2 71.2 0 0 1 5.58 6.09l2.84 3.54c.05.06 4.6-4.4 10.08-9.9l6.3-6.18zm85.75 6.04c.85-.04.16.07-2.37.4-4.1.55-6.8 1.24-8.7 2.2-4.96 2.53-9.3 8.56-11.4 15.82-.33 1.12-.87 3.57-1.22 5.45-.47 2.53-.57 2.85-.46 1.5.2-1.5.44-2.9.7-4.15l.12-.52c.08-.38.17-.74.26-1.1a50.4 50.4 0 0 1 1.07-3.68c.16-.47.33-.94.5-1.38a27 27 0 0 1 2.6-4.9 27.1 27.1 0 0 1 3.09-3.67c2.4-2.42 4.73-3.92 7.77-4.83a50 50 0 0 1 5.13-.93l1.57-.14 1.35-.08zm139.73 4a6.5 6.5 0 0 1 2.53.43c3.8 1.45 7.16 7.52 6.53 11.78-.5 3.38-2.43 5.44-7.63 8.15-1.54.8-2.85 1.4-2.9 1.34s-1.2-2.3-2.53-4.97-2.5-4.85-2.62-4.85a38.6 38.6 0 0 0-7.2 4.01c-.3.8.42 1.62 1.32 1.52.44-.05 1.93-.63 3.3-1.28l2.57-1.18c.22 0 3.7 7.5 3.56 7.66-.1.1-1.48.72-3.05 1.37-3.55 1.46-5.63 1.48-8.34.07-2.83-1.48-5.6-6.72-5.58-10.6 0-1.94 1.35-4.63 2.95-5.9.74-.58 4.17-2.46 7.63-4.18 5.28-2.62 6.63-3.15 8.4-3.3.38-.03.73-.05 1.06-.06zm-182.63 2.97a8 8 0 0 1-.06 1.76c-.1 1.4-.25 2.62-.3 2.7-.24.27-.1-2.52.2-3.9.08-.38.14-.57.17-.57zm-92.55 1.47c1.9-.04 3.34.15 4.85.6a17.6 17.6 0 0 1 3.4 1.53c.02.01.03.02.05.03.2.1.37.22.54.33l.73.45c1.2.78 2.38 1.7 3.4 2.6a20.3 20.3 0 0 1 .97.93c.25.25.53.57.85.93a82.2 82.2 0 0 1 2.42 2.95l.8 1.02c1.35 1.76 2.43 3.3 2.5 3.65-.04.17-1.78 2.07-3.95 4.38l-4.3 4.53c-4.4 4.6-6.5 6.93-8.1 9.1-.01.02-.04.05-.05.07-.52.7-1 1.4-1.48 2.12-.2.28-.36.56-.54.84a42.6 42.6 0 0 0-.71 1.15 41.5 41.5 0 0 0-.6 1.04l-.24.45a28.4 28.4 0 0 0-1.54 3.24 26.4 26.4 0 0 0-.73 2.39 23.4 23.4 0 0 0-.22.89c-.05.23-.13.5-.17.7-.24 1.22-.46 1.83-.48 1.35-.06-1.54.97-4.85 2.47-8 2.14-4.47 5.83-9.1 13.5-17l6.8-7.2c0-.6-4.7-6.4-7.04-8.67-4.53-4.4-7.27-5.73-12.54-6.1l-2.6-.18 1.17-.08c.3-.02.52-.02.8-.03zm-3.5.3c.4.01-.1.3-1.12.68s-2.7 1.17-3.74 1.78c-2.78 1.63-7.38 6.38-9.98 10.3-4 6.04-9.13 17.25-12.76 27.88a233.2 233.2 0 0 0-3.18 10.42c-.9 3.28-1.66 5.72-1.67 5.43 0-.05.04-.25.08-.43a185.5 185.5 0 0 1 1.15-4.56l.26-.97a180.8 180.8 0 0 1 7.52-21.75l.36-.86.65-1.48.9-2 .38-.8 1.7-3.52a78.2 78.2 0 0 1 4.96-8.49l.25-.36.5-.68c.8-1.08 1.6-2.08 2.42-3a43.4 43.4 0 0 1 2.78-2.76 26.7 26.7 0 0 1 1.66-1.34c1.17-.84 2.58-1.68 3.86-2.34a12.1 12.1 0 0 1 2.98-1.14c.01 0 .03-.01.04-.01zm95.4 4.25a2.6 2.6 0 0 1 .05.43h0a27.9 27.9 0 0 1 0 3.4c-.07.88-.13.07-.13-1.8 0-1.4.03-2.16.08-2.04zm-.33 9.2c.01.08.03.4.04.94a155.8 155.8 0 0 1 .04 3.75l-.12 3.97-.03-3.9.07-4.75zM55.7 209.6c.37.01 31.8 12.1 32.02 12.33.07.07-.58 2-1.45 4.28s-1.75 4.15-1.95 4.14a1514 1514 0 0 1-32.04-12.31c-.25-.25 3.06-8.45 3.4-8.44zm499.76.37c.86.01 1.63.15 2.2.45 2.98 1.56 5.52 6.5 5.52 10.76 0 2.17-.7 4.07-1.95 5.2-.64.58-4.6 2.34-4.8 2.14a49.8 49.8 0 0 1-2.59-7.31c.1-.1.82-.44 1.6-.74 1.57-.6 2.16-1.3 1.84-2.13-.46-1.2-3.36-.38-4.16 1.16-.26.5-.64 2.27-.84 3.94-.42 3.4-.87 5.3-1.57 6.67-.6 1.14-2.9 2.52-5.62 3.37-2.7.84-3.96.8-5.77-.15-3.37-1.78-5.94-7.8-5.27-12.3.32-2.13 1.8-3.75 4.75-5.16 1.3-.62 2.46-1.06 2.6-.98.5.3 2.8 7.02 2.5 7.28-.17.15-1 .54-1.84.86-1.9.73-2.38 1.13-2.38 1.9 0 1.1.82 1.45 2.35 1 2.05-.62 2.45-1.27 3.1-5.17.9-5.22 1.26-6.3 2.64-7.8 1.67-1.78 5.1-3 7.66-2.98zm-175.6.85c.02.03.04.1.06.23a6.1 6.1 0 0 1 0 1.7c-.08.42-.15-.01-.14-.94 0-.25.01-.33.02-.5l.05-.48c0 0 .01-.02.01-.02zm-.34 3.55c.02.02.04.1.05.25.08.6.08 1.6 0 2.2s-.14.1-.14-1.1c0-.9.03-1.42.08-1.36zm-19.4 4.1c.02.02.03.1.05.25.01.1.01.22.02.32l-.12 1.83c-.02-.23-.04-.53-.04-1.04 0-.9.03-1.42.08-1.36zm19.07.6c.02.03.03.14.05.33a19.5 19.5 0 0 1 0 2.89c-.07.8-.13.14-.13-1.45 0-1.2.03-1.86.08-1.78zm-70.1 1.96c.01.03.01.03.02.08.08.6.08 1.6 0 2.2-.06.5-.1.12-.12-.64l.1-1.65zm50.68 1.6c.02.01.04.07.06.18.03.15.03.35.04.55l-.1 1.15c-.05 0-.08-.33-.08-.93 0-.63.04-.98.1-.94zm19.08 2.1c.02.03.03.13.05.3.07.7.07 1.78 0 2.38s-.13.03-.13-1.28c0-.98.04-1.5.08-1.4zm-19.3 1.18c.01 0 .02.02.02.08 0 .14-.01.37-.04.62l-.2 1.5a130.1 130.1 0 0 1-2.03 10.03l-.1.47-.72 2.7c-.02.1-.04.17-.07.26l-.88 2.9a96.5 96.5 0 0 1-.97 2.88c-.68 1.92-1.42 3.8-2.2 5.64l-1.24 2.78c-.85 1.82-1.76 3.6-2.7 5.36a93.3 93.3 0 0 1-1.47 2.59c-.5.87-1.03 1.7-1.55 2.54l-1.63 2.48-1.7 2.4c-.4.54-.8 1.06-1.2 1.6l-.57.76-1.84 2.27a82.4 82.4 0 0 1-3.88 4.31l-3.44 3.55 4.72 6.66c2.6 3.66 4.87 6.7 5.05 6.77s2.13-.92 4.33-2.18a145 145 0 0 1 15.11-7.5 74.1 74.1 0 0 1 9.43-3.24c.2-.04.4-.08.57-.1.75-.1.06.18-1.53.63-6.8 1.94-14.22 5.27-23.45 10.54l-4.6 2.6a648.6 648.6 0 0 1-5.02-7.06l-4.98-7.05 3.2-3.38c13.28-13.96 21.27-30.27 24.8-50.6.38-2.2.72-3.77.8-3.8zm-50.5 2.9c.02.03.03.13.05.3.07.7.07 1.78 0 2.38-.02.16-.04.23-.06.22l-.06-1.04c0-.18-.01-.24-.01-.46 0-.98.04-1.5.08-1.4zm69.45.43c.02.02.04.1.05.2.08.5.08 1.36 0 1.87s-.14.1-.14-.94c0-.77.04-1.2.1-1.15zm-.35 3.6c.02.02.04.1.06.2.08.42.08 1.04-.01 1.36s-.15-.02-.15-.77c0-.56.04-.85.1-.78zm-68.78.34c.02.02.04.1.06.2.08.42.08 1.04-.01 1.36-.04.14-.07.14-.1.04-.01-.05-.01-.1-.02-.17-.02-.15-.03-.34-.03-.64 0-.56.04-.85.1-.78zm68.54 2.56c.01 0 .02.03.02.1.02 1.25-1.2 6.56-2.23 9.7a73.1 73.1 0 0 1-12.18 22.45c-1.04 1.3-1.85 2.4-1.8 2.46s1.4-.44 2.97-1.1c3.46-1.46 8.3-2.75 11.26-3 1.7-.15 1.43-.05-1.3.45-1.9.35-4.75 1.05-6.3 1.56-.82.27-1.9.68-2.98 1.1a49 49 0 0 0-2.39 1.02c-.1.04-.2.1-.3.13-.8.37-1.38.65-1.78.8-.2.08-.34.12-.44.13s-.15-.02-.14-.1c0-.14.2-.44.6-.95s1-1.22 1.82-2.17c.62-.73 1.22-1.5 1.82-2.28 2.97-3.9 5.64-8.4 7.8-13.12 1.03-2.2 1.94-4.4 2.67-6.5a55.6 55.6 0 0 0 1.56-5.39l.5-2.1c.4-1.9.73-3.2.8-3.17zm-68.23.64c.03-.1.2.6.5 2.18 1.97 10 4.1 16.5 14.67 44.94 6.16 16.56 10.82 30.26 12.95 38.07.78 2.87 1.36 5.28 1.28 5.36s-.72-2.04-1.44-4.7c-.56-2.1-1.43-4.95-2.44-8.12a474.7 474.7 0 0 0-5.56-16.48c-.01-.02-.01-.04-.02-.06l-9.2-25.15c-3.7-10.15-6.1-17.1-7.7-22.4-1.47-5.14-2.77-10.58-2.97-12.66-.06-.6-.08-.93-.06-1zm-263.43.9c.07 0 .14.02.23.04.4.1 7.96 1.97 16.8 4.15 13.15 3.24 16.1 4.06 16.08 4.52 0 .3-.44 2.25-.96 4.3-.9 3.5-1 3.74-1.74 3.63-.63-.1-.74 0-.56.48 1.34 3.5.53 7.1-1.95 8.62-.85.53-1.68.7-3.16.68-2.3-.04-18.55-4-20.5-5-1.4-.72-2.77-3-2.77-4.66 0-1.83.7-3.6 1.94-4.98.67-.74 1.16-1.4 1.08-1.46s-1.6-.46-3.37-.9-3.34-.87-3.47-.98.24-2.1.82-4.4c.85-3.4 1.06-4.05 1.54-4.05zm219.9 3.22c.02.04.03.15.05.35h0a17 17 0 0 1 0 2.72c-.07.7-.13.04-.13-1.46 0-1.12.04-1.73.08-1.62zm.22 4.66c.1-.1.26.7.4 1.77s.16 2 .08 2.08-.26-.7-.4-1.77-.17-2-.08-2.08zm-33.56 3.72c.07.07-.4 2.8-1.05 6.05l-1.5 7.8c-.18 1.03-.34 1.54-.36 1.13-.01-.13.03-.46.07-.8.72-4.55 1.57-9 2.56-13.37.13-.5.24-.85.28-.8zm34.2.9c.1.03.44 1.07.84 2.55.02.07.34 1.1.38 1.24l.23.83c.65 2.23 7.1 22.9 14.33 45.94l14.72 47.78c.02.1.03.23.02.25-.08.08-.55-1.27-1.04-3a6696.4 6696.4 0 0 0-14.04-45.03l-15.46-50.5c0-.04.01-.06.02-.05zm-82.57 13.07c.04-.03.06.1.06.37 0 .37-.12 1.06-.27 1.53-.22.67-.27.7-.27.17 0-.37.12-1.07.27-1.53.1-.34.18-.5.22-.54zm45.24 2.2c.02.01.04.05.06.14a2.8 2.8 0 0 1 0 1.19c-.1.33-.15.06-.15-.6 0-.23.02-.34.03-.47l.03-.22c.01-.02.02-.05.03-.04zm153 .77a41.1 41.1 0 0 1 2.17.05c1.16.07.12.12-2.3.12s-3.4-.06-2.12-.12c.64-.03 1.45-.05 2.25-.05zm-199 .12c.02.01.04.04.07.1.1.23.1.62 0 .85s-.17.04-.17-.43c0-.35.04-.55.1-.52zm204.76.22a2.8 2.8 0 0 1 .64.06c.33.1-.02.15-.77.15s-1.02-.07-.6-.15a3.9 3.9 0 0 1 .72-.06zm-338.65.64a446.7 446.7 0 0 1 22.93 2.89l1.04.18-.6 4.28c-.32 2.35-.64 4.32-.7 4.38a259.7 259.7 0 0 1-10.84-1.38c-12.23-1.7-12.44-1.7-12.74-.92-.54 1.4.58 1.67 14.62 3.54 4.5.6 8.3 1.2 8.43 1.32s0 2.1-.3 4.38l-.56 4.15-1.23-.04a577.6 577.6 0 0 1-26.83-3.82c-.2-.2.34-5.35.82-7.83.17-.86.3-.95 1.17-.77l.98.2-.7-.96c-1-1.36-1.38-3.32-.97-5.15.7-3.08 2.36-4.43 5.5-4.43zm343 .18c.02-.02.1-.02.3.01 2.36.34 7.28 2.14 10.8 3.96 15.08 7.75 25.54 23.82 30.07 46.2.47 2.33.8 4.56.75 4.95s-.3-.58-.56-2.17c-.17-1.08-.44-2.45-.78-3.95a96.8 96.8 0 0 0-2.53-9.53 58.4 58.4 0 0 0-1.02-3.06c-.23-.63-.5-1.23-.73-1.85l-.5-1.25-.33-.8c-2.26-5.33-5-10.1-8.18-14.26l-.38-.5c-.5-.65-1.03-1.27-1.55-1.9l-.77-.88c-.33-.37-.66-.73-1-1.08a50.7 50.7 0 0 0-1.63-1.65l-.36-.34a48.7 48.7 0 0 0-2.58-2.28c-5.04-4.14-10.78-7.16-17.2-9-1.2-.34-1.88-.58-1.83-.64zm-163.4.66c.03-.04.05.01.05.18.01.47-.18 2.38-.43 4.26s-.46 2.8-.47 2.04c0-.2.04-.62.07-.95l.46-3.87c.13-.83.26-1.56.32-1.66zm-45.95.24c.03-.02.04.01.04.1.01.37-.2 1.6-.44 2.72s-.47 1.74-.48 1.36.2-1.6.44-2.72c.2-.84.36-1.4.44-1.46zm-1.1 5.32c.02.02.04.07.06.15.1.33.08.8-.01 1.02s-.16-.04-.16-.6c.01-.42.05-.63.1-.57zm-.34 2.04c.02.02.04.07.06.15.1.33.08.8-.01 1.02s-.16-.04-.16-.6c.01-.42.05-.63.1-.57zm46.32.95c.02.02.04.1.06.2.08.5.08 1.36 0 1.87s-.14.1-.14-.94c0-.46.02-.74.04-.93v-.13c.01-.06.02-.1.04-.1zm-46.66 1.1c.02.01.04.05.06.14a2.8 2.8 0 0 1 0 1.19c-.1.33-.16.06-.16-.6 0-.5.04-.76.1-.73zm-.34 2.38c.02.01.04.05.06.14a2.8 2.8 0 0 1 0 1.19c-.1.33-.15.06-.15-.6 0-.5.04-.76.1-.73zm46.67.52c.02.03.03.13.05.3.07.7.07 1.78 0 2.38s-.13.03-.13-1.3c0-.98.04-1.5.08-1.4zm-47 2c.02.02.04.1.06.2.08.42.08 1.04-.01 1.36s-.15-.02-.15-.77c0-.56.04-.85.1-.78zm199.55.76c2.35 0 4.66.12 6.5.34.08.01.2.02.26.04 1.8.3 4 .9 5.82 1.48a32.4 32.4 0 0 1 3.16 1.3c.76.6.4.52-1.3-.28-3.3-1.52-7.75-2.4-13.45-2.66l-3.6-.17c.87-.03 1.75-.05 2.63-.05zm-4.9.22c.2.01.3.04.25.1-.08.07-1.06.2-2.2.32-1.34.12-1.7.1-1.02-.1.3-.08.74-.15 1.18-.2.33-.04.7-.07 1.06-.1a7.5 7.5 0 0 1 .73-.02zm-194.98 1.75c.02.01.04.07.06.18.08.42.08 1.1 0 1.53s-.15.08-.15-.77c0-.63.04-.98.1-.94zm47 .44a2.6 2.6 0 0 1 .05.43 27.9 27.9 0 0 1 0 3.4c-.07.88-.13.07-.12-1.8 0-1.4.03-2.16.08-2.04zm169.6 1.26c.03 0 .07.02.1.03a28.4 28.4 0 0 1 2.51 1.49c1.3.9 2.75 2.07 3.73 3.02 2.83 2.76 5.18 6.2 7.06 10.3 2.1 4.66 3.6 10.28 4.6 16.96.08.7.1 1.28.05 1.34-.1.1-.28-.64-.4-1.62-1.03-7.97-3.83-16.27-7.27-21.55-2.44-3.74-6.4-7.55-9.56-9.17-.63-.32-1.05-.67-.95-.78.02-.02.06-.03.1-.03zm-216.93 1.5c.02.03.04.1.05.23.07.5.07 1.2 0 1.62v.1c-.08.4-.14-.03-.14-.95 0-.7.04-1.07.1-1zm-.34 3.55c.02.02.03.1.05.26.03.24.04.55.04.86l-.03.25c-.03.34-.05.9-.08 1.33-.04-.04-.07-.5-.07-1.33 0-.9.03-1.42.08-1.36zM56.97 293.6l-.27 11.23 3.5.23c4.25.27 5.2.1 5.2-1 0-1.1-.74-1.4-4-1.58-1.55-.1-2.9-.25-3.02-.36s-.1-1.98.04-4.14l.25-3.94h2.28c6.76 0 10.27 3.78 9.8 10.56-.3 4.33-2.1 7.4-5.06 8.65-1.68.7-5.5.87-12.04.54-7.66-.4-9.58-1.2-11.3-4.7-.85-1.73-.96-2.3-.95-5.18.01-3.56.57-5.3 2.4-7.46 1.67-1.98 3.43-2.53 8.62-2.7l4.55-.14zm170.37 1a17.4 17.4 0 0 1 .04 1.06c.06 2.5.06 6.48 0 8.85s-.1.34-.1-4.53l.06-5.38zm-47.68 1.72c.02.04.03.15.05.35.07.8.07 2.03 0 2.72s-.13.04-.13-1.46c0-1.12.03-1.72.08-1.62zm-.32 9.07a25.2 25.2 0 0 1 .04 1.31c.06 3.14.06 8.27 0 11.4s-.1.57-.1-5.7l.06-7.02zm48.34 5.16c.01.03.03.17.05.4.07.98.07 2.6 0 3.57s-.12.18-.12-1.8c0-1.47.03-2.3.08-2.2zm.33 6.76c.02.02.03.12.05.3.07.7.07 1.85 0 2.55s-.13.13-.13-1.28c0-1.05.03-1.64.08-1.57zm-159.17.54c1.33-.07 1.3.5 1.5 3.05.43 5.55-.5 7.88-3.38 8.54-.75.17-4.9.48-9.2.68-10 .48-10.04.48-10.04 1.54 0 .65-.18.84-.8.84-.44 0-1.5.1-2.38.22-1.57.22-1.58.2-1.58-.78v-1l-4.32.28-.22-1.82c-.12-1-.22-3-.22-4.44v-2.6l4.28-.46-.27-2.32h2.42c2.36 0 2.42.02 2.42.86 0 .48.24.96.54 1.07.84.32 16.93-.6 17.4-1 .23-.2.43-.77.43-1.28 0-.85.14-.95 1.58-1.15.8-.1 1.4-.2 1.85-.23zm346.75 2.8c.04.33.08.67.12 1-.01.2-.02.4-.05.55-.1.33-.15-.02-.15-.77 0-.53.04-.8.1-.78zm-187.36 1.1c.1-.1.27 1.46.4 3.45s.17 3.7.08 3.78c-.02.02-.05-.06-.08-.22l-.36-3.94a18.2 18.2 0 0 1-.05-3.06zM435 323.38c.02.02.04.1.06.2.08.42.08 1.04-.01 1.36s-.15-.02-.15-.77c0-.56.04-.85.1-.78zm-19.08.16c.04.4.1.75.13 1.14 0 .28-.02.56-.06.76-.08.42-.15-.01-.14-.94 0-.6.03-.9.07-.96zm-236.26 1.72c.02.04.03.15.05.35.07.8.07 2.03 0 2.72s-.13.04-.13-1.46c0-1.12.03-1.73.08-1.62zm255.68.85c.02.01.04.07.06.18.08.42.08 1.1 0 1.53s-.15.08-.15-.77c0-.63.04-.98.1-.94zm-19.08 1.3l.13 1.67c0 .54-.02 1.06-.05 1.46-.07.8-.13.14-.13-1.45 0-.94.02-1.5.05-1.68zm-77.03.1c.04-.04.08.01.14.15.1.25.1.54-.03.65-.04.04-.08.03-.1-.01l-.05-.2c-.01-.08-.03-.14-.03-.25.01-.2.03-.32.07-.35zm.43 1.93c.06.08.28.88.67 2.36.46 1.78 1.15 5.12 1.54 7.42s.66 4.6.6 5.1-.23-.15-.37-1.46c-.08-.75-.32-2.18-.6-3.78-.37-2.3-.85-4.75-1.44-7.35-.3-1.58-.45-2.38-.4-2.3zm96.02.1c.02.03.03.13.05.3.07.7.07 1.78 0 2.38s-.13.03-.13-1.3c0-.98.04-1.5.08-1.4zm-206.68.42c.02.03.04.1.06.23a6.1 6.1 0 0 1-.01 1.7c-.08.42-.15-.01-.14-.94 0-.7.04-1.07.1-1zm-49.1.07c.03.06.08.33.13.7a85.6 85.6 0 0 0 .21 3.12l.08.8c.07 1.5.1 2.76.03 2.83a40.4 40.4 0 0 1-.49-7.43c.01-.03.02-.04.04-.01zm49.34 3.42c.06-.03.17.5.3 1.4l1.18 8.46c.48 3.43.8 6.3.73 6.4-.05.05-.1-.1-.2-.45l-.3-1.75-1.6-11.78c-.1-1.02-.18-1.82-.18-2.06 0-.14.02-.2.04-.22zm187.37.42a108.5 108.5 0 0 1 0 4.49 19.3 19.3 0 0 1-.06-2.3 17.3 17.3 0 0 1 .06-2.19zm-351.9 2.03c1.55-.01 2.06.17 3.23.77 3.23 1.64 4.58 4.08 4.84 8.77.26 4.62-.92 7.3-3.94 8.94-1.37.75-2.87 1.1-7.28 1.76-7.05 1.04-9.98 1.25-11.65.84-4.14-1.03-6.33-4.6-6.33-10.38 0-2.4.13-3.06.95-4.63 1.2-2.3 2.96-3.5 6.26-4.35 3-.76 6.75-1.23 6.75-.84 0 .62 1.43 10.52 1.54 10.63.2.2 7.82-1 8.1-1.3.16-.15.23-.64.17-1.1-.1-.75-.26-.8-2.16-.8-1.12 0-2.73.08-3.56.17l-1.52.16-.56-4.1c-.3-2.25-.5-4.15-.44-4.23s1.7-.2 3.63-.3l1.96-.06zm371.32.25c.01.08.03.36.04.86a140.4 140.4 0 0 1 0 7.15c-.06 1.9-.1.25-.1-3.68l.07-4.33zm-255.48 1.92c.04-.04.1.22.18.66l.2 1.73c.01.08.02.13.03.22.13 1.52.17 2.84.08 2.93s-.27-1.08-.4-2.6-.17-2.84-.08-2.93zm235.72 3.2c.02.02.03.12.05.32h0c.06.67.06 1.7.02 2.57l-.05.73c-.06.36-.1-.26-.1-1.68 0-1.26.03-2 .08-1.94zm-235.03 2.92c.1-.1.27.86.4 2.1a9.4 9.4 0 0 1 .08 2.41c-.1.1-.27-.86-.4-2.1s-.17-2.33-.08-2.42zm234.68 2.8c.02.03.04.1.05.23.03.2.04.44.04.67l-.12 1.16c-.05-.04-.08-.42-.08-1.07 0-.7.04-1.07.1-1zm-73.18.43a5.6 5.6 0 0 1 .04.65 83.4 83.4 0 0 1 0 5.62c-.06 1.54-.1.28-.1-2.8 0-2.32.03-3.6.07-3.46zm93 .4a10.8 10.8 0 0 1 .05 2.06 45.2 45.2 0 0 1-.3 4.23c-.18 1.37-.2.7-.1-2.04l.12-2.17c0-.01 0-.03 0-.04.01-.15.02-.33.03-.48.08-1.04.15-1.6.2-1.55zm-138.02 1.1l1.17 4.44c.35 1.67.7 3.5.96 5.04.3 1.8.46 3.8.38 4.43-.14 1.1-.14 1.1-.2-.2-.08-1.9-.93-7.03-1.76-10.58-.38-1.63-.63-3.03-.55-3.1zm-115.8.37c.1-.1.27.7.4 1.76s.17 2 .08 2.07-.26-.7-.4-1.76-.17-2-.08-2.07zm233.65.96c.02.02.04.1.06.2.03.15.03.33.04.5l-.13.95a2.7 2.7 0 0 1-.07-.85c0-.56.04-.85.1-.8zm-183.98.1c.08-.08.43 1.46.76 3.44s.54 3.65.46 3.74c-.04.04-.14-.3-.27-.9l-.6-3.18c-.27-1.65-.44-3.02-.37-3.1zm183.7 2.58c.03 0 .05.1.05.3 0 .1-.02.3-.03.46-.12.8-.26 1.57-.4 2.35-.08.2-.13.25-.14-.1a12.5 12.5 0 0 1 .26-2.21c.1-.55.2-.82.25-.82zm-232.7.8c.1-.1.26.63.4 1.6s.16 1.82.08 1.9-.26-.63-.4-1.6-.17-1.82-.08-1.9zm252.46 2.6c.05-.01.08.32.07 1.04-.01.64-.16 1.78-.32 2.53-.23 1.05-.26.8-.1-1.02.13-1.6.28-2.53.36-2.55zm-92.6 1.03c.03-.01.05.06.05.2.05 1.73-1.54 7.42-2.98 10.7-6.38 14.46-21.04 24.98-41.96 30.12-2.56.63-5.4 1.22-6.3 1.32-1.97.22-1.54.1 3.58-1.03 8.64-1.9 15.74-4.4 21.88-7.7a63.1 63.1 0 0 0 1.28-.69l.66-.38c6.12-3.5 11.08-7.7 15.02-12.77l.68-.9c.47-.62.9-1.24 1.34-1.88 0-.01.01-.01.01-.02l.02-.03c.6-.9 1.17-1.8 1.7-2.7l.23-.4a35.6 35.6 0 0 0 3.73-9.27c.24-.92.45-1.84.62-2.77.2-1.1.38-1.78.46-1.8zm72.16.16c.02 0 .03.06.03.15a122.5 122.5 0 0 1-.72 3.58c-.1.27-.16.4-.17.18-.01-.28.18-1.43.43-2.55.2-.84.36-1.36.43-1.36zm-231.32.3c.1-.1.26.56.4 1.42s.17 1.65.08 1.73-.26-.56-.4-1.42-.17-1.65-.08-1.73zm49.7.35c.08-.08.4 1.2.73 2.84 3.78 19.32 10.8 36.27 20.24 48.94a101.6 101.6 0 0 0 15.31 15.3c8.85 6.28 18.77 10.23 29.85 11.88 1.87.28 2.8.5 2.04.5-.17 0-.4-.02-.64-.04a80.3 80.3 0 0 1-5.82-.97l-.35-.07-1.7-.38-1.25-.3c-7.3-1.86-13.95-4.77-20-8.78-.4-.26-.78-.53-1.17-.8l-.65-.45-1.67-1.23-1.37-1.07-.28-.22a67.8 67.8 0 0 1-1.52-1.27c-3.94-3.4-7.6-7.37-11.05-11.9-3.77-5.03-7.14-10.7-10.08-17l-1.13-2.5c-3.88-8.97-7-19.38-9.44-31.43-.08-.57-.12-1-.06-1.05zm201.24 3.37c.03-.02.06.14.13.45.08.4-.33 3.07-.9 5.94s-1.12 5.3-1.2 5.38c-.25.25-.1-.58.73-4.7l.33-1.68c.46-2.3.84-4.4.87-4.8.02-.37.04-.56.06-.58zm-250.3.27c.06-.07.26.6.5 1.67l2.14 9.45c.6 2.52 1.2 4.97 1.86 7.35l.16.62c1.4 5.15 2.78 9.7 4.17 13.57.76 2.13 1.56 4.17 2.38 6.18l1.25 3c4.02 9.35 8.72 17.4 14.24 24.37l.58.7 1.58 1.9.92 1.06a87.1 87.1 0 0 0 1.22 1.34c.7.78 1.44 1.54 2.18 2.28l.94.94 1.46 1.4.87.8 1.54 1.37 1.58 1.32 1.43 1.16c.73.58 1.48 1.15 2.23 1.7l.4.3a99.6 99.6 0 0 0 10.97 6.98c3.42 1.88 7.14 3.6 11.07 5.17l.25.1a120.5 120.5 0 0 0 3.29 1.25l2.98 1.05a167.1 167.1 0 0 0 7.3 2.33c1.85.54 3.06.98 2.68.97-1.53-.02-13.92-4.18-19.07-6.4-31.33-13.5-49.47-37.38-59.9-78.9-1.3-5.22-3.26-14.27-3.22-14.98 0-.04.01-.07.02-.08zm-128.17.46c.32.05.5.37.75 1.23.6 1.97 1.45 2.7 3.18 2.7.8 0 4.63-.7 8.53-1.57s7.16-1.5 7.26-1.4.6 2.03 1.13 4.3l.95 4.12-.72.17-26.67 5.95c-.57 0-.6-.08-1.47-4.1-.4-1.78-.78-3.5-.87-3.8-.13-.44.14-.62 1.25-.8l1.42-.24-1.07-.52c-1.36-.66-3.17-2.7-3.04-3.43.08-.4 1.2-.8 4.2-1.48l4.8-1.12a1 1 0 0 1 .38-.04zm357.9.18c-.78 3.5-1.7 6.94-2.8 10.3l-.3.95-1 2.9-.4 1.1-.98 2.54c-1.04 2.54-2.16 5-3.37 7.4-.18.35-.37.7-.55 1.04l-1.27 2.37-.7 1.22-1.04 1.75-1.44 2.3c-.8 1.22-1.6 2.42-2.45 3.58-.01.01-.02.03-.03.04l-.1.15c-.73 1-1.47 2-2.23 2.95l-.96 1.2-1.5 1.8-2.48 2.74a84.6 84.6 0 0 1-2.19 2.23l-.32.32c-.01.01-.02.02-.03.03a84.1 84.1 0 0 1-2.74 2.54l-.23.2a83.9 83.9 0 0 1-2.87 2.42l-.3.24a84.1 84.1 0 0 1-2.85 2.17l-.48.35a84.7 84.7 0 0 1-2.91 2l-.5.33a85.6 85.6 0 0 1-3.15 1.95l-.28.17c-1.15.67-2.32 1.32-3.5 1.94a106.6 106.6 0 0 1-4.61 2.27l-.37.17-.46.2a102.3 102.3 0 0 1-7.85 3.12l-.37.13a111.6 111.6 0 0 1-4.05 1.31l-.77.22a119.6 119.6 0 0 1-7.24 1.89c-.2-.03 1.64-.62 4.2-1.33 27.65-7.7 46.34-22.52 58.42-46.3 3.5-6.9 5.97-13.45 8.15-21.62.48-1.8.9-3.13 1-3.24zm-113.13 2.66c0 0 .01.05.01.06a44.2 44.2 0 0 1-.02 3.68c-.04.02-.07-.6-.07-1.8 0-1.26.03-2 .08-1.94zm-.35 5.72c.02.03.04.1.05.23.03.23.05.52.05.8l-.13 1.03c-.04-.06-.07-.43-.07-1.07 0-.7.04-1.07.1-1zM432.04 374c.02-.03.03-.03.03 0 .05.98-2.82 10.25-4.64 15-4.5 11.78-10.6 22.4-18.5 32.3-1.55 1.95-4.12 4.86-5.7 6.47-2.8 2.85-2.8 2.86-.58.38 1.43-1.6 2.8-3.18 4.1-4.77 2.27-2.7 4.43-5.48 6.46-8.37.98-1.4 1.9-2.8 2.82-4.23l1.9-3.04a117 117 0 0 0 4.02-7.26l.1-.23a117.3 117.3 0 0 0 1.69-3.47l.18-.4 1.74-3.93a123 123 0 0 0 1.4-3.48l.1-.3 1.4-3.9.1-.32c.7-2.08 1.38-4.2 2-6.36.64-2.2 1.18-3.9 1.32-4.12zm-132.2.46c.02.02 0 .23-.02.48a38.3 38.3 0 0 1-4.93 12.88 39.6 39.6 0 0 1-9.1 10 36 36 0 0 1-2.1 1.46l-.15.1c-1.76 1.13-2.28 1.38-2.28 1.1 0-.07.94-.7 2.1-1.42 7.8-4.82 13.74-13.3 15.98-22.8.3-1.27.46-1.85.5-1.8zm-224.1 3.83c2.63 0 2.68.02 3.8 1.25 1.1 1.2 1.88 3.12 1.86 4.54-.01.37-.23 1.3-.5 2.03s-.42 1.4-.35 1.48 1.32-.26 2.77-.75 2.67-.85 2.7-.8c.38.4 2.52 8.22 2.3 8.4-.16.14-7.04 2.42-15.3 5.07l-15.22 4.82c-.12 0-.38-.58-.57-1.28s-.8-2.62-1.36-4.27l-1-3 1.96-.4-1.42-1.07c-2-1.52-3.05-3.66-2.82-5.8.22-1.96.87-3.06 2.35-3.98.6-.37 4.92-1.93 9.6-3.47 7.73-2.54 8.76-2.8 11.18-2.8zm213.2 21.68c.37.01-.32.22-1.53.47a19.9 19.9 0 0 1-3.06.43c-.47-.01.22-.22 1.53-.47s2.7-.44 3.06-.43zm-7.48.87a5.7 5.7 0 0 1 .67.09c.92.18 1.1.28.5.3a33.5 33.5 0 0 0-2.21.23c-1.32.18-1.34.17-.5-.3.46-.26.93-.37 1.54-.32zm252.75 1.55c.97.26 30.84 12.94 31.17 13.23.18.16-.4 1.93-1.38 4.27-.93 2.2-1.84 4.03-2.02 4.08-.26.07-31.4-13-31.74-13.3-.05-.05.7-1.97 1.66-4.25 1.36-3.2 1.88-4.13 2.3-4zm-443.43 7.8c.05.06.96 1.83 2 3.93l1.9 3.82-1.7.9 1.53.74c3.8 1.84 4.8 7.3 1.8 9.8-1.15.97-14.86 7.88-17.86 9-1 .38-2.24.68-2.75.67-2.86-.05-5.5-3.35-5.52-6.88 0-1.08-.08-1.96-.18-1.96a43.5 43.5 0 0 0-3.23 1.53c-1.68.84-3.13 1.53-3.22 1.53-.18 0-3.92-7.33-3.92-7.68 0-.23 31-15.57 31.15-15.4zm434.33 16.76a3.5 3.5 0 0 1 .47.05c.62.12 4.84 2.26 9.4 4.78 8.16 4.5 8.5 4.63 8.92 3.38.13-.38 2.35.54 3.6 1.5.7.52.75.72.42 1.34-.36.66-.23.82 1.5 1.8l1.88 1.06-.55 1.08c-.6 1.15-3.55 6.45-3.7 6.63-.05.06-.93-.37-1.96-.95l-1.87-1.05-1.27 2-1.97-1.08c-1.5-.82-1.92-1.22-1.8-1.67l.35-1.2c.14-.48-1.32-1.4-7.55-4.84l-7.73-4.24-1.7 2.1-1.98-1.07c-1.1-.6-1.98-1.2-2-1.36-.01-.5 3.62-6.5 4.3-7.1a4.7 4.7 0 0 1 3.24-1.16zm-126.6 5.52a30.8 30.8 0 0 1-1.93 1.95 108.6 108.6 0 0 1-7.66 6.68c-2.18 1.7-4.1 3.08-4.28 3.08s.75-.8 2.04-1.77a177.2 177.2 0 0 0 11.03-9.25 7.2 7.2 0 0 1 .79-.69zm-57.6 2.56c.2-.01.32.01.27.07-.02.03-.18.08-.43.14a138.8 138.8 0 0 1-9.34 1.71c-.24.03-.46.05-.55.05-.4-.02 1.17-.38 3.5-.8l5.62-1.04c.37-.07.7-.1.9-.12zm-12.02 2.04a2.8 2.8 0 0 1 .64.07c.07.02.1.03.1.05l-.68.1c-.08 0-.1.01-.2.01-.75 0-1.02-.07-.6-.16a3.9 3.9 0 0 1 .72-.06zm-3.06.34a4.7 4.7 0 0 1 .81.06c.2.04.2.08.04.1-.01 0-.02 0-.02 0a7.7 7.7 0 0 1-.96.04c-.94 0-1.28-.07-.76-.15a6.1 6.1 0 0 1 .89-.06zm-21.1.34c.37 0 .73.02.98.06.5.08.01.14-1.1.14s-1.54-.06-.93-.14a8.9 8.9 0 0 1 1.06-.06zm17.07 0c.4 0 .8.02 1.1.06.6.08.1.14-1.1.14s-1.72-.06-1.1-.14a9.6 9.6 0 0 1 1.11-.06zm-8.54.34l3.2.05c1.72.06.22.1-3.34.1s-4.97-.05-3.13-.1a103.1 103.1 0 0 1 3.28-.05zm202.38.65c.23-.01 27.8 18.36 28.57 19.04.2.18-3.55 6.23-4.52 7.3-.15.16-1.62-.64-3.28-1.77l-3-2.07-.2 1.62c-.37 2.82-1.95 4.95-4.46 6a6.6 6.6 0 0 1-1.87.52c-1.3-.02-4-1.6-13.1-7.72l-9.42-6.33 4.9-7.32c.04-.05 4.3 2.74 9.47 6.2s9.72 6.3 10.1 6.3c.98 0 1.23-.9.47-1.75-.35-.4-4.62-3.4-9.5-6.67l-9-6.08c-.2-.18 4.52-7.27 4.84-7.28zm-408.18 2.85c.32-.12 5.12 6.8 5.12 7.4 0 .14-6.4 4.48-14.2 9.64l-14.5 9.4c-.25 0-1.77-2.15-4.63-6.54l-.6-.93 28.83-18.95zm-25.77 2.82c.45-.03.72.35 1.6 1.74l1.2 1.94-2.13 1.98c-1.17 1.1-3.15 2.58-4.4 3.32a15.2 15.2 0 0 1-2.61 1.34c-.28 0-3.46-5.1-3.46-5.57 0-.3 4.7-2.87 6.52-3.55l2.74-1.04c.22-.08.4-.14.54-.16zm302.3.22c.23.23-6.82 4.68-11.12 7.02-4.8 2.62-9.38 4.7-15.1 6.87-2.4.9-4.55 1.65-4.77 1.63s.44-.34 1.47-.73l2.8-1.08a118 118 0 0 0 13.9-6.22c3.12-1.6 6-3.27 8.63-5 2.22-1.45 4.1-2.57 4.2-2.5zM352.2 460.3c0 .03-.17.12-.46.24-1.38.6-8.97 2.63-13.34 3.56a43.9 43.9 0 0 1-4.8.83c-.42-.01 1.38-.46 4-1 1.5-.3 3.4-.76 5.3-1.22 1.73-.42 3.42-.86 5.08-1.32 2.67-.74 4.23-1.16 4.22-1.08zm-227.76 1.45c1.72.01 4.63 1.16 4.63 1.82 0 .55-1.96 1.73-2.52 1.5-.84-.32-1.77.13-1.28.63.22.22.4.5.4.63s-1.03 1.07-2.3 2.08a57.7 57.7 0 0 1-2.69 2.08c-.35.2-3.86-3.73-3.86-4.33 0-.4 2.2-2.2 4.05-3.3 1.45-.88 2.2-1.12 3.57-1.1zm377.63.14c2.1 0 4.9 1.58 9.35 5.3 7.5 6.25 8.86 8 8.85 11.46-.01 3.37-2.88 7.64-6.44 9.58-2.07 1.13-4.76 1.45-6.54.8-1.63-.6-2.8-1.45-7.45-5.37-6.87-5.78-7.83-7.1-7.83-10.78 0-2.46 1-4.6 3.4-7.3 2-2.24 4.6-3.68 6.66-3.68zm-235.1.33c.23-.02 1.4.22 5.8 1.16a177.7 177.7 0 0 0 7.02 1.28c.02 0 .05.01.07.01l2.62.43c3 .45 4.83.8 4.1.8-2.77 0-19-3-19.58-3.6-.05-.05-.08-.1 0-.1zm65 2.77c.2 0 .36.03.47.07.23.1-.04.16-.6.16s-.75-.08-.42-.17c.17-.04.36-.06.55-.06zm-2.34.34c.22 0 .43.02.6.06.33.1.06.16-.6.16s-.92-.07-.6-.16c.16-.04.38-.06.6-.06zm-2.43.34a2.8 2.8 0 0 1 .64.07c.33.1-.02.15-.77.15s-1.02-.07-.6-.16c.2-.04.47-.06.72-.06zm-37.45.34a4.7 4.7 0 0 1 .81.06c.42.08-.01.15-.94.14s-1.28-.07-.76-.15c.26-.04.58-.06.9-.06zm34.4 0a4.7 4.7 0 0 1 .81.06c.42.08-.01.15-.94.14s-1.28-.07-.76-.15c.26-.04.58-.06.9-.06zm-30.6.34a9.6 9.6 0 0 1 1.11.06c.6.08.1.14-1.1.14s-1.72-.06-1.1-.14a9.6 9.6 0 0 1 1.11-.06zm26.56 0a9.6 9.6 0 0 1 1.11.06c.6.08.1.14-1.1.14s-1.7-.06-1.1-.14c.3-.04.7-.06 1.1-.06zm-5.8.34a27.2 27.2 0 0 1 1.79.05c.98.07.18.13-1.8.13-1.94 0-2.73-.05-1.8-.12h.12c.48-.03 1.08-.05 1.7-.05zm-14.46.01l2.7.1c-.1.04-.98.06-2.54.06-2.34 0-3.3-.05-2.13-.12.54-.03 1.25-.04 1.96-.05zm6.63.34a4.3 4.3 0 0 1 .77.06c.42.08.08.15-.77.15s-1.2-.07-.77-.15a4.3 4.3 0 0 1 .77-.06zm-178.42 5.1c1.04.03 2.13.28 3.05.72 3.18 1.53 6.6 6.03 7.05 9.25.27 1.98-.88 4.5-3.04 6.62l-1.5 1.46-2.6-2.73c-1.44-1.5-2.6-2.86-2.6-3s.7-.95 1.53-1.78c1.57-1.54 1.85-2.28 1.13-3-.7-.7-1.45-.46-2.8.93l-1.3 1.34.9 3.93c1.2 5.32 1.2 7.44-.1 9.47-1.2 1.9-4.03 4.2-5.74 4.68a8.2 8.2 0 0 1-1.77.33c-4.07-.2-9.87-6.63-9.87-10.94 0-2.05.5-3.06 2.54-5.04l1.58-1.53 5.33 5.8-1.5 1.62c-1.54 1.65-1.6 2.02-.45 2.64.52.28.88.14 1.85-.7 1.5-1.32 1.56-2.36.36-6.84-1.15-4.3-1.12-6.2.13-8.15 1.03-1.62 3.23-3.58 5.05-4.5a5.9 5.9 0 0 1 2.81-.53zm357.15 7.52c1.7.01 3.44 1.56 8.64 6.7a356.4 356.4 0 0 1 8.85 9.04l2.78 3.03-6.45 5.97-8.12-8.3c-4.47-4.57-8.25-8.3-8.4-8.3-.6 0-1.36 1.08-1.1 1.56.15.27 3.75 4.08 8 8.46s7.73 8.1 7.73 8.26-1.36 1.64-3 3.3l-3 3-19.77-20.42c-.05-.13 1.3-1.6 2.98-3.3 2.65-2.64 3.15-3 3.7-2.67.55.34.66.2 1.02-1.1.52-1.94 2.43-4.03 4.35-4.76.7-.26 1.25-.43 1.82-.43zm-341.16 6.94c.28-.18 6.5 5.1 6.5 5.5 0 .12-.23.47-.5.78-.47.52-.4.57 1.02.6 2 .03 3.73 1.1 5 3.1 1.06 1.67 1.24 3.3.54 4.9-.62 1.4-4.26 5.6-5.52 6.4-1.56.96-2.62.87-7.56-.7l-4.36-1.38-1.62 1.7c-1.72 1.8-2.1 3.18-1.02 3.6.45.18 1.1-.33 2.7-2.04l2.1-2.27 6.25 5.6-1.98 2.03c-1.1 1.12-2.6 2.3-3.34 2.66-3.44 1.6-7.96-.07-11.72-4.34-2.86-3.25-3.05-6.55-.58-9.9 1.45-1.96 13.6-15.9 14.14-16.25zm320.3 6.97c1.03 0 1.85.3 3.04 1.1.9.6 1.7 1.28 1.76 1.5s-1.36 1.54-3.17 2.96c-3.2 2.52-3.3 2.57-4.1 2.04-.76-.5-.87-.5-1.5.07-.37.33-.67.7-.67.84s.52.97 1.17 1.87l1.17 1.64.55-1.32c1.63-3.9 6.37-5.8 9.38-3.75 1.44.98 9.3 10.75 10.63 13.2 1.46 2.72 1.18 5.16-.82 6.98a6.7 6.7 0 0 1-4.55 1.83c-1.47 0-1.56.05-1.34.77a20.3 20.3 0 0 1 .28.98c.03.12-1.3 1.3-2.98 2.64s-3.14 2.42-3.28 2.42c-.23 0-11.12-13.62-15.58-19.5-2.35-3.1-2.68-5.36-1.2-8.24 1.98-3.82 7.82-8 11.2-8zm-300.53 9.73l3.92 2.68c2.16 1.47 3.92 2.74 3.92 2.8s-1.1 2.2-2.42 4.73-2.35 4.68-2.25 4.77 1.75-1.53 3.7-3.6c2.2-2.35 3.72-3.73 4.04-3.64.64.17 7.5 4.98 7.5 5.26a562.4 562.4 0 0 1-6.51 12.74l-6.72 12.53c-.22-.01-5.43-3.58-5.94-4.06-.15-.15 1.2-3 3-6.3s3.23-6.1 3.17-6.15-1.84 1.86-3.96 4.27-4.22 4.72-4.68 5.15l-.82.77-2.9-2c-1.6-1.1-2.9-2.1-2.9-2.26s1.3-2.67 2.92-5.6 2.86-5.38 2.78-5.46-1.53 1.43-3.23 3.35-3.64 4-4.3 4.65l-1.2 1.16-2.94-2c-1.6-1.1-3-2.13-3.1-2.27-.13-.2 14.42-16.8 17.96-20.5l.97-1zm284.12 7a1519.9 1519.9 0 0 1 18.24 29.14c0 .18-1.56 1.3-3.46 2.5L459 544.2c-.1.05-1.04-1.3-2.07-2.97-1.8-2.94-2.38-3.58-2.38-2.63 0 .8-2.5 3.37-3.9 4a5.4 5.4 0 0 1-6.72-1.29c-.73-.77-8.85-13.3-12.46-19.2l-.74-1.22 3.6-2.27c1.98-1.25 3.7-2.27 3.82-2.27s2.66 3.87 5.65 8.6l6.25 9.7c.9 1.2 1.9 1.44 2.25.55.27-.7-.5-2.03-6.9-12.18l-5.06-8.2a110 110 0 0 1 7.55-4.54zm-24 15a4.6 4.6 0 0 1 3.84 2.19 375.6 375.6 0 0 1 4.71 8.78c2.17 4.13 4.08 7.5 4.26 7.45s.57-.16.9-.28c.45-.18.8.23 1.65 1.9 1.08 2.13 1.06 2.37-.18 2.82-.2.07.1 1 .6 2.1.52 1.08.9 2 .85 2.04a253.8 253.8 0 0 1-3.73 2c-2 1.06-3.7 1.93-3.8 1.93s-.65-.85-1.23-1.88l-1.06-1.88-2.02 1.04-1.06-2.1c-1-1.97-1.03-2.14-.47-2.54.33-.24.77-.5.97-.57.34-.12-3.84-8.65-6.78-13.85-1.08-1.9-1.4-2.07-3.06-1.54-.57.18-.84-.1-1.62-1.68a13.5 13.5 0 0 1-.93-2.19c0-.45 6.14-3.44 7.5-3.65a4.1 4.1 0 0 1 .65-.05zm-222.75 2.02c1.57.02 3.25.42 4.98 1.23 4.6 2.16 6.35 4.28 6.35 7.7 0 2.32-.84 4.6-4.08 11.1-2.83 5.66-4.16 7.48-6.24 8.48-3.37 1.63-8.15.5-11.7-2.8-2.7-2.48-3.56-5.17-2.67-8.25a100.3 100.3 0 0 1 6.97-14.41c1.52-2.05 3.8-3.1 6.4-3.06zm199.95 8.13L413.97 561a42.5 42.5 0 0 1-7.26 2.62 299.2 299.2 0 0 1-3.08-6.32c-1.64-3.42-3.03-6.16-3.1-6.1a92.1 92.1 0 0 0 1.4 6.89l1.45 6.84c-.04.03-1.6.6-3.5 1.26l-3.44 1.2-2.83-5.93c-1.56-3.26-2.9-5.87-2.97-5.8s.04.8.26 1.62c.85 3.13 2.32 11.02 2.1 11.22-.13.1-1.6.7-3.23 1.28s-3.2 1.07-3.44 1.07c-.3 0-1.4-4.3-3.44-13.53l-3.14-13.9c-.08-.22 1.64-1 4.05-1.84l4.6-1.6c.25-.1 1.5 2 3.16 5.24 1.5 2.97 2.66 4.93 2.54 4.37-1.4-6.64-2.1-11.06-1.72-11.06.07 0 2.06-.7 4.42-1.52l4.3-1.52zm-181.54.01c.54.01 1.74.37 3.82 1.13 3.7 1.35 3.9 1.47 3.85 2.33-.06.83.01.88.8.58 2.67-1.02 6.32.1 7.9 2.4 1.32 1.94.95 3.98-2.5 13.44-3.3 9.12-4.14 10.8-5.72 11.64-2.5 1.32-6.3.37-8.3-2.1l-.98-1.2-1.3 3.57c-.7 1.96-1.4 3.55-1.52 3.53a126.9 126.9 0 0 1-4.14-1.51c-2.57-.97-3.88-1.62-3.8-1.92.17-.73 11.33-31.38 11.58-31.82.04-.07.15-.1.33-.1zM373.33 545c.1.1 1.86 7.65 3.94 16.8 2.8 12.33 3.68 16.7 3.37 16.9a12.2 12.2 0 0 1-2.32.64 142.3 142.3 0 0 0-3.89.86c-1.5.36-2 .37-2.1.07-.07-.22-.3-1.24-.52-2.27a110.7 110.7 0 0 0-.72-3.15l-.32-1.28-1.28 1.03c-3.36 2.7-8.32 2.1-9.9-1.16-.63-1.3-6-23.96-5.74-24.2.4-.33 8.27-1.86 8.47-1.65.14.15 1.34 5.1 2.68 11s2.64 10.93 2.9 11.2c.8.8 1.56.2 1.54-1.22-.01-.7-1.07-5.88-2.35-11.5l-2.25-10.3c.2-.22 8.36-1.9 8.5-1.75zm-119.64 1.53c.56-.04 1.82.14 3.94.56 3.67.73 4.06.88 4.16 1.6.07.48.3.7.56.6 3.86-1.48 6.7-.95 8.72 1.6 1.3 1.65 1.2 3.36-.83 13.2-2.2 10.7-2.6 11.8-4.7 12.84-2.52 1.22-5.08.86-7.53-1.05-.7-.56-1.34-.96-1.4-.9s-.4 1.64-.75 3.5-.8 3.4-1 3.46c-.4.1-8.04-1.48-8.26-1.7a890 890 0 0 1 6.75-33.58c.04-.06.15-.1.34-.12zm90.78 3.63c2.13-.02 4.25.84 5.03 2.48.77 1.62 1.24 4.14 1.32 7.02.1 3.3-.35 3.97-4.04 6.14a87.9 87.9 0 0 0-4.02 2.5l-1.32.9.18 2.2c.2 2.33.63 3.2 1.64 3.2.96 0 1.05-.45.67-3.45-.2-1.54-.3-2.85-.24-2.9.2-.2 8.13-1.17 8.3-1 .1.1.18 1.67.2 3.5.04 2.53-.1 3.6-.5 4.37a10.1 10.1 0 0 1-4.53 3.95c-1.28.57-2.56.8-5.1.9-3.16.13-3.53.07-5.2-.77-2.22-1.13-3-2.2-3.66-5.05-.63-2.73-3-20.95-2.78-21.5.1-.22 1.68-.57 3.68-.8 4.6-.53 4.6-.53 4.83.33.2.7.22.7 1.17-.3 1.07-1.14 2.74-1.7 4.4-1.7zm-55.6 1.9l4.1.23a57.6 57.6 0 0 1 4.62.37c.45.13.37 2.2-.7 17.32l-1.37 17.28c-.1.06-2.2-.03-4.7-.2l-4.54-.3.2-1.4a994.1 994.1 0 0 0 1.29-17.35l1.1-15.95zm28.2.74c1.86.01 3.65.25 4.57.67 2.4 1.1 2.56 1.7 2.9 11.43.38 10.67.4 10.72 1.47 10.72.78 0 .84.1.84 1.85a10.4 10.4 0 0 0 .21 2.38c.16.42-.03.54-.9.54h-1.1l.35 4.36-1.02.2c-.56.1-2.6.2-4.55.2h-3.53v-4.43h-2.38v-4.77h2.14l-.23-7.57c-.13-4.17-.32-8.22-.42-9-.18-1.36-.26-1.43-1.43-1.53l-1.24-.1-.2-4.5 1.3-.2c1-.16 2.13-.24 3.25-.23zm-41.02 21.25c.07 0 .14.01.22.02.4.08 1.42.24 2.3.35l1.58.2.24 2.86a33.6 33.6 0 0 1-.01 5.18c-.38 3.6-.16 3.42-3.83 2.96a27.2 27.2 0 0 1-3.28-.52c-.27-.3.57-5.17 1.4-8.03.7-2.45.93-3 1.4-3.02z" class="B"/><path d="M301.35 466.76c-23.2-.74-46.38-6.44-62.82-15.47-27.75-15.24-43.33-39.4-52.77-81.85a282.3 282.3 0 0 1-5.51-35.58c-.75-7.87-.87-33.58-.2-40.86 3.3-35.22 12.8-64.2 29.2-89.2 12.83-19.53 28-30.98 44.9-33.87a51.2 51.2 0 0 1 14.16-.01c11.6 2.04 22.9 9.47 32 21.05.98 1.25 1.9 2.28 2.03 2.28s6.82-6.7 14.86-14.92c10.53-10.75 14.7-14.8 14.9-14.46.15.25.27 2.02.27 3.94-.02 7.62-2.7 13.85-11.04 25.6-7.3 10.32-9.48 14.44-11.38 21.62-1.18 4.48-1.46 13.57-.6 19.96 1.4 10.4 3.68 17.64 16.52 52.22 11.93 32.12 16.67 50.24 16.68 63.7 0 9.53-1.9 16.06-6.83 23.43-8.98 13.43-24.16 21.57-47.98 25.72-7 1.22-7.16 1.2-4.05-.8 11.92-7.64 18.2-21.5 16.66-36.8-.9-9-1.26-10.27-17.56-62.14l-14.33-45.94c-3.52-12.16-2.74-19.2 3.1-27.93 2.44-3.65 3.86-5.3 11.45-13.18 3.54-3.68 6.44-6.84 6.44-7.03 0-.5-4.63-6.5-6.6-8.52-2.5-2.57-6.3-5.03-9.14-5.9a13.3 13.3 0 0 0-5.61-.56c-2.9.15-3.5.3-6 1.55-6.26 3.1-11.45 9.25-16.55 19.62-16.2 32.9-21.72 73.93-16.36 121.58 3.87 34.4 11.42 58.3 23.66 74.95 14.73 20.05 33.86 29.4 60.15 29.4 11.66 0 25.3-2.03 36.68-5.46 24.14-7.3 41.82-21.28 53.56-42.37 9.48-17.04 14.5-40.04 13.22-60.66-1.76-28.57-9.85-42.22-27.43-46.3-3.78-.88-13.07-.88-17.2 0-7.2 1.53-16.67 5.53-26.64 11.26-2.2 1.26-4.15 2.25-4.33 2.18s-2.45-3.1-5.05-6.77l-4.73-6.66 3.44-3.55c10.7-11.06 18.7-25.7 22.65-41.47 2.43-9.7 3.03-14.95 3.42-30.36.47-18.16 1.24-23.05 4.78-30.16 3.34-6.7 8.23-10.68 16.2-13.18a70.4 70.4 0 0 1 17.69-2.68c2.43-.04 2.96.07 4.55.94 1.08.6 2.56 1.87 3.7 3.2 4.94 5.78 6.55 6.93 10.28 7.4l2.1.27-1.24 1.63a18.3 18.3 0 0 1-9.71 6.31c-.84.2-3.65.62-6.23.9s-5.66.84-6.83 1.2c-5.42 1.67-10.4 6.76-13.05 13.3-2.05 5.07-3.13 11.67-3.84 23.46-.8 13.12-1.7 19.08-3.94 25.56a74 74 0 0 1-12.3 21.9c-3.23 3.8-3.23 3.75-.07 2.3 12.92-6 27.5-5.96 39.96.12 17.55 8.55 28.94 27.8 32.35 54.67a157.9 157.9 0 0 1 .54 24.51c-1.8 24.88-9.16 46.37-22.32 65.17a119.5 119.5 0 0 1-59.6 44.62c-8.27 2.78-18.75 5.08-27.75 6.1a223.5 223.5 0 0 1-19.58 1.15l-4.94-.16z" class="B"/></g><path d="M415.58 320.66c-4.42-12.23-11.8-23-23.07-29.37-12.84-7.27-29.37-7.33-42.27-.18 8.54-8.96 14.78-20.83 16.6-33.13 2-13.5.18-29.43 7.2-39.5 10.48-15.02 34.82-14.84 45.06-29.98-10.78 1.5-23.13 1.64-32.28 2.18-13.14.8-24.3 2.9-30.34 12-6.9 10.36-5.5 23.86-5.94 36.28-.85 24.23-9.7 46.75-27.5 63l9.27 12.84c9.02-5.15 18.23-10.42 28.4-12.54s21.62-.73 29.37 6.18c7.2 6.42 10.1 16.4 11.5 25.92 4.85 32.82-5.57 69.16-31.8 89.5-14.47 11.2-32.58 16.9-50.75 18.9-15.5 1.7-31.8.73-45.66-6.36-13.75-6.96-24.22-19.44-30.95-33.3s-10.1-29.13-12.42-44.4c-6.3-41.8-4.66-86.3 14.84-123.8 4.6-8.84 12.23-18.3 22.1-17.32 7.75.73 13.08 7.33 17.56 13.75-8.96 9.63-20.4 18.17-21.56 30.34-.6 6.18 1.4 12.23 3.27 18.17l22.95 71.9c3.7 11.57 7.45 23.92 4.54 35.73a33.7 33.7 0 0 1-18.59 22.41c11.93-1.57 23.98-3.82 34.64-9.33 10.72-5.5 20-14.72 23.13-26.34 2.42-8.96 1.1-18.47-.97-27.5-5.27-23.07-15.08-44.82-22.95-67.16-5.2-14.72-9.5-31.2-3.5-45.6 3.03-7.33 8.48-13.38 12.84-20s7.75-14.66 5.94-22.4l-27.8 27.86c-7.75-10.9-19.26-19.8-32.52-21.74-11.63-1.7-23.62 2.24-33.3 8.96-9.63 6.72-17.14 16.17-23.38 26.16-27.07 43.54-30.58 98.72-19.14 148.74 4.78 21.02 12.48 42.2 27.37 57.84 17.93 18.83 44.4 27.37 70.25 29.74 24.35 2.18 49.6-.6 71.7-11.14 22.35-10.6 40.94-29.07 51.78-51.36 8.72-18 12.42-38.2 11.57-58.2-.42-9.33-2.06-18.9-5.2-27.74z"/><defs ><path id="B" d="M301.35 466.76c-23.2-.74-46.38-6.44-62.82-15.47-27.75-15.24-43.33-39.4-52.77-81.85a282.3 282.3 0 0 1-5.51-35.58c-.75-7.87-.87-33.58-.2-40.86 3.3-35.22 12.8-64.2 29.2-89.2 12.82-19.52 28.02-31 44.9-33.87a51.2 51.2 0 0 1 14.16-.01c11.6 2.04 22.9 9.47 32 21.05.98 1.25 1.9 2.28 2.03 2.28s6.82-6.7 14.86-14.92c10.53-10.75 14.7-14.8 14.9-14.46.15.25.27 2.02.27 3.94-.02 7.62-2.7 13.85-11.04 25.6-7.3 10.32-9.48 14.44-11.38 21.62-1.18 4.48-1.46 13.57-.6 19.96 1.4 10.4 3.68 17.64 16.52 52.22 11.93 32.12 16.67 50.24 16.68 63.7 0 9.53-1.9 16.06-6.83 23.43-8.98 13.43-24.16 21.57-47.98 25.72-7 1.22-7.16 1.2-4.05-.8 11.92-7.64 18.2-21.5 16.66-36.8-.9-9-1.26-10.27-17.56-62.14l-14.33-45.94c-3.52-12.16-2.74-19.2 3.1-27.93 2.44-3.65 3.86-5.3 11.45-13.18 3.54-3.68 6.44-6.84 6.44-7.03 0-.5-4.63-6.5-6.6-8.52-2.5-2.57-6.3-5.03-9.14-5.9a13.3 13.3 0 0 0-5.61-.56c-2.9.15-3.5.3-6 1.55-6.26 3.1-11.45 9.25-16.55 19.62-16.2 32.9-21.72 73.93-16.36 121.58 3.87 34.4 11.42 58.3 23.66 74.95 14.73 20.05 33.86 29.4 60.15 29.4 11.66 0 25.3-2.03 36.68-5.46 24.14-7.3 41.82-21.28 53.56-42.37 9.48-17.04 14.5-40.04 13.22-60.66-1.76-28.57-9.85-42.22-27.43-46.3-3.78-.88-13.07-.88-17.2 0-7.2 1.53-16.67 5.53-26.64 11.26-2.2 1.26-4.15 2.25-4.33 2.18s-2.45-3.1-5.05-6.77l-4.73-6.66 3.44-3.55c10.7-11.06 18.7-25.7 22.65-41.47 2.43-9.7 3.03-14.95 3.42-30.36.47-18.16 1.24-23.05 4.78-30.16 3.34-6.7 8.23-10.68 16.2-13.18 5.75-1.8 10.6-2.4 25.03-3.1 12.43-.6 14.6-.75 21.35-1.4 2.87-.28 5.3-.43 5.4-.34.27.27-1.74 2.67-3.9 4.67-3.96 3.63-9.06 6.48-21.36 11.95-10.85 4.82-15.44 7.67-19.8 12.3-6.15 6.54-8.2 13.6-9.3 31.9-.8 13.12-1.7 19.08-3.94 25.56a74 74 0 0 1-12.3 21.9c-3.23 3.8-3.23 3.75-.07 2.3 12.92-6 27.5-5.96 39.96.12 17.55 8.55 28.94 27.8 32.35 54.67a157.9 157.9 0 0 1 .54 24.51c-1.8 24.88-9.16 46.37-22.32 65.17a119.5 119.5 0 0 1-59.6 44.62c-8.27 2.78-18.75 5.08-27.75 6.1a223.5 223.5 0 0 1-19.58 1.15l-4.94-.16z"/><path id="C" d="M432.88 159.98a76.8 76.8 0 0 0-4.92.37 337.7 337.7 0 0 1-21.35 1.41c-14.42.7-19.3 1.3-25.03 3.1-7.97 2.5-12.86 6.48-16.2 13.18-3.54 7.1-4.32 12-4.78 30.16-.4 15.4-1 20.67-3.42 30.36-3.96 15.78-11.96 30.4-22.65 41.47l-3.44 3.55 4.72 6.66c2.6 3.66 4.87 6.7 5.05 6.77s2.13-.92 4.33-2.18c9.97-5.73 19.44-9.73 26.64-11.26 4.12-.88 13.4-.88 17.2 0 17.58 4.08 25.67 17.73 27.43 46.3 1.27 20.63-3.74 43.63-13.22 60.66-11.74 21.1-29.43 35.1-53.56 42.37-11.37 3.43-25.02 5.47-36.68 5.46-26.3-.01-45.42-9.36-60.15-29.4-12.24-16.66-19.8-40.56-23.66-74.95-5.36-47.65.16-88.7 16.36-121.58 5.1-10.37 10.3-16.5 16.55-19.62 2.52-1.25 3.1-1.4 6-1.55a13.3 13.3 0 0 1 5.61.56c2.83.86 6.65 3.32 9.14 5.9 1.96 2.03 6.6 8 6.6 8.52 0 .18-2.9 3.34-6.44 7.03-7.6 7.9-9 9.53-11.45 13.18-5.83 8.72-6.6 15.77-3.08 27.93.65 2.23 7.1 22.9 14.33 45.94 16.3 51.87 16.66 53.15 17.56 62.14 1.53 15.3-4.74 29.17-16.66 36.8-3.1 2-2.95 2.03 4.05.8 23.82-4.15 39-12.3 47.98-25.72 4.92-7.36 6.83-13.9 6.83-23.43 0-13.47-4.75-31.6-16.68-63.7-12.84-34.58-15.14-41.83-16.52-52.22-.85-6.4-.58-15.48.6-19.96 1.9-7.2 4.07-11.3 11.38-21.62 8.33-11.76 11.02-18 11.04-25.6.01-1.9-.12-3.68-.27-3.94-.2-.33-4.37 3.7-14.9 14.46l-14.87 14.92c-.14 0-1.05-1.03-2.04-2.28-9.1-11.57-20.4-19-32-21.05a51.2 51.2 0 0 0-14.16.01c-16.87 2.88-32.07 14.35-44.9 33.87-16.4 25-25.9 53.98-29.2 89.2-.68 7.28-.56 33 .2 40.86 1.24 13.02 2.96 24.12 5.5 35.58 9.44 42.44 25.02 66.6 52.77 81.85 16.44 9.03 39.6 14.73 62.82 15.47l4.94.16a223.5 223.5 0 0 0 19.58-1.15c9-1.03 19.47-3.33 27.75-6.1a119.5 119.5 0 0 0 59.6-44.62c13.16-18.8 20.52-40.3 22.32-65.17a157.9 157.9 0 0 0-.54-24.52c-3.4-26.88-14.8-46.12-32.35-54.67-12.46-6.07-27.04-6.1-39.96-.12-3.16 1.47-3.16 1.52.07-2.3a74 74 0 0 0 12.3-21.9c2.23-6.48 3.15-12.43 3.94-25.55 1.1-18.3 3.16-25.36 9.3-31.9 4.35-4.63 8.95-7.48 19.8-12.3 12.3-5.47 17.4-8.32 21.36-11.95 2.17-2 4.18-4.4 3.9-4.67-.02-.02-.2-.03-.48-.03z"/></defs></svg>