<?xml version="1.0" encoding="UTF-8" standalone="no"?>
<!-- Created with Inkscape (http://www.inkscape.org/) -->

<svg
   xmlns:dc="http://purl.org/dc/elements/1.1/"
   xmlns:cc="http://creativecommons.org/ns#"
   xmlns:rdf="http://www.w3.org/1999/02/22-rdf-syntax-ns#"
   xmlns:svg="http://www.w3.org/2000/svg"
   xmlns="http://www.w3.org/2000/svg"
   xmlns:sodipodi="http://sodipodi.sourceforge.net/DTD/sodipodi-0.dtd"
   xmlns:inkscape="http://www.inkscape.org/namespaces/inkscape"
   width="103.28071"
   height="119.49335"
   id="svg2"
   version="1.1"
   inkscape:version="0.48.3.1 r9886"
   sodipodi:docname="New document 1">
  <defs
     id="defs4" />
  <sodipodi:namedview
     id="base"
     pagecolor="#ffffff"
     bordercolor="#666666"
     borderopacity="1.0"
     inkscape:pageopacity="0.0"
     inkscape:pageshadow="2"
     inkscape:zoom="3.959798"
     inkscape:cx="38.903124"
     inkscape:cy="71.404371"
     inkscape:document-units="px"
     inkscape:current-layer="layer1"
     showgrid="false"
     inkscape:window-width="1366"
     inkscape:window-height="731"
     inkscape:window-x="0"
     inkscape:window-y="18"
     inkscape:window-maximized="0"
     fit-margin-top="5"
     fit-margin-left="5"
     fit-margin-right="5"
     fit-margin-bottom="5" />
  <metadata
     id="metadata7">
    <rdf:RDF>
      <cc:Work
         rdf:about="">
        <dc:format>image/svg+xml</dc:format>
        <dc:type
           rdf:resource="http://purl.org/dc/dcmitype/StillImage" />
        <dc:title></dc:title>
      </cc:Work>
    </rdf:RDF>
  </metadata>
  <g
     inkscape:label="Layer 1"
     inkscape:groupmode="layer"
     id="layer1"
     transform="translate(-347.71849,-465.69416)">
    <path
       style="fill:#000000;stroke:#000000;stroke-opacity:1"
       d="m 353.22688,523.92459 c -0.0335,18.08354 3.11532,55.73131 45.15574,55.76017 42.04043,0.0289 47.59973,-34.92423 47.09465,-48.56129 -0.50507,-13.63706 -13.19657,-27.1597 -28.03173,-19.44543 -6.31345,3.28298 4.97293,-1.79353 6.15652,-14.48917 0.95739,-10.26939 3.03981,-16.29039 10.50508,-20.00526 7.43256,-3.6986 16.38321,-8.72695 -3.64539,-4.15047 -3.58578,0.81934 -5.65827,-0.0306 -9.2297,4.96936 -3.57143,5 -0.87491,13.28825 -3.55348,21.1454 -2.67857,7.85714 -5.46174,12.73087 -8.67603,15.40944 0.53572,0.89286 1.08039,2.65691 2.06889,4.76912 23.77535,-14.56151 31.19122,5.07962 27.5,25.00001 -2.14286,11.25 -17.85714,26.07142 -34.46429,26.07142 -12.50127,0 -34.6154,-1.24249 -34.28571,-47.14285 0.12837,-17.87228 7.79579,-55.89091 23.21429,-35.17857 -10.26786,11.33929 -9.51311,9.64182 -2.12053,34.01785 7.82406,25.79877 9.4558,20.17209 0.50885,34.63101 21.9472,-5.96611 25.24147,-12.47213 12.84215,-42.85086 -12.03731,-29.4918 3.34054,-27.81391 3.92892,-40.63827 l -11.05225,10.9117 c -19.20218,-25.81458 -43.75639,6.74155 -43.91598,39.77669 z"
       id="path3034"
       inkscape:connector-curvature="0"
       sodipodi:nodetypes="czssssssscccsscscsccc" />
  </g>
</svg>
