<svg xmlns="http://www.w3.org/2000/svg" xmlns:v="https://vecta.io/nano" viewBox="126 -21 793 1040"><!--oldViewBox="0 0 1024 1024"--><path d="M569 874h5l7 30h-13c-3 0-6-1-9-3-5-6-3-19-3-27h13zM136 557h121l-13 29-5 11H136v-40zm45 62c1 0 1 0 2 1l-3 3c-10 9-19 20-29 31l-7 8s-2 2-2 3c-1 2-1 6-1 8l45-50c1-1 3-3 4-3 2-1 7-1 9-1h30l-48 108-31 68-9 19c-1 3-3 7-5 11V710v-30-18c1-4 2-7 4-10 4-5 8-9 12-13 5-6 11-13 19-17 3-1 7-2 10-3z"></path><path fill="#fffffe" d="M188 680c0 2-22 49-24 55h-22l-1-1v-2c2-3 4-5 6-8l11-12 30-32z"></path><path d="M812 429h86v19h-66v391 54c0 3 0 6-3 8-4 4-11 3-17 3V429zM354 113h135l-8 17c-3 1-7 0-10 0h-20-79L236 439h-64-36v-18l85-1 12-29h-97v-34h109l109-244zm122 691h78l11 40c-2 1-9 0-12 0h-34c-13 0-26-1-39 3-12 4-23 12-29 23-6 12-8 26-3 38 5 18 21 33 37 41 28 14 62 14 92 10 8-1 16-2 24-5-20-1-40 0-59-4-22-4-47-12-61-32-5-7-8-17-6-27v-1c1-4 2-7 5-10 8-7 17-6 26-6h18c1 16 3 34 15 46 13 12 27 11 44 11h27l11 42h-26-44-38c-13 0-25 0-38-2-13-3-26-10-37-18-16-13-28-31-31-51-3-24 1-48 16-68 13-17 32-27 53-30zm-88-651h49L280 501h-96-35c-4 0-10 1-14 0l1-39h115l137-309zm507 348h3v1 98 177 85 26c0 6 1 12 0 18-2 13-7 26-16 37-11 15-30 27-48 29-12 2-24 1-36 1h-60-44c-8 0-16 0-24-1-7-1-12-3-17-7-10-9-11-21-13-34h118 35c8 0 16 0 24-1 9-1 18-4 24-10 8-6 13-14 15-23 1-8 1-18 1-26l-1-51V622v-58c0-9 0-20 1-29v-1c1-8 4-14 9-20 8-9 17-13 29-13zM152 82h-16v-6c26 0 51 4 74 16 3 2 5 4 8 5 1 1 2 2 3 2l1-1c-3-5-22-13-28-15-19-7-38-9-58-9V49h382l-20 43H343h-45c-17 0-34-1-51 3-22 5-45 18-61 34-10 10-18 23-22 37l18 8c9-23 26-43 49-54 5-2 11-4 17-5 12-3 24-2 36-2h41l-14 30c-8 0-17 0-26 1-17 2-33 10-45 22-19 19-29 46-30 73 0 2 0 2 1 3h4c1-2 2-6 2-8 2-4 3-7 4-10 12-26 31-53 61-59 7-1 13-1 20-1l-74 169h-92v-15h78l10-24h-88v-24h69 20c3 0 7 0 10-1 3-7 7-14 9-22H136V138c4 1 9 1 13 2 2 0 6 2 7 2s1-1 1-1l1-1c-2-1-4-2-5-2-6-1-11-2-17-2v-5c6 0 11 0 17 1 3 1 9 3 11 2v-1c-2-1-4-2-6-2-6-1-12-2-17-2-1 0-4 0-5-1v-1-3l1-1 1-1h1 0 2l-3-1c-1 0-1 0-2-1v-5h8c8 1 16 2 23 4 3 1 6 3 9 3 1 0 1 0 1-1s-2-2-3-2c-8-3-17-5-25-5-3-1-12 0-13-2v-4-3-5h3c0-1 7-1 8-1-1-1-2-1-3-1h-8v-6c15 0 31 1 46 6 4 2 8 3 12 5 2 1 6 4 9 4v-1c-3-3-7-5-11-6-18-8-37-10-56-10v-6h3c1-1 11 0 13-2z"></path><path d="M225 275c2 0 3 0 4 1s0 3 0 4h-1-1c-1-2-2-3-2-5zm-56-1h0c2 1 2 1 3 3 2 2 6 9 6 12h-2c-2-3-8-11-7-15zm34 0h2c2 3 4 7 6 10 0 2 2 4 2 5h-2c-2-3-8-12-8-15zm12 0c1 0 1 0 2 1 1 3 3 6 5 9 1 1 2 3 3 4-1 1-2 1-3 0-2-3-7-10-7-14z" fill="#fffffe"></path><path d="M138 121c11 0 21 2 32 5v1l-1 1c-11-3-21-5-32-5l1-1h1 0 2l-3-1zm-2-16c13 1 25 2 37 5 4 1 9 3 12 5v1 1c-5-2-10-4-14-5-11-3-24-5-35-4v-3zm8-7c14 0 31 3 43 9 2 0 5 2 6 3 1 0 1 1 1 1l-1 1c-3-1-6-3-10-4-7-3-14-5-22-6-5-1-10-2-15-2h-7c0-1 7-1 8-1-1-1-2-1-3-1zm8-16c18 2 35 5 51 14 3 1 7 3 9 6l1 1c-6-1-11-5-17-8-7-3-14-5-22-7s-16-3-24-4c-3 0-9 1-11 0 1-1 11 0 13-2z" fill="#f6f6f8"></path><path d="M649 49h249c1 1 0 17 0 19v78h-23c-8 0-15 0-23-2-16-5-30-15-39-29-4-6-7-12-10-18-12-20-27-36-50-42-19-5-39-2-57 9-24 15-40 38-51 65-3 7-5 14-7 21 18-22 33-49 59-64 14-8 33-12 49-7 22 6 31 26 41 45 12 21 29 35 52 42v61 17 9c-1 3-1 5-3 7s-5 4-8 4c-4 1-10 0-14 0h-27c6-10 10-22 13-34 5-26 1-58-15-81-10-15-26-28-44-32-27-5-54 7-76 22 12-2 24-3 36 0 23 6 42 22 54 43 12 19 15 40 15 62 0 7 0 14-2 21l-10-1c4-24 2-51-9-73-10-20-28-36-48-43-15-5-30-5-43 2h3 11c4 0 8 0 12 1 20 3 38 14 50 31 17 23 20 54 16 82-4 1-9 0-13 0v25h69c13 0 28 1 41-1 8-1 15-4 22-8 15-8 24-23 29-39v1l1 43c0 6 0 13-1 19-1 4-3 8-5 11-4 4-9 6-15 7-4 1-10 1-15 1h-26-100v9h161v11l-125 1h-36v10h161v8H766h-22-6c0 1-1 1-1 1v5h161v39H793v420l-27-109-8-30c-2-7-5-15-5-23v-52-96-78c0-13-1-26 0-39 0-2 1-4 2-5 2-2 4-3 6-3 5-1 10 0 15 0h26 81v-9c-1-1-1-1-2-1h-80-32-19c-2 1-3 1-4 3-1 1-2 2-2 4-1 8 0 17 0 25v45 108l-1 67-20-77-5-20c-1-3-2-7-2-10-1-8 0-17 0-25v-45-147-36c0-13 1-26-3-39s-13-24-25-30c-6-4-13-5-20-6-2 0-4 0-5 1l-1 112c-1-3-2-8-3-11l-7-29-31-118-11-41c-1-7-4-13-5-19-1-9 3-18 8-25 9-12 22-18 36-20zm-97 0h3c2 2 7 23 8 28l50 195 99 388 62 244H612l-38-157h-74c-15 0-30-1-45 1s-30 7-43 13c-33 17-57 45-69 80-4 13-6 27-6 41 0 34 13 67 37 91H133l32-70 53-118 218-482 82-181 23-50c4-8 7-16 11-23z"></path><path fill="#fffffe" d="M474 342l85 338H453h-32c-11 0-22 0-33 1-14 3-28 8-41 15-10 6-19 12-28 19l-21 19 176-392z"></path><path d="M464 443l3 9v3c0 1-2 3-2 4-2 2-4 5-5 8 1 0 6-8 8-10l2 9c0 1 1 2 0 3 0 0-3 3-3 4-7 7-14 15-20 23-1 1-3 4-3 6l14-17c5-4 10-9 13-15h0l2 8c0 1 1 3 1 4 0 0-3 3-4 3l-11 13c-1 2-4 4-5 6h2c2-2 5-6 7-8 4-5 8-9 11-13l7 24h-34l-14 30h56l5 18 17 66H383l81-178z"></path><path fill="#fffffe" d="M417 595h67l3 7h-1l-4 1h-70l3-8h2z"></path></svg>