<svg xmlns="http://www.w3.org/2000/svg" xmlns:v="https://vecta.io/nano" viewBox="108 47 802 892"><!--oldViewBox="0 0 1024 1024"--><path d="M624 209c1-1 2-1 4 0v1 1h-1c-2 0-2 0-4-1l1-1zm38-14h1c2 0 3 0 5 1l-1 1-1 1c-2 0-3 0-4-1v-2zM512 773h4l1 1v1l-1 1c-2 0-3 0-4-1v-2zM244 556h4l1 1-1 1c-1 1-3 1-4 1l-1-1 1-2zm224 173c1 0 1 0 3 1 0 1 0 1-1 3h-2l-1-1v-2l1-1zm274-228h2c1 2 1 2 1 4l-1 1h-1c-1 0-1-1-2-2 0-1 0-1 1-3zm67-129h2l1 1v2l-1 1h-2l-1-1c0-2 0-2 1-3zM510 752h2c1 1 1 1 1 3l-1 1c-1 1-1 1-2 1l-1-1c-1-2 0-2 1-4zM243 522c1-1 1-1 2 0 1 0 1 0 2 1-1 2-1 2-2 3h0c-2 0-2-1-3-1 0-2 0-2 1-3zm244 208h2c1 1 1 1 2 3l-1 1-1 1c-2 0-2-1-3-1 0-2 0-2 1-4zm311-432c2-1 4-1 6-1 0 1 0 1 1 2l-1 1h-7v-1l1-1zm-143-31h2c1 1 1 2 1 3l-1 1c-1 1-2 1-3 1l-1-1 2-4zm216 274h1c2 0 5 0 6 1v1c-1 0-1 1-1 1-2 0-5 0-6-1v-2zm-48-36h3c1 1 1 1 2 3l-2 1-1 1c-1 0-2 0-3-1 0-2 0-2 1-4zm9 68h2c1 1 2 1 2 3l-2 2h-2c-1 0-1 0-2-2 1-2 1-2 2-3zM279 384h2v2l-1 1-10-1c-1 0-1 0-2-1 1-1 8-1 11-1zm547-87h2c1 1 2 1 2 2 0 2 0 2-2 3h-1c-2-1-2-1-3-2 1-2 1-2 2-3zm-39 17h1c2 1 2 1 3 3l-2 2c-1 0-1 0-2 1l-2-2c0-3 0-2 2-4zM208 581c2 0 8-1 10 0v1 2c-3 0-8 0-11-1v-1l1-1zm600-69c2-1 5-1 7 0 1 0 1 0 1 1v1l-2 1h-2c-2 0-4 0-5-1 0-2 0-2 1-2zM293 390s1 1 2 1c0 1 1 2 0 4 0 1-1 1-2 1h-2c-1-1-1-1-1-3 1-2 1-2 3-3zm580 518h1c2 0 4 0 6 1v2l-1 1h-1c-2 0-4 0-6-1v-1l1-2zm-115 0c4-1 7 1 10 1 1 0 2 0 3 1h-2c-3 1-9 2-12 1v-2l1-1zm-23 0c1 0 3-1 4-1 1 1 2 1 3 2 0 2-1 2-2 3h-4c-1 0-2-1-3-2v-1l2-1zM269 483h0c2 0 3 0 4 1s2 2 2 3l-1 1h-2c-2 1-3 0-4-1s0-2 1-4zm513-87c3 0 10-1 11 1h1l-1 1c-3 1-9 1-11 0l-1-1 1-1zm-521 87h3c1 1 1 2 1 3-1 2-2 2-4 2-1 0-2 0-3-1-1 0-1 0-1-1 1-2 2-2 4-3zm569 29h3c1 1 1 1 2 3l-1 1h-4-3c-1 0-1-1-2-2 1-1 3-2 5-2zm-27-285c1 0 3 0 4 1s1 1 1 3c-1 1-2 1-3 1-1 1-2 1-3 0s-2 0-2-2c1-2 2-2 3-3zm-162 14c1-1 2 0 3 0 1 1 1 1 2 3-1 1-1 2-3 3h-2c-1-1-2-1-2-3s0-2 2-3z"></path><path d="M267 331h3c1 2 2 2 2 4-1 1-2 2-3 2s-2 0-3-1-1-1-1-3l2-2zm258 440c1 2 1 4 2 6 0 3-1 5-2 7-1 0-1-1-2-2 0-1-1-3-1-4 0-2 2-5 3-7zm92-633c2-1 3-1 4 0 1 0 2 1 2 2s-1 1-1 1c-2 1-4 1-5 1-2-1-2-2-3-2h-1l-8-1c4 0 8 0 12-1h0zm34 44c1 0 2 0 3 1 2 1 1 2 2 3-1 2-1 2-3 3-1 0-2 0-3-1l-2-2c1-2 1-3 3-4zM424 728c5-1 13 0 18 1v1h-1c-4 1-14 1-17 0v-2zm343-325l1-1c2 1 3 1 4 3 0 2 0 4-1 6h-1c-1 1-2 0-3 0 0-3-1-6 0-8zm-37-66h1c1 0 0 4 1 6l1-1v-5h1v1c1 2 1 9 0 11-1 0-1-3-1-4h-1c0 1-1 2-1 3v1 1l-1-1c-1-4-1-9 0-12zm-474 68c2 0 10-1 12 0v3h-2l-12-1c-1 0-1 0-1-1v-1h3zm525-75h2c2 2 2 3 2 5s0 2-2 4h-2l-1-1c-1-1-1-2-1-4 0-1 1-2 2-4zm-495-10h1c3-1 5-1 8 2-1 1-2 1-3 2h0c-3 1-6 1-8 0-1-1-1-1-1-2 1-2 1-2 3-2zm260 469c3 0 11 0 13 2h0l-3 1c-4 0-10 1-14 0v-1c1-1 2-2 4-2zm-143-52h1c1 1 1 3 1 4 1 3 1 6-1 9h-1c-1 0-1 0-1-1-2-3-1-9 1-12zm25-23l11 1c-2 1-4 3-6 3h-5c-2 0-5 0-7-2 2-2 5-2 7-2z"></path><path d="M415 725h1c0 1 0 2 1 3l7 1c-2 1-5 1-7 1-1 2-1 4-2 5v1-4-1c-3-2-10-1-14-2 4-2 9-1 12-1l2-2v-1zm394-252h1 0v9c3 0 6-1 8 1-1 2-5 1-7 2l-1 6v5c-1-4 0-8-1-12-1 0-2 0-3-1 1-1 2 0 3-1v-9zm-13 85l1 1c0 1 1 2 1 3s-2 2-2 3c-1 3 1 10-1 14-3-4 0-12-1-16h-2v-1c1-1 2-3 4-4zM341 272l1 1v13c0 3 0 6-1 8h-1c-1-2 0-6 0-9s-1-9 1-13zm-91 256c2 0 3 0 4 1 1 2 1 3 2 4-1 2-2 2-3 3-2 0-3 0-5-1-1-1-1-2-1-3 1-2 1-3 3-4zm560-252h1c1 0 3 0 3 1 2 1 2 2 2 4-1 2-1 2-3 3h0c-2 0-3 0-4-1s-1-2-1-3c0-2 1-3 2-4zm-179-56h15c2 0 4 0 5 1 0 1 0 2-1 3h-1c-3-2-10-1-14-2-2 0-4 0-5-1l1-1zm146 369l1 1h0c1 3 0 31-1 33l-1-1c1-8 0-15 0-23 0-3-1-7 1-10zM398 743l2 9c1 3 1 6-1 9h-1c-1-1-1 0-2-2-2-5 0-12 2-16zm-78-463c4 0 8 0 12 1 1 0 2 0 2 1 0 2 0 1-2 2s-5 1-7 1c-3 0-5 0-6-1v-3l1-1zm318-131h3c2 0 3 0 5 2v3c-2 1-3 1-5 2-3-1-6-1-9-3v-1l6-3zm93 151h1 8c0 3 0 7-1 9h-1c-2-1-1-4-1-6 0-1-1-2-2-3l-1 2v7c0 1 1 4 0 6h-3l-1-1c0-4 0-11 1-14zM248 483h1l3 3c-1 1-2 2-4 2-4-2-12-1-17-1h-22-4s0-1 1-1h3c6 0 15 1 20-1 1 0 2-1 2 0h2c5 1 10 1 15-2zm9-130h3c4 2 9 1 13 0h0c5 1 13 1 18 0 2-1 6-1 8 1v1h-1c-3 1-4 1-6 2l-2-2h-4c-5 0-10 1-14 1-4-1-8-1-11-1-2 1-4 1-5 0v-1l1-1zm602 188l2-1 1 1c1 4 1 10 1 14 0 3 0 4-2 6h-2c-1-2-2-4-2-7s0-10 2-13zm-620-80c3 0 23 0 24 1v2c-2 1-8 1-11 1h-14c-3 0-6 0-9-1v-1c2-3 7-1 10-2h0zm558-115h0c1 1 1 4 2 4 3 1 11-1 14 1l-1 1c-4 1-10 0-14 0l-1 22 1 1c0 1-1 1-1 2v2l-1 9v-3-33c-7 0-16 1-23 0v-1-1c1-1 3-1 4-1h13c2 0 4 1 5 0 0-1 0-2 2-3z"></path><path d="M809 388h1v2c4 1 12-1 16-1 1 1 1 1 1 2l-1 1c-2 1-5 0-8 0h-8c0 3 0 7-1 10h0l-1-10h-11l-1 23c0 2-1 5 1 7h2 1l-1 1h-2c0 6 1 13-1 18-2-7 0-17 0-25l-1-23c-3 0-11 0-13-1 2-4 11 0 14-3l1 1c3 0 9 1 11 0l1-2zm-32-26h1c2 1 1 8 1 10l6 2v1c-2 2-4 3-6 4l-1 37v6h-1v-1c-3-4-1-52 0-59zm-98-195c2 1 3 2 5 3 6 1 11-1 16 0 1 0 2 1 3 2-2 2-5 4-8 3-2-1-3-2-4-2-2 0-5 0-7 1-2 0-3 1-3 3l1 2c1 1 1 2 1 3s0 2-1 3c-2 0-3 1-5 0-1-1-2-2-2-3 0-2 2-3 3-5-1-1-2-3-3-4-4-2-12 1-15-1 4-2 10 0 14-1 2-1 4-3 5-4zm106 357h0c2-1 4 0 6 0h10c14 0 28-1 41 0 2 0 2 0 4 1h-1l-1 1-46 2c-3 0-11 2-13 0-1-1-1-3 0-4zm23 16h26c7 1 17-1 22 2-5 1-11 1-16 1-9-1-19-1-28 0-1 2-1 3-1 4v36l-1 1h-1c-1-3-1-5-1-8v-14h-6v-1-1c2 0 4 1 6 1v-21zm3-294h22l1 1c-1 2-10 1-13 3-2 0-4 1-5 2 0 0-1 1-1 2s1 3 2 4 2 2 4 2c7 1 15 0 23 0l53 1 1 1-1 1h-2c-5 1-10 1-16 1h-35-23c-5 1-10 1-16 0-1 0-2 0-3-1 1-3 3-3 5-5s2-3 2-6c-1-2-4-1-6-3v-2c3-1 6-1 8-1zm-127-43c2 0 3 0 5 1 4 3 9 13 11 18-2 4-4 6-6 9-2 5-4 9-8 13-3 0-6 0-9-1-3 0-7 0-10-1-2-1-4-2-5-4-1-3 1-7 2-10 4-8 12-22 20-25zm39-17c4-1 12-1 16 1 1 0 3 2 3 3 2 5-3 17-5 21l-3 3c-1 1-6 0-8 0-3 1-6 1-9 2-2 0-7 2-9 1-5-4-9-9-10-15-1-2-1-5 0-7 5-6 18-8 25-9zm65 51h3c2 1 3 3 4 5 4 7 2 21-2 29-1 3-4 8-8 10-3 1-6 0-9-1-4-3-10-7-11-12-1-4 1-12 1-16 1-2 1-5 2-7 3-5 15-8 20-8zm-33-43c2 0 3-1 4 0 3 1 6 3 9 5 6 5 14 11 17 18 2 2 3 5 2 8-2 4-9 7-13 9-3 1-8 2-11 1s-6-7-9-9c-2-3-5-5-8-7-1-1-1-1-1-2-2-4 1-9 2-13 2-4 4-8 8-10z"></path><path d="M255 118h1c5-1 12 0 17 0l46 1 153 1h74l21-1h12c2 1 4 1 5 2 4 3 5 10 6 14l6 19c4 11 32 100 35 102h3c4 0 20 0 22 2-2 1-20 1-24 2l4 14 3 6c2 2 16 1 20 1 1 0 3 0 4 1-7 2-15-2-22 2 1 2 1 4 3 6 3 1 10 1 14 1h15c-7-9-11-17-13-29-1-3-2-7 0-10 2-2 4-2 6-3 3 0 6 0 9 1 11 0 12 4 16 13 1 2 1 4 3 5 0-1 1-2 1-3 0-2-1-6-1-8 0-4 0-8 1-12 2-8 8-16 15-20 8-4 18-6 27-3 8 2 16 8 20 16s4 17 1 25c0 2-2 5-2 7 0 1 11 8 13 10 3 3 4 6 4 11-1 5-5 9-9 12l-3 3v9 39c-4-1-9-2-13-3-1-7 0-13 0-20v-31c-3-2-6-2-9-3-3 0-9-1-12 1-1 2-1 5-1 7l1 14c2 1 6 1 9 2-4 1-10-1-14 2v1c3 1 7 1 10 1s6 1 10 1c-2 1-4 1-5 2-4 1-7 1-11 0v15 7c-1 1-3 1-5 1v3c5 1 9 0 14 0 10 1 24 2 33 7 3 1 5 3 6 6 2 7 0 14-5 18-2 1-5 3-6 5 0 3 0 5 2 8 2 0 4-1 6-2v1c0 2 1 3 0 4-1 0-2 0-3 1h0-1c-1 0-3 1-4 1v9c-8 1-16 2-23 4-5 2-10 4-16 5-4 1-9 1-13 1-3 0-7 0-9 1-2 0-2 1-2 2v1c7 0 16-3 23 0 3 1 6 0 9-1 5-1 11-3 16-4 2 0 4-1 6 0v2c-2 3-7 1-10 3v2s1 0 1 1c4 1 10 1 15 1 2 0 5 1 7 0 1-1 0-1 0-2-1-1-3-1-5-1l-9-2c1-2 3-5 5-6h1c5-1 10 0 15 3 2 1 3 3 5 4h1v1c-1 2-1 3-1 5-1 5 0 11 0 17 0 2 0 6 1 8 2 0 2 1 4 0v-10c-1-6 0-14-2-20 0-1-1-1-1-2h0c0-6 3-10 3-16v-1h3v2c-1 2-1 3 1 5 1 1 2 4 3 5 0 2-1 7-1 9l-1 23v7c1 1 3 1 4 2l-1 1-2-1c-2 1-1 8-3 10h-1c-3-3 0-6-2-9l-3 1c-3 2-2 7-2 11 3 6 6 7 13 7 1 0 3 0 4 1l1 1c-2 2-12 1-15 2-1 1-2 2-2 3s-1 5 0 6c0 1 2 2 3 3v2c-1 0-3 0-3 1v2c0 3 0 10-2 13h-1c-2-3-1-10-1-14v-2c-1-1-4 0-5-2 1-1 3-2 4-2l1-9c-3 0-7 0-10 1-7 2-1 24-4 30-2 1-5 1-6 0-2-1-1-27-2-31-2-2-3-2-5-2-1 1-1 7-2 9-7-2-13-2-19 0-2 0-4 1-5 2v1c5 0 9-1 13 0v9c1 1 4 5 5 6h4l2-1h1v3l-11 2 1 6c2 0 6 1 8 0 1-1 1-2 2-3l1 1c0 1 0 2 1 3 3 0 7 0 10 1 5 0 11 2 16 0h3c1 1 1 2 1 4 0 1-1 1-1 2h-1c1 5 1 10 1 15 0 2 0 5-1 8h-1c-1-2-1-19-1-23h-15c2 7 1 15 2 22 0 1 1 2 3 3s9 6 12 5h1 7c1-1 1-3 2-4h0l1 5 1 1h1c-1 1-1 2-2 3s0 2 1 3v1l-2-1c-1 2 0 7-2 9h0v-12l-6 2c0 3 0 6-1 9h0-1l-2-7c-1 2-2 5-3 7-2 2-5 3-7 5s-2 3-2 6l-1 25c0 11-2 43 6 51 2 0 5-2 7-3 4-2 8-5 9-8 2-3 2-8 3-11 1-11 1-23 1-35 0-3 0-8 1-12 0-1 0-2 2-2 2-1 22 0 26-1h48 21c1 0 3 0 4 1 2 1 3 3 4 5 2 8 2 17 2 25v38 104 85c0 14 1 28 0 42 0 1 0 3-1 5-2 3-4 4-7 5-8 2-18 2-27 3-24 1-50 4-74 2l-33-2c-8-1-19-3-27-1-4 1-10 4-11 8-1 2 0 6 0 8s0 3-1 4l-1 1c-2-2-2-4-2-6-1-3-1-4-3-6-3-5-13-7-19-8-13-2-27-2-41-3l-132-2h-24c-6 0-14 2-20 0-2 0-3-2-4-3-2-4-1-8 0-11l14-42 5-15c1-3 2-7 4-10 1-2 2-3 3-4 5-2 13-1 18-1l28-1c5 0 15 1 19-1 1-1 1-1 1-2s-1-3-2-4c0-1 0-1-1-1-3-1-6 0-9 0l-16-1c-2-1-6 0-7-2l2-2h9 15c3 0 6 1 9-1 2-3 1-11 0-15-3-2-9-2-14-3-2-1-4-3-6-3h-7v-13l-45-1 1 9c1 3 3 1 5 2v2h-3-2c-1 1 1 23-2 26-1-2-1-20-2-24l-2-2h-9c-7 0-14 0-21-1h-6-1l1-1h4 1c2-1 5-1 8-1h17 8c0-2 1-3 1-4v-5l-1-2c0-2 1 0 1-2 2-3-1-10 2-13 1 2 0 12 0 15h45c3-5 7-7 11-10v-9c-6 1-12 0-18 0l-35-2h-10c-1 0-3 0-5-1v-3l2 1c8 1 17 0 25 0h22c5-1 11 0 16-2 1 0 2-1 3-3 1-1 1-4 0-6 0-1-1-2-3-2-4-2-11-1-16-2l-34-1-38-2c-5 0-11 1-16-1h17l65-1c6 0 14 1 19 0 2-1 3-1 3-2 1-1 2-3 2-5s-1-5-4-6c-1-2-3-3-5-3-7-1-13 0-20 0h-37l-70 1c4 1 7 1 11 1h20l56 1c3 0 13-1 16 2h-1c-6 2-14 1-21 1h-56c-5 0-10 1-15 1l-19 1c-2 5-3 10-5 15l-12 34-9 26c-1 5-3 10-4 15-1 2-1 4 0 6 6 7 55 8 65 10 3 1 4 2 5 4v4c-3 13-8 26-12 39l-7 20c-1 4-2 7-3 11-1 2-2 4-4 5-3 1-22 0-27 1l-80 2-129-2h-47-13c-3 0-5 0-7-1-2 0-3-1-3-3-1-2-1-6 0-8 1-5 3-10 5-14l9-26 7-22c1-4 3-9 5-13 0-1 1-3 3-3 2-2 6-1 9-1l18 2h7c1-1 2-2 2-3 3-4 4-12 6-17l12-34 37-113 20-59h-18c-3 0-6 0-9-1v-1c2-1 6-1 9-1h18 1c2-3 2-7 3-10 2-6 5-12 6-18v-5c-1-2-3-3-4-3-5-1-11 0-15 0l-22-1c-3 0-9 1-12-1v-1c2-2 7-1 10-1l29-1c5 0 11 1 15-1 1-1 2-3 3-4 2-4 3-9 5-13 1-5 3-9 5-13l-134-3-1-1c0-1 0-1 1-1 1-1 5-1 7-1h22l67-1h24c4 0 8 0 12-1 2 0 3 0 4-1 3-2 4-7 5-10l-2-2c1 0 1 0 2-1h1c3-5 5-13 6-19 0-1-1-1-1-2h-3l-13-1c-1 0-3 0-4-1v-2c2-2 8 0 11-1 1 0 1-2 3-2s4 1 7 1c1 0 2-1 3-2 3-4 4-9 4-13-1-2-2-3-4-4s-5 1-8 0c-3 0-7-1-11-1l-33-1c-3 0-8 0-11-1l1-1c2-1 4-1 6-1h12l26-2c4 0 7-1 11-1 3 0 9 2 12 1v-1c-1-2-2-2-4-2-8-2-17-1-26-1-2-1-5 0-6-1v-1c11 0 22 0 33-3 2 1 4 1 7 1 1 0 2-1 4-2 1-2 3-7 3-10-2-9-27-2-33-7 0-1-1-1 0-3h19c4-1 7-1 10-1 2-1 3-2 4-3 1-2 1-4 1-6 0-5 1-11 0-15-2-2-3-2-4-3-5-1-11-1-16-1h-27c-3 0-7 0-10-1v-1l1-1c2-1 6 0 8 0l35-1c3 0 10 0 13-2 1-2 0-4 1-7l-2-39c0-11 2-24-1-36v-1c-3-1-18 0-21 0l-47-1h-13c-3 0-5 0-8-1v-1c2-1 8-1 10-1h32l28-1h11c3 0 5 0 8-1 2-3 2-8 1-12 0-2 0-5-2-6-3-1-9-1-12-1l-28-1c-4 0-12 0-15-2 0-1 0-2 1-3 3-1 7 0 10 0l17-1h24c3 0 6 1 9 1 1-1 2-1 4-1h2c1 2 1 5 0 6-2 2-3 4-3 7l-1 1v7 3c1 1 2 2 3 4 0 2-2 3-3 5 0 3 0 6 1 8 2 1 5 2 8 2 8 1 16 2 24 1 3-5 5-12 7-18 1-6 3-12 4-17l-37-2 1-7h25c4 0 9 0 13-1 2-1 3-4 3-6s0-4-2-6c-2-4-16-2-21-3h-13-22c-5 0-10 0-14-1 4-2 7-1 11-2h19c1-1 2-2 4-2s4 2 5 3c4 0 25 0 27-2l-1-1c0-1-2-2-2-3-1-2-1-4-2-5-2-1-3-1-5-2v-5l-1-1c-2-2-23-1-27-1-3-1-7 0-10-2s-5-7-6-10l-7-13-29-53-6-12c-1-1-4-4-4-6 0-1 0-1 1-2z"></path><g fill="#fbfbfa"><path d="M738 426c1-1 2 0 4 0v1 1h-2c-2 0-5 0-6-1 1-1 2-1 4-1zm-8 56h1l1 1c1 2 1 3 1 4h-2l-3-2v-1l2-2zM314 348h2c0 4 1 8 1 11l-2 1c-1 0-1 0-2-1 0-3-1-8 1-11z"></path><path d="M733 407c1 0 0 0 1 1v2c-1 2-8 3-11 4l-1-1v-1c2-3 8-4 11-5zm-79-94h3v1c0 3 1 6 1 9-1 2-1 2-2 3l-1-1c-2-2-3-7-3-9s1-2 2-3zm-91 413h1c2 4 3 11 2 16l-1 1c-2-1-3-1-4-1 2-3 1-12 2-16zm176-158c2-1 5-1 7-1 5 1 17 1 20 4l-1 1h-1c-3 0-7-1-11-1l-10-1h-3l-1-1v-1zM322 340h3c1 1 2 1 2 2 0 4-3 8-4 12-1 1-1 2-2 3l-1-1c0-5-1-11 2-16zm414 221c1 0 1 0 1-1h9c5 1 16 0 21 3v1h-1c-2 1-8 0-11 0h-13c-2 0-4 0-5-1s-1-1-1-2zm-89-265h4c3 0 5 1 7 3 1 3 0 5 0 7-1 1-2 1-3 1s-3 0-4-1c-3-2-4-7-4-10zm-93 407l1-1c2 1 3 1 4 3 2 3 5 11 4 15h0c0-1-1-2-1-3-3-1-6 0-8 0-1-5-1-10 0-14zM313 364c2 0 5 0 7 1 0 0 1 0 1 1 1 3-2 9-4 11l-1 2c-1 0-3 1-4 0-1-4 0-10 1-15zm432 217h8v27c0 1 0 1-1 2-2-1-2-2-2-3 0-3 0-11-2-13v-1c-1-1-1-2-1-3l2 1 1-1c0-1 0-2-1-3-2 0-2 1-4 0 0-1-1-3-1-5l1-1zM584 784c2 2 2 4 3 6 1 5 3 10 4 15 0 1-1 3-2 4-2 1-5 1-8 1-1 0-5 0-6-1 1-1 4-1 7-2 0 0 1 0 2-1v-4c0-4-2-15 0-18zm143-287h8c0 3 1 10-1 12h-1-1c1 0 2 1 2 1 1 4 1 7 1 10h-1l-1-1c-1-2 0-4-1-7-1 0-2 0-4-1v-4l4-4h-9v-5c1-1 3-1 4-1zM565 757h5c2 0 3 0 5 2 0 1 1 2 0 4v1c0 1 0 2-1 3s-1 1-2 1c-1-2-1-4-1-6l-10 1c-3 1-13 3-15 1v-2c2-3 15-4 19-5zm211-321h0c2 3 2 18 2 22l-3-1c-2 0-4-1-6-1h0c-2-1-5-1-6-2s0-3 0-4c1-2 4-2 6-3 4-3 5-6 7-11zm-71-133h2l1 1v33c0 4 0 9-1 13h-2c-1 0-1-1-2-1-1-9 1-20 1-29 0-5 0-11 1-17z"></path><path d="M739 446c3 0 10 0 13 1l2 2c0 2 0 5-1 7-1 0-4 1-5 0-1 0-1-1-2-2-2 1-2 1-3 2-1 0-2 0-3 1-1-1-2-1-3-2h-1c-1 1-2 1-4 1v-1l1-2c2 0 4 0 5-1v-1c-2 0-6 0-8-1 0-2-1-2 0-3l9-1zm-26-14c15-1 32-1 46 3 2 0 6 0 7 2 0 1 0 1-1 2-4 0-7-1-11-1-11-2-23-4-35-4-6 0-12 1-18 0h-1l1-1c3-2 8-1 12-1zm50 32c4 0 9-1 13 0 2 5 0 11 0 16-4 0-10 0-13-2-1-4-1-10 0-14zm-31-65c4 0 7 0 11 1 2 1 7-1 9 0v2c0 1-1 2-2 3s-3 1-4 1-2-2-3-2c-2-1-9 0-12 1h-1c-2 0-4 1-6 1h-12-3c-1 0-1 0-1-1v-1c1-1 2-2 4-2 0-1 2-1 3-1 2 1 5 1 7 1 4-1 7-3 10-3zm-418-87c3 0 7 1 10 2 2 1 3 2 4 4 1 4 1 13-1 17 0 0 0 1-1 1-2 0-4 0-5-1v-3h1 1v-8c0-1 0-1-1-2-2 1-3 3-5 5-1 2-2 4-3 5v-12c0-3-1-5 0-8zm404-37l3-1c10 0 21 1 30 4 4 1 8 2 11 5v3c-11-5-21-7-32-8-11 0-23 1-33 5-3 1-6 3-9 5l-2-2c1-2 4-3 6-4 8-5 17-6 26-7z"></path><path d="M723 286h0c10-1 20 0 29 3 3 1 6 2 9 4 1 1 1 1 1 3-2 1-4-1-6-2-7-2-15-3-22-4-9 0-19 0-28 2l-13 3-2-2h1c3-5 25-7 31-7zm-59 52c3-1 6-1 9-1 5 0 11 0 17 1v6c0 3-1 10-4 11-2 1-4 0-5 1v3c-1 0-1 0-2 1-2 0-2 0-4-1h0v2c-1 1-2 1-4 2l-1-1c-1-1-1-2-1-3l1-1 2 1s1-1 1-2h-1c-2 0-2-1-2-2l1-2c-1-1-1-3-1-5l1-1 1 2c3 0 6-3 9-3v-1c-5-1-12 0-16-4-1-1-1-2-1-3zm73 193c4 0 12-1 17 1v18c-2 1-7 1-9 0-4 0-1-10-3-13-1 1 0 2-1 3-1 0-2 0-3 1l2 1v1l1 2-3 1-1 1 2 1h1v2h-1l-1-1h-1v1h-1l-1-1c0-2-1-4 0-7h0l-1-1h-3c-1 2 1 7 0 9-2-4-2-9-3-13 3 0 7 0 10-1-4-1-8 0-12-1 0-2 0-2 1-3l10-1zm-5-155c5 0 16-1 21 3v8h-1c-1 1-7 2-9 1l-1-1c-1-1-3-1-4-1-3 0-7 1-10 1-1-1-1-2-2-2-2-1-4 0-6 0-2 1-4 0-6 0-4 0-8 1-12 1-5 1-9 4-15 3-2 1-6 3-8 1v-1c3-3 24-6 29-6 5-1 12 0 17-2 1 0 1 0 1-1-3-1-10 0-14 0-2 0-3 0-4-1v-1c3-1 7-1 10-1l14-1zm-5 74h1c1 2 1 3 1 4h-1c-4 0-7 0-11 1v15h12c2-1 4-1 7-2s5 0 9 0h0c-2-3-18-4-22-4-2 0-3 0-4-1v-2c2-1 3-1 5-1h21c3 0 7 0 9 2v16c-2-1-7 0-9-2 0 0-1-1-2-1-1 1-2 1-3 2-2-1-1-2-2-3 0-1-3-1-3-1-1 1-1 2-2 2 0-1 0-1-1-2h-17c0-6 0-12 1-18l-9 2c-2 0-4 1-6 0v-3c8-3 18-3 26-4z"></path><path d="M731 362c7 0 14 1 21 2 3 0 8 1 11 2 1 1 2 1 2 2 1 1 1 3 0 4 0 1-1 1-1 1-5 1-11 1-17 1h-4l-1-1h-2c-3 0-9 1-11-1v-3c-2-2-5-3-7-4l-2 3c-1 1-4 1-5 1-4-1-7 0-11 0-4 1-9 2-14 3-3 1-7 3-10 4l-2-1v-1l1-1c2-2 6-4 9-5 14-4 29-5 43-6zm-64-65h4c2 0 10-1 11 0 0 0 1 4 2 4 1 3 4 5 6 7 0 5 0 12-1 17l-1 1h-17c-2 0-4 0-6-1l1-1h1l16-1 2-2v-1h-20c-1-2 0-5 0-7h1l1 1v3c1-1 1-1 1-2 0-2 1-3 0-5h-2c-2-2-1-4-1-5 0-3 0-6 2-8zm56-70h10c6 1 12 5 16 10s6 12 4 19c0 4-2 10-6 12-1 0-1 1-2 1-5 0-10-1-15-1l-11 1c-1 0-3 0-4-1-4-1-6-5-8-9l5-1 18-6c-3-3-6-4-10-6s-8-4-13-4c-4 3-4 8-4 13 0 2 0 3-1 4h-1v-2c-2-6-1-13 3-18 5-7 11-10 19-12zM268 124l311 2c2 2 3 4 4 6 8 19 14 38 20 57l34 101 49 145 4 16 50 147 15 45 4 15c1 3 2 7 4 10 1 1 2 1 4 2 2 0 4-1 5-2 6-3 12-8 17-12 2-2 3-4 4-7 2-6 1-13 1-19l1-25c0-4 0-6 3-9 5-1 12 0 18 0h33c11 0 24-1 36 0 1 0 2 0 3 1s2 2 2 3c1 5 1 9 1 13v20 64l2 131v55c0 3 0 6-2 8-1 2-3 3-5 3-7 1-14 0-20 0h-33-108l-173-1h-45c-8 0-16 1-24 1-2 0-4-1-6-2-1-1-2-2-2-4 0-6 3-13 5-19l9-24c2-6 4-13 7-19 1-2 2-4 3-5 2-1 3-2 4-2 6-2 14-1 20-1h36l21-1c4 0 8 0 12-2 2 0 4-2 5-4 1-3 1-8 0-11-3-14-10-28-14-42l-13-39c-1-5-2-10-4-14s-5-6-9-8c-5-2-12-2-17-2h-22-56-34-20c-2 0-5 1-7 2s-3 2-4 4c-4 8-6 17-9 25l-22 64c-1 5-5 14-2 18 1 2 3 4 5 5 5 1 11 1 17 2 15 2 33 2 48 7h0c0 4-3 10-4 14l-9 26c-2 9-5 18-8 26-1 2-1 3-2 4-2 2-4 2-5 2-21 1-41 0-62 0H231h-76-24-13c-2 0-2-1-4-2-1-2 0-4 0-6 1-5 3-10 5-14l8-25 9-28c1-1 2-2 3-4 2-1 5-1 8-1l21 2c2 0 6 1 8-1 1-1 2-3 3-4 3-7 4-15 7-22l16-51 48-143 94-281 17-47c2-7 6-15 7-23 0-2 0-3-1-5-1-3-4-6-6-9l-11-14c-2-2-4-5-7-6-4-2-10-1-14-1-6 1-12 1-18 0-1-1-3-2-4-4l-18-33-15-27c-3-6-8-13-9-19 1-1 2-1 3-2z"></path></g><path d="M296 142c2-1 5-1 8-1h14 52l197 1 189 564 28-22 14-10c3-3 7-6 10-9 2-4 4-8 4-13 1-8 0-16 1-24 0-3 0-7 1-10 0-1 1-4 2-4 2-2 9-1 11-1l33-1c4 0 9-1 13 0 2 0 2 1 3 2s1 2 1 3v24 37 111l1 61v15c0 3 0 6-1 9 0 1-1 3-2 4-4 2-9 1-12 1h-95-180-64-17c-2 0-6 1-8 0-2 0-1 0-2-1 3-12 8-24 13-35 1-3 2-6 3-8 0-1 1-2 2-3h3 32 39c5 0 11-1 16 0 1 1 2 2 2 3 1 3 1 6 1 8l-1 20c0 2 0 5 1 6 1 0 1 0 2-1v-24c0-3 0-8 1-11 1-2 4-4 6-6 1-2 3-4 4-7-2-7-5-15-7-22l-12-38-16-48c-3-10-6-19-10-29-1-2-3-4-5-6-8-1-16 0-24 0h-43-115c-3 0-6-1-7 1-1 1-2 3-2 4l-19 58-15 47-10 30c0 2-1 5-1 6 1 3 3 4 5 5 5 2 12 2 17 3l38 3c4 0 10 0 13 2 1 2 1 4 1 7-1 7-4 15-7 22-1 4-3 11-6 13-2 1-5 1-8 1h-69-118-47-13-6c-1 0-1 0-1-1 1-4 2-7 3-10l7-16c1-3 2-5 2-8 2-4 1-9 4-12s29 6 35 0c6-4 22-55 26-64l33-102 91-267 37-107 9-27c3-9 7-17 7-26-5-10-12-21-19-30-4-6-7-13-12-18-2-1-6 0-8 0l-18 1h-10c-1-1-2-1-3-2-2-2-4-6-5-9-6-10-13-21-18-31 0-2-1-4-1-5 0-2 1-2 2-3z"></path><g fill="#fbfbfa"><path d="M546 862h1c1 1 1 1 2 3-1 1-1 2-2 3h-2l-1-1v-1c0-2 1-3 2-4zM319 567h0l2 2c0 2 0 2-2 4h-1c-1-1-1-1-2-3 1-1 1-2 3-3zm74 31c1 0 2 1 3 2 0 1 1 2 0 4-1 1-1 1-2 1h-2c-1-1-2-3-2-4 1-2 1-2 3-3zm104 17h5c-1 1-2 1-3 2v1c1 1 1 2 2 3-1 2-1 3-2 4-2-1-2-1-3-2 0-3-1-6 1-8zm348 66c1 0 2 0 3 1s2 1 2 3c-1 2-1 2-3 3h-1c-2 0-3-2-4-4 0-1 2-2 3-3zM221 819c2 0 2 0 4 1 0 1 1 2 1 3-1 2-2 3-3 4-1 0-1 0-2-1-2 0-3-2-3-4l3-3zm160-339c5 3 8 7 11 12-4-1-7-3-10-6-1-1-1-4-1-6z"></path><path d="M213 820h2c1 0 2 1 3 2l-5 4c-1 3 0 7 0 9l-1 22v3l-1-1-1-36c1-1 1-2 3-3zm520-108h1l1 1-2 63-1 1c-1-13 0-26 0-39v-17c0-3 0-6 1-9zM608 472h0c3 1 6 2 8 2-5 2-11 1-16 1-3 0-5 0-8 1-1 2-1 32-1 37l-1 7-1-46c1-1 1-1 2-1 2-1 5 0 7 0 3 0 7 0 10-1zM434 607c3-1 8 0 12 1l39 1 1 1c-3 1-8 1-12 0h-15-23c-2 1-2 1-2 3v3c2 2 9 0 12 1-4 1-9 1-12 1-1 1-1 5-1 7 0 8 0 17-1 25-1-1 0-4 0-4l-1-20c0-2 1-6 0-8-1-1-1 0 0-1v-8c1-1 1-1 3-2zm204 137h0c3 1 6 8 8 11 8 11 17 23 25 36 1 1 2 3 2 5 1 9-24 35-30 43-1 1-2 1-3 2-1-1 1-2 1-3l18-24c3-4 8-10 9-14 0-4-5-11-7-14l-18-32c-1-2-6-8-5-10zM423 507c1 0 1 0 1 1-3 3-10 6-15 8l-50 24v64l21 1c-7 1-14 1-21 0v51c-2-3-1-9-2-12v-27-11h-25-14c-1 0-4 1-5 0h-1c-2-4 0-11 1-15 1 3 1 9 1 13h43v-66c9-5 19-10 28-14l38-17zm170 105c7-1 9 0 14 5 2 1 3 2 4 3v-1c0-2 0-3 1-5h4c1 1 2 1 2 2v3c-2 1-2 1-4 1-1 0-1 0-2 1 4 5 9 9 13 14l19 22c4 4 9 9 12 14l-1 1h-1c-1-1-2-2-2-3l-8-8-25-26-11-10c-2-3-5-5-8-7-4-2-11-1-16-1l-62-1h-12c-2 0-4 0-5-1h0c7-1 14-1 20-1 23 0 46 2 68-2zm-300 15c1 0 1 0 2 1-1 4-3 10-5 15l-9 28c-2 6-4 13-5 19-2 10 4 13 9 20-2 9-6 17-11 25l-10 20-26 52c-1 2-3 4-4 6 0-3 2-7 4-10l6-15c8-20 16-39 23-59 1-3 2-7 2-10 0-6-2-11-1-17 3-17 10-34 16-50l6-16 3-9zm545 54h2c1 1 1 1 1 3-4 6-4 11-4 19 0 1 0 3-1 5-1-3 1-6-2-9 0 1 0 1-1 1l-3 6c-4 6-9 12-10 18-2 5-1 10-2 15 0 8-1 17-1 26l2 24c0 11-1 21 0 32 0 5 1 12 6 15 2 1 4 2 6 4v2c-3 3-8 3-12 3-16 2-32 1-47 1l-80-2h-14c-3 0-6 0-10 1-3 4 0 20-1 27h-1c-1-2-1-4-1-5v-11c0-4-1-9 0-13 1-1 1-1 2-1 7-1 15 0 22 0h45l63-1c5-1 10-1 13-6 2-2 3-5 4-8 1-6 0-13 1-20 0-26-2-53 0-79 0-5 3-9 5-14 3-4 9-10 9-15-3-3-6-2-9-1-7 4-14 10-20 15l-22 16c-2 2-6 6-8 6-4 1-9-1-13-1h-16v-1c7-1 14 0 21 0h6l2-1c1-2 3-3 5-5l38-27c8-6 16-13 25-19zM391 157c1 0 0 0 2 1v18h153c5 9 8 21 11 31l20 61 29 89 12 35c0 2 1 3 1 5-2 8-25 18-32 23h37c2 0 2 0 3 2 2 1 2 4 3 6l4 10 9 28 71 218 8 29 4 11v4c-2-10-6-19-9-29l-23-70-37-112-27-81c-1-3-3-10-5-12-3-2-13-1-16-1h-31c-5 0-31 2-33-1v-1c1-1 23 0 26 0h8c3-2 5-4 8-6 6-4 13-8 18-13 2-2 4-3 4-5 2-4 0-8-1-11-2-3-3-4-6-6-4-2-10-4-15-5l-19-7-1 28c-1-2-1-7-1-10 0-9 0-19-1-28 0-8-6-16-13-21-2-2-7-6-10-7-4-1-8 0-12 0h-27l-51-1h-25v32c0 2 0 4-1 5-1 0-1 0-1-1-1-1 0-7 0-9v-28h143c0 11-1 23 1 35l38 14-30-70c-1-2-2-4-5-4-3-1-10 4-14 6l-25 14 28-27c5-5 10-11 10-18 0-4-1-7-2-11-2-7-5-13-7-20-2-6-4-15-9-19-2-1-3-2-5-1-2 0-3 1-3 3-2 4-1 11-1 16 0 4 0 42-1 44h-1c0-1-1-1-1-1v-8-28l-1-36v-15c0-4 1-7 0-11-1-2-3-5-6-6-1-1-4-1-6 0s-4 3-4 5c-1 4-1 8-1 12l1 29v59l-1 12v6c-1-2-1-6-1-9v-18l-2-54v-23c0-4 0-9-1-14 0-2 0-3-2-4-3-4-13-3-17-4h-15c-6 0-13 0-18 4-1 2-3 5-3 7 0 1-1 1-1 2 0 8 6 17 10 23 2 3 5 6 5 9 1 4 0 7 0 11v23 23l-1 25h0l-1-28-1-37c0-3 0-10-1-13-2-4-6-8-9-11l-19-23-12-15c-2-1-3-2-5-3-3-1-7-1-10-1h-18c-2 0-7-1-8 0 0 5 9 13 13 17l22 25c3 3 11 10 11 14s-2 9-3 12l-8 22-34 101-11 32c-3 9-7 18-8 27-2 11-2 22-2 33 0 6 0 14 1 20 2 12 14 18 25 21 3 1 8 2 11 4h-1c0 1-1 0-1 0h-10l-19-1c-5-1-11-2-16 0h-1c-4 1-7 3-10 5-6 5-13 14-16 22-1 7 0 15 0 22 0 13 1 26 0 39l-2 2c-2-2-1-21-1-24v-29c0-5-1-12 0-17 1-8 5-16 8-23l16-47 21-61 37-103 12-33 5-14c1-2 3-5 3-8 0-2 0-3-1-4-3-5-7-9-11-13l-30-36c-1-1-2-2-2-3-1-2 0-5 0-8 0-5-1-10 0-15zm89 201h1c1 1 2 4 3 6l4 12 13 40 41 128 8 23c1 3 2 7 2 9s0 2-1 3c-3 1-6 1-10 1h-16-44-52-12c-1 0-4 0-5-1-1 0-3-1-3-2s0-2 1-3c4-18 11-36 17-54l28-85 18-56 5-13c0-3 1-6 2-8z"></path></g><path d="M479 436h2c1 0 2 0 3 1 3 3 4 6 6 9 6 16 11 33 17 49 5 15 11 30 15 44 1 3 1 7 1 10s0 6-3 8c-1 2-2 3-4 3-4 1-8 1-12 1h-18-25c-4 0-9 0-13-1-2-1-4-3-5-5-2-3-1-8 0-11 2-13 7-25 11-38l19-60c1-4 2-8 6-10z"></path><g fill="#fbfbfa"><path d="M490 501c1 0 3 0 4 1 0 1 1 1 0 3-1 0-4 0-5-1 0-1 0-2 1-3zm-10-55c1 0 1-1 2 0s2 3 3 4c2 6 4 11 5 17l-7 1h-9c0-5 2-10 3-15 1-3 2-5 3-7z"></path><path d="M494 480h1l6 16c2 6 4 12 4 19-1 1-4 2-5 2-1-1-1 0-1-1l-1-1s-2-1-3 0c-1 0-1 1-2 1h-2-1c-2-1-1-6-1-8 3 0 5 0 8-1 1-2 0-4 0-7 1 0 3 0 4-1 0-1 0-2-1-3-3-1-7-1-10-1 1-5 0-11 4-15zm-23-7h2c2 0 4 1 6 3 5 5 4 13 4 20h-6l-13-1 4-13 3-9zm18 45h1c3 0 4 0 6 2 4 0 8 0 12-1l6 17c1 3 2 7 2 11 1 2 0 4-1 6-5 4-20 2-26 2-1-6 0-11 0-17 0-7-1-13 0-20z"></path></g><path d="M502 529h1 0c1 2 1 4 1 6 0 4 2 10 0 13h-1l-1-1c-1-2-1-4-1-5 0-4 0-9 1-13z"></path><path fill="#fbfbfa" d="M465 499l18 1 1 5-15 1v1h15c1 8 0 17 0 25 0 6 1 15-1 21l-1 1c-4 2-22 1-27 0-2 0-5 0-6-3-1-1-1-3 0-4 1-5 3-10 4-15l7-23c1-3 2-8 5-10z"></path><path d="M468 511h2c1 2 0 5 1 7 0 4 2 8 1 12 0 1-1 2-3 3h-2c-1-1-1-2-2-3-1-4 1-15 3-19z"></path></svg>