<svg xmlns="http://www.w3.org/2000/svg" xmlns:v="https://vecta.io/nano" viewBox="160 30 1203 1434"><!--oldViewBox="0 0 1533 1530"--><style>.B{fill:#fff}.C{fill:#e0dfe0}.D{fill:#f2f1f2}</style><path d="M730 110h40c90 2 178 19 258 60 35 18 68 40 95 69 4-3 7-8 9-11l20-25h132l-2 79c-1 39-4 77-11 115-14 85-44 168-80 245-5 0-12-3-17-5l-49-15-28-71c-29-69-70-139-132-183-15-11-31-20-48-27-53-21-112-21-164 2-64 28-105 83-129 146-23 60-31 124-34 187-4 78-2 157 16 233 6 27 15 53 26 78 27 61 74 121 138 145 48 19 101 16 148-5 93-42 136-137 171-227l40 17c47 18 95 33 144 44l80 15c-41 92-88 180-157 253-43 47-95 90-152 121-82 46-175 68-268 71-48 2-97-1-145-9-101-17-197-62-272-132-36-34-65-73-91-115-68-112-100-241-104-371-3-96 3-193 33-285 15-49 38-95 66-138 19-31 42-60 66-86 107-115 246-170 401-175z"></path><path fill="#141415" d="M291 1165l15 18-1-1c-2 0-2 0-3-1 0 2 3 2 1 4v2l-9-13c-2-3-3-5-3-9z"></path><path d="M1140 1187l1 3c-4 5-9 8-14 13l-2 1h-1c0-1 0-2 1-2h-1c-2 1-5 2-7 3 3-3 7-5 10-7 5-3 9-7 13-11z" class="D"></path><path d="M545 944l2 1 3 13-9-1-2-1c-1-3-2-6-2-9 2-3 6-2 8-3z" class="B"></path><path d="M636 227c-8-1-15-2-22-1-3 0-6 1-9 1l6-2h1c16-4 31-3 47-1l6 2 1 1c-2 0-6-2-7-1h-1c-2 0-3 0-5-1v1c-1 0-1 1-2 0-4-2-10 0-14 0l-1 1zm201 951l-30-10c16 2 30 3 46 7-2 0-4 0-6 1l1 1-1 1-1-1c-4-1-6-1-10-1v1h0l1 1z" class="C"></path><path d="M531 947h3l2 10-13-1-4-1c-2-2-1-2-1-4 3-4 9-3 13-4zm647 151h4c2 0 3 1 4 3 2 1 3 3 2 5 0 3-1 5-3 7-1 0-3 1-3 1-2 0-4-1-5-2-2-2-3-6-3-8 1-3 2-4 4-6zM646 323c2 0 5-1 7 0 2 3 2 7 3 10-3 1-7 1-10 1l-10-1c-1-2 0-8 0-10h10z" class="B"></path><path d="M843 183c17-15 33-21 55-22v2h5c-24 3-43 7-60 25v-2-3z" class="C"></path><path d="M290 524c3 25 7 47 23 67-2-1-3-2-5-1h-1c-8-10-15-27-17-40 0-2 0-3-1-5v-1-1c-1-1-1-1-1-3v-1c-1-3-1-6-1-9h1v3h1v-3c-1-2 0-4 1-6z" class="D"></path><path d="M540 337h4c3 2 4 5 5 8l8 15h-17c-1-2-1-5-1-6 0-6 0-11 1-17zm-28 462h2c3 4 5 12 7 17l-12 3h-1c-3-4-6-11-8-16l12-4zm455 344c9-3 17-6 25-13l4-4c1-2 1-5 1-7 1-4 5-9 8-11 2-1 3 0 5 1 1 2 1 5 0 7-3 8-25 23-33 26-2 1-4 2-6 2-1 0-1 0-2 1h-1l-1-2zM500 866h2l2 16-15 2-2 1c-2-2-1-14-1-17l14-2zm563 419h1c3 1 5 7 6 10l-19 11h-3l-4-10 19-11z" class="B"></path><path d="M971 1144c-13 6-27 5-40 2 7-2 14-4 20-7 14-8 25-20 35-32l25-30h1l-23 28c-10 13-19 25-33 34-3 3-8 4-12 6 7 0 14 0 21-2h2l1 2h1c1-1 1-1 2-1z" class="C"></path><path d="M1054 1269l2 1c3 4 5 8 7 12l-18 11h-1c-2-2-5-11-6-15l16-9zM503 957l23 4-1 14-23-2 1-16zm-25-89c2 0 3-1 5 1v17h-15-4c-1-5 0-12 0-17l14-1zm14-534l15 1v23h-15v-24z" class="B"></path><path fill="#272728" d="M438 1288l46 24h-2c-3 0-5-2-8-3l-1-1h-1l8 5 1 3 4 2c-2 1-5 2-6 4-6-3-12-7-17-11l1-2c-2-1-4-3-5-4-2 0-3-2-5-2l-2-2h-1c-2-1-2-2-3-3-1-2-3-4-5-5l-2-1c-1 0-2-2-3-3l1-1z"></path><path d="M438 1288l46 24h-2c-3 0-5-2-8-3l-1-1h-1l8 5 1 3c-15-7-29-19-44-27l1-1z" class="C"></path><path d="M1197 329h1c1 0 3-1 4 0 2 0 5 2 7 3 3 2 7 2 10 4v2c-3 3-7 5-10 7l-2 1c-4 1-12-1-15-4-2-1-4-2-4-4 2-4 5-7 9-9zM898 161c4-1 10-2 14 1l2 2-5 10c-1 1-1 2-3 3-3 0-5-1-8-2h-3l-8 2c-2 0-3 1-5 0-2-2-4-4-6-7 5-2 10-3 16-3 4-1 12 0 15-3-2-1-2-1-4-1h-5v-2zM519 821l3-1 1 1c2 10 3 19 3 29l-9 3h-2s-1 0-1-1v-3c-1-9-3-17-5-26 2-1 8-2 10-2zm6 33l1 1c0 8-1 15-3 23l-17 3-2-18c3-1 6-2 9-4 4-3 7-4 12-5zm294-630c8-11 21-32 34-34h5c1 2 2 2 1 4 0 2-2 5-3 7-2 3-3 6-5 9-4 1-5 0-8-1l-2-1c-9 6-16 15-23 22v-3c1-1 1-2 1-3zm7 17c3-4 6-8 9-11 4-1 5 1 8 2 3 0 4-2 7 0l1 2c-1 4-5 6-7 9-3 4-4 8-9 11-6 2-10 0-15 4-1-2 0-3 1-4 1-5 4-9 6-13h-1z" class="B"></path><path d="M827 241c3-2 4-5 8-6 1 0 2 0 3 2-3 5-12 12-17 17 1-5 4-9 6-13z"></path><path d="M244 740l67 141-1 1c-6-12-10-27-19-37l-13-27c-1-1-1-2-1-4-1-1-1-2-2-3 1-2 0-4-1-6l-11-21-3-6-7-14-1-3c-1-2-1-3-2-4v-1h-1c-1-2-2-3-3-5l-1-1c0-1-1-2-1-3-1-3-1-5 0-7z" class="C"></path><path d="M880 127c1 0 1 0 2-1 3 0 8 1 10 3s2 3 2 6c0 2-1 6-4 8-4 3-11 4-15 6-12 4-25 14-34 23l-1 1-5 6h-1c1-3 2-5 4-6 6-9 17-15 26-21 3-2 8-4 10-8l-2-2c-1-2-1-3-1-5 2-5 5-8 9-10zM683 306l8 11c-7 8-18 12-28 15-2 0-3 1-5 0l-3-10c11-4 19-9 28-16zm457 881c1-2 4-5 4-6 1-3 0-6 1-8 1-7 7-32 16-32 2-1 3 0 5 2 2 3 2 7 1 11-2 8-10 15-16 22l-10 14-1-3zM513 335l22 1-1 23c-7 1-14 0-21 0v-24zM308 590c2-1 3 0 5 1l11 11 1-1c-2-2-3-3-4-6v-1c5 0 10 6 14 8 5 3 11 3 16 5 0 1 1 1 1 1 1 1 2 2 1 4 0 4-4 11-7 13-2 1-3 1-5 1-2-1-5-3-6-4-3-4-5-8-7-11-7-8-14-13-20-21zm261-328c1 2-1 10-2 12-2 13-1 27 4 39 9 26 31 43 56 51 6 2 14 2 19 5l-3 2-4 2c-5 2-18-4-22-6-22-10-40-27-49-50-6-17-6-38 1-55z" class="B"></path><defs><linearGradient id="A" gradientUnits="userSpaceOnUse" x1="825.894" y1="242.211" x2="810.52" y2="237.664"><stop offset="0" stop-color="#c9c8c8"></stop><stop offset="1" stop-color="#edebec"></stop></linearGradient></defs><path fill="url(#A)" d="M820 258c0 2-4 7-5 8-3 5-7 11-9 16-1 4-2 9-3 13 0 2 0 3-2 4l-1-1c-1-8 0-15 1-23 1-9 3-18 6-28 6-23 16-49 36-64v3 2c-7 8-13 15-18 25-2 3-5 7-6 11 0 1 0 2-1 3v3c-7 14-12 29-12 44 3-4 6-8 8-12 4-7 7-15 12-21h1c-2 4-5 8-6 13-1 1-2 2-1 4z"></path><path d="M1146 472l10-1-15 63-2 5-3-67h10zm-591 604c2 2 3 9 5 11 7 9 13 10 23 11-4 5-8 9-14 12-5 1-9 2-14 1-4-1-8-4-10-8-3-3-3-8-2-12 2-7 6-11 12-15zm110-850c16 5 27 15 35 30 6 13 8 27 3 41-2 6-4 11-8 17l-10-11c7-13 12-27 8-42-3-12-12-26-23-32-1-1-3-1-4-2l-1-1z" class="B"></path><path d="M242 748c1 2 3 4 4 6 0 1 0 3 1 4l2-2h1v1c1 1 1 2 2 4l1 3 7 14 3 6 11 21c1 2 2 4 1 6 1 1 1 2 2 3 0 2 0 3 1 4l13 27-11-2-5 5-3-15c-3-8-4-18-7-26-4-17-10-32-18-47h0l9 30v2c-1 1-1 3-1 4l1 2c0 1-1 2 0 3l1 1v1 2l1 5c1 1 1 2 0 4h0c-1-3-1-5-2-7l-1-3v-3l-1-1-5-19v-3c-1-2-1-3-2-4s-1-4-2-6c0 4 0 5-2 8 0-4 1-7 1-11 0-6-1-11-2-17z" class="C"></path><path d="M272 833c1-4-1-8-1-13l1 2c0 2 0 3 1 5s0 2 1 4l1 1 1 1 1-1-2-6c-1-3-2-7-3-10 0-1-1-2-1-3v-6c1 2 2 2 4 3v1c1 1 1 2 2 3 0 2 0 3 1 4l13 27-11-2-5 5-3-15z" class="B"></path><defs><linearGradient id="B" gradientUnits="userSpaceOnUse" x1="217.305" y1="706.79" x2="247.371" y2="712.539"><stop offset="0" stop-color="#bcbbbb"></stop><stop offset="1" stop-color="#e8e7ea"></stop></linearGradient></defs><path fill="url(#B)" d="M220 527c0-1 1-3 2-4v1c0 7-2 15-3 22l-3 32c-3 54 8 111 28 162-1 2-1 4 0 7 0 1 1 2 1 3l1 1c1 2 2 3 3 5l-2 2c-1-1-1-3-1-4-1-2-3-4-4-6-1-6-5-13-7-18 0-2-1-3-2-5-4-13-8-26-10-40-1-4-4-27-6-29 0 5 1 10 2 15 1 4 1 8 1 11l5 23 7 39-2 2-13-77c-5-33-6-69-3-102 1-11 2-24 5-35 1-2 1-3 1-4v-1z"></path><path d="M371 678c8 10 17 21 29 27 11 7 26 12 39 8 9-2 13-6 17-14-1 3-2 5-3 8-2 3-5 6-7 8-10 8-23 10-35 9-14-2-31-10-39-22-5-6-2-17-1-24zm-172-66l1-1c1-2 1-4 1-6v-2c1-2 1-4 1-6v5c0 2-1 3-1 4-1 4 1 9-1 12l1 1v29l1 1 2 50 2 36c0 7 0 16-3 22-1 3-2 4-5 5-2-1-2-1-4-3-1-2-1-5-2-8 0-14 2-28 3-42l1-64c1-11 1-23 3-33zm740 632h1c3 5 5 10 7 14 15 33 15 67 2 100-6 5-18 8-26 10l-9 2c13-12 24-24 30-41 11-28 8-58-5-85z" class="B"></path><path d="M704 190c4 1 4 2 7 4 3 1 5 4 8 6 4 2 8 7 11 11 2 1 3 3 5 4-2-3-5-7-8-10l-6-6c-3-3-10-7-13-10v-2-1c3 2 6 4 9 7 2 2-1-1 2 1 1 1 1 1 3 2s3 5 5 6h2c2 1 4 4 5 5v-1c-1-1-2-3-4-4l-1-2 1-1c4 4 8 11 12 16 10 14 19 30 27 46l19 38c-2 1-5 1-7 1l-1-2c0 1-1 1-2 1-3 0-5-8-6-11-12-29-27-54-50-76 4 1 8 5 11 9v-1c-1-2-2-3-4-5s-4-4-4-7l-1-1h-1c-2-1-1 0-2-2-1-1-2-2-4-3l-2-2c-2-4-8-7-11-10z" class="D"></path><path d="M724 207c4 3 6 6 9 9 1 1 0 0 1 2l1 1c1 0 1 1 1 2 3 1 3 2 5 4v1l2-2c0 1 2 2 2 2 1 3 0 3 2 5 1 1 1 2 2 3l1 1 4 8c1 1 1 0 1 2 1 1 1 2 2 3l1 2 2 3 1 2 1 2 1 2 2 3c2 3 4 7 5 11l1 2 1 3 1 2c1 1 1 1 1 2l1 3v1l1 1c1 1 1 2 1 3l1 3 2 5c0 1-1 1-2 1-3 0-5-8-6-11-12-29-27-54-50-76 4 1 8 5 11 9v-1c-1-2-2-3-4-5s-4-4-4-7l-1-1z" class="C"></path><g class="B"><path d="M310 882l1-1c5 11 10 21 22 28 4 2 19 6 19 11v1c-4 5-9 9-16 10l-4 1c-1 4-1 10-5 13-3 2-6 2-9 1-2 0-4-2-5-4-4-5-3-17-3-23 0-4-1-8-2-12 3-2 7-5 8-8 0-4-5-13-6-17zm206 9c3 0 7-1 10 1 4 2 7 6 9 10 2 5 1 13-2 18-4 6-9 10-16 12-4 0-8 0-12-2s-7-7-8-11c-2-5-1-12 2-17 4-6 10-9 17-11zm590 53c5 0 9 0 13 2 5 3 11 10 12 15 2 5 1 12-2 16-3 6-8 8-14 10-4 0-9 0-13-1-6-3-11-8-13-14-2-5-1-12 2-17 3-6 8-9 15-11zm33-550c10-1 22 0 30 7 12 9 13 22 15 35-3-7-9-13-15-17-10-6-21-9-33-6-13 3-21 9-28 20-9 17-8 35-7 54l-7-24c-3-15-3-33 6-46s24-20 39-23z"></path><path d="M451 585c20-3 41 3 57 14 11 7 19 16 24 28l3 14-8-11c-14-18-33-29-56-32-22-3-42 2-60 16-11 10-21 22-23 37-4 18 2 31 12 46-1-1-1 0-2-1-2-2-4-5-6-8-6-8-12-18-14-28-2-15 7-34 16-45 14-18 35-28 57-30zm345 587c30 23 53 55 63 92 11 39 5 75-15 110-1 3-4 6-6 9 5-20 8-42 9-63 0-10-1-21 0-32h2-2c-2-3-2-12-3-16-2-13-6-26-10-38-9-23-23-43-38-62z"></path></g><path d="M199 612v-4l1-14v3c-7 36-6 73-12 110-1 5-2 14-7 17l-1-1c-2-10 0-23 1-34 6-56 15-111 30-165 12-47 34-95 60-135 4-6 8-14 13-17l1 1c-2 6-6 11-9 17l-13 23c-18 35-32 71-41 110-1 1-2 3-2 4-4 12-8 24-10 36-1 4-1 8-1 11-1 2 0 4-1 6s0 4 0 5l-1 1c1-8 1-15 1-22-4 28-6 56-6 85l-1-1v-29l-1-1c2-3 0-8 1-12 0-1 1-2 1-4v-5c0 2 0 4-1 6v2c0 2 0 4-1 6l-1 1z" class="D"></path><path d="M1220 979c25-1 52 4 77 9l-44 95c5-26 10-51 11-78h-16c-1-1-3-1-4-2s-2-4-3-6c-2-4-5-8-9-12 4 6 8 12 10 18 12 29 12 69 0 97 0-5 1-11 2-16 5-37-3-74-25-104l1-1z" class="B"></path><path d="M807 215l-13 39c-1-1 0-5 0-7 2-12 5-24 4-36 0-6-3-11-5-17-2-5-4-12-4-18-1-7-2-20 3-26 1-2 3-2 5-2h1 1 1v-1-1c1-3 2-5 4-7 4-2 11 0 14 1 2-4 6-12 9-15 2-1 3-1 5-1 2 1 3 1 4 3 2 3 2 8 2 12v5c3-1 6-1 9 0 2 0 2 0 3 2 0 2 1 5 0 7-2 5-7 10-10 15-4 5-7 10-11 14-5 7-12 13-17 20-2 4-4 9-5 13z" class="D"></path><path d="M824 176c2-7 6-14 10-20 1-2 2-6 4-7 1 1 2 1 3 3 1 5-1 10-3 15l-20 22 6-13z"></path><path d="M824 176l-6 13 20-22 2 1c-4 5-7 10-11 14-5 7-12 13-17 20-2 4-4 9-5 13l-1-3c-1-2 0-8 2-10 6-8 10-18 12-28l3-1v1l1 2z" class="C"></path><path d="M796 156c2 0 3 0 4 1 1 2 1 3 2 4l2 31c0 4 1 9-2 11-2-4-3-9-4-13-2-8-6-27-2-34zm26 8c-3-8-4-13 1-21 2-3 4-7 7-10 2 1 2 1 4 3 0 9-3 18-6 26-2 4-4 8-5 12v-1c0-3-1-6-1-9z"></path><path d="M808 202c1-11-3-48 3-55 2 1 3 1 4 3 2 4 3 10 4 15l3-1c0 3 1 6 1 9l-3 1c-2 10-6 20-12 28z"></path><path d="M822 164c0 3 1 6 1 9l-3 1-1-9 3-1z" class="C"></path><path d="M455 556c6-1 13 0 18 1 18 2 35 9 48 22 7 6 12 12 17 19l-4 20c-3-5-6-9-10-14-15-16-40-24-61-25-25-1-47 8-65 24-15 14-23 33-24 53-2-2-5-5-6-8-3-8 5-25 9-32 11-22 32-37 55-44 28-8 58-4 82 13 3 2 6 4 8 6s3 4 5 4c-10-13-25-22-41-27-26-8-53-4-76 8-18 11-33 27-41 47-2 6-4 12-5 17h-1c-1-1-1-1-1-2 0-3 0-7 1-9 2-16 11-30 21-41 18-21 44-31 71-32zm-13-300h1l-35 36c-39 49-64 112-57 175 2 21 8 49 24 64 9 8 19 14 28 21-4 4-8 6-13 8-9 4-20 5-29 0-2-1-3-2-3-4-1 1 0 1-2 2-3-2-7-4-10-7-20-18-28-44-29-71-3-47 14-90 39-129l26-32h1l-13 17c-28 43-51 99-40 151 3 18 12 38 28 48 3 2 15 6 20 5-12-13-19-27-24-43-15-55-3-112 23-161 3-7 7-14 12-20 3-5 6-9 9-14l-1-1 45-45zm15 347h2c21-1 41 7 56 22 6 6 12 14 14 23 2 7 1 15 1 22 0 31-6 58-28 80-20 20-46 27-73 27-18 0-44-4-56-17 3 0 6 3 9 4 5 2 11 3 18 5 30 6 63 1 90-17l5-5c16-14 25-33 26-54 1-19-4-37-17-51-11-12-28-20-45-21-15-1-30 4-41 15-9 8-16 20-16 33 0 14 5 24 14 34l1 1c-4-1-8-5-11-8-9-7-14-17-15-28 0-15 5-30 15-41 14-16 31-23 51-24zm683-182c5-1 11-1 16 1 10 4 17 13 21 22 13 32-3 68-15 97l-17 42 14-88c2-15 6-33-4-45v-1c-4-4-7-5-11-5s-7 1-10 4c-3 4-5 9-6 13-5 19-1 40 0 59l6 57-25-78c-4-20-5-45 7-62 5-9 14-14 24-16zm-1 531l18 5c29 10 54 26 68 53 15 30 14 68 3 99-11 33-33 68-65 84 2-4 6-7 10-10 23-21 41-52 44-84 2-22-2-46-13-67-4-6-9-12-14-18 6-6 12-13 17-20l-1-1c-5 7-11 12-16 19l-1 1c-4-4-9-8-14-11-11-8-23-12-37-14l1-36zM625 206c28-3 59 7 81 24 26 19 45 48 50 80l-11 3-3-21c-7-25-26-49-49-62-27-16-57-19-87-11-20 7-39 18-52 36-15 21-18 47-13 72-20 0-39-4-57-11 8-17 18-33 30-47 18-22 40-42 67-53 14-5 29-8 44-10zm11 21l1-1c4 0 10-2 14 0 1 1 1 0 2 0v-1c2 1 3 1 5 1h1c5 2 10 4 14 8 10 8 17 23 18 36 0 12-4 24-13 33a48.41 48.41 0 0 1-36 16c-6 1-11 0-17-2l-1-1c-14-4-21-14-29-26 5 12 14 23 26 28 4 2 9 3 13 4v10c-15-3-27-10-35-22-7-11-10-25-7-37 1-4 2-10 6-13h1 0c1-4 6-7 9-8s6-1 8 0c2 2 4 4 5 6 2 7-2 16 5 21 3 2 9 3 13 2 6-1 12-7 15-12 4-7 5-15 3-22-1-7-7-13-13-16l-8-4z" class="B"></path><path d="M665 251c1 1 1 3 1 4 2 8 0 18-5 25-5 8-13 13-22 15-8 1-16-1-22-5-7-6-10-11-11-19l1-5c1 8 2 14 8 19 5 5 14 8 21 7 8-1 16-5 21-11 6-8 9-16 8-26v-4zm-4-19c4 0 8 4 10 7 7 9 11 21 10 33-2 11-8 21-17 28s-22 11-33 9c-10-1-19-7-25-15-1-3-2-5-3-8l3 4 1 2c4 6 14 11 21 13h1c3 0 5 1 7 0 11 0 22-3 29-11 8-8 12-19 12-30-1-13-7-24-16-32z"></path><path d="M479 1322l63 32c45 19 95 31 143 11 31-13 56-38 69-70 14-33 15-73 4-107-3-9-7-17-10-25l1 1c3 5 6 11 8 16 11 26 14 55 11 83-4 35-21 67-49 90-32 25-74 33-113 28-28-3-54-12-80-22-75-31-150-78-201-142l-22-29c3 0 7 5 9 7h3l1 1c2 2 3 4 6 5 5 2 9 8 14 12 3 3 7 6 9 10l1 1c1 2 3 3 3 5l10 8 2-3 21 14 51 31h0l-1 3c2 2 3 4 6 6h0l-1 1c1 1 2 3 3 3l2 1c2 1 4 3 5 5 1 1 1 2 3 3h1l2 2c2 0 3 2 5 2 1 1 3 3 5 4l-1 2c5 4 11 8 17 11z" class="B"></path><path fill="#141415" d="M361 1234l21 14-2 2h-2-1l1 1 3 2 3 3 2 2c2 0 2 2 4 3 1 0 2 2 4 3s4 3 6 4c5 4 10 8 16 11 1 0 2 1 3 2l2 2 21 12c1 1 3 2 5 3 1 1 1 2 3 3h1l2 2c2 0 3 2 5 2 1 1 3 3 5 4l-1 2c-6-3-12-8-18-12-28-17-55-36-80-57l-5-5 2-3z"></path><path d="M303 1188c3 0 7 5 9 7h3l1 1c2 2 3 4 6 5 5 2 9 8 14 12 3 3 7 6 9 10l1 1c1 2 3 3 3 5l10 8 5 5c-2-1-3-1-4-2l-1-1c-3-2-5-5-8-5 3 4 7 7 10 11v1l-1 1-7-7c-5-3-8-9-12-12-6-3-10-9-15-14l-1 3-22-29z" class="C"></path><path fill="#403f40" d="M312 1195h3l1 1c2 2 3 4 6 5 5 2 9 8 14 12 3 3 7 6 9 10l1 1c1 2 3 3 3 5-3-1-6-4-9-7l-13-13c-1 0-3-3-4-3-1-1-2 0-2 0l-9-11z"></path><defs><linearGradient id="C" gradientUnits="userSpaceOnUse" x1="402.33" y1="1247.122" x2="409.499" y2="1284.334"><stop offset="0" stop-color="#1d1c18"></stop><stop offset="1" stop-color="#35353b"></stop></linearGradient></defs><path fill="url(#C)" d="M382 1248l51 31h0l-1 3c2 2 3 4 6 6h0l-1 1c1 1 2 3 3 3l2 1c2 1 4 3 5 5-2-1-4-2-5-3l-21-12-2-2c-1-1-2-2-3-2-6-3-11-7-16-11-2-1-4-3-6-4s-3-3-4-3c-2-1-2-3-4-3l-2-2-3-3-3-2-1-1h1 2l2-2z"></path><path d="M289 544v1c0 12 3 24 6 35 8 28 19 56 40 77l5-4c3-1 7-1 10 0 5 2 10 7 12 12 2 4 3 9 1 13s-5 7-9 9c-4 1-8 0-11-2-8-4-13-12-18-19-18-27-31-56-38-87-18-83 5-167 50-237 50-78 137-147 229-167 53-11 104-5 149 25l2 2c2 1 3 2 4 3 1 2 0 1 2 2h1l1 1c0 3 2 5 4 7s3 3 4 5v1c-3-4-7-8-11-9-36-29-78-41-124-36-90 10-174 70-230 139-46 57-82 134-78 209-1 2-2 4-1 6v3h-1v-3h-1c0 3 0 6 1 9v1c0 2 0 2 1 3v1zm195 768c10 3 20 8 30 12 47 15 98 24 143-1 25-14 46-38 53-66 8-27 5-58-10-83-13-24-37-42-63-49-27-8-56-5-80 9l-10 7c16-18 42-26 65-27 30-2 59 8 82 29s38 51 39 82c1 32-10 63-32 87-24 26-59 39-94 39-43 2-84-14-122-33l-4-2-1-3-8-5h1l1 1c3 1 5 3 8 3h2zm630-309c16 0 36 4 49 13l-17-6c-22-6-46-3-66 8-16 10-28 24-32 42-4 16-3 32 5 46 7 10 19 19 32 21 12 3 25 0 35-6 12-8 16-19 19-32l26 4c-3 26-16 53-33 73-18 21-42 34-70 36-9 1-37 1-44-5l-1 1-12-4c-5-2-12-3-17-6 1-2 1-1 0-3v2c-2 1-1 1-3 0-27-15-55-29-87-29l9-3c4-1 8-3 12-3 8-1 16 1 24 4 18 5 33 13 49 21 4 1 12 3 15 6h0 1c4 0 10 3 15 4 8 2 17 3 26 3 4-3 6-8 7-13l-18-1 8-13c4-7 9-8 16-5 2 0 4 2 5 2 2 0 4-2 6-2s4-1 5 1c2 1 3 3 3 4 0 10-8 12-15 13-1 1-4 1-5 1 0 1-1 4-2 4-1 4-3 6-5 9l-1 1 22-3c23-6 43-21 55-41 9-14 15-35 11-51 0 0-1 7-2 8-1 8-5 16-10 22-9 10-19 16-33 17-15 2-29-3-40-12-12-10-19-26-20-41-2-22 4-44 19-61s36-24 59-26zm106-773h2c-1 6-25 29-30 34-4 3-9 6-13 10-3 2-5 5-8 8-8 7-15 8-21 18-2 5-9 19-8 24h2c1-9 10-18 16-24 10-7 19-6 30-5 2 1 3 1 5 3 0 3 0 5-2 7-9 14-33 15-48 18l16 7c10 4 25 15 28 25 2 7-4 9-7 13v5c-1 3-1 6-3 9l-3 3c-4 3-9 3-13 3-7 0-15 1-23-1-5-1-9-3-14-3-4-1-10 1-14 0-6-2-3-17-6-22v-1c-2-4 2-14 4-18 5-11 15-14 25-18l-3-15c-1-6-3-12-5-18-2-5-5-12-4-17 1-3 2-4 5-5s5 0 8 1l1 1c0-9 1-17 9-22 1-1 4-2 5-3 2-3 3-8 6-12 2-2 3-3 5-3s2 1 3 2c2 3 4 8 4 11 0 1-1 3-1 4 1 0 1 0 2-1 3-2 5-2 10-2 4 3 6 6 6 11 0 2 0 3 1 5 6-1 10-8 14-12l19-20z" class="B"></path><path d="M1130 278h2c0 1 1 1 2 2l3 6c3 9 3 17 1 26-2-4-2-9-4-13-1-5-6-15-4-21zm47-19l2 1c-4 10-12 19-21 25h0-1c2-5 3-10 5-15 3-5 10-9 15-11zm-28-1c1 1 3 4 4 6 2 9-4 22-8 31h-1c0-5-3-10-3-15 1-8 2-17 8-22z"></path><path d="M958 245c19-1 37 1 54 10 15 9 32 24 36 41 3 11 2 21-4 30-4 8-12 14-21 16-12 3-24-1-34-8 1 0 5 1 6 0 10 0 20-4 28-12 3-3 8-10 8-15l-1 1c-5 10-11 18-22 23l-5 1c-9 2-19-1-27-5-6-5-15-13-16-21-1-5 0-11 3-15 2-4 7-7 12-7h1v-1-1c-5-5-13-7-19-7-10-1-20 3-28 10-8 9-11 18-11 30l-24-5c0-13 4-26 12-36 13-17 31-26 52-29z" class="B"></path><path d="M957 257h1c14-1 31 1 43 11 7 6 12 14 13 24 0 8-1 17-7 23-3 4-7 5-12 5-8 0-13-5-18-10 2-2 5-3 7-5 5-4 6-8 7-14-1-8-5-13-11-19-8-7-21-9-31-7-16 1-28 8-38 20h0l4-6c10-14 26-20 42-22z"></path><path d="M756 1165h1c2 2 4 4 5 6 4 5 7 10 10 15 22 42 28 90 18 135l-5 21-7 20c-1 3-4 7-3 10 8-20 15-39 19-60 7-45 1-90-22-130-4-6-9-12-13-17l23 1c4 2 7 6 10 9 9 10 17 23 23 35 27 53 29 121 11 177l-19 1c-2 0-5 1-7 0l2-10 1-4c14-60 15-129-19-183-3-4-13-20-18-21 16 17 26 39 32 62 11 44 7 91-8 133-2 8-5 16-9 23-12 0-23-2-35-3 20-23 34-50 40-80 8-41 3-85-18-122-3-7-8-12-12-18zm97 10c23 7 46 17 66 30 31 21 58 50 65 88 3 16 4 34 1 51-4 2-12 7-17 8 4-42 1-82-27-116-25-30-56-46-93-58h0c26 13 55 26 74 49 7 8 12 19 16 30s6 22 6 34c0 4 0 8-1 11l-1 1c2 2 0 6 0 9-6 23-22 43-42 55-9 5-20 9-31 11l4-34c7 1 16 3 22-2 10-7 13-24 14-35 4-35-9-70-31-97-12-14-26-24-41-32l-1-1h0v-1c4 0 6 0 10 1l1 1 1-1-1-1c2-1 4-1 6-1zm274 28c18-7 34-22 46-37 18-24 25-56 20-86-3-18-13-34-28-45-17-12-37-17-57-14-15 3-30 10-38 23-7 10-11 23-9 35 1 8 6 16 13 20 5 4 12 5 17 3 4 0 9-3 10-6 1-1 1-1 1-2-1-2-3-4-5-5-3-5-4-11-1-16 2-4 5-7 9-9 4-1 10-1 14 1 6 4 10 9 12 15 2 7 1 16-3 23-4 8-12 15-22 17-12 4-24 2-34-4-11-6-18-16-21-28-4-15-1-32 8-45 9-16 28-27 45-31 21-5 45-1 63 11 20 12 34 33 39 55 6 30-4 63-21 88-19 28-53 49-87 56-29 5-58-1-85-12-19-9-37-19-56-27-26-10-53-17-81-16 2 2 23 3 27 4 5 1 9 2 13 3 26 8 49 18 72 31 16 10 31 20 49 28 8 3 17 5 26 7 8 2 17 3 25 6 6 3 11 8 15 14 1 1 4 3 4 5v1l-1 1c-6-6-10-12-17-16-11-7-25-7-37-10s-21-8-31-14c10 10 19 21 27 32 2 1 5 5 6 7l-17 11c-7-13-14-25-23-36-25-29-62-50-99-60h-1v1c45 17 88 49 108 94 5 12 9 27 10 41-3 1-8 5-11 5-1-9-1-19-3-28-7-28-22-51-43-70-28-25-65-44-102-51-10-2-21-2-31-4 9 0 18-1 27-2 7-1 14-3 21-3 11 0 22 0 33 2 27 6 51 19 77 28l25 8c4 1 11 1 14 4v1c-2 2-3 2-5 2 8 7 37 7 48 6 8-1 16-2 24-5 2-1 8-5 11-5 2-1 5-2 7-3h1c-1 0-1 1-1 2h1l2-1zm-844-50c-16-23-30-47-40-74h1c24 44 59 82 109 97 23 7 47 10 70 8 4 0 10 0 14-2 3-1 4-4 5-7 3-10-3-15 8-21 5-4 12-5 19-4 5 2 8 6 10 10 3 5 3 10 3 15 1 11 1 23-1 34-12-2-29-5-40 3-2 2-4 5-5 8 0 2 1 5 3 7 3 3 8 5 13 5 14 0 25-9 37 4 6 6 8 15 8 23 0 6-2 11-7 16s-13 5-21 4c-10-1-21-6-31-10-17-8-33-18-49-27-12-8-24-15-35-23l-4 1-1 3h-1l-2 1-1-1c-2-4-6-7-9-10-5-4-9-10-14-12-3-1-4-3-6-5l-1-1h-3c-2-2-6-7-9-7v-1-2c2-2-1-2-1-4 1 1 1 1 3 1l1 1-15-18c-3-4-6-7-8-12z" class="B"></path><defs><linearGradient id="D" gradientUnits="userSpaceOnUse" x1="340.315" y1="1219.009" x2="335.66" y2="1199.695"><stop offset="0" stop-color="#16171a"></stop><stop offset="1" stop-color="#4f4c4b"></stop></linearGradient></defs><path fill="url(#D)" d="M283 1153c9 9 16 18 25 27 13 14 30 28 46 39l-4 1-1 3h-1l-2 1-1-1c-2-4-6-7-9-10-5-4-9-10-14-12-3-1-4-3-6-5l-1-1h-3c-2-2-6-7-9-7v-1-2c2-2-1-2-1-4 1 1 1 1 3 1l1 1-15-18c-3-4-6-7-8-12z"></path><path fill="#272728" d="M303 1187v-2c2-2-1-2-1-4 1 1 1 1 3 1l1 1 21 19c2 2 5 5 8 7 1 1 1 2 2 3l-1 1c-5-4-9-10-14-12-3-1-4-3-6-5l-1-1h-3c-2-2-6-7-9-7v-1z"></path><path d="M967 193c36-1 70 8 100 28 25 17 48 45 59 73 3 10 5 20 7 30-6 1-11 3-17 5l-1-7c-3-37-24-67-52-90l-5 9 10 8c20 21 33 51 32 81-1 22-10 47-26 62-7 7-16 12-26 12-9-1-18-8-23-15-6-7-10-12-10-22 1-2 2-4 4-5 4-3 9-2 13-1l1 1c3 1 5 2 7 4 4 4 5 8 5 13 0 8-4 11-10 17 8 0 15 1 23-3 11-5 20-17 24-29 8-23 4-52-6-73-13-26-36-47-63-56-29-10-64-10-92 4-27 13-43 35-52 63l-32-4v-1c0-2 1-6 1-8 4-18 12-35 24-48 27-30 65-46 105-48zm-263-3c-9-5-18-11-28-15-61-24-133-8-190 21-93 47-171 135-203 234-24 72-22 161 13 229 18 35 47 70 86 83 22 7 49 9 71-2 13-7 25-19 29-33 3-10 4-21-1-30-4-7-11-13-18-15s-14-2-20 2c-5 2-10 7-11 13-1 2-1 3 0 5 4 4 9 2 13 4 3 2 6 9 8 12-6 5-12 10-20 9-7 0-13-3-17-8-7-8-10-18-9-29 1-12 7-23 17-31 10-9 24-13 38-11 16 1 30 8 40 20 11 15 15 33 13 51-2 19-11 35-26 47-24 19-59 23-88 19a126.62 126.62 0 0 1-28-6l-1 1c-48-22-80-66-98-115-33-84-23-178 13-259 31-68 85-128 146-170 25-18 53-34 82-45 27-10 55-16 84-17 10-1 20-1 29 1-2-4-6-9-6-14 2-2 4-3 7-3s6 0 9 3 5 8 7 13c0 1 1 4 2 4 0 1 4 2 6 2 6 2 12 3 18 6 3-4 6-7 10-9 3 0 6 3 8 5 15 10 30 22 40 36l1 1-1 1 1 2c2 1 3 3 4 4v1c-1-1-3-4-5-5h-2c-2-1-3-5-5-6s-2-1-3-2c-3-2 0 1-2-1-3-3-6-5-9-7v1 2c3 3 10 7 13 10l6 6c3 3 6 7 8 10-2-1-3-3-5-4-3-4-7-9-11-11-3-2-5-5-8-6-3-2-3-3-7-4zM263 423c1 1-1 4-2 5-24 60-27 130-12 193 16 63 54 125 110 159 38 23 88 36 131 25 3 2 4 6 5 9 6 13 8 27 9 41-12 3-25 4-38 4l-28-2-6 28c-18-4-37-10-54-18-62-29-108-90-131-154-9-27-17-56-20-85-8-70 6-142 36-205zm269 739l1-1c12-19 30-30 51-35 26-6 54 0 76 15 24 15 41 40 47 68 5 26 0 53-15 76-18 26-46 43-77 48-22 5-47 4-69-2 9-1 19 1 28 1 34-1 70-12 93-38 16-19 25-45 23-70s-13-49-32-65c-20-17-43-26-69-23-13 1-26 5-37 12h1 1c18-11 44-12 63-6 24 6 45 23 57 45 11 21 14 46 7 69-7 25-25 46-48 58-20 11-48 17-71 14 34-3 66-14 88-42 15-18 22-41 19-64-2-21-13-41-30-55-15-12-36-19-56-16-1 0-4 0-6 1h1c20-1 43 4 58 18 17 14 27 33 29 55 1 23-7 44-22 61-20 23-51 36-80 37-49 3-90-21-130-44h0l-51-31-21-14-2 3-10-8c0-2-2-3-3-5l2-1h1l15 11c24 16 49 29 75 42 42 20 89 42 137 33 23-5 44-16 57-36 10-15 13-34 9-51-3-15-11-29-24-37-10-5-22-8-32-5-9 2-17 8-21 16-3 6-4 13-2 19s6 10 11 12h2c1-1 2-3 3-4 3-4 5-7 10-9 4-2 10-1 14 1 5 2 9 7 11 12 2 7 1 14-2 20-5 10-15 16-25 19-13 4-29 2-41-4-12-7-22-18-26-31v-1c-4-15-2-27 2-41 0-8 6-21 10-27z" class="B"></path><path d="M348 1223l13 11-2 3-10-8c0-2-2-3-3-5l2-1z"></path><path d="M532 1162c1 1 1 2 2 2l3-3 1 1c-2 3-4 5-6 8-1 1-1 2-2 4 1 1 2 1 3 2-3 3-6 6-9 10 0 1-1 2-2 3 0-8 6-21 10-27z" class="C"></path><path d="M618 187c26-1 52 3 75 16 40 23 63 61 76 104l-6 1c-2-5-3-11-4-17-7-18-17-36-30-50-26-28-59-43-97-44-45-2-89 18-121 48-37 34-65 87-66 138-1 28 4 57 24 78 11 12 26 20 43 20 13 0 27-4 37-14 8-8 12-17 12-29 0-10-3-20-10-27-6-5-12-8-20-8-7 0-14 3-18 8-3 2-4 5-3 8 1 12 12 3 17 8 2 2 3 5 3 8 0 4-1 8-4 11-4 4-9 5-14 5-6 0-12-4-16-8-6-6-8-15-7-23 1-11 6-21 15-28 10-9 23-12 36-11 15 1 27 9 36 20l4 6c13 22 7 49-5 70-5 9-12 16-15 25-6 14-9 30-13 45l-14 2c-10 0-20 1-30-1-29-3-55-16-77-36-26-24-38-60-40-96l28-2c2 13 3 26 8 39 9 26 27 48 53 60 22 10 49 13 72 4 6-3 7-6 10-11-10 5-20 8-32 9-6 1-14 1-21 0-15-2-29-7-41-16-23-16-36-41-41-68-2-9-2-18-4-27-10-3-21-3-31-4 1-10 4-19 7-28 1-3 2-7 4-10 1-1 1 0 1-2 1-5 5-11 8-16 11-23 26-45 43-64 27-32 61-61 100-78 22-9 45-14 68-15z" class="B"></path><path d="M423 369c2-1 2-1 4 0v1c-1 0-2 0-2 1-2 1-3 4-3 6-2 8-4 14-5 21 1 2 1 1 0 2 0-9 1-18 5-26 0-2 1-3 1-5z" class="C"></path><path d="M232 744l-7-39-5-23c0-3 0-7-1-11-1-5-2-10-2-15 2 2 5 25 6 29 2 14 6 27 10 40 1 2 2 3 2 5 2 5 6 12 7 18s2 11 2 17c0 4-1 7-1 11 2-3 2-4 2-8 1 2 1 5 2 6s1 2 2 4v3l5 19 1 1v3l1 3c1 2 1 4 2 7h0c1-2 1-3 0-4l-1-5v-2-1l-1-1c-1-1 0-2 0-3l-1-2c0-1 0-3 1-4 2 4 3 10 4 15l6 26c7 35 12 71 22 106 5 17 11 35 20 51 13 22 32 42 58 48 21 6 44 3 64-9 12-7 24-21 27-35 3-10 3-21-1-31-3-10-11-19-21-23-7-3-17-4-25-1-4 2-10 5-12 11-1 4 0 8 1 11 2 2 3 3 5 3 2-1 3-2 5-4 1-2 3-3 4-4 3-2 5-2 7-1 3 1 5 3 6 5 1 3 1 8 0 11a19.81 19.81 0 0 1-11 11c-5 2-12 2-17 0-6-3-10-9-12-15-2-7-2-16 2-22 4-8 13-13 21-15 13-3 25-1 36 6 10 6 18 18 20 30v1c1 6 2 11 1 16-1 18-8 32-21 44v1c6-5 11-9 15-16 9-14 12-33 8-49-3-12-9-22-18-29-11-9-25-12-38-10-12 2-22 8-29 18-5 8-9 19-8 28 2 8 7 15 13 18 7 5 16 5 24 3s13-7 17-13l3-5c-1 5-2 9-5 14-6 9-16 15-26 17-12 2-23 0-32-6-10-7-17-18-19-29-2-14 0-28 8-39 9-12 22-20 37-23 19-3 39 1 54 12 16 11 23 29 26 47 1 11 0 24-3 35-4 15-11 27-23 37-2 2-5 5-8 6-1 1-1 0-2 1-6 6-17 9-26 11-26 7-54 2-77-13-54-33-64-107-72-164l-10-61c-1-8-2-17-4-25-1 2 0 5 0 8l3 24 5 56c2 23 3 46 7 69 4 18 9 37 18 54 14 30 38 56 70 68 29 10 61 9 88-4 25-12 45-34 53-61 4-11 6-21 8-33 8 3 18 3 27 3 5 1 11 2 16 1v-1l-18-1 1-14 24 3c3 23 3 44-3 66-12 40-38 76-74 96-33 19-74 25-111 17l-20-6c-2 0-3-1-5-2-7-2-13-5-19-8-18-10-34-22-47-36-24-25-39-57-45-90-5-28-4-57-3-85-11-4-23-8-32-15-3-3-1-11 0-14 7-36 26-67 35-102 3-13 3-26 2-40l2-2z" class="B"></path><path d="M232 744l-7-39-5-23c0-3 0-7-1-11-1-5-2-10-2-15 2 2 5 25 6 29 2 14 6 27 10 40 1 2 2 3 2 5 2 5 6 12 7 18s2 11 2 17c0 4-1 7-1 11l-2 10-2-1c-3 18-6 36-10 54-3 14-5 29-10 42-3-3-9-8-9-12-1-3 0-7 1-10l7-23c4-15 9-30 12-44 3-15 4-31 2-46v-2z"></path><path d="M233 725c1 2 2 3 2 5 2 5 6 12 7 18s2 11 2 17c0 4-1 7-1 11l-2 10-2-1c1-15 1-27-2-41-2-6-4-12-4-19z" class="C"></path></svg>