<svg xmlns="http://www.w3.org/2000/svg" xmlns:v="https://vecta.io/nano" viewBox="140 31 1225 1448"><!--oldViewBox="0 0 1532 1531"--><style>.B{fill:#fcfbfb}.C{fill:#fff}.D{fill:#f4f3f4}.E{fill:#dad8d9}</style><path d="M792 98h0c26-1 53 0 79 1 34 3 67 7 100 15 76 18 149 55 208 106 57 48 103 113 128 183 13 40 21 81 24 122l-242 3c-12-68-28-142-72-197-29-38-70-61-117-66-58-7-114 10-159 46-43 34-72 80-93 130-29 67-45 140-53 213-8 75-9 152 0 226 8 69 23 136 52 199 14 30 30 58 50 83 41 52 98 87 165 94 55 6 116-8 160-44 51-42 72-107 84-170 5-25 9-51 12-76l45-1 183 1c-6 108-43 219-116 302-92 104-226 159-364 168-175 11-357-42-490-159-137-120-216-292-227-474-11-175 47-354 163-485 87-99 210-167 337-199 47-11 94-18 143-21z"></path><path fill="#111213" d="M990 1293l3 7h-4l-2-2v-2-1c1-1 2-2 3-2z"></path><path d="M1288 1083l2-1c2 2 2 2 3 4 0 3 0 3-3 4h-2c-1-1-1-1-2-3 0-2 0-3 2-4zm-286 214l4 7c-2 1-6 2-8 1-1-1 0-3-1-4 1-2 3-3 5-4z" class="E"></path><path d="M1282 1070h2c2 1 3 2 4 4-1 3-2 3-4 5h-2c-1 0-1-1-2-2s-1-3-1-5l3-2z" class="D"></path><path d="M1295 1065l3-1c2 1 2 2 3 4 0 3-1 3-2 5h-4l-2-3c0-3 0-3 2-5zm-952 112l1 1c-4 6-10 10-8 19v2l-3 2c0-3-1-7 0-10 1-6 6-10 10-14z" class="B"></path><path d="M1248 338h3c3 2 3 2 4 5-1 2-2 2-4 3-1 0-2 0-3-1-2-1-3-2-4-4 2-2 2-2 4-3z" class="E"></path><path d="M1123 1151l2 1c-2 9 0 17 3 25l-1 2c-1-1-2-3-3-4-3-7-3-17-1-24z" class="C"></path><path d="M1243 305c2-1 3-1 4 0 2 2 3 5 4 7 0 4 0 7-3 10-4 7-13 9-22 11l-1-1c6-3 12-3 18-8 3-2 5-5 5-9s-4-6-6-8l1-2zM902 1325h1c2 0 3 1 5 2 0 2 1 3 0 5 0 2-2 3-4 5h-1c-3 0-4-2-6-3v-5c1-2 2-3 5-4z" class="B"></path><path d="M988 1287c2 0 3 0 4-1 2-1 1 0 3-1h1l6 12c-2 1-4 2-5 4l-4-1-3-7c-1-2-1-4-2-6z" class="D"></path><path d="M948 1317h1l-6 6c-5 4-12 7-19 6-6 0-10-3-13-7 0-3 0-3 1-5l2 1 3 4c2 3 5 4 7 4 10 1 17-3 24-9z" class="B"></path><path d="M245 663h0c3-1 5 1 7 2 1 2 1 3 0 5 0 3-1 4-4 6h0c-2 0-4 0-6-2s-2-4-2-6c1-3 2-4 5-5z" class="C"></path><path d="M1303 1025l1 1v7l3-3v1c-2 5-5 9-10 12-5 2-9 3-14 1-5-3-11-8-14-13 6 4 11 9 18 10 4 0 9-1 12-3 4-4 4-8 4-13z" class="D"></path><path d="M830 1302c1 0 2-1 3-1 2 0 3 1 4 3 1 1 2 3 2 5-1 3-2 4-4 5-1 1-1 1-2 1-2 0-5-1-6-3-2-1-1-3-1-6 1-2 2-3 4-4zm199-3c1-1 3-1 5 0 1 0 2 1 2 2 1 2 1 4 1 6-2 2-3 3-6 5-2 0-4-1-5-2-3-2-3-4-3-6 1-3 3-4 6-5zM277 673c1 0 3 0 4 1 3 1 5 3 6 6 1 5 1 14-2 19 1-6 2-14-1-19-2-2-3-3-5-3-4 0-6 1-9 3l-1 1-3 6c-3 6 0 14 3 20-2-2-3-4-4-6-2-5-3-13-1-17 3-7 7-9 13-11z" class="B"></path><path d="M316 392h1c2 0 4 1 5 3s1 5 0 7c-1 3-3 3-5 4h-4c-2-1-3-2-4-5 0-2 0-4 1-6s4-3 6-3z" class="C"></path><path d="M520 1323l1-1c3 0 4 0 6 2s3 4 3 7c-1 2-2 4-4 5-1 0-2 1-2 1-3 0-5-1-6-3-2-2-2-4-2-6 1-2 2-4 4-5z" class="B"></path><path d="M429 754c2-1 3-1 4 0s2 1 3 3c1 3 1 8 1 11 1 10 0 21-3 30-1-3 0-6 0-9 1-6 1-13 0-19 0-2 0-4-1-5-1-2-4-3-5-4l-2-2c1-3 1-3 3-5z" class="D"></path><path d="M1090 1196c-1-2-1-5-2-7 0-4 1-7 4-9 7-7 18-5 26-2 3 1 6 3 9 3v-2l1-2 1 1c1 3 3 5 6 7l3 3c-11-4-31-14-42-8-2 1-4 3-4 6-1 2 0 5 1 8l-3 2z" class="B"></path><path d="M345 365c2-1 3-1 5-1 2 2 4 3 5 5v6c-1 2-3 3-5 4l-4 1c-2-1-3-2-5-3-1-3-1-5-1-8 2-2 3-3 5-4z" class="C"></path><path d="M1265 375c3 1 5 2 7 3 7 5 13 12 15 20s0 17-5 24l-1 2c3-12 6-21-1-33-4-6-10-11-17-13l-5-1 1-1 6-1z" class="B"></path><path d="M309 366h2c2 0 5 2 6 4s1 5 0 7c-1 3-3 4-5 5h-3c-2 0-4-2-5-3-2-3-1-6-1-8 2-3 3-4 6-5zm-86 242c1-1 2-1 3-1 3 0 4 2 6 4 1 2 1 4 0 7 0 3-3 4-5 5h-3c-3 0-5-2-6-4s-1-5 0-7 3-3 5-4z" class="C"></path><path d="M889 1297c1-1 3-1 4-1 2 0 4 2 6 4 1 1 1 3 1 5-1 3-2 5-5 7-3 0-5 0-7-1-3-3-4-5-4-10 2-2 3-3 5-4z" class="B"></path><path d="M1123 1151c2-3 3-5 6-6 2-1 6 2 7 0v-2c1-4 2-6 4-8 3-2 7-3 11-3s8 2 11 6c2 2 4 6 4 9v1h-1c-2-5-5-10-10-12-3-2-8-2-11 0-2 1-4 3-4 5-2 8 4 19 8 25 3 3 5 5 8 7v1c-4-2-7-4-9-7-4-5-9-21-18-19-2 1-3 3-4 4l-2-1z" class="D"></path><path d="M233 639h3c3-1 5 0 7 2 1 2 3 5 2 8 0 3-3 5-5 7h-5c-2 0-5-1-6-3-2-2-2-5-1-8 0-3 2-4 5-6z" class="C"></path><path d="M1011 1299v4l-2 1c-2-2-4-4-5-7-1-1-6-10-6-11s8-5 9-7v-11l3 2h2c1 1 1 7 0 9v2l-1 2v2l-1 3v1c0 2 0 2 1 4s1 4 0 6z" class="D"></path><path d="M883 1270l1 1h1c-10 3-18 8-24 16-4 6-5 14-3 21 0 3 3 6 6 8 3 1 6 0 9-1l1-1c1 2 0 2-1 4-1 1-2 1-3 2-2 1-6 0-9-1-4-2-7-7-8-11-1-8 0-15 4-22 7-9 15-14 26-16z" class="B"></path><path d="M304 646c2-1 4 0 6 0 2 1 5 3 6 5s1 5 0 8c-1 2-4 4-7 5-2 0-4 0-6-1s-4-3-5-5-1-6 1-8c1-3 3-3 5-4z" class="C"></path><path d="M988 1287v-2l2-1c-5-7-14-11-15-20 1-2 2-3 3-3 2-2 4-4 7-3l2 3v3l2 6c1 2 2 4 4 6 1 3 3 6 4 7l-1 2h-1c-2 1-1 0-3 1-1 1-2 1-4 1z" class="B"></path><path d="M1093 1194v1c3 5 7 9 13 10 6 2 14 0 20 0h-1c-6 2-12 4-19 3-11-2-28-18-38-3-1 2-1 6 0 9s4 6 8 7c6 3 14 2 20 2 2 0 5-1 7-1-9 3-21 5-30 0-4-2-7-5-8-9-1-3-1-7 1-10 3-4 7-6 11-7h1c4-1 8 1 12 2v-2l3-2zm186-705c2-1 4-1 6-1s5 2 6 4c2 2 2 5 2 8-1 3-3 4-6 6-3 1-5 0-8 0-1-1-3-2-4-3-1-3-2-6-1-9s3-4 5-5zm-458 790c2 0 4 0 6 2 2 1 4 3 5 6 0 2-1 5-2 7-2 3-3 4-6 4-2 0-4 1-5 0-3-1-5-3-6-5-1-3-1-5 0-7 2-4 4-5 8-7z" class="C"></path><path d="M1198 260h6c4 1 8 4 11 7 4 5 5 11 4 18-1 6-5 12-10 15-7 5-16 6-25 5 1-1 13-3 15-3 5-2 10-5 13-10 3-4 5-10 3-16 0-4-3-8-6-10-4-3-8-3-12-2-6 2-8 8-11 12 0-2 1-5 2-7 2-5 5-7 10-9zM500 1288c3 3 7 12 7 16 1 8-1 16-6 22-3 4-9 7-14 7-5 1-9-1-12-4-6-5-6-13-6-21 1-3 2-5 3-8h1c-2 6-3 11-1 17 1 4 4 9 8 11 3 1 8 1 11-1 5-1 9-7 11-11 4-9 1-19-2-28z" class="B"></path><path d="M1258 377h-1l2 3c2 3 3 5 4 7 3 9 2 17-2 25 1-9 3-17-1-26-2-5-6-8-11-10l-2 1c-3 3-6 4-10 5-8 2-16-2-22-6l4 1c2 1 5 2 7 2 6 1 12 1 17-2 3-2 4-6 4-9-1-3-2-7-5-9-9-6-14-1-23 0-6 1-10 0-14-4h2c3 1 7 2 10 2 5-1 9-3 14-4 5 0 10 2 13 5s6 8 6 12c0 2 0 2 1 3 4 2 9 1 14 2l-6 1-1 1z" class="C"></path><path d="M799 1261h1c5 5 10 9 10 16 0 5-2 11-6 14-3 4-8 5-12 5-8 0-16-7-22-12 7 4 14 8 22 8 5-1 8-4 11-7 1-2 2-4 2-6 1-4-1-8-3-11h-1c-1 3-2 6-5 9-4 4-9 5-15 5-8 0-12-4-18-9 5 2 9 5 14 6 6 1 12 0 16-3 5-4 6-8 6-14v-1zm504-236v-1c-3-7-7-11-14-13-8-3-15-3-23-3-21 0-39 0-58-10 12 2 23 5 35 6 20 2 48-6 61 13 3 4 4 8 3 13h0l-3 3v-7l-1-1z" class="B"></path><path d="M281 390c2 0 4 0 6 1s5 4 5 7c1 3 1 6-1 9-2 4-5 4-8 5h-1c-2 0-3 0-5-1s-4-3-5-5c-1-3-1-7 0-10 2-4 5-5 9-6z" class="C"></path><path d="M441 1246v1c2 3 5 7 6 11 2 8 1 16-3 24-3 6-9 11-16 13-6 2-13 1-18-3-5-3-8-7-9-13-1-5 0-9 3-13 3-3 6-4 9-6a30.44 30.44 0 0 0-8 8c-1 3-2 8 0 11 1 4 4 8 8 10s11 2 16 0c6-2 12-9 14-15 4-9 1-18-2-28z" class="B"></path><path d="M1291 449c2 0 5-1 7 0 3 1 6 3 7 6s1 7 0 10-4 5-7 6c-2 0-4 1-6 0-3-1-6-3-8-5-1-3-1-7 0-10 1-4 4-5 7-7z" class="C"></path><path d="M401 761c3-1 7-1 10 0 7 2 13 8 16 14 6 11 6 27 2 39l-1-1c3-10 3-18 0-29-2-8-5-14-13-19-4-2-10-3-15-1-6 1-10 6-13 11-5 11-4 24-6 35 0 6-2 14-7 18-1 2-4 3-6 3-3-1-4-2-5-4 0-3 0-3 2-5 1 0 2 0 3 1l1 2 1 1c8-5 8-14 9-22 1-10 0-21 5-30 4-7 9-11 17-13z" class="D"></path><path d="M326 644l1 3c3 4 2 11 1 16-4 10-11 17-20 21h-1v4c-1 6-1 11-4 16l1-2c1-13-1-22-10-31-4-5-9-9-15-9s-10 1-14 5c-6 5-10 16-10 24 0 10 6 17 13 23-5-2-9-4-13-6-7-5-13-12-17-19v-1c5 7 12 15 20 19 0-1-2-3-2-5-3-5-4-10-3-16 1-9 6-19 14-24 4-3 10-4 15-3 10 2 17 13 23 22 7-3 12-6 17-12 6-8 5-15 4-25z" class="B"></path><path d="M226 959l2 2c-5 0-16-1-20 2-1 2-2 3-2 5 0 5 3 7 6 10l1 1c-4 5-4 10-4 16 1 5 4 12 8 16 2 1 3 1 5 1 5-1 9-10 12-14-4-3-7-4-11-6s-8-5-9-10h1c1 2 3 4 5 6 3 2 7 4 11 6 3 2 6 5 9 6 7-2 11-4 16-7h1l-5 4c-4 3-9 5-15 4h0c-4 2-6 6-7 10-1 2-1 4 0 6 2 2 3 4 6 4 20 2 27-25 37-38 6-8 15-14 23-20l1 1c-7 5-16 12-22 19-4 6-8 13-12 19-4 8-7 15-15 20-3 2-9 3-13 2-3-1-8-5-9-8 0-1 0-1-1-2h-1c-1 1-3 1-5 0-5-2-8-8-10-13-3-7-3-14 0-20 1-2-4-8-5-12-1-2 0-4 1-6 2-3 5-4 9-4h12z" class="D"></path><path d="M421 302c3 1 5 1 7 2 5 2 7 5 9 10 0 3 0 6-1 9-3 4-6 5-11 7h0c-2-1-5-1-8-2-3-2-6-5-7-9s-1-8 1-11c3-4 6-5 10-6z" class="C"></path><path d="M938 1258c7-1 15 0 22 3 9 4 15 13 19 22-5-5-9-10-14-14-9-7-22-9-32-7-8 1-16 4-20 10-3 5-3 10-2 16v3c3 5 7 9 12 11 3 1 8 2 12 0 2-1 3-3 6-3 0 1 0 2-1 4-2 3-6 5-9 5-5 1-11-1-15-4-6-4-10-10-11-18-1-5 0-11 4-16 7-9 18-11 29-12zM226 959l-1-1c-3-3-6-7-6-12 0-3 2-6 4-7 7-6 22-4 30-3-3-5-7-9-8-15-1-4-2-11 1-15 1-2 4-3 6-4 9-1 18 5 24 10l-1 1c-7-4-15-10-23-8-2 1-4 2-4 4-2 4-1 11 1 15 4 10 11 16 21 20 4 2 7 2 11 3h2c15 2 34 0 50-2v1c-10 2-20 3-30 3-15 1-29 1-43-7-2-1-5-3-7-4-6-2-17-1-23 1-3 0-5 1-7 4-1 2-1 4 0 6 1 4 4 7 8 9 23 12 46 4 70-1-13 5-30 10-44 10-9 0-20-3-29-6l-2-2zm782 300v-2h-1l-2-3 1-1c2 1 5 4 5 5l3 8 2-1 2-2 6-2 1 1c2 7 2 14 2 22 8-7 15-13 21-22v2c-4 9-11 14-19 19-1 1-3 2-4 3v3c-2 6-3 10-9 13l-2 1c-2-1-2-2-3-4 1-2 1-4 0-6s-1-2-1-4v-1l1-3v-2l1-2v-2c1-2 1-8 0-9h-2l-3-2 1-1-3-2h0l-1-3 4-3z" class="B"></path><path d="M1008 1259v-2h-1l-2-3 1-1c2 1 5 4 5 5l3 8v1 3c1 1 1 5 1 7l-1 1c0 2 0 3-1 5 0 1 0 1-1 3v2l2-1h3v1l-4 2h0c-1 1-1 2-2 3-1-2-1-2-1-4v-1l1-3v-2l1-2v-2c1-2 1-8 0-9h-2l-3-2 1-1-3-2h0l-1-3 4-3z" class="E"></path><path d="M837 202h0c0 6-2 12-4 18-3 7-7 13-15 16-6 2-13 1-19-1l-1-1c0 5-1 10-2 15-3 9-9 17-17 22-6 3-14 4-20 2s-11-6-13-11c-3-7-3-14 0-21 1-3 3-5 5-8 2-2 3-3 5-4v1c-4 5-8 11-8 17s1 12 5 16c3 4 8 6 12 6 8 0 14-3 19-8 9-9 11-20 11-32l7 3c5 2 12 2 17-1 12-6 14-18 18-29z" class="B"></path><path d="M580 1302h1c7 3 14 15 17 22 3 9 5 21 1 30-5 10-13 15-23 18 3 4 6 7 10 9 12 7 22 6 35 2l-3 3c-8 4-18 4-26 1-8-2-14-6-18-14l-1-1h-1c-10 1-24-1-31-8-3-3-4-7-4-11s1-8 3-12c2-2 3-5 6-7 7-7 18-9 28-9 4 1 8 2 10 5s2 4 1 7c-1-4-3-6-7-8-7-2-16 0-22 3-7 3-13 9-15 16-1 4-1 9 1 13 3 4 8 6 13 7 10 3 21 3 30-3 6-4 11-10 12-18 2-10-1-22-6-31-3-5-7-10-11-14zM802 158c-3 4-9 7-13 10-8 5-14 11-21 17-35 31-61 73-80 115h-1c5-12 10-23 16-34 4-7 10-15 13-22-4 1-8 2-13 1-4-2-5-4-7-8v-1c-4 9-9 18-12 27-4 12-7 24-10 37-2 8-5 23-12 29-4 3-8 4-12 3-7-1-13-6-17-11l1-1c4 4 8 7 13 9 4 1 8 1 11-1s5-5 6-9c6-11 8-25 11-37 2-7 4-14 7-21 2-5 4-10 6-14 4-6 7-11 9-17v-2c1 3 1 6 3 8 1 3 2 5 5 5 3 1 10 1 12-1 3-1 5-6 7-8l14-18c18-22 39-42 64-56z" class="D"></path><path d="M989 1300l1 5v1l1 1c-4 2-7 9-10 12-4-1-8 0-13 0 1-4 1-8 0-12-3-2-7-2-10-4-2-1-2-1-3-3v-1l7-1c-5-4-6-10-8-16 8 0 15-1 22 1 2 2 4 4 5 7-2 4-4 8-7 11l-1 1 8 1c0-2 0-2-1-3l-1-1 1-4c1-1 2-1 3-1l4 4 2 2z" class="B"></path><path d="M276 912v-1c3-5-2-11 6-15 5-2 13-1 18 1 4 2 9 5 13 7 0-9 0-17 7-24 4-4 10-6 16-6 7 0 14 4 18 9 2 1 2 2 2 4-1-1-1-1-3-2-5-5-14-8-21-7-5 0-9 3-12 8-4 6-5 14-3 21 1 7 7 12 13 16 8 4 17 6 26 3 8-2 15-9 22-14-6 8-15 15-25 18-10 2-19 0-27-6-5-3-8-6-11-10-1-3-2-6-4-8-6-6-18-9-26-8-1 0-3 2-4 3-2 2-2 6-1 8 1 8 12 16 18 20s13 6 20 8c13 4 24 7 37 5h2c6-1 11-3 17-5-12 9-27 7-41 9v-1-1c-5-2-10-3-15-4-10-3-21-7-29-14-5-4-8-9-13-13h-1l1-1zm709 346c0-2 0-2 1-3 5-5 10-5 16-5l-5-11c6-6 13-9 22-9 8 0 14 3 20 8-10-4-19-8-30-3-3 1-6 4-9 7 5 2 12 4 17 7 3 2 5 6 8 9-3 2-5 3-7 5l-2 2-2 1c-1-2-2-5-3-8 0-1-3-4-5-5l-1 1 2 3h1v2l-4 3 1 3h0c0 5 0 9-1 13-1 1-1 2-3 3-1 1-2 2-4 2-1-1-3-4-4-7-2-2-3-4-4-6l-2-6v-3l-2-3z" class="D"></path><path d="M1001 1273c-1-1-2-3-2-5 0-1 1-2 2-3 0-1 1-3 0-4v-1l1-1 2 2c1-1 2-2 4-2l-4 3 1 3h0c0 5 0 9-1 13-1 1-1 2-3 3 1-1 1-2 2-3l1-1c-1-1-2-2-3-4z" class="C"></path><path d="M993 1276l2-2-1-3 1-1 1 2 5 1c1 2 2 3 3 4l-1 1c-1 1-1 2-2 3s-2 2-4 2c-1-1-3-4-4-7z" class="E"></path><path d="M639 134h7c4 0 7 2 9 5 2 2 4 5 4 9-3-4-6-9-11-10-5-2-13-1-18 2-4 2-6 5-7 9s-1 7 1 10c4 6 9 6 15 7-3 1-6 1-9 0-7-3-9-9-12-16-1 0-3-1-4-1-5-1-14-2-17 0-1 4 1 8 4 11 7 9 15 12 26 14v1h-6c-14-3-19-9-27-20-5 2-10 4-14 8-3 3-5 9-4 13 0 2 1 4 3 5 10 7 23 3 33 1-7 4-18 6-26 5l-1-1c-10-2-19-8-30-8-3 0-6 0-8 2s-2 3-1 5c1 3 3 5 6 6 7 5 18 5 26 5h12c17-4 31-12 46-19l1 1c-14 8-28 15-44 19-3 1-6 2-9 1h-11c-8 0-18-1-24-6-4-2-6-5-10-8-4 0-9-1-14 1-3 2-4 3-5 6 0 2 0 4 1 6 3 2 6 2 10 3 13 3 29 2 43 1 3-1 6-2 9-2l-6 2h-1c-4 1-8 1-11 2-23 3-44-4-66-6-3 0-8-1-11 1v3c1 2 3 4 5 5 8 6 29 8 39 6h5c-3 1-5 2-9 2-12 1-30 0-39-9-3-2-3-4-3-8 4-5 18-2 25-1 2 0 5 1 7 1-1-2-2-3-2-6 1-2 2-4 4-6 5-5 14-4 21-4 2-2 4-4 6-5 8-3 18 0 26 2v-1-7c2-6 6-11 11-14 3-2 7-3 10-4v-4c1-1 3-2 4-2 7-2 16-1 21 3h1c1-2 1-4 3-6 4-6 9-8 16-9zM343 1177l1-2 1-2c1-2 3-3 5-5 8-4 18-6 27-9 6-3 12-6 19-9-5 4-11 7-16 9-7 3-30 8-32 15 0 4 1 7 4 9 3 3 8 4 11 5-1 5-2 11-4 16-1 4-4 6-6 9-2 4-2 10 0 14 1 3 4 5 7 6 4 1 8 1 11-1s5-5 8-8c3-2 6-4 9-5-4 4-9 7-9 13 0 4 2 7 5 9 4 4 10 5 16 4 4 0 7-1 9-4 2-2 3-6 2-9-1-6-4-11-7-16-4-8-6-18-6-27 2 3 1 8 2 11 2 10 7 19 13 27 1 6 2 12-2 17-3 4-7 6-11 6-7 1-14-1-19-5-4-3-5-7-7-11-1 0-1 0-2 1-4 2-8 2-12 1s-7-3-9-7c-3-5-3-12-1-18h-1c-4 0-10-2-13-6l-3-4 3-2v-2c-2-9 4-13 8-19l-1-1z" class="D"></path><path d="M344 1178c2 2 3 4 5 6 3 3 7 5 11 7-2 5-5 14-10 16-3 1-5 1-7 0-4-2-5-5-7-8v-2c-2-9 4-13 8-19z"></path><path d="M505 622c1 2 1 6 1 8v17c0 18 1 37-8 53-5 8-9 15-13 23-2 4-6 13-5 17 3 2 7 2 10 1 9-2 20-11 25-19 6-10 5-28 2-39-2-7-8-29-6-36l8 40c2 5 3 15 2 20v1 3c-2 10-7 17-15 24-10 7-15 9-28 8-3 2-6 6-8 9-5 6-8 13-7 21 1 5 4 9 8 12 5 4 11 5 17 5 1-1 2-1 2-2 1 0 0-4 0-5 0-3 0-6 1-10 3-9 10-18 15-26 3-4 5-9 8-14-5 18-22 31-21 50 1 3 2 4 5 5 5 3 14 2 20 0 4-2 9-6 10-10 1-2 2-6 1-8l-2-1c-7-3-13-7-16-15-1-2-2-4-1-6 1 1 1 0 1 2 1 2 1 3 2 5 3 6 10 9 16 11-4-20-1-41-5-61-1-3-1-5-1-8-1-2-1-5-1-8 0-2-1-4-2-6h0c0-9-2-19-5-27-2-8-7-20-6-28v2c1 10 6 20 9 30 2 13 3 26 6 39v1 3c1 2 1 5 1 7 2 8 3 16 3 24 1 8 1 17 2 25 1 2 1 5 2 6s4 1 5 1c4 1 8-2 11-5 6-6 5-15 5-23l-5-4c-9-7-16-18-17-28v1c3 8 8 16 14 22 3 2 6 4 9 4 2-1 3-2 5-4 4-5 5-14 3-21-2-10-13-14-21-19 8 2 14 4 19 10 5 5 6 10 6 17-1 8-4 15-10 20l-1 1 1 3c0 8-1 17-6 23s-10 6-17 7c-1 3-1 7-2 10a19.81 19.81 0 0 1-11 11c-9 4-18 2-27-1-3 2-5 3-9 3-7 0-13-3-18-8-9-11-7-24 2-34 2-3 7-7 8-10 1-1 1-4 2-5 1-5 2-10 4-14 5-12 14-21 18-34 4-14 3-31 4-46l1-20z" class="B"></path><path d="M333 945c-16 2-35 4-50 2h-2c-4-1-7-1-11-3-10-4-17-10-21-20-2-4-3-11-1-15 0-2 2-3 4-4 8-2 16 4 23 8h1c5 4 8 9 13 13 8 7 19 11 29 14 5 1 10 2 15 4v1z"></path><path d="M1196 1141v1c1 2-1 7-2 9-3 15-9 29-16 42-22 38-62 64-103 75l-2-1c0-3-3-12-3-14 1-1 41-21 46-24 25-14 50-36 65-60 6-9 10-19 15-28zM911 172c39-1 77 10 110 29 15 9 31 20 40 35 4 6 6 13 8 19l10 25 10 21c2 4 4 8 5 13 1 2 1 4-1 6-2 3-5 2-8 2-4 0-9-2-12-5-9-6-16-14-24-21-13-13-28-24-44-34-6-4-12-7-18-10-5-2-13-4-16-9s-2-11-2-17c0-10 0-21-6-30-2-4-5-6-8-10 2 0 5 4 7 5 11 11 10 27 10 42 0 2 0 6 2 8 3 2 7 3 11 2 6 0 13-3 18-9 6-8 5-17 3-27 2 4 3 9 5 13 3 7 8 14 12 20l13 20c6 2 11 2 17 0s8-6 10-11c-4-12-9-20-18-28-11-9-24-16-36-22-29-15-65-26-98-24-9 1-23 2-29 10-5 7-6 18-5 26 2 12 9 22 18 29 8 6 18 9 28 7 6-1 11-4 14-8s3-9 1-13c-3-14-17-15-27-22 7 2 16 3 22 7 5 3 10 10 11 16s0 12-4 17-11 8-17 9c-12 1-24-2-33-9-10-8-17-20-18-33-1-9 0-21 7-28 7-9 21-10 32-11z" class="B"></path><path d="M1009 223c3 0 5 7 7 9l12 20c7 11 13 25 26 30 4 1 9 1 13-1 2-1 4-2 4-3h-2c-5 2-10 3-15 1-8-2-12-8-16-15 4 0 9 0 13-1 7-1 10-6 13-11l16 38 8 17c1 3 4 8 3 11l-2 1c-4 1-10-1-14-4-8-5-16-15-24-22-21-19-43-35-69-47 7-1 12-2 18-6 5-4 8-10 9-17h0z"></path><path d="M828 131h15c-2 1-5 1-7 1l-13 3-21 7c-53 18-102 55-130 106-7 12-13 25-17 38-3 7-5 14-8 21-1 2-2 4-4 5h-2c-4-1-8-3-11-6-2-2-4-5-5-7 0-8 2-16 4-23 7-29 22-50 41-71 41-46 97-70 158-74z" class="B"></path><path d="M670 223c1 0 1 1 2 2l1-1 1 1c-1 1-2 3-3 5-1 1-2 3-3 4s-1 3-2 4-1 3-2 4h-1l-1-1-1 1c-2 1-3 3-5 4l-3 3-1-1c0-3-1-7 1-10 0-1 2-1 2-2 3-6 9-10 15-13z" class="C"></path><path d="M626 1272c19-1 39 1 56 8 21 9 34 24 47 43 2 3 7 9 8 12 0 2-1 2-2 4 3 4 7 7 10 11 15 20 27 43 50 56l-33 3c-18 2-39 0-55-9-2 1 0 4-1 6h-1c-15 0-33-8-44-18-1 0-1 0-2 1h-1c-33-24-17-73-43-102-2-3-4-4-8-6-3-1-6-1-9-3l1-1c8-5 18-5 27-5z" class="B"></path><path d="M638 1291c1 0 3 1 4 2l15 12 77 59 14 11c2 2 5 4 7 6 1 2 1 2 1 4h-2c-2 0-2 0-4-2-5-3-10-7-14-11l-26-21c-24-20-49-39-72-60z"></path><path d="M1161 1008c7-1 15 1 22 3 23 9 38 31 47 53 20 48 20 108-1 156-19 46-53 84-92 114-26 21-55 38-86 50-61 25-131 30-193 3-43-19-79-52-96-96 2 1 6 9 8 11 5 8 12 16 19 22 8 8 17 16 26 22 17 10 35 17 54 21 6 2 14 4 21 4 16 1 33-2 49-6 51-12 99-33 144-60 38-23 76-51 100-89 16-27 23-57 25-88 1-17 0-34-4-50-5-20-15-40-33-51-9-5-19-7-29-4-10 2-17 9-22 18-10 18-9 38-3 56l-1 1c-2-7-4-14-5-21-2-18 2-37 13-51 9-12 23-17 37-18zM552 865l-5-6c-12-15-32-26-51-27-25-2-50 7-69 23-14 12-21 26-25 44-4 19-1 42 10 59 3 5 12 8 16 13 26 24 39 55 33 90-1 9-5 16-8 24 14-15 29-30 48-37 7-2 14-3 22-3l-14 18c23-15 48-24 76-18 25 5 45 22 59 42 21 32 36 69 28 107-6 29-23 52-48 68-16 10-33 16-52 20s-41 7-61 2c-29-6-62-28-78-53-15-25-20-52-13-81 2-8 4-15 8-23 2-4 5-9 7-13-4 3-7 7-11 10-16 13-38 18-58 19-26 0-55-9-74-27-20-19-30-42-30-69-1-25 11-50 29-68 14-14 32-21 51-25 9-2 19-4 28-4 12 0 23 2 34 6-17-23-22-43-18-71 3-21 14-39 31-52 24-18 55-29 85-24 24 4 45 17 58 37 8 10 12 22 15 35 4 20 0 41-11 57-10 16-30 29-48 32-18 4-40 0-55-10-10-7-19-18-21-30s1-24 8-33c7-8 16-14 27-15 10-1 23 1 31 8 6 5 10 11 10 19 0 7-3 14-8 19-2 2-4 4-7 6 6-8 10-13 8-23-1-6-5-11-10-14-8-5-17-6-25-3-8 2-15 7-19 14-5 8-5 18-2 26 3 11 11 20 22 26 6 2 11 4 17 4 17 3 36-3 50-13 13-11 21-25 23-42 1-6 0-13-2-19-2-9-6-17-11-25z" class="B"></path><path d="M552 865l2-2-2-4 1-1c5 6 12 20 12 27 0 2-1 3-2 5-2-9-6-17-11-25z" class="E"></path><path d="M585 1110c2-1 3 0 6 0 2 2 4 4 5 7l2 3c1 1 1 2 1 3-1 1-1 1-3 0-2 0-4-1-6-1-2-1-3-2-5-2h-2l-1-1 2-3c1-1 1-1 3-1 2-1 2-1 3-1v-1c-3-1-5 0-7 0s-4 0-6-1c3-2 4-2 8-2z" class="D"></path><path d="M504 1067h1c-16 16-32 32-43 52-5 10-9 20-12 30-3 12-6 25-6 37-1 21 5 40 19 54 15 16 36 26 57 30 12 2 23 2 34 2h-1c-5 2-15 1-21 1-25-1-53-12-71-31-16-18-22-37-20-61 1-33 18-67 39-92 8-8 16-15 24-22zm63 67h2c15 0 30 5 40 15 13 13 18 28 18 46 0 16-5 32-17 44-13 13-31 18-50 18-25 0-49-12-66-30-4-4-12-14-12-19 2 1 4 5 5 7 2 3 4 5 6 8 14 14 35 29 56 29 16 0 30-5 41-16l2-2c7-8 10-18 9-29v-1c-1-7-4-13-9-19-4-5-11-9-18-9-6-1-13 1-17 6-4 3-6 7-6 12 0 4 0 8 4 11 2 2 4 2 6 2s5-1 6-3c5-7-5-11-6-17 2-1 3-3 6-3 5-2 11-1 16 2s9 10 10 16c2 9-1 18-6 25-6 10-17 15-28 17-12 2-26-1-36-8-9-7-14-17-16-29-2-16 3-33 13-46 12-16 27-24 47-27zM339 987c16-2 32 2 45 10 15 9 28 25 33 42 4 18 0 35-9 50-11 16-27 27-45 30l-2 1c-19 3-37-2-52-14-14-10-24-26-26-43-3-18 2-38 13-52 11-15 26-22 43-24z"></path><path d="M378 1020c7 0 12 0 18 3 9 5 13 14 14 23 4 15-1 31-10 44 6-15 11-30 7-47-2-7-6-14-13-18s-15-3-23 0c-4 1-6 4-10 6 3 6 6 12 7 18 0 4 1 9-2 12l-3-3c-3 6-5 11-9 15-3-9-5-16-3-26-2 1-4 4-6 5-2 2-5 3-8 2-1-4 1-9 0-13-2-1-3-1-4-3 2-5 6-9 12-11 4-1 8-2 12 0 1 1 3 2 3 1 2 0 4-2 5-3 4-3 9-4 13-5zm477-917c33-1 65 3 96 10 74 15 148 51 190 116 16 24 26 51 35 77 4 15 7 30 11 45 2 10 4 23 9 33 7 12 18 18 29 26 9 7 17 15 23 25h0-4v1c9 9 12 20 15 31-2-1-4-2-6-2 0 4 3 9 4 14 2 11 2 22 3 33h-28c-8 0-17 1-25-3l-6-3c-2-2-5-6-7-6-1 2-1 3-3 5-11-11-19-22-26-36l-1 1c0 2-1 4-3 6h0c-3-2-6-8-8-11-8-14-13-28-13-44-1-13 0-26-1-39-1-18-4-35-8-53-15-55-46-111-97-141-35-20-81-31-123-27-27 2-54 11-79 24l-28 15c-7 4-17 12-25 14h-2c-4-3-5-10-5-14 1-2 2-3 3-4 6-7 15-12 22-17 12-9 25-17 38-24 27-13 59-19 89-19 45 0 93 14 131 39 48 32 81 85 97 139 10 32 8 67 21 98 10 23 28 42 43 61 7 8 13 17 20 24 2 0 2 0 4-1 0-2-1-3-2-4-4-6-9-12-14-18-12-15-25-29-36-46-20-30-18-63-25-97-7-35-21-70-43-99-17-24-39-47-63-64-35-24-75-38-117-45-32-5-65-8-98-6-55 3-107 21-151 54-55 39-93 103-103 168-5 29-4 57-1 85l7 44c1 6 4 27 7 32 1 1 2 1 3 1 2-2 2-4 2-7l-8-35c-6-34-7-66-4-100 3 4 4 9 6 14 7 11 15 19 20 31 3 9 5 18 6 27 1 2 1 5 0 7-1-1-1-1-2-1 7 29-4 62-13 90-12-8-23-16-30-28-2-4-3-8-4-12l-4 7c-3-4-6-9-9-14-18-39-9-85 6-122 5-15 13-28 18-42-20 27-33 61-38 94-3 19-4 37-6 55l-4 42c-1 15 0 29 1 43 3 37 12 73 15 109-10-7-19-16-25-26-4-6-8-12-10-19-3-12-3-26-3-39-1-34 5-68 13-101 3-13 8-25 11-39-1 2-2 6-3 8-14 33-19 68-26 103-7 36-18 74-36 106-18 35-46 68-79 90-5 3-9 5-14 8-8 3-19 6-25 14-5 8-1 20-2 29 0 9-3 18-7 26-9 17-26 28-44 37-5 2-10 5-16 7-1 0-2 1-3 0 0-3 0-7-2-9-2 0-4 3-5 4-5 7-12 13-19 17-1 1-4 2-6 2 1-2 2-4 2-6h-1c-1 0-4 3-5 3-5 4-13 9-19 10-1-1 0-3 0-4l-2-1c-9 6-18 9-28 11l5-6c-13 4-25 6-38 8 2-17 5-38 16-52-1-1-2 0-4-1 5-14 16-28 27-37h-15c11-13 24-30 41-35h1c-1-1-3-1-4-1 2-5 13-5 16-9-16-3-29-8-40-22-12-15-17-36-14-56 1-13 5-30 13-41l-3 8c-7 21-7 46 2 66 6 11 15 20 27 24 25 9 51-1 73-12 40-20 79-46 105-83 9-14 16-30 27-44 8-11 18-19 26-30 2-3 5-6 6-10l-1-1c-1 1 0 0-1 2s-2 3-4 5c-6 6-16 11-24 15-3 1-7 3-10 3v-6h-1c-9 9-21 9-33 11 1-10 2-21 5-31 1-3 3-6 5-9h-1l-4 2-1-2c2-6 4-13 9-18 1-1 1-2 2-3l-4-1v-1c4-8 10-16 17-22h1l-2-1-1-1c11-13 25-15 39-22 24-12 25-40 31-64 4-13 9-26 14-39 0-2 3-10 3-11-9 18-17 37-29 53-25 34-62 49-102 57-22 4-45 8-66 18s-39 27-47 49c-5 16-4 36 4 51 7 14 19 26 34 31 13 4 28 3 40-3 14-8 21-19 26-34h0c-2 14-9 26-20 35-13 11-28 14-44 12-19-2-37-14-49-29-16-21-24-50-21-77 2-14 5-27 11-40 7-13 17-24 29-33 19-15 40-24 63-30 20-6 40-9 60-15 30-11 60-36 74-65 7-14 13-33 7-48-4-10-13-17-22-21-12-5-25-6-37-1-9 4-18 12-22 22-5 13 0 25 5 37-7-7-14-14-15-25-1-12 4-24 12-34 12-14 30-20 49-17 10 2 21 6 30 10 6 2 16 7 22 6v-1c-6-2-12-3-17-5-13-6-25-12-40-14-14-1-29 3-40 12-10 8-17 21-19 34 0 11 2 20 9 29 6 6 14 12 23 13 8 0 16-2 22-7 5-5 8-10 8-17 0-5-2-9-5-12-5-6-11-7-19-7 1-1 2-1 3-1 8-1 16 1 23 6 5 5 9 12 9 20 0 7-2 14-7 20-7 8-16 12-27 13-13 0-25-5-34-14-10-9-15-22-15-35-1-16 5-32 16-44 24-24 53-23 83-13 13 4 25 10 39 12 15 1 29-2 42-8 31-15 56-39 80-62 17-15 35-30 55-42 49-30 109-45 166-46z" class="B"></path><path d="M286 758l36-11 1 1c0 1 1 1 2 2-1 2-4 3-6 4-1 0-2 0-3 1h-1c-1 0-2 0-3 1h-1l-2 1-10 2h-2-3l-8-1z" class="D"></path><path d="M476 485v2c-4 12-11 23-20 33-10 12-21 23-33 34-2 3-7 9-10 9-1 1-1 1-2 1-1-1-1-2-2-3 2-3 5-6 7-8l15-15c9-8 18-17 27-27 6-8 12-17 18-26zM356 749h1c-8 7-18 13-28 18l-36 18c-24 13-46 28-66 47-8 8-16 16-23 24-4 5-8 10-12 14-1 1-2 1-3 2l-2-2v-2c1-3 4-6 7-9l14-16c23-23 46-41 75-56 24-13 49-24 73-38zm-70 9c-9 3-18 7-28 6l-1-1c1-5 6-5 10-6 18-5 36-9 53-15 19-7 38-18 55-30 42-30 74-72 93-120 10-25 16-51 22-77l21-80c14-52 32-102 58-148 8-15 17-28 27-42 8-10 16-20 25-28-17 24-34 48-48 74-32 58-51 122-67 186-13 50-23 102-48 149-22 42-58 79-99 103-12 7-24 13-37 18l-36 11z"></path></svg>