<svg xmlns="http://www.w3.org/2000/svg" xmlns:v="https://vecta.io/nano" viewBox="140 30 1223 1437"><!--oldViewBox="0 0 1533 1533"--><path d="M1171 268c1 0 1 0 2 1v1c0 4-3 8-5 10-5 5-11 7-18 8l-1-1c3-3 7-4 11-7 4-4 8-8 11-12zM377 485c4-1 7-1 11 0 9 2 17 7 22 15-6-3-12-7-19-10-12-3-24-1-35 4l-1-1v-2l3-2c6-2 12-4 19-4zm127-268c4 0 11-1 16 1 10 2 18 6 26 13-3 1-9-4-12-5-3-2-7-4-11-5-16-4-31 1-45 8-7 5-14 10-20 17-3 2-5 6-8 8l-1-1c1-1 2-2 3-4 12-17 31-28 52-32zm43 1041h2c0 1-8 6-9 7-5 4-9 8-12 13-5 8-7 18-4 27 4 18 19 23 33 31-4-1-8-2-11-3-10-4-20-12-24-23-4-9-3-21 1-31 5-9 14-18 24-21zM347 755h9c1 0 3 1 4 2-5 1-9 2-13 5v7c2 2 3 3 5 4 3 1 6 0 8-1 2 0 2-1 4-1l-1 3c-1 2-3 4-6 5-3 2-7 1-11 0-3-1-7-4-9-7-1-3-1-7 1-10 2-4 5-6 9-7zm28-289c11-1 23 0 32 6 3 2 7 5 8 8-3 1-5-2-7-3-8-6-16-8-25-8-19 0-36 10-49 23-9 10-13 19-18 32h-1l-1-1c0-2 1-5 2-8 3-8 7-15 12-22 12-16 28-25 47-27zm-130 562h2c36-3 71 11 97 34 13 12 26 26 33 43 1 3 3 7 3 10v1c-2-1-3-4-4-6l-6-12c-3-5-6-10-9-14-26-32-66-54-108-54-6 0-13 1-19 2s-11 3-16 2c8-4 18-5 27-6zm-9-16c4-1 9 0 13 0 26 0 51 7 74 19 20 10 37 24 51 42 7 8 13 16 16 26-5-3-9-11-12-17l-10-12c-31-36-76-56-123-55-6 0-13 1-19 2-5 1-10 2-15 2 7-5 16-6 25-7zm709-889c7 0 15 0 22 2v1c-3 1-7 0-10 0h-14c-65 1-138 26-183 74l-13 12c2-4 5-7 8-11 38-41 92-66 147-74 14-3 29-3 43-4zm-151-18h1l1 1-22 7c-43 17-80 54-101 95-3 7-7 15-10 23-2 5-4 11-6 16-1 2-4 3-6 4h-1v-1c9-34 25-65 48-92 20-22 49-44 78-51 6-1 12-1 18-2zM267 500c1 6-3 15-5 22-8 32-4 70 14 99 14 23 33 38 59 44l-6 1c-15-1-28-7-41-16-22-18-34-41-37-69-3-22-1-49 9-69 2-4 4-9 7-12zm-45 384c40-4 83 5 116 29-21-7-41-14-63-17-26-4-57-4-83 3-10 4-20 8-29 13l-3-15c18-10 42-12 62-13zm346 377c9 0 23-1 32 3 5 2 10 6 14 9-13-3-27-3-39 5-10 6-15 15-17 27 0 7 1 13 4 20-11-7-25-11-28-25-2-7-1-16 3-22 7-10 19-15 31-17zM752 107h5c-17 9-33 16-48 28-29 24-50 56-62 91l-6 19c-1 5-2 10-4 14-1 2-5 4-7 5-1 1-2 1-4 2-1-6 2-15 4-20 9-34 24-66 47-93 10-13 22-24 35-34 4-3 9-7 15-9 7-2 17-2 25-3zM232 947c12 0 24 0 36 2 25 4 50 14 72 27 13 8 26 17 35 30-6-2-12-8-17-11-9-6-19-11-28-16l-20-8c-45-16-89-16-132 5l-4-14c19-8 37-13 58-15zm-7-15c33-3 66 3 96 16 35 16 63 40 76 76-6-5-12-15-17-21-4-6-10-12-15-17-16-14-35-24-55-31-43-16-94-18-137 2l-3-11c17-9 36-12 55-14zm431 368l48 24c-18 32-45 57-80 70v1c-8 2-18 5-26 4-4-1-7-3-11-4 10-1 19-2 29-6 17-6 33-19 40-37 8-18 7-34 0-52zm455-1116c14 8 28 20 40 32 6 6 12 12 17 19s6 16 5 25c-2 5-8 14-13 17h-2c-4 2-7 6-10 8-13 4-25-1-37-5l8-7c10-8 16-22 16-35 1-23-10-39-24-54z"></path><path fill="#fffffe" d="M1153 243h3c2 2 4 4 5 7 5 9 0 20-3 28v-1c0-7 0-13-3-19-2-3-4-5-5-8 0-3 1-5 3-7z"></path><path d="M834 102c23-2 50 1 73 5-15 2-30 5-45 9-48 13-89 39-120 77l-11 14c-2 3-6 12-9 14l-9 3c-4 1-7 2-11 3 7-18 15-36 26-52 25-36 63-65 106-73zM422 226h1c0 3-6 10-8 14-5 7-8 14-11 22-10 29-8 63 6 91 14 30 38 51 70 63l-9 13-10-2c-25-9-48-24-63-46-19-27-28-61-22-95 2-11 5-24 12-33 4-4 9-8 14-11l20-16zm291-115h4c-11 8-22 16-32 26-28 27-49 64-61 102-3 10-5 20-8 30-1 5-3 6-8 8l-1 1c-1-1-1-2-1-3-7-41 0-101 25-136 3-5 8-10 13-13 6-4 15-5 22-6l47-9z"></path><path fill="#fffffe" d="M644 130c3-1 7-1 10 0 5 2 9 5 11 10 2 3 2 9 1 13-3 6-7 9-12 11-4 1-7 1-11 0s-8-5-10-9c-2-3-3-8-1-12 2-7 6-10 12-13z"></path><path d="M499 229c7 0 14 1 21 3 11 5 20 13 25 24 2 7 3 17-1 24-2 6-7 11-12 12-6 2-11 0-16-2l-1-1c0 6 1 11 3 16 4 8 11 11 20 13-13 2-28 5-39-3-7-5-12-12-13-20-2-8 0-17 5-23 8-10 18-13 29-14-3-5-6-10-13-13-8-4-20-2-29 1-11 5-18 13-23 24-1 4-2 8-3 13-1 16 4 31 15 44 17 19 38 23 63 24l-18 21c-12-1-25-6-34-13-16-12-27-29-30-49-3-19 2-42 14-58 10-12 22-21 37-23zM366 502c9 0 19 0 26 6 6 4 9 11 10 18 1 5 0 9-3 12s-6 5-11 6c-6 0-10-4-14-8 2 5 4 10 9 12 3 2 6 2 9 1 6-2 10-6 13-11 4-8 2-15 0-22h2c4-1 8-1 11-2 7-2 12-9 17-14-4 15-12 28-18 43l-11 29-8 25c-1 3-1 9-4 12-12-2-24-5-35-11-13-8-21-20-25-35-3-14-2-30 6-42 6-10 15-16 26-19zm175 726h0c-6 11-18 17-26 25-10 11-15 25-15 40 1 16 7 30 18 41 10 8 23 14 36 13 6 0 12-2 16-7 2-2 6-10 5-13 0-3-3-4-4-8 3-4 9-8 14-9s10 0 15 3c7 4 11 12 13 19 2 9 0 19-6 27-7 10-20 16-33 18-24 3-55-3-75-18-19-15-31-42-34-66l-1-14c1-12 4-26 13-34 9-7 18-7 29-6l-4 2-4 3c-10 9-16 26-17 39-2 18 5 40 18 54s31 23 50 24c10 0 26-2 33-9l-8 2c-16 5-33 3-49-5-15-9-26-26-31-43-4-15-3-32 5-46 9-16 24-28 42-32zm-273-149c6 3 12 6 17 9 52 38 54 104 63 162-6-7-16-15-21-24-4-7-6-18-7-26-6-26-12-53-27-75-4-7-10-14-15-20-2-1-3-3-5-3l-3 3c0 2 1 3 3 4 8 7 14 15 19 25 17 28 20 60 31 90-8-7-16-17-23-26-26-30-50-62-70-95 2 1 5 2 8 3 7 1 15-1 21-5 7-6 8-13 9-22zm336-942c1 0 0-1 1 0-10 14-18 30-22 46v1c-6-8-14-18-24-22-3-1-4 0-7 1 1 2 10 6 12 7 6 3 15 10 17 16 3 7 7 13 10 20-4-4-6-10-11-14l-3-2c0 1 0 1 1 2 1 2-1 29 0 34 1 23 6 45 11 68l-15 12c3-14 5-28 3-42-2-20-10-37-26-49-15-12-32-14-50-12-21 3-40 17-52 34-15 20-18 44-15 68 3 14 7 26 15 38 13 20 33 32 57 37l-20 26-17-8c-28-15-47-40-56-70s-6-63 9-91c3-6 7-12 12-17 10-10 23-18 35-25 43-26 87-44 135-58z"></path><path fill="#fffffe" d="M547 178c9-1 14 1 21 5-8-2-14-4-22 0h-1l-5 6c-2 3-3 4-7 4-2-1-3-1-3-3-1-2 0-4 1-5 3-5 11-6 16-7z"></path><path d="M938 140c40-2 85 3 122 18 25 10 52 24 64 51 6 14 6 31 0 46-4 8-11 18-20 21l-19-13 1-1c3 1 5 1 9 0 2-2 2-3 2-6l1-1s3-1 4-1c3-1 6-2 9-4 4-3 7-8 7-13 1-10-3-20-9-27-7-9-17-16-28-21-27-14-59-21-89-24-49-6-102 2-149 17-8 2-19 5-26 10 64-19 129-24 195-8 12 3 25 6 37 11-8 1-18-3-26-5l-22-4c-27-4-54-5-82-5 5 2 11 1 16 2l19 1c31 2 62 8 90 19 16 6 33 14 46 25 2 2 4 3 4 6-3 1-6-2-9-4-25-17-53-27-83-33-20-4-41-7-61-7 3 2 8 2 12 2l20 3c27 5 53 13 77 26 12 6 22 13 31 23v1c-5-1-10-7-15-9-5-4-11-8-17-11-25-12-52-19-79-24h-9c3 1 5 1 8 1 5 1 10 3 16 4 24 6 47 16 67 30 8 5 14 9 20 17l-21-12c-11-5-23-10-35-15-51-19-105-28-160-27-30 0-59 2-88 9l1-1c10-10 22-20 34-27 41-25 88-37 135-40zm-510 977l4 4c7 5 15 1 22 0 10 3 19 8 27 15 13 12 22 27 33 41 21 25 44 51 69 72-11-2-28-4-39 0-12 4-25 16-30 27-6 11-7 25-3 36 2 5 5 9 6 14l-5-5c-5-6-8-17-8-25-1-14 5-28 15-38 10-9 24-17 26-32 0-5-3-9-6-12-6-8-14-12-25-13s-22 3-30 11c-17 15-24 44-24 66-1 26 8 54 26 73l5 6-4-2-21-12c-4-3-9-5-13-9-3-3-5-8-7-13-6-11-11-23-15-35-11-36-14-82 5-117 7-14 17-24 33-28h1c-8-1-16-1-23 3-15 6-24 21-29 36-17 44-5 98 14 140-3-1-6-4-9-6-5-4-23-16-25-21-4-9-7-19-8-28-7-36-8-74 4-108 4-12 11-25 21-33 4-3 9-5 13-7z"></path><path d="M458 1179c2 0 3 0 5 1 1 1-1 4-2 5-5 8-8 17-11 26-8 29-7 57-1 86h-1c-3-9-5-18-6-29-4-23 0-48 8-71 2-6 4-13 8-18zm8-35c3 0 6-1 9 0 5 1 8 4 11 8 2 4 2 8 1 12-2 5-5 8-10 10-3 1-6 1-9 0-4-1-8-4-10-7-2-4-3-9-1-13 1-5 5-8 9-10z" fill="#fffffe"></path><path d="M262 905h10c18 0 35 4 51 10 39 16 76 47 96 84 9 18 16 38 24 57-1-1-1 0-2-1h0c-4-2-9-3-13-1-3 1-7 4-9 7-1 3-1 8 0 12 2 4 6 7 10 8 3 2 6 2 9 1 5-2 8-5 10-10v-1c2 1 3 4 4 5l9 16c-6-1-12-3-18-3-6-1-18-1-22 3v1c9 0 17-1 26 1 18 5 25 19 34 34l-9-6c-5-2-16-7-20-5s-8 4-12 3-6-2-8-5c-1-3-2-4-1-7 1-1 1-3 2-3 5-1 10 1 13 4 2 1 3 2 5 3l1-2v-1c-1-3-3-6-5-7-3-2-7-2-10-1-5 1-7 5-9 9 0 1-1 3-2 4s-4 2-6 2c-13 4-20 11-27 23-23 43-20 100-6 146-6-4-11-10-17-14-2-3-6-5-7-8-2-4-3-11-4-15l-6-48c-2-15-5-31-10-46-12-35-32-66-66-83-19-10-38-13-59-6l-3-6c4-2 10-3 15-4 27-4 55 6 76 21 30 23 46 58 52 95l5 50c2-8 1-17 2-24 0-32-4-60-18-88-10-17-22-31-38-41-21-15-48-22-73-20-8 1-14 3-22 4l-1-1v-1c11-8 30-9 42-9 32 1 66 15 88 38 12 13 25 31 28 48 2 14 1 28 0 41 3-9 5-19 10-28 8-13 20-23 26-38 2-6 7-17 6-24 0-3-2-6-3-9-17-39-58-66-96-81-34-14-71-19-106-7-9 3-17 7-25 11l-3-11 6-3c8-4 16-8 25-11 31-9 62-5 92 6 41 13 89 41 109 81l-2-12c-6-37-26-66-56-87-34-23-81-36-122-39-4 0-13-2-18-1-3 1-6 3-9 4-13 5-26 11-39 13 9-12 23-16 37-17 4 0 8 1 12 0 15-4 31-8 47-10zm116-643h1l-8 19c-8 32-2 68 14 96 17 31 45 53 79 63-4 7-7 14-12 21l-2-2-2-3c-10-15-29-25-46-28-30-5-55 1-79 18-23 17-40 45-44 74-5 30 0 62 19 87 15 20 37 34 61 40 9 3 18 4 27 5l-1 10c-1 3-3 5-6 7-13 12-35 14-52 12-23-3-44-13-61-30-22-24-30-56-29-88 1-31 9-62 29-87 8-10 17-19 26-28v-1l-1 1c-5 2-10 7-14 11-17 16-29 35-36 57-13 38-13 81 5 116 13 26 36 44 63 52 25 8 51 8 74-4l-1 12c-4 3-9 4-13 5-15 4-31 4-46 2-34-6-60-26-80-54-5-7-9-15-12-24-13-38-8-84 10-121 10-21 27-43 48-56 7-5 15-7 22-10-7 7-13 13-19 21-6 7-11 15-16 23-4 8-10 15-14 24-11 23-17 51-14 77 1 8 2 16 5 23 7 27 23 48 47 61s45 8 69 1c-24 0-46-6-65-21-24-19-37-47-40-76-4-37 11-80 34-109 15-18 34-33 56-40 9-3 19-4 28-5-9-3-18-7-26-12 14 3 27 7 40 12-4-4-10-6-15-9-16-9-31-18-49-22-26-5-51 6-72 20 7-10 18-20 28-27 8-5 17-8 26-11 7-3 12-5 18-3 10 1 16 6 21 14l1 1c1-1 1-1 2-1 5-4 10-10 11-16 0-7-3-13-7-17-5-6-13-10-20-10-25-2-44 21-61 36 7-11 16-21 24-31 23-27 48-52 75-75zm-67 147c9-2 19 1 27 3-12 4-24 5-36 9-38 13-66 45-83 80-20 43-25 95-8 140 12 35 38 65 72 80 30 14 66 17 97 5l-1 46c1 53 7 107 21 158-12-9-25-21-35-32-11-14-19-31-19-49-1-3-1-8 0-11 2-3 4-6 6-8 3-5 5-9 5-15 1-12-4-22-11-31 5 1 10 2 14 6 11 10 12 27 13 41 2-5 2-16 0-21v-2c-2-8-7-14-12-21l3-3c4-4 5-7 7-13-2-7-5-10-10-15-3-4-8-6-13-5-6 0-10 1-13 5-4 5-5 10-4 15v1c-6-2-12-5-17-7-4-1-9-1-13-2 6 4 11 8 17 11 11 6 21 7 28 17 7 9 8 25 2 34-2 3-5 4-7 7v3l-2 11c-3 19 6 38 17 53l-58-15c-47-10-94-10-140 5l-7-59c-4-63-1-126 7-189l2-12c1 2 1 4 1 7 0 4 0 9 1 13 2 17 7 34 14 50 5 12 11 24 18 35l16 24c7 9 17 18 19 30 3 11-2 19-8 28 6-5 11-9 14-17 2-6 1-13-2-20-5-12-15-22-23-33-11-16-22-32-30-50-21-45-18-92-1-138 0 1-1 5-1 6l-1 14c-1 30 2 58 15 85 7 16 18 29 30 42l32 32c18 17 37 33 52 52 7 9 14 18 18 29 3 8 4 18 0 26-3 6-10 12-16 14-10 3-21 2-29-3h-1-1c0 2 0 3 1 4 3 4 7 6 11 6 10 1 20-2 28-8 8-7 12-16 13-26 0-9-3-18-7-25-14-25-38-40-56-61 8 6 17 11 27 13 11 2 28-5 37-12 0-2 0-3-2-4-6-1-10 5-15 9-3 2-7 4-11 4-18 3-32-7-45-18-24-19-46-43-58-70-9-20-14-41-17-62-4-35 4-70 17-102 7-16 15-31 26-44 21-27 51-46 85-50z"></path><path d="M163 710c1 2 2 6 3 9 1 5 3 9 5 14 3 6 6 13 9 19 3 3 5 7 7 10-2 1-3 2-5 1h0c-9-12-21-37-19-53zm73 30c3 1 5 4 7 5 15 18 27 43 25 67-1 10-3 19-7 28-1 4-3 9-6 12 0-3 3-7 4-10 2-4 4-9 6-14 1-5 1-10 2-15v-6l-1 3c0 1-1 2-1 3-4 9-10 16-19 19-3 1-9 2-12 0-2-1-4-3-5-6 1 0 1-1 2-1s3 1 4 1c4 0 7 1 11 1l9-3c4-3 8-9 9-14v-1l1-3c2-25-13-48-29-66zm-39 36c4-1 8-1 11 0 5 2 10 6 12 11s2 11 0 16c-3 6-8 9-14 11-3 0-7 1-11 0-5-2-10-7-12-12s-2-11 0-15c3-6 8-9 14-11zm-5 45c6-1 12-1 18 1 7 3 13 9 16 16 2 7 1 15-2 21-4 7-10 12-18 15-7 1-14 0-21-3-6-3-11-9-14-16-2-6-1-14 2-20 4-8 11-12 19-14z" fill="#fffffe"></path><path d="M1228 213h38l50 329h-214-3s0-3-1-3l-2-19c-4-21-10-42-16-62-17-51-46-103-86-139-33-30-73-43-117-41-62 4-118 36-159 82-74 82-98 200-107 307-6 62-6 125-2 187 5 88 17 178 54 259 18 38 40 73 72 101 35 32 80 48 127 45 58-4 112-35 150-78 39-45 62-102 70-161 4-31 4-62 2-92h270c-1 11-3 23-5 35-5 35-13 70-25 104-26 79-68 153-127 213-37 37-81 67-128 91-111 55-242 67-364 52-31-4-64-9-95-19 8-3 16-4 23-6 37-13 66-37 90-68 38 15 82 27 122 25-15 8-50 6-67 3-15-2-30-7-45-5-9 1-17 5-22 12-3 3-4 6-3 10 1-2 1-4 3-6 6-8 15-12 24-12 19 0 39 7 57 10 56 10 116 14 172 5 94-16 189-68 244-146 18-26 31-55 31-87l-3-19c10 20 11 42 5 63-12 41-39 71-70 98-27 23-56 43-87 60-32 17-65 29-101 37-30 6-60 7-90 7s-60-2-90-5l-34-4c-4-1-11-3-14-2v7c5 1 10 1 15 2l28 4c78 9 159 10 234-17 50-17 96-47 137-80 31-25 60-52 77-88 5-11 10-22 12-34 1-6 0-12 1-18 0-2 0-5 1-7l2-1 1 1-3 8c3-4 6-8 8-12 3-8 4-17 9-24 2-4 6-7 9-10l-1-1h-1c-5 1-10 5-13 9v1c-2-4-4-8-8-12-5-6-11-7-20-8 6-4 11-7 17-10 10-4 22-5 30-14 3-3 6-8 5-13 0-5-2-7-6-11l-1 1c1 3 1 6 0 10-2 13-24 21-34 27-5 3-9 7-14 11-2 1-3 3-6 2v-1c1-3 4-7 5-10 12-19 26-38 44-52 4-4 8-7 13-10 3-3 7-5 10-7 2-2 3-7 4-10 6-16 10-33 12-50h-204c0 28-3 57-8 85-13 65-41 128-89 176-13 13-28 25-43 35v1c17-9 34-23 48-37 69-64 94-165 97-256h194l-4 20-7 23c0 2-1 7-3 8 0 1-3 2-3 2-4 2-7 3-10 5-16 10-30 22-41 37-16 20-28 44-42 66-39 61-87 120-149 158-82 49-189 66-281 43-116-30-215-112-276-214-42-70-68-146-83-226-17-91-18-186 5-276 24-93 72-180 138-250 29-30 61-57 97-79 76-44 172-66 259-50 33 6 65 17 95 31l48 25c18 10 36 21 56 26 21 5 41 2 60-9 31-19 43-55 52-88z"></path><path d="M586 936l1 1c1 9 3 18 4 27 6 36 13 71 24 105 27 82 70 158 149 198h-1c-2 0-6-2-8-3-13-7-26-15-38-24-73-57-106-152-122-239l-9-65zm236-673h1c-20 6-40 14-59 25-81 48-129 137-154 226l-11 40c-1 8-2 17-5 25 0 2 0 4-1 7l-1 2 1-3v-3c11-67 30-135 66-193 37-59 94-110 163-126zm-96 1108c3 0 7-1 11 1s9 7 11 11c1 5 1 10-1 15-3 5-7 8-13 10-4 0-8 1-11-1-5-1-10-6-12-11-1-5-1-11 1-15 3-6 8-8 14-10zm525-1058v2l1 1 9 57 18 141h-151c-13-70-45-137-90-192l-3-3v-1c50 51 83 123 97 192h142l-23-197z" fill="#fffffe"></path></svg>