<svg xmlns="http://www.w3.org/2000/svg" xmlns:v="https://vecta.io/nano" viewBox="130 50 1258 1388"><!--oldViewBox="0 0 1528 1528"--><path d="M778 111c103-4 211 15 301 67 101 58 176 151 220 259 10 25 17 50 24 76l-315 107c-5-63-15-129-43-186-11-22-25-44-43-60-19-16-43-27-69-25-37 2-68 23-91 50-17 20-30 43-41 66-29 65-41 136-47 206-5 59-6 118-1 176 5 67 19 137 48 198 13 27 29 53 52 72 26 23 61 31 96 28 41-4 77-20 104-52 18-22 29-50 35-78 11-47 9-96 5-144l334 7h33c-1 18-3 36-6 54-15 108-57 210-132 291-111 118-274 179-434 184-61 2-123-2-183-14-108-21-208-71-288-147-128-120-195-290-199-463-1-33 1-66 5-99 16-141 71-276 169-380 54-57 117-103 189-135 87-39 182-56 277-58z"></path><path fill="#fff" d="M772 148c74-3 151 7 219 34 20 8 39 18 57 29 51 29 96 67 132 113 17 21 32 44 45 68 15 28 28 58 36 89l-199 70-5-45c-5-35-16-71-33-102-24-46-66-82-116-97-47-14-98-5-140 19-75 41-116 118-139 197-21 73-27 149-28 225-1 59 2 119 13 177 9 49 24 99 49 143 30 54 75 100 136 117 57 17 122 10 174-20 70-39 94-118 103-193l2-27 1-16c0-3-1-6 0-8l83 2 161 5c-2 24-7 49-13 73-18 70-51 134-100 188-25 28-53 54-83 76-87 62-196 97-303 103-57 4-115 1-172-9-94-17-185-60-257-123-44-40-80-87-109-138-53-92-84-195-89-300-3-52 1-104 10-154 4-28 10-55 17-82 25-84 67-163 126-228 90-101 218-161 351-180 24-3 47-5 71-6z"></path><path d="M429 720h3v3l-1 1-2 1-1-1-1-3 2-1zm634-244h3l2 2-1 2c-2 1-2 1-4 0-1-2-1-2 0-4zM382 314h1c2 1 2 1 2 3l-1 2c-2 0-2 0-4-1v-1l2-3zm-83 391c1-1 2-1 4-1v2 2c-1 1-2 1-3 1l-2-2 1-2zm190-432h1c2 1 2 1 3 3l-2 1h-2c-2-1-2-1-2-3l2-1zM380 838c2 0 1 0 2 1l1 3-2 1c-2 0-2 0-3-1 0-2 0-2 2-4zm8-115c2-1 4-1 5-1l1 1-1 3h-3l-2-1v-2zm-51-291c1 0 2 1 3 1v3l-1 1h-1c-2 0-2-1-3-2l2-3zm727 1h3l2 2-1 2-2 1-2-2v-3zm-798 53h1c2 1 2 1 3 2l-2 3c-1 1-2 0-3 0l-1-2 2-3z"></path><path fill="#1c1a1b" d="M332 976c2-1 2-1 4 0 0 2 0 2-1 4h-3c-1-1-1-1-2-3l2-1z"></path><path d="M996 1266l2-1c2 1 2 1 3 3l-1 2h-1c-2 0-2 0-4-2l1-2zM462 284c1 0 2 0 3 1v3l-2 1h-2l-1-2c0-2 0-2 2-3zm643 730l2-1 2 1c0 2 0 2-1 4-2 1-2 0-3 0l-1-1 1-3zm-775-25h2c2 0 2 0 3 2l-2 2h-4v-2l1-2zm8 59h1l2 1c0 2 0 2-2 4-1 0-1 0-3-1v-2l2-2zm113-260c2-1 2-1 4 0 0 2-1 3-2 4h-2c-1-1-1-1-1-3l1-1zM305 685c2-1 2 0 4 0v3l-2 2h-1c-2-1-2-2-2-4l1-1zm24 21c2 0 2 0 4 1 1 2 0 2 0 4h-4c-1-3-1-2 0-5zm899 281h2c2 1 2 1 2 2l-1 3c-2 0-2 0-4-1v-2l1-2zm39-50c3 0 3-1 4 1 0 2 0 2-1 4h-1c-2-1-2-2-3-4l1-1zm-150 68c2-1 3-1 5 0v2l-2 1h-3l-1-2 1-1zm10 120h0c2 1 2 1 3 3l-2 2c-2 0-2 0-3-2v-2l2-1zm-186 82h1c2 1 2 1 2 3l-1 2c-2 0-3 0-4-1v-2l2-2zM524 247c1-1 1-1 3 0v3l-2 2h-2l-1-1c0-3 0-3 2-4zM349 952c2 0 2 0 4 1 0 2 0 2-2 4h-2l-1-1c0-2 0-2 1-4zm25-19h3c1 1 2 0 2 2l-1 2-2 1c-2-1-2-1-3-3l1-2zm-89-221h4l2 2-1 2h-4l-1-2v-2zm808 325c2 0 2 1 3 2 1 2 0 2-1 4-2 0-2 0-3-1-1-2-1-2 1-5zM236 574h2l2 2-1 3h-5v-3l2-2zm246 250c2 0 2 1 4 2v2l-3 2h-1c-1-1-1-2-2-4l2-2zm131-551c2 0 2 0 3 1v2l-2 2c-1 0-2 0-3-1 0-3 0-3 2-4zm442 828c2-1 2 0 4 1v1l-1 2c-2 1-3 1-4 0l-1-2 2-2zM259 499l3-1 2 3-1 2c-2 1-2 1-4 0l-1-1 1-3zm105 355l2-1 2 2 1 2-2 1-2 1c-2-1-2-1-3-3l2-2zm-26-471c1 0 2 1 2 2 0 2 0 3-2 5h-2v-2c0-3 1-3 2-5zm775 825c2 0 2 0 4 1 1 2 1 2 0 4l-2 1c-2-1-2-1-3-3l1-3zm19-788l2-1c1 1 2 1 3 3l-2 2-2 1-3-3 2-2zM345 982h2c1 1 1 1 2 3l-2 2c-2 0-2 0-4-1v-2l2-2zm760 61c1-1 1-1 3 0v3l-1 1-2 1-2-1c0-3 0-3 2-4zm-43-623l2-1c2 2 2 3 2 4l-2 2c-2 0-2 0-4-1 0-2 0-2 2-4zm-771 25l2-1 2 1c0 3 0 3-1 5h-2c-2-1-2-1-2-3l1-2zm190 245h2c2 1 2 1 2 3l-2 2-2 1-2-2c1-2 1-3 2-4zm-69 177l2-1c2 1 2 1 3 3l-1 2-2 1-2-1c-1-2-1-2 0-4zm655 220c2-1 3-1 5 0v2l-1 2c-2 0-2 1-4 0-1-2-1-2 0-4zm151-150h1c2 1 2 1 3 3v2c-2 1-3 1-5 0-1-2 0-2 1-5zm-120-519c1 0 2 1 3 2 0 2 0 3-1 5h-2l-1-1c0-3-1-3 1-6zM503 283c2 0 2 0 4 1v2l-2 2h-2l-2-1v-2l2-2zm766 670c2 0 2 1 4 2v2l-2 2h-2l-2-1c1-3 1-3 2-5zM392 799c2 0 2 1 4 2 0 2 0 2-2 4-2 0-2 0-4-1v-3l2-2zm-30-464h2c1 2 1 2 1 5l-2 2c-2-1-2-1-3-2 0-2 0-3 2-5zm60 542h2c2 1 2 1 3 2l-2 3h-2l-3-3 2-2zM289 694h3c1 1 1 2 2 4l-2 1c-2 1-2 1-4 0 0-3 0-3 1-5zm790 387h2c2 2 2 2 2 4l-2 1h-2c-1-1-1-1-1-3l1-2zm-254 154h1c2 0 2 2 4 3l-1 2c-1 1-2 1-3 1l-2-2c0-2 0-2 1-4zm281-16c2 0 2-1 4 0v3l-2 2h-1l-3-1c0-3 0-2 2-4zM259 667h2c2 1 2 1 3 3l-1 2-2 1-2-1c-1-3-1-3 0-5z"></path><path d="M1083 400c2 0 2 0 4 2-1 2-1 2-3 3h-2l-2-2c1-2 1-2 3-3zM283 610h2c1 2 1 2 1 5l-2 1c-2 0-2-1-3-2 0-2 1-2 2-4zm177-358h3c1 2 1 3 0 5h-2c-1 0-2 0-3-1v-2l2-2zm50 52h2l1 1c0 3 1 3-1 5h-2l-1-1c-1-3 0-3 1-5zm-188 763h2c2 2 1 3 1 6l-2 1-2-2c-1-3 0-3 1-5zm726-646l2-1c2 1 2 1 3 3l-1 2c-1 1-1 1-3 1l-1-1c-1-2-1-2 0-4zM382 920h2l1 1c1 2 1 3 0 5-2 1-3 1-4 0-1-3 0-4 1-6zm-78-484h1c2 0 2-1 4 0 1 3 1 3 0 5l-3 1-2-1v-5zm231-202c3 0 3 0 5 1v2l-2 2h-2c-2-1-2-1-3-3l2-2zm-207 852h1l2 1c0 3 0 3-1 5h-3l-1-2c0-2 0-2 2-4zm-94-440h2l2 2c0 2 0 2-2 4-2 0-2 0-4-1 1-2 1-3 2-5z"></path><path d="M315 699c2-1 2-1 4-1l2 2-1 3c-1 1-2 1-4 1-1-2-1-3-1-5zm-7-82c3-1 3-1 5 0 1 2 0 2-1 4-1 1-1 1-2 1l-2-1c-1-2-1-2 0-4zm164 194l1 1c2 1 2 1 2 4l-2 2h-2l-1-2c0-3 0-3 2-5zm-130 250h3l1 2v3l-2 1h-2c-2-1-2-1-2-3l2-3zm26-331c2 0 2-1 4 1 0 2 0 2-1 4-2 1-2 1-4 0-1-3-1-3 1-5zm-46-110h2c2 2 1 3 1 5l-1 1c-3 0-3 0-4-2 0-2 0-2 2-4zm-23 42h2c1 3 1 3 0 6l-2 1c-2-1-2-1-3-3 1-2 1-2 3-4zm43 416h2c2 2 2 2 2 5l-2 1c-2 1-3 0-4-1 0-2 0-3 2-5zm614 128h0c2 1 2 1 3 3 0 2 0 2-2 4l-4-2c1-3 1-3 3-5zM433 787c2-1 2-1 4 0v2c0 2 0 2-2 4-3-1-3 0-4-2 0-2 0-3 2-4zm665 239c3 0 4 0 7 1v1l-1 3h-2c-3 0-4-1-5-3l1-2zm-285 196h1c2 2 2 2 3 4l-2 2-3 1-2-2c0-2 1-3 3-5zM391 907c3 0 3-1 5 1 0 2 0 2-1 4-1 1-2 1-3 1l-2-1c0-2 0-3 1-5zm809-433h1l2 2c-1 4-1 4-3 6-1-1-1 0-2-1s-1-1-1-3c1-2 1-2 3-4zM395 764l2-1c2 2 2 2 3 4l-2 2c-1 1-2 1-3 1l-2-2c0-2 0-2 2-4zm-16 100l1-1c1 0 3 0 4 1 0 2 0 2-1 4-1 1-1 1-2 1-2 0-2 0-3-1-1-2 0-2 1-4zm12-123c1 0 2 0 3 1 1 2 1 3 0 4l-2 2c-1-1-2-1-3-1-1-2-1-3 0-5l2-1zm592 521h3c1 1 2 1 2 3l-1 2h-2c-1 1-2 1-4 0v-3l2-2zM631 282c1 0 2 1 3 1v5l-2 1h-2c-2-1-2-2-3-3 1-2 2-2 4-4zm539 833l2 1c2 2 2 2 2 4l-2 2c-3-1-3-1-5-3 1-2 1-3 3-4zM480 782h3c2 2 2 2 2 5l-3 2c-2 0-2-1-3-2-1-3 0-3 1-5zM254 572h3c1 2 1 2 1 5l-2 1h-3c-1-2-1-2-1-5l2-1zm149 210h3l2 2c1 2 0 2-1 4-2 1-2 1-4 1l-2-3c0-2 1-2 2-4z"></path><path fill="#1c1a1b" d="M766 1190h3l2 2c0 2 0 2-1 5h-3c-1 0-2 0-3-1 0-3 0-3 2-6z"></path><path d="M469 769h3c1 1 2 2 2 4s-1 3-3 4h-2c-2-1-2-1-3-3 1-3 0-3 3-5zm575-380h4c2 2 2 2 2 5-1 2-1 3-4 4h-1c-2-1-3-2-4-4 1-2 2-3 3-5zm-708 638h2c2 3 2 3 2 7-1 2-1 2-4 3h-2c-2-2-2-2-2-5 1-2 2-3 4-5zm726-575c1-1 2 0 4 0 2 2 2 2 2 5-1 3-1 3-4 4-2 1-2 1-4 0-2-2-2-2-2-6 1-2 2-2 4-3zm19-17c2-1 3-1 5-1 2 2 2 3 3 6-1 2-1 3-3 4s-3 1-5 1c-1-2-2-3-3-5 0-2 1-3 3-5zm-19-33c3-1 3 0 5 1 2 2 2 3 2 5-1 3-2 3-4 5-2 0-3-1-4-2-2-1-3-3-3-5 1-2 2-3 4-4zm17 13h5c2 2 3 3 4 5-1 3-1 3-3 5-2 1-3 1-5 0s-3-2-4-4c1-3 1-3 3-6zm-758 625h4c2 0 3 2 5 3v4c-1 2-2 4-4 5l-3 1c-1-1-3-1-4-2-1-2-2-4-2-6 1-2 2-3 4-5z"></path><path fill="#dbdada" d="M1017 366c1 0 3-1 4-1 0 1 1 1 2 2 1-1 2-1 3-1l3 3v1c1 2 1 2 1 3 2 1 3 2 4 3 0 3 0 3-1 5-1 0-2-1-3-2v-1l-2 2h0l-1-3c-3 1-2 1-5 0v-3h-2l-1-2v-1l-2-5z"></path><path d="M395 867c1-1 1-1 2-1s4 2 5 3c2 2 1 4 1 6-1 3-3 4-5 6h-1c-2 0-5-2-6-3-2-2-2-3-2-5 2-3 4-5 6-6zm716 364l2-1c4 0 5 2 7 4 1 1 1 3 1 5-1 3-3 5-6 6h-3c-2 0-4-1-5-3s-1-4 0-7c1-2 2-3 4-4zM410 288h2c3 0 6 0 9 3 2 1 2 3 2 5-1 3-3 4-5 5l-6 1c-3 0-4-1-6-3-1-2-2-4-1-6s3-3 5-5zm681 773l2-1c3 1 5 1 6 3 2 2 3 5 2 7 0 3-3 5-5 7h-4c-2-1-4-1-6-4-1-2-2-3-1-6s3-5 6-6zM615 298h2c2 0 3 1 4 3s0 4 0 6c-2 4-5 7-10 8h-3c-2-1-3-3-3-5-1-2 0-5 1-7 2-3 5-4 9-5zm-111-40c1 0 2-1 4 0 2 0 5 2 6 4s1 5 0 7c-2 3-4 4-6 5h-5c-3-1-5-3-6-5-1-1-1-3 0-4 1-4 4-6 7-7zm743 693c2-1 4 0 6 0 1 0 3 1 4 2 1 2 2 5 1 7-1 4-3 5-6 7-1 0-2 1-3 1-2 0-5-2-7-4-1-2-2-5-1-7 1-4 3-5 6-6z"></path><path d="M1111 422c1-1 3-1 4-1 3 1 5 2 6 4s2 4 2 6c-1 4-4 7-6 8-1 1-2 1-3 1-2 0-5-2-6-3-2-2-3-6-3-8 1-4 3-5 6-7zm22 770h3c3 1 5 2 6 5 1 2 1 5 0 7-2 3-4 5-8 6-1 0-2 0-4-1s-4-3-5-6c-1-2-1-5 1-7s4-3 7-4zm-340 14h4c3 0 5 1 7 3 1 2 3 4 2 7 0 3-2 5-5 7h-6c-3-1-5-3-7-6-1-2-1-4 0-6s3-4 5-5zM449 264c2 0 5 0 8 1 1 1 3 2 4 4s1 4 0 6c-1 4-5 5-9 7h0-4c-2 0-4-2-5-4-2-2-2-5-1-8s4-5 7-6zm766 687c2 0 4 0 6 1 3 0 7 3 8 5 1 3 1 5 0 7-1 4-3 6-6 8h-6c-3-1-7-4-8-7s-1-5 0-8 3-4 6-6zm-249 275h5c3 0 5 2 7 4s2 5 1 8c0 5-4 7-8 9-1 1-4 1-6 0-2 0-5-3-6-5-2-3-2-7-1-10 2-3 5-5 8-6zm213-287h8c3 0 6 2 7 4 2 3 3 8 3 12-2 4-5 6-9 9-2 0-5 1-7 0-4 0-6-2-7-5-2-3-4-8-3-12s4-6 8-8zM320 403c3 0 7 0 9 1 3 1 6 4 7 7s1 8-1 11c-2 4-5 6-9 7h-6c-4-1-7-3-9-6s-2-7-1-10c1-5 6-8 10-10zm-43 223c3 0 6-1 9 0 4 1 7 4 9 7s3 8 2 12c-2 4-7 7-11 9-2 1-6 1-8 0-4-1-7-4-9-7s-3-7-2-11c2-5 6-8 10-10zm828 460c3-1 6-1 8 0 4 2 8 6 10 10s2 8 0 12c-2 5-7 8-12 10-3 0-6 0-9-1-4-1-7-4-9-7-2-4-3-8-1-12 2-6 8-10 13-12z"></path><defs><linearGradient id="A" gradientUnits="userSpaceOnUse" x1="470.274" y1="580.319" x2="465.525" y2="624.508"><stop offset="0" stop-color="#b2b1b2"></stop><stop offset="1" stop-color="#d9d9d8"></stop></linearGradient></defs><path fill="url(#A)" d="M463 602l9-5c10-8 21-15 27-26l4-5c3-6 8-15 13-19-3 8-7 15-12 23-16 26-37 50-65 63-20 9-43 12-64 12-8 0-18 0-25-2l-1-1c2 0 3-1 4 0 2 1 2 0 3 0l2 1c2 1 2-1 5 1h8c6-1 16 2 22 0l1-1h6l1-1c1 0 2 1 3 0h1c1-1 2 0 3-1h1 1 1c2-1 2-1 4-1l1-1h1 2c2-1 5-2 7-3h1c1 0 3-1 4-2l5-1 1-1 2-1c1 0 2 0 3-1 2-1 5-2 7-4l3-2-1-2c-1-1-2-3-4-3 0-1-1-1-2-1-1-1-2-1-3-1-1 1-1 1-3 1 1-2 6-3 8-4l1-1 2-1-1-1 8-5c2-1 4-2 6-4z"></path><path d="M744 1191c2 1 6 5 8 7l23 19c51 42 112 80 179 85 26 2 51 0 76-4l19-4c3-1 7-2 11-2l-2 1c-26 9-56 14-84 13-24 0-48-4-71-10-39-12-74-35-107-60-18-13-37-28-52-45zM595 194h2c-2 2-39 19-45 22-10 5-20 12-29 19-7 5-13 10-20 15-3 2-6 4-10 4l-2-2c0-3 0-4 1-6 4-6 11-11 17-15 26-19 55-31 86-37zM424 740c4 0 8 0 12 1 5 2 9 7 11 12s1 11-2 15c-3 6-7 9-12 10-4 0-9 0-13-1-5-2-8-7-10-12-2-4-2-10 1-14 2-6 7-9 13-11zm130-428c3-1 11 1 15 2 0 4 1 9 4 12 6 7 19 9 27 9 15 1 24-12 34-21h0c-3 3-5 6-8 9l-1 2c-11 12-26 25-43 26-8 0-20-1-25-6-5-6-7-14-6-21 0-4 0-9 3-12zm-88 397c4-1 9-1 13 1a19.81 19.81 0 0 1 11 11c2 5 1 13-1 17-3 6-7 9-13 11-4 1-7 1-11 0-5-1-10-5-13-11-2-5-2-12 0-17 3-6 7-10 14-12zM238 596c5-1 9-1 13 2 5 2 9 7 11 12 1 5 1 11-2 16s-8 8-14 10c-4 1-9 1-13-1a19.81 19.81 0 0 1-11-11c-2-6-2-12 1-18s8-8 15-10zm978-204c3 6 5 13 7 19l16 37c3 7 10 14 10 22 0 4-2 6-5 8l-6 3c-5 1-11 0-15-4-3-2-6-6-7-10-1-6 0-13 0-20 1-18 3-37 0-54v-1z"></path><path fill="#dbdada" d="M300 592c26 21 56 28 89 25 11-1 21-4 32-7 3-1 16-6 18-6l1 1c-2 1-3 1-5 2-1 0-1 0-2 1-2 1-1 0-2 1l-5 1h-1c-1 1-2 1-2 1l-2 1c-1 0-1 0-2 1-2 0-1-1-2 0l-4 1c-2 0-4 1-6 2h-6l-1 1h-4-1c1 1 2 1 3 2l1 1 1-1c1 1 3 1 5 1l2-1h3 2c1-1 2-1 4-1l1-1h3l2-1h1l1-1h1c1 0 2-1 3-1 2 0 0 0 2-1h1l1-1 1-1h2 0 2l1-1h1l1-1h1l1-1c2 1 3 1 5 0l4-2 4-2c3-1 5-1 8-2-2 2-4 3-6 4l-8 5 1 1-2 1-1 1c-2 1-7 2-8 4-2 1-3 2-5 3-2 0-3 1-4 2h-1l-1 1c-1 1-1 2-2 2-2 2-2 2-4 2l-1-1-2 1c-1 1-1 1-2 1s-2 1-3 2v1h-4l-1-1-2 1c-1 0-3 1-5 1-3-2-3 2-6 2-2 0-3-1-4-3l-1-1c-3 0-4 0-7 1v1c-1 1-2 2-3 2-3 0-3 0-5-2v-1h-1-1-1c-1 0-4-1-4 0-1 1 0 2-3 3-1 0-3-1-4-1-1-1-1-2-1-4s-1-2-2-3c-1 1-1 3-2 4l-1 1h0c-3 0-3 0-5-2 0-2 0-3 1-4s1-1 2-1h1v-1c-1-1-4-4-6-4-1-1 0 0-2-1s-6-1-8-1h-1-2v-1c-2-1 0 1-2-1-1-1-1-2-1-3l-2-1h-1l-1-1-4-1-7-4c-5-2-9-5-13-8-2-2-4-5-6-3-1 1-3 4-5 4l6-7z"></path><path d="M396 629h2l1 2c-1 2-1 2-3 2-1 0-2-1-3-1l1-2 2-1zm728 307c7 0 14 0 20 4 4 2 8 7 9 12s0 12-3 15c-2 3-8 5-11 7-5 3-11 6-16 9-15 10-28 25-38 40l-10 22c1-28 5-55 19-81 7-12 16-23 30-28zm183 16l1-1 1 1c1 7-1 14-2 20-5 31-15 60-27 89-6 14-12 29-19 43-6 12-14 24-21 35h-2c13-22 21-43 23-69 3-31-9-66 10-94 9-12 20-22 36-24zM617 504c0 1-1 5-2 6-5 18-10 38-14 57-9 49-15 98-17 148-4 63-3 124 3 186 7 66 19 130 48 190 40 84 109 168 197 205 17 7 33 13 51 17 8 2 18 3 26 6h-1c-19-3-37-5-55-10-96-30-170-112-215-198-19-37-33-77-42-117-6-27-10-54-13-81-7-68-7-135-2-203 5-70 14-139 36-206zm450 621c11 0 21 1 32 5 10 4 17 13 21 23 2 6 3 12 1 19-6 11-18 15-29 19-7-11-16-20-27-26-19-7-43-8-62-3-6 2-11 5-16 7 25-18 49-39 80-44z"></path><path fill="#4a4a4b" d="M1061 1140c6-1 12-1 17 0l5 1c3 1 6 2 9 4-4 0-8-2-12-3-5-1-11 0-16 0s-11 0-17 1c-4 1-9 2-14 3 8-4 19-5 28-6z"></path><path d="M1055 224c1 0 2 0 3 1 6 2 13 9 18 13 26 21 47 46 59 78 7 19 7 38-2 56-4 9-11 16-20 19-5 2-11 3-17 1-7-2-12-7-16-14 4-5 10-8 14-13 11-13 13-34 12-50-4-35-23-69-51-91zM707 364h1c-19 14-36 31-52 49-21 25-37 54-48 85-9 24-15 50-21 75-19 87-24 177-25 266 0 39 0 78 3 117 3 34 8 67 17 99 9 30 22 58 37 84 25 45 54 84 93 117v1l-2-1c-25-19-47-44-65-69-29-41-56-88-70-136-8-30-13-61-15-91-3-37-4-74-3-111 0-80 4-160 17-239 8-44 18-91 36-132 21-46 56-85 97-114zm124-91c38-2 79 3 113 22 31 16 53 40 63 73l-3-4c-24-33-61-58-101-70-10-3-21-4-31-6-18-2-36-4-53-2-40 5-74 30-106 53-23 18-44 36-64 58-11 11-22 23-31 36-10 14-18 29-25 45h-1c10-26 26-51 43-72 17-22 37-43 58-61 13-11 27-21 41-31s28-20 44-27c17-7 34-12 53-14zm-5 928c21 7 46 10 68 13l22 2c1 0 5 0 6 1 3 1 8 9 10 12 19 21 38 45 64 57 6 2 11 5 17 5-44 6-94 0-133-22-19-10-37-26-46-46-4-7-6-15-8-22zm33-976c22-1 43 1 64 8 22 7 44 19 61 35 6 6 11 11 15 18-15-17-32-29-52-38-17-9-37-15-56-17-11-1-23 0-35 0-21 2-42 5-62 12s-39 18-56 28c-24 13-47 28-67 45-35 31-63 73-83 115-23 51-36 106-44 162-4 29-6 59-7 89l1 95-2 74c-1 38 1 76 5 114 4 36 10 72 23 107 7 19 15 37 24 54 10 20 21 40 33 58 46 67 114 122 194 139 43 10 89 8 133 2l42-8 16-4c2 0 5-2 6-1h1c-34 11-68 18-103 21-30 3-60 1-89-4-81-13-153-70-200-135-16-23-30-49-42-74-9-19-18-39-24-60-8-27-12-54-15-83-5-41-7-83-6-125l2-69c0-34-4-68-3-102 1-43 6-85 13-128l9-44c-7 15-12 31-17 47-12 36-22 73-44 104-14 19-32 35-52 46l-1-1c10-5 20-13 29-21 39-37 52-87 68-136l9-26c2-4 3-9 6-13 4-4 5-10 6-15l5-16 10-26c16-41 39-80 68-114s68-59 108-81c17-9 33-18 52-24 19-5 38-6 57-8zm148 947c6-2 14-1 19 0 32 5 45 34 59 59 6 11 13 21 21 31l-7 5c-18 11-46 17-65 12-11-2-22-9-28-19l2-2c3-2 7-5 10-9s5-8 5-13c-1-8-7-15-12-19-22-18-50-23-77-19-10 1-19 4-29 5 9-5 21-7 31-10 23-8 47-18 71-21zM516 547l9-16c-3 12-7 24-11 36-14 49-33 97-78 125-21 13-52 23-77 18-10-3-21-10-27-19-8-12-6-30-3-43 1-4 3-8 4-11 5 2 11 4 16 5l1 1c7 2 17 2 25 2 21 0 44-3 64-12 28-13 49-37 65-63 5-8 9-15 12-23zm624-253c9 8 19 17 28 26 10 10 20 20 27 34 16 33 12 70 0 103-4 11-9 22-16 30-10 11-23 20-36 26-15 7-35 15-51 9-4-2-8-5-10-10-3-8 0-17 4-24 9-16 22-18 37-26 14-7 28-15 38-27 16-18 22-45 21-68-3 9-2 19-7 28-4 7-11 10-18 13-3 1-7 2-11 0 0-3-1-7-2-10-1-1-3-5-3-6s1-1 1-1c9-9 16-17 18-31 4-23-7-47-20-66zm-723 34l1 1-1 1c-6 23-9 45 3 67 11 19 31 34 53 40 25 7 51 3 74-7 7-3 13-7 19-11-2 6-3 11-6 16-10 21-25 36-44 49-19 12-45 20-68 18-26-4-51-19-67-40-15-20-25-49-22-73l1-2c1-10 4-21 10-30 10-16 28-25 47-29zm763 662c5 0 12 1 17 2 18 4 31 17 40 33 15 27 18 61 9 91-1 5-3 10-5 15-2 3-4 6-5 10h2c-10 14-22 26-33 39-19 20-37 40-58 58-10 10-22 19-34 26 9-8 18-18 25-28 4-5 8-11 11-17 6-15 7-34 0-48-3-6-8-12-10-18 0-2 1-3 2-4 5-5 12-9 20-10 5 0 12 1 16 5s4 10 4 15c0 35-26 66-50 89v1c6-5 11-10 16-15 16-19 27-37 36-60 3-8 6-17 7-26 1-16-6-37-21-45-4-2-12-3-15-6 0-4 1-8 3-12 4-8 16-20 25-23 6-2 12-1 17 2 7 4 11 13 13 21 9 30 0 59-14 86l1 1c13-24 21-47 19-75-1-15-6-31-18-41-8-7-17-9-27-8-7 0-14 4-18 10-10 12-6 29-4 44-13-12-26-30-28-47-2-15 5-32 14-43 11-14 26-20 43-22z"></path><path fill="#1c1a1b" d="M1196 1081h0c1 0 1 1 2 2l1 1 1 4v1l2 7c1 2 1 3 1 5s0 4 1 7c1 9 1 20 0 29-2-2-1-25-2-30-1-6-2-14-4-20-1-2-2-4-2-6z"></path><path d="M237 690h11c12 1 21 6 28 14-3 5-9 9-13 13-11 11-20 24-26 38-22 46-16 104-8 153 3 18 7 37 13 54 0-4-2-10-3-14l-4-23c-5-39-8-75-3-114 2-15 5-29 12-43 9-18 25-33 45-40 17-5 35-3 51 5 18 10 29 28 35 47 2 5 2 11 3 16-15-6-31-9-47-6-30 8-59 30-74 56-13 21-13 47-13 71 0 18 1 36 4 53 3 20 8 39 13 58-4-7-6-15-9-22-7-18-13-36-19-55l-11-46-8-35c-6-31-9-63-9-94 0-23-1-51 11-71 5-8 12-12 21-15zm98 115h11c15 2 25 8 34 19-7 6-15 11-22 17-21 18-37 42-47 68-20 52-26 107-11 161 2 8 4 16 7 24 0-4-1-8-2-11l-5-21c-4-19-5-40-4-60 1-26 7-73 28-91 9-9 23-13 36-12 6 0 13 2 16 6 2 2 2 2 2 4-5 7-16 12-22 16-16 13-28 28-37 46s-10 39-10 59 1 38 6 58c4 18 10 35 17 53-21-29-43-58-58-90-13-29-19-63-22-94-3-42 0-91 29-124 15-17 32-27 54-28z"></path><path fill="#1c1a1b" d="M311 961h1c0 1 0 2-1 3l-1 5c-2 5-2 10-3 15l-2 10c-1 8 1 53-2 56 0-8-2-17-1-25 2-9 0-18 1-27 2-11 3-22 6-32l2-5h0z"></path><path d="M796 159c39-3 81-1 119 8 10 2 21 4 31 8h-4c-57-8-112 4-164 26-19 8-37 16-55 27-12 8-23 17-34 25l-18 15c-1 1-3 2-5 3-6 1-27-9-34-11-6-2-12-3-19-4 7-12 15-24 25-33 5-5 11-9 17-14-15 7-30 16-42 26-13 11-26 28-30 44-2 6-2 11-2 17l-17 3c-6 1-23 4-24 12-1 5 1 14 1 20 0 3 1 6-1 9h-1c-4-4-5-10-6-15s-1-9-1-13c-2-30 3-54 24-77 33-35 76-56 123-66 39-8 78-9 117-10zm115 22c29-3 60 6 86 18 15 7 29 15 42 25 22 17 38 42 47 68 6 17 8 36 0 52-4 9-10 15-19 18-12 3-23 2-34-3-20-11-28-37-34-58 3-1 6-1 10-2 7-2 13-7 17-13l1-1 20 25h1l-14-19c-1-2-5-6-6-7 0-1 1-5 2-6v-11c-2-7-6-15-10-21-8-12-20-24-32-32-11-8-23-14-34-22 9 2 17 7 26 12 22 12 41 27 58 47h1l-1-2c-17-22-40-40-65-51-5-3-12-6-18-7-8-1-15-4-23-5-15-1-30 1-46 2-13 1-26 2-39 5-17 3-34 9-50 15-24 10-48 22-70 36-25 16-49 36-72 55-13 12-22 26-32 41l-32 48c-3 6-7 12-12 17-15 16-37 25-58 29-21 5-41 2-59-10-19-13-34-33-38-56-3-15 0-32 9-44 13-19 37-24 58-28-2 18-4 37 1 55 5 15 15 26 28 33l-7-6c-19-20-21-46-21-72 9 13 16 26 28 36 16 12 39 18 59 16 6-1 12-2 17-4 6-2 16-8 18-13-7 6-20 13-30 13 1-1 5-2 7-2 4-1 7-3 11-5 3-2 5-4 8-7 3-2 7-4 10-7 8-7 15-16 21-24 8-9 18-16 26-24 46-41 101-76 161-92 27-8 55-10 83-12zM300 592c-15-16-26-33-26-57 0-21 3-46 19-61 9-9 22-14 35-14 8 0 23 5 28 12 2 2 0 16 0 20 0 5 0 11 1 16 3 12 8 23 16 32 3 4 8 8 12 11-14-21-23-46-19-71 12 6 22 12 34 18 27 12 60 12 88 3 33-12 57-36 74-66-2 10-6 20-10 30-4 11-8 22-13 32-19 38-48 76-83 98l-17 9c-2 0-15 5-18 6-11 3-21 6-32 7-33 3-63-4-89-25z"></path><path fill="#8f8e90" d="M467 553h2l-8 6c-26 15-56 26-86 24-10 0-19-2-29-5h-1c0-1 8 1 10 1 12 3 26 3 39 2 27-4 50-14 73-28z"></path><path fill="#dbdada" d="M327 535c3 0 5 3 7 4 5 3 9 6 14 9 7 3 14 6 22 8h2c21 4 43 0 63-8l27-10-1 1c-25 14-51 24-80 22-21-1-40-10-54-26z"></path><path d="M422 809c12-2 22 2 32 8 15 10 27 29 33 46 3 11 4 22 5 33l4 43c4 37 10 73 17 109 8 34 18 67 30 100 14 39 29 77 53 110 14 19 32 37 50 53 10 8 20 17 31 23 7 4 14 7 21 11l-3-1c-17-4-33-12-48-20-25-11-49-23-72-38-25-17-50-40-68-64-7-10-13-20-18-30-2-6-4-13-7-18 1 13 5 26 11 38 28 54 88 90 142 114 21 9 42 17 64 23 13 4 25 6 38 8 9 2 19 2 27 4v1c-46 4-90-5-134-18-39-12-78-27-115-46-29-15-59-33-85-53-13-11-26-23-38-35-14-13-29-27-38-45-8-15-11-34-6-51 4-9 12-17 21-22 14-7 33-10 48-5 5 2 9 3 12 7 4 4 6 12 8 17 5 16 8 33 16 47-3-27-2-54-21-76-18-20-44-24-69-26-5-13-8-31-4-46 2-4 5-8 10-10 11-5 29-3 40 2 23 9 43 27 56 47 6 10 10 20 15 30v-2c-1-7-3-15-5-22-7-19-17-36-33-50-15-13-35-22-56-23-6 0-14 1-20 1 2-8 4-14 9-21 8-10 20-15 33-16 24-2 47 10 62 28 5 5 9 13 14 17-6-14-15-29-26-39-8-8-19-16-30-18-9-2-17-1-26-1 1-10 2-22 7-31 4-7 12-13 20-15 7-2 16 0 22 4 18 11 25 28 30 47h1c-1-13-2-25-9-37-12-20-36-34-58-42-6-3-13-4-19-6 1-10 3-22 8-31 4-7 10-11 18-13z"></path></svg>