<svg xmlns="http://www.w3.org/2000/svg" xmlns:v="https://vecta.io/nano" viewBox="147 72 1188 1355"><!--oldViewBox="0 0 1530 1531"--><path d="M741 134c18 0 35 1 53 2 74 6 148 25 213 63 30 18 58 42 92 51 26 7 52 6 79 5l44-1 5 345h-204l-2-54c-5-59-20-127-62-171-36-39-95-61-148-62-61-2-118 16-163 59-38 36-61 84-77 133-22 65-32 135-33 204-4 129 6 312 101 410 40 42 95 66 153 67 57 1 121-17 163-58 65-63 66-161 67-245h114 187c-4 22-11 45-18 67-27 93-67 186-133 258-104 113-264 175-417 182-154 6-307-44-421-149-33-31-64-66-89-105-58-90-88-196-92-304-8-182 41-368 167-504 93-100 221-169 356-188 22-3 43-4 65-5z"></path><path fill="#eceded" d="M284 952l1 6c1-1-1-2 2-2l-1 61c-1-3-1-6-1-9-2-12-2-24-2-36 0-7 0-13 1-20z"></path><path d="M380 793c7 2 13 5 19 8 15 9 31 24 35 41 1 4 1 7-1 11l-3 1c-4 0-5-2-6-6-3-9-5-17-11-25-7-12-21-23-33-30zm742 211l3-1c2 2 3 3 4 5 2 6 2 16 2 22 0 37-4 74-18 107l-1 2h-1c12-32 16-67 13-101-1-9-4-19-4-28 0-3 0-5 2-6zM920 276c4-1 17 5 22 7 31 13 58 34 82 57 11 10 21 22 30 34 14 18 24 38 33 58 3 5 6 10 7 15 2 3 1 5 0 8-1 1-2 1-3 1-5-3-6-10-7-15-1-4-3-9-5-13-31-70-89-124-159-152zm-79-12l1-1c8 2 17 2 25 3 37 7 69 23 98 45 45 34 81 79 104 129 5 12 11 25 12 37-1-1-1-1-1-2-9-24-21-47-34-69-24-38-53-69-89-96-17-12-36-24-56-32-17-6-34-9-52-13-2-1-5 0-8-1h0zM430 999h3c5 0 9 2 11 6 2 2 3 6 2 9-1 2-3 5-5 7l-10 14c-7 10-13 21-17 32-9 26-9 52 0 78 1 4 5 10 4 14-16-32-17-61-8-95 2-8 4-16 8-23 2-6 6-11 8-16 1-2 1-3 1-5-2-2-2-1-5-1-15 11-23 51-24 70-1 8 1 18 0 26-5-34-4-73 15-103 5-7 9-11 17-13zm372-726c31-2 69 4 98 16 13 6 26 13 38 21 23 15 45 33 64 53 3 3 8 8 9 11-13-12-27-23-41-34-28-21-56-38-89-49-11-4-22-7-33-8-73-10-145 7-204 52h-1c8-8 15-15 23-21 39-27 90-39 136-41zm-187-82h1c7 0 14 3 19 8 7 7 10 18 10 28 0 23-7 47-13 69-6 17-11 35-20 51-1 3-3 9-6 11 1-4 3-8 4-11l6-17c6-22 11-46 13-69 1-10 1-22 0-32-1-3-1-5-3-7-1-1-2-1-4-1-2 1-3 3-3 6-1 8 1 16 1 24 0 10-1 21-2 32l-2 14c0 1 0 1-1 2 1-16 2-33 0-50-1-4-1-9-4-13-1-2-1-2-3-2-5 2-3 9-3 13 1 7 3 14 3 22 2 19-1 37-4 55-2 15-5 29-10 43l6-30c4-26 5-54-1-79-2-10-7-19-9-29-2-9-1-16 4-24s12-12 21-14zM342 778c6-1 14 0 21 1 29 4 55 16 73 40 7 9 18 24 16 36-2 3-2 3-5 4-2 0-4-1-5-3-2-4-3-9-5-13-3-10-11-20-18-28-19-20-47-30-74-30 3 1 7 1 10 1 17 3 27 9 38 21 9 10 15 21 19 33 1 4 3 9 3 13 0 3 0 5-2 7-2 1-3 1-5 1l-1-2c0 1 0 1-1 3-3-1-3-3-3-5-2-6-3-12-6-17-5-13-15-22-27-29-26-15-63-17-90-5-5 2-9 4-14 7-2 1-5 4-7 5v-1c2-3 7-6 9-8 21-20 45-30 74-31zm683-536c9 3 18 4 27 8 21 8 39 21 62 26 7 1 15 1 22 0 12-2 25-6 37 0 7 3 12 9 14 16 3 6 2 13-1 19-3 7-10 12-17 15-15 5-29 0-43-7-5-2-10-5-15-9 16 5 38 13 55 6 2-1 5-3 6-6 1-2 0-3-1-4-5-3-12 1-17 2-33 8-58-17-83-35l-46-31z" fill="#fff"></path><path d="M1034 246c3 0 8 3 11 4 13 6 25 13 37 20 10 6 20 12 32 16 7 2 14 2 22 2 7 0 18-5 24-2 2 2 3 2 3 5l-2 2c-2 2-6 2-8 2-9 0-18-1-26-2-10-2-18-6-27-10 6 8 19 13 28 16-5 1-13-3-17-5-9-6-18-14-26-20-16-11-34-19-51-28z"></path><path d="M808 238c28-2 59 0 86 5 79 16 143 67 187 133 12 18 22 36 32 55 2 5 5 10 7 14v6c-2 2-3 2-5 3-1-1-1-1-2-1-3-2-4-11-5-14-4-11-10-21-15-32-15-28-36-52-57-76-37-38-81-67-133-79-20-5-43-6-64-6-30 0-59 2-88 11-14 4-27 11-39 18-10 6-20 14-30 22-6 5-11 10-17 13 3-3 5-7 8-10 18-20 38-37 62-47 23-10 48-13 73-15zM380 699c6 0 14 0 21 1 8 1 14 5 19 12 3 5 4 12 3 18-7 22-42 12-58 10-7-1-14-2-21-1-20 1-39 8-55 18-10 6-19 14-28 23 3-8 11-16 17-21 2-2 4-5 6-6s2-1 3-2c-2 0-1 1-2 0l1-2c5-6 12-12 19-17 23-18 46-30 75-33z" fill="#fff"></path><path d="M368 716h11c4 1 10 2 13 6 1 2 1 4 0 6s-3 4-6 4c-5 0-12-1-18-2-17-2-32-2-49 4l-19 10-1-1c21-13 44-24 69-27z"></path><g fill="#fff"><path d="M556 218h5c7 1 14 6 19 12 5 7 9 16 11 25 9 31 6 60 2 92l-6 31c0 3 0 6-1 8v-1l1-12c2-32 4-64-3-95-1-6-3-13-6-19-1-3-2-4-5-5-2 1-3 1-4 3-1 3-1 6-1 10 1 6 3 13 4 19l6 29 3 20v9c1 2 1 3 1 4-2-3-2-7-2-10l-5-19-9-31c-3-8-5-20-12-25-3 0-3 0-5 2-2 3-2 5-2 9 2 17 12 34 18 50 3 7 6 15 7 23 4 21 3 46-2 67-1-6 0-13-1-19-1-17-5-36-10-53-8-22-22-43-29-66-4-14-3-29 4-41 5-9 12-14 22-17zM386 966c5-1 11-1 16 1 6 1 11 5 14 10 2 4 3 10 1 14-2 7-8 15-11 21-9 16-14 33-17 51-3 21-1 43 3 63 1 6 2 11 4 16 1 4 7 16 6 19-8-17-16-33-19-52-6-26-3-54 5-79 2-5 3-10 6-16 1-4 5-10 5-14 0-2-1-2-2-4h-2c-2 1-3 2-4 4-6 9-10 20-12 30-6 23-7 47-4 70-3-10-5-21-5-32-1-15-1-30 2-44 2-9 5-17 8-25l9-21c-5 5-10 9-14 15-6 9-9 19-12 29-7 27-6 57-1 84 3 12 8 25 10 37-6-10-11-21-15-32-10-26-10-54-4-80 3-10 8-21 9-31-2-1-2-1-4-1s-3 1-4 2c-13 17-14 55-12 76 1 8 3 17 4 26-4-8-6-16-8-25-6-29-5-64 12-89 8-12 21-20 36-23z"></path><path d="M284 952c1-24 14-98 32-113 4-3 7-4 12-4 5 1 10 4 13 8s4 8 5 12v7c0 1-1 2-1 2 1 1 8 3 9 3 17 8 24 25 22 42-2 8-5 16-10 23-8 10-18 18-26 28-27 40-23 99-5 142 8 19 18 36 30 53 11 15 22 29 35 42 21 22 47 40 72 56l-1 1c-21-13-42-26-61-41-15-12-29-26-41-40-11-12-21-25-29-38-13-21-23-45-28-69-8-34-8-76 11-106 4-6 8-12 14-17 9-8 28-17 25-31 0-3-2-4-4-5-6-1-10 2-14 5-25 21-33 52-40 82 0-25 12-52 24-73l10-17c3-5 8-11 8-17 0-2 0-5-2-7-1-2-3-2-5-2-4 1-8 7-10 10-4 7-7 15-10 22-23 49-29 105-16 158 9 33 24 59 44 87 11 16 23 31 36 45 12 12 26 23 40 32l-1 1c-14-9-27-19-39-30-14-13-26-30-38-45-10-15-21-30-28-47-8-16-14-34-19-52-4-18-6-37-6-55 0-30 3-57 13-85l9-21 10-20c3-4 6-9 6-14 1-4 1-5-2-8-2 0-3-1-5 1-7 4-12 16-14 23-10 24-19 48-22 74v2c-3 0-1 1-2 2l-1-6zm71-197c26-3 52 2 76 14 28 14 51 41 61 71 7 22 8 46-3 67-7 13-18 24-32 28-10 3-22 1-31-4s-16-13-19-24c-3-10-2-23 4-32 4-5 10-10 17-11 7-2 14 0 20 4 9 6 11 14 12 24l3-8c2-4 2-8 3-13 1-21-7-42-22-57-22-25-53-37-86-38-38-2-71 8-99 35-7 6-12 15-19 21 3-9 10-18 16-25 25-31 59-49 99-52zm-44 49c6-1 12-1 17 0 15 1 30 8 41 18 20 19 23 40 23 67 0 12 0 24 8 34 10 13 27 16 42 18h-1c-5 2-15 1-20-1-5-1-9-2-14-4-30-17-20-54-29-81-4-14-13-25-26-31-17-9-39-8-57-3-16 6-29 16-39 29-2 3-5 6-6 9l7-2c8-1 17-1 23 4 6 4 9 11 10 17s-1 9-5 14c-4-6-5-14-11-18h0c3 6 8 17 9 24 0 6-1 12-1 17l-3 23c-1 21-1 43 1 63 3 27 10 54 18 80 6 16 12 33 21 49 5 10 12 20 18 29v2c-8-12-16-24-23-37-34-63-53-137-49-208 1-2 1-2 0-4v2l-1 4c-6 29-2 59 3 87 3 15 6 31 11 46 10 31 23 61 38 90-8-8-14-20-19-30-25-43-45-92-50-142-4-31 0-71 20-96-5 3-9 9-12 14-27 45-15 97-3 144-5-9-9-20-12-30-4-13-8-27-10-41-3-20-2-40 0-61-1 2-1 1-1 2l-1 4c-3 14-4 29-3 42 1 46 18 88 35 129-15-22-30-43-38-68-13-39-18-86 1-123 2-4 4-8 7-12 4-4 8-7 10-12l13-21c14-20 33-32 58-36zm152-547c6 0 12 1 17 2 21 4 39 19 50 36 5 9 10 18 14 28 14 29 21 61 20 93-1 17-5 35-8 52l-7 28c-1 4-3 9-4 14v1h-1c0-2 1-5 2-8l3-22c6-40 7-83-5-122-2-8-6-20-14-23-2-1-5-2-8 0-2 1-4 3-4 6-3 9 9 24 14 33 9 16 17 36 18 54 0 8 0 15-1 22-1 5 0 10-1 14-1-10-1-20-3-31 0-3-1-6-2-9 0 5 1 10 1 14 2 17 3 36-1 53-2-21-2-45-8-65l-2-4c0 6 2 13 3 19 3 16 5 33 5 50 1 6 2 12 0 18-1-5-1-11-2-16-1-9-3-19-6-27-12-40-48-71-84-90h1c13 5 25 12 36 20 8 5 16 13 24 16 2 0 3-1 5-3 1-2 1-3 0-5-5-12-36-26-47-31l-32-9c-43-9-83 1-120 25h-1c5-5 10-8 15-12 46-31 112-31 160-5 4 2 8 4 12 7 5 4 12 12 18 13 2-1 3-2 4-4s1-4 0-6c-2-5-7-9-10-12-12-11-26-19-41-25-15-5-29-7-44-8-16 0-31 0-46 4-19 4-35 12-52 20 29-25 70-39 110-33 5 1 11 1 16 3 7 2 27 10 33 7 2-1 3-2 4-4 0-3-1-5-3-7-6-5-16-8-24-9-39-9-79-3-113 18-8 5-15 10-22 17-1 1-7 8-9 8 6-9 14-17 21-25 16-16 34-31 55-41 7-3 14-5 22-7h-2-6c0-1 1-3 2-4 13-16 28-25 48-28zm656 639l6-1c27-1 55 8 75 27 22 21 30 48 31 77 0 17-2 35-6 51-11 51-37 99-72 137h-1c39-51 63-116 66-181 0-6 2-17-3-22-2-1-2-1-5 0-1 2-2 3-3 5-1 5 0 12 0 17 0 9-1 19-1 28-6 50-26 106-57 147-11 15-25 29-41 41h0c13-14 26-27 37-43 29-42 44-94 49-144 2-19 3-39-1-58-4-21-15-44-33-56h-1c15 12 22 28 26 46 5 28 4 58 0 86-11 68-43 130-100 172 6-9 16-16 22-24 47-54 76-131 71-203-2-18-6-35-13-51-3-6-6-12-11-16-2-2-6-3-8-2-2 0-4 1-5 3s-2 5-1 7c2 6 6 12 8 17 4 9 7 20 9 30 13 60-3 116-36 167h-1c12-23 23-46 29-72 8-38 9-84-7-120-3-5-7-10-10-15 2 10 3 20-3 30-4 8-12 12-20 14-10 2-20 0-27-6-9-6-15-16-17-27-2-13 1-26 10-37 10-14 26-22 44-24zM509 999h3s1 0 1 1l-1 26c1 27 8 50 23 74l9 13c1 2 3 5 4 7 1 3-2 19-2 23 0 11 0 22 2 34 3 17 8 36 15 52 4 9 9 18 13 27-4-4-7-9-10-14-25-36-35-81-38-125 0-4-1-8-4-10-2-2-2-1-3-1-1 1-2 2-2 3-3 4-2 12-1 17 1 24 6 47 14 70 21 60 73 105 129 132v1c-18-8-34-16-50-27-35-24-65-57-83-94-11-22-17-46-20-69-1-8-1-16-1-25 0-8 2-18 0-26-1-2-1-2-3-3h-2c-1 2-2 3-2 5-2 6-1 15-1 22 1 40 10 79 30 114v1c-9-12-18-25-24-39-15-36-19-81-14-120l4-25c1-5 3-13 3-19-3 7-5 17-7 25-9 37-12 74-5 112 4 23 15 44 28 63 19 28 42 50 69 72l-5-3c-12-7-24-17-34-26-49-43-80-104-80-170 0-8 0-16 1-24 1-6 3-13 4-20 1-2 3-7 2-9-4 10-7 20-9 31-6 39-5 81 11 117 7 15 16 29 25 42v1c-20-23-35-48-45-77-3-9-5-19-7-28-1-4 0-13-2-17 0 0-1-1-2-1l-1 1c-4 7 2 36 4 45 9 44 41 83 76 110 15 11 30 21 46 31-5-1-10-4-14-6-17-9-33-19-48-31-43-34-83-85-89-141-3-30 7-65 25-88 17-21 43-31 68-34z"></path><path d="M827 176c25-1 51 2 75 8 49 13 90 38 129 70 44 35 80 76 109 125 7 13 13 26 20 39 8 19 16 39 17 60 1 8 1 17-2 25-3 13-11 25-23 32-9 5-21 6-32 3s-20-11-26-22c-5-11-7-24-3-35 2-6 7-12 13-15 4-2 12-2 17 0 9 4 15 13 18 22h0v-3c-2-51-29-99-60-138-11-13-22-26-34-37-62-55-145-90-229-85-30 2-62 7-90 20-17 8-34 21-47 35-12 12-22 26-33 38h0l16-24c18-25 41-47 69-60 15-6 31-10 47-13 89-15 178 11 250 63 16 12 32 25 46 40 23 25 42 53 57 83 11 22 22 50 20 76-1 6-3 12-5 18 4-4 6-14 7-20 2-13 0-26-3-38-9-34-28-66-49-93-56-76-142-124-235-137-21-3-41-4-62-2-38 2-72 10-103 34-8 6-16 13-23 21-4 4-8 9-12 13v-1c4-7 11-14 16-20 13-16 29-31 47-40 22-10 44-14 68-16 42-3 85 1 126 13 28 9 55 21 80 34 1 1 1 1 2 0-56-35-118-52-183-53-17 0-33 1-49 4-11 2-21 4-32 8-28 10-50 30-67 54h-1c5-9 12-17 19-25 22-25 54-46 87-55 16-4 32-5 48-6zm199 912h1c15-2 30 5 42 15 13 11 22 26 24 44 2 37-17 77-41 104-19 21-41 35-66 47-57 27-119 39-182 42-14 1-29 0-44 0-55-3-110-16-151-54-33-30-54-80-56-124-1-23 4-39 20-56 2 10 5 20 9 29 15 32 47 58 77 75 31 18 69 28 105 23 12-2 23-5 35-8 25-7 33-2 49 17 5 6 11 12 17 16 11 6 23 5 35 2 17-5 32-15 46-26 23-19 42-39 56-65 3-6 8-15 6-22-1-2-2-3-4-3-4-2-7 1-10 5-6 9-11 21-16 31-11 19-23 36-38 51-6 7-13 14-20 18 5-7 12-12 18-19 19-22 30-48 39-75 5-16 9-32 18-46 7-11 17-18 30-21h1z"></path></g><path d="M654 1234c3 0 10 5 13 7l21 11c45 22 93 24 142 18 3 0 9-2 11 0v3l-2 2c-8 2-17 3-25 4-43 6-86 0-124-21-13-7-25-15-36-24zm-79-89h1l14 20c25 31 60 50 97 64 26 10 53 18 80 22 20 4 40 5 60 7l-2 1c-40 7-86 4-124-10-52-18-101-54-126-104zm454-8h0c3 0 4 0 6 3 2 2 1 7 0 10-8 41-38 74-71 97-47 32-101 47-157 49-20 1-41 1-61-3-22-5-44-10-64-20-38-18-71-50-95-85l-4-8h0c33 47 79 83 134 100 36 11 72 13 110 9 36-4 72-13 103-30 34-18 67-47 82-83 5-10 7-21 11-32 1-2 2-6 5-7h1zm35 44c2-1 3-1 5 0s3 2 3 5c1 4-2 10-3 14-8 17-19 32-32 46-30 31-70 50-110 63-45 14-91 21-137 22-44 0-91-7-129-28-15-9-28-20-41-32l-6-7h0c14 13 29 24 47 33 34 18 73 26 111 27 62 2 125-11 182-37 25-12 51-26 70-46 8-9 15-18 22-28 4-6 7-13 10-20 2-3 4-9 7-11l1-1zm-16-29h3c2 1 3 1 4 2 1 2 1 4 1 7-1 7-4 14-7 21-13 29-32 53-57 72-21 17-45 29-70 39-53 21-115 30-172 22-39-5-77-19-109-43-16-13-30-28-43-45l-8-11v-1l16 19c43 47 109 67 170 70 88 4 190-20 243-95 5-8 10-16 14-24 2-5 4-9 6-14 2-6 4-14 9-18v-1z"></path><path fill="#fff" d="M388 370c14 0 28 1 41 6 29 11 49 32 62 60 21 46 25 99 8 147-26 68-93 92-153 120-65 29-107 89-127 156-3 10-6 20-8 31-1 7-2 16-4 22-1-1-1-6-1-7 0-23 3-47 9-69 16-59 58-117 115-143 14-6 27-10 41-15s27-11 40-18c37-22 70-56 81-98 8-29 8-60 1-88-1-4-2-9-4-13 0 3 1 5 1 8 8 37 6 79-13 113-15 28-43 51-72 66-20 10-42 16-64 24-33 12-67 33-90 59-7 9-14 19-20 29 1-5 4-10 6-14 6-11 13-22 21-32 27-28 62-43 98-54 45-14 92-36 114-80 14-27 20-56 17-87-1-6-1-12-3-18-1 5 1 12 2 18 1 17-1 34-6 50-17 55-64 87-116 103-26 8-53 14-77 27-52 27-71 68-87 121l-3 12v1h0c1-19 8-39 14-57 9-25 22-50 43-67 15-13 34-22 53-28l38-10c27-7 53-17 76-33 13-10 25-21 35-34 19-27 28-66 22-99l-1-6c0 6 1 12 1 18 0 20-3 40-12 58-24 49-74 78-126 91-20 6-41 8-60 15-18 6-36 16-49 30-14 16-25 39-33 59-3 7-5 15-9 22v-2c1-4 3-9 4-13 4-13 9-26 15-39 14-31 35-56 69-64 19-5 38-7 57-11 29-7 58-21 82-39 29-23 51-56 55-94 4-28-2-61-21-84v1c5 8 10 18 12 28 10 33 6 70-11 100-29 51-84 80-140 88-22 3-45 2-66 12-13 6-24 17-32 29-3 4-5 9-8 12-1 2-3 3-5 3-1 1-3 0-5-1-1-1-2-2-2-4-2-11 8-26 15-34 18-22 49-32 77-31 14 0 27 2 40 1 8-1 15-3 22-5 30-10 60-27 79-52v-1c-8 9-16 17-26 24s-21 12-32 17c-16 7-31 14-49 15-19 2-39-3-54-15-16-15-24-38-26-59-3-44 14-87 42-120 20-23 47-44 77-53 10-3 20-4 30-5z"></path><path d="M367 406c18-1 37 5 52 16 16 11 25 28 28 47 5 32-7 61-25 86-21 28-52 41-86 47h-3c-19 2-38 0-53-13s-23-32-24-51c-2-31 4-64 24-88 22-25 54-42 87-44z"></path><path fill="#fff" d="M344 415h5c7 0 15 1 22 4 16 7 29 24 36 40 6 16 7 34 0 51-8 18-21 31-39 38-11 4-25 5-36 0-12-5-21-15-26-27-5-13-4-28 1-40 6-13 17-25 30-30 9-4 20-5 29-2 5 2 11 5 16 7l-6-6c-9-8-21-11-32-10-19 2-37 14-49 28-12 16-16 37-14 56l1 1c1 8 3 16 7 23 7 13 21 21 35 25 5 1 10 1 14 3h-4c-16 0-33-5-44-16-12-12-15-31-14-47 0-25 12-45 29-62l17-11c13-7 29-10 43-6 16 5 25 16 32 30 0-2-1-4-1-5-6-14-15-24-28-29-17-7-36-4-51 3-21 10-38 30-46 52-8 21-9 46 1 67 8 17 21 29 39 35 26 9 53-2 76-14l1 1c-16 10-37 19-55 21s-35 0-49-11c-15-12-21-32-23-50-3-30 3-61 23-85 15-18 36-32 60-34z"></path><path d="M354 452c8 0 15 2 21 8 1 1 1 1 1 2l-12-2c-9-1-19 1-26 7-9 7-15 18-16 30-1 11 1 22 8 31 7 7 16 10 26 11l11-1h1c-2 1-4 1-7 2-11 1-23-1-32-8s-15-18-16-29c-2-12 2-25 10-34 8-11 18-16 31-17z"></path></svg>