<svg xmlns="http://www.w3.org/2000/svg" xmlns:v="https://vecta.io/nano" viewBox="120 31 1222 1397"><!--oldViewBox="0 0 1531 1533"--><style>.B{fill:#fefefe}.C{fill:#f1f0f1}.D{fill:#e2e1e2}.E{fill:#dededf}.F{fill:#323132}.G{fill:#363636}.H{fill:#545354}.I{fill:#181717}</style><path d="M765 110c20-1 40 0 61 1 76 4 152 20 222 51 34 15 67 34 96 56 63 48 113 114 142 188 12 33 21 68 25 103 2 27 2 54-9 79-12 26-36 46-62 56-34 13-95 19-129 3-22-10-39-31-48-54-8-22-9-50 2-72 7-15 20-23 35-28 0-34-7-70-19-102-5-13-12-26-21-37-16-19-39-33-62-43-66-29-143-29-210-3-25 10-49 25-70 43-35 31-59 72-77 114-16 37-27 76-34 115-15 72-19 145-19 217 0 46 2 93 9 138 6 43 16 86 32 126 8 21 18 42 31 61 27 41 66 76 112 95 67 29 142 29 210 2 26-11 51-25 72-44 34-31 58-71 76-113l12-34c8-30 15-59 36-84 13-16 33-28 55-29 22-2 43 5 60 19 19 16 33 41 35 65 1 20-4 39-9 57-18 53-50 101-87 142-30 33-63 60-99 85-95 63-207 102-321 108-182 9-367-51-502-173-33-29-62-62-86-99-60-89-91-196-96-303-7-140 22-283 98-402 19-31 41-58 66-85 97-108 227-181 370-208 34-6 68-9 103-11z"></path><path d="M155 871h1l1 13c1 2 1 4 1 6-2-3-3-15-3-19z" class="I"></path><path d="M213 1017h-1c-1 2-1 2-3 2 2 0 3 0 4 1-4 2-11 4-16 3v-2c5 0 11-3 16-4z" class="E"></path><path fill="#9b9a9b" d="M265 742l2-9h-13c3-1 12 0 13-1s1-5 2-6l1 5h0c2 1 1 0 2 1l-2 1-2 9h-3z"></path><path d="M633 1161c4-3 10-5 15-5 2 1 3 1 4 2-5 1-10 2-15 4-2 1-3 3-5 4v-1l2-3-1-1z" class="G"></path><path d="M340 498c0-6-9-13-8-19h2c3 3 7 11 8 16-1 1-1 1-2 3z" class="H"></path><path d="M479 895c0 1-1 2-2 3s-1 0-1 1l2-1 8-4 1-1c1-1 1-1 3 0-4 3-8 4-12 7-7 4-15 8-23 11 7-5 16-13 24-16z" class="C"></path><path d="M1167 1196c8 4 19 13 22 22 1 1 1 2 0 4v-1l-1-1v-1c-4-10-14-15-23-19l1-1h2l1 1v-1c-1-1-1-1-1-2l-1-1z" class="D"></path><path d="M387 529c-4 11-7 20-7 32-2-1-4-7-5-9l1 1c1-1 1-3 2-5l3-12c2-3 3-5 5-7h1z" class="H"></path><path d="M426 1060h-2c-6 3-11 6-15 12 0 1-1 2-2 3 0-2 1-3 2-5 4-7 11-12 19-15 6-1 10-2 15 1-6 1-11 2-17 4z" class="G"></path><path d="M403 258c2-3 5-5 8-7 3-3 7-6 10-8l1-1v1c-5 5-12 9-14 16-1 3-2 7-3 10l-1-2c-2 2-2 4-3 6 0 2-1 4-2 5l-2-2c3-4 4-9 5-14 1-1 1-3 1-4z" class="F"></path><path d="M1084 1261h2c-1 2-2 2-4 2l-3 1c-4 1-10 3-14 5-1 5-2 9-3 13 4 0 8 0 13-1 2 0 5 1 7 0h1v2h-3c-4 1-9 0-13 1-2 0-4 0-5-1-1-4 1-9 1-13l1-2v-2-1l1-1 2 1h1c5 0 11-3 16-4z" class="I"></path><path d="M888 242h1c3 0 10 3 12 5 0 3-1 5-3 8-2 1-3 3-6 3-2-3-1-9-2-13 0-1-2-2-2-3z" class="B"></path><path d="M853 232c-22 0-43 2-64 9 3-3 8-4 12-5 13-4 26-6 40-8l-1 1c-2 1-3 1-5 1l-5 1c-3 0-5 1-7 1 2 0 6 0 7-1h2 3c4 0 14-1 18 1z" class="D"></path><path d="M554 821l5-12c2 12-1 24 4 35-7 1-12 1-18 2l-8 2c2-2 4-3 6-4l15-2v-25h-1l-1 6-2-2z" class="F"></path><path d="M554 821l2 2c-1 4-4 10-7 14-2 2-5 4-6 7-2 1-4 2-6 4l-1 1c-3 1-5 2-7 3 3-4 7-6 10-10 6-6 11-14 15-21z" class="I"></path><path d="M556 823l1-6h1v25l-15 2c1-3 4-5 6-7 3-4 6-10 7-14z"></path><path d="M826 210c16-3 37-7 53-2l-47 6c-1-1-1-1-1-2l11-1c2 0 3-1 5-2l-1-1-2 1h-9c-4 1-6 2-9 1z" class="G"></path><path d="M443 1056c2 1 4 1 5 2h-4c-5-1-12 3-16 6-8 6-12 13-15 22l-3-1c3-10 7-17 16-25 6-2 11-3 17-4z" class="C"></path><path d="M746 1349h51c7-1 15-2 22-2h1c-4 2-10 2-15 2-18 2-35 3-53 3-6 0-14 1-19-1 4-1 9 1 13-1v-1z" class="D"></path><path d="M542 1291c14 9 26 21 40 30 9 5 20 10 30 14-3 1-7-2-10-3-13-5-27-11-39-18v-1-1l9 4c-3-3-6-5-9-7l-22-18h1z" class="H"></path><path d="M220 949c1 0 1-1 1-2l1 1c3 8 4 18 5 27l3 1-2 2 3 15c0 5-1 13 1 19 1 3 2 7 2 11h-1c-1-4-2-8-2-12 0-2-1-5-1-7l-4-25h-1-2l-2-1 4-2c0-2-1-5-1-8l-4-19z" class="E"></path><path d="M633 1161l1 1-2 3v1l-6 10c-2-1-4-3-6-4-15-7-27-1-40 2 1-1 3-2 4-3 7-4 18-7 27-5h1c4 1 8 3 12 6 3-5 5-8 9-11z" class="F"></path><path d="M306 751l1 1c4 5 6 11 9 17h2l-1 1c2 9 4 18 5 27 1 6 1 13 1 19l15-1c-5 2-10 2-15 4h-1l-17-1h-2-1c-3-2-10-1-13-3 1-1 3 0 4 0l21 2c2 0 5 0 6-1s1-2 1-3c1-3 0-7 0-11-1-18-6-35-15-51zm230-1c-1-14-1-27-6-40h0c3 7 5 13 7 20 4 21 4 46-3 66v1c-2 6-5 11-8 16 0-2 2-5 2-7 2-4 4-8 5-12 2-5 2-9 3-14v-6l-1 1c0-3 1-5 1-7 2-2 1-16 0-18z" fill="#b6b5b6"></path><path d="M265 742h3l-3 9c0 3 3 2 4 4h-5l-5 12c0-5 1-9 2-13-8-1-16-2-23 0-13 2-23 7-34 13 1-2 3-3 5-4 15-11 34-15 52-12l1 1 3-10z" class="D"></path><path d="M868 175c24-1 48 4 68 17v1c-16-9-32-14-50-16-1-1-7-1-8-1-13 0-24 1-36 4l-19 5c-3 1-8 3-10 3 18-7 35-13 55-13z" class="H"></path><path d="M523 787c3 4 2 9 1 13-4 22-17 45-35 58v-1c4-4 9-9 13-14 11-15 20-37 21-55v-1z" class="E"></path><path d="M524 660s-4-7-6-10c-8-12-17-24-27-35-5-6-11-11-18-15-2-1-4-2-5-4h0c6 3 12 6 17 10 10 9 19 20 27 30 6 7 12 15 17 23l-1-1c-5-3-8-10-12-14 1 3 4 7 6 10l3 5-1 1z" class="C"></path><path d="M348 470h18l3-27h1l-2 26c1 1 2 1 3 2-1 1-2 1-3 2-1 5-1 10-2 15 0 3-2 7-1 10l5 4c-1 0-1 1-2 0-2 0-3-1-5 0l-1 1-6 19c-1-1 1-5 2-7 1-4 3-10 3-15l-3-1c1-1 1-2 1-3 2 1 1 1 3 0l3-24h-16c-1-1 0 0-1-2z" class="E"></path><path d="M1233 978c5-1 11 0 16 2 12 5 21 17 25 28s6 24 5 35c-1 3-1 6-2 9v-1-8c0-16-1-31-10-44-6-8-15-16-24-18h-1c-9-2-16 0-24 4 5-4 8-6 15-7z" class="B"></path><path d="M342 495l1 2c5 0 11-2 16-1 0 1 0 2-1 3-5-1-10 0-14 1l6 19c1 2 1 3 1 5-3-8-5-16-9-24-8 3-18 9-23 16-6 9-11 18-11 29l-1 9c-1-14 1-26 8-37l1-1c-5-6-13-8-18-14l19 12c7-7 14-12 23-16 1-2 1-2 2-3z" class="D"></path><path d="M1101 1162c18-22 40-43 52-70 3-6 3-13 6-19 0 5 0 11-1 16-3 11-14 24-21 33-2 4-6 8-7 11l-1 2c0 2-4 6-6 8-1 2-2 3-3 5l-2-2 2-3h0l-12 13c-2 3-3 6-7 6z" class="C"></path><path d="M1248 1012h1c4 7 4 16 4 23 0 33-25 67-47 89h-3c12-11 22-24 30-37 8-15 18-37 18-54 0-8-1-14-3-21z" class="F"></path><path d="M1168 1062c2 1 5 1 7 2 4 2 8 6 10 10 2 7-1 13-4 20l-1-11c-1-3-2-6-5-8-5-5-15-3-22-3h0c5-5 8-8 15-10z" class="B"></path><path d="M309 889c1 0 1 0 2 1-5 4-9 9-12 15-26 44-20 112-7 159h-1l-6-25c-3-11-3-22-4-34-2-12-2-27-1-39 1-4 1-8 2-12 2-16 6-30 13-45 3-6 7-12 12-18-9 2-15 4-23 10l-1-1c8-7 16-10 26-11z" class="F"></path><path d="M349 472c-16 3-32 9-45 19-3 3-5 6-7 9-12 16-13 31-15 50l-1-4c-2-16 4-37 14-50 12-16 33-23 53-26 1 2 0 1 1 2z" class="B"></path><path d="M497 390h-7l-3 4c0-1 0-2 1-4h0v-1c-2-1-5-1-7-1-5 0-15-1-20 0-1 1-1 1-2 1l-21-1c13-4 29-3 43-3-6-14-13-26-14-41l-18-1 18-1v-6h1l1 6c3 1 7 1 10 1-3 1-7 1-10 1 0 5 1 10 3 14 2 5 9 26 13 27 3 1 5 1 7 0v1l8 2-1 1h1l4 1c-2 1-1 1-2 1-2-1-3-1-5-1z" class="C"></path><path fill="#b6b5b6" d="M371 471c10 2 15 6 22 13 2-6 3-12 5-18 0 7-1 13-3 19 4 5 7 9 10 14l9-11-7 13c3 6 8 12 12 18l4-1c-1 1-3 1-3 3 1 3 4 7 4 9l-1 2c-6-9-11-19-18-28-3 2-5 6-7 8l-1-1c2-2 4-5 5-8l-8-13-4 8 2-11v-1c-6-6-15-13-24-13 1-1 2-1 3-2z"></path><path d="M1135 276l1 1c2 2 3 6 4 8 8 20 11 40 10 60 0 18-3 38-16 51-5 4-9 5-15 5h-3l1-1c2 0 5 0 7-1 8-3 13-10 16-18 5-12 7-24 7-36 1-25-3-46-12-69z" class="B"></path><path fill="#9b9a9b" d="M362 503l1-1c2-1 3 0 5 0 1 1 1 0 2 0 9 5 15 10 21 18l6-9 1 1c-1 2-6 9-6 11 7 9 12 17 16 28 5-2 10-3 15-4h2 3l-20 5 9 27c1 2 0-1 1 2l1 1c0 3 1 6 1 9-1-3-2-7-4-10l-9-28a54.5 54.5 0 0 0-24 12c-1 0 0 0-2 1v-2c8-6 17-9 25-13-5-10-8-18-15-27l-4 5h-1l3-5-1-2v-1c-1-3-3-6-5-7v1l1 3c1 3 0 5-2 8h0v-9c-5-6-13-10-20-14z"></path><path d="M858 190c12 1 23 1 35 4 6 1 12 3 18 4h2l1 1c2 1 3 2 4 4l-1 1c-2-2-4-4-7-5-9-3-19-4-29-5-29-3-57 0-84 12-8 4-16 8-23 12-5 3-19 14-23 14l1-1 12-9c16-11 35-21 54-26 13-4 26-5 40-6z" class="E"></path><path d="M178 563c1 0 1 0 1 1 1 1 1 5 1 7 1 5 4 11 6 15 4 9 11 19 18 25v1l-20-3c-6 0-16-3-21-1l-7 3c6-4 9-5 13-11 3-10 5-20 8-29v7c-2 9-4 19-10 27l-1 1 13 1 1-3c4-8 3-16 1-24 0-2-1-6-2-8-1-3-1-6-1-9z" class="F"></path><path d="M185 590l8 11c2 2 5 5 6 8h-3l-14-1c2-6 3-12 3-18z"></path><path d="M826 210c3 1 5 0 9-1h9l2-1 1 1c-2 1-3 2-5 2l-11 1c0 1 0 1 1 2h-2c-9 3-18 5-28 9-8 3-16 8-24 11l-1-1-19 11-1-1c3-5 10-5 13-11h0c11-8 26-14 40-18 5-2 10-4 16-4z" class="F"></path><path d="M399 278c-1 2-1 4-2 6l1 1c2 1 4 1 5 0l2-1c1 1 2 2 3 2h2l1 1c4-5 4-14 5-21 2-8 7-24 14-29l1 1c-11 15-14 31-16 49h11c0-12 1-25 4-37 1-1 1-2 2-3h0l-4 27c-1 5 0 10 1 15h0c-3-1-6-1-9-1s-6-1-9-1c-6 0-12-1-18 0-7 0-15 2-23 3l4-2c5-4 8-9 12-14 6-5 12-10 17-16 0 1 0 3-1 4-1 5-2 10-5 14l2 2z" class="G"></path><path d="M397 276l-3 10h-14c4-6 9-12 15-17 2-3 4-5 7-7-1 5-2 10-5 14z"></path><path d="M778 234c-12 7-24 15-35 24-15 14-27 29-39 46l-19 25-1-1c4-8 9-16 13-24 18-28 43-56 73-72-3 6-10 6-13 11l1 1 19-11 1 1z" class="G"></path><path d="M706 312c4-5 8-9 12-14 11-12 21-24 35-33 16-11 39-20 59-16 10 3 16 7 22 16-11-9-22-13-37-12-33 2-57 26-77 49l19-13c13-7 30-13 45-9-18 2-30 6-45 15 1-2 1-3 3-4l10-5c2-1 3-1 5-2 1-1 4-1 6-2h1c1 0 1 0 2-1h1 1c-6 0-11 2-16 4s-11 5-16 8l-10 7c-3 2-4 3-7 4l-1-1v-1l1-2-3 3c-3 3-6 8-10 9z" class="C"></path><path d="M410 1085l3 1c-9 32-3 66 13 95 27 47 69 89 116 118 6 4 14 10 21 13v1l-32-18a340.43 340.43 0 0 1-100-100c-8-13-15-26-20-40-6-23-6-47-1-70z" class="B"></path><path d="M508 511c-1-3-1-6-1-9l-1-13-16-2c1 7 1 14 1 21 5 1 9 2 13 4l-1 1c-3-1-6-2-10-3h-5-17c1 3 6 15 5 17-3-5-4-11-6-17-6 0-14 3-19 2l18-4c-2-5-2-11-2-16-1-3 0-6-1-8-2-1-4-2-5-3 3-1 10 2 13 2l23 3c8 2 17 4 25 5 9 1 18 1 26 0 2-1 4-1 7-1-5 3-11 5-17 5-9 0-20-3-29-4-1 2-1 5-1 7l2 1-2 1v11z" class="H"></path><path d="M468 484l20 3 1 4c1 5 1 12 0 18l-18-1c-3-6-3-17-3-24z"></path><path d="M541 1291c-32-25-64-60-83-97-15-30-29-75-18-108 4-11 9-17 19-22l-7 8c-12 15-12 37-10 56 5 47 30 87 60 123 12 14 25 28 39 39l1 1h-1z" class="C"></path><path d="M368 473c9 0 18 7 24 13v1l-2 11 4-8 8 13c-1 3-3 6-5 8l-6 9c-6-8-12-13-21-18l-5-4c-1-3 1-7 1-10 1-5 1-10 2-15z"></path><path fill="#727373" d="M523 788c-5 3-10 6-14 10-3 4-5 11-7 17-3 12-5 30-15 39h-1v-1c7-5 11-19 13-27l6-24c-6 5-14 12-23 13h-1c-2 3-2 6-3 9 0-3 1-5 1-8l-2-1c1-1 3-1 4-1 6-2 12-4 17-9 2-1 7-5 8-7v-7l2-15-3 2c-6 4-12 6-19 8l-2 3v-2c-2-2-7 0-9 0l-1-1c4-1 8-1 11-3v-17l-7 2c-4 0-11 1-14-2h0 2c5 1 9 1 14 0h1c1 0 2-1 3-1l2-2c1-2 1-6 1-9 0-5 0-10 2-15v-4c1-1 1-2 2-3 0 1-2 8-2 9-1 7-1 15-2 22 7-3 12-7 18-11h1c-3 5-15 11-20 14v18c9-2 15-5 23-10v-16c-1-3-1-6-1-9 0-5 0-8-1-12-1-8-5-14-12-19-4-2-11-3-15-1h-4l4-1c1-1 1-1 2-1 8-1 13 1 19 6 3 3 7 6 7 11 0 4 2 8 3 12l6-7h1l-7 11c-3 3-1 20 0 24 3-4 10-7 13-12 2-3-1-39-1-44-1-3-3-9-3-12 9 13 7 37 7 53l9-7c1 2 2 16 0 18v-1-15c-4 3-8 5-11 10h0c1 6 1 15-1 21 2-1 3-2 5-3v1l-6 6v1z"></path><path d="M524 762c-2 7-1 15-2 22 0 3-10 10-13 12-1 1-1 1-2 0 0-4 0-8 1-12 0-2 0-6 1-8l3-3 12-11z"></path><path d="M510 649c6 7 11 14 14 22 11 18 18 38 23 59 6 25 9 49 2 74-5 16-13 32-23 44-14 17-31 29-49 42 8-10 19-17 28-26s17-18 23-28c15-23 22-53 18-80-3-15-7-28-12-42-1-6-3-12-6-17h0l1-2c-2-6-5-11-8-16 1-2 0-3-1-5h0c-2-6-7-14-13-18l1-1h1l-2-4 3-2z" class="B"></path><path d="M510 649c6 7 11 14 14 22l-3-3c0-1-1-2-1-3-2-3-4-7-8-10l1 2c1 1 0 1 0 2l1 1c3 4 7 9 6 14h0c-2-6-7-14-13-18l1-1h1l-2-4 3-2z" class="D"></path><path d="M424 739c7 4 15 8 20 14 8 8 15 20 20 30 11 26 2 57-8 81l-2 3v-1c-1-1 2-7 2-8 3-8 5-15 6-22 1-6 1-11 0-16-4-17-19-25-29-39-10-12-11-26-9-42z" class="B"></path><path d="M586 338c-11-6-24-8-37-10-2-1-10-1-11-3 16-1 33 5 48 9 0-9-1-19-5-28 0-2-1-4-3-5-1-1-1-1-2-1v-2c0-2-1-3-2-5 2 1 3 2 4 4 10-1 20-2 29-5-10-13-19-24-33-32l-2-1h0c0 6 1 18-3 23 0-2 1-5 1-7 1-4 2-13 0-16-8-5-17-7-26-9-3-1-7-2-10-3 12 1 23 4 35 8v-7l1-1 1 8c9 5 18 12 25 19 3 4 10 15 13 15l4-1v1l-4 3 6 23c1 7 1 15 0 22 0 2-2 7-1 9v1c3 3 7 5 10 8l-11-5-4 8v-1l2-8c-7-5-15-8-22-11h-3z" class="C"></path><path d="M605 295l1-1c4 3 6 12 7 16 2 9 3 28-1 36l-17-8c-1 0-6-2-6-3-1-1-2-13-2-15-2-8-4-14-7-21 8-3 16-2 24-4h1z"></path><path d="M479 895c3-3 8-5 12-8l22-14c12-7 31-16 46-11 5 1 9 5 11 10 3 6 5 14 2 21-2 6-6 11-12 13-3 2-10 2-14 0-3-2-3-12-4-16-2-4-5-7-9-9-14-5-31 6-43 12-2-1-2-1-3 0l-1 1-8 4-2 1c0-1 0 0 1-1s2-2 2-3z" class="B"></path><path d="M536 870h6c5 0 10 0 14 5 2 2 3 4 3 7 0 2-2 3-3 5-3 0-3 0-5-1l-5-5c-6-7-14-7-22-8 4-1 7-2 12-3z"></path><path d="M441 715c0 2-2 5-1 7 0 4 8 13 11 17 2 3 3 7 4 10-26-11-50-27-61-55-7-17-2-31 4-47l1 2c3 10 8 18 13 26 1 2 0 4 1 6 0 1 1 2 1 2h1c2 4 8 10 9 14l1-2c-1-2-1-3-3-4h2c2-1 3-2 4-4 0 2 0 3-1 5 0 1 1 2-1 3l2 3 2 3v4c2 4 3 10 6 12 2-1 3-2 4-3l1 1z" class="B"></path><path d="M414 683h1c2 4 8 10 9 14-1 1-2 4-3 6-4-6-5-13-7-20z"></path><path d="M1155 384h1c6 10 8 21 6 33-2 13-8 30-20 38-5 4-11 5-18 4-4-2-6-4-10-7 1-18 10-35 21-48 6-7 13-13 20-20z" class="B"></path><path d="M1152 397l1 1c1 3 1 6 1 9 1 5-1 10-3 15-4 9-8 16-14 23l-2 1h-1c7-11 13-21 16-34 1-5 1-10 2-15zm-8 5l1 1c2 9-6 18-10 25l-10 17c1-17 10-29 19-43z"></path><path d="M841 228c10-2 20-4 30-7 18-6 41-21 60-9 8 5 10 13 12 22-6-8-14-13-25-15-5 0-11 0-16 1 11 2 21 4 28 15 5 8 7 17 5 27-1 7-5 11-9 16 0-10-3-20-10-28-10-10-29-18-43-18h-6l1 1-1-1h-1-13c-4-2-14-1-18-1h-3-2c-1 1-5 1-7 1 2 0 4-1 7-1l5-1c2 0 3 0 5-1l1-1z" class="B"></path><path d="M875 226c8-1 16-1 24 0 10 2 21 4 26 12 6 9 8 19 6 29l-1 1c0-11-3-19-10-27-11-14-29-14-45-15z"></path><path d="M182 836l7-2v-1c-16-25-19-54-12-83l1-4h1c-5 26-4 58 12 81 7 10 18 19 30 21s25-2 35-9c9-7 15-17 17-28 1-10-1-20-7-28-6-9-15-14-26-15-8-2-18 1-25 7-5 4-9 10-10 17 0 6 1 11 5 15 5 4 10 6 16 5 5 0 9-1 13-4 2-3 3-6 3-9 0-2-2-4-4-5l-1-1c-2 2 0 4-3 6-3 0-3 0-5-2-1-2-3-5-2-8l4-4c4 0 7 0 10 2 4 3 6 8 7 13 0 5-1 9-5 13-5 5-12 7-19 7s-14-3-19-9c-5-5-6-12-5-19 1-8 6-16 12-21 10-7 23-9 34-7 11 1 22 8 28 17 7 10 9 22 6 33-2 12-9 24-19 31-11 7-27 12-41 9-8-1-14-5-20-10-2-1-7-7-9-8-1 0-4 1-5 1l-4-1zm404-498h3c7 3 15 6 22 11l-2 8v1c-3 12-9 24-15 35 6 4 13 7 18 12h0c-6-3-13-8-20-9l-8 17c-1 3-3 6-4 9 8 6 19 12 23 20-5 16-20 33-35 43-6 4-13 7-18 13l-1-1c2-7 18-13 24-18 13-9 21-22 29-35-8-7-15-13-24-19l-21 36c-3 5-7 9-10 13-3 5-7 11-11 15 5-9 11-19 17-28 8-12 17-23 23-37-8-6-18-10-27-15-4 6-6 12-9 18-4 6-7 12-10 18l1 1v2c-2 0-2-2-4 1-6 10-10 22-20 30l-1-1c8-10 15-20 20-32l-7-3c3 0 5 1 8 2l20-36-25-11c-5 8-10 17-15 26-3 4-4 7-8 10l21-37-23-7c2 0 3 0 5 1 1 0 0 0 2-1l-4-1h-1l1-1 22 6 17-27c-14-8-29-14-44-21 16 4 31 11 45 19 3-3 6-8 9-12l12-12 1 1c-6 8-14 15-19 24l22 13c5-5 9-10 13-16 4-8 5-16 8-25z" class="B"></path><path d="M539 369h2c7 2 16 9 23 13l-16 24-24-11 15-26zm27 14c8 3 17 8 25 12-5 9-8 18-14 26l-26-15 15-23zm20-45h3c7 3 15 6 22 11l-2 8c-4 12-10 25-17 35-8-3-16-7-24-12l11-16-1-1c4-8 5-16 8-25z"></path><path d="M586 338h3c-2 10-5 18-10 26l-1-1c4-8 5-16 8-25z" class="D"></path><path d="M213 1017l2-2c-1-10-4-21-7-30-6 1-19 6-24 4l1-1 22-6c-4-10-7-20-12-30l-20 6-1-1c5-4 15-5 21-7l-8-22c-1-1-5-11-5-11h-3c-4 1-13 3-16 1v-1l19-2-3-9c-1-2-4-11-5-12s-5 0-7 0-4 0-7-1c5-1 9-1 13-2l-9-23-11 1c3-1 7-2 10-4 0-3-5-22-6-22-2-1-3 1-5-1 1-2 1-1 3-1l2-2c0-1-1-5-1-6 0-7 0-14 3-21-1 10-1 18 0 27l23-3 4 1-26 5 6 23 22-5 1-20v-1c3 3 1 16 1 21 7-1 12-3 19-4 2 9 5 19 10 28 6-2 11-4 16-6l-1-15c-1-2-1-3-1-5 1 1 1 2 1 4l3 15 10-4-10 7c1 12 0 24-2 36 0 1 0 2-1 4v4c-1-2 0-6 0-7v-1c1-4 1-8 1-11 1-9 1-17 0-25l-15 6c7 15 12 27 13 43 0 3-1 7-2 10-2 4-5 5-8 7l-1 2-1-1c0 1 0 2-1 2l4 19c0 3 1 6 1 8l-4 2 2 1c-3 1-11 3-12 5l8 31 13-4c-4 3-10 5-13 7l9 31 9-3c-2 3-6 4-8 5l13 39h8l-8 3 15 39c-6-7-11-19-14-28-1-3-2-7-3-10-2-3-5 0-7-3 2 0 3 0 5-2l-8-23c-2-5-3-10-5-14l-12 4-1-1v-1h1c4-1 8-3 11-4l-8-30h-3c-1-1-2-1-4-1 2 0 2 0 3-2h1z" class="C"></path><path d="M216 887h2c4 6 6 11 8 17-4 4-11 5-16 6l-11-19 17-4zm-21 5h2c4 5 8 13 11 20l-16 3h-6c-2-2-3-5-4-8l-5-13 18-2zm9-34h3l11 26-16 4h-3c-5-8-7-18-9-26l14-4zm7 55c5-2 11-4 16-7 3 11 4 21 3 32l1 1c-2 4-5 5-8 7l-1 2-1-1c0 1 0 2-1 2l-1-3h-2v-1l1-1c1-3 0-6-1-8-2-8-4-15-8-22l2-1z"></path><path d="M209 914l2-1 12 29c2 0 3 0 5-1 0-1 1-2 2-3l1 1c-2 4-5 5-8 7l-1 2-1-1c0 1 0 2-1 2l-1-3h-2v-1l1-1c1-3 0-6-1-8-2-8-4-15-8-22z" class="D"></path><path d="M186 863h2c3 3 6 21 8 26-6 2-13 2-19 3l-10-24 19-5zm31 83h2l1 3 4 19c0 3 1 6 1 8l-4 2c-3 1-7 3-11 3l-11-29c4-3 12-3 17-5l1-1zm0-1l-19 4-12-31c8-1 15-3 23-4 4 7 6 14 8 22 1 2 2 5 1 8l-1 1z"></path><path d="M448 636c6-2 11-3 16-4 4-1 8-1 12-1v-1l1 1c1 1 4 1 6 2 5 1 10 2 14 5 5 3 9 7 13 11l-3 2 2 4h-1l-1 1c6 4 11 12 13 18h0c1 2 2 3 1 5 3 5 6 10 8 16l-1 2c-9-7-19-12-31-14l-1 1c0 2 0 3 1 5 2 1 6 2 7 4l-10-3c-5-1-15 2-19 5-10 6-16 19-19 30 0 2 1 6 0 8-2-7-7-15-12-21l-3 3-1-1c-1 1-2 2-4 3-3-2-4-8-6-12v-4l-2-3-2-3c2-1 1-2 1-3 1-2 1-3 1-5-1 2-2 3-4 4h-2c2 1 2 2 3 4l-1 2c-1-4-7-10-9-14h-1s-1-1-1-2c-1-2 0-4-1-6 7-12 13-24 26-33 3-2 7-4 10-6z" class="C"></path><path d="M481 683c4 0 7-1 11 0 1 2 2 3 3 5l-1 1h-11c-2-1-2-3-3-5l1-1zm-51 22c2-1 3-3 5-4 3 2 5 4 7 7-1 2-2 4-2 6-1 1-2 2-4 3-3-2-4-8-6-12zm43-20h3c3 1 3 3 4 5-3 2-7 5-10 7l-2 2-1-1-3-8c3-2 6-4 9-5zm8-17h6c2 1 2 3 2 5 1 1 2 4 1 6l-11 1c-1-3-3-8-2-10l4-2zm-8 3h0c2 2 3 7 3 10l-12 5h-2c-1-3-3-7-2-9 4-3 8-5 13-6zm7-5l-3 1-1-1c0-6 0-11 1-16 4 0 8-1 12 1l-1 14-8 1zm28-11c-6-6-21-7-29-7v-12c5 1 10 2 14 4 6 3 10 6 14 11l2 4h-1zm-52 25h1c2 1 3 6 3 8-5 5-12 11-16 17v1l-6-8c4-9 10-13 18-18zm5 12c1 0 1 0 2 1 2 2 2 4 2 7-2 4-4 9-6 14-1 2-3 7-5 9l-1-2-8-12c4-7 10-12 16-17zm30-19v-5c3-1 10 0 13 1 6 2 12 6 17 10 3 5 6 10 8 16-10-10-22-13-35-15-1-2-2-5-3-7z"></path><path d="M489 651h2c6 1 12 3 16 5 6 4 11 12 13 18h0c1 2 2 3 1 5-5-4-11-8-17-10-3-1-10-2-13-1v5h-2c0-2 0-4-2-5h-6l-1-2 8-1 1-14z"></path><path d="M489 651h2l-1 14 5 1c3 1 5 1 8 1 6 2 11 4 16 8l1-1h0c1 2 2 3 1 5-5-4-11-8-17-10-3-1-10-2-13-1v5h-2c0-2 0-4-2-5h-6l-1-2 8-1 1-14z" class="E"></path><path d="M440 671c5-5 10-11 17-14 5-3 9-5 15-6h3c0 3 0 7-1 10l1 6c-4 3-11 5-16 7l3-17h-1c-1 4-1 9-2 13 0 2-1 4-1 5-1 2-4 3-5 4-6 6-13 10-18 16-2 2-4 4-5 6l-2-3-2-3c2-1 1-2 1-3 1-2 1-3 1-5-1 2-2 3-4 4h-2c2 1 2 2 3 4l-1 2c-1-4-7-10-9-14l1-1c2 3 5 5 8 8 5-9 10-17 17-25-1 3-2 3-1 6z"></path><path d="M416 682c2 3 5 5 8 8 5-9 10-17 17-25-1 3-2 3-1 6-4 4-7 8-8 14l5 6-2 2c-1-1-2-1-3-2l-2-3c-1 3-2 5 0 8l1 1-3 1h0l-2-3c2-1 1-2 1-3 1-2 1-3 1-5-1 2-2 3-4 4h-2c2 1 2 2 3 4l-1 2c-1-4-7-10-9-14l1-1z" class="D"></path><path d="M450 639c6-2 11-3 17-3 0 1 1 2 1 4v-4c2-1 7-1 10 0v11c-5 1-11 2-16 4-6 2-16 9-21 14-7 8-12 16-17 25-3-3-6-5-8-8 0-3 1-6 1-8 6-16 18-28 33-35z"></path><path d="M510 499c17-1 28 1 41 12 5 4 10 10 13 16-5-5-11-11-19-11-3 1-6 2-9 5s-4 7-4 11c1 5 3 10 4 14l7 28c8 41 10 83 6 124-1 5-1 13-4 18-4-11-7-23-11-34-3-7-7-14-10-22l1-1-3-5c-2-3-5-7-6-10 4 4 7 11 12 14l1 1c1 0 4 6 5 7h0c-1-6-3-13-5-19-6-20-13-37-30-50-8-7-19-14-30-13h-2c-9 2-14 4-20 11v1c-1-2 0-3 0-5l1-1-25-58 1-2 8 15h4c-2 0-3 1-4 2 6 13 10 28 17 41 8-8 16-9 26-8 7 1 12 3 17 6 12 8 22 18 31 29-5-19-15-37-31-50-7-5-17-10-26-8-2 0-8 5-8 8-1 2 1 2 0 4-1-2-3-3-3-6-2-8 2-16 7-23 4-6 11-7 18-8 0-2-1-4-1-7 1-6 6-10 11-13 5 2 11 4 15 8 5 5 9 14 13 20-1-6-2-13-5-19-1-3-4-5-5-9v-1-11l2-1z" class="B"></path><path d="M480 547c6-1 14 0 19 3 3 2 5 5 7 7 7 10 12 23 15 35-2-2-3-4-4-6l-3-4c-10-16-24-27-43-31 3-2 5-3 9-4z"></path><path d="M733 1351c-8 1-16-1-24-2-36-4-71-12-104-27-50-25-99-70-118-125-12-37-14-86 4-121 2-4 8-17 12-17 3-1 7 1 9 2 6 5 7 13 6 20 0 8-5 15-9 23-9 22-13 47-10 71 3 23 12 46 26 66 2 3 4 7 7 9 0-2-2-4-3-6l-8-13c-17-30-25-63-18-98 3-13 8-25 13-37 2-5 3-10 5-14 6-12 17-20 28-26 6-3 13-5 20-9 3-1 6-4 9-6-2 4-4 8-7 11-8 8-18 12-26 19-7 6-13 13-20 19l3 3c7 7 8 15 8 24 3-2 5-6 8-10 4-5 8-10 14-15 9-8 19-14 32-12h0c-10 2-18 7-26 14-25 20-34 52-37 83-2 32 5 68 27 93 11 13 26 25 41 34 46 29 97 41 151 45v1c-4 2-9 0-13 1zm323-137c21-19 48-29 74-42 8-4 16-9 25-13 6-2 13-4 19-7 20-9 62-29 70-51 1-5 1-8-1-13 0-1-1-2-1-3h5c3 0 5 1 7 4 3 4 1 9 1 13 1-4 4-13 8-16 2 0 4 0 6 2 3 3 4 7 4 11v1c6-9 11-19 15-29 12-31 17-66 4-97-7-15-19-30-35-36-12-5-28-4-39 2-13 6-24 16-29 29-1 4-2 9-2 14 2 12 15 21 20 32 3 8 4 17 1 24-3 9-10 12-17 16 0-2 1-4 2-5 4-6 5-15 4-22l-1-1c-3-9-10-17-14-26-2-5-2-9-2-14-1 1-1 4-1 5 1 18 20 29 17 47v1c0 2-1 3-1 5-1 1-2 4-4 4-5-6-10-14-12-22-7-17-8-38 0-54 8-17 24-32 42-38 13-5 29-5 42 1 17 9 29 26 35 44 13 36 2 76-14 109-9 19-25 43-43 53-13 7-28 10-43 12s-30 4-45 9l49-4c7-1 15-2 22-1h1c3 0 6 1 8 3 1 2 2 3 2 5-2 3-4 3-6 4 1 2 3 3 3 6-1 3-2 5-4 7-10 10-22 0-32-3-8-2-15-3-24-4 6 3 13 4 19 6 8 2 16 5 20 13h0l-3-3c-10-11-29-11-43-11 12 3 24 5 35 12 5 3 7 7 8 12v1c-1-3-2-4-3-6-6-9-22-13-32-15 7 7 19 9 26 16 2 3 4 7 4 11h-1c-1-2-1-4-2-5-7-11-23-15-34-17 8 5 17 9 24 16 3 4 4 6 4 11-1-3-2-6-4-8-5-6-16-13-23-14v1l1 1c0 1 0 1 1 2v1l-1-1h-2l-1 1c-5-2-9-2-14-3-14-3-27-5-41-3 13 1 27 4 38 12 5 4 10 10 14 15s5 10 4 16c0 8-6 17-12 21-4 3-9 4-13 3-3 0-6-2-8-4-3-4-3-9-2-14 1-14 0-24-11-35-5-4-12-7-18-9-8-1-19 3-25 8-16 13-17 38-20 56-1 8-3 15-4 22-1 8-1 16-4 23-11 26-48 36-74 39 10-41 40-76 63-109 1-2 2-3 3-5l10-13 5-6z" class="B"></path><path d="M1051 1220l5-6c0 5-1 7-4 11l-1-5z" class="D"></path><path d="M1038 1238c1-2 2-3 3-5l10-13 1 5c-4 6-8 11-12 18-1-2 0-3-2-5z" class="E"></path><path d="M396 310c5 0 10 0 15 1 9 3 17 8 22 17 1 2 3 4 2 6h-1-1c-6-1-13-2-19 1-10 3-16 9-20 19-14-1-28 0-41 4-22 6-42 18-60 31-27 19-50 43-66 71v1c8-11 16-23 26-34 17-18 37-34 58-47 14-8 29-15 44-19 7-2 14-4 21-4 5 0 11 1 16 0 5-2 9-7 15-8s11 0 16 4c5 3 9 9 10 15 0 2 1 7 0 9 0 2-3 5-4 6-3 3-6 6-8 10 0 6 1 11 2 17l1 19c1 5 0 11 1 16 2-5 2-11 3-16l4-21c0-1 0-2 1-4 0 3-1 8-1 12v37c1 35 10 69 21 102 0 3 1 5 0 7-3-6-6-15-9-22-12-30-23-63-49-84-14-12-28-16-46-17-6-1-12-1-18-1-26 3-48 23-63 42-13 16-20 33-22 53-2-7-1-12 0-19 1-3 1-5 1-8 2-4 5-8 7-12 11-20 27-37 46-49 4-3 8-5 13-7-16 2-32 8-45 16-15 8-28 21-32 37-6 20 0 44 10 61 8 13 22 26 37 30 12 3 24 2 34-5 9-5 16-12 18-22 2-11-1-19-7-28 8 2 16 6 21 12 7 9 8 20 7 30-2 14-10 28-21 37-18 15-40 18-62 15-23-2-43-12-57-30-15-18-23-41-20-65 6-48 36-91 66-127 32-41 81-83 134-89z" class="B"></path><path d="M399 424c2 0 5-1 7 1 12 8 19 51 23 66l-6-11c-8-11-16-22-27-31-4-3-8-5-12-8 3-7 7-14 15-17zm16-29c1 1 1 1 2 3 4 13 3 28 6 41-6-10-11-19-22-26-20-13-53-10-75-5-36 7-69 29-88 60-14 21-23 51-17 77 3 17 16 33 31 42 17 11 34 16 53 11 14-3 25-11 33-23 1-4 3-8 4-12 0-1 1-2 1-3h0c1 6-3 15-6 20-7 12-20 20-33 24-19 4-42 0-59-10-14-9-24-22-27-38-8-30 2-64 17-89 19-31 52-54 87-62 27-6 61-9 86 7 1-7 4-12 7-17z"></path><path d="M739 295c-16 10-28 22-42 35s-28 26-40 41c-36 43-56 98-81 148 2-9 5-17 8-25l17-41c2-5 3-9 5-14 8-18 15-36 19-56 9-37 7-84-15-117-12-18-29-33-51-37-17-4-34-1-48 8-10 7-18 18-20 30-2 7 0 15 4 21 3 4 8 8 14 8 5 1 10 0 14-4 3-3 6-7 6-11 0-3 1-6-1-8-2-1-3-1-5-1 0 2-1 2-3 4-1 0-3 0-5-1-1-1-2-3-2-5s2-4 4-5c3-2 6-2 9-1 5 1 9 5 11 9 3 6 2 14 0 20-2 7-8 13-15 17-9 4-20 3-29 0-11-4-20-13-24-23-7-17-5-37 1-53 10-23 32-39 55-48 27-11 58-10 84 1 21 9 39 27 47 48 12 31 7 71-2 102l-5 19c-1 3-2 6-2 9 11-22 20-44 26-67l13-59c3-13 5-26 11-39 6-14 14-27 23-40 10-13 20-24 36-30 11-3 23-2 34-4l-57 60h1c9-8 19-16 30-21 7-3 14-6 19-9l1-8c6-6 12-9 19-13 12-8 23-13 37-12h5l1 1c6 1 10 3 13 8l3 5c-41 9-86 20-119 49-12 11-22 24-31 37-16 25-27 55-38 83h1l22-42c12-20 26-40 42-57 27-28 60-48 97-60 17-5 35-8 52-8 26-1 52 4 77 10 35 9 69 22 101 39 69 36 127 98 167 164 16 26 29 54 38 83 14 43 18 86 15 131-1 10 0 22-5 31-3 6-9 11-16 13-4 1-10 1-13-1l-2-1c0-2 2-3 4-5 7-6 9-11 6-20l-1-1c0 4-1 8-4 11-3 4-7 5-12 6-3-2-5-5-6-8-1-1-1-3-1-4 0-2 2-5 3-7 3-5 6-9 8-14 6-14 9-28 11-43 5-43-2-86-17-126h-1c5 18 9 35 12 53 5 30 3 62-3 91-7 29-22 56-48 72-16 10-38 15-56 10-15-3-27-10-37-21-11-14-18-30-16-48 1-13 6-26 16-34 5-5 13-7 20-6 4 1 8 4 11 8 3 5 4 11 3 17-1 3-3 6-6 7-4 3-10 3-15 2-4-1-8-4-10-8-1-3-2-6-1-9 0-2 2-4 4-5s5 0 7 1c5 3 5 7 7 11h1c2-1 3-3 4-5s1-5-1-8c-1-2-3-3-6-4-4-1-9 0-12 3-3 1-6 4-7 7-1 6 1 11 4 15 7 9 18 12 29 14 15 2 30-1 42-11 14-11 22-25 24-43l-2 2c-5 4-10 4-15 4-2-1-2-1-3-3 4-4 7-7 9-12l-1-1c-2 4-4 8-8 10-6 4-16 3-23 1l6-3c12-8 17-21 20-34 9-40 2-81-9-120-6-24-15-47-28-68-23-36-59-66-95-88-12-7-23-13-36-16 26 15 51 31 72 52 23 23 35 51 35 83 0 14-2 35-13 45-4 4-9 6-14 5-6 0-9-3-13-7 4-2 7-3 10-5 5-4 5-9 6-15-2 3-4 6-7 9-3 2-7 3-11 3-5-1-8-5-11-9 6-6 11-11 14-19 9-22 7-47-2-69-18-40-61-70-101-85 7 5 15 9 22 14 11 8 23 19 29 31l-3 6c-2 2-1 3 0 5 2 8 2 19 1 27v1l-1 4c-1 5-5 20-10 23-1-4 5-12 6-16 2-4 3-9 4-14 0-7 1-22-4-28-2-1-4-2-5-3-2-1-4-3-6-5v-1a34.53 34.53 0 0 1-5 18c-2 2-5 2-7 3 0 4 0 9-1 13-1 1-1 2-1 3v1h0v-3c0-3 1-12-1-15-1-1-3-2-4-4-1-1-1-5-2-7-1-4-3-8-5-12 1 5 3 10 4 14 3 14 4 25-4 37h0c6-15 5-25 0-40 1 13 4 30-4 42-2 2-2 2-4 2 9-8 7-24 7-35 0-2-1-5 0-7l1-1-2-8h0c1 5 1 12-1 16-1 5-4 8-5 13-2 5-3 11-6 16 0 2-1 2-1 4h0-3c5-6 6-14 10-21h0-1c-2 0-11 3-12 4 0 0-1 2-1 3-1 3-1 7-3 10h-2v-1c1-3 2-5 2-8 0-4-1-8-1-11-1-8 0-14-3-21-8-19-24-31-42-38-37-16-81-13-118 2-74 31-116 113-145 182l47-49c4-1 7-6 10-9l3-3-1 2v1l1 1c3-1 4-2 7-4l10-7c5-3 11-6 16-8s10-4 16-4h-1-1c-1 1-1 1-2 1h-1c-2 1-5 1-6 2-2 1-3 1-5 2l-10 5c-2 1-2 2-3 4z" class="B"></path><path d="M871 149c3-1 10-2 13-1 4 2 11 0 16 2h3c2 0 3 1 4 1 2 0 3 1 4 1l-2 1-1-1h-8c-3-1-6-1-9-2s-7 1-10 0c-1-1-1-1-2-1h-8z" class="E"></path><path d="M1259 582c0-8 1-15 3-23 0-3 1-5 1-8v-2c1-2 0-3 0-5 1-3 1-6 1-8 0-1 1-2 1-3 0-2-1-6 1-7 1 2 1 9 0 11 0 3 0 5-1 8l-2 12v5c-1 3-2 7-2 11-1 3-1 6-1 10l-1-1z" class="D"></path><path d="M533 209c8-1 17-1 25 1 21 5 39 15 53 31 21 23 32 59 30 90 0-5 0-10-1-14-1-11-4-21-7-32-5-13-10-25-19-36-16-20-39-35-65-37-22-3-40 5-57 19 0-1 0-1 1-2 9-11 26-18 40-20zm230-74h8c-27 18-49 45-65 74l-3 6-1-1c5-12 10-23 16-33 4-10 9-19 15-28 7-10 17-16 30-18zm437 415h2c4 1 6 5 9 9-4 7-8 13-13 19l-8-5 7 6c-3 5-6 8-11 10l-2-2c0 1 1 2 1 4-8 7-16 9-26 11-5 0-17 1-20-2v-5c1-3 1-7 1-10 11-1 25-4 34-10 10-7 18-16 26-25z"></path><path d="M1049 187c4-1 18 6 22 8 24 12 46 29 66 47 14 13 27 26 37 41 13 18 23 40 30 61 10 29 16 60 21 91 6 38 10 81-1 119-2 7-5 14-8 21-8 14-19 32-36 37-15 5-32 4-46-3-20-11-26-25-32-45 4 2 8 5 13 6 2 1 5 1 7 1 9 1 17 3 26 1 13-2 25-6 36-15 4-3 7-7 11-9l1-1c-1 4-10 10-13 13-12 9-30 15-46 14-8 0-16-2-24-3 3 3 5 6 8 8 5 4 12 5 19 6l-2 16c2 1 3 1 4 1h3c13 3 26 2 37-5 12-7 24-23 30-36 2-5 4-11 5-16 1-4 1-8 1-11v2c-1 8-3 14-6 21-3-4-7-7-11-11l7-11c4-8 8-17 9-26 0-10-5-20-7-30-1-12-1-24-2-36-2-27-7-56-15-83-7-23-16-46-28-66-26-46-70-83-116-107z"></path><path d="M1129 1135c7-8 13-17 19-26 4-7 9-17 16-21 3-3 8-3 13-3h1c0 4-1 7-3 10s-5 6-8 9l-16 16-26 29-31 27 45-24c26-16 49-35 67-60 9-12 17-26 21-41s3-26-1-41c-1-2-2-3 0-4 2 0 5 0 8 2 7 6 8 19 7 28 0 10-3 20-7 30-9 23-25 44-43 61-13 12-28 22-43 30-23 13-47 23-70 37-9 6-18 12-27 19-5 4-11 9-14 15l9-8c-10 13-18 27-28 41-14 18-31 34-48 49l-15 15c-1 1-3 3-3 4s0 4 1 6l2 13c-6 5-15 8-22 8-3 0-6-1-9-3-2-3-3-7-3-11 1-5 6-9 10-12l10-7c-2 0-6 2-8 3l-17 8c-27 14-56 21-86 27-97 16-202 8-294-29-26-10-50-24-75-37-32-19-63-39-92-63-34-29-68-59-91-98l-15-30c6 2 12 5 17 9 4 4 7 10 10 14l16 25c12 19 25 35 40 51l1-1c-41-50-69-108-84-171-6-26-11-52-8-78 1-14 4-34 15-43 6-5 16-8 23-7 1 0 2 1 2 1-3 3-10 4-14 6-19 11-22 32-23 52-1 16 1 32 4 47 5 25 13 49 25 71 11 22 26 42 40 63 18 27 38 55 60 79l24 25v-1c-18-23-35-46-51-70-14-22-28-44-39-69-16-37-22-79-19-119 2-24 8-48 16-70 7-20 16-40 23-60 7-22 8-44 3-67-3-15-9-29-19-41-20-24-48-37-79-39-18-2-41 0-56 12-10 9-13 20-18 32-3 10-6 20-8 31-13-20-23-42-18-66 2-11 7-20 15-29l1-1h-1c-1 1 0 0-2 1-2-12 3-28 10-37 11-15 29-23 47-25 18-3 38-1 57 2 27 6 54 14 77 31 29 22 48 56 54 92 2 16 2 32-1 48-7 34-29 62-45 92-23 41-39 85-38 133 1 27 6 54 16 80l12 24c1-2-1-6-2-8l-8-18c-6-17-11-35-13-53-3-21-3-44 1-65 4-26 14-52 26-75 11-21 24-44 45-55 11-6 24-7 35-4 7 3 12 6 17 11-26 6-45 29-59 51-11 17-20 34-27 52-18 42-27 84-17 129 1 5 2 13 5 18-1-10-3-20-3-30-1-39 9-77 35-107 18-20 41-35 65-47 17-8 35-15 54-17 12-2 29-1 39 7 4 3 7 8 8 13-7 2-12 3-18 7-42-6-83 5-117 31-29 22-51 55-55 92v2c3-9 4-18 8-27 12-32 38-60 67-76 33-19 73-26 111-16 17 5 35 15 44 31 4 9 6 19 3 29-2 5-5 10-11 13-4 2-10 3-15 3l1-1c4-2 7-4 8-9 1-7-1-14-6-19-8-12-19-14-31-19-12-4-22-9-35-10-34-4-69 12-95 33-16 14-30 31-37 51-1 3-3 8-3 11v1c3-8 6-16 11-24 16-28 44-50 74-62 23-9 50-11 74-1 7 3 14 7 18 15-15-3-31-3-46-1-25 2-51 9-73 23-27 17-45 45-51 76-10 44 0 91 25 128 22 34 52 63 86 85 19 12 40 21 61 29 25 10 49 17 75 23 44 9 90 11 134 9 27-1 53-4 78-9 21-4 41-10 60-17 20-7 40-14 59-24 11-6 21-13 32-19l-1-1c-40 25-85 36-131 42-49 7-97 6-146-6s-96-41-122-85c-8-14-20-36-16-52 2-5 4-9 9-12 3-1 7-1 10 1 5 2 8 6 10 11 3 8 4 17 5 26v-18c0-2 0-6 1-8s3-4 5-6c4-3 7-4 11-3 4 2 6 4 8 8 1 4 1 8 2 11 1-12 3-24 13-32 7-6 14-7 23-5 8 1 15 6 20 13 12 18 0 42 3 62 1 9 6 17 11 24 20 27 57 40 90 47 60 14 143 5 195-28 17-11 30-24 42-39l-1-1c-36 42-97 61-150 65-54 4-116 1-159-37-9-8-21-20-22-33 0-6 0-12 4-16 3-3 7-4 10-5 4 0 7 2 10 4l1-1-9-6c5-3 11-6 17-5 5 1 8 5 10 9 5 8 5 17 9 25 10 24 40 38 64 45 53 16 117 6 165-20 8-4 17-9 24-15 11-8 20-18 31-27s23-17 33-26l28-26c2-1 7-8 9-9 4 0 5-3 7-6l12-13h0l-2 3 2 2c1-2 2-3 3-5 2-2 6-6 6-8z" class="B"></path><path d="M943 1332l4-2c1 3 1 8 0 11l-2 2c-1 0-2-1-3-2l-1-1c-1-3 1-5 2-8z"></path><path d="M938 1335l1-1 4-2c-1 3-3 5-2 8l1 1c-1 1-2 2-2 3l-1 2c-3 0-3-1-5-2v-3c-1-2 3-5 4-6z"></path><path d="M938 1335l1-1 4-2c-1 3-3 5-2 8l1 1c-1 1-2 2-2 3h-1c-2-4-1-6-1-9z" class="C"></path><path d="M720 1219h2c2 4 7 7 7 12 0 3-1 6-3 8h0c-3 0-4-2-6-3 1-2 2-4 3-7 0-4-1-7-3-10zm-64-28v22c1 19 8 37 21 52 31 35 86 49 131 55 13 1 27 1 40 2l-54-3c-16-2-32-6-47-11-29-9-58-22-77-47-12-16-19-38-16-57 1-5 1-9 2-13zM218 665c20-2 39 3 59 6h1c6 0 11-3 17-5 14-3 27 1 39 8 23 15 35 43 41 68 10 40 3 86-19 121 0-3 2-5 3-8l7-15c2-6 3-12 5-18l2-10c5-34-3-69-23-98-17-23-42-38-71-42-38-6-77-12-111 13h0c15-13 30-18 50-20zm56 16c6-1 12 0 18 2 27 7 48 28 61 52 18 32 18 64 8 97l1-17c0-35-14-63-38-87-7-6-15-12-23-17-16-10-34-14-53-17-15-2-29-2-44 2-17 4-32 16-40 31h-1c4-11 13-20 22-26 19-12 46-15 67-10l1 1c7-6 12-9 21-11z"></path></svg>