<svg xmlns="http://www.w3.org/2000/svg" xmlns:v="https://vecta.io/nano" viewBox="180 45 1137 1391"><!--oldViewBox="0 0 1533 1531"--><style>.B{fill:#fff}.C{fill:#ecebec}.D{fill:#403f3f}</style><path d="M771 130c12-1 25-1 37 0 86 0 173 19 247 63 17 10 33 20 49 32l13 10c0 1 2 3 3 3 2 1 8 0 10 0l48-1 62-1-10 414-140 1c0-11-3-23-4-33-9-50-23-98-48-141-37-62-88-114-159-132-51-13-104-3-149 24-33 20-63 49-83 83-18 30-30 66-38 100-18 72-20 144-22 217-2 59-4 120 6 178 7 42 20 82 42 118 34 58 88 102 154 119 54 13 108-6 154-34 32-19 61-44 82-76 20-31 31-68 40-104l64 1 179 5c-6 24-16 48-26 71-32 73-76 139-130 199-28 30-59 58-93 79-54 35-116 54-179 64-26 5-53 8-79 9-45 2-89 0-133-8-108-20-215-73-296-148-16-15-31-32-45-50-54-67-92-143-115-227-5-18-10-38-13-57-5-28-7-58-9-86-3-90 3-181 29-267 8-29 19-56 31-83 23-55 55-107 95-150 109-118 267-186 426-192z"></path><path d="M544 1206c4 2 10 2 15 2-5 2-12 5-17 4 1-2 1-4 2-6zm534 24l4-1c4 2 6 9 7 14 1 4 2 9 1 13-1 0-2-1-3-2l-1-1c0-6-1-13-3-19-1-2-1-3-3-4h-2z" fill="#cccbcb"></path><path d="M540 794h4c1 0 2 1 3 2 2 3 2 6 2 9-1 2-3 3-4 4h-1c-3 0-6 0-8-2-1-2-1-6-1-8 1-3 3-4 5-5zm494 434h0c1-2 2-3 4-4 3-2 5-2 7-1 3 1 4 2 5 5 1 2 1 4 0 7s-3 5-6 6c-2 1-5 1-7 0-3-2-4-4-4-7-1-2 0-3 1-6z" class="B"></path><path d="M1034 1228h0c1-2 2-3 4-4 3-2 5-2 7-1 3 1 4 2 5 5h0l-1 4h0l-1-1c-2-2-4-4-7-4s-5 1-7 1z" class="D"></path><path d="M343 1105h6c2 1 5 4 6 6s1 5 0 7c-1 3-4 5-7 6h-3c-3 0-5-1-7-3-3-3-3-5-3-9 2-4 4-5 8-7zm735 125h2c2 1 2 2 3 4 2 6 3 13 3 19l1 1c-9-1-18-1-28-1l1-1c3-9 11-18 18-22z" class="B"></path><path d="M1078 1230h2c-3 3-4 6-6 10-3 4-5 8-8 12 6 0 13 0 19 1h1l1 1c-9-1-18-1-28-1l1-1c3-9 11-18 18-22z" class="C"></path><path d="M401 687c2 0 5 0 7 1 2 2 5 4 5 8 1 3 1 7-1 10-2 4-5 6-10 7-1-1-3-1-5-2-4-1-6-4-8-8-1-3 0-7 1-9 2-5 6-6 11-7zm3 44c2 0 5 1 8 1 3 2 5 4 6 7 2 3 2 8 0 11-2 4-5 6-9 7h-6c-3-1-7-5-8-7-1-4-1-8 0-11 2-4 5-6 9-8zm108 135h6c4 1 7 3 8 6 2 4 2 8 0 11-1 4-4 6-8 8-3 0-6 0-9-1s-5-5-6-8c-1-2-1-7-1-9 2-4 6-6 10-7zm32 340c-1-3-2-4-4-6h-2v1l-1 1h-2l-2-2c1-1 0-1 2-1-15 0-24 5-35 13 8-11 18-24 33-26 9-1 17 2 24 7l12 10c-4 2-7 4-10 5-5 0-11 0-15-2zm-245-103c0 4 0 8 1 12 2 8 7 16 14 20 15 9 35 1 50-3l-14 12c-5 4-11 9-17 12-6 2-13 2-19-1-8-3-15-13-18-21-4-11-2-21 3-31zm-57-539c3 0 7-1 10 0 6 1 11 5 15 11 3 5 3 12 2 18-3 10-9 14-18 18 4-3 7-6 9-11 1-4 0-7-2-11-2-3-4-4-8-4-2 2-2 2-3 4l3 2c1 2 2 5 1 7 0 2-3 5-5 6s-6 0-9-1c-5-1-8-5-10-9-2-5-2-12 0-17 3-7 8-11 15-13zm408 774c4 0 8 0 12 1 6 3 11 7 13 12 2 6 2 13-1 18-3 7-8 10-15 13-6 0-10-1-15-3-5-3-9-7-10-13-2-6-2-12 1-18 3-5 9-8 15-10z" class="B"></path><path d="M654 1348c2 0 4 0 6 1 3 1 6 4 7 7s0 8-2 11c-2 4-5 5-10 6-2 0-5-1-7-2-3-1-5-4-5-7-1-3-1-7 0-9 3-5 6-6 11-7z"></path><path d="M653 1352h2c3 0 5 2 6 4s1 3 1 5c-1 3-3 5-6 6-1 1-2 1-3 0-2 0-3-1-5-2-1-2-1-5 0-7 0-3 3-4 5-6zM380 696c2 13 4 32-1 45-3 5-7 10-13 12-7 3-14 2-22-2l-1-1c-3-3-5-6-6-10 0-3 1-6 3-9a57.31 57.31 0 0 1 11-11c10-9 20-15 29-24zm39 291l7 22c10 25 14 57 2 82-4 10-11 18-21 22s-21 1-31-3c4-2 8-4 11-7 13-11 21-28 25-44l2-11h-1l4-22c2-13 0-26 2-39z" class="B"></path><path fill="#cccbcb" d="M419 987l7 22-1-1c-1-1-2-2-2-4l-1-1c0-1 0-3-1-4 0 3 0 7-1 10-1 5 0 11-1 16l-2 12c-1 4-1 7-3 11h-1l4-22c2-13 0-26 2-39z"></path><g class="B"><path d="M478 720l-1 5c-7 26 0 60 14 83 7 12 16 22 26 32 6 5 13 11 21 12l1 1c-1 2-3 4-5 6l-13-2c-12-3-22-6-33-12-15-9-28-25-32-42-7-28 8-60 22-83zm513 516c10-1 20 1 30 6 12 5 23 16 28 29s4 28-2 41c-5 10-13 17-23 20-8 3-16 3-23-1-5-3-10-8-11-14-2-5-1-11 2-15s8-8 13-8c4-1 8 0 11 2 5 5 5 11 5 17 2-1 5-2 6-4 7-5 7-14 8-21-1-5-2-10-4-14-4-9-13-16-21-19-11-4-23-2-33 2-24 12-35 43-44 67l-1-7c-3-21 0-39 12-56 12-16 28-22 47-25z"></path><path d="M1110 1131h20l-111 63h0l29-14c23-10 45-19 71-13 18 3 31 12 41 27-14-8-27-11-43-14-9-2-19-4-29-4-8 0-16 0-24 1 3 2 9 1 13 2 6 1 11 2 16 4 13 6 22 16 26 29 3 8 2 18 1 27l-4-9c-7-13-20-23-33-29-37-15-66-1-98 16l-41 20c-2 1-7 5-9 4 16-10 32-20 47-32l39-36c25-21 57-39 89-42zM300 989c15-1 28 3 40 12 2-5 5-9 9-11 5-1 10-1 14 1s8 6 9 11c1 4 1 8-1 11-2 4-6 5-10 6-7 1-16-1-20-8-1-3-1-6-2-8 0-1-3-3-4-4-12-7-28-11-42-8l-5 1c-12 3-24 11-30 22-7 11-9 23-6 35l1-11c2-11 8-20 16-27 6-4 11-7 17-8 11-2 21-1 30 5s15 15 17 26c3 12 0 25-6 35-6 9-17 17-28 19s-23 1-32-6c-11-7-17-20-19-32-2-13 1-29 10-40 11-14 25-19 42-21z"></path></g><path d="M282 1012c7 0 13 0 20 3s12 10 15 18c3 9 1 19-3 27-5 9-14 14-23 16-7 1-14 1-20-2s-12-9-14-15c-3-9-1-20 3-28 5-9 12-15 22-19z"></path><path d="M282 1027c2 0 4 0 6 1 7 2 11 11 14 17h-8l-12 1c-3 0-5-1-7-3-1-2-2-5-1-8 1-4 4-6 8-8zm591 255c10-1 20 1 28 6 11 7 18 18 21 31 3 12 0 27-7 37-8 14-21 19-36 23h-1c-12 1-23-1-33-8-10-9-15-20-17-33-1-13 4-29 12-39s20-16 33-17z" class="B"></path><path d="M864 1301c7-1 14-1 20 2s11 8 14 15c2 6 1 15-2 21-4 9-11 14-21 17-8 2-16 0-23-4-6-4-11-10-12-17s0-17 4-23c5-7 12-10 20-11z"></path><path d="M881 1313c1 0 3 0 5 1 2 0 3 2 4 4 1 3 1 5-1 7-1 3-3 4-6 5-2 0-4 0-6-1s-3-3-4-5-1-4 0-6c2-3 5-4 8-5z" class="C"></path><path d="M857 1307l8-1 1 2c-1 8 1 14 4 21 1 3 3 6 3 8 0 3 0 5-2 8-3 3-8 4-12 4-7-2-11-4-14-10s-3-13-1-19c2-7 7-11 13-13zm-338-59c-5-2-10-5-15-5-12-2-24 0-34 7 9-2 16-3 25 2 6 4 11 10 13 17 1 7 0 14-4 20s-10 11-17 12c-8 1-16 0-23-5s-11-13-12-21c-1-9 2-19 8-26 4-6 10-10 16-14 10-6 19-12 31-13 29-2 62 11 84 30 16 13 31 36 32 57 2 17-2 29-11 44-3-7-4-16-7-22-2 6-7 20-13 23-4 1-11-1-14-2-3-2-6-4-8-7 10-8 15-18 16-31 3-17-3-36-14-50-13-16-35-28-56-32-12-2-22-1-34 3 23-3 43 0 61 15 12 9 21 23 23 37 1 12-1 25-8 34-4 4-9 7-14 7-6 0-11-3-15-6-3-3-5-7-5-11s1-8 4-11c0-1 1-1 1-1 1 1 1 1 1 2 0 4 0 7 3 11 2 2 4 3 7 3 4 0 6-2 8-4 0-2 1-3 0-5-2 0-3 1-5 2s-3 3-6 3c1 0 2-1 2-1 5-3 8-10 9-15 1-2 1-5 1-7l-1-1c-3-3-4-7-5-10-4-6-7-12-12-17-3-4-9-7-12-12z" class="B"></path><path d="M519 1248c12 5 22 13 27 25 2 5 2 10 3 15l-1-1c-3-3-4-7-5-10-4-6-7-12-12-17-3-4-9-7-12-12z" class="D"></path><path d="M475 1258c3-1 7-1 11 0 4 2 8 6 10 10 2 5 1 11-1 15-2 5-6 7-10 9-4 1-8 1-12 0-4-2-7-6-9-10-2-5-2-10 0-15s6-7 11-9z"></path><path d="M479 1266c1 0 3-1 5 0s4 3 4 5c1 3 1 5 0 7-2 3-4 5-7 6-2 0-4-1-5-1-2-2-4-3-5-5 0-3 0-5 1-7 1-3 4-4 7-5z" class="C"></path><path d="M1109 984h1l1 2c0 1 0 1 2 2v-4c1 1 2 3 3 5 5 10-1 19-5 28-2 4-4 9-5 14-3 9-4 19-2 29 1-4 1-9 1-14 3-16 11-31 23-43 14-12 34-16 52-15 17 2 32 10 43 23 14 17 19 40 18 62-2 20-10 38-26 51-13 12-30 16-47 15-10-2-18-4-26-8 2 9 4 18 10 27 5 7 12 14 21 15 6 1 12 0 16-3s7-7 7-12c1-3 0-4-2-6l-1-1-1 3c-2 3-3 4-6 5-2-1-3-1-5-3-1-1-1-2-1-4s1-3 3-4c2-2 4-2 6-2 4 2 7 5 8 9 1 5 1 9-3 14-4 4-8 7-14 8-8 1-15-2-22-7-12-11-16-25-18-40-6-5-12-11-17-17-6-7-11-15-14-24-3-7-4-14-6-22l-7-30c-1-9-3-19-2-29 1-11 6-17 15-24z" class="B"></path><path d="M1165 1003c6-1 12-1 17 1 17 3 30 13 40 27 13 19 15 39 11 61l-1-15c-1-9-6-18-13-24-19-14-34 4-52 7h0c3 2 6 4 8 7 7 8 10 18 16 27 3 3 6 6 10 6 5 1 9 0 13-3 2-1 3-3 3-5l-2 1v1c-3 2-6 2-9 2h-3c-6-3-9-11-12-16 6 0 9-1 14-3 3-1 5 0 7 1 4 2 7 6 8 10 2 9-3 21-9 29-6 9-16 15-27 16-12 2-27-1-38-8-15-12-25-33-27-52-3-18 1-37 12-51 9-12 20-17 34-19z"></path><path d="M1180 1028h2c2 0 3 1 5 2 1 2 1 4 1 7l-2 1h-3c-2-1-3-2-5-4 0-3 0-3 2-6zm-19 68c3 0 6 0 9 2s7 8 7 13c-2 4-6 7-10 9-2 1-5 2-6 1-3-1-5-4-6-6-2-3-4-7-3-11 2-4 5-6 9-8zM265 624c15-2 33 2 46 11 14 9 24 24 27 41 6 35-13 72-45 86-14 6-30 7-43 15-13 7-21 17-29 29-5 7-9 16-12 25-1 4-2 9-3 14-2 3-2 7-3 11 0 2 0 4-1 5 1-12 0-25 0-38l1-59c0-37-7-85 17-116 11-14 27-22 45-24z" class="B"></path><path d="M264 643c13-2 25 1 35 8 5 2 16 9 17 15-3-3-7-5-11-6-8-2-18-1-25 3-6 3-10 8-12 14s-1 14 2 19 8 9 14 10 12 0 16-3 7-7 8-12c0-4-1-8-4-11-1-2-4-4-7-4s-5 1-7 3c-3 3-3 6-3 10l-1-1c-1-2-2-4-1-7s4-6 8-7c4-2 10-2 14 0 6 3 11 8 13 15 3 9 4 21 0 30-6 12-18 19-31 24-17 5-35 7-49 18-25 19-32 54-36 83v-1c-1-8 0-16 2-23 1-11 3-21 6-31 4-12 8-25 9-38 3-21-1-42 3-63 2-10 5-20 11-29 8-10 17-14 29-16z"></path><path d="M233 721h3c3 1 4 2 5 5 1 2 2 5 0 7-1 2-3 3-5 4h-4c-2-1-4-2-5-4s-1-4 0-6c1-3 3-4 6-6zm180 327c-4 11-8 21-17 30-6 5-14 9-22 9-9-1-15-6-21-12 2-1 5-3 7-4 18-12 26-38 30-59 7-33 7-94-12-123l7 23c3 13 5 29 0 41-3 8-9 17-14 25-3-5-7-9-8-14-2-9 3-19 5-28 3-14 3-27-1-41 0 7 1 15-1 22l-1 1c-3 10-10 17-17 25l-1-1c-2-4-1-10-1-14 1-6 2-13 2-19-1-18-9-35-22-47-14-13-36-19-55-18-17 1-31 5-42 19 16-10 33-15 52-11 18 4 35 14 45 29 10 16 11 33 7 52-3 15-13 28-27 37s-34 14-50 10c-13-3-24-9-33-19-5-6-11-13-14-21-4-10-5-21-7-31-10-56-10-113-9-169 2 24 1 48 2 72l2 38c1 27 4 54 14 79h1c-2-8-4-16-4-24-1-22 6-43 21-60 15-15 37-21 58-21 31 0 63 14 85 36 13 13 23 30 31 47 9 19 13 40 19 60 4 14 9 27 14 41 9 21 18 43 28 63 11 20 23 40 31 61 5 12 7 24 7 37 0 22-8 43-24 59-16 15-38 22-60 22-20 0-38-9-52-24-13-14-20-32-19-51 1-18 12-33 25-45-5 7-8 13-10 20-5 16-3 33 5 47 8 15 22 25 38 29 16 5 35 2 50-6 15-9 25-24 30-40 10-39-8-76-26-108v1l1 24c1 20 0 41-15 56-6 6-13 8-20 8-12 0-19-6-27-14 14-8 24-18 31-32 12-25 15-56 9-83-3-13-8-25-12-38l-9-32c-1 7 1 17 2 25-2 13 0 26-2 39l-4 22z" class="B"></path><path d="M493 1159c1 2 1 5 1 7 0 12-2 20-6 31l-1-1c2-5 4-10 5-15 1-7 1-15 1-22z" class="C"></path><path d="M257 863c11 0 23 2 32 8 10 7 18 17 20 30 2 11 0 23-6 32-8 12-20 18-34 20-13 0-24-2-35-10-9-7-16-17-17-29-2-12 1-25 9-34 8-10 18-15 31-17z"></path><path d="M525 646l10-20h-1c-13 21-23 44-39 64-6 7-14 14-21 21-6 6-12 13-19 16-7-1-13-3-19-6 13-12 25-25 37-39 44-53 81-116 99-182 4-13 8-27 8-41h0c-4 9-7 21-10 31-9 24-20 46-33 67s-28 41-46 57c-15 13-38 23-46 42-4 10-6 20-8 30-6-7-12-13-12-23 0-11 4-22 13-30l10-8c-7 2-58 19-61 17-5-2-9-6-12-10 8-2 15-4 22-7 7-2 15-4 23-7-15 0-27-2-38-13-4-5-8-10-8-16s4-12 8-15c4-4 12-8 18-8h2l-1 1c-6 3-8 9-10 15l7 8-9 1c3 6 8 13 15 14 6 2 13 1 19 1 24-3 45-11 64-24 35-24 57-55 73-93 4-11 8-21 11-33h0c-17 47-44 96-92 119-11 5-24 10-37 6-6-2-12-6-17-10 27-6 54-14 77-29 18-12 33-28 44-47 23-38 35-84 23-128-6-23-21-44-42-56-19-11-45-15-66-9-19 5-36 17-45 34-7 12-10 28-6 41s13 25 25 31c11 6 23 7 35 5l2-1c11-2 19-8 25-17 4-6 5-14 4-22-2-6-5-12-11-16-5-2-11-3-16-2-4 1-8 4-10 8-2 2-2 6-1 9l4 4v-1h0c-1-3-2-5-2-8 1-3 3-4 5-6 3-1 5-1 8 0s5 4 6 7c1 4 1 8-1 11s-6 6-9 6c-6 2-11 0-16-3-6-4-10-11-11-18-1-8 1-16 6-23 7-8 16-13 26-14 15-2 29 2 41 12 17 13 26 32 28 53 4 34-10 68-32 94-21 27-55 44-89 48-31 2-59-6-83-26-19-15-30-38-32-62-3-34 12-68 34-94 32-38 75-57 124-60 31-3 66 7 90 27 26 22 38 55 40 88s-4 66-13 97l-8 28c-12 50-18 104-14 155 1 13 3 25 6 38 1 10 3 21 5 31l1-55c3-61 11-121 29-180 15-47 35-90 71-125 40-39 98-65 155-64 4 0 12-1 16 2-14 0-28-1-41 1-49 7-97 35-131 70-31 32-50 71-63 114-27 82-30 169-32 255l-1 89c2 95 24 194 95 262 42 41 99 69 159 68 23 0 46-7 67-16 37-15 73-37 101-66 37-38 54-85 67-135l232 5c-8 27-18 54-30 80-28 61-65 118-109 168-39 45-82 84-134 111-45 23-95 37-144 46-50 8-99 11-149 8-16 0-32-2-48-5-4-1-9-1-13-3h0l63 6c-5-3-11-5-15-9-19-13-31-31-44-50-12-20-23-40-38-58-14-16-31-29-50-38-14-7-30-13-45-16 3 0 5 0 8 1 15 2 29 5 43 10 29 11 54 29 73 53 9 13 17 26 25 39 15 25 32 54 63 58 14 1 28-2 39-11 10-8 17-20 18-33 2-12-1-26-9-36-6-7-14-11-23-12-6 0-12 1-17 5-3 3-5 7-5 11s0 7 3 10c2 2 5 3 8 3 2 0 4-1 6-2 2-3 2-5 2-8h-1v1c0 3-1 5-3 7-2 1-4 1-6 0s-5-2-6-4c-1-3-2-8 0-11 1-3 4-6 7-7 4-1 8-2 12 0 4 3 7 7 8 11 2 6 0 11-3 16-3 6-9 9-15 10s-11 0-16-4c-5-3-9-9-10-16 0-4 0-9 1-13v-1c2-7 7-14 14-18 8-4 21-5 30-2 13 3 23 13 29 25 7 15 8 35 3 50-5 17-17 28-32 36l-10 4c42-2 84-6 124-15 34-7 66-19 98-31l23-11c7-4 13-6 18-12 17-19 14-47 15-71 10 0 19 0 28 1 1 1 2 2 3 2-4 19-9 35-18 52 21-14 40-33 58-51 47-47 88-103 117-163 17-35 31-70 44-106l-213-6c-8 24-14 48-26 70 4-4 9-10 15-13 9-4 18-3 27 1-4 3-10 5-15 7-8 5-17 10-25 16-3 3-13 10-13 13 5-4 9-8 15-11 8-4 19-6 28-3 10 3 13 9 17 18-11-6-22-9-35-8l-1 1c-4 0-7 1-10 2-15 5-24 16-34 27-12 14-22 29-32 45l-19 34c-3 5-6 10-9 14-3 3-6 7-8 10 14-11 23-27 32-42 11-18 21-37 34-53 10-12 23-23 38-24 16-2 28 4 40 14-7-1-14-1-21 0-26 4-40 27-53 47l-16 25c-16 21-37 39-59 54-19 13-40 24-62 27 11-5 20-10 30-16v-1l-15 8c-20 11-42 17-64 21-49 8-98 2-144-12-18-5-34-13-50-21-37-18-70-43-98-74-40-43-68-99-86-154-14-42-20-87-41-127-18-34-50-63-87-74-30-9-59-6-86 10-7 4-13 10-20 13 19-18 39-29 63-38 13-6 26-11 40-14 6-1 11-1 16-1 8 1 15 1 23 2 12 2 23 6 35 5 11 0 19-5 27-12-1 6-2 13-4 20-14 28-50 11-71 5-11-2-22-5-34-5-4 0-8 0-12 1 6 1 13 0 19 1 19 3 38 9 54 18 15 7 29 15 46 19 13 4 26 4 39 4-6 8-13 16-24 18-15 3-28-3-41-11 2 2 5 5 7 6 18 14 39 17 62 14-5 6-9 12-16 14-9 4-19 3-28-1 2 3 4 6 5 9 4 8 8 17 11 26 12 38 17 78 42 111 18 24 42 36 69 48 19 8 38 16 55 27 31 19 57 48 74 79 9 14 15 30 22 45 0-4-2-8-4-12-6-21-14-41-25-60-8-15-18-29-29-42-4-6-8-11-13-16-6-6-16-10-23-15-14-9-27-18-39-29-14-12-27-25-38-40l-18-26c-5-7-10-15-17-20-5-4-12-6-18-7l2-3c5-5 11-8 18-8s14 4 19 9c4 5 7 12 11 17l16 27c3 5 6 11 10 15-1-6-4-11-6-17-5-11-10-22-13-34-4-17 4-29 13-44 6 34 17 66 34 95 9 15 18 28 30 39-4-8-8-16-12-25-22-59-28-120-28-183v-25l1-21c1-2 1-6 0-8 0-1-2-4-4-5l-10-16c-17-26-24-56-24-87 1-29 11-57 19-84l7-22c1-3 2-6 3-10-6 12-9 27-14 40l-21 55c-8 20-15 38-19 58-1 9-3 17-2 25v2c1 3 1 6 2 9 4 12 13 21 24 27-3 2-6 4-10 5-7 2-16 0-23-4-8-5-14-14-16-24-8-31 9-60 25-85l13-21z" class="B"></path><path d="M367 506c2 0 5 1 6 2 5 2 9 5 14 7 2 0 4 1 7 1l9 3h4l1 1h31c-2 0-4 1-6 1-10 1-21 0-31-2l-10-2c-9-3-17-6-25-11zm158 140c0 3 0 6-2 9l-1 1c-2 5-4 9-10 11l13-21zM385 341l1 1c-5 9-10 18-12 29-1 5-2 10-2 15-1 5 0 11 1 16 2 10 5 19 11 28h-2c-9-13-14-31-11-47l4-21c2-7 6-14 10-21zm-22 140c3 0 13 8 16 10 4 3 9 5 14 7h1c6 2 11 3 16 4 3 1 5 1 8 1 7 2 16 2 23 0l18-3 1 1c-10 3-21 4-31 4-6 0-13 0-19-1l-4-1-9-2c-1-1-2-1-3-1-6-2-12-5-17-8v-1l-6-3c-3-2-5-5-8-7z" class="C"></path><path d="M472 336c9-2 18-1 26 4 9 6 16 16 19 27 4 16 2 34-7 48-7 11-19 22-33 25-16 3-33 0-47-9-15-10-22-23-26-41 1 0 7 11 8 13 10 12 21 20 37 22 14 1 28-2 39-11 10-8 16-19 17-31 1-10-1-20-8-28-5-5-11-9-19-9-7 0-13 2-18 7-7 6-7 13-6 22l-3-6c-2-7-2-13 2-19 4-8 11-12 19-14zm8 697c9 11 19 23 30 33 13 12 28 21 44 28 14 7 29 14 43 22 43 27 76 72 88 121l-16-6c-36-14-69-35-97-61-40-38-71-87-92-137zm480 122h2c-5 11-9 21-16 31-12 19-30 35-49 46-49 28-118 31-172 17v-27c-1-17-2-35-6-52 21 13 45 22 69 28 50 11 101-3 145-26 9-5 18-11 27-17z"></path><path d="M637 408l-6 12c-1 3-2 7-4 10 0-4 2-9 2-13 5-33-8-73-29-99-23-30-62-47-99-51-40-5-81 4-113 29-13 11-26 24-38 37-27 29-50 62-54 103s15 71 40 102c5 7 11 14 19 18 7 4 15 5 23 6-8 5-16 9-25 8-11-1-20-10-27-18l12 21c6 11 12 22 24 26h1c-3 3-8 5-12 6-13 1-26-6-36-14 2 4 4 8 4 12-1 3-2 9-5 11-2 0-4 0-7-1 1-3 0-6-1-9-5-18-17-34-25-50-3-7-6-14-8-21-9-32-5-65 6-95 7-16 15-31 23-46v-1l-55 95h0c26-62 60-120 106-169 34-35 74-66 115-91 28-18 58-33 88-46 76-32 158-47 239-48 43 0 86 4 128 13 18 4 36 10 54 16 35 11 68 29 98 49l33 24 8 7 3 3c3 1 8 0 11 0l28-1 76-2-9 404h-130l-14-74c-13-54-38-103-73-146-11-14-24-27-37-40-20-21-39-39-64-54-42-24-95-29-142-17l-36 13c-7 5-15 9-22 13-20 14-38 30-54 48l-16 20z" class="B"></path><path d="M742 147h9 0c-3 1-7 1-10 1-7 2-14 0-21 2-4 1-8 0-11 0l-6 1c1-2 7-1 9-1 3-1 5-1 8-2 5 0 12 1 17 0 2-1 3-1 5-1z" class="C"></path><path d="M537 247c4-1 7-1 11 0 8 3 12 11 16 18l-14-6c-11-4-22-6-33-8l20-4zm207-91c-7 14-8 26-5 41l-8-15c-5-7-9-15-16-21v-1l29-4z" class="D"></path><path d="M1008 416c3 1 6 5 8 6 6 6 12 12 19 17 11 8 23 15 36 20 34 13 71 7 105 22 13 5 27 17 33 31 3 8 4 18 0 26-3 5-8 10-14 12s-14 3-20-1c-2-1-4-4-5-6-1-3-1-6 1-8 1-2 2-4 4-4-1 2-2 3-2 5 0 3 1 6 3 8 3 2 6 3 9 3 5 0 9-2 12-5 3-4 3-9 3-13-1-6-4-10-9-14-5-3-11-4-17-3-8 2-14 6-18 12-5 7-7 16-5 24 1 9 6 15 14 21 2 1 4 2 6 2 9 3 21 2 30-3 8-4 15-13 17-21l2-5-3 93h-113c-10-62-27-120-61-174-7-10-13-19-21-28-4-5-10-11-14-17zm-370-15c3-13 12-25 19-36 9-13 18-27 31-37 15-13 33-24 50-35 10-7 23-15 30-26 3-4 4-9 5-13-13-1-26-1-39 5 3 4 4 7 6 11-6 18-33 23-47 33l-1 1c17-26 39-49 63-67-6-2-21-9-27-6-12 6-22 18-31 27-25 28-41 57-49 94-4 15-6 30-11 44-2-20 2-39 3-59l1-52 3-24c0-2 0-4 1-6v-1c5-16 13-24 27-34-8 13-12 24-13 39 13-13 21-28 37-37h1c0-2-1-3-1-4-5-7-11-13-19-15-8-1-16 2-23 6-16 12-20 31-23 50l-8-15-4 9c-8-22-19-45-35-62-2 4-4 10-4 14 0 3 4 9 5 11l13 24c13 26 21 55 27 84 4 18 8 37 7 56-6-30-15-58-36-81-3-4-7-7-11-10-1-1-3-3-4-3 0-2 1-8 1-10l-3-18c-3-9-10-21-19-26-4-2-9-2-14-2-14 0-27 3-40 8-6 3-13 6-20 8 14-13 38-19 56-20 3-1 14 0 16-1l-7-4c-12-5-29-9-43-7-4 1-8 3-11 4 9-8 20-14 31-20 25-12 53-25 80-31 40-9 74 3 105 30 12 11 23 23 37 32 17 10 40 16 59 12 15-4 29-13 37-27 7-10 9-25 5-37-3-11-9-22-19-27-10-6-22-7-33-4-7 2-14 8-17 15-3 6-4 15-1 22 2 7 6 12 12 14 5 3 11 3 16 1 4-1 8-5 9-9 2-4 2-9 0-13s-6-7-10-8-8 0-11 2-4 5-5 8c0 3 1 6 2 9 2 2 5 3 8 3s5 0 7-2c3-3 3-6 3-9 0-2 0-1 1-2 1 2 2 4 2 6 1 3-1 6-3 9-2 2-7 4-11 4-5 0-10-3-13-7-4-5-6-11-5-18 1-6 5-11 9-15 6-4 13-6 20-5 8 2 15 7 20 14 5 8 6 18 4 28-3 11-11 21-21 27s-23 7-34 4c-10-3-18-9-23-17-6-11-7-23-3-35 3-12 12-22 23-28 21-11 49-7 71-5 43 5 83 13 124 25-14 4-26 10-38 17l-21 12-23 16h-1c4-4 8-7 12-11 7-7 13-13 17-22 1-4 2-10 4-13 1-1 3-1 4-1 5 1 2 10 5 14 2-1 3-2 5-3 2-3 2-5 2-8h0l-1 3c-1 2-1 2-3 3l-2-1c-1-3-1-7-4-9-2-1-5-2-7-1-10 2-16 15-21 23-1-2-1-4-3-6-2-4-7-6-11-6-6-1-11 0-15 4-3 2-4 5-5 9 0 4 0 6 3 9 2 2 5 3 7 3 3 0 4-1 6-3l-1-1c-1 1-2 2-3 2-3 1-6-1-7-2-2-2-3-4-3-6 0-4 2-7 5-10 2-3 6-3 9-3 5 0 9 1 12 4 2 3 2 6 2 10-1 5-5 12-9 16-7 7-16 12-25 18l-34 24-54 34c-36 25-76 48-105 81-8 9-16 19-23 28-3 5-6 9-9 13z"></path><path d="M881 179h2c2 1 2 1 3 3 0 3 0 4-2 6 0-1-1-1-2-1-2-2-3-3-3-5l2-3z" class="B"></path><path d="M803 275c10-3 20-7 30-9 56-12 113 1 164 26 29 16 56 37 75 64-1-14-2-32-8-45-4-9-11-17-18-23-10-9-22-16-35-22-34-18-77-29-116-26-30 2-57 13-84 25h0c26-14 51-25 81-29 19-3 39-4 59-3 26 1 53 5 80 4 15-1 28-2 41-9-17-2-33-7-51-10-25-4-52-5-78-3-13 1-26 3-38 6-19 4-37 12-55 20v-1c14-7 29-15 44-20 35-12 72-17 109-16 19 0 38 3 56 5-13-8-27-15-42-20-23-8-46-8-69-2-10 3-20 7-30 12v-1c18-11 36-19 56-24 6-2 13-4 19-2 10 3 20 8 29 12 26 13 50 29 73 47l17 14c2 1 4 4 6 5h6l21-1 83-1-6 181-1 56c0 7 1 16-1 23-5-17-14-30-30-39-26-14-54-11-81-14-20-2-39-7-57-16-14-7-27-17-39-28-14-14-26-28-38-43-7-8-13-16-21-23-23-23-51-37-82-46s-65-8-96 1c-10 3-20 7-29 12l-3 3c-2 2-6 3-9 5l-23 15c2 0 6-3 8-4 1-1 2-2 4-2l1-1c1-1 3-1 4-1-7 5-15 9-22 13-20 14-38 30-54 48l-16 20-1-3c0-1 1-2 2-4 3-4 6-8 9-13 7-9 15-19 23-28 29-33 69-56 105-81l-1 3c1 0 3-1 4-1 1-1 2-1 3-1 2-1 3-1 4-2l5-3 3-2c2-1 4-2 5-3l6-2 1 1s0 1-1 1c-1 2-4 3-6 4l-15 8v1l2-1 2-1c2-1 3-1 4-2s1 0 2-1h0l3-1c2 0 1-1 3-2h4z"></path><path d="M1090 262l1-1c2 0 4 1 6 2 2 2 3 4 3 6 1 3 0 5-2 6-3 3-6 3-9 3-2-1-4-1-5-3-2-1-3-3-3-5 1 1 1 2 2 3l2-6c1-3 2-4 5-5zm99 152c0-2-1-5 0-7s3-4 5-5c2 0 4 0 6 1 4 1 6 5 8 8 2 6 1 12-2 18-3 5-7 8-13 9-5 1-11 0-14-3-5-3-8-8-9-14s0-13 4-19h1c-1 7-3 15-1 21 2 4 6 9 10 11 4 1 9 1 12-1 5-2 8-6 10-10 1-5 1-10-2-15-1-2-3-3-6-4-1 0-4 1-5 2-2 2-1 4-1 6 2 3 3 3 6 5v1c-2 0-2 1-4 0-2 0-3-1-4-3l-1-1z" class="B"></path><path d="M775 279l-1 3c1 0 3-1 4-1 1-1 2-1 3-1 2-1 3-1 4-2l5-3 3-2c2-1 4-2 5-3l6-2 1 1s0 1-1 1c-1 2-4 3-6 4l-15 8v1l2-1 2-1c2-1 3-1 4-2s1 0 2-1h0l3-1c2 0 1-1 3-2h4l-49 26h1l16-8-1 1c-2 4-9 5-13 8 2 0 3-1 5-2l2-1c1 0 2 0 3-1 1 0 2-1 3-1l2-1h0 4c-15 6-29 13-44 22-7 4-14 9-21 14h2c10-7 21-15 34-20l-3 3c-2 2-6 3-9 5l-23 15c2 0 6-3 8-4 1-1 2-2 4-2l1-1c1-1 3-1 4-1-7 5-15 9-22 13-20 14-38 30-54 48l-16 20-1-3c0-1 1-2 2-4 3-4 6-8 9-13 7-9 15-19 23-28 29-33 69-56 105-81z" class="C"></path><path d="M771 293c5-4 12-6 18-9 29-12 58-17 89-14 41 5 79 23 105 56 12 16 23 35 29 54-33-40-73-69-123-84-12-3-24-6-37-8-17-1-34-1-52 2-6 1-11 3-17 4-2 1-5 2-7 2h-4 0l-2 1c-1 0-2 1-3 1-1 1-2 1-3 1l-2 1c-2 1-3 2-5 2 4-3 11-4 13-8l1-1zm375 14c7 1 12 1 18 5 10 5 17 17 20 28 5 19 0 43-10 60-2 3-5 6-7 9-12 12-24 21-41 24-25 5-53-2-74-16-12-7-25-19-28-33v-1c-2-6-2-13-1-19 2-5 5-9 10-11 3-2 8-2 12-1 3 2 6 5 6 8 1 2 1 5-1 7-1 2-2 2-4 3-2-2-2-2-3-4l2-4-1-1c-2-2-3-1-5-1-3 1-5 3-6 5-2 4-1 11 1 16 5 13 17 24 30 30 18 9 38 11 57 4 17-6 31-18 39-34 5-12 9-32 5-44-3-8-8-11-15-14 1 2 4 3 6 5 2 3 4 7 5 11 1 5 0 10-3 14-3 5-7 8-13 9-7 2-13 0-19-4s-9-10-10-17c-1-8 1-15 5-21 7-9 15-12 25-13z" class="B"></path></svg>