<svg xmlns="http://www.w3.org/2000/svg" xmlns:v="https://vecta.io/nano" viewBox="150 40 1209 1404"><!--oldViewBox="0 0 1531 1532"--><path d="M774 121c11-1 22-1 34-1 62 1 125 12 185 32 124 43 238 126 297 246-1 6-4 12-6 17-5 16-11 33-19 47-4 6-12 10-17 14-33 22-67 37-104 48-27-19-59-34-90-45-3-1-20-6-21-7l-6-28c-9-34-25-69-48-97-29-35-72-57-117-61-53-5-105 15-145 48-66 56-96 138-111 220-7 33-11 67-14 101l-6 139c1 92 9 187 42 273 13 34 30 66 54 94 36 43 85 69 142 74 54 4 109-10 151-46 58-51 78-135 84-209 42-3 83-14 122-28 5-1 13 3 18 5l25 7c36 10 72 17 109 24-4 32-11 63-21 93-19 55-49 105-88 149-70 80-165 138-268 165-40 10-80 16-121 18l-49 1c-60 0-120-7-177-23-87-25-172-72-239-132-55-49-103-108-137-174-44-85-66-184-71-279-3-53 0-106 9-158 20-118 74-229 154-318 92-102 212-169 346-197 34-7 68-10 103-12z"></path><path fill="#fffffe" d="M782 135c11-1 22 0 32 0 72 0 144 17 210 45 83 36 157 92 209 166 16 22 30 46 40 71-4 5-10 10-15 14-38 30-87 46-134 45-13 0-26-1-39-3l-26-62c-36-69-97-130-172-153-62-20-130-12-187 18-92 49-147 145-177 242-18 60-27 122-32 185-4 53-4 106-1 160 6 92 23 188 67 271 39 72 97 128 177 151 73 22 159 15 226-22 70-38 109-106 130-181 7-24 12-49 14-73l204-12c-4 81-43 160-95 220-28 33-62 62-97 86-84 58-183 96-285 103-43 3-84 1-126-5-31-4-61-10-91-18-80-24-157-68-220-122-52-45-98-99-131-159-15-26-27-54-38-82-24-64-38-131-43-199-6-72 1-146 21-216 11-39 27-77 45-114 24-49 54-95 90-136 26-30 55-59 86-84 80-66 181-110 283-128 25-4 50-6 75-8z"></path><path d="M1054 227h3c2 2 2 3 2 6-1 2-1 2-3 3h-4c-1-1-2-2-2-4 1-3 2-3 4-5zm-9-14h3c2 1 3 3 4 5-1 3-1 3-3 5-2 0-4 0-5-1-2-2-2-3-2-5 1-3 1-3 3-4z"></path><path fill="#424142" d="M459 783l5 32c-1-1-2-2-3-4-1 0-1-1-1-1l-3-24v-1l1 2c0 2 0 4 1 6v-5-5z"></path><path d="M1175 1049h4c2 1 2 1 3 3 0 3 0 4-2 6h-6c-2-1-2-2-2-4s1-3 3-5zm12-701h3c2 1 3 3 4 4 2 3 4 9 4 12-4-2-11-10-12-14l1-2zm-761 706h2l-17 10c-4 2-8 5-12 5l-2-1v-2c4-3 11-4 15-5 5-2 9-4 14-7zm751 11h4c2 1 3 2 3 5s-1 3-3 5c-1 1-3 1-5 1l-1-2c-1-1-1-2-1-4 0-3 0-3 3-5zm6 13c2-1 2-1 4 0 2 2 2 2 3 5-1 3-1 3-3 5-3 0-4 0-6-1-1-2-2-3-2-5 1-3 1-3 4-4zm-745-25h2c-9 7-19 13-28 19-3 2-7 6-10 7-1 1-3 0-4 0h0c-1-2-1-2-1-4 4-3 11-3 15-6 9-4 18-10 26-16zm662-779h4c2 2 2 2 2 4-2 6-13 11-18 15-1 1-2 1-3 1 2-2 5-4 7-7 3-4 4-9 8-13zm-591 961c1-1 1-1 2-1 2 0 5 0 6 2 2 1 2 3 2 5 0 3-1 4-3 6h-1c-3 0-5 0-7-2-1-1-2-3-2-5 0-3 2-4 3-5zM222 849l3 17c1 4 4 10 3 14-1 2-1 2-3 3-3 0-3 0-5-1-3-7 2-13 2-19 1-4 0-9 0-14zm347-516l2-1c3 1 4 2 5 4 1 1 1 2 1 4-1 3-3 5-5 7-1 1-2 1-2 1-2 0-3-1-5-2-1-2-1-4-1-6 0-3 2-5 5-7zm-10-14h2c2 1 3 2 4 4 0 3 0 5-1 7-2 3-3 4-6 5-3-1-4-1-6-4 0-2 0-4 1-6 1-3 3-5 6-6zM311 809c5 4 17 10 18 16 1 2 0 3-1 5-2 2-3 2-5 2-4-2-9-18-12-23zm12-137c3 0 7 1 9 3 2 1 3 4 2 6 0 2-1 3-3 5h-1c-2 1-5 1-7-1-1 0-2-2-2-4-1-3 0-6 2-9z"></path><path d="M577 289c1 0 2 1 3 2v1c-2 7-5 13-9 19h-2c-2-1-3-1-4-2 1-7 7-15 12-20z"></path><path fill="#eeedee" d="M394 331c0 4-1 4-2 7l-1 1c-1 1-2 2-2 4 1-2 3-5 6-5v2c0 2-4 5-5 7-1 1-2 2-2 3l-3 4c-2 3-3 6-5 9-2 1-3 3-4 4-1-1-1-1 0-3l1-1c1-1 1-2 1-4-1 2-1 3-2 4-1 3-2 4-4 6 5-13 14-25 22-38z"></path><path d="M1192 1051l4-1c1 1 2 1 3 2 3 3 5 7 8 10 5 5 15 12 19 19l-2-2c-6-5-13-12-20-15-4-3-12-3-15-6 0-1-1-2 0-3 0-2 1-3 3-4zm-101-689c4 0 12 9 16 12 3 2 6 2 8 4 2 1 3 2 3 4 1 4 0 7-2 9-1 2-2 2-4 3-3-1-3-2-3-5-1-3-1-8-3-11-2-6-10-12-15-16zM935 195h1c10 6 19 14 25 24 2 4 3 9 6 13 2 3 7 7 8 10 0 2 0 3-2 4 0 1-1 1-1 1-8 2-7-14-9-19-7-14-16-24-28-33zm185 991h2l1 1c2 3 2 10 2 15 1 11 1 23 0 34 0 6-1 11-2 17v1-3c2-13 1-29-2-42-1-6-4-12-4-18 0-3 1-3 3-5z"></path><path fill="#121212" d="M952 190c7 5 35 22 37 29 1 3 1 8 0 10s-3 3-5 4c-2-1-2-1-3-3-1-8 0-15-7-22-7-6-14-11-22-16v-2z"></path><path fill="#eeedee" d="M707 1349c2 0 4-1 6 0l5-1 1 1h1c2 0 4 0 6 1h3 3c-2 0-4 0-7-1-2 0-4 1-5-1h-4l-2-1c-1 0-2-1-3-2 1-1 3-1 4 0h2l2 1 5 1c6 1 13 0 18 1 6 1 12 0 18 0 1 0 3 1 5 1s5 1 6 0c2 0 4-1 6-1v1c-1 1-3 0-4 2h-1-5-3v1h2c1 0 1 0 2 1h4l1 1c-2 1-15 1-17 0h-1l-48-5z"></path><path d="M1017 1318h4c2 2 2 2 2 4-3 3-9 3-12 5-3 1-6 2-9 4-17 11-33 24-48 38l-4 3v-1c6-7 13-14 19-20 15-12 31-24 48-33zM643 209h1l-17 17c-9 10-17 20-24 31-5 7-9 16-15 23-1 2-2 4-5 5-1-1-1-2-2-3 1-6 5-11 9-16 15-22 33-40 53-57zm387 141h1c19 15 35 34 45 56 1 4 2 7 1 11l-1 1c-3-1-12-20-14-24-9-16-20-30-32-44zm-502 898h1c3 0 7 3 9 6 8 11 18 19 29 28 16 12 33 23 51 32 4 3 9 5 14 7 2 1 6 2 8 4l-2-1-38-17c-13-7-26-16-38-25l-20-17c-5-3-14-6-16-12 0-3 0-3 2-5zm5-1001c4 0 8-3 11-5l20-10c4-1 8-3 12-4l3 1-14 12c-2 2-5 5-8 7l-2-1c-4 4-11 14-17 14-3 0-3 0-6-1-1-3-1-5-1-8 0-2 1-4 2-5zM387 460h4c1 0 1 1 2 2 2 4 3 7 5 11 3 6 6 12 10 17 10 12 28 25 44 27 1 0 3 1 4 1h-1c-15-2-28-5-40-14-13-9-28-24-31-40 1-2 1-2 3-4zm87 417c-3 9-9 18-15 24-1 2-3 4-5 5-15 8-34 2-49-2-2-1-4-1-5-2 6 1 13 0 20 0 21-2 40-8 54-25zM372 369c-2 1-3 5-3 6-5 11-6 22-9 33v-3c1-25 11-48 22-70 4-8 8-17 13-24 4-5 8-9 12-13-6 11-8 22-13 33-8 13-17 25-22 38zm366-215h2c-47 17-89 53-117 95l-16 27c-3 5-6 12-9 17l-6 6c-1 2-1 5-2 6-1 6-2 13-6 18-2 2-2 2-5 2-1 0-1-1-2-2 0-2 0-4 1-5 4-8 9-14 12-21l9-16c33-56 77-104 139-127zM484 384c13-1 27 2 39 6 10 5 26 13 30 24 2 6-5 16-7 21l-3 7c-3-9-4-16-9-24-7-11-16-22-28-27-7-4-14-5-22-7zM265 527c3 1 5 9 7 12 4 8 10 16 15 24 24 33 60 59 101 65 31 5 62-2 88-18 6-4 11-8 16-12l-1 2c-13 14-33 24-52 29-35 9-72 5-103-14-25-15-45-36-59-62-5-8-9-16-12-26zm-1 52c2 3 3 7 4 11l7 20 28 60c3 7 5 14 9 20 5 11 19 12 22 25 0 3 0 6-2 9-2 1-3 2-6 2-3 1-7 0-9-3-7-5-8-15-10-23-1-5-3-10-5-15-10-26-22-51-31-77-3-10-6-19-7-29zm-21 15c1 3 0 7-1 10l-6 25-3 25c-3 29-3 59-1 88 3 40 12 79 24 117 1 3 2 7 3 10 2 5 8 7 8 13 0 2-1 3-3 4-1 1-3 0-5 0l-3-3c-1-4-1-10-2-14-2-6-4-12-5-18-24-82-34-175-6-257zm26-101c11 37 37 69 67 92 42 31 93 40 140 14 4-2 9-5 13-9 2-1 6-6 8-6l-1 2c-5 7-12 11-19 15-31 18-64 22-98 13-43-12-76-45-98-83-5-9-15-27-12-38zm20-56c1 1 0 17 1 20 2 17 9 31 19 44 22 28 63 44 97 47 36 4 78-4 107-27-2 3-4 5-6 7-10 10-26 16-39 20-41 14-85 9-123-11-25-13-47-31-55-59-4-13-7-29-1-41zm306 815h1c4 0 7 4 9 6 8 8 18 14 27 20 44 27 97 44 148 46 14 0 28 1 41 0 10-1 20-3 29-3h-3l-10 3c-21 4-43 5-64 4-53-3-105-16-150-46-9-6-17-12-24-18-3-3-7-5-7-9 0-2 1-2 3-3zm-136-64c4 0 9 0 12 1 5 2 9 5 11 9 10 23-19 24-25 40-3 10 1 19 5 27l5 9c-8-9-15-17-20-27-6-13-9-32-3-45 3-8 8-11 15-14zM260 832l19 32c7 9 15 20 27 22 5 0 7-1 10-3l1-1c2 6 5 13 6 19 1 7 0 11-5 17-2 1-5 3-7 4-9 2-18 1-25-4-2 0-9-5-9-7 0-1 2-7 3-8 1-2 1-5 1-7 0-10-4-18-7-26-5-13-10-25-14-38zm248 456l3-1c4 2 6 5 9 8 4 3 9 5 13 7l23 12c62 29 127 47 195 48 11 0 22 0 33-1 2-1 4-1 6-1l-3 1c-9 2-19 3-28 3-17 2-34 1-51 0-35-2-70-8-103-20-30-10-56-26-83-41-6-4-14-4-17-11 1-2 1-3 3-4zM952 192c-7-3-14-7-20-10-33-13-66-16-101-12-78 8-147 48-192 113-8 12-14 26-21 39-2 5-5 10-9 15 5-14 10-28 17-41 32-60 86-104 151-123 60-18 121-12 175 17v2zm321 815h26c-2 11-2 25-6 36-2-7-3-14-8-19-3-4-8-7-13-7-4 0-8 1-10 4-2 2-2 4-2 7h1c1-1 3-3 5-4 4-1 8-1 12 1s7 7 8 11 1 9 1 14c0 12-4 24-8 35-6 16-12 30-20 45l-17 27 20-52c6-18 13-40 3-58-9-17-23-30-42-36 17-3 34-3 50-4zm-246 271h3c8 6 2 13 6 19s15 1 21 2c3 2 4 4 5 7 2 5 2 10-1 14-3 6-13 10-20 14-19 10-39 19-60 27-5 2-11 5-16 7 12-13 28-22 44-29 6-3 13-5 19-9 2-2 4-4 4-7 1-5-2-8-5-11l-1-1c-1-1-3-3-5-3-4-1-8 0-11 1-6 3-13 9-18 14l-36 33c-7 8-13 17-22 22v-1c3-5 8-10 12-15 14-18 30-35 46-52 9-9 17-18 26-26 3-3 5-5 9-6zm18-1079l2 1c13 7 26 14 39 22 14 9 32 19 38 36 3 10 2 21-3 30-6 11-17 20-29 24 9-6 18-12 24-22 3-6 6-14 4-21-2-6-6-11-11-14-4-2-9-2-13 0-4 1-6 4-8 8v1c-6 14-13 23-26 32-16 11-40 19-60 14-2 0-8-1-9-3 7 2 13 2 20 2 14-1 28-7 38-17 11-13 18-33 17-50-1-19-9-31-23-43zm46 932c11-1 20 2 29 9 18 13 28 35 31 56 4 28-7 49-23 71 1-6 4-12 6-18 6-15 9-35 6-51v-1l-1-6c-2-8-5-14-12-18h-1l-9-2h-1c-1-4-5-9-9-11-4-3-10-4-15-3-3 1-6 3-8 6-1 2-1 4-1 6l2-2 2-2c2-3 6-4 10-4 7 0 12 5 16 10 0 1 0 1-1 1-2 2-4 4-6 7-5 8 0 20 3 28 1 4 2 8 3 13-4-7-7-13-12-19-11-13-24-20-31-36 1-4 3-8 5-12 3-5 5-11 8-17 2-3 5-4 9-5z"></path><path d="M531 244c-2-1-5-2-8-2-14-1-13 13-21 20-6 5-15 9-23 8-5 0-7-5-10-8 10-11 24-18 36-27 12-8 22-19 36-27 12-7 26-13 40-18 31-13 62-23 94-31 12-3 24-6 37-7l-1 1c-35 8-67 27-96 47l-36 29-3-1c-4 1-8 3-12 4l-20 10c-3 2-7 5-11 5 0-2-1-2-2-3z"></path><path fill="#3a393a" d="M531 244l59-32c7-3 17-11 25-12l-36 29-3-1c-4 1-8 3-12 4l-20 10c-3 2-7 5-11 5 0-2-1-2-2-3z"></path><path d="M278 459c0 6 0 12 1 18 4 15 11 28 21 40 26 30 71 48 110 50 35 3 72-9 98-32l-7 28c-3 8-11 14-18 18-29 17-66 22-99 13-40-11-76-42-97-78-7-13-14-28-13-43 1-4 3-9 4-14zm614-255c23 8 33 19 40 42 3 11 6 18 12 26-25-14-50-25-78-30-68-14-138 2-195 40l-30 22c3-4 7-9 11-13 6-7 13-15 20-22 45-44 117-69 179-53 7 2 14 5 21 8s16 8 24 8c4 0 7-1 10-4 1-2 2-4 2-6-1-8-10-14-16-18zm94 1058l1 1-34 43c-11 15-21 32-35 46-22 22-51 38-82 43-16 4-32 4-48 4 6-12 15-23 24-32 26-26 59-43 93-59 28-13 57-26 81-46zM465 390c6 0 13 1 19 3 12 4 21 12 26 23 6 12 8 26 5 39-1 4-3 8-4 13 6-10 9-18 10-30l1 1c1 3 1 7 0 11-2 14-9 23-21 32-9 6-18 10-29 12-11 1-21-2-30-9-12-10-21-26-22-42-2-14 2-27 11-37 9-11 21-15 34-16zm-87-64h0l-10 17c-5 9-10 21-13 32-9 36-7 75 13 107 13 21 35 37 59 43 32 8 61 0 89-17v1c-3 4-7 6-11 9-12 6-24 10-36 13-30 8-63 9-93 0-13-3-26-10-37-16-12-8-23-16-31-27-11-16-16-35-12-54 0-4 2-9 4-13 5-10 13-19 19-28 11-14 21-28 33-41 4-5 9-10 14-14-7 11-15 21-21 32-8 19-12 39-17 58-2 6-8 16-5 22 1 2 3 3 6 4s6 1 8-1c3-1 5-4 5-7 1-3 1-6-1-9l-4-5c-1-24 8-51 19-72 3-7 9-15 12-22 2-4 7-9 10-12z"></path><path fill="#121212" d="M338 462c2 0 3 0 5 1 0 3 0 4-1 6-3 2-6 4-10 5-3-1-4-4-6-6 3-3 8-4 12-6z"></path><path fill="#424142" d="M325 471c8 9 18 15 27 21v2l-4 2c-4 2-10 4-15 4-2 0-4-2-6-3-4-6-2-19-2-26z"></path><path d="M1064 1172c12 18 32 29 39 49 9 25 7 53-5 77 1-4 2-9 2-13 0-17-8-34-23-42-6-3-15-5-18-11-1-3-1-6 1-9 2-4 5-6 8-7 6-1 10 1 15 4h0 1v-2c-2-4-6-7-10-8s-9-1-13 1c-3 3-7 7-8 11-4 16 13 19 24 26 5 4 8 8 12 13 6 10 8 23 5 34-3 13-21 23-32 30l2-4c2-4 3-8 2-13s-4-10-8-12c-5-3-14 0-19 2v-4-10c-1-3-6-7-8-9 3-2 6-3 10-3 6-1 12-1 17 3 9 7 10 18 11 28 3-7 3-12 1-19v-1c-3-6-7-11-12-15-15-11-35-4-49 6-10 8-19 18-28 27-19 22-35 45-54 65-5 6-11 12-17 16-9 6-25 8-35 10 16-8 30-17 43-29 13-13 25-28 36-42l27-36 45-57c14-18 27-36 38-56zm132-160h1c17-1 32 0 46 13 7 6 12 15 13 25 0 4-1 7-4 10-1 0-1 0-2-2-5-18-13-28-28-37 7 10 11 21 15 33 6 17 10 32 10 50-2-5-3-11-5-17-4-11-9-23-15-33-7-11-19-26-32-28-8-2-16 0-22 5-7 5-12 14-13 23-1 8 0 16 3 23 13 25 48 16 64 38 7 10 8 23 6 35-5 29-27 54-47 76-19 21-40 41-63 58h-1c7-6 14-14 20-21 15-16 29-32 41-50 10-15 19-34 15-52-2-7-6-13-12-16-6-4-14-5-20-3-7 2-11 6-14 12l-1 1v2l3-4c3-5 9-8 15-8 5-1 12 0 16 3 5 4 8 10 9 16 2 27-25 54-41 72 5-13 6-27 4-41-3-23-15-45-34-59-12-9-23-12-38-9 14-35 23-71 28-107 16 0 32-1 48-4-11 13-15 29-19 45-3 9-5 17-7 26v5c-2 11-2 25 5 34 2 2 5 4 8 5 6 0 10-1 15-4 3-4 6-8 6-13 0-4 0-4-2-7l-1 1c-1 4-2 9-6 12-4 2-8 2-12 1-3-1-6-4-8-7-6-13 1-35 5-48 2 11 8 22 17 30 14 12 33 13 50 12-15-4-35-5-47-15-9-6-15-17-16-28-1-14 3-30 12-41 9-10 22-10 35-12z"></path><path d="M1120 1029c2-1 6-1 8 0 3 1 5 2 6 4-1 3-6 5-8 7l-6 7-1-3c-1-2-2-4-2-7-1-4 0-5 3-8zm-5 48c2-1 4-1 6 0 5 1 8 7 10 11l-12 10c-2 2-3 5-5 8-3-7-5-15-4-22 1-4 2-5 5-7z" fill="#fffffe"></path><path fill="#424142" d="M1183 1114l6 2c6 4 16 10 18 18 1 4 0 8-2 12l-3 2h-1c-5-7-13-15-16-23-1-4-2-8-2-11z"></path><path d="M1136 257l35 30c37 36 68 80 90 127l-18 15c-44 31-98 43-151 34l-8-23c-2-5-5-10-6-15l1 1h1c3 2 9 2 12 1 2-1 3-2 4-4 1-3 1-6 0-8-4-3-8-4-12-5-1 0-3-1-3-2-3-3-4-9-5-13-1-7-3-13-5-19-4-9-10-16-17-22-3-2-9-5-11-8 2 1 1 0 3 1 17 9 36 22 46 39 5 9 7 19 11 28 3 10 7 17 16 21-8-8-12-16-14-27 4 0 8-1 12-2h1c1 1 1 2 1 4 3 10 9 17 18 22 13 8 33 9 48 5 6-2 12-6 17-11 8-9 11-21 8-33-1-5-3-9-3-14-1-9 1-19 1-28 0-6-3-13-8-17-2-2-5-3-8-3s-6 2-9 5c-3 4-4 10-2 15 1 3 4 6 6 8 9 11 17 20 19 34 1 9-1 16-6 23-6 8-16 13-26 14-12 2-27-1-36-9-6-5-10-12-11-19-1-12 2-22 10-30 5-6 13-14 22-14 2 0 5 2 7 3 3 5-2 13-2 18-1 4 0 7 3 9 3 3 6 4 10 4 1 0 0 0 2-1-1-1-3-3-3-4-2-6 3-15 0-21l-1-1c-2-3-4-6-7-8-6-3-12-2-18-1-11 4-19 13-24 22-1-3-2-7-3-11-3-6-8-13-14-16-7-5-17-7-26-9l-38-7c-10-2-19-5-28-8v-1c32 9 70 13 101-4 11-6 21-16 25-28 3-14 0-25-7-37z"></path><path fill="#626162" d="M1206 433h4c2 3 2 3 2 6-1 2-2 2-4 3h-3c0-1-1-2-2-3 0-1-1-3 0-5l3-1z"></path><path fill="#eeedee" d="M1157 450s1 0 2-1c2 0 4 0 6 2 0 3 0 3-2 5l-2 2c-3 0-3 0-5-2-1-3-1-3 1-6z"></path><path fill="#626162" d="M1188 442l1 1c1 2 1 4 1 6-2 2-5 3-7 3l-1-1c-1-2-2-4-2-6 2-2 5-2 8-3z"></path><path fill="#424142" d="M1129 449h1c3-1 5 0 8 1v3c0 3 1 4-1 6h-6c-2-1-3-1-4-3 0-3 0-5 2-7z"></path><path d="M1224 420c2 0 4 1 6 2 0 3 1 3 0 6-2 2-2 3-5 4-2-1-3-1-5-2-1-2-2-4-1-6s2-3 5-4zm17-13c3 1 5 1 6 3 2 2 2 4 1 6s-3 3-5 4c-2 0-3 0-6-2-1-3-1-4-1-8 2-2 2-2 5-3z" fill="#fffffe"></path><path fill="#424142" d="M1090 436l10-1c3 3 5 6 6 8l-4 7c-1 2-2 3-4 4-4-5-6-12-8-18z"></path><path d="M1159 294c2 0 4 0 6 1s4 4 4 6c1 3 2 10 1 12l-2-1c-4-3-10-5-13-9-1-1-1-1-1-3 1-2 2-4 5-6zm64 76c2-1 4-1 6 0 3 2 5 4 6 8 0 4-2 7-5 11l-5 5c-1-6-5-18-2-24zm-76-52h5c3 0 5 2 7 4 2 3 3 6 2 10 0 4-2 7-5 9-13 9-36 5-51 2l-12-3c13 0 25 4 38 3 4-1 8-1 12-3 2-2 4-4 4-7 1-2 0-5-2-7l-3-4c2-2 3-3 5-4z" fill="#fffffe"></path><path d="M629 199c23-17 49-29 75-41l1 1c-15 8-30 16-44 25-20 13-39 29-55 45-12 12-24 24-34 38-6 9-11 20-17 30-5 10-13 20-17 31-1 5-1 11 1 16 3 6 14 19 21 21 5 1 11 0 15-3 8-5 13-14 17-22l12-26 12-28c25-48 62-90 110-114 47-24 103-29 154-20 37 7 71 20 105 38 20 11 41 24 55 44 8 12 13 25 10 40-2 9-9 18-17 23-11 7-24 8-36 4-13-3-22-9-33-17 16 4 39 3 53-5 5-3 8-8 10-13 1-6 1-10-2-15-1-1-1 0-2-1 0 2 0 4 1 5 0 4-2 9-4 12-6 8-19 12-29 13-16 2-31-1-43-11-10-8-11-22-16-33-4-10-9-19-18-25-8-7-18-10-28-12-21-6-44-8-66-6-63 5-126 41-167 89l-27 37c22-54 77-95 129-117 40-17 104-31 146-14 18 7 30 21 38 38 5 14 11 29 26 35 5 2 10 2 15 0 4-2 7-5 9-9 1-1 2-4 3-5l3-1c6-1 11-3 13-9 3-7 2-16-1-21-5-11-17-18-26-23-20-12-42-21-65-28-63-20-131-13-190 19-48 26-84 69-109 118-8 15-14 32-22 47-5 9-11 18-17 26l-18 30c-5-4-9-9-15-13-15-11-34-15-52-16-20 0-43 5-58 19-12 11-18 28-19 45 0 17 4 32 16 44 10 12 25 18 41 19 16 0 30-5 41-16 12-11 16-25 16-41 0-18-4-30-16-43h1c11 9 18 25 20 39 1 17-4 36-15 50-11 13-31 19-48 20-18 2-33-2-46-14-21-18-33-46-35-74-1-2 0-7-3-8-5 2-8 8-9 13-6 14-6 32 1 46 6 14 15 22 27 32-15-6-29-24-36-37-9-20-9-44-2-65 4-12 10-23 17-34 3-5 7-9 9-15 1-3 1-6 2-10 2 6 8 15 7 21-2 3-6 4-10 5-1 2-1 3 0 5s1 3 4 3c5 1 12-2 18-3s12 0 18-1c2-1 4-2 6-4 4-3 5-8 4-13 0-6-3-11-7-14s-9-4-14-7c-6-3-11-10-13-17-1-10 1-21 7-30 11-15 30-22 46-30-7 12-8 20-8 34v7s-2 1-2 2c-4 3-8 5-7 11 0 2 3 5 5 6 3 2 7 2 11 1 3-1 6-3 7-6 2-3 2-8 1-11-1-2-3-3-5-3-2-1-3-1-5-2-1-12-1-23 6-33 3 5 5 10 9 15 5 6 12 10 17 16 5 7 7 14 8 23 0 5 0 10-2 15s-7 8-11 9c-7 3-18 4-25 1-5-2-8-7-12-12 2 7 4 11 10 15s15 4 22 3c7-2 12-5 16-11 1-1 2-4 4-5s7 1 9 2c3 2 4 5 5 8 4-2 8-4 11-7 0-2 1-4-1-6-2-4-6-7-11-8-3-1-6-1-9-1 0-12 0-21-8-30-7-7-16-10-22-18 7-1 13-1 19-4 3-2 6-4 10-7 2-1 5-4 7-4 3-1 6 1 8 3 5 4 10 11 10 18 0 4-1 9 1 12 4 2 8 2 11 1 12-6 13-24 20-34 4-6 10-11 15-16 12-13 25-25 38-36l14-10z"></path><path fill="#121212" d="M629 199h1l6-3 1 1c-2 1-3 2-5 3-6 4-9 10-17 9l14-10z"></path><path d="M317 867c30 20 64 36 99 44 12 2 26 4 37-3l1-1c-5 14-11 29-25 37-4 2-10 5-13 9-2 3-3 6-2 9 0 2 2 4 3 5 3 2 7 3 10 2 10-2 20-16 25-24h1c-11 19-28 35-47 43-16 7-36 8-51 1-9-4-16-12-19-20-3-7-3-16 0-23 3-5 8-10 13-11 12-4 18 5 27 10 5 3 14 4 21 2 2-1 4-2 6-5h-5c-6 1-13 1-19-3-3-2-6-5-9-8-6-4-13-6-20-4-7 1-14 5-18 12s-6 18-4 26c4 14 12 23 24 30 6 3 12 5 18 7 21 6 36 2 53-11 4-3 9-8 13-9-2 4-33 28-38 31s-11 2-15 6c-1 1-2 3-2 6 0 2 1 5 3 6 2 2 5 2 8 2 5-1 13-9 17-12 6-4 12-7 17-11 24-17 41-38 48-68 3-13 3-27 4-41 0-4-1-10 0-14 0-1 1-1 1-2 4 47-3 93-41 124-4 4-9 8-15 11-4 4-9 6-12 11 0 3-1 3 1 5 2 1 3 1 5 1 16-1 31-13 41-25h1c-12 19-28 31-48 38-7 2-15 5-22 9-4 3-9 7-10 12 0 4 0 8 2 11 4 5 10 6 16 7l-4 2c-8 2-11 7-15 14 3-2 6-4 10-5 8-4 16-6 25-9 28-13 49-39 60-68 3-7 4-15 7-23l-1 5c-3 25-12 51-29 70-8 10-17 18-27 26-22 15-50 31-79 29-19-2-39-10-52-26-8-10-12-24-11-37 2-13 9-24 19-32 11-9 24-13 38-11 10 2 18 6 23 14 4 5 6 10 4 17-2 14-18 12-28 19-3 2-5 6-6 10 0 5 1 9 4 13 2 3 5 5 9 5h1c-4-4-7-8-7-13 0-15 21-14 29-23 6-7 6-15 5-24 4 4 6 8 13 9 2-1 4-1 6-3 2-3 2-6 1-9v-1l-4 5c-2 1-4 1-6 1-5-2-7-9-9-13-6-12-19-22-31-26l-1-1c-8-2-17-1-25 1-12 4-20 13-26 24 12-10 23-18 40-18 11-1 23 4 31 12 2 3 7 7 7 11l-3-5c-7-8-15-13-27-14-15-1-30 3-41 13-15 12-21 28-23 46v-1c-4-15-4-32 4-47 2-5 6-9 8-14-2 3-5 5-7 8-11 14-16 31-14 48 3 19 15 38 29 51 5 5 11 10 17 14h-1c-35-16-53-58-66-92-6-17-10-37-2-54 3-8 9-15 18-17 5-2 12-2 17 1 8 4 10 11 12 19h1c1-2 3-3 3-6 1-4 0-10-3-14-3-5-8-8-14-8-10-2-21 2-29 8-12 9-16 23-18 37l-22-79c4 4 9 9 14 12 8 5 18 7 27 5 5-2 10-5 13-10 5-10 3-20 0-30 4 5 9 10 14 13 10 8 23 13 36 11 6-1 11-4 15-9 10-17-5-36-9-53z"></path><path fill="#424142" d="M299 952h4c4 0 7 1 10 4 4 5 7 12 6 19-2 16-16 26-28 35h-1l13-12c6-6 13-16 13-25-1-5-3-11-7-14-3-3-7-4-11-4-2 1-2 1-3 0 0-2 2-2 4-3z"></path><path d="M755 1354l-34-2c-44-4-87-15-127-32-20-9-40-19-59-29-11-6-22-13-34-19-3-1-7-3-11-3s-6 1-8 4c-1 3 1 7 2 10-7-9-11-18-13-29-2-13 2-20 9-30 5-6 9-13 7-21-1-7-4-13-10-17-5-4-11-4-17-3-8 2-14 8-18 15-8 15-8 35-3 51 4 14 13 25 22 36 26 30 60 49 94 67v1c-21-8-41-20-60-31-64-37-119-82-166-139-13-16-27-34-38-52 14 10 28 13 45 16 9 1 19 2 28 2s17-2 24-5c27-11 46-40 65-60-6 11-13 21-19 32-17 30-24 61-19 95 1 7 3 14 5 21 1 2 1 4 3 5-2-9-5-18-6-27-3-21-1-44 6-64 6-16 14-30 23-45 11-18 21-35 27-55 7-20 10-41 12-61l2-46c7 44 17 87 31 129 6 19 13 38 22 55 8 18 18 35 28 52-5-4-11-8-18-12-9-6-16-12-27-16-13-4-31-3-43 4-8 5-13 11-16 20 2-1 3-4 4-6 6-9 15-14 25-16 20-4 38 4 54 14-13 0-26 2-36 10-7 5-12 12-13 20 0 5 1 11 4 15 2 2 4 2 6 2 3 0 6 0 7-2l-3-3c-3-3-4-7-4-11 0-6 3-10 7-14 7-7 16-10 26-10s25 7 33 14c6 5 11 13 16 19 13 13 26 27 40 38 55 44 124 67 194 67 13-1 25-1 38-3 8-1 18-4 25-4-44 13-93 17-138 10-52-7-110-27-146-67-6-7-12-15-17-23-4-6-7-12-12-18-5-7-12-15-21-15-4-1-7 0-10 3s-5 8-5 13c0 8 9 12 14 17 6 5 13 15 17 22 2 5 3 10 6 15 3 4 7 8 11 12 11 11 25 19 39 27 50 28 106 39 164 38 10 0 20 0 30-2 6 0 12-2 19-2-12 4-24 6-36 7-37 4-75 2-111-7-26-6-51-17-74-29-16-10-33-21-45-36-7-9-10-20-16-30-7-11-18-21-30-24-8-1-15-1-22 4-5 4-9 10-10 17-1 8 1 16 6 22 4 5 9 8 14 12l20 13c22 13 44 27 67 38 20 9 41 16 62 22 14 4 29 8 43 9h1l48 5z"></path><path fill="#3a393a" d="M429 1182c3 0 3 0 6 1 1 3 1 5 0 8-1 2-2 3-4 4-2 0-3 1-5 0-2-2-2-5-1-7 1-3 2-4 4-6z"></path><path d="M445 1144l2 1 2 17-10 1c-3-1-2 0-4-2-1-3-1-5 1-8 1-5 5-7 9-9zm22-27c1 0 2 1 2 1 1 6 1 11 3 16l-12 2h-4c0-2 1-7 1-10 2-5 6-7 10-9zm-114 38h9c-7 10-10 20-13 32-4-3-8-8-10-13-1-4-1-10 1-14 3-4 8-4 13-5zm149-59l2-1c-2 15-3 27 3 41-4-1-7-4-10-6-2-2-5-4-7-7s-5-9-4-14c2-6 11-11 16-13zm-101 72c-2 4-5 8-7 13-6 14-7 28-7 43l-9-10c-3-3-5-7-7-11-2-5-4-17-2-22 4-7 25-11 32-13z" fill="#424142"></path><path d="M465 838c1 8 0 18-3 26-4 11-11 18-22 23-22 10-49 6-71-2h2c13-1 24-7 33-17 8-10 13-23 12-36-1-9-7-18-14-24-7-5-15-8-24-7-5 1-10 4-13 8-11 15 3 40 5 56-1 3-3 6-5 8-4 4-9 5-14 5-20-2-34-18-47-32l-11-14c-11-13-17-28-23-43-15-43-18-87-13-132 4 16 2 32 2 49 1 26 5 53 14 78 7 21 19 50 40 60 7 3 16 7 23 4 3-2 5-4 6-7 2-4 2-10 0-14-3-8-10-14-15-22-6-10-12-22-19-33-9-16-17-33-24-49-8-17-15-33-21-50l-6-24c-1-7-3-16-5-23-3 21-8 41-8 62-1 53 7 113 40 155 3 3 6 7 9 9s7 4 9 6 3 4 2 7c0 1-1 2-3 3-2 0-3-1-5-3-3-3-5-7-7-10-7-10-15-18-20-28-26-48-32-109-27-163l3-26c2-6 4-13 4-19 0-5-1-11-2-16l-1-20c-1-18 0-37 1-55l-1 1c-1 2-2 6-4 9l-14 34c-11 30-20 63-25 95-4 24-4 49-4 74l2 86 3 37c1 8 1 17 4 25 2 5 5 11 10 14 3 1 8 2 11 0 3-1 6-4 7-8 8-18-2-45-6-63l-6-30c-1-3-3-10-1-12l16 69c2 10 3 21 6 31 3 7 8 13 11 19s5 13 3 19c-2 5-5 9-10 11-6 2-12 2-17 0-11-4-19-14-24-23-9-19-11-40-14-61-10-81-6-165 17-243 7-22 15-44 25-65 3-8 7-15 11-23 2-6 4-13 6-19-2 30-5 58-2 87 2 34 8 71 26 101 3 6 9 10 12 16 6 9 7 19 16 26 5 4 11 5 18 4 6-1 13-3 17-7 2-2 3-4 5-6 2-3 5-5 8-8 4-6 8-13 13-19 4-5 10-9 18-10 7 0 14 3 20 8 7 7 11 17 12 27 0 14-6 27-15 36-10 10-21 16-36 17-28 0-45-13-64-32 0 2 2 4 3 6 6 8 14 15 22 20 16 11 33 13 52 9-3 3-7 6-11 8-7 4-16 5-25 2l-6-2c13 8 24 9 39 4 4-1 8-3 12-3 9 1 13 7 18 13l1-1c8-8 3-18-1-27 0-1-2-4-2-5 0 0 3-3 3-4 2-3 5-7 6-11 5-8 7-17 7-27 0-11-4-22-12-31-6-6-13-9-21-9-23 0-27 23-40 35v-16c0-1-1-5 0-6 0-2 2-3 3-5 3-4 5-8 4-13-1-14-14-16-24-20-4-2-8-5-12-9-22-19-36-52-45-79-3-9-7-20-7-29 10 26 24 49 45 68 26 24 65 37 101 36 31-2 60-14 81-38-10 44-15 89-16 134v75c1 13 2 30-4 42-2 5-6 10-10 14 3-5 5-11 6-16 2-12 1-25-1-37l-5-40c-1-7-3-14-3-22l-1-1-1 1 1 14c1 2 1 5 1 8v5 5c-1-2-1-4-1-6l-1-2v1l3 24s0 1 1 1c1 2 2 3 3 4 0 8 1 16 1 23z"></path><path d="M457 786h0l-7-30c-1-7-4-15-3-22h0c3 2 2 6 3 10 1 1 1 2 1 3v1l1 1c2 4 2 9 5 12l1 14c1 2 1 5 1 8v5 5c-1-2-1-4-1-6l-1-2v1zm8 52c-5-7-9-13-16-17-3-2-10-3-12-5 0-3 2-5 4-6 3-2 8-2 12-1s6 6 7 9c1-2 1-4 1-7 1 2 2 3 3 4 0 8 1 16 1 23z" fill="#3a393a"></path><path d="M457 661h5l1 1c-2 8-8 18-14 22-1 1-1 1-3 1l-2-4-11-9c7-7 14-10 24-11zm-5 88c-1-6-3-31-6-35-1 0-3-1-3-1-5-3-8-6-8-11 0-1 0-1 1-2 1-3 4-6 7-8 3-1 7-2 10 0 3 1 5 4 6 7 1 4 0 7-1 11l-1 1c-1 2-1 7-1 10l1 18c1 7 3 15 1 21l-1 1c-3-3-3-8-5-12z" fill="#424142"></path></svg>