<svg xmlns="http://www.w3.org/2000/svg" xmlns:v="https://vecta.io/nano" viewBox="180 90 1164 1331"><!--oldViewBox="0 0 1533 1531"--><style>.B{fill:#e9e8e9}.C{fill:#fefefe}.D{fill:#c2c1c2}</style><path fill="#6f6c6e" d="M722 1389h73v2c-24 2-49 1-73-1v-1z"></path><path fill="#4a4647" d="M795 1389c25-1 50-4 74-8 96-16 187-52 264-113 89-71 144-169 175-278 9-31 16-64 20-96H957l-11 89c-12 53-36 115-84 145-38 24-89 28-132 18s-78-38-101-75c-36-58-46-131-52-198-5-49-6-98-5-148 1-61 6-123 20-183s43-124 97-157c23-14 49-22 76-24 7-1 15-1 21 0v2c-9 0-19-1-29 0-33 4-67 19-91 42-12 11-22 22-30 35-35 52-48 117-56 179-4 32-6 66-7 99 0 58 1 115 7 172 8 72 22 156 74 210 32 33 72 48 117 49 43 1 80-9 112-40 14-13 25-30 33-48 17-33 27-68 33-104 3-18 5-35 6-53 0-2 1-12 1-12h58l317-1c-16 101-47 202-108 285-30 42-66 78-108 108-73 53-159 85-248 99-24 4-48 7-72 8v-2z"></path><path d="M722 1390l-82-9c-91-16-178-53-249-113-33-29-62-61-87-97-22-32-40-66-56-102-45-103-66-217-66-329 0-48 3-95 11-142 19-110 63-221 133-310l24-28c2-4 5-8 9-10l35 36c16-19 36-37 56-52 61-47 135-70 210-81 56-8 113-8 168 0 79 11 161 35 222 88 14 12 27 26 38 41l70-69c39 51 70 110 96 170 21 48 39 98 53 149 7 23 14 47 17 71l-117 14c-16 2-33 5-50 6-20 1-41 0-61 0H972l-14-16c-1-1-3-4-4-5s-1-4-1-5l-1-10-3-26c-6-43-18-85-41-123-22-37-59-61-101-72-7-2-14-2-21-3v-2c-6-1-14-1-21 0-27 2-53 10-76 24-54 33-83 97-97 157s-19 122-20 183c-1 50 0 99 5 148 6 67 16 140 52 198 23 37 58 65 101 75s94 6 132-18c48-30 72-92 84-145l11-89h371c-4 32-11 65-20 96-31 109-86 207-175 278-77 61-168 97-264 113-24 4-49 7-74 8h-73v1z" class="C"></path><path d="M1109 1208h3v1c-1 3-2 3-4 5-1 0-1-1-2-2 0-2 1-3 3-4zm54-115l2-1 2 1c1 3 1 3 0 5h-3l-2-1c0-2 0-2 1-4zM529 726l2-1 2 1c0 3 0 3-2 6-2 0-2 0-4-1 0-3 0-3 2-5zm451-489c3 0 3 0 5 1l1 2-1 2c-3 0-4 0-6-1v-3l1-1zm143 954c1-1 2 0 3 0l1 1c0 3-1 3-3 5h-2l-2-2c1-2 1-3 3-4zm6-227h1c1 0 2 1 3 1 2 2 3 4 3 7h-2c-3-2-4-4-5-8zm20 179h2l2 1-1 4-2 2c-1 0-2-1-3-2 0-3 0-3 2-5zm18-91h2v2c0 3 0 6-2 9l-1-1-1-1c-1-3 0-6 2-9zm-9 64h3c2 2 2 2 2 5l-2 2h-3l-1-2c0-3 0-3 1-5z"></path><path d="M533 698h4l2 2c0 3 0 3-2 5h-1c-2 1-2 0-4-1 0-3 0-3 1-6zm630 334c1 0 1 0 2 1 0 2 1 4 1 6 0 3 0 3-2 5h-2v-1c-2-3 0-8 1-11zm-25 136c1 0 3 0 4 1l1 2c-1 2-1 2-3 4h-3c-1 0-1-1-2-2 1-3 1-3 3-5zm-74-820h0c3 0 3 0 5 2 1 3 0 3-1 5h-1c-2 1-3 1-5-1 0-3 0-3 2-6zm10 885h2c2 0 3 0 5 1-1 3-2 3-4 5-3 0-3 1-6-1l-1-1c1-2 3-3 4-4zm84-222c1 1 2 3 2 5 1 4 1 7-2 11v-1c-3-6-2-9 0-15zm-8-21l1 1c2 2 2 5 3 7 0 3 1 5-1 7-2-1-3-3-3-5-2-5-2-6 0-10zm-57 232h3c-1 4-5 6-8 8l-3 1-1-1v-3c2-3 5-4 9-5z"></path><path d="M532 672c1 0 1 0 2-1 3 0 3 1 5 3 0 3 0 3-2 6h-4l-2-2c-1-2 0-4 1-6zm609 301h1c1 1 1 2 2 3 2 3 4 8 3 12l-1 1-2-1c-3-5-3-9-3-15zM956 241h3c3 1 3 1 4 3 0 3-1 3-3 5-2 1-3 0-4 0-2-1-2-1-3-3 1-3 1-3 3-5zm97 128h3c2 2 2 2 3 5-1 2-1 2-3 4-2 1-3 0-4 0-2-1-2-2-3-4 1-2 2-3 4-5z"></path><path d="M526 646c1 0 2 1 4 1 1 2 1 3 1 6-1 1-1 2-3 2-2 1-3 1-4 0-2-2-2-3-2-5 1-2 2-2 4-4zm-20-19c2-1 3 0 5 0 2 1 2 1 3 4 0 2-1 2-2 4l-3 1c-3-1-3-2-4-4 0-3 0-3 1-5zm428-373c2 0 3 0 5 1 1 2 1 3 2 5-1 3-2 3-4 4l-1 1c-2 0-3-1-5-2-1-1-1-2-1-4 1-3 2-3 4-5zm107 996h4c3 0 4 2 6 4-2 2-4 3-6 4h-5c-2-1-3-3-5-5 2-2 4-2 6-3zm-7-863c2 0 3 0 5 1 2 2 2 2 2 6-1 2-2 3-4 4h-1c-2 0-4 0-5-2-1-1-2-3-1-4 0-3 2-4 4-5zm-27 10c2 0 4 0 6 1 1 3 1 3 1 6-1 2-2 3-4 4-2 0-4 0-6-2s-1-3-1-5c1-3 2-3 4-4zm-30 0c2 0 4 0 6 1 2 2 3 2 3 5-1 3-1 3-4 4-1 1-2 1-3 1-2 0-3-1-4-2s-1-3-1-4c0-3 1-3 3-5zM354 721l2-1c2 0 4 0 6 2s2 5 3 8l-2 2c-2 0-6-1-8-2-1-1-2-2-2-3-1-3 0-4 1-6zm557-415c3 0 4 0 6 1 2 3 1 4 1 7-1 2-2 3-4 4-2 0-3-1-5-2-2-2-2-3-2-6 2-2 2-3 4-4zm6-29c2-1 3-1 5-1 2 2 3 3 4 6-1 3-2 4-4 6h-2c-2 1-3 0-5-1s-2-3-2-6c1-2 2-3 4-4zm12 89h0c2 0 4 0 5 1 2 2 2 4 2 6-1 3-1 3-4 5h-1c-2 0-4-1-5-2-2-2-2-4-2-7 2-2 2-2 5-3zm133 875l4-1c2 1 3 2 4 4h0c-2 3-7 5-10 7h-4c-2-2-3-3-4-5 3-2 6-4 10-5zM949 387h1c2 0 5 0 6 1 2 2 2 4 2 6 0 3-1 3-3 5-3 0-5 0-7-1-2-2-3-4-3-6 1-2 2-3 4-5zM341 730l2-1c2 0 5 1 6 2 3 2 3 5 3 8l-1 2c-3 1-5 1-7 0s-3-2-4-4 0-5 1-7zm86 44c1 2 0 1 1 2 1 6 4 10 7 15v1h-7-4c-2 0-3 0-5-2 4-5 6-10 8-16zm486-437h6c2 2 3 3 3 7 0 2-1 3-3 5h-1c-2 1-5 1-6-1-2-1-3-4-3-6 1-2 2-3 4-5zm106 919h1c7-1 9 0 15 4l-8 5c-3 2-6 2-10 2 0 0-1-1-1-2-1-2-2-5-1-8l4-1zM654 163h3c3 0 7 0 8 2s0 2 2 4c-4 1-7 3-11 5-3 1-8 2-11 1-2-1-1-1-2-2 2-6 6-8 11-10zm336 1097h0c8-1 15 1 22 5-2 2-5 3-8 4l-3 1c-4 2-10 3-14 2-1-3 0-4-1-7v-1c1-2 2-2 4-4zm-30 0h4c5 1 15 4 17 7-1 2-4 3-6 4-5 1-10 3-16 1-2 0-4-1-5-3l1-2c1-3 2-6 5-7zm-32-7c1-1 1-1 2-1 4 0 16 5 20 7l-1 2c-1 2-3 3-6 4-8 0-15-1-23-4 2-3 4-6 8-8zM534 897c3 0 8 1 10 2 4 3 4 15 4 19l-15-4c-1-3-2-6-2-10 0-3 1-5 3-7zm-56-6c3 0 7 0 10 1 4 3 14 12 15 17h-2l-23-3c-1-5-2-8-2-13l2-2zm415 348c0-1 1-1 2-1 4 0 19 8 22 11 1 1 1 1 1 3-2 2-4 3-7 4-8 0-19-5-26-7 1-4 5-8 8-10z"></path><path d="M503 894h5c10 1 19 13 25 20-6-1-12-1-18-2-3 0-7 0-9-1s-2-5-3-7c-1-3-2-6 0-10zm335 307h2c4 2 13 5 15 9l-1 1c-1 2-4 3-7 3-2 1-5 5-7 7-4-1-14-3-17-7 0-1-1-2 0-3 2-5 10-8 15-10zM518 746c1 0 1 0 2 1-1 3-3 6-4 9-4 6-7 12-12 17l-6-8c-3-6-7-10-11-15 6 0 12 1 17 0s10-3 14-4zm346 474c5-1 18 9 22 12l-11 8-19-5c-2 0-3-2-3-3 0-3 1-5 2-7 2-1 3-2 5-2l4-3zM485 233c1 0 0 0 1 1 2 0 2 0 2 2 1 4 0 8-2 11-6 8-12 9-21 11-2 0-2 1-3-1 0-4 1-8 3-11 5-6 12-12 20-13zm-10 519h2c5 3 10 7 12 12v2s1 0 1 1c3 2 4 8 5 11-1 2-2 2-4 3-4 0-9-2-12-4s-3-3-3-6c-2-2-5-4-5-7-2-4 2-9 4-12zm333 431c1-1 2-1 3-1s4 2 5 3l12 7c-5 3-9 7-14 10-1 1-2 1-3 1-4-1-10 0-13-3-3-2-2-4-2-6 3-5 7-9 12-11z"></path><path d="M913 1197h4c13 1 31-5 41-13 4-2 7-6 10-9-2 7-9 11-14 14l-2 1c1 0 1 0 2-1l6-3h1c1-1 2-1 3-2l2-2 4-4h1v1c-7 10-22 15-34 17 0 1 0 1-1 1 11 0 22-6 30-12 4-2 7-5 10-8-2 4-5 6-8 9l-1 1-7 4-1 1h-1c2 0 2 0 3-1l2-1 4-1c1-1 2-1 3-2 2-2 4-3 6-4h3 1l-8 6c-1 1-2 1-3 2l-3 2-3 1-11 4c-1 1-2 1-3 1h-1l-3 1h-2l-3 1c-2 1-5 0-7 1-2 0-4 0-6 1-2 0-8 0-10-1-2 0-4 0-6-1-2 0-2 0-4-1l-4-2c2-1 5 0 8-1h2z" class="B"></path><path d="M384 738l2-1 1 1c-1 4-1 9-3 12-1 3-5 8-7 11-3 4-8 5-13 5-1 0-2 0-3-2-2-3-1-10 1-14 1-3 4-4 7-5 0-2 0-4 1-6 5-1 10-1 14-1zm22 10c1-1 2-1 3 0 3 1 5 6 6 10 1 2 0 3-1 5 0 0 1 1 2 1v4c0 5-6 12-10 15-1 1-2 1-3 2-2-1-3-1-4-2-3-3-4-6-4-10 0-3 0-4 2-6-1-3 0-5 0-8 1-2 2-2 3-3 2-2 3-6 6-8zm98 173h5c10 2 15 10 20 18 0-4-2-10 1-14 3-1 5 0 7 0 6 1 8 6 11 11l6 9-50-9c0-4-2-11 0-15zm-72-171c9 2 16 7 24 12 3 8 6 16 5 24 0 3-1 5-3 6-1 1-2 1-3 1-7-3-13-9-16-16l2-2h-2c-2-1-2-4-3-6-1-3-1-3 1-6-3-4-4-9-5-13zm215 435c2 2 3 8 4 12 2 11-2 21-8 31-12 17-32 30-52 36-13 4-27 5-42 6-21 0-43-2-64-8s-42-16-62-26v-1c28 14 58 27 89 31 28 3 62 3 86-15l1-1c12-13 24-29 23-47v-1l1 1v2c1 16-10 32-20 43l-9 9c14-8 25-16 34-29 9-14 10-25 7-41 1 2 1 3 2 4 4 12 0 23-5 33-11 20-31 34-52 40l-4 2c11-1 22-6 32-11 16-8 34-24 40-41 2-6 3-14 1-19l-2-10zM426 857h1c10-1 21 10 27 16-1-3-2-7 0-10 2-1 4-2 6-2 8 2 15 11 20 17v1c0-4-1-7-1-11 2-2 3-3 6-3 6-1 10 1 14 5l16 16c-8 0-26 1-32-4l-1-1h-2c-1 1-3 0-3 0l-26-4-21-3c-2-5-5-11-4-17zm26-602c2-1 4 0 6 1 1 1 2 1 2 3-1 5-4 13-8 17s-10 4-16 4h-1l-3 11c-3 8-9 9-16 11-1 1-3 1-3 1-1 1-2 4-3 5-3 7-7 12-14 15-5 2-8 1-13-1-1-1-1-1-2-3h1l2-1c4-2 5-6 7-10 4-5 7-9 13-12 3 0 3 0 6 2 1-9 7-16 14-22 3-1 4-2 7-1l3 3 1 1c0-3 0-6 2-8 2-7 9-14 15-16zm184-88c3 0 3 0 6 2 0 3 0 4-2 7-3 3-13 6-18 6h-1c-8 7-16 6-25 10-7 2-13 5-19 6-5 6-11 7-18 9-1 0-2 1-3 3-6 6-12 6-20 6h0c-4 6-10 8-16 10-1 0-4 1-4 1-1 1-2 3-3 4-3 3-6 6-10 8-3 1-9 2-12 1-1-3-1-5 0-7 2-4 5-7 7-10 4-3 7-4 12-4 1 1 2 2 3 2 1-4 4-8 8-10 2-2 10-7 12-5 2 1 1 2 3 2l1-1c2-4 6-7 11-9 3-1 5-1 8 1h1c1-2 3-5 5-7 3-3 8-4 12-4l2 3c1-1 2-2 3-4 3-3 7-4 11-5 2 0 3 1 5 2l1 1c1-2 3-4 5-6 4-4 9-5 15-5 2 1 2 2 3 4v1c1-1 2-3 3-5 4-4 9-6 14-7zm477 318c10 0 23 3 32 8 30 16 40 43 49 73-5 1-12 1-17 1h-38-75c-5-5-8-15-9-22-1-13 3-25 11-36 12-14 28-22 47-24z"></path><path d="M722 1390l-82-9c-91-16-178-53-249-113-33-29-62-61-87-97-22-32-40-66-56-102-45-103-66-217-66-329 0-48 3-95 11-142 19-110 63-221 133-310l24-28c2-4 5-8 9-10l35 36c16-19 36-37 56-52 61-47 135-70 210-81 56-8 113-8 168 0 79 11 161 35 222 88 14 12 27 26 38 41l70-69c39 51 70 110 96 170 21 48 39 98 53 149 7 23 14 47 17 71l-117 14c-16 2-33 5-50 6-20 1-41 0-61 0H972l-14-16c-1-1-3-4-4-5s-1-4-1-5l-1-10-3-26c-6-43-18-85-41-123-22-37-59-61-101-72-7-2-14-2-21-3v-2c41 4 81 24 108 55 44 51 55 121 62 185h366c0-6-2-11-3-17l-10-41c-13-47-29-93-47-138-28-67-61-133-105-190l-19 19c57 81 95 172 123 266l13 45c1 7 4 14 5 22h-71c-13-37-35-73-70-91-25-12-53-12-79-3-22 7-44 25-54 46-3 5-5 11-6 16 3-5 5-10 9-15 12-19 31-34 54-41 17-5 35-4 53-1-8 1-16 2-23 4-24 6-44 20-58 40-8 11-11 23-9 36l2 9h-49c-10-71-38-145-96-190-39-31-85-45-135-38-56 7-103 38-137 83-37 49-56 112-64 173l-5 56c-5-19-16-35-34-45-17-10-38-12-57-6-19 5-36 17-45 34-8 15-10 33-5 49 4 13 14 25 26 32 10 5 21 7 31 4 4-1 8-3 11-6-11 2-21 2-31-5-9-7-16-17-18-28-1-11 2-22 9-31 9-12 22-18 36-20 14-1 28 2 39 11 14 11 21 30 23 48 1 13-1 32-10 42-10 12-26 15-40 16-28 1-57-4-83-17-14-7-26-17-38-28-40-35-59-85-61-138v-43c2 8 2 16 4 25 4 25 14 54 37 68 10 5 20 8 31 5 8-2 15-7 19-14 6-10 7-22 7-33-5 7-10 12-19 14-10 1-19-1-27-7-16-12-26-33-29-52-4-26 0-53 8-78 8-30 21-58 39-83 7-10 15-19 23-28 4-3 8-8 13-10l8 6v-1c2-9 9-19 17-23 2-1 4-2 7-2 2 3 2 5 4 8-3 8-5 15-13 19l-12 5 9 7c-29 34-37 88-34 131 3 28 12 59 35 78 9 8 18 12 29 15-7-6-14-13-20-21-13-18-21-37-27-58-4-14-7-28-8-42 0-10 0-19 1-28 2-10 5-20 8-30 0 5-3 13-4 18-2 6-3 13-3 19-2 20 2 41 7 60 8 29 21 59 44 79 7 5 12 5 20 5 5-1 11-2 16-4-6-2-11-4-17-8-18-11-34-32-43-51-11-23-20-53-20-79 1-24 8-50 16-73l3-5h0c-1 5-3 10-5 14l-9 33c-7 32-1 64 10 94 4 9 7 18 12 25 9 15 22 31 37 41 6 3 12 6 19 8 6-2 11-5 16-9-24-1-38-12-54-29-7-8-14-17-19-26-12-20-19-48-19-72 1-12 4-25 7-38l4-23c2-6 3-12 7-16-1-2 0-1-1-2-4-1-6-3-8-6l12-11c2 0 1 0 3 1v-1l1-1v-1c3-6 12-14 18-16h1c2 1 2 1 3 3 0-2 1-3 1-4 2-9 13-20 21-25 2-1 4-2 5-2 2 1 3 1 3 3 2-2 1-1 2-3 1-6 9-13 14-16 3-2 7-4 10-4 1 2 2 3 3 5l1 1c-1-6-1-10 4-15 6-7 15-13 25-15v-1c1-2 2-4 4-5 4-3 8-3 12-5 5-3 8-8 13-10l5-1c2 0 3 0 4-1 4-5 10-8 14-12l-15 6-9 6c-4 3-9 4-13 6s-7 5-11 7c-3 2-7 3-10 5s-6 4-10 6l-11 7c-5 3-8 8-12 11-5 2-9 4-14 5-2 1-5 2-7 3-4 2-6 10-10 13s-11 3-14 7c-1 1-3 5-4 7-5 10-13 13-23 16-1-3-2-8-1-11 0-2 3-6 4-8 5-6 10-11 16-14 2 1 3 2 4 3v-1c2-8 8-15 14-19 3-2 6-4 9-4 2 1 2 1 3 2 1 2 1 4 2 6 1-9 1-14 8-20 3-3 10-7 15-7 2 0 3 1 5 3 0 0 0 1 1 1 0-1 0-1 1-3 1-6 5-9 10-13 3-2 5-3 9-2l2 2c1-1 2-2 2-3 4-4 9-8 15-9h3l2 2c0-1 1-2 2-3 2-5 4-7 9-8 3-1 6-1 10-1 4-4 8-9 14-9 2 0 3 1 5 2 5-3 10-13 18-10 1 0 2 1 3 2h2v-1c1-3 2-5 5-7s8-3 11-4c3 0 5 0 7-1 4-1 7-3 11-4 4-2 9-4 13-5v-1l-2-1c1-3 1-5 4-7 4-3 10-3 14-3 2 1 2 3 3 4l1 1 1-1c4-4 7-6 12-5h4v4h2c2-2 1-2 2-4 1-1 6-2 7-1 3 0 6 1 9 2h1c4-3 15-2 20-2 45-1 93 3 137 16l29 10-1 1c-56-15-112-19-169-15-11 1-22 1-33 3-25 5-53 15-75 29-24 13-46 30-60 55-4 8-8 18-10 28-4 14-1 31-8 44-5 11-14 20-21 28-6 6-12 12-14 20-2 7-1 15 1 23 4 15 16 32-2 44-3 2-7 3-10 5 16 6 35 4 50-3 17-7 36-27 43-44 10-28-10-58-17-84-9-36 0-72 28-96 11-9 26-17 40-23 37-17 79-21 119-24h1-1c-9 1-17 4-25 6-25 7-48 18-64 39-17 22-23 48-19 75 2 15 6 28 12 41 3-12 9-22 20-28 7-4 15-5 22-8 11-5 19-15 23-26 1-3 1-5 2-8v-1c1-8 0-15 0-23 1-11 7-20 16-27 14-12 32-16 50-18 27-5 55-5 83-2 21 3 41 6 61 12l-39-3c-34-1-73 8-98 31-21 19-39 47-40 75v5c3-9 6-17 10-26 13-25 36-48 62-60 37-18 81-21 121-12 6 1 12 2 18 4l2 1h-1c-24-1-48 2-67 19s-29 45-30 71c-2 28 6 57 26 79 17 18 37 29 62 32 23 3 50-3 68-18 15-11 25-28 27-47 2-21-4-38-17-54-9-11-22-22-36-25 15 10 27 22 31 41 2 12 0 26-7 37-8 12-22 20-37 23l-4 1h-2c-16 2-33-3-45-13-14-10-23-26-25-42-2-18 3-36 14-50 12-14 28-21 46-23 10-1 20-1 29 1 22 4 39 13 55 28 2 1 4 5 6 4l1-2c-1-3-5-8-7-11-17-20-37-37-59-52-25-17-52-29-80-39-73-26-155-35-232-31-31 2-61 6-90 12-52 10-106 31-150 61-14 9-26 19-39 30-12 11-25 22-36 35l-34-37c-15 17-29 34-42 52-65 89-108 198-125 307-9 62-10 124-7 187 4 56 14 113 28 168 31 111 85 218 172 296 75 66 166 104 264 120 24 4 49 7 73 8v1z"></path><path d="M1035 444c1 0 2 1 3 3v1l-2 1c-2 0-3-1-4-1 0-2 1-3 3-4zm3 8c1 0 1-1 2 1 0 1 0 2-2 4h-2c-2 0-2 0-3-1 1-2 3-3 5-4zm19-27c1 0 1 0 2 1 0 0 0 1-1 2-1 2-2 3-4 3-2-1-2-1-3-2 2-3 3-3 6-4z" class="B"></path><path d="M1147 390h0c1 0 2 1 2 2 1 3 1 8 0 11l-1-1c-2-2-2-9-1-12z" class="C"></path><path d="M1084 411h1l1 1-1 3c-2 2-4 3-7 4l-1-1v-1c1-3 4-5 7-6zm66-135h1c2 1 3 3 4 5s2 4 1 7c-2-1-3-4-5-6-1-2-2-3-1-6zm-40 149c3 1 3 2 4 5 1 2 2 4 1 6l-2 1s-1-1-1-2c-2-3-3-7-2-10z" class="B"></path><path d="M1169 475c1 0 1 0 2 1 2 4 2 9 1 14-1 0 0 0-2-1-2-4-2-9-1-14zm-46-215h1c1 1 2 4 3 5 2 4 1 6 0 9l-1 2-1-1c-2-5-2-10-2-15z" class="C"></path><path d="M1146 447h2c0 1 0 1 1 2 2 3 2 10 1 14-1 0-2-1-3-3-2-3-3-9-1-13zm-25-54l2 2c2 4 3 10 2 15l-2-2c-3-3-3-8-3-13l1-2zm-12 2c1 0 1 1 2 1 2 5 3 9 2 14h-2c-1-3-3-5-3-8-1-3-1-4 1-7z" class="B"></path><path d="M1133 390l2-1c1 1 1 1 1 2 2 4 2 10 1 14l-2-1c-1-1-1-3-2-5-1-4-1-6 0-9z" class="C"></path><path d="M1123 422h3c1 1 1 3 2 5 0 3 1 8-1 11v-1c-1 0-2-1-2-2-2-4-4-9-2-13zm-8 20h2c3 3 4 6 5 11 0 1 0 1-1 2h-1c-3-2-6-5-6-9-1-2 0-2 1-4zm25-25c1 1 1 2 1 3 2 4 1 11 0 15h-2c-1-5-1-10-1-16l2-2z" class="B"></path><path d="M1158 385l3 1 1 1c1 3 0 10-1 13h-1c-1-2-3-3-3-4-1-4-1-8 1-11zm-15-42c1 0 2 1 3 2 4 5 3 12 2 17-2-3-3-5-4-9-1-3-2-7-1-10zm-10-30h1l1 2c3 4 3 12 2 17h-1l-2-2c-2-5-2-11-1-17z" class="C"></path><path d="M555 253h1v2c-4 5-12 7-18 9l6-10 1 1c3 1 7-1 10-2zm577 194c1 0 2 1 3 1 1 1 2 1 2 2 2 4 2 10 1 14h-2l-1-1c-3-4-4-10-3-16z" class="B"></path><path d="M1107 357h1c5 4 5 15 6 20-2-2-4-4-6-7-3-4-2-9-1-13z" class="C"></path><path d="M1136 363l1 1c1 0 1 1 2 2 3 4 3 11 2 16h-2c-1-2-2-3-3-5-1-4-2-10 0-14z" class="B"></path><path d="M1150 324h1c3 3 4 8 4 11s0 5-3 7c-2-3-4-6-4-11 0-3 0-5 2-7zm-44-4h2c1 1 2 2 3 4 2 5 2 13 0 18l-1-1c-3-6-5-14-4-21zm47 92h1l2 2c3 5-1 12-2 17l-1 2c-1-2-2-3-2-5-1-5-1-12 2-16z" class="C"></path><path d="M1157 446l2-1 2 2c3 5 2 14 1 19l-1 1-1-1c-2-5-5-15-3-20z" class="B"></path><g class="C"><path d="M1173 387l2-1c2 2 3 2 4 5 1 4 0 10-1 14h-2c-1-1-2-3-3-4-1-4-2-11 0-14zm-5 24h1c1 1 1 2 2 3 2 5 0 14-2 19h-1c-2-2-2-6-2-8-1-5-2-10 2-14zm-30-130c1 0 2 2 3 3 4 5 3 12 2 18h-2l-2-3c-3-4-3-13-1-18z"></path><path d="M1161 354h2c2 2 3 3 3 5 1 4 0 13-2 16v-1c-2-1-4-4-4-6-1-4-1-10 1-14zm-52-74h2c1 1 2 2 3 4 1 5-1 11-3 16h-1c-2-2-3-3-3-5-2-5 0-11 2-15zm74 200v-1c2 1 2 1 3 3 3 5 2 23 1 29 0 1 0 0-1 1-2-11-4-22-3-32zm-57-143h2c1 1 2 2 3 4 2 4 4 12 2 17h-2c-1-1-2-1-3-3-3-5-3-12-2-18zm48 104h2l2 1c2 9 1 17-1 25-2-3-3-7-4-11-1-5-2-10 1-15z"></path><path d="M1180 366h1c3 1 4 2 5 4 3 4 3 11 2 16l-2 2v-1c-5-7-7-13-6-21zm-59-68h2c1 1 1 2 2 3 2 6 0 14-3 20h-1c-1-1-2-3-2-5-1-6-1-12 2-18zm36 1c1 0 1 0 1 1 4 2 6 7 7 11 1 3 2 8 0 11h-1c-3-2-4-3-5-6-2-4-3-13-2-17zm17 29c1 0 1 1 2 2 3 4 3 10 3 15 0 3 0 4-3 6-2-2-4-6-5-9-1-5 0-9 3-14zm9 80h2c1 1 2 1 2 2 3 5 1 17 0 22l-1 1h-1c-2-4-3-8-4-13 0-4-1-8 2-12zm9 35h2c1 1 1 1 1 2 1 2 1 5 1 7 0 7-2 14-4 21l-1 1h-1c-1-10-3-23 2-31z"></path></g><path d="M501 298c5-6 11-10 16-16 3-4 6-5 10-6 2 0 3 2 4 4-1 3-5 6-7 7-7 4-17 4-22 10v2l-1-1z" class="B"></path><path d="M926 220c2-1 4 0 6 0-3 1-8 2-11 4-8 2-16 5-23 9-28 16-42 42-50 72-1 2-2 4-2 5 2-20 7-39 20-56 15-20 36-31 60-34zm-425 78l1 1c1 0 2 1 3 2l-1 4c-5 8-20 14-28 19 2 4 3 6 2 10-2 10-18 17-26 22l-1-5c-1-2-2-3-5-5 4-3 7-6 11-10 2-2 4-5 6-8 4-3 8-5 12-8l12-12c2-2 3-5 6-7 2-2 5-2 8-3zm-10 36c-2 5-4 9-3 14 1 10 9 16 16 21-14 8-27 10-43 6-8-2-14-6-20-10 10-4 19-11 28-18 3-2 6-6 10-8 3-2 8-4 12-5zm-61 20h2v2l2-2 1 1c1 7-2 15-3 22-2 15-3 31-2 47 2 32 9 70 29 97 8 10 20 22 34 24 7 1 13 0 20 0-2 4-4 8-8 11h-1c-8 2-19-2-26-6-8-4-16-11-22-17-18-18-31-38-38-62-3-11-5-22-5-33 0-16 4-32 7-47 3-13 4-25 10-37z" class="C"></path><path d="M913 1197c2 0 3 1 5 0 3-1 6-1 9-1 6-2 14-4 20-6 8-4 16-10 21-18 3-5 4-10 6-15 3-6 6-12 10-17 7-10 17-18 26-25-22 8-36 20-47 41-5 10-9 17-18 24-12 10-24 11-39 10-11-2-22-5-33-8l-41-10c10-3 20-6 30-11s19-12 28-20c42-35 64-85 78-137 7-26 11-52 14-78h310c-12 48-28 94-48 139-16 36-34 70-58 101-39 50-88 91-143 121-68 37-145 58-221 68-72 9-146 3-216-15-38-10-74-23-109-40-17-8-34-17-49-29 49 22 102 36 155 25 17-3 36-11 53-7 11 2 19 8 21 19 2 7 3 15 7 21 5 7 11 10 19 12 16 2 35-6 48-15 8-7 14-16 15-26 2-11-1-23-8-32-11-14-28-21-45-23-16-2-31 0-45 6-12 5-22 12-32 17-7 4-14 7-21 9h-1c19-10 37-25 47-43 5-10 7-19 3-30-2-8-10-21-18-24l-2-1c-2-1-3-3-6-4-14-8-32-6-47-1l3 2c8 6 14 15 15 25 1 9-2 18-8 25-16 18-42 26-65 28-58 6-110-21-153-56-27-23-51-51-69-82-15-24-26-50-38-76-13-30-25-61-34-92-13-48-22-97-26-146-2-24-3-49-3-73 1-101 22-207 71-296 9-17 19-34 31-49l-14 30c-26 57-44 121-42 184 1 32 7 65 12 97 5 30 14 62 11 93-3 25-15 46-27 67-6 9-13 19-16 29-1 5 0 10 0 15l19-27c8-14 16-29 22-44 4-8 7-16 8-25v-1h1c-5 24-15 47-29 68l-15 24c-2 2-5 7-5 10-1 5 2 14 3 19 3-7 7-15 11-22l12-19c4-7 7-15 10-23 6-12 11-25 13-38 4-18 4-36 4-54 2 9 1 20 0 29-1 12-2 24-5 35-5 17-12 36-21 52l-11 19c-5 8-9 16-12 25 1 5 2 14 5 19l9-27c6-12 14-24 19-37 14-32 24-72 22-108v-10c-1-2-1-3-1-5 8 40-4 90-21 127-6 14-14 27-20 40-2 5-4 10-5 16-1 1-2 4-2 5 0 3 3 11 4 13 2 4 2 8 4 13 3-15 4-29 9-43s14-28 20-41c14-31 18-65 19-98 2 2 1 12 1 15 0 17-3 32-7 47-2 9-4 17-7 25-7 17-16 33-23 50s-11 36-10 54c2-5 3-10 5-15 1-6 4-11 6-17 8-16 19-31 26-47 18-40 22-91 14-134-2-13-6-26-10-38-11-34-24-68-27-104 2 5 3 11 5 16 2 10 5 19 8 28 6 15 13 31 23 45 7 11 16 21 26 30 17 17 34 33 56 42 28 13 60 15 89 4 21-8 38-22 48-42 4-6 6-13 9-19l8 161c-10-2-21-2-30-5-2-3-3-6-4-9-1-2-3-6-1-9 1-1 2-1 4-1 6-1 15 8 19 12-1-3-2-6-4-8-2-3-6-10-9-11l-56-6c-3 0-5-1-7-4l-1 1-17-2c-3 0-6-1-8-2h-1c-2 1-5 0-7 0-4-1-8-1-12-1-4-1-8-3-12-4-8-1-18-3-26-3 7 9 16 19 26 26 2 1 4 3 6 4-4-5-8-10-12-13l-3-3c4 0 8 0 12 1 8 3 20 12 26 18l1 1c-8-2-13-3-21-1l33 26c-4-7-8-12-14-17 10 3 16 6 23 14l-5-10c13 2 21 5 29 16l2 3-18-3c-5-1-11-2-17-2 9 10 21 16 29 27-1-3-3-8-2-11 2-2 4-2 7-1 11 2 21 12 28 21-12-3-25-3-36-7l7 9c0 1 2 4 2 4 1 1 5 1 7 1l33 5c13 1 25 2 37 6 4 24 8 47 15 70 16 48 44 90 85 120 43 32 95 41 148 34-6 5-12 10-17 15 10 8 21 15 32 22 8 6 16 12 24 17 24 15 48 26 74 34 22 8 46 12 69 10 8-1 16-1 23-3 51-10 98-38 130-78 28-35 45-85 48-129l2-27c0-5 0-12 2-17s6-9 12-9c4-1 8 0 11 2s5 5 7 8c3-10 5-19 0-28-3-7-9-13-16-15-6-2-13-2-18 1-6 3-9 9-11 15-2 9-2 17-1 26-3-6-3-13-5-19-7-24-22-44-45-54-27-12-62-7-89 3-22 9-41 26-51 48-7 18-7 40 1 59 6 14 16 24 30 29 11 5 23 6 35 4-2-1-4-1-6-2-16-4-30-15-38-29-5-10-8-22-7-34 7 2 16 4 23 1 6-4 11-11 13-18 2-8 2-17 3-24 2-9 8-16 16-21 10-6 24-7 36-5 17 2 32 10 42 24 15 19 20 44 23 67 1 15 1 30-1 45-6 51-34 93-75 123-34 26-76 38-118 32-9-1-17-4-25-6-15-5-30-11-43-19s-26-18-39-27c-8-6-18-12-26-19 13 5 25 10 37 17 14 8 28 17 44 22s32 5 48 6c15 0 33-1 46-7 16-8 29-20 38-35-22 18-43 33-71 38-6 1-13 2-19 1l-1-1c5 0 9 0 14-1 10-2 20-4 30-8 13-5 25-13 36-22 5-3 11-7 14-11 5-7 6-16 9-24-22 20-47 45-75 55-9 3-18 4-28 5-6 1-13 2-20 1-10 0-18-2-27-4 2-1 9 1 12 2h1c10 1 19 1 29 0 11-1 22-2 33-6 7-2 13-6 19-9 17-11 31-24 46-37 3-3 7-6 10-9l4-20-1 1c-7 7-16 13-23 20-18 16-36 36-58 46-11 5-23 5-35 7-14 2-31 1-44-5l10 2 7 2c5 1 10 0 15 0 20 0 43-3 61-15 16-12 29-26 44-39l16-14c2-2 6-4 8-6 0-2 1-6 1-7v-2h-3l1-1c4-2 7-10 8-14-3 1-6 3-10 5-7 3-14 6-20 10-22 14-38 37-57 54h0c-3 3-6 6-10 8-8 6-19 12-30 12 1 0 1 0 1-1 12-2 27-7 34-17v-1h-1l-4 4-2 2c-1 1-2 1-3 2h-1l-6 3c-1 1-1 1-2 1l2-1c5-3 12-7 14-14-3 3-6 7-10 9-10 8-28 14-41 13h-4z"></path><path d="M703 1201h1c1 0 2 0 3 1 2 1 2 2 2 4h-1c-2 0-3-1-5-2v-3zm213 88c2-1 3-1 4-1l1 2-1 3h-5l-1-2 2-2z" class="B"></path><path d="M730 1200c2 0 2 0 5 1 1 2 1 2 0 5h-3s-1 0-1-1c-2-2-2-3-1-5z" class="D"></path><path d="M758 1227l2-1c2 1 4 2 5 4v3h-1-2c-1-2-3-4-4-6zm78 62c2 1 5 2 6 4 0 1 0 2-1 3h0c-3 0-4-1-5-3s-1-2 0-4z" class="B"></path><path d="M887 1300h4c2 0 1 0 2 2-1 1-2 1-3 2l-1 1c-2-1-3-1-5-2l1-2 2-1zm25 8c2-1 3-1 5 0v1l-3 3h-4l-1-1c0-2 1-2 3-3z" class="C"></path><path d="M914 1298c2 0 3-1 5 0-1 3-1 3-3 5h-4l-1-1c1-2 1-3 3-4zm-156-83c2 0 5 2 6 3 1 2 1 3 1 5-3-1-6-3-7-5v-3zm134 66h3c2 1 3 2 3 3l-1 3h-2c-2 0-4-1-5-3l2-3zm-194-93c1 0 3 0 5 1 1 1 2 4 3 6-2 0-3 0-4-1-2-1-4-3-4-6zm87 69h2c1 1 2 1 3 2 1 2 1 4 1 6h-1c-2 0-3-1-4-3s-1-2-1-5z" class="B"></path><path d="M858 1295h1c2 0 4 1 6 4l-1 2h-1c-3 0-4 0-6-1 0-2 0-3 1-5z" class="C"></path><path d="M897 1269c2 0 4 2 6 3 1 2 0 2-1 4-1 0-3 0-4-1s-2-2-3-4l2-2z" class="B"></path><path d="M674 1177c0-1 1-1 2-1 3 1 6 4 8 6l-1 2-1 1h-1c-3-2-6-6-7-8z" class="D"></path><path d="M806 1251l2-1c1 1 3 2 4 3 3 2 3 2 3 5h-1c-2 1-3 0-5-1-2-2-2-3-3-6zm-48-65h1c2 0 4 1 5 2 1 2 2 4 1 6-2 0-4 0-6-3-1-1-1-2-1-5zm190 96c2 0 2 0 3 1l-7 7h-2l-1-1c0-1 0-2 1-2 2-4 3-4 6-5zm-164-79c2 0 4 1 6 3 2 1 2 2 2 5l-1 1c-2-1-4-2-5-3-2-2-2-3-2-6zm27 16c3 1 4 2 6 4s2 3 2 6c-3-1-6-3-8-5v-5zm27 20h2c3 2 5 4 6 7l-1 2c-4-2-7-4-9-8l2-1z" class="B"></path><path d="M857 1284l9 3v3l-3 1c-2 0-3-1-5-2-1-2-1-4-1-5z" class="C"></path><path d="M807 1265c1 0 1 0 2 1 3 2 5 5 5 9h-1c-2-1-4-2-5-3-2-2-2-4-1-7z" class="B"></path><path d="M343 873h1c2 1 3 2 4 5 1 2 1 4-1 7 0 0-1-1-2-1-1-4-3-7-2-11z" class="C"></path><path d="M373 1150c4 1 11 2 14 4 2 1 2 2 2 4-6 0-11-5-16-8zm384 51h1c3 2 5 4 8 6l-1 3h-1c-2 1-3 0-4-2-3-2-3-4-3-7zM327 850h1c1 1 2 1 2 2 3 4 2 9 1 13l-1 1-1-1c-1-5-2-10-2-15z" class="B"></path><path d="M1033 1274h4l-1 2c-1 3-3 4-6 5l-2 1-1-1v-3c1-2 4-3 6-4z" class="D"></path><path d="M808 1236c2 0 6 3 8 5 1 1 1 2 1 4h-2c-2 0-5-1-6-3-2-2-1-4-1-6zm24 36c2 1 6 3 7 5 2 2 1 4 1 7h-1c-1-1-2-1-3-2-2-3-4-6-4-10zm-50-52c3 0 6 3 8 5 1 2 1 2 1 5l-1 1c-2-2-5-3-7-6-1-1-1-3-1-5zm51 36c4 0 7 4 9 7v3h-3c-2-1-4-2-5-4-2-2-1-4-1-6zM335 875h2c1 0 1 0 1 1 2 3 3 8 2 12h-2c-1-1-2-2-2-4-1-3-2-6-1-9z" class="B"></path><path d="M338 771c3 3 9 7 11 11h-1l-1 2v1 1l-1-1c-6-3-7-7-8-14z" class="D"></path><path d="M859 1271c3-1 7 2 10 3v3l-2 2h-1c-3-1-5-1-7-3-1-2-1-3 0-5z" class="C"></path><path d="M307 729c5 6 13 12 15 19h-1c-2-1-6-4-9-5-2-2-4-11-5-14zm34 391c3 0 8 2 11 4s6 4 7 7c-5 0-10-3-14-6-2-2-4-3-4-5zm-20-271h1c2 2 2 6 2 9s1 7-1 9l-2-1c-1-1-1-2-2-3 0-3 0-11 2-14z" class="B"></path><path d="M341 824c4 4 10 11 10 18-2 0-2-1-4-1-4-5-5-11-6-17z" class="C"></path><path d="M322 817c1 0 2 1 3 2 3 4 3 11 3 15h-1l-2-2v-1c-1 1-2 2-2 3l-1 1h0v-18zm17 316c7 3 14 6 20 11v2h-3l-1 1c-7-2-12-9-16-14zm-95-459v1c-1 5-11 34-15 37l-1-2c-1-7 7-16 10-22 2-5 4-9 6-14zm144 496c1 0 1-1 2-1 3 0 9 3 11 5 2 3 3 3 3 6-5 0-11-3-14-6-2-1-2-2-2-4z" class="B"></path><path d="M317 751c4 4 8 9 12 13 3 1 4 3 6 4-1 3 0 4 0 6v1 1c-8-8-13-15-18-25z" class="D"></path><path d="M369 1133l6 1c5 0 10 2 13 6v2c-2 1-2 1-4 1-8-2-11-4-15-10z" class="B"></path><path d="M357 852c6 4 11 9 15 16-1 1 0 1-2 2l-1 3c-2-1-3-3-4-4-4-6-6-11-8-17z" class="C"></path><path d="M351 796h0c3 0 16 7 18 9l-2 1v1c0 2 0 2-2 3-4 0-8-3-10-6-3-2-4-5-4-8z" class="B"></path><g class="C"><path d="M401 1192c7 2 14 3 19 8 2 3 2 3 2 6h-2c-8 0-14-8-19-14zm828-238h5l1 1c-2 3-5 3-8 5-6 2-11 3-13 9v2 1h-1c-1-1-1-2-2-3 0-4 2-8 4-11 4-4 9-4 14-4zM244 618c1 8-3 21-5 28-2 5-8 20-12 22h0c-1-2-1-3 0-5 2-7 7-13 10-20 3-8 5-17 7-25zm844 450c-3-8-5-17-12-23s-15-6-24-5l5-10c8 0 14 2 21 7 9 8 10 20 11 31h-1zm1-11c-1-6-3-13-7-18-6-7-15-10-25-11l9-9v-1c3-3 6-4 9-6 2 1 4 3 6 4 10 11 12 24 12 38l-3 3h-1zm36-21l6 15h0c-8 2-13 6-18 12l-1 1c2-1 2-2 3-3 5-5 10-7 17-9l3 10-1 1c-9 1-16 5-20 12-4 6-7 13-9 19l-1-1c0-5-1-13 0-17v-1l2-7c1-1 2-3 2-5l1-1v-2c1-1 1-1 1-2l3-6c1-3 3-5 5-8 0-1 2-2 3-3 1-2 2-3 4-5zm-709 54v27c1 25 9 51 24 72 17 23 45 42 74 46 1 0 2 1 4 1h-3-2c-4 0-9-1-13-2-29-6-54-23-69-49-18-27-23-63-15-95z"></path><path d="M1094 1043c-3-14-6-23-18-32v-1c3-1 6-2 9-2 11-1 18 2 26 9-2 2-2 5-3 8l-1 3v1c0 1-1 2-1 3l-1 1-1 2c0 1 0 2-1 3 0 2 0 3-1 4 0 2 0 2-1 4 0 1 1 2 0 4h-1l-1 1c0 3 1-1-1 2v2c1-1 1-3 1-5l-1-3c0 3-1 7-1 11v2c-1 2 0 4-1 6-1 4-1 7-1 11 0 2 1 5 0 6 0 3 0 4-1 6v2h-1l-1-2h0v1c-1 1-1 3-2 4-1-2-1-5-2-8v-5c-1-2-1-7-1-9l1-4h1 1v-4c-1-3-1-5-1-7h1l3-3v1c2-3 1-8 1-12z"></path></g><path d="M1094 1043c1 2 2 4 2 6h0c0-2 0-4 1-5 0-5-1-30 1-31 1 2 0 4 0 6 1 5 2 11 1 16l-1 2c0 3 1 7 0 10 0 3-1 7-1 11v2c-1 2 0 4-1 6-1 4-1 7-1 11 0 2 1 5 0 6 0 3 0 4-1 6v2h-1l-1-2h0v1c-1 1-1 3-2 4-1-2-1-5-2-8v-5c-1-2-1-7-1-9l1-4h1 1v-4c-1-3-1-5-1-7h1l3-3v1c2-3 1-8 1-12z" class="B"></path><defs><linearGradient id="A" gradientUnits="userSpaceOnUse" x1="1117.744" y1="1105.287" x2="1094.364" y2="1023.408"><stop offset="0" stop-color="#cfcfcf"></stop><stop offset="1" stop-color="#fff"></stop></linearGradient></defs><path fill="url(#A)" d="M1111 1017c6 6 10 12 14 19-2 2-3 3-4 5-1 1-3 2-3 3-2 3-4 5-5 8l-3 6c0 1 0 1-1 2v2l-1 1c0 2-1 4-2 5l-2 7v1c-1 4 0 12 0 17l1 1-9 37-2-3 1-8c1-2 1-4 1-7h-1c0 1 0 2-1 4l-1-1-1-6v-3c0-2 0-3-1-5-1-1 0 0-1-2v-1c0-2-1-2 0-5 1-1 1-3 2-4v-1h0l1 2h1v-2c1-2 1-3 1-6 1-1 0-4 0-6 0-4 0-7 1-11 1-2 0-4 1-6v-2c0-4 1-8 1-11l1 3c0 2 0 4-1 5v-2c2-3 1 1 1-2l1-1h1c1-2 0-3 0-4 1-2 1-2 1-4 1-1 1-2 1-4 1-1 1-2 1-3l1-2 1-1c0-1 1-2 1-3v-1l1-3c1-3 1-6 3-8z"></path><path d="M458 851c-2-1-3-4-5-5a57.31 57.31 0 0 0-11-11c-3-1-8-3-11-2-2 4 0 10 1 14-2-1-3-3-4-5-4-4-9-8-14-10-2-2-8-5-11-4-2 4 1 11 2 15l-3-6c-5-7-9-11-17-13-3 0-7-1-10 1-1 2 4 12 6 15-5-3-9-8-12-12-6-5-12-11-16-17l4 2c4 1 9 3 13 1 0-1 1-2 1-3 3 4 8 5 12 7l13 4c-3-3-5-6-9-8h-1l1-1c3 1 6 2 9 4 1 1 1 3 3 4 2 0 4 1 7 2 1 0 2 1 4 1-1-2-1-2-3-2-4-1-6-2-9-4 4 1 12 2 15 5l1 1 1-1c5 0 8 2 12 2 23 4 46 7 68 17-2 2-5 3-8 5l3 6c-9-5-14-15-25-17-3-1-6-1-8 1-3 4 0 10 1 14zm510 324c5-13 11-26 20-38 4-4 8-9 13-13 4-4 8-8 14-11 6-2 13-2 20-3-8 5-16 9-23 16-8 7-15 16-21 25-5 7-10 13-15 21h1c14-20 29-42 51-56 4-2 9-6 13-6l17-1c-4 3-9 4-14 6-7 3-13 7-18 11-13 10-24 23-35 34-5 5-10 11-15 14-1 1-2 1-2 2l-3 2h-1l-4 4-2 2c-1 1-2 1-3 2h-1l-6 3c-1 1-1 1-2 1l2-1c5-3 12-7 14-14zm-9-110v1c3 22-8 48-22 65-19 25-44 28-73 31l10-5c9-5 17-11 25-17 18-13 37-27 48-45 6-10 9-19 12-30zm137 66c-6 27-8 52-26 76-14 19-38 31-61 35 4-2 9-4 13-6 16-8 31-18 43-32 21-25 25-61 21-93-1-14-2-37-14-46-4-3-9-4-13-3h-1c-4 1-7 3-10 6l2-17c10-1 20-3 28 3l1 1v-1l-3-3c-5-4-19-2-25-1h-1l2-9c5 0 9-1 14 0h1c3 1 5 2 8 4 6 5 11 19 12 27h0c0 2 0 7 1 9v5c1 3 1 6 2 8-1 3 0 3 0 5v1c1 2 0 1 1 2 1 2 1 3 1 5v3l1 6 1 1c1-2 1-3 1-4h1c0 3 0 5-1 7l-1 8 2 3zM354 906c7-1 16-1 24 1h1c9 2 17 6 24 11 16 11 29 28 33 48 3 20-1 41-12 58-12 17-29 29-50 33-17 2-34-1-49-12-16-11-29-32-32-51-4-19 1-41 12-57 12-17 28-28 49-31z" class="C"></path><path d="M314 939h2c2 2 2 2 3 5-1 2-1 2-3 3-2 0-3-1-4-1l-1-2c1-3 1-3 3-5zm17-13h3c2 2 2 2 2 4-1 2-2 3-4 4h-3c-1-2-2-2-3-4 2-2 2-3 5-4zm80 84c1-1 2 0 3 0 2 1 3 1 3 4-1 2-2 3-3 4h-3c-2-1-3-1-4-4 1-2 2-3 4-4zm-19-84l4 1c2 2 2 2 2 4-1 3-1 3-3 5h-2c-2-1-3-1-4-3 0-1-1-2 0-3 0-2 1-2 3-4zm-44-8h5c2 1 2 1 3 3 0 2 0 3-2 5-1 0-2 1-4 1-2-1-2-1-3-3 0-3-1-3 1-6zm24 0c2 0 3 1 4 1 2 2 2 3 2 5-1 3-2 3-4 4-2 0-3-1-5-2-1-2-1-2-1-5 1-2 2-2 4-3zm36 24c1 0 3 0 4 1s2 2 3 4c-1 3-2 3-4 5h-4c-2-2-3-3-3-5 1-3 2-3 4-5zm9 22c2-1 3 0 5 0 2 2 2 2 3 5-1 3-1 3-3 4l-2 1c-2 0-3-1-5-3 0-1-1-2 0-3 0-2 0-2 2-4zm1 23h4c2 2 2 2 3 5-1 3-1 3-3 5h-5c-2-2-3-3-2-6 0-2 1-3 3-4z"></path><path d="M359 935c12 0 25 3 34 12 8 9 12 19 12 31-1 12-5 23-14 31-8 7-19 10-30 9-9 0-14-4-21-11l3 7c3 7 10 13 17 16 12 4 23 1 34-4 3-1 5-2 7-2 3 1 4 2 6 5l-1 1c-4 7-17 11-25 12-14 2-31 0-42-9-13-11-23-28-25-45-2-13 1-26 9-36 9-12 21-16 36-17z"></path><path d="M494 1021c17-1 35 5 48 15 15 11 26 29 28 48 3 21-4 42-17 59-13 16-32 24-52 26s-41-4-56-17c-14-12-21-29-23-47-1-20 4-42 18-57 14-16 33-25 54-27z" class="C"></path><path d="M432 1075c2 0 3 0 5 1 0 3 0 3-1 5-2 0-3 0-5-2 0-2 0-2 1-4zm25-30l2-1 2 1c0 2 0 3-1 5h-3c-2-1-1-1-2-3l2-2zm-27 49h3l1 1c0 2 1 3 0 5-3 0-3 0-5-2-1-2-1-2 1-4zm12-37l2 1c1 2 1 1 1 4-1 2-1 2-3 3-2-1-2-2-3-3 1-2 1-3 3-5zm36-21c3-1 3-1 5 0l1 4-2 1h-3c-2-1-2-1-2-3l1-2zm24 0l1-1c3 0 4 1 5 2v3l-1 2c-3 0-4 0-6-1 0-3 0-3 1-5zm-67 79h1c2 1 2 1 4 3-1 2-1 3-2 4-2 1-2 1-3 1-3-3-2-3-2-6l2-2zm10 21h2c2 0 2 1 3 2 0 3 0 3-2 5l-2 1c-2-1-2-1-3-3 0-3 0-3 2-5zm18 13l3-1c2 1 2 1 4 4-1 2-1 2-3 4h-1c-2 0-3-1-5-3 0-3 0-2 2-4zm64-105h4c2 3 2 3 2 5l-3 2c0 1-1 1-2 1-2-1-2-2-4-4 0-2 1-3 3-4zm7 90l3-1c2 1 2 2 3 4 0 3 0 3-2 5h-3c-2-1-2-2-3-4 0-2 1-2 2-4zm11-73h5c2 2 2 3 2 5l-1 2-3 1c-3 0-3-1-5-3 0-2 0-3 2-5zm5 50c2 0 2 0 4 1 2 2 1 3 1 5l-2 3h-4c-1-1-2-2-3-4 1-2 2-3 4-5zm-63 43h4c3 1 3 1 4 3 0 3-1 3-3 4l-3 1c-2-1-2-1-4-3 1-2 1-3 2-5zm27-5l4-1c1 2 2 2 3 4-1 3-1 3-3 5h-4c-2-1-2-2-3-4 1-3 1-3 3-4z"></path><path d="M553 1085h1c2 0 2 1 4 2 0 1 1 3 1 3-1 3-2 3-4 5l-3-1c-2-2-2-2-3-5 1-2 2-3 4-4zm-65-35c14-1 27 3 37 11 9 7 14 17 16 28 1 11-2 22-9 31-9 11-23 17-37 18-13 1-27-2-37-10-9-7-15-18-16-30-1-10 2-23 9-30 10-12 22-17 37-18z"></path></svg>