<svg xmlns="http://www.w3.org/2000/svg" xmlns:v="https://vecta.io/nano" viewBox="160 108 1221 1286"><!--oldViewBox="0 0 1533 1533"--><style>.B{fill:#fafaf9}.C{fill:#e1e0e1}</style><path d="M1052 199c2 0 3 0 5 1 2 2 2 2 2 5l-2 3h-3c-2-1-2-1-3-4 0-2 0-3 1-5zm-23 13h6c2 0 4 2 5 4s1 5 1 8c-1 2-3 4-5 5h-6c-3-1-4-2-6-4-1-2-1-5 0-8 1-2 3-3 5-5zm-675 8c2 0 4 1 5 2 3 1 5 3 6 6s0 7-1 9c-2 4-6 5-10 5-1 0-3 0-4-1-3-1-5-3-6-6s-1-6 1-9c2-4 5-5 9-6zm450-50c4 0 10-1 14 1s8 6 9 11c2 8-2 15-7 21l8 8c9 6 17 5 28 3-5 4-9 7-14 9-11 2-19-5-28-10l-16 5c6 5 12 10 18 17 4 4 7 8 11 12l-6-15c7 3 14 7 19 12s8 10 12 14c1-6 1-13 4-19 4-12 13-21 24-26s22-5 33-4c27 4 54 16 79 26-2-12-4-23 3-35 5-11 14-15 25-18-5 6-11 10-15 17-5 8-8 21-6 30 1 3 3 7 5 9 0-7-2-14-1-21 2-8 6-15 13-20 4-2 9-5 14-3h1c1 0 2 0 3 1 2 1 3 2 4 4l-1 1c-1 1-4 0-4 0-5 1-9 1-13 4-5 4-8 11-9 17 0 5 1 11 4 15 5 5 15 8 22 8 5 0 11-1 15-4 17-11 9-31 22-43 6-5 14-8 22-7 10 0 20 9 25 18 3 4 4 10 7 13 2 2 3 3 6 3 2 0 4-1 6-3 0-2 0-2-1-4-3-2-6-1-9-2-2-1-2-1-2-4 1-2 2-3 5-4 10-3 15 11 20 18 2 3 5 5 9 7 0 1 6 3 7 3l3-4c3-5 6-9 10-13 6-5 13-10 21-12 13-5 28-4 41 3 13 6 18 16 23 29 8-1 15-2 24-1 15 2 29 12 39 24 10 14 16 33 14 51-2 15-9 29-21 40-2 2-8 5-9 7-1 1-1 5-2 6-1 7-2 13-7 18-7 8-18 9-22 21 0 1-1 3 0 5 3 0 9-7 12-9 7-4 15-6 23-6 8-1 15 1 20 7 8 7 10 16 10 26 0 18-8 31-21 43l2 2c11 12 9 23 8 38 0 14-1 27-12 37-3 3-7 5-10 8v2c0 1 1 1 2 1 1 1 4 0 6 0 4-1 7-2 11-2 6 0 12 3 16 7 9 10 8 27 7 39-1 15-5 27-17 37l-1 1c3 1 7 3 9 5 4 4 6 7 6 12 0 12-8 28-16 36-4 4-9 7-13 12-2 2-2 3-2 6 3-1 6-2 8-3 4-2 7-3 11-3 7-1 14 1 19 6 14 12 10 36 1 49-2 4-4 7-7 9 0 1-2 3-3 4 0 1 1 6 1 7 1 14-6 22-14 31 5 2 11 3 15 7 8 6 13 16 14 26 1 12-3 19-10 29l4 8c4 10 5 21 1 30-4 8-10 15-18 17-3 1-6 1-9 2 2 3 4 6 5 10 3 11-2 22-8 32 6 3 11 8 13 15 3 10 1 19-4 29-1-4-2-8-2-12 0-5 0-11-2-15-2-2-4-4-7-4-17-4-27 17-37 26-5 5-11 8-16 12l1 11c9-4 18-11 28-15 1-1 0 0 1 0 0 3-3 5-6 7-4 4-9 7-14 10-3 2-8 3-11 5-4 4-7 9-10 13 18-5 37-14 49-28 3-4 6-12 10-14h4c0 1 1 2 1 3 1 4-1 8-3 11-8 10-20 17-31 22-8 4-17 6-26 10-2 1-4 1-5 3 9 3 21-3 29-4 7-2 16-1 22 2 8 3 14 8 17 16 5 11 3 21-1 31 3 2 7 3 9 6 8 7 13 19 13 30 0 14-5 25-15 34 6 13 11 26 14 40 5 22 3 43-10 62-11 18-29 31-50 35-16 3-34 3-49-5-6-3-12-7-18-11 1 12 3 25-4 36-3 7-9 12-16 14-15 4-27-1-40-8-4 7-5 13-13 18-17 9-39-1-56-6l-4 7c-4 6-9 10-17 11-11 3-24-2-33-8s-17-14-25-21l-1-1c-1 0-5 7-6 8-4 5-10 8-15 9-39 12-113-26-145-48-14-10-27-24-42-32-1 13-3 24-12 35-8 8-19 13-30 14-8 0-19-3-25-8-5-4-10-10-14-14-8 2-15 9-21 13-27 19-101 59-135 52-5-1-8-4-12-9v-1l-22 10c-10 4-22 7-33 2h-1c-4 3-8 7-13 10-7 4-20 6-28 4-4-2-7-4-9-8-5-13 1-29 6-42l-16 11c-14 7-32 12-48 7-10-3-15-9-20-19-6 0-13 1-18-3-2-2-4-6-6-7-1 0-4-1-6-1-4-1-8-2-12-5-5-3-10-8-16-9-6-2-12-1-18 1-10 2-20 5-31 6-21 0-41-8-56-23-8-8-16-18-20-29-12-26-9-55-13-83-2-17-7-34-7-51 0-9 2-17 7-25s12-12 21-14c10-3 21-2 29-10 4-5 6-10 5-16l-1-2-11 2c-11 1-22-1-30-9-10-9-15-20-16-33 0-8 2-17 6-23 3-4 7-8 10-12-4-5-9-9-13-15-5-9-12-23-9-34 2-11 21-17 30-23-4-10-9-20-8-31 1-13 9-19 18-26-4-3-8-5-11-8-10-8-16-19-17-32-1-15 5-24 14-35l-5-11c-4-8-2-16 1-23-3-3-6-7-9-10-4-7-8-16-6-24v-1c1-11 6-15 14-21-9-8-15-17-18-28s-1-19 4-28c-5-4-11-9-14-16-3-10-3-25 2-34 4-8 13-10 21-13l-7-9c-7-9-10-20-6-30 1-2 4-6 5-8 0 0-4-8-4-10-2-4-3-9-2-13v-1c2-7 5-13 8-19 0-3-7-8-9-10-2-3-4-6-5-10-2-7 0-17 4-24 9-18 25-23 43-28-4-7-9-14-12-22-12-26-17-60-9-89 7-27 24-49 48-63 12-7 25-11 38-17 10-5 19-10 30-13 6-2 11-2 17 0 2 0 5 2 7 4-2 2-6 2-9 2-5 1-12 2-17 4-5 1-9 3-13 5 6 0 12-3 18-2 10 1 12 10 16 18 2 5 5 9 9 14 4 4 9 6 15 7 9 0 17-5 23-11 6-5 9-11 9-19 0-12-8-21-16-29 4 1 7 1 10 2 3 2 6 4 9 4 4 1 9 1 13 1 10 1 16 8 23 14 7-11 15-21 27-27 16-7 28-5 44-3 5 1 10 1 15 3 2 2 3 4 4 6v1c10-9 20-16 33-18 5 0 8-1 12 3 8 7 15 20 16 32 1 16-10 28-20 40 21-8 46-14 63-29 14-11 14-34 31-42 5-2 11-2 16 1 10 4 11 13 14 22 1 2 2 3 5 4 2 0 5-1 6-3 2-2 2-4 2-6-1-2-1-3-4-3-2 1-4 2-6 2l-2-2c1-2 0-3 2-5 1-1 3-2 5-2 4 0 7 3 10 5l1 1c3-1 7-3 10-4 15-3 25 2 39 5 6 2 12 2 18 2 4 0 8 0 11-1 12-4 9-14 14-23 3-6 8-9 14-11z"></path><path d="M756 248h3c1 2 1 2 1 4l-2 2c-1 0-2 0-3-1l-1-1 2-4zm404 71c2-1 3-3 5-5v1c0 5 1 8 3 11v5l-2 1c-3-3-5-8-6-12v-1zM726 696h2c-1 2-1 4-1 5-1 1-1 1-1 2v1l-3 3c-1 2-3 2-6 2v-1l3-1c1-1 2-1 3-2-2-1-3 0-4 1l-1-1c1-4 4-7 8-9zm-65 65c1-6 2-13 5-19 3 0 3 1 5 3v1l-1 1c-3 1-6 11-8 14h-1z" class="C"></path><path d="M503 197h5c1 2 3 4 3 6 0 3-1 3-2 5-3 1-4 1-7 0-2-2-2-4-2-6s1-3 3-5z" class="B"></path><path d="M822 1007c3 3 6 7 10 9 6 3 12 5 17 9-5-2-10-4-15-4l-1 1c-1-1-2-1-3-1l-1-1c-2 0-3-1-4-2l-2-1c-2-1-3-1-4-2 1-1 1-1 3-1v-7z" class="C"></path><path d="M673 316c1 0 3 1 4 1 2 1 4 3 5 5 0 1 0 2-1 3-2 2-4 2-6 2-3 0-5-1-8-3-1-2-2-3-2-5 2-2 5-2 8-3zm224 333h0c2 1 3 1 4 3-1 9-7 18-13 24l-2 2-1-1 12-28zM412 807c2 0 4 0 6 1 4 2 9 6 11 10l-3 1h-5c-4 0-6 0-8-2-3-3-3-5-3-8l2-2z" class="B"></path><path d="M811 971c6 1 10 8 14 13 3 5 8 10 10 16l-1 1c-4-2-9-6-12-10-1-3-2-5-4-7l-1-1c-1-1-1-2-2-4l-1-3-3-5z" class="C"></path><path d="M891 641h1c1 2 2 4 2 6 0 4-2 8-4 12-2 7-5 14-10 20l-2 1-1-1c1-5 3-9 5-13 3-8 7-16 9-25zM662 761c-1 3-1 5-3 7-2-1-3-4-4-6-1-1-2-2-2-4 0-8 1-17 7-23l3-1c1 1 2 1 2 2 3 4-9 18-8 24 2 1 2 1 4 1h1zm437-412c2-1 5 0 8 0 21 2 32 15 45 31-6-4-11-8-16-12-12-7-24-12-37-19zm-183-32h3c2 2 3 5 4 8 1 4 3 9 6 13 5 4 13 3 18 7 0 2 1 2 0 4l-3 1h-4c-7 0-14-3-19-9-5-4-8-10-8-17 0-3 1-5 3-7zM502 521h4c3 3 6 7 7 11 2 7 0 16-3 22-3 5-7 8-12 10-2-1-2-1-3-2v-5c3-2 6-4 7-6 2-4 4-11 2-15 0-2-1-2-2-3-2 0-3-1-4-2-1-2-1-3-1-5 2-3 3-3 5-5zm305-342h3c3 0 4 1 6 3 2 4 1 8 0 12-3 6-8 8-14 11l-10 1c1-5 2-12 4-17s6-8 11-10zM670 647h3c7 2 23 13 26 19 1 3 1 4 0 7-3 7-10 13-17 16l-3 1c-6 1-11 1-17 1 4-3 9-5 13-8 7-8 6-18 1-26-2-3-6-6-6-10z" class="B"></path><path d="M682 659c3 3 6 6 7 10 1 3-1 5-3 8l-2 2h-1c3-7 1-14-1-20z"></path><path d="M1217 255c1 0 2-1 3 0 2 2 3 3 3 6 2 14-10 18-18 26-5 6-9 13-13 18-1-3 2-10 3-14l-11 13c3-9 7-17 11-25 3-6 6-13 11-17 3-3 7-5 11-7zM649 728c3 0 6 2 9 4-2 4-5 8-6 13v1c-1 4 0 7 0 11 1 2 0 4 1 7 0 3 1 6 1 9l-1 2c-4-3-7-15-9-20h-1c0 5 1 10 2 15 1 2 3 5 2 7l-4 1-2-1-3-10c0-2 0-4-2-5 0 5 2 11 3 16-7-8-10-17-17-25l-1-1c6-1 16-2 20-7 2-3 3-8 5-11 1-3 1-4 3-6zm582 252c9-1 19 2 26 8 2 2 4 4 4 7-1 1-1 1-2 1-5 5-15 7-22 5l-7-2c-8-2-17-1-24 0l1-3 1-2c5-8 14-12 23-14zm80 210h3c7 5 13 21 15 29 4 17 4 33-5 47-7 12-21 20-34 24h-1c-9 2-16 1-25 0l-8-3c13 1 24 1 37-4 13-6 24-17 29-31 5-13 5-28-1-41-2-7-7-14-10-21h0zm-820 37c7 0 14-1 22 0 13 2 26 6 39 9 7 2 15 2 22 4 8 2 15 5 22 8 10 3 21 7 30 11l-27-2c-16-2-32-5-47-10-13-4-24-9-37-11-17-4-35-5-53-4 10-3 19-4 29-5zm694-524h5v2c2 7-1 13-4 19-2 3-2 6-1 10 0 2 2 5 5 6 2 1 6 1 7 0 2-1 3-3 3-5 1-2-1-6-2-8s-2-2-2-4c2-1 3-1 4 0 6 1 12 5 15 10 2 3 2 6 1 10-2 5-4 8-9 11-5 2-13 3-19 0-7-2-14-8-18-15-3-7-2-15 1-22 2-6 8-11 14-14zM762 219h2c12-2 26 5 35 13 6 6 12 13 12 23 0 3 0 4-2 6-5 0-10-3-14-4l11 8v1c-1 1-4 2-6 2-6 1-14-4-20-6-4-2-12-3-15-6v-7l20 3-5-3-2-1h0l1 2h-1c-4-1-10-2-13-6 2 0 4 1 6 0-2 0-3-1-5-3 0-2-1-2 1-4 8 1 15 6 23 9-4-3-7-6-11-8-3-2-8-3-11-5-2-2-2-3-2-5l1-1c13 4 22 9 31 17a34.47 34.47 0 0 0-12-12c-5-3-10-5-15-7-3-2-7-3-9-6zM209 483c8-1 20 0 27 4 6 3 12 9 14 16 0 3 0 6-1 9-4-2-8-3-12-4s-8-1-11-1c-1 0-4 0-4-1-3-1-6-4-8-6-4-2-9-2-13 0h-1c0 1-1 1-1 2 2 4 10 5 14 6 0 1 0 1-1 2-2 1-5 2-8 4-3 3-5 6-9 8-3 0-6-1-8-3-3-2-5-5-6-8 0-7 1-13 5-18 6-8 14-9 23-10zm1089 581c6 0 13 0 18 4 6 4 10 11 11 18 1 8-1 13-5 19-5 7-9 9-16 10-7 0-14-2-20-6-6-3-9-7-10-13-2-6-2-13 2-19 5-7 11-11 20-13z" class="B"></path><path d="M1296 1081h5c3 0 5 2 6 5 2 2 2 4 1 7s-3 4-6 6c-2 0-4 1-6 0s-4-3-6-5c-1-2-1-5 0-7 1-3 3-4 6-6z"></path><path d="M261 288c3-1 6-1 9 0 3 0 6 2 8 5 2 2 2 5 2 8-3 11-20 14-29 20-10 6-15 16-17 28-5 24 9 47 23 66l1 3-1 1c-1-1-2-1-4-2-5-3-9-8-13-12-7-10-14-21-17-33-6-20-2-44 8-62 7-11 18-19 30-22zm1068 899h2c2 0 3 1 4 2 11 13 16 34 15 51-2 19-11 37-26 50-14 12-34 17-52 15-16-1-31-10-41-22-10-13-16-31-14-47 1-6 2-13 7-17l2 1c0 2-1 4-1 6-1 4-3 8-3 13-1 7 0 12 2 19l2 3c6 14 20 29 35 34 13 4 29 2 41-4 14-7 25-18 30-32 8-25-2-49-13-71 2-1 4 0 6 0 12 14 17 29 19 47v-1c3-15-7-33-15-45v-2zm-210-643h1c23-2 45 11 62 26-12-5-26-10-38-13-11-2-24-4-33 2v2c7 3 20-1 28 0 11 1 21 3 31 6l1 1c2 1 5 3 6 5-3 1-9 0-13 0s-9 0-13 1c-19 5-34 23-55 20-12-2-22-11-29-21 10-5 15-12 23-18 9-7 18-9 29-11z" class="B"></path><path d="M1125 571c4 0 8 1 13 2l-30 7c-4 1-9 2-13 1v-2c8-7 20-7 30-8z"></path><path d="M883 612s1 0 1 1c4 7 5 16 5 24 0 4-2 9-3 13-3 8-7 15-10 22-5 10-10 18-17 27l9-24 11-24c2-4 4-8 5-12-3 2-5 9-7 13-5 9-26 58-33 61h-1c1-7 5-14 7-20 5-11 11-23 15-34-3 1-6 7-7 10l-12 26c-2 5-4 11-6 16-1 2-1 2-3 2-1-2 0-5 0-8l17-48c-13 17-13 38-23 57-2-18 4-37 8-54-7 9-8 25-10 36-6-13 0-29 1-42-5 8-4 18-6 27-2-7-5-14-3-22 1-7 5-23 10-27h1c4 3 5 12 6 16h1c3 0 8-2 11-3 10-3 18-9 24-18 3-5 5-10 9-15zm-464 98c6-1 12 0 18 3 10 4 18 12 21 22 6 16 3 36-4 51h0l2-6c3-13 2-30-4-41l-1-1c-2-1-3-1-5-1l-1 1c0 4 2 7 3 10-1 4-1 7-3 10-3 5-8 9-14 11-8 2-17 1-25-3-6-4-11-11-12-18-3-10 0-18 5-26 4-7 12-11 20-12z" class="B"></path><path d="M421 731c1 0 3-1 5 0 3 1 6 3 7 6 2 2 2 6 1 9s-3 4-5 5-3 1-4 1c-4-1-6-3-8-5-2-3-3-6-2-9s3-5 6-7z"></path><path d="M1065 348c9-1 22 0 32 3 20 5 42 19 57 35 3 3 6 5 8 9-1 2 0 1-2 2-14 7-26-8-39-11-8-2-16-1-23-3-2-2-2-3-2-6l2-2 2-2c8-3 25 4 32 6l-8-5c-9-4-19-7-29-7h-4l-2 1c-4 6-6 12-10 18-3 3-7 6-11 7-6 2-12 1-17-2s-9-7-10-13-1-13 3-19c6-7 12-9 21-11z" class="B"></path><path d="M1061 364h2c3 1 5 2 6 4s2 5 1 7c-1 3-4 4-7 5h-4c-2 0-4-2-5-4-1-3-1-5 0-7 2-3 4-4 7-5z"></path><path d="M225 513h0c8 0 16 2 22 8s8 15 7 24c0 9-5 16-11 22-8 7-19 9-29 8-6 0-13-2-18-5-6-5-13-13-14-21 0-4 1-7 3-10 3-4 10-3 15-3 1-4 2-9 4-13 5-6 13-9 21-10z" class="B"></path><path d="M202 544c7-2 12 8 18 11 5 2 11 3 17 3l-2 2-3 1c-7 2-13 2-19-2-5-2-11-7-12-12-1-2 0-2 1-3zm23-19c3-1 5 0 8 1 5 1 9 4 11 9 2 3 2 10 1 13-1 1-1 2-2 2-4 0-6-2-9-3-4-3-6-6-9-10 5 1 10 3 15 3v-1c-4-8-9-8-14-13l-1-1z"></path><path d="M1276 246c9-1 17 1 26 5 14 7 25 20 30 35 5 14 5 31-3 44-6 12-17 20-30 24-9 3-23 3-31-2-3-2-4-3-4-6 2-4 7-5 11-6 7-2 14-5 19-10 9-9 10-19 11-32 0-3 0-6 2-8l1 1c3 6 3 14 2 21-1 11-7 23-16 29-1 1-2 1-3 2 6-1 9-4 13-8 8-10 11-26 9-40-1-5-4-10-4-16l1-1c2 2 4 5 6 7 8 15 4 32 0 47l1-2c6-10 7-23 5-34-3-14-10-25-22-33-6-4-13-6-20-5-3 1-8 3-10 6-1 3-1 5 0 8 2 1 2 2 4 2 3 0 4 0 6-2 1-2 1-3 1-6v-3c3-1 5 0 7 1 3 1 5 4 6 7s1 5 0 8c-2 4-5 7-9 8-6 2-13 0-18-3s-9-8-10-14c-1-5-1-11 2-15 4-7 10-8 17-9zm-116 73l-2-5c-1 8 4 20 6 27-2-2-4-4-6-7-8-11-13-24-10-38 1-7 4-13 10-17 2 0 3 0 4 1 4 3 5 14 6 19 2-2 3-5 3-7 2-5 4-9 5-14 2-9 1-18 2-26 2-13 6-23 17-31 9-6 20-11 31-9h1c6 2 12 4 17 9 6 5 10 14 10 21 0 2 0 4-2 5-4 4-13 6-19 6-3 0-5-4-7-7-19 7-30 22-37 40-3 6-5 12-8 18-3 5-8 10-12 14h-1l-1-5-1-1-1 2c-2 2-3 4-5 5z" class="B"></path><path d="M1219 229c2 0 4 0 6 1 2 2 1 1 2 3-5 2-11 4-16 7s-8 8-12 12c-2 2-3 5-6 7l3-8c5-10 13-18 23-22z"></path><path d="M277 235c5 0 10 0 15 1 7 2 15 6 19 12 2 4 3 8 1 12-5 18-35 20-50 23-7 2-14 4-20 8-14 9-21 22-25 38-6 25 0 49 13 71l9 13-4-1c-2-1-4-1-6-3-17-12-25-36-29-56-4-29 2-60 20-84 13-18 36-30 57-34z" class="B"></path><path d="M279 257c4-1 8-1 11 2v2c-4 6-10 6-17 8-4 1-9 1-14 1 6-7 12-10 20-13zm-25 2c2 0 5 0 7 1 1 0 1 0 1 2-3 4-7 7-12 9 1-3 4-6 6-9-10 6-18 12-25 21l-8 14c1-8 3-15 7-22 6-8 15-14 24-16z"></path><path d="M885 470c2-1 4-1 5-1 8 1 32 14 37 20 7 9 3 14 1 24 5 6 15 7 22 8 2 1 5 1 7 2 5 4 5 16 6 21 2 7 5 13 8 19 3 9 4 18 6 27-6-9-11-17-19-23-25-19-65-18-94-12-4 1-17 6-20 5v-2c1-2 3-3 5-4 5-2 12-3 17-5 8-3 16-6 24-10 5-1 13-2 17-6v-2c-8 1-16 4-23 7l-40 16c-2-1-2-4-3-5 2-3 15-7 19-8-6 1-13 3-19 3-1-2-1-2-1-4 1 0 2-1 3-1h1l-6-1c-2-3-3-6-4-10 16 0 33 6 49 1 6-2 9-6 11-12v-1c-8 0-17 6-25 8-10 2-24 3-35 3l-4-7 19-1c12-2 29-5 37-16 4-6 4-17 2-23l-3-9v-1z" class="B"></path><path d="M915 500h1c0 1 1 2 1 3 0 3-1 5-3 7-2 1-5 1-7 1h-3l11-11zm29 49h1c3-1 9 1 12 2 3 2 4 5 5 9h-2c-5-3-14-6-16-11zm-25-10h2c4 0 9 0 13 3l-1 1-2 2c-4 1-8 0-11-1-2 0-3-1-4-2l1-2 2-1zm13-9c2-1 1-1 3-1 4 0 9 0 13 3 0 2 0 2-1 4-3 1-5 1-8 0s-6-2-8-5l1-1z"></path><path d="M894 559c15 0 30 3 43 9 12 5 19 11 27 19 4 4 7 7 9 12 1 6-1 12-2 18-1 15 2 26 7 40v1c-11 1-18-12-26-18-4-5-10-8-16-11-3-1-7-2-11-2-7 2-12 11-19 13-2 1-3 1-5 0 0-3 1-7 2-11 1-5 1-10 0-15-1-8-4-15-10-20-15-12-32-8-49-6l-1-1 1-3c8-7 20-8 30-12-11 0-20 4-31 8v-10c7-4 22-11 29-9 10 2 19 4 28 8-6-5-15-8-23-9h-1 0l18-1z" class="B"></path><path d="M901 574c3 2 5 5 7 8 2 4 4 8 3 13h0c-4-2-8-17-10-21zm40 25h1l3 4c3 4 2 8 1 13-1 1-2 2-2 3l-1-1-2-19zm-20-20h0c4 2 6 11 8 15 3 5 4 10 2 16h-1-2v-15c-1-2-3-4-4-6-2-3-4-7-3-10zm31 11c9 13 11 27 9 43l-1 1c-3-7-2-17-3-25-1-7-3-13-5-19z"></path><path d="M684 1141c18 1 34 12 48 22 9 6 17 12 25 20 24 24 45 53 45 89 0 13-4 26-13 35-6 6-14 9-23 9-7 0-13-3-18-8-3-4-6-10-5-15 1-6 6-12 10-15 8-5 8 3 14 4l1-1c3-3 3-11 2-15-3-33-33-61-57-81-12-9-26-19-42-17-3 0-6 1-9 4 2 7 12 6 16 10 2 2 3 4 3 7-2 1-6 1-8 1h-3l-3-1c-6-1-14-5-18-11-1-2-4-7-3-10 6-6 11-9 19-10 23-1 45 12 62 26 23 20 49 51 51 82 0 8 0 19-6 25-2 3-5 4-9 4-2-2-3-4-5-7h-1l-2 1c0 3-1 4 1 7 2 2 5 4 8 5 4 0 8-2 11-4 6-4 8-11 9-19 3-25-11-52-27-71-16-20-37-42-62-51-10-4-20-5-30-6 6-5 11-8 19-9zm638-265h4c9-1 18-2 26 5 4 4 6 10 6 16 0 7-3 15-9 20-7 5-20 8-29 5l-12-6c-6-2-13-4-19-4-17-2-31 2-45 13 5-1 9-4 14-5 10-3 22-5 33-3 1 0 5 0 7 1 0 1 2 3 2 4 2 2 3 4 5 5 3 2 9 0 13-1l3 2c6 3 11 10 13 17 1 6 0 14-4 19-2 3-5 7-10 7-12 2-13-12-18-20-2-4-6-7-10-11l-3-1c-11-6-25-6-36-2-22 7-42 24-54 43-5 6-8 13-11 20-3 1-7 0-9 0 7-22 20-44 35-62 19-25 49-48 79-57 10-3 19-4 29-5z" class="B"></path><path d="M1323 904c4 0 10-1 13 1 2 0 2 1 3 2-1 3-2 3-5 4h-9c-3 0-6-1-9-3 2-3 4-3 7-4zm-34-10l7-1c4 0 10 0 13 3-2 2-3 3-6 4-7 0-14 0-21-2l-1-1c2-2 5-2 8-3z"></path><path d="M924 845c9-1 18 0 26 4 13 6 23 17 28 30s6 29 0 42c-3 7-10 14-18 17-6 2-13 2-19-1-5-3-9-8-11-14-2-7 0-16 3-22 3-3 6-6 10-7 2 0 5 1 7 2 2 2 4 6 4 9 1 3-1 7-3 9-2 1-4 0-7 0v-1c-2 2-2 2-2 5 0 1 0 3 2 4 2 2 4 2 6 2 3-1 5-3 6-5 4-5 6-12 5-19-2-6-6-12-11-15-6-4-12-4-18-3-6 2-11 6-14 12-6 12-6 27-2 39 4 13 15 27 27 34 11 6 20 4 31 0l-3 5c-7 7-18 8-28 8-11-2-16-7-23-14-15-15-24-36-26-56-1-7 0-14 0-22-3 6-3 12-2 18 0 20 11 42 24 58 4 5 9 9 13 13l-4-2c-2-1-5-2-7-3-25-17-33-46-38-73-1 10 1 19 4 29 1 2 7 13 6 15-9-15-19-27-22-45-1-9 2-18 7-25 12-16 30-25 49-28zm207 307c4-1 9 0 13 0 5 2 9 5 12 10 3 6 4 12 2 19s-8 13-14 17c-10 5-28-4-38-7 4 6 10 12 13 20 2 5 2 10-1 14-3 6-8 10-14 12-7 2-17 2-24-1-10-6-17-15-27-21l8 16c-5 0-12-2-18-1-10 1-18 8-28 12-1 1-3 2-4 2s-4-1-4-2c-9-4-15-11-25-11-12-1-22 3-33 6-10 3-20 5-30 4-4 0-9-1-12-4v-1c8-1 16-1 24-3 23-5 46-18 72-14 2 3 5 5 9 6l1-2c-1-2-2-3-4-5-12-7-30-4-43-1 12-7 25-12 39-16 7-2 15-4 23-4 7 0 16 3 23 5 6 2 11 4 16 7l19 10c3 2 6 4 9 4 2 0 2-1 2-2s0-2-1-3c-3-3-9-6-13-8-18-9-34-15-55-17l3-1c17-5 41-2 57 6 5 2 10 7 16 9 2 1 3 0 5 0v-1l-2-3c-3-3-8-5-12-7-17-8-36-11-55-12 20-5 39-9 59-9 7 0 14 0 21 3 4 2 10 2 14 0 2-1 3-2 4-4-1-1-2-1-2-2-5-2-13-2-17-2-13-1-27 0-40 1-28 5-55 15-83 22 24-14 54-28 81-34l22-3c11-2 21-4 32-4z" class="B"></path><path d="M1015 1208h2c2 0 10 3 12 5 1 2 1 2 0 4l-2 1c-2 0-3-1-4-1-4-2-7-5-8-9z"></path><path d="M754 1251l2 1c1 1 1 1 0 3-3 7-8 13-13 18-23 28-53 45-86 61-15 8-31 15-47 22-8 3-23 9-32 4-2 0-3-1-4-3 5-14 28-20 41-23 6-2 14-3 19-7l-1-1c-4-2-12-1-17 0-21 4-41 14-61 24-8 5-19 11-28 12-3 1-5 1-8 0-1-2-1-4 0-6 0-4 3-7 6-10 11-10 24-14 36-22-20 3-38 12-52 27-4 5-8 12-14 16-6 5-17 10-26 9-2 0-4-1-5-3-3-6-1-21 2-28 3-8 7-14 13-20 9-8 23-18 36-17 1 0 1 0 2 1-3 3-9 4-13 6-18 8-29 18-38 35 9-10 21-24 35-27 2 0 4 1 6 2l1 1c1-1 2-2 4-3 3-3 8-5 12-7 8-3 16-6 24-7 16-3 33-2 50-2 12-1 24-3 36-2-27 6-58 12-82 28-2 1-4 2-5 6l1 1c7 0 14-5 20-8 7-4 14-7 21-9 26-10 54-14 81-22 19-6 39-15 56-27 10-7 19-15 28-23z" class="B"></path><path d="M559 1314h7c-8 3-17 4-25 6-13 4-26 10-37 18-6 4-11 9-17 14-2 0-3 1-5 0v-2c0-1 0-1 1-2 3-4 8-7 13-10 5-4 9-8 15-11 14-8 32-11 48-13z"></path><path d="M825 1244c1 0 1-1 2 0 2 0 6 6 8 8 5 6 12 10 19 16 24 20 53 30 84 36 25 4 51 5 77 0 5-1 11-2 16-5-5-2-25 1-32 1h-27c-29-1-61-8-87-21-6-2-12-5-16-10 13 5 25 10 38 14 33 9 72 13 106 8 12-2 23-5 35-7 9-2 35-5 43 0 5 8 8 10 17 9 3-1 5-1 8-1 6 0 16 5 22 9 9 7 17 16 19 27 1 6 1 11-2 15-4 5-10 7-15 7-15 2-31-3-43-11-5-4-10-8-14-12 2 8 6 15 4 23-1 5-5 8-9 11-31 5-47-27-69-42 0 6 1 13-1 18-3 5-6 8-11 9-29 9-78-11-104-24-25-13-49-29-68-50-6-8-11-14-14-23 3 2 6 6 9 10s8 8 12 12c8 8 18 14 28 20 30 18 67 29 101 34 10 1 20 2 29 2-14-8-32-9-48-12-25-6-50-15-73-27-15-9-28-18-41-31-4-5-8-9-10-14 8 5 13 14 21 19-4-6-13-12-14-18z" class="B"></path><path d="M1054 1326h2c4 1 8 2 10 5l-1 1c-1 1-2 1-3 1-2 0-5-2-7-3-1-2-1-2-1-4zm3-9h3c3 0 9 1 11 4 1 1 1 2 1 4-2 1-3 1-5 0-4-1-8-4-10-8zm-22 12h2c4 1 8 3 12 6 1 2 1 2 2 5-4 0-6-1-9-3s-6-4-7-8zm-2-17c1 0 1-1 2-1 3 0 13 2 16 4l-1 2-1 1c-3 1-9 0-12-2-3-1-3-2-4-4zm6-20h19c15 2 28 7 42 15 6 3 17 8 21 15 2 2 3 6 4 8-13-4-21-13-33-19-17-9-35-13-53-19z"></path><path d="M1073 787h5c9 0 16 4 22 10 10 10 17 23 19 37 1 5 1 12 1 18 3-3 2-8 7-11 2-2 6-3 10-2 5 1 9 8 11 12 3 6 4 12 6 19 2 14 1 27-2 42-2 8-4 16-4 24-1 10 9 19 5 29-6 13-26 17-30 32 0 3 0 5 1 8h2c2 0 7-15 14-18 2-1 3 0 4 0 1 1 1 1 1 2-1 3-3 8-5 11-7 16-14 29-28 41 3-12 6-22 7-34 6-38 6-81-2-119-5-21-12-43-24-61-4-8-10-15-17-19 2 10 10 19 14 28 12 25 17 52 20 79 4 39 0 82-12 119-4 12-9 22-14 33-8 17-17 33-28 47-17 22-42 40-66 54-10 6-21 13-33 17 6-4 11-8 17-14l18-19c5-5 12-9 15-15l-1-1h-2c-12 5-21 19-29 29-15 17-34 32-57 33 10-8 22-12 31-22 7-8 12-18 15-27 5-11 8-22 13-32 2-5 5-10 9-14 2-2 5-3 7-3 3 1 5 2 7 4 5 7 2 19 1 27 4-1 8-2 11-5 5-3 9-12 12-17 11-23 11-45 10-70 0-10 0-21 2-30 1-8 5-27 12-31 2-2 6-2 8-1 7 2 12 17 15 23 10-27-1-54-1-81-1-14 2-26 3-39 0-7-1-13 0-19 0-2 0-2 2-4 2 1 4 3 6 5 2 0 2 0 4-1 0-2 1-3 0-5 0-4-1-6-4-9-4-1-7 0-11 1-5-2-10-6-12-11-6-9-7-19-7-30-1-2-1-5 0-8 6-7 12-10 22-12z" class="B"></path><path d="M986 1136l-2 11c-1 2-1 4-3 6l-2-2c0-6 3-11 7-15zm147-191c1 0 1 0 2 1 0 6-4 12-8 18l-1 1v-3c0-6 3-13 7-17zm7-44h1l1 1c-1 7-5 12-11 17l-1-1c-1-1-1-2 0-3 1-6 5-11 10-14zm-56-1c1 0 2 0 3 1 3 1 6 6 7 9s1 6 0 10l-1-1-5-6c-2-4-5-8-4-13zm0 44h2c3 2 6 5 7 8 3 5 3 10 1 15-1 1 0 0-2 1-4-7-7-16-8-24zm47-73l2 1 1 2c1 7-6 19-10 25h-1c-1-3-1-6-1-10 1-7 4-14 9-18zm-43 121c2 1 2 1 3 3 1 3 0 8 0 11-3 18-7 36-14 53l-1 2h0l6-32 3-24c1-4 1-9 3-13zm-41 65h1l1 1c1 3 1 5 1 8 0 15-4 34-11 47-5 9-12 17-19 24-1 1 0 0-2 0 15-18 23-38 26-61 1-6 0-13 3-19zm10-54h2c4 7 6 15 7 22 4 27 1 57-14 80l-1 1c0-1 2-5 2-6 8-23 13-50 9-74-2-7-6-14-7-22l2-1z"></path><path d="M1257 1003h2c4 2 7 6 9 10 3 9 3 18 0 26-6 13-18 14-30 19-1 1-2 1-3 3l1 2 9 1c7 2 13 5 16 11 4 6 4 14 2 20-2 9-6 16-14 21-19 10-33 7-52 2 2 2 5 5 6 7 2 2 2 5 2 7-1 4-4 7-7 9-13 8-29-2-42-4-10-2-20-1-29 2-5 2-10 4-14 7-5 3-10 6-15 8-6 1-13 2-19 2-10 2-19 4-28 8-16 6-30 15-45 23l-24 11c-22 10-43 18-66 22-13 3-27 4-40 1-17-4-28-12-37-28-5-7-8-17-5-25 1-4 4-7 8-9 7-4 17-5 25-3 4 1 8 5 9 8 4 8 0 16-2 24 3 0 8 1 11 0 7-2 5-9 9-13 2-4 12-5 16-6h1c2 0 4 2 5 3 2 3 2 7 1 9-1 6-4 9-9 12-11 7-26 10-39 7-5-2-12-4-14-9 0-1-1-2-1-2 1-3 6-5 7-8 1-2 1-3 0-5s-2-4-4-5c-2 0-5 0-7 1s-4 4-5 6c-1 5 0 10 3 14 5 9 19 16 29 18 9 2 20 2 29 0 38-4 73-22 106-41 10-6 21-11 30-19 5-4 10-9 14-13 7-8 14-16 19-25 9-13 23-50 35-57 2-1 4-2 6-1 3 1 5 3 5 5 6 13-14 42-18 54 9-9 13-19 18-30 9-22 18-46 38-59 13-9 24-10 39-9 7 1 13 2 20 1 14-1 27-6 39-13z" class="B"></path><path d="M1207 1092c4-2 15-1 19 0 2 1 4 1 5 3l-2 2c-4 2-9 3-13 1-3-1-8-3-9-6zm-26-53h0c3 0 4 0 6 1-1 5-9 10-13 13-3 3-5 6-8 9-1 1-1 2-3 2l1-3c4-8 9-18 17-22zm-33 23h1l1 2c-1 8-10 21-16 26l-1 1-1-2c1-9 9-21 16-27zm95-27c2 0 3-1 5 1-3 3-6 5-10 7-20 9-35 20-51 33 3 1 6-1 10-1 6-1 13-1 19-2 4-1 8-3 11-2 2 0 3 1 4 2-3 4-16 4-21 4-10 1-20 1-30 5s-19 12-27 18c14-1 28-5 41 1 3 1 4 3 5 5l-1 1c-8 2-13 1-19-3-2-1-4-3-6-3-17-2-32 8-45 17 12-1 23-1 34 1 6 1 12 3 15 8v2c-10-2-18-7-27-8s-19-1-27 3c-8 3-16 10-23 14-5 3-9 6-14 8s-11 2-15 3c1-1 3-1 4-2 0-2 0-4 2-5 4-6 13-10 19-14l18-12 58-43c21-16 45-35 71-38z"></path><path d="M939 658c3 0 6 0 8 1 11 3 16 13 22 22 8-5 15-11 25-12 9-2 17 0 24 5 11 8 13 19 15 32-15-1-26 2-38 9 13-2 23 0 36 2 7 1 14 3 21 7 6 4 11 11 13 18 0 4 0 9-2 12-2 2-3 2-6 3h-1l2 1c-3 5-11 7-15 9-2 1-5 2-6 4s0 9-1 12c0 6-3 12-6 18-4 6-10 9-17 10-14 3-26-5-37-12 3 4 7 9 10 14 2 3 4 9 2 12v1c-1 3-1 5-3 7-12 11-38-5-50-9-10-3-20-5-31-5-23 0-44 10-60 26h-1c-1-2-1-4-2-6 5-6 12-11 17-15 22-18 50-24 77-15 7 2 22 11 28 9v-1c-3-4-7-5-11-7-12-5-24-9-37-10-20-2-40 5-56 16-7 4-13 10-19 15-1-2-3-8-2-10 2-4 9-10 13-13 5-5 10-12 16-17 13-10 30-18 45-24 35-14 71-20 108-20l19-1c3 0 6 1 8 0 1-2 1-2 0-4-2-1-5-1-7-1-12-2-25-1-37-1-36 0-72 4-104 20-17 9-31 19-45 31 11-32 37-61 63-82 6-5 14-9 20-14 1-1 1-1 1-3-1-1-2-2-3-2-5 0-14 7-17 10-23 18-41 40-55 65-8 13-13 28-25 39h0c-1-4-1-8 0-12 1-6 5-13 7-19 6-11 11-23 18-32 4-5 9-9 13-14 1-1 0-1 0-3h-2c-4 1-7 3-9 6-8 8-12 20-16 30-2 5-4 10-7 13l3-9c0-1 2-4 2-4 0-2-1-4-2-6-2-11 10-32 16-42 7-9 16-17 25-23 8-4 16-8 23-12 10-7 17-16 30-19z" class="B"></path><path d="M916 780l2-1c8 0 24 1 29 6v2l-2 2c-5 0-12-4-17-5-4-1-9-3-14-4h2zm66-18c8 1 16 3 24 5 2 1 6 1 8 3l-2 2c-1 0-3 1-5 1-9 1-18-6-25-11zm-30 12c4 0 9 2 13 3l25 10c5 2 11 4 15 7 2 1 3 2 3 4h-1c-4 1-11-1-15-2-5-2-10-6-15-9l-25-13zm32-55c9 2 20 2 28 7l3 3c-2 2-3 2-5 2-4 0-8-2-12-3-10-3-19-2-29-2-4 1-9 1-13 3-2 0-6 2-8 2l-1-1c-2 0-8 2-10 2 15-8 30-12 47-13zm15-32l5 1c2 0 2 1 3 3-1 3-2 4-5 5s-8 2-12 2c-5 1-11 3-16 5-25 9-47 26-70 41l-7 5v-1c5-6 12-12 18-17 23-19 54-40 84-44z"></path><path d="M1329 1121h0c5 0 9 2 12 5 5 5 7 14 6 21-1 9-6 16-13 21-15 12-31 9-49 6l16 21c8 12 11 25 8 39-3 12-10 22-21 29-7 4-17 6-26 4-6-2-12-7-15-13-2-4-3-11-2-15 2-4 5-7 9-9 4-1 7-2 11 0 1 1 3 3 3 5-3 2-6 4-8 6s-2 4-2 6c1 2 3 4 5 5 4 2 10 2 14 0 7-3 8-12 11-19-2-5-5-12-10-15-4-2-9-3-13-4-8-3-16-6-24-8-21-3-44 6-62 16-9 5-18 11-27 16-6 3-13 5-20 8 20 0 39-2 57 9 15 8 25 24 29 39 3 11 3 25-3 35-2 5-7 9-13 10-9 2-18-1-25-8-5-4-9-10-13-15-5-5-12-10-18-14-9-7-18-11-28-15-23-8-44-13-69-9-15 2-29 7-45 8-39 3-83-3-120-17-27-11-47-28-66-50-10-12-18-22-31-30 5 8 12 14 15 21 1 3-1 9-2 12l-15-19c-7-9-14-17-23-25l-12-9c-2-2-6-4-7-6l7-7c7-6 14-6 23-5 28 3 54 47 71 68 14 18 32 33 53 41 23 8 48 9 72 9 25 0 52-1 77-6 10-1 20-4 31-7 15-4 30-9 45-15 16-7 32-15 46-24 20-11 36-26 59-30 16-3 29 1 43 8 4 2 8 5 13 5l1-1c-2-5-5-8-9-10-21-12-45-9-67-3 5-5 11-7 18-10 14-7 28-12 45-12 5 0 11 0 17 1 2 0 4 1 6 0v-1c-5-3-10-4-16-5-20-2-45 5-61 17-4 4-7 8-11 11-13 9-41 32-56 34 2-2 4-3 6-4l11-6c8-6 17-13 24-20 8-8 14-17 21-26 16-21 35-39 64-40 7 0 13 1 20 2 12 0 21-3 33-6z" class="B"></path><path d="M1295 1152c4-1 19-2 23 0 2 0 1 1 2 2l-2 2c-1 0-3 1-4 1-6 1-15-1-20-4l1-1zm-197 111c10-1 21 1 31 4 11 3 26 9 34 18 3 3 5 6 7 10-9-3-17-8-25-14-9-6-18-10-28-12-17-3-37 2-54 6 12-7 22-10 35-12zm16-10c10-1 20-1 30 2 20 4 41 16 52 35 3 4 4 10 3 16-2 0-3-1-5-2-2-6-3-13-8-17s-9-10-14-14c-19-14-46-16-69-18 4-1 7-2 11-2z"></path><path d="M195 1104c13 1 36 1 45 12 3 3 4 7 2 11-2 6-9 12-13 17-14 18-23 42-26 64 10-14 13-33 22-49 11-17 26-28 46-33 12-3 23 1 33 7 13 8 24 22 27 38-1 3-2 7-5 10-9 11-27 6-40 5-5-1-10-1-16 0-14 1-26 7-35 18s-16 26-15 41c1 14 9 24 19 33 14 11 31 13 48 11 6-1 13-2 17-6-3-2-15-2-18-2-14-1-28-7-38-18-5-7-11-20-8-29 1-3 5-6 8-8 6-3 13-5 20-6 17-2 22 5 30 18 2 2 4 5 7 6h1c6 2 13 1 18 0 2 0 5-1 6-1 1 1 1 1 2 1 1-1 2-3 2-5 4-13-3-28-10-39 4-6 10-11 15-16 15 15 34 28 52 39 32 18 64 32 99 40 17 4 35 6 52 7 18 2 36 4 55 3 15 0 31-2 47-4 20-3 39-6 58-15 8-3 16-8 22-14 4-3 8-8 13-11 1 1 1 1 2 3-18 22-46 36-73 44-8 2-17 3-25 7h-1l-2-1c-4-1-9 0-13 0l-22 2c-15 1-30 1-45 1-19-1-38-2-56-5l-51-9c-7-1-14-3-22-3-7 0-15 1-22 2h-12c-6 1-11 3-17 5-6 1-16 1-20 6v1c5-2 11-4 16-5-8 5-19 6-24 13v3c1 1 1 1 3 1 4 0 13-6 18-8 7-3 16-6 24-7 27-6 54-2 81 1 8 1 17 2 25 4-29 6-58 15-84 29-3 2-7 4-8 8l1 1c1 0 2 1 3 1 5 0 11-4 15-7 5-3 10-6 16-8 15-7 31-12 47-16 22-4 44-3 65-2l68-1c8 0 16 0 24-1 10-2 20-5 29-8 15-6 30-12 43-21 9-6 16-12 23-19l2 1v2c-5 10-19 19-28 25-16 10-33 18-51 23-11 2-22 3-34 5-27 2-54 3-81 3-16 0-34-2-49 2-14 3-28 9-40 18-8 6-15 13-24 18-11 6-26 9-39 5-4-2-8-4-10-9-2-2-2-5-1-7 4-12 19-19 29-24 3 1 8 2 11 1 4-2 5-5 6-8v-1c-7 0-12 3-18 5l-16 6 7-7v-1c-4 0-7 0-10 2-2 1-2 1-3 3 1 2 2 3 2 5l-20 16c-2 2-6 2-9 1-2-1-4-3-4-4-1-4 1-8 3-11-7 2-14 4-21 2-8-1-12-6-17-13 7-7 14-13 20-20 5-6 13-14 19-18 10-6 24-7 36-8l1-2c-2-5-20-9-26-11-4-2-9-5-13-7-6-5-10-10-14-16-1 15-1 31-7 45-9 18-24 34-43 41-21 7-41 7-61-3-21-10-36-30-43-51-9-25-8-51-12-77-1-12-5-25-5-37 0-7 1-14 4-21 3-4 6-8 11-9z" class="B"></path><path d="M377 1301c2 0 2 0 4 1 0 2 0 3-1 5-2 2-3 3-6 4l-3-1c-1-2-1-1-1-4 2-2 4-3 7-5zm23-39v-1c2 0 4 0 6 1l-1 1c-3 2-7 2-11 3l-19 5-6 1c8-7 22-10 31-10z"></path><path d="M411 1256c10-1 22-1 31 3h-11c-8-1-16-1-24 0l-1 1c-1 0-7 1-9 1l-19 2c10-4 22-6 33-7zm-197-131l2-1c1 1 1 1 2 3 1 3 0 6 0 9-3 12-7 24-12 34-1 2 0 1-1 2 0-5 2-10 3-15 1-9 2-19 4-27 0-2 1-4 2-5zm46 123c6-1 14 7 19 10 4 3 8 5 12 7 5 3 10 4 14 6l-1 1c-8 1-19-3-27-7-5-3-16-9-19-15l2-2zm19-104c2 0 3 0 5 1-1 2-3 4-6 5-5 3-11 4-16 7-10 4-19 10-28 16l-3 3h0l1-3c11-14 30-26 47-29zm-4 93h2l3 3c3 3 6 6 10 9 7 6 16 8 26 6 5 0 11-3 14-7l1-2c1 1 0 3 0 4-2 4-4 7-7 10-5 3-14 3-20 1-11-2-22-8-27-17-2-3-3-4-2-7zm-73-111h4c1 1 2 1 2 2 5 10-4 20-6 30-1 6 2 13 0 19l-2 2c-1-1-1-4-1-5-2-8-3-15-3-23 0-7 1-19 6-25zm90 33l7 1c2 0 3 1 3 2-4 7-28 3-36 5-24 7-41 28-53 49l-4 8c3-14 9-25 19-36 16-18 40-27 64-29z"></path><path d="M834 1021c7 2 13 6 20 9 8 4 18 6 27 9 5 1 10 3 15 4h4c-7 1-14-1-21-2-10-2-20-2-30-5-8-3-16-8-25-9 9 5 18 9 28 12-11-1-21-2-31-5-1-1-1-1-3-1 4 3 11 5 15 6 13 3 27 5 40 6 10 0 20 0 29 2-9 4-21 5-31 6-21 1-41 1-60-6-15-5-30-12-45-14-10-1-17 2-27 3-8 1-16-4-22-10 2-1 5-3 7-4 3-3 4-8 4-12 0-13-16-24-25-33 0-1-4-4-4-5 0 0 4-6 5-7 3-5 5-12 5-18 1-22-1-44-11-63-4-8-9-15-13-23s-8-16-12-23c-6-9-13-17-20-25 3-1 6-3 9-6 8-7 8-19 9-29 1-4 1-9 3-13 5-10 21-19 31-23 6-3 27-11 33-8l1 1v-3c0-7 1-15 1-22 2-14-1-29-10-41-10-14-23-32-41-35-10-2-20 0-28 6-9 7-13 17-15 28-2 10-1 23 5 31 5 7 14 12 22 13 18 1 21-15 31-24 6-5 13-7 20-6 2 0 3 0 4 2-5 4-11 7-15 13-4 5-6 10-9 15-2 5-3 9-7 12-6 5-16 5-23 4-12-2-24-9-31-19-10-13-14-29-12-45 2-15 10-28 23-37s30-12 46-9c28 5 46 32 61 54l-2-22c-1-13-1-26-5-39-3-11-9-22-16-32-3-4-10-13-15-14v1c-1 0-2 2-2 3 2 3 9 9 12 12s5 7 7 11c12 19 12 40 15 62-3-5-7-9-10-14-2-4-3-8-5-12-2-3-4-5-6-8l-6-12 4 13c-9-3-15-11-20-19-1 1 1 6 1 7l-19-5c-5-15-5-29-3-44v-2c3-26 18-46 41-59 13-7 26-12 38-21s19-19 27-32c0 18 3 40 11 56 4 8 9 15 13 22 6 11 10 25 11 38 3 30-11 56-27 81-4 7-8 14-13 20-8-8-15-19-17-30-2-9-2-18-1-27 0-25 3-50 8-74 3-15 10-35 6-51l-1 1c-3 8-4 18-7 27-4 17-9 35-12 53-4 25-4 51-1 76 1 5 1 13 3 17 2 3 4 1 6 2 5 7 9 16 12 23l26 58c2 4 17 27 17 28s-1 4-2 5c0 5-1 9-1 14-2 25 1 48 9 72 5 16 13 32 21 48 14 29 27 57 54 77 4 3 8 6 13 8 16 8 29 7 45 1-4 5-7 8-13 10-15 6-33 2-47-4-42-21-70-92-84-134-1 3 1 6 2 9 6 22 15 44 26 64 15 28 36 60 68 69 15 5 31 4 45-4-3 3-6 6-9 8-11 7-29 9-42 7-9-2-18-4-26-8-34-17-50-59-71-90 1 6 5 12 8 17 9 17 18 35 31 50 6 6 14 13 21 18 12 9 30 17 45 18 8 0 16-1 24-2-12 7-22 10-36 9-31-2-53-19-73-42-8-7-14-14-21-23-3-4-7-8-10-13-2-5-4-10-7-15-9-13-19-25-32-35v1c17 18 33 38 43 61-3-2-5-6-8-9l-11-16c-7-8-13-16-21-23-1-1-3-4-5-4 1 4 7 9 10 12l16 22c7 8 11 19 18 27l3 5 1 3c1 2 1 3 2 4l1 1c6 17 27 33 44 40 13 7 28 11 43 12 6 0 15-1 21 1-10 1-19 3-29 2-22-2-45-13-63-25l-21-17c3 3 6 7 9 10v7c-2 0-2 0-3 1 1 1 2 1 4 2l2 1c1 1 2 2 4 2l1 1c1 0 2 0 3 1l1-1z" class="B"></path><path d="M783 713c2 5 4 9 5 14h-1c-1-2-2-3-2-5-1 2-1 4-1 6l-1 1c0 4 1 7 0 11l-1-6c0-7-1-15 1-21z" class="C"></path><path d="M796 505h1c1 1 0 4-1 5-2 7-6 13-9 20h-1v-1c1-7 5-19 10-24zm-30-2c1 1 1 1 2 1 4 10 4 20 1 30l-1 1v-1c-1-2 0-5-1-8-1-5-4-15-2-20 0-1 1-2 1-3zm17 210c-1-6-2-12-2-18 8 16 11 33 13 51l-6-19c-1-5-3-9-5-14zm-73 190c4 11 3 23 4 35 1 16 3 32 8 47l-1-1c-7-19-10-37-10-57-1-8 0-16-1-23v-1zm34-370l3-1c2 3 3 8 4 11 4 13 4 24 4 36-3-8-4-17-7-25-1-5-4-10-5-15 0-2 0-4 1-6zm38 201l1 6c-1 18-1 38 0 57 1 12 3 24 2 37-2-6-2-12-3-18-3-28-2-54 0-82zm29-203h2l1 3c-1 2-1 4-2 5-4 5-9 9-13 13-7 8-12 17-17 26-1 2 0 1-1 2 5-17 16-37 30-49zm-84 385h1c3 7 2 16 3 23 0 6 1 12 2 17 2 7 4 13 6 19 1 4 4 10 4 15-8-17-14-32-16-51-1-7-2-16 0-23zm89-353c1-1 0-1 2 0v1c1 3 0 5-1 6-4 5-9 9-13 13-5 7-10 13-15 20l-2 2v-2c5-15 16-30 29-40zm6 29h1v2c0 2 1 5-1 7-3 4-10 7-13 11-7 6-13 13-19 20-1 0 0 0-1-1 4-11 12-20 21-29 3-3 7-8 12-10z"></path><path d="M801 935c2-1 0-3 2-4l12 17 4 5 3 6 3 4c1 2 3 3 4 5l3 5c2 2 3 5 5 7l2 3v1 2c-8-7-14-14-21-23-3-4-7-8-10-13-2-5-4-10-7-15z" class="C"></path><path d="M832 919c6 8 11 16 16 24 13 22 28 45 49 60l-5-2c-26-12-50-56-60-82zm-61-227c3 17 1 32 1 49-1 29-2 60 3 89 2 9 4 18 7 27 2 6 4 12 7 18 0 2 2 5 1 7-13-29-21-62-23-94 0-18 1-36 1-54l3-42zm-81 145c4 2 14 23 16 28 2 4 5 8 8 12 16 21 37 39 55 59 6 6 11 14 16 21 2 1 6 6 8 6-5-12-10-24-19-35h0l12 14c5 7 9 14 14 20 2 3 7 7 8 9-1 1-2 1-3 1-3 1-8 1-11 1-13-1-30-5-42-11-17-8-16-27-16-43v-9c-1-1-3-4-4-5-6-7-13-13-18-21-5-6-7-13-11-20-4-8-10-17-13-27zm57-133c-1-13-3-25-9-36h1l9 20c2 5 2 11 2 16l2 36 2 22c0 3-1 18 0 19 0 1 1 1 1 1 2-1 3-1 4-3 1-5 0-14 0-19l-1-37c0-8 0-16 1-24 4 11 4 22 4 34 0 21-3 44-1 65 2 25 8 49 17 72 2 7 6 14 8 22-5-6-7-15-10-22-9-23-17-45-19-70 0-2 1-5-1-6l-3 1c-1 7 0 15 1 21 2 16 6 32 13 46 2 5 5 9 8 14 1 2 3 5 3 7-2-2-4-5-6-8-11-18-18-38-21-59-1-5-1-9-1-13v-6c0-1-1-1-1-1h-6c-1 2 0 4 0 6 0 8 1 15 2 22 1 11 4 23 9 33 2 6 7 11 10 17 1 2 2 4 2 6-14-1-26-2-36-14-13-15-18-33-17-52l4-32c-9 15-11 43-7 60 4 12 11 24 17 35-6-5-10-14-14-22-3-7-7-16-7-23-2-16 1-29 6-44 1-2 1-3 0-4-4 2-8 15-9 20-2 6-3 11-7 16-2-2 0-8 0-11 4-19 14-43 31-55 5-4 11-6 17-8-5 6-16 14-17 23 0 3 3 6 6 7 2 2 4 4 6 5 2-8 4-17 5-26v-26c0-4 1-9 1-13-1-1-1-5-1-6l1-1c0-2 0-3 1-5z"></path><path d="M746 716c-1-1-1-5-1-6l1-1c0-2 0-3 1-5l4 50c-1-1-2-2-2-3-1-5 0-11 0-16 0 6 1 14-2 19 2-12 0-26-1-38zm-25 82h1c1 2 1 2 1 5 0 13-3 27 1 39 2 5 6 11 7 16h-1c-3-3-6-7-7-11-6-13-7-36-2-49z" class="C"></path><path d="M747 754c3-5 2-13 2-19 0 5-1 11 0 16 0 1 1 2 2 3h0c2 8 4 21-1 28h-6c-3-6 2-21 3-28zm52-389c12-1 24 0 36 0 43 3 85 12 126 24 21 7 44 14 64 23l3 237-28-1c2-45 3-91-19-132-24-44-66-78-113-92-41-12-95-9-132 11-65 36-98 104-118 171-11 40-16 80-19 120-6 83-1 176 40 250 27 49 74 88 129 104 51 14 107 7 153-19 25-14 48-35 62-60 15-28 23-59 29-90l4-24c0-5 1-11 3-15l26-1c0 18-3 36-6 54-9 49-21 98-54 136-43 49-102 73-166 77-13 0-26 0-40-1-64-4-125-24-174-68-52-47-84-114-99-182-6-31-9-63-11-95-7-119 23-243 104-334 41-46 96-77 158-89 14-2 28-3 42-4z" class="B"></path><path d="M800 399h8c18-1 36 1 54 6 32 8 61 22 85 44 7 6 15 13 20 21-15-13-29-26-46-36-45-28-101-38-152-25-57 14-101 56-131 105-24 41-37 87-45 134-3 15-4 32-8 47 0-15 2-30 4-45 6-47 20-97 45-138 8-13 18-26 28-38 27-32 60-59 102-69 12-3 24-5 36-6z"></path><path d="M1091 202c6 0 10 0 14 4 8 6 12 17 13 26 0 7-1 14-1 21l5-11c1-4 4-7 7-8 4-1 10-2 14 1 0 0 1 0 1 1 3 3 2 8 1 13-1 6-5 13-7 20-5 18-2 41 5 58 4 7 8 13 13 19 7 9 14 17 21 27 20 30 38 59 53 92 9 19 18 40 22 61 3 11 3 23 5 34 1-5 1-11 1-17 0-13-1-25-3-38-4-21-11-41-16-61-3-14-4-27-4-41 1-6 1-11 3-17 2-8 8-15 12-23-6 5-11 10-14 17-2 4-3 8-5 12 0-14 1-32 7-45 2-3 5-6 7-9 3-3 4-7 3-11-1-2-2-3-4-3s-5 1-6 3c-5 5-7 16-9 22-8 35 0 72 8 106 2 11 7 21 7 32l-25-55-13-29-17-34c-3-8-8-17-8-26-1-11 1-22 8-31 2 0 3 0 5 1 7 2 10 7 13 13 0-4 0-10 1-14 2-9 9-18 16-22 8-4 17-4 25-1 9 2 22 9 26 17 2 3 2 7 1 11 0 10-7 15-14 21-2 1-5 3-7 5-2 4 0 12-1 17-1 2-1 2 0 3 2 2 2 2 5 3 3-1 5-5 8-7 5 1 10 3 15 3 4 1 12-1 16 1 6 15-14 20-22 28-6 7-11 17-13 25-4 15-5 31-3 47 2 9 3 17 8 26 4-10 6-20 8-31 3-14 10-31 20-41 7-6 16-11 25-10 5 0 10 2 13 6 4 5 5 10 4 17-1 11-7 25-16 33-5 4-11 6-16 11 5 2 16 2 20 7 1 2 2 4 2 6 0 4-1 9-1 13 0 7 2 15 1 23v1c-3 20-19 21-31 33-13 13-17 30-16 48 0 3-1 8 2 10 4-2 9-23 13-29 6-10 17-16 29-18 5-1 9-2 14 1 6 4 8 12 8 19 2 15 3 36-11 46-5 3-10 4-13 9v1l3 1c7 2 14 3 18 9 5 9-6 25-12 32-8 8-18 13-23 23-8 15-13 31-13 47-1 11 0 22-1 33-1 8-4 16-6 23 6-7 13-17 13-27 0-8-2-16-1-25 2-12 7-28 18-36 7-5 18-9 27-7 5 1 9 3 12 7 3 5 3 9 2 15-3 16-12 25-25 34 3 2 7 5 9 8 2 6 0 12-4 17-3 4-9 7-13 10l-28 24c-7 5-15 11-20 17-2 4-4 8-5 11 11-3 17-10 26-17 7-7 15-12 24-16 7-2 18-5 25-2 5 3 8 8 10 13s1 12-1 18c-4 7-8 10-15 13-9 3-17 1-26 2-16 2-32 7-46 13-40 17-70 54-90 92l-10 21c-2 3-4 7-6 9-3 3-8 5-12 7s-7 4-11 7c2-7 7-14 10-21l12-27c5-9 10-18 14-28l7-23c4-14 9-30 2-45-3-7-11-12-14-19v-1c-2-5-1-9-1-14 0-14-13-12-22-15-3-1-5-3-8-5-11-12-15-24-15-40 18-6 30-8 48-1 21 9 37 26 45 48 7 18 9 38 3 57-2 8-6 16-9 23 5-4 8-10 12-15 7-9 14-18 21-28 16-26 20-58 20-88 0-22-1-42-4-63-1-11-2-23-5-34-2 16 1 31 2 47 1 22-2 40-17 57l-2 2c-1-2 1-5 2-7 3-5 5-10 7-16 2-5 2-11 3-17-5 12-8 24-15 35-4 5-9 10-14 15-2-1-5-2-7-3 2-1 5-1 7-3 14-11 20-28 22-45l-6 16c-4 9-10 20-19 26-2 2-6 3-9 5-9-4-16-10-24-16 7 1 14 2 21 0 7-1 14-5 18-11 5-10 7-25 4-36-3-12-11-24-21-30-5-3-13-5-19-4-3 1-5 3-8 4-6 3-12 5-17 10-4 2-6 6-9 9-7 8-15 14-26 16-10 3-26 3-35-3-3-2-4-4-4-7 2-7 8-9 13-14l5-5c2-1 6-1 8-2 12-3 18-4 26-13-5 0-10 1-15 3-6 3-11 10-17 9l-1-3h-2c-3 1-5 4-7 6-4 5-12 9-19 10-8 0-16-3-22-9-5-4-6-11-7-17-1-3-2-6-2-9 0-4 2-10 4-14 2-6 4-13 8-18 4-7 10-14 16-19 16-15 42-22 64-21 34 2 56 20 71 50 3 7 6 17 11 23-1-8-1-16-2-24-3-13-7-25-11-38-9-32-20-60-48-81-8-6-16-10-26-13-6-2-13-4-20-4-12-1-24 0-35-4-9-4-16-10-24-16l-23-19c4-6 6-15 11-21 6-8 13-10 22-8 4 1 9 2 14 2l1-2c-3-5-8-10-12-15-5-8-2-15 0-23 2-5 3-10 4-16h7c12 1 27 9 36 18 3 4 6 8 10 12 2 0 3 0 5-1 2-5-4-9-4-14 0-2 1-3 3-4 5-2 17-1 22 2 7 4 12 16 17 23 10 15 21 28 29 45 4 10 7 20 11 30l12 22c4 10 8 20 10 30 6 20 9 40 14 60l-4-55c-1-14-1-29-4-44-3-16-9-31-16-46-6-14-13-29-21-42-12-19-28-36-43-53-6-6-10-15-17-21-21-23-53-35-84-36-22-1-45 1-61 17-5 5-9 12-14 17-4 4-10 9-16 8-3-1-5-4-7-6-4-6-7-10-6-17 1-12 17-20 25-26-6 1-12 3-18 3-4 1-9 0-13-1l-16-1c1-3 1-7 3-10 4-9 15-15 24-18s20-4 30-5c24-1 50 2 73 11 15 5 28 12 42 19-11-9-24-17-37-24-29-18-61-31-94-39-8-2-18-5-26-4-5 1-11 4-15 6-18 9-33 18-46 33-2 2-2 3-2 6l2 1c5-1 9-10 12-14 12-13 31-24 49-25 10-1 19 1 28 4 14 3 28 8 41 14 6 2 12 4 16 8-23-6-49-15-73-12l-1 1h-6c-13 3-24 9-33 19-7 8-11 18-17 26-4 6-10 11-17 12-4 1-9 0-12-3-7-5-11-15-12-23-2-13 3-23 15-29 3-1 7-2 9-5-1-1-2-1-3-1-6-1-11-2-15-6-3-3-6-8-6-12 0-8 2-14 7-19 8-9 18-13 29-13 14-1 28 4 41 8l48 17c14 5 28 10 42 16 20 10 40 20 58 33 17 11 32 27 47 41h1c-7-8-12-17-18-25-12-15-24-28-33-45-7-15-11-30-6-46 3-8 5-11 12-15z" class="B"></path><path d="M1102 507c7-1 16 0 23 2h-3c-6 0-16 2-22 0l2-2zm79 335h2c3 1 7 2 9 5 2 2 2 3 2 6h-2c-4-2-10-6-11-11zm-5-194h2c3 2 6 4 8 8 1 2 1 2 0 4-1 0-2 0-3-1-3-1-7-6-8-9l1-2zm143 91c1 0 0 0 2 1-2 7-8 15-11 22h-1 0v-1c0-7 4-17 10-22zm-191-486l2-1c1 3-1 9-2 12-1 6-2 12-2 18-1-3-2-5-2-8-1-7 0-15 4-21zm31 561s1 0 1-1c5 0 14 2 18 4 1 2 1 2 1 4h-2c-5 0-14-2-18-5v-2zm-11-163c4-1 8-1 11 1 2 2 6 5 7 7-2 1-4 1-6 0-5-1-10-2-13-6l1-2zM893 240c3 0 6 0 9 1 2 0 4 1 5 3-2 1-4 2-6 2l-10 1c-2 0-3 0-5-2 2-3 4-3 7-5zm348 442l2 1c4 5 4 17 4 24l-1 1c-2-4-4-9-5-13s-2-9 0-13zm-95 23h1l-2 4c-4 4-9 10-15 11-2-2-2-2-2-4 2-4 13-9 18-11zm-49-211h3c2 1 2 0 4 2l-2 2c-3 4-8 4-13 5-3-1-5-1-7-2v-1c3-4 10-5 15-6zm161 90c2 3 2 9 2 13l2 46h-1c-2-7-2-14-2-21-1-12-3-26-1-38zm-167 79l4-1v1c-6 6-13 11-21 13-3 0-3-1-5-2l1-2c6-5 13-7 21-9zM929 249h6v1c-10 0-23 4-31 10-3 2-5 5-8 7-1 1 0 1-2 1s-2 0-3-1v-2c9-10 25-15 38-16zm170 212h5c3 0 4 1 6 3l-1 1c-4 4-8 4-13 5h-6c-2 0-4 0-5-2 3-4 9-5 14-7zm105-91h3c3 2 4 8 5 12l8 32c-5-9-9-19-12-29-2-4-4-10-4-15zm-80 261c5-1 11 0 15 2 3 1 9 4 11 7v1h-3-4c-6-1-18-4-21-8l2-2zm148 39h1c2 3 1 8 1 11 0 11 0 22-2 33l-2-20c-1-9-3-17 2-24zm-132-169c7 0 14-1 20 4l-1 2c-2 1-5 1-8 2-8-1-15-1-23-5l12-3zm-14-25c4-1 6-1 9 2 0 1 1 1 0 2-4 5-12 5-18 5h-4c-2 0-5 0-6-2 6-4 11-6 19-7zm-26 166c5 1 10 1 14 4l-1 2c-6 3-15 3-22 3l-16 1c8-5 16-8 25-10zm51-207h1c2 2 4 6 5 8 4 9 8 18 9 28-1 0-2 0-2-1-9-10-14-21-13-35zm184 413c2 0 4 0 6 1l-1 2c-6 5-16 6-23 8l-21 7-5 2-1-1c13-9 30-15 45-19zm-180-221h1c8-2 18 3 24 7 14 10 26 26 29 42-2 0-5-9-6-11-3-6-6-11-11-16-8-9-16-10-27-15-3-2-7-4-10-7zm-64-195c5 0 9 0 13 1 16 4 32 15 41 29l-54-30zm-72-117c6-1 12-1 19 0-1 1-7 1-9 1-5 0-10 2-15 3-11 3-22 9-31 17-2 3-5 7-9 8-2-1-2 0-3-2 0-2 1-3 2-4 10-13 30-21 46-23zm82-75h2l2 4c3 5 4 11 6 17l12 35c1 3 5 9 5 12l-1 1c-8-19-20-37-26-56-1-5-2-9 0-13zm224 346c1 0 1 0 3 1 0 4-1 5-3 7-15 14-24 28-33 45l-2 2c0-5 2-9 3-13 5-12 12-23 21-32 3-4 6-8 11-10z"></path><path d="M1263 376h5v1c-1 2-2 4-4 6-17 21-19 43-16 70v1l-1-1c-4-16-6-30-1-46 2-10 8-26 17-31zm44 67c2-1 2-1 4 0l1 2c-2 6-10 13-15 17 2 2 3 1 5 2 1 0 2 1 3 2 0 2 1 3 0 6-2 2-2 2-5 3-3-2-4-5-5-8-2 1-3 4-4 6-6 10-11 21-15 31l-7 17c0-7 2-14 4-20 5-17 18-50 34-58zm22 307h3c1 0 2 1 3 2 0 2 0 4-1 5-2 4-6 8-8 12-5 7-8 14-10 22l4-4c3-3 6-5 10-7-5 7-12 13-16 20-7 10-12 20-19 30-2 3-9 12-13 13 1-2 3-4 5-6 2-3 5-6 7-9 3-5 6-11 9-16 9-20 11-46 26-62zm-326-450c7-1 14 1 21 2 23 2 44 6 65 15 12 5 23 12 34 18v1l-11-5c-29-14-61-24-93-25-9 0-17 1-26 1-2 0-5 0-7-2 3-4 12-5 17-5zm326 306c3 0 3 0 5 2 1 9-9 11-14 16-3 2-5 5-7 8l6 2c2 1 3 2 3 5 0 2-1 3-2 5-1 0-2 1-3 0-2 0-3-1-4-2l-2-2-1-1c-10 10-14 26-19 39-2 5-3 11-6 16 2-14 4-27 9-40 5-12 12-23 20-33 4-6 9-12 15-15zm-173-118h2c5 2 9 6 14 10 9 9 17 18 24 29 21 29 34 57 41 92 2 9 3 17 4 26-2-8-3-17-5-25-3-10-7-21-11-31-7-15-14-30-23-43-7-12-15-24-25-35l-10-11c-3-3-10-8-11-12zm-10 307c12 1 24 4 34 10 16 9 28 25 32 43 7 24 3 55-10 76l-1 2h-1c4-13 7-26 9-40 0-11 1-24-2-35-4-22-19-40-41-47-6-2-16-2-21-7l1-2zm158-308c2 0 2-1 4 1-2 6-9 13-12 18-11 16-20 39-21 58 6-14 11-27 20-39 3-3 5-6 9-6l1 1c-1 5-5 9-8 13l-11 14c-3 6-7 13-10 20-4 12-4 28-5 41-6-23 0-56 7-79 5-13 13-35 26-42zm-166 181c20-2 42 2 59 11 11 5 24 13 31 23 2 4 3 7 4 11-14-19-31-31-54-36-9-2-19-3-28-3-19-1-45 1-60 13-3 2-4 6-7 9-2 2-5 1-8 1-1-1-3-3-3-5s1-3 3-4c3-3 7-4 11-6 17-9 32-13 52-14zm182-8c2 0 1-1 3 0 0 8-8 12-14 16-2 3-5 5-7 8-5 8-10 17-12 26-3 8-3 15-4 23-3 26 0 53-5 80-1 6-2 12-4 18-3 10-6 19-13 28l5-14c-2 1-5 8-6 10-2 5-5 9-8 13 3-7 7-13 10-19 5-12 8-26 10-39 6-35 0-75 14-109 6-14 16-35 31-41z"></path><path d="M550 195h3c5 3 10 12 11 18 3 8 1 17-4 25-9 15-25 25-37 37-10 11-20 22-29 34-4 6-8 14-13 20-3 5-8 8-12 13-7 6-13 14-17 22 6-6 11-13 16-19l19-19c20-21 38-40 64-53 22-11 47-16 67-31 7-5 13-12 18-19 4-7 5-18 11-23 3-2 8-3 11-2 4 1 6 3 8 6 4 7 5 17 3 25-4 17-21 23-35 31 13-1 25-4 36-10 9-4 17-11 24-17 5-5 11-11 17-14 3-2 7-3 11-3 6 0 11 2 15 6 5 5 10 11 9 18 0 5-2 8-5 11-6 6-18 4-26 3-1 1-2 3-3 4-7 13-3 31 1 44 1-3-1-7-1-10-2-12-1-23 5-33l9 2c-4 9-7 18-9 27 4-5 7-12 11-18 2-4 5-7 8-10 13 0 24 3 36 8 17 7 33 14 52 6 9-4 12-8 15-17 4 8 5 14 5 22-2 16-16 36-28 46-17 14-36 21-58 19-17-2-33-9-44-22-7-9-10-19-13-30-4-14-6-26-5-40-10 7-20 14-32 17-13 3-27 0-40 0-11-1-22-1-33 1-29 5-59 25-82 44l10-5c10-5 20-6 30-5 27 0 59 9 81 25 9 6 14 17 24 21l1-1v-2c-1-7-9-13-14-16-27-20-60-30-93-30-7 0-14 0-21 1h-1c22-14 44-25 70-27 25-2 57-2 77 15 3 2 6 6 7 10 0 4-2 7-5 10-2 2-7 1-10 2-12 1-23 1-35 1 15 5 31 14 41 28 3 5 5 9 4 15-2 8-8 15-15 19-5 4-12 6-18 5-12-3-10-10-12-19-1-3-3-6-5-8-11-17-27-26-46-29-24-5-52-8-73 7-6 3-11 8-16 11-12 9-24 16-34 27-11 11-17 25-24 38l-14 22c-7 11-17 22-23 34-4 7-6 15-8 22 7-13 16-25 26-36 7-7 15-13 22-19 15-13 29-27 41-43v6c1 1 1 1 2 1 4-2 8-5 9-9v-2c-4 0-6 0-9 2l-1 1v-1c3-8 6-16 12-23 10-10 28-19 42-19 7 0 14 4 18 8 3 4 4 7 4 11 0 14-13 17-23 23-3 2-6 5-9 7 14-1 27-7 42-7 11-1 24 1 33 9 3 4 5 8 5 13 0 8-3 14-9 20-18 16-51 14-74 16-6 0-18 0-22 5 0 0 0 1 1 1 0 0 8 1 10 1 8 0 16 2 23 5 6 3 13 7 16 14 1 4 0 8-2 12-3 6-9 9-15 11-8 3-15 4-23 4-14 0-28-5-42-6-9-1-19 0-27 3-11 3-19 9-28 15-4 3-8 6-11 10-2 2-3 5-4 8 5-3 10-6 15-8 15-8 29-11 46-8 14 2 27 10 36 21 4 7 6 14 5 21-1 4-3 6-4 9-1 2-2 5-3 7-1 1-3 2-4 3-11 7-18 3-30 0-4 0-11-1-14 1v1l17 6c7 3 16 10 19 18 1 3 0 7-2 10s-6 6-9 7c-17 6-30-7-45-11-11-3-22-3-33 0-8 2-14 6-20 10-21 13-37 31-49 52-4 8-8 16-11 24-7 26-8 57-6 84 0 5 0 10 2 15 0-15 0-30 3-44 6-36 23-72 53-93 20-14 46-24 71-19 15 2 28 9 36 22 13 18 12 41 7 62l-11-2c-16-4-23-20-35-29-7-6-17-8-23-13-4-3-6-7-8-10 18-3 45 0 57 16 4 5 7 17 12 19l3-2v-3c0-9-9-18-16-24-13-10-33-14-49-12-10 1-21 4-31 7-6 2-13 3-18 7s-9 9-12 14c6-4 11-8 18-12 8-5 17-7 27-7 1 0 3 1 4 2s1 3 1 4c0 2-1 4-1 6-1 4 0 9 0 13-1 16-9 32-22 42-7 5-15 10-21 16-18 15-28 40-29 63-1 12-1 24 2 36 1 5 2 10 6 13 2 0 2-4 2-6 3-18 1-39 13-53 3-3 5-6 9-6 2 1 4 1 6 3 6 7 5 17 4 26 4-6 5-15 10-21 3-6 9-11 16-13 5 0 9-1 13 2 2 2 3 3 3 6-1 4-2 7-2 11 0 2 1 8-1 10-2 4-8 5-12 8-13 9-25 19-33 32-14 24-13 53-6 79 1-26-3-51 11-75 5-9 13-17 21-24 1-1 4-4 5-4 2 0 3 1 5 1 4-2 5-5 7-8s5-4 8-5h1c6-1 12-1 18-1-6 6-13 14-20 18-10 6-20 7-29 14 6-1 14-3 19 1 3 2 5 6 5 10 1 16-17 24-26 34-12 13-16 33-15 51 2 38 32 64 58 87l29 28c10 10 16 22 27 31-1-6-2-11-5-17-9-18-26-34-40-49-8-9-16-19-23-30-6-8-11-16-14-26s-5-28 1-39c2-3 5-6 8-7h1c4-1 9 0 14 1l-8-14c-5-8-4-18-2-27 4-13 17-23 29-29 7-4 16-5 24-2 6 2 10 5 12 11 1 2 2 5 2 6 1 4-3 12-5 15-1 4-4 12-2 16 2 0 4 1 6 3 6 7 7 21 6 30v1c-1 9-4 17-6 25 2-4 4-8 7-11 2-2 5-3 7-3 7 0 10 9 12 15 4 9 7 18 9 28 4 18 4 38 6 56 2 14 3 27 7 41 3 13 9 29 18 40-3-7-5-14-6-21-2-15-1-31 9-43 9 3 20 10 26 17 2 4 3 7 5 10 1 3 4 4 6 6 4 3 8 7 10 12 7 13 5 25 7 39 2 7 5 15 8 21 8 15 24 27 40 32 20 5 38 4 56-7 2 2 4 4 5 6-8 4-15 9-24 11-21 5-47 1-65-11-26-16-46-45-51-75-1-8 1-18-1-25 0-3-2-6-4-8-2 2-3 4-3 6-2 8-1 17 1 26 5 23 14 42 27 62l-20-15c-43-38-75-90-95-143-3-9-8-19-9-28-1-3 0-7 1-11l2-23c1-6 3-13 3-19-1-2-1-3-3-5-3 5-4 12-4 18l-1 36c-8-26-14-53-15-81v-19c0-5 3-15 2-20-1-1-2-1-3-1-5 5-5 35-5 44 0 11 2 23 3 34 2 11 3 23 6 34 5 18 11 35 18 52 18 48 43 94 80 130 38 36 92 65 146 54 4-1 9-2 13-3 5-2 9-4 13-6 2-1 4-2 6-2s2 2 4 3h1c2 1 2 2 3 4 0 1-1 2-1 3-4 4-9 8-13 10-10 7-19 10-31 13-1 0-2 1-3 1-20 1-40-4-58-10-33-12-62-31-89-54-26-24-49-51-74-76-34-35-72-70-97-112-2-5-4-10-7-15-2-4-4-7-6-11-5-12-7-25-10-37l-6-31c-1-6-1-18-6-22l-1 1c-1 7 1 16 2 23 5 24 14 46 21 69-15-25-26-54-35-82-10-31-19-61-22-94-1-13-1-26-1-38 0-9 0-18-2-27-4 29-5 57 0 85 5 36 15 72 29 106 4 10 9 21 14 32 14 28 33 56 54 80l33 35 53 56c27 26 52 56 82 78 35 26 76 45 120 45 9 0 18-2 27-3-20 14-48 14-71 8-30-8-61-24-86-43-10-8-20-17-29-26l-52-46-38-38c-22-20-41-40-68-53-29-14-63-13-95-15l-56-5c19 14 68 11 92 14 12 1 24 4 35 7 10 4 18 7 27 14-6-1-11-2-17-2-10 0-22 4-32 8-5 2-11 5-17 5-1-1-2-1-4-1-6 0-19 2-23 6l2 1c7 4 19 0 26-1 10-1 19-3 29-3 17-1 35 2 52 4-6-3-12-3-18-4-15-2-29-3-44-3l15-6c9-1 17-3 26-2 2 0 5 0 8 1 5 3 9 7 14 10 10 8 20 15 29 25l-30-10c-12-3-24-2-36 1-4 1-9 2-12 4-1 1-2 1-2 3 1 1 2 2 3 2 4-1 7-2 10-3 9-3 18-5 28-4h1c13 2 29 7 41 14 10 6 18 15 27 24l31 28c-14-5-28-11-42-14-11-4-23-5-35-6-3-1-5-1-7 1 0 1 0 2 1 3 3 3 11 2 16 2 13 0 26 3 39 7 10 3 21 6 31 11 13 8 26 20 37 31-32-17-63-34-100-35h-15c-2 1-1 0-2 2 6 7 15 11 24 8 3-1 7-4 10-3 29 6 60 14 84 31 9 6 17 14 27 21 8 5 20 9 27 17-24-6-50-18-75-13-13 2-25 7-37 10-4 1-9 2-12 0v-1c0-3 3-5 5-7 6-7 12-11 21-14 2-1 5-2 7-4 1-1 1-2 1-3-10-5-40 9-50 12-4 1-13 3-17 0-2-1-4-4-5-7-2-14 12-16 18-24-1-1-1-1-3-1-4 0-8 2-12 3-8 2-17 3-25 1-6-1-16-4-19-10-4-5-3-17-1-23 2-10 8-22 17-28s21-1 30 2l21 5c-7-7-13-12-21-17-16-9-37-12-55-7-5 1-11 4-16 5-6 2-13 3-18-1-2-1-4-3-4-5-2-8 8-16 12-22-4 1-8 3-12 5-10 6-19 18-31 19-7 0-23-2-28-7-6-6-9-21-8-29 1-12 15-16 23-23-2-1-6-1-9-2-4 0-9-1-14 0-7 0-14 3-21 4-9 1-21 1-28-5-7-5-11-14-12-22-1-7 1-14 6-20 8-10 28-10 40-11 9 0 15-6 24-7 13 0 24 4 36 9 6 2 11 5 17 5 3 0 6 1 8-1v-2l-17-13c-13-8-32-14-47-10h-1c-9 2-17 6-26 7-12 0-24-1-33-10-8-7-13-18-13-28 0-5 1-7 4-10 9-9 22-10 34-10 22 0 40 5 60 15 13 6 27 14 36 26 7 9 12 23 21 31 2 0 3 1 5-1 0-5-3-11-5-16l-7-15-20-49c-7-21-13-42-17-63-6-26-10-51-12-77l-4-71c-2-18-4-36-12-53-9-21-24-40-45-48-6-3-21-7-27-5 1 2 2 4 4 5 3 2 8 2 12 3 7 2 14 4 20 8 17 11 29 30 35 49 7 23 9 49 11 73 2 36 4 71 12 106 7 29 16 59 27 88l14 35c4 9 8 18 10 27-6-10-10-20-17-29-13-18-31-29-52-35-10-3-20-4-30-7-7-2-17-5-23-11-6-5-11-13-12-21 0-7 3-14 8-19s12-8 19-7c19 0 42 17 55 31 5 5 10 11 14 16l-3-10c-9-21-28-44-51-49-9-2-18-1-27-5-10-4-18-13-22-23-3-7-4-16 0-23 2-4 5-7 10-9 10-3 22 3 30 8 4 2 7 5 10 7 1-2 0-4-1-6-7-13-23-17-34-25-4-2-9-6-10-10-1-3-1-8 0-10 4-7 11-10 17-12h1-2c-10-3-20-6-26-16-3-5-5-12-3-17 1-4 4-7 7-8 7-3 17 0 23 2 9 4 15 10 21 18 21 25 24 58 30 89 4 19 9 39 16 58h0c-2-14-6-27-9-41-6-32-8-67-22-97-7-15-18-33-33-41-3-1-8-2-12-4-11-4-19-12-24-23-2-4-4-10-2-14 4-8 16-11 23-14-7-2-15-4-21-8-5-3-10-10-12-16-1-6 0-18 3-22 4-5 15-6 20-6 30-2 58 16 73 41 2 5 4 9 6 14 1 2 2 5 4 6 1-1 1-1 1-3 1-4 0-9-1-13-2-11-6-21-12-31-3-6-8-11-12-17-2-3-3-6-2-9 1-2 2-4 4-6 2 1 3 2 5 3 15 11 20 33 23 50v-2c2-15-2-33-11-45-3-5-7-9-11-13 1-6 2-11 1-17 0-9-4-20-2-29 1-2 2-4 4-5s5-1 7-1c9 3 15 21 20 29v-14c-2-19-10-40-26-52-14-13-35-17-53-7-7 4-14 12-22 12-4 1-7-2-10-4-4-4-6-8-6-14 0-8 4-16 10-22 9-10 25-12 38-12 17 0 39 7 52 19 4 3 7 9 11 12 2 2 4 4 7 3 1 0 1-1 2-2 1-4 0-7-2-11-7-23-27-40-32-64-2-13-1-27 7-38 4-5 10-11 16-12 9-1 22 6 29 11 17 12 27 35 21 56-3 11-12 24-10 36 4-8 10-21 19-25 3-1 7-1 9 1 14 8-2 32-7 41-3 5-5 10-7 15-2 7-3 14-4 21-2 12-3 22-1 34 6-11 9-24 15-35 5-10 11-19 17-29s10-22 12-34c4-17-1-34-13-47-5-6-11-10-16-16-9-10-17-21-28-30-6-5-16-7-21-14-5-9 1-24 4-33 4 2 8 5 13 7 6 3 12 5 18 7 12 5 26 6 38 0 18-8 23-31 28-48 2-3 3-7 3-11 1-7-6-17-9-24l8 2c12 5 19 20 17 32 0 4-2 8-3 12-3 9-3 19 0 27 3 6 8 13 14 15 4 1 8-1 12-2 18-10 11-36 9-52 0-8 0-16 3-23 3-8 10-16 18-20 4-2 10-3 14-1 7 3 9 16 12 22l5-3c2-1 3-1 6 0l1 2c-1 7-7 9-9 16-2 4-2 7-1 11 1 1 1 2 1 3-5 5-7 12-10 19-7 16-12 34-21 49 3-2 6-6 7-9 5-8 9-17 13-25 5-9 11-17 14-27 2-4-1-14 2-17 1-3 3-3 6-4l4-1c2-11 3-22 10-31 6-9 14-13 24-14z" class="B"></path><path d="M286 354h3c1 3 1 3 1 5h-4c-1-2 0-3 0-5zm257-132h4l1 1c1 3 1 3-1 6h-5c-1-2-1-2-1-5l2-2zm1 903h2c3 5 5 12 6 19-5-7-8-11-8-19zM421 521h10v1c-2 2-5 3-7 3-3 1-6 3-8 2l-1-2c2-2 4-3 6-4zm8 8c3-1 6-1 8 0s1 1 2 2c-1 2-1 2-3 3l-11-1-1-1c2-2 3-2 5-3zm43-282c2 0 2 0 4 2 2 4 0 10-1 14h-1l-4-15 2-1zM333 444h2c0 5-4 11-6 16-2 4-3 9-4 14l-1-2c0-8 4-22 9-28zm142 760c11-2 27 3 36 8l-19-4c-4-1-14 0-17-3v-1zm20-740c1 0 1-1 2-1 4 0 15 1 18 4l-1 1c-1 1-2 1-3 1-6 1-12 0-17-3l1-2zM375 869h2c-1 5-6 9-9 12-2 3-4 6-7 9v1l-1-1 1-2c1-8 8-15 14-19zm-138 90h14c2 1 8 2 9 4h-4-19c-3 1-4 0-6-2v-1l6-1z"></path><path d="M349 335c0-2 0-3-1-4-2-2-3-5-5-8 0-1-1-1-1-2v-2c3 3 4 7 7 8 2-1 1-2 2-3 2 5 6 10 8 15-3 1-4 0-6-1l-4-3z" class="C"></path><path d="M349 825c2 0 1-1 2 1 1 8-1 19-4 26v1l-1-3c-1-7-1-19 3-25zm71 71c0 1 1 1 2 1 3 8 4 20 3 28h-1c-3-5-4-12-5-18-1-4-2-7 1-11zm99-533c1-1 2-1 3-1l2 2v1c-1 5-12 12-17 15-1 1-2 1-3 1 3-7 9-13 15-18zm206-130h2c2 0 3 2 4 3 0 2 1 3 0 4-2 3-7 4-11 4h-2c-2-1-3-1-4-2 3-3 7-7 11-9zm-141 55c6-1 17-2 23 0l-1 1c-5 2-12 2-18 2l-23 3c6-4 12-5 19-6zm-294 726c6-1 14 3 19 6 2 2 4 4 4 7h-3c-6 0-16-8-20-13zm136-67h2c1 1 1 1 2 1 5 7 5 21 4 28l-8-19c0-2-2-6-1-7 0-1 0-2 1-3zm-172 67c7-1 14 1 20 4 2 1 4 3 5 5l-2 1c-8 0-17-5-24-8l-1-1 2-1zm-24-110c10-2 22 4 30 9l-2 1c-5-2-9-3-14-3-4-1-14-1-17-4l1-2 2-1zm95 116c7 1 14 3 20 7 3 2 7 5 7 9h-2c-7 0-20-12-25-16zm-28 33c4-1 11 0 13 2-4 3-9 3-14 4-5 0-11 1-14-1v-2c4-3 10-3 15-3zm256-647h2c2 1 2 2 4 4 0 1 0 2-1 3-1 4-5 6-9 8l-4 1-2-1 1-2c1-4 5-11 9-13zM215 758h3c3 1 5 4 7 5 7 7 11 13 15 22-8-8-19-15-25-25v-2zm364 357h0c6 10 1 22-1 32l-1 1c-1-10-4-24 2-33zM204 651c2-1 4-1 6 0 9 2 17 10 21 17-7-4-24-9-27-17zm531-387h0c3-1 10 0 12 2v2c-2 2-4 2-7 3h-1c-5 6-8 13-11 20l-5 11c0-8 3-15 6-21 2-3 5-9 5-12-1-3-1-3 1-5zm-129 33c8-1 17-1 25 0 3 0 9 1 11 4l-2 2c-10 5-24-3-34-6zm-180 710c1 0 1 1 2 1 15 7 25 26 30 41-6-6-10-14-15-21-4-5-8-9-12-14-2-2-4-4-5-7zm108-770c3 0 3 0 5 2 0 3-5 7-7 10l-23 24-2 1h0c8-13 17-26 27-37zM362 712h3l2 2c-3 7-16 11-22 15-4 4-8 8-11 12-2 1-1 0-2 1v-2c6-11 18-24 30-28zm294-493h2l1 1c1 3 1 5 0 8-5 12-21 24-32 29h-3c10-6 20-15 26-25 2-4 4-9 6-13zM484 979l1 1 1 2c1 3-2 10-3 13-3 12 0 23-2 35-5-10-5-21-4-31 0-7 2-15 7-20zm-76-13h1c5 4 9 9 13 14 10 12 20 24 27 40-6-8-12-16-19-23s-18-15-22-25c-1-3-1-3 0-6zm58-495h5c5 0 14 0 18 4-4 4-13 1-18 1-15-1-28 4-40 11l-19 12c15-17 32-25 54-28zm30 554c1 0 1 0 2 1 1 2 1 4 1 7l3 18c1 11 4 22 8 34 1 3 7 15 6 19-5-10-10-19-13-29-4-10-12-41-7-50zm-45 163c13-1 27 1 39 8-4 0-7-1-11-2-5 0-10 0-15-1l-18 2c-5 0-12 2-17 0-2 0-2-1-4-3l1-1c8-3 17-3 25-3zM286 368l1 1c3 5 3 12 3 18l3 21c2 9 5 18 7 27h-1c-7-15-14-31-16-47 0-6-1-15 3-20zm114 212c18-2 36 3 51 12 3 2 6 4 6 8v1c-6 1-13-5-18-8-21-12-41-9-64-4 7-5 17-8 25-9z"></path><path d="M376 475h1c-2 9-6 17-9 26l-17 35c-2 6-3 15-7 20-2 2-3 2-6 2l-1-1c-2-6 6-18 9-23 10-20 19-40 30-59zm134-72h2c-1 3-5 4-7 5 4 1 8 1 11 3 1 1 1 1 1 2-1 1-1 2-2 2-2 1-5 2-7 1-2 0-4-3-6-5v-1c-9 3-17 8-25 12-21 11-40 23-58 37l-11 10 6-9c4-6 10-10 16-14 15-11 32-20 49-29 9-5 21-12 31-14zM224 882c11-1 23 4 32 9 15 9 27 22 38 35 4 5 9 10 10 16l-1-1c-18-17-35-40-59-49-6-2-13-2-20-4-2-1-3-1-4-3 1-2 2-2 4-3zm-10-71c5 0 10 1 15 4 20 9 35 22 42 42-7-5-13-11-21-16-4-1-8-3-12-4s-10-1-13-4l1-1c12-1 21 2 30 7-5-6-12-11-20-14-9-4-16-3-23-12l1-2zm142-109h1l1 1-10 6c-29 26-35 67-38 104h0c-1-32 1-63 19-91 6-9 16-18 27-20zm-149 21h0c5-1 11 4 14 7 26 22 37 56 40 89-9-26-15-54-35-75-3-4-7-7-11-10s-7-5-9-9l1-2zm-1 217c8-1 17 1 25 3 18 3 36 8 52 17 6 4 11 8 17 12 4 2 8 4 11 7 4 4 15 17 15 22h-2c-5-4-8-10-12-15-8-9-19-16-30-22-8-4-17-8-26-11l-29-6c-6-1-14-1-19-3-2-1-3-1-4-2v-1l2-1zm240-382h10c2 0 2 1 3 3-4 3-17 2-23 2-5 0-10 1-15 2-18 3-34 9-49 18-9 6-17 12-23 21l15-4c-9 8-18 14-26 23-5 7-9 13-13 20 1-6 3-12 6-18 4-8 11-17 17-25 23-29 63-38 98-42zM224 438h1c19-1 37 7 51 19 19 19 25 44 26 70h-1c-1-9-2-18-5-27l-3-8c-8-19-21-34-40-42-13-5-28-7-41-3-4 2-8 5-12 6-1 1-2 1-3 0-1-2-1-2 0-4 7-8 18-10 27-11zm-23 184c3 0 5 0 8 1 14 4 27 21 34 33 7 14 12 30 13 45 0 5-1 10 0 14l5 20c1 3 2 5 1 7-5-17-14-37-25-52l-1-1c-3-3-6-6-10-9s-9-5-12-9v-1c2 0 4 0 5 1 19 5 26 25 35 40v-2c-1-26-15-56-35-72-6-5-13-8-19-13l1-2zm226-78c10-1 49-2 56 4 1 1 1 3 1 4-3 3-19-1-24-1-7-1-13 0-20 0-17 1-34 3-50 9-32 13-57 40-71 71l-12 31c-2 4-3 9-6 12 5-27 13-56 31-78 25-30 56-48 95-52zm370-240l13-18h1c-3 7-8 16-13 21l-1 1h2c6-3 12-10 16-16 2-3 3-7 5-10v1c-1 3-3 7-3 11 1-1 2-1 3-2v2c-4 4-7 8-10 13 4-2 7-5 10-9 3-2 6-4 8-6 3-3 5-9 8-12h0c1 5-1 10-3 15-6 10-12 18-23 21-10 3-19 2-28-3 2 5 7 9 11 11 3 2 6 3 8 6v1c-4 2-10 2-14 1-13-5-17-19-17-31-1-3 0-7-1-9-2 1-4 3-5 5-6 11 0 26 3 36-3-2-7-6-8-10-5-12-4-27 6-36 4-3 8-2 10-7 1-2 1-2 2-3 1 2-1 7-1 9l2 3h1c2-2 4-3 5-5 0-2 1-3 2-4l2 1c0 1 0 2-1 2-2 4-7 8-11 9l-1 1 3 9c7-5 11-13 18-18h1l-11 14c-2 3-5 6-6 9l2 2c6-2 15-18 20-23v1l-9 14c1 2 2 2 4 3z"></path><path d="M797 304l-5 6c-2 0-2 0-4-1 0-1 0-2 1-3l4-5c1 2 2 2 4 3z" class="C"></path><path d="M524 422l6-1c2 2 2 2 3 4 0 1 0 1-2 2-6 2-13 4-20 6l-21 9c-9 4-18 7-26 13 10-1 20-2 29-1-4 1-8 1-12 1-6 1-12 1-18 2l-2 1c-6 1-12 5-17 8-30 17-54 44-72 73l-17 26c3-14 8-28 16-41 9-14 19-26 31-37 12-12 24-22 38-31 18-11 38-19 58-26 9-3 17-6 26-8zm-213-53l1-1 2 1v3c1 6 0 12 0 18v43c0 37 2 74-1 110-2 32-9 64-20 94-3 9-7 21-12 28 4-17 9-32 11-49 2-12 3-26 0-38-3-13-9-23-15-34 16 11 21 31 25 49 1-21 5-42 6-63v-51-84c0-8 0-19 3-26zm97-14c1 0 2-8 2-9l9-30c0 6-1 12-3 17l-6 24c-1 5-3 10-3 15l1 1c8-3 13-37 17-45 1-5 3-8 6-12-6 14-7 27-11 41-2 6-5 12-6 18 0 2 0 1 1 2 2-1 3-6 4-8 2-6 5-11 7-16 2-6 4-12 5-18l6-19c0 3-1 6-2 9-1 8-2 14-2 22 4-10 7-20 12-29 1-4 3-7 5-10-2 12-7 22-12 33 12-13 17-29 24-44 0 6-3 14-5 20 6-8 10-14 14-22h1l-8 20c3-3 6-7 7-11 2-3 6-18 8-19-2 9-6 21-10 29-5 10-14 15-20 23-3 5-7 11-9 17-4 10-8 23-17 29-5 4-13 6-19 4-5-1-9-3-12-6-4-4-7-8-10-12-4-5-8-11-13-16-10-10-22-16-32-27-6-8-12-16-17-25 4 3 8 5 12 9v-3l2-1c2 1 2 1 3 4-1 2-2 0-4 2l1 3c4 7 10 14 15 20l4 3c2 1 3 2 6 1-2-5-6-10-8-15l-1-5c6 4 10 16 16 22 0-4-7-17-6-18 1 0 2 1 3 2 3 4 5 9 7 13 6 11 13 21 22 30-5-11-12-23-18-34-1-3-6-8-5-11 1-1 1-1 2 0 3 3 6 10 8 14l11 19c-1-6-2-12-4-17-2-4-7-13-7-17l4-1c1-1 1-3 1-5 1-1 5-7 6-7v1c2 13 7 27 11 39 4-14 7-30 14-43-2 10-5 19-7 28l-5 18c0 2 0 4-1 6l2 3-1 1h-2l2 4c1-2 1-5 2-6l1-1-1-2 3-2z"></path><path d="M408 355c-1 5-3 10-4 16v1c-2 0-4 0-6-1-1-6 3-14 5-19 0 2 0 4-1 6l2 3-1 1h-2l2 4c1-2 1-5 2-6l1-1-1-2 3-2z" class="C"></path></svg>