<svg xmlns="http://www.w3.org/2000/svg" xmlns:xlink="http://www.w3.org/1999/xlink" xmlns:v="https://vecta.io/nano" viewBox="190 71 1151 1362"><!--oldViewBox="0 0 1533 1534"--><style>.B{fill:#d9d8d9}.C{fill:#ececec}.D{fill:#e5e4e4}.E{fill:#f5f5f5}.F{fill:#b8b7b8}.G{fill:#cbcaca}.H{fill:#cfcfcf}.I{fill:#c4c2c4}.J{fill:#fefefe}.K{fill:#adacad}.L{fill:#0d0e0e}.M{fill:#9a999a}.N{fill:#939192}.O{fill:#2a292a}.P{fill:#a3a3a4}.Q{fill:#171717}.R{fill:#414041}.S{fill:#636363}.T{fill:#1d1d1d}</style><path d="M361 1327c0-2 0-3 1-5l1-3 1-2c0 1 1 1 1 3l-1 1v1c-1 3 0-1-1 2l-1 2v1h-1z" class="E"></path><path d="M1282 263l3 8c0 2 0 1 1 3-1 2-2 3-3 5v-2c-1-2-2-4-2-6l-1-6c0-1 1-1 2-2z" class="Q"></path><path d="M461 1297c3-2 6-3 9-4h1c-4 4-8 10-13 12h-2v1c1-3 5-6 5-9zm-6 44c0-5 3-20 7-24-1 3-2 6-3 10-2 10-4 23-1 33l-1 2v-3l-1-1c-1-5-1-11-1-17zm21 29c-4-15-1-34 5-48h1c-5 15-8 30-5 46h0c0 1-1 1-1 2z" class="F"></path><path d="M485 1364c1 1 2 3 3 4 1 2 2 3 3 4 1 0 2-1 3 1l1-1c1-1 3-1 4-1 2 1 1 1 2 0l-2-1c-2-1-2-3-3-5 4 4 7 7 14 8l-7 4c-3-1-7-1-10-2l-1-1-1-1c-4-2-5-5-6-9z" class="B"></path><path d="M563 1288l2 3c-10 10-15 19-18 33 0 2 0 6-1 8v-3c1-16 5-30 17-41z" class="S"></path><path d="M466 1231c11-1 23 0 34 0l43-1c-7 3-18 2-25 2-8 0-15 1-22 1l-1-1c-2-1-6 0-9 0-6 0-13 0-20-1z" class="L"></path><path fill="#555355" d="M563 1288c19-17 51-22 75-24v1c-27 2-51 9-73 26l-2-3z"></path><path d="M638 1264c4-1 8-1 11-1 13-1 25-1 37-1l20 1c12 1 24 0 35 1-5 2-13 1-19 1l-52-1c-10 0-21 2-32 1v-1z" class="F"></path><path d="M608 1282l3-1 1 1c-1 1-2 1-3 1l-6 3c-1 3-7 5-9 7l-1 1c-6 3-11 10-15 15-3 5-8 15-14 18h-2-1l1-2c0-1 0-2 1-3l2-5c1-1 2-2 2-4l1-1 2-2 1-1c1-2 2-3 3-4 2-4 6-7 9-10l4-3h1c1-1 1-1 3-2l1-1h1l1-1c1-1 2-1 4-2l3-1c1-1 2-1 3-2l4-1z" class="D"></path><path d="M361 1327h1c0 4 0 8 1 12 3 12 9 26 20 33 6 3 15 6 22 4 3-1 4-4 5-6l1-1v3c-1 3-3 5-5 6-4 4-11 4-16 3-10-2-18-9-23-17-6-11-9-24-6-37zm92-40c2 0 2 1 3 1l1 2c-3 6-19 11-25 14-5 3-10 7-15 11-9 10-14 24-11 37 0 3 3 8 3 11l-1 1-2-3c-4-6-7-12-6-19l1-2c1-8 4-18 9-25 9-12 29-25 43-28z"></path><path d="M458 1360c2 5 3 9 8 11h0v-1-6c-1-3-1-6-2-9-1-5 0-13 1-18v-5c1-2 1-5 2-7v-2l2-6c1-1 1-2 2-3v1 3c-1 2-1 3-2 5 0 2 0 4-1 5-1 2 0 3-1 5s0 4 0 6c-1 4-2 9-1 13l1 2c0 2 0 5 1 7v2c0 4 3 7 7 10h1v-3c0-1 1-1 1-2l4 4 2 2h2c1 1 1 1 3 1-1-1-2-1-2-2l-1-1v-1-1c-1-1-1-2-1-3l-1-4v-2c-1-4 0-15 3-18 0 1 0 3-1 5 0 4-1 9 0 13v3c1 4 2 7 6 9l1 1 1 1c3 1 7 1 10 2h0c-13 5-31 5-44-1-9-4-15-11-19-20 2 0 2 1 3 2l2 3c1 3 3 5 5 7l1 1 2 2h1c1 1 2 2 4 2v-3c-1-1-1-3-2-5v-3l-1-1v-3c-1-2-1-1-1-2v-1c0-4 0-9 1-13v-1c0 6 0 12 1 17l1 1v3l1-2z" class="G"></path><path d="M323 1058v3c-3 9-11 15-19 19-17 10-38 10-56 4-17-5-30-18-38-33-11-20-13-45-6-67 7-19 20-35 38-44-1-3-4-4-6-6-7-6-11-15-11-24-1-6 1-11 4-15 2-2 12 3 15 4 6 1 11-1 17-1 4-1 8-1 12-1-1-3-2-9-4-12s-10-6-13-8c-21-12-42-31-49-55-4-17-2-36 6-51 4-6 10-13 18-14 2-1 7-1 9 0 1 4-3 10-4 13-3 19 8 41 19 56-1-18-4-35-4-53-1-56 4-110 14-165l13-64c4-16 11-31 15-47 6-21 8-46-3-66-6-10-16-20-26-24-5-2-9-3-14-4-2-1-3-2-4-4 0-3 0-6 2-9 4-7 10-9 18-11-13-6-29-12-42-4-3 2-5 6-8 6-1-1-2-2-2-3-2-5-1-12 1-16 5-9 15-15 23-17 20-7 37-2 54 7 5-7 10-10 18-13-2-3-3-6-4-9-1-7 0-15 4-20 1-3 4-5 7-5 9-1 18 6 24 11 0-9 0-19-4-27-2-7-7-11-14-13-7-3-19-5-26-1-4 2-7 5-8 10-1 3 2 8 4 10-1 4-2 7-4 10-3 4-7 6-12 6-4 0-8-1-11-4-7-6-8-12-9-21-1-1-3-1-4-1-7 0-10-1-15-4 6-15 9-30 23-39 19-12 46-13 67-8 21 4 35 17 46 35 0-1-1-5-2-6-1-6-4-15-1-21 0-3 2-5 5-6 5-2 12 0 17 2 1-7 2-14 2-20 0-1 0-4-1-5-1-2-15-6-18-12-3-4-3-7-2-11s4-7 7-8c5-3 9-2 14-1h1l-2-12c-2-11-7-27-17-34-6-4-14-5-21-3-5 1-8 4-11 9l4 12-6 5c-3 1-7 2-10 1-4-1-8-5-10-9-3-6-3-12-2-19 3-8 10-15 18-18 18-9 40-6 58 0 8 3 17 7 24 12 3 2 6 5 9 8 2 2 5 3 8 5 4 4 9 10 11 15 5 10 5 17 1 27v1c4-2 7-2 10-2 5 0 11 3 14 7 6 7 4 18 0 26-1 3-3 6-3 9 2 1 3 1 4 1 6-9 10-19 11-29 0-6-1-13-4-17s-6-7-9-10c-4-5-8-11-7-17 0-3 2-5 5-7 8-7 21-8 31-6 15 2 29 15 35 29 1 3 1 8 3 11l2 2c8 9 8 21 7 32v1c12-5 23-11 35-16 21-10 43-18 65-26 79-26 164-37 248-32 54 2 107 11 158 32 16 7 31 16 46 25 7 4 14 10 22 14s19 3 27 7c5 2 8 5 13 7 6 3 13 6 20 8 6 2 13 2 19 3 0 2 0 4-1 6-2 10-5 14-13 20 7 2 17 4 23 0 3-1 7-3 10-3 5-1 10 0 14 3 2 2 4 4 5 7v1 1 1c6-6 10-16 18-20 4-1 7-1 11 0 7 3 10 8 13 14-1 1-2 1-2 2l1 6c0 2 1 4 2 6v2c1-2 2-3 3-5 0-2 1-3 3-5v-1c1-3 2-7 2-11 0-5-2-17 1-21 2-2 6-1 9 0 6 3 12 8 15 14 5 11 0 27-5 38-8 19-17 40-38 49-17 7-44 1-60-7-1 0-3-1-4-1l15 19c12 15 29 42 49 45 4 1 14-1 17 1 1 1 2 3 2 3 4 5 6 11 5 17-1 4-3 8-7 10-5 4-13 4-20 5 5 6 10 12 14 19 3 4 8 8 9 13 1 4 2 7 1 11 0 4-2 8-6 11-2 2-5 4-8 3-3 0-7-2-10-4 3 18 4 34-7 50-7 11-17 19-30 21-5 1-13 2-18-1 0-1-1-2-2-3 1-3 4-5 5-8 5-8 11-20 10-30 0-3-2-6-4-9-2-4-5-8-6-12-3-7-3-15-5-22-7 35-26 66-57 85-29 19-68 24-102 17-32-7-60-24-78-52-15-24-21-57-14-85 3-15 12-28 25-37 16-9 37-13 55-8 12 2 24 10 31 21 3 6 5 11 7 18 10-10 16-20 17-34 2-27-12-50-29-69-32-36-84-53-130-56-77-4-151 22-209 74-47 43-75 99-94 159-19 62-28 127-31 192l-1 47c17 0 33 0 46 13 11 10 18 26 18 41 0 5 0 9-3 13-3 1-6 1-8 0-7-2-17-8-23-4-6 2-11 17-13 23 3 1 7 0 11 0 13 1 35 0 43 12 2 3 3 7 3 10-2 6-5 11-7 17s0 12-2 18c-1 9-8 16-13 23-2 3-3 8-6 11-2 3-4 5-7 6-6 4-14 6-21 6 3 15 4 31 9 44 5-2 7-11 8-16l1-5-6-6c10 3 18 7 24 16 5 8 6 18 4 28-3 10-9 19-14 27 9 18 18 35 29 52 3 5 6 10 11 13 2 2 5 3 7 6s3 8 6 12c4 6 10 11 15 17 35 37 77 63 125 77l39 9v-1c2-7 5-13 9-19l15 15c-2-8-3-18 2-25 4-6 11-9 18-10 8-1 15 0 23 3-3 11-4 22 2 33 0-9 0-15 7-21 4-5 10-7 16-6 6 0 16 3 19 8 1 1 1 1 1 2s1 1 0 3c-2 6-6 14-3 20v1c5 1 12-1 17-2 29-6 57-16 82-33 32-20 63-53 71-92 4-21 2-41-5-61v1c-2 14-10 27-21 36-21 16-54 20-80 16-24-3-47-15-61-35-19-24-22-57-18-86 6-34 22-62 50-82 30-22 69-30 106-24 48 8 89 37 116 76 14 20 25 43 33 66 9 24 15 48 18 73 1 9 3 20 1 29-1 7-5 12-10 17h0l-3 23c0 5-1 10 0 15 1 10 8 21 15 29 6 8 12 13 21 18-3 7-8 12-15 15-3 1-7 2-10 2-2 0-5-1-7 0 7 13 13 28 9 43-1 4-3 9-7 12-4 2-7 1-10 1-1 12 0 23-10 32-2 3-5 5-9 6l-2-1h-1c-7 4-14 6-21 4-8-1-14-6-19-13-6-9-7-22-7-33v1c-7 10-18 19-27 27-45 40-99 67-155 86-26 8-53 16-80 20-40 6-82 9-123 6-25-2-49-5-74-10-29-5-58-11-86-20-2-1-18-7-20-7 0 0-2 3-3 3-11 11-22 27-38 28-4 0-7 0-10-3-4-3-4-8-7-12-2-5-5-8-5-14 0-4 1-7 4-10s6-5 9-7c-4-5-9-9-15-12-11 5-30 15-43 10-2-1-4-3-5-5-2-6-1-13-1-19v1c-5 6-11 12-17 17-3 2-13 8-14 11v5c1 5 4 10 7 12l6 4c-4 8-8 12-17 15h-1c-13 4-32 2-43-5-10-6-17-16-20-28-3-11 1-24 7-34 5-8 13-16 21-21 0 3-4 6-5 9-10 11-19 24-18 40 1 3 1 6 2 10 4 9 10 16 19 20 13 6 31 6 44 1h0l7-4c-7-1-10-4-14-8-2-4-3-7-4-11 0-5 1-11 1-16 2-13 5-32 14-43 2-1 2-1 4-1v1c1 1-5 14-6 17-3 9-3 19-3 29 9-7 18-14 24-23 4-6 7-13 10-19 2-4 5-7 9-10-1 3-3 7-4 10-3 9-5 23-2 33 0 3 2 6 5 7 15 1 39-9 49-20 4-5 6-11 10-16 3-5 9-8 14-10 24-12 57-15 84-15 11 0 22 1 33-1 10-2 19-7 28-11l43-21c-15 2-30 6-45 9-20 2-41 0-60-8-13-5-25-13-32-26-4-6-7-15-10-22-4-2-8-3-12-4-2-1-5 1-7 2-4 3-7 8-8 13-2 13 10 19 16 28-4 2-26-15-31-18-7-3-13-4-20-6 1-10 5-19 9-28l-11-6c-23-8-54-6-77 4-6 4-15 9-17 17-1 3-2 9 0 12 7 12 32 11 43 14l-20-1h-27c-15-1-29-2-44-2-11 0-22 2-33 3-15 3-31 6-46 11-15 6-38 17-45 33h-1c0 2 0 3-1 5-1 1-1 2-2 3l-1 1-3 6v1 1c2-4 6-12 9-14h1l5-5c20-19 48-26 74-31 19-3 39-6 57-6 7 1 14 1 20 1 3 0 7-1 9 0l1 1-33 1c-20 1-40 4-60 8-22 5-47 11-64 26-15 13-24 31-25 51 0 8 1 14 6 20 4 0 12-12 15-16 13-18 31-32 52-39h1c-1 2-1 4-2 5-4 5-11 7-16 11-6 6-12 13-18 20-7 8-15 19-26 23-2 1-4 1-6 1 0-1-4-4-4-4l-9 9c-7 5-15 9-24 10-14 2-29-2-41-12-15-12-25-31-27-51-2-21 2-42 15-59 17-21 45-32 71-36 11-2 22-3 33-4-1-1-5-1-7-1-5-1-9-2-14-4-8-3-17-9-21-18-3-8-2-17 2-24 4-8 10-14 19-17 26-8 53 15 75 26l-17-21c-12-16-22-33-32-51-5-9-10-19-13-29h-3z"></path><path d="M475 375l1 1 1-1h1c-1 1-1 3-2 5l-2-1 1-4z" class="D"></path><path d="M469 1219l3 1c1 1 2 2 3 2-3 1-7 0-10 0 1-1 0-1 2-1l2-2z" class="H"></path><path d="M1001 539h5l3 3c-1 1-1 1-1 2-3-1-5-3-7-5z" class="M"></path><path d="M467 1213l7 5-2 2-3-1h-2l-4-2h6c-1-1-2-3-2-4z" class="C"></path><path d="M600 1355l2-5v-1c3 0 6 1 8 1l-10 5z" class="O"></path><path d="M474 1218l11 5-10-1c-1 0-2-1-3-2l2-2z" class="B"></path><path d="M323 1058l-1-2h-1l1-6 2-1h1l-1 1c0 2 1 6 2 8h-3z" class="C"></path><path d="M1024 499l13 4c-3 2-4 1-7 1l-8-3 2-2z" class="N"></path><path d="M626 1042l1 1c1 5-1 6-4 10-1-1-1-1-1-2 1-4 2-6 4-9z" class="E"></path><path d="M1294 247v2c1 2 1 4 1 7l4 2c-3 1-5 5-7 7l2-18z" class="B"></path><path d="M1090 1046l-1-1c-5-1-9-3-12-6v-1c8 5 15 6 23 7-3 2-6 1-10 1z" class="Q"></path><path d="M853 1238h7l8 1 1 1h9c1 0 1 1 2 1h3 1l-1 1c-3 1-6 0-9 0-7-1-14-2-21-4z" class="F"></path><path d="M1160 1226c0-2 2-8 3-10l4-4c-1 7-2 14-5 21 0-4 0-8 1-12-1 2-2 3-3 5z" class="P"></path><path d="M594 304v1l-3 2 1 1h1 0v1l-4 3c-3 2-5 2-8 1l13-9z" class="C"></path><path d="M1190 1203l3 1c-2 6-3 12-7 16-1-1-1-2-1-3l1-1c0-2 0-3 1-5 2-3 3-5 3-8z" class="G"></path><path d="M430 721c0 2 1 4 2 6l-5 22c0-10 1-18 3-28z" class="C"></path><path d="M622 907c4 0 7 1 11 2l-19 2-10 4c5-5 12-7 18-8z" class="D"></path><path d="M640 1105c3 1 7 9 9 11l-2 7c-1-1-2-2-2-3l-3-6v-1c-1-3-1-6-2-8z" class="F"></path><path d="M1190 1203c1-9 5-19 7-28 0 10-2 20-4 29l-3-1z" class="I"></path><path d="M1054 513h16c2 2 2 1 5 2-9 1-17 2-25 0l1-1 3-1z" class="B"></path><path d="M273 888c7 2 13 5 19 9l-14-1c-2-2-3-6-5-8z" class="E"></path><path d="M1218 468v-9c-1-8 1-17 2-25 1 6 0 11-1 16-1 8 3 15 4 23-2-2-3-4-3-7v-1l-2 3z" class="F"></path><path d="M1117 498c4-5 8-10 11-16l2 5-3 6-1 1-2 3c-2 0-3 1-4 2l-1-1h-1-1z" class="C"></path><path d="M596 255c0 9-8 19-13 27v-1l2-5c1-6 2-11 6-16h1c-1 3-2 5-2 7l6-12z" class="F"></path><path d="M669 1177c0-1-1-1-1-2 0-3-1-8 1-11 3 7 5 12 9 18l3 5c-2-1-3-2-4-3-2-3-5-6-8-7z" class="G"></path><path d="M636 1030c1 0 2 0 3 1-1 1-1 1-1 2-1 5-4 7-7 11h-1l-3-4c3-4 6-7 9-10zm52-769c3-1 8-1 11 1h0c-10 2-21 2-31 3l-10 1c1 0 2 0 3-1l27-4z" class="C"></path><path d="M601 274c2 0 4 1 6 0-2 2-2 3-2 5-1 1-15 12-16 13l12-18zM369 906l3-1 1 1-3 1c1 2 3 3 4 3v2l-3 1 1 2c-3-1-11-3-13-7 4-1 6-2 10-2z" class="G"></path><path d="M1130 970h4c3 2 9 8 12 11l2 2v5l1 1h-1c-4-4-7-9-12-13l-6-6z" class="O"></path><path d="M647 1123c-1 2-1 2-2 3-4-4-6-8-8-13 1-3 2-5 3-8 1 2 1 5 2 8v1l3 6c0 1 1 2 2 3z" class="M"></path><path d="M1126 365l1-1c1 0 1 0 1 1 1 1 1 2 2 3h0l4 22c0 1 0 1-1 1v-3c-1 2-1 5-1 7l-6-30z" class="C"></path><path d="M293 1280c-1 5-3 11-5 16-2 6-1 12-1 18-1-3-3-6-3-9-1-9 4-18 9-25z" class="J"></path><path d="M581 980c1-6-5-14-3-20l1 1c1 6 2 12 4 18 1 3 3 8 2 10h-3c-2-2-3-5-4-8l3-1z" class="D"></path><path d="M591 1118c4 1 5 4 7 7h0v-3c0-1 0-2-1-4h0l1-1 4 8 3 11v1l-1 2-13-21z" class="I"></path><path d="M1278 1009l-9-30c-1-3-4-9-4-12 7 12 11 26 16 39l-3 3z" class="D"></path><path d="M401 465c0-10-3-22-1-31l1-3h1c0 14 0 27 3 41-1 0-2-1-3-2s-1-4-1-5z" class="F"></path><path d="M694 1146v-1l-4-4c-2-1-4-3-6-5 1-3 0-3 2-4 6 4 12 12 17 17v1h-1l-3-3v2l-5-3zm320-729c7-2 15-4 22 0 4 2 6 4 8 8v3h-1l1-1c-1-3-2-4-4-6l-1 1h0-1c-2-1-4-3-7-3-5-2-10 1-15 3l1-1c1-2 3-3 5-3h0l1-1h6 2-11v1h-3c-1 0-2 0-3-1zm-363 910c8-2 17-1 25-3 6-2 11-7 17-8-1 2-3 3-5 4-7 4-14 6-22 8-3 1-8 2-10 4h-1l-1-1c2-1 2-2 4-2 2-1 2-1 3-1-3 0-6 0-10-1h0z" class="B"></path><path d="M636 1030l8-10 5 11c-3 1-6 3-9 5l-1-5c-1-1-2-1-3-1z" class="E"></path><path d="M838 1242h6c2-1 3 0 5 0h2c2 0 2 1 4 1h3c2 0 0 0 2 1h3-1c-1-1-2-1-3-2 9 1 20 3 28 6-5 1-12-1-18-2-10-1-21-2-31-4z" class="N"></path><path d="M1042 286c3 2 6 4 10 4 2 2 9 9 11 9l2 7-19-14-1-1c-2-2-2-2-3-5z" class="F"></path><path d="M617 744c11 1 22 5 29 13 2 2 3 4 4 6v-1c-5-1-10-7-15-9-5-4-13-5-18-9z" class="B"></path><path d="M330 1273c-7 11-13 20-16 33-1-12 6-27 14-36h-1c0 2 0 3-1 5-1 1-1 2-2 3l-1 1-3 6v1 1c2-4 6-12 9-14h1z" class="C"></path><path d="M1243 480h1l-2-4 1-1c3 3 7 6 11 9 2 1 9 3 11 5 1 1 1 3 2 5-2-1-4-2-5-3-3-1-4-2-7-3h0c-4-1-10-4-12-8z" class="N"></path><path d="M1026 1034c0-3 0-3-2-5l1-4c9 13 19 23 34 29-2 1-4 0-6-1-8-3-15-9-21-14-2-2-5-4-6-5z" class="M"></path><path d="M1126 390v-3l1-1c0-2 0-2 1-4 3 20 4 44-2 64-1-2 0-3 0-5l2-14c2-11 0-25-2-37z" class="B"></path><path d="M633 284c14-5 31-10 45-8l7 1c-5 1-10 1-14 1-12 1-25 3-36 7l-2-1z" class="E"></path><path d="M572 973c0-2 0-3 1-4 1-2 2-5 3-7l1 1c0 6 3 11 4 17l-3 1-4-11c-1 5 4 16 6 20l-3 2-3-12-1-1v-1c0-2-1-4-1-5z" class="B"></path><path d="M479 340c2-1 3-1 5 0 2 2 4 3 4 6 0 8-4 17-7 24-3-5 0-9 2-14 1-4 1-12 0-16h-4z" class="G"></path><path d="M1009 497l1-1c14 9 28 15 44 17l-3 1-1 1c-14-1-30-9-41-18z" class="H"></path><path d="M603 936v-7c3-4 9-6 13-8 1 3 1 5 2 8-5 0-9 6-15 7z" class="F"></path><path d="M1147 979c8 6 17 19 20 28-1 2-2 4-2 6-2-5-5-10-7-14-2-3-7-6-7-10 1 1 1 0 2 2 1 1 2 3 4 4-1-5-6-9-9-12l-2-2 1-2z" class="N"></path><path d="M425 446c1 3 1 8 0 12v1c0-1 1-3 2-4 0-1 1-2 2-3 0-2 1-4 2-6 0-1 0-1 1-2v-1c1 5-3 13-5 17l-4 13c-1 5-1 11-2 15l-1-4c-1-2-1-3-1-5l6-33z" class="F"></path><path d="M626 262l1-1c3-4 5-7 6-13v-1c1-3 1-7 0-10h1c3 1 5 2 6 5 1 4 0 8-2 11-3 5-8 10-13 13 0-2 1-2 1-4z" class="C"></path><defs><linearGradient id="A" x1="993.606" y1="539.28" x2="991.624" y2="512.412" xlink:href="#B"><stop offset="0" stop-color="#9c9999"></stop><stop offset="1" stop-color="#b9babb"></stop></linearGradient><linearGradient id="B" gradientUnits="userSpaceOnUse"></linearGradient></defs><path fill="url(#A)" d="M981 515s1-1 1-2c1-1 0-1 1-3l6 10 11 12c2 2 3 5 6 7h-5c-8-6-15-16-20-24z"></path><path d="M1034 1051l1-1v-1c1 0 2 0 3 1l2 1 1-2c5 3 10 6 15 8s11 3 16 4c2 1 4 1 6 2-2 1-5 0-7 0h-3c-2-1-2-1-4-1h-1c-2 0-3 0-5-1-2 0-4-1-6-2l-14-6c-2 0-2-1-4-2z" class="K"></path><path d="M1127 476l1 1c-2 4-4 10-8 14-7 10-19 16-30 20l-15 4c-3-1-3 0-5-2 9-2 21-4 29-9 4-2 8-3 11-6 8-5 13-14 17-22z" class="D"></path><path d="M572 973c0 1 1 3 1 5v1l1 1 3 12h-1c-1 1 0 0-2 1h-1l-1 2-5 4-1-1-1-1c-1-7 3-18 7-24z" class="I"></path><path d="M572 995c-1-1-2-1-2-2l-1-6h1l1 1c0 2 1 3 2 5l-1 2z" class="C"></path><path d="M833 1222c3-1 5-1 7 0h1c2 1 4 2 6 2 5 1 9 3 14 3h1c1 0 3 0 4 1h4l1-1h9c-2-2-7-3-7-4h4l7 2h0c3 5 5 8 10 11h1c-20-7-41-8-62-14z" class="B"></path><path d="M1069 974c6-6 11-10 19-13 12-4 29-2 40 4l-4 2c-4-3-9-4-14-5-11-2-25 1-34 7-6 5-12 12-14 19h0c0-3 1-5 2-7 2-2 3-5 5-7zm-60-477c-3-3-6-6-9-10-7-11-15-26-12-40l1-2v-1c0-1 0 0 1-1v1c-1 5-1 9 0 14 3 15 9 26 22 35 4 3 8 5 12 6l-2 2c-3-1-9-5-12-5l-1 1z" class="M"></path><path d="M776 218c10-1 24 1 33 5-14-2-28-3-42-1l-32 7c10-9 28-10 41-11z" class="C"></path><path d="M405 472c2 11 2 21 2 32-5-14-6-28-10-41-1-7-4-14-7-20l1-1c3 7 7 14 9 21l1 2c0 1 0 4 1 5s2 2 3 2z" class="G"></path><path d="M594 304c11-10 25-16 39-20l2 1c-3 1-6 2-9 4-2 1-3 1-4 1-3 2-4 2-6 5l1 1-15 8c-3 1-6 3-9 4h0-1l-1-1 3-2v-1z" class="B"></path><path d="M626 289c11-3 24-6 36-5l1 2c-2 2-6 2-9 2l-21 3c-2 1-7 3-9 2l-7 3-1-1c2-3 3-3 6-5 1 0 2 0 4-1z" class="C"></path><path d="M617 296l-1-1c2-3 3-3 6-5l-4 4h2 0c2 0 3-1 4-1l-7 3zm64 845l3-4c2 1 6 5 7 8l6 32c-1 0-2-1-3-1-4-3-6-12-7-16-1-5-2-11-1-15v-3c-1-2-1-2-2-2l-3 1z" class="D"></path><defs><linearGradient id="C" x1="607.22" y1="1001.807" x2="580.063" y2="989.966" xlink:href="#B"><stop offset="0" stop-color="#a4a4a4"></stop><stop offset="1" stop-color="#cdcbcc"></stop></linearGradient></defs><path fill="url(#C)" d="M564 1016l2-4c9-19 32-20 49-25 1 1 1 1 1 3h0l-34 11c-4 2-9 5-12 8-2 2-3 6-6 7z"></path><path d="M1186 1220c-1 1-2 2-3 2-3-5-5-15-4-20 0-3 2-5 3-6l-1 10 1-1c0-3 1-6 2-9v-2c0-2 2-4 4-5-2 5-2 10-3 15v2c1-1 3-12 4-15 0-1 1-2 1-4s1-3 3-4c-1 6-3 12-4 18l-2 10c-1 2-1 3-1 5l-1 1c0 1 0 2 1 3zm-46-823c3 15 3 32-2 46l-6 18c-1 3-1 5-1 7 0 3-2 6-3 9l-1-1c2-6 2-11 4-17 1-6 4-12 5-18 3-14 3-27 2-41 1-1 2-1 2-3z" class="B"></path><path d="M669 227c3 0 5-1 8 0 0 4-3 8-5 11-6 7-15 11-24 15 1-2 4-5 5-7 1-1 2-2 2-3l2-2c1-1 1 0 2-1 1 0 2-2 3-3v-1l1-1c2-3 4-5 6-8z" class="E"></path><path d="M648 253c-5 2-10 6-15 9l4-5c4-4 6-9 9-14 5-7 14-13 23-16-2 3-4 5-6 8l-1 1v1c-1 1-2 3-3 3-1 1-1 0-2 1l-2 2c0 1-1 2-2 3-1 2-4 5-5 7z" class="B"></path><defs><linearGradient id="D" x1="1027.207" y1="1022.544" x2="1004.501" y2="1000.534" xlink:href="#B"><stop offset="0" stop-color="#959594"></stop><stop offset="1" stop-color="#bebdbd"></stop></linearGradient></defs><path fill="url(#D)" d="M1011 993c3 12 7 21 14 32l-1 4c2 2 2 2 2 5-10-9-18-22-21-35 4-2 5-2 6-6z"></path><path d="M595 987c-3 1-5 1-7 1-5-10-7-23-7-34 1-2 2-3 4-3 1 5 1 11 4 17h0c1 2 1 4 2 6 0 3 2 5 2 8l1 4 1 1z" class="C"></path><path d="M628 1334l-1-1c-1-2-5-2-7-4-5-2-15-7-18-12v-2c2-1 5-1 6 0h1l29 14c-3 1-6 4-10 5z" class="J"></path><path d="M594 1350h2c-1 2-4 4-5 7s-1 7 0 11c2 5 9 16 14 18 4 1 11-1 14-3 2-1 3-1 5-2l-2 2-9 5c-4 2-8 2-12 1-7-1-8-7-10-13-1-2-2-3-3-5-3-4-3-8-1-12 1-5 3-7 7-9z" class="E"></path><defs><linearGradient id="E" x1="828.074" y1="1335.827" x2="854.269" y2="1337.12" xlink:href="#B"><stop offset="0" stop-color="#afaeaf"></stop><stop offset="1" stop-color="#dad9d9"></stop></linearGradient></defs><path fill="url(#E)" d="M825 1348l1-2c3-1 6 0 9 0 2 1 3 1 5 1 12-3 10-22 15-31h0l1 9c1 7 0 14-5 21-3 3-6 6-11 6-5 1-10-1-15-4z"></path><path d="M563 348c14-4 25-8 38-1 1 0 2 1 4 2-1 2-2 2-3 4-4-1-8-3-12-4-9-2-18-1-26 4-1 0-2 0-2 1v1c-1 0-2 1-3 1s-1 0-2 1h-1c-2 1-3 1-4 2l-1 1-1-1c1-1 1-1 1-3l4-3c1 0 1-1 3-2h1c1-1 2-2 4-3zm80 727l3 2c1 1 1 2 2 3 0 2 1 3 2 5l2 5h0l6 10c0 3-1 3-3 5h-1c-2-3-4-7-6-10h-1c2 4 6 9 7 12 0 2-1 3-2 4-1-1 0-1-1-2-3-4-9-9-10-12l1-1v-2c1-3 1-6 1-9 0-1 1-2 0-3h0v-7z" class="D"></path><path d="M373 558h2c4 9 2 17 4 26 3 14 9 28 11 42h-1v-2c-5-12-11-27-13-40 0-1 0-1-1-3-1 2-1 2-3 2-2-2-2-5-3-8 0-6 0-13 4-17z" class="E"></path><path d="M1044 428c-1 1-1 3-2 4-3 2-6 3-9 3-6 0-11-3-14-7 0-2 0-2 1-4 2-3 4-3 8-4 3 0 5 1 8 2h2 1 0l1-1c2 2 3 3 4 6l-1 1h1z" class="G"></path><path d="M1028 420c3 0 5 1 8 2h2 1c-1 2-3 5-5 6-1 1-2-2-4-2l-1 1c-2-1-1-5-1-7z" class="I"></path><path d="M1255 488c3 1 4 2 7 3 1 1 3 2 5 3 1 16-1 28-11 40-4 3-8 8-12 9h-1-2c3-2 5-4 7-7 5-6 10-12 12-20 2-5 2-9 1-13v-2c0-3 0-5-2-8l-4-5z" class="F"></path><path d="M453 381c0-3 1-6 2-9s2-5 4-6v3c0-1 1-1 1-2 1-5 3-8 6-12 0 7 1 16-2 22v3 1c-1 3-2 6-3 8s-2 3-3 4l-1 1h-1c0 2 0 2-1 3-1 0-1 0-1-1-1-1-1 0-1-1v-14z" class="C"></path><path d="M1023 410c1-1 1 0 1-1-1-2 0-2 1-3 8-1 14 2 21 3 3 2 5 4 7 6l2 2c3 5 6 9 7 14l-1 2h-4c-3-2-6-8-8-11-7-8-15-11-26-12z" class="B"></path><path d="M589 968c-1-5-2-12-2-18 1-4 3-8 6-12v1c-1 10 2 20 5 30 1 4 2 11 4 15v2c-3 0-5 1-7 1l-1-1-1-4c0-3-2-5-2-8-1-2-1-4-2-6z" class="E"></path><defs><linearGradient id="F" x1="1022.611" y1="1022.908" x2="1033.823" y2="967.532" xlink:href="#B"><stop offset="0" stop-color="#8d8c8d"></stop><stop offset="1" stop-color="#cdcdcd"></stop></linearGradient></defs><path fill="url(#F)" d="M1020 966h4l2 2c-1 17 0 33 7 49 3 7 7 14 13 20l1 1v1c-6-3-15-13-17-19-2-5-5-10-7-16-4-13-4-25-3-38z"></path><path d="M1221 453c0-4 0-6 1-10 0-3 0-7 1-10 4 16 11 28 20 42l-1 1 2 4h-1-1c-2-1-3-1-5-3 0-1-1-1-2-2l1 5-1-1c-2-1-3-2-4-5v4 4c-1-2-1-3-1-5-1-1-1-2-1-3-2-2-2-3-3-5l-3-8c-1-3 0-6 0-9l-2 1z" class="M"></path><path d="M1235 475v-2h2l5 7c-2-1-3-1-5-3 0-1-1-1-2-2z" class="B"></path><path d="M1229 474c-1-2 0-4-1-6l-3-9c-1-2 0-4 0-6 1 2 0 4 1 6l1 1c0 1 0 2 1 3 2 3 2 8 4 11 1-2 1-1 1-2-1-3-2-7-4-10v-3h0c1 1 8 12 8 14h-2v2l1 5-1-1c-2-1-3-2-4-5v4 4c-1-2-1-3-1-5-1-1-1-2-1-3z" class="H"></path><path d="M1001 473c3 0 4 1 6 3l3 3c2 4 6 7 10 9 1 1 2 1 4 2l9 3h2c1 1 2 1 4 1h0c3 1 6 1 9 1 2 1 5 0 7 0 2-1 6 0 8 0l2-1h4c1-1 2-1 4-1l1-1c1 0 2 0 2-1 6-2 11-4 15-8l5-3h6c-4 4-8 7-12 9-17 10-38 13-57 8-13-4-25-12-32-24z" class="K"></path><path d="M1221 453l2-1c0 3-1 6 0 9l3 8c1 2 1 3 3 5 0 1 0 2 1 3 0 2 0 3 1 5s2 3 2 6c1 1 2 2 2 3 2 4 6 9 7 14v1l1 5v1c0 2 1 4 0 5-2-3 0-7-3-9l-1-2-1 2c-3-3-4-4-5-8 0-1-1-2-2-3l-1-2v-1c-2-3-3-8-6-10l-1 1c1 3 2 6 4 9 3 5 7 8 7 15-3-6-7-12-10-17-4-8-5-16-6-24l2-3v1c0 3 1 5 3 7 1 2 2 6 3 8 1 4 2 8 5 11h0c-4-12-11-26-10-39z" class="G"></path><defs><linearGradient id="G" x1="1039.321" y1="416.242" x2="1042.616" y2="393.599" xlink:href="#B"><stop offset="0" stop-color="#bfbebf"></stop><stop offset="1" stop-color="#f5f4f6"></stop></linearGradient></defs><path fill="url(#G)" d="M1006 394c17-5 34-5 49 4 7 5 15 13 18 21 1 3 2 5 2 7v2c-2 2-3 3-5 4-1-1-1-2-1-3v-4c0-6-8-15-12-19-13-11-28-12-44-11h1c-2-1-5-1-7-1h-1z"></path><path d="M1073 419c1 3 2 5 2 7l-1 2c-1-1-2-3-3-5 1-1 1-2 2-4z" class="F"></path><defs><linearGradient id="H" x1="1044.358" y1="1237.915" x2="1043.625" y2="1229.181" xlink:href="#B"><stop offset="0" stop-color="#adacad"></stop><stop offset="1" stop-color="#d1d0d0"></stop></linearGradient></defs><path fill="url(#H)" d="M1053 1227c0-2 2-2 4-3l6-3c2 0 2-1 4-1l1 1c-3 3-9 5-13 7l2 1c3 1 4 0 6-1l2-1 5-2 3-2c2-1 4-2 6-2 0 1 0 1 1 2 1-1 2-1 2-2l3-1 2-2c2-1 2-1 4 0-6 5-15 9-22 12-4 2-8 5-12 6-12 5-21 4-33 1 8-2 20-5 28-10h1z"></path><path d="M1057 1236v-2c1 0 1 0 2-1h-4c4-2 9-5 14-3-4 2-8 5-12 6z" class="F"></path><path d="M602 984v-2l-6-22c-2-10-4-18 2-27l3-3v3c2 18 6 34 10 51l-7 2-2-2z" class="J"></path><path d="M1117 498h1 1l1 1c1-1 2-2 4-2-3 4-7 8-10 10l-2 1c-1 1-2 2-3 2-2 2-5 3-7 5l-4 1c-3 2-7 4-11 5h-2l-3-1c-2 1-2 1-4 1l-4 1h-2c-3 1-15 1-18 0-1 0-5-1-7-1h-2c-2-1-1-1-2-1-2 0-4-1-6-1-1-2-2-3-4-3l-1-1h1c1 1 2 1 3 1h3c9 2 18 4 27 3 5-1 9-1 14-3 13-3 26-11 37-18z" class="B"></path><path d="M601 274c5-6 10-10 14-16 4-5 5-13 9-18 2-2 4-3 7-3l1 1c0 9-1 16-7 24h1c0 2-1 2-1 4l-20 13c0-2 0-3 2-5-2 1-4 0-6 0z" class="D"></path><path d="M607 274c5-3 10-8 13-13 1-3 2-6 4-8l1 1v1c-1 2-2 5-4 7l-1 1-2 4-1 1v1l7-6 1-1h1c0 2-1 2-1 4l-20 13c0-2 0-3 2-5z" class="F"></path><defs><linearGradient id="I" x1="1010.66" y1="486.395" x2="958.63" y2="430.125" xlink:href="#B"><stop offset="0" stop-color="#b9b7b7"></stop><stop offset="1" stop-color="#ededed"></stop></linearGradient></defs><path fill="url(#I)" d="M981 515l-1-1c-15-24-19-55-12-82 3-13 9-23 20-30l1 2-1 2h1c-4 4-9 8-12 13-6 10-9 26-9 38-1 18 4 34 13 50l2 3c-1 2 0 2-1 3 0 1-1 2-1 2z"></path><path d="M608 1334c3 1 8 3 11 3l-1-1c-7-2-17-6-23-11 1-2 2-3 4-4 5-1 13 5 17 8 4 2 8 4 12 5-3 4-12 10-17 10-9-3-17-7-24-14 1-2 3-3 5-3 4-1 12 5 16 7z" class="J"></path><path d="M1281 1006c6 20 10 39 12 60 0 7 1 14 0 20-1 5-3 9-4 13-2-13-2-25-3-38-1-17-4-35-8-52l3-3zm-136 224c1-1 1-2 3-3 0 5-1 9-1 13-1 8-1 15 0 23h0c1 3 1 6 0 9-2-1-4-3-6-5-3-2-4-4-6-7-3-7-3-14-3-21 4-4 8-7 13-9z" class="B"></path><path d="M1140 1257c1 3 1 7 1 10-3-2-4-4-6-7 1 1 2 1 3 1v-3l2-1z" class="G"></path><defs><linearGradient id="J" x1="1138.082" y1="1234.098" x2="1133.625" y2="1260.692" xlink:href="#B"><stop offset="0" stop-color="#acacac"></stop><stop offset="1" stop-color="#cecccd"></stop></linearGradient></defs><path fill="url(#J)" d="M1145 1230l-1 4-4 14c0 3 1 6 0 9l-2 1v3c-1 0-2 0-3-1-3-7-3-14-3-21 4-4 8-7 13-9z"></path><path d="M1066 972c12-10 24-17 40-15h4 1c23 4 38 18 51 36l6 10c3 7 6 14 7 21 5 23 2 51-7 73 0 1-1 3-1 4 1-8 4-16 6-23 5-23 4-49-6-71-3-9-12-22-20-28l-1 2c-3-3-9-9-12-11h-4c-1-1-4-2-6-3l4-2c-11-6-28-8-40-4-8 3-13 7-19 13l-3-2z"></path><path d="M1128 965c7 2 14 8 19 14l-1 2c-3-3-9-9-12-11h-4c-1-1-4-2-6-3l4-2z" class="P"></path><path d="M1010 479h0c4 1 7 3 11 5s10 2 14 2c1 0 6 1 6 1l19 1h6v-1l14-3c4 0 7-1 12-3l-1 1v1c-4 4-9 6-15 8 0 1-1 1-2 1l-1 1c-2 0-3 0-4 1h-4l-2 1c-2 0-6-1-8 0-2 0-5 1-7 0-3 0-6 0-9-1h0c-2 0-3 0-4-1h-2l-9-3c-2-1-3-1-4-2-4-2-8-5-10-9z" class="I"></path><path d="M1060 488h6c-3 1-7 2-10 2h-1l-6-1c3 0 7 0 10-1h1z" class="K"></path><path d="M1010 479h0c4 1 7 3 11 5s10 2 14 2c1 0 6 1 6 1v1c-2 0-2-1-4 0-3 1-5 0-9 0l-1-1c-2-1-4-1-5-1-3-1-6-3-9-4 2 2 5 3 7 5v1c-4-2-8-5-10-9z" class="H"></path><path d="M1139 220c-5-2-10-5-14-8 8 2 16 3 23 5 7 3 14 7 21 10 10 5 20 7 31 7 1 2 1 2 0 4-1-1-2-1-3-1-2 1-2 1-3 1-2 1-5 0-7 0h0c-10 1-22 2-30-5-4-3-8-7-12-9l-1-1-5-3z" class="C"></path><path d="M981 999c1 1 3 2 3 3v2l1 3c1 2 2 3 2 5 1 4 3 7 5 10 2 4 5 7 7 10l2 2c2-1 3-3 4-5-1-1-1-2-2-4l-2-2c0-1-1-2-2-4l-2-3-1-4 1-3h1l1 2c-1 1-1 2-1 3l1 1c2 3 4 8 6 11l1 1c2 2 3 4 5 6l1 1c1 3 5 5 7 6 1 1 2 3 4 4l2 2c1 0 2 1 2 2h2c1 1 3 2 5 3s2 2 4 2l14 6c2 1 4 2 6 2 2 1 3 1 5 1h1c2 0 2 0 4 1h3c-22 1-43-5-61-18-13-10-26-29-29-46z" class="I"></path><path d="M988 402c1 0 3-1 3-2l15-6h1c2 0 5 0 7 1h-1c16-1 31 0 44 11 4 4 12 13 12 19v4c-2-3-4-8-7-11l-1-2c-1-1-1-1-2-3v-1c-2-2-7-7-10-8 0 0-1-1-2-1-1-3-2-3-5-4-13-4-32-3-44 4-12 6-21 17-24 31-2 5-4 10-4 16-2 20 4 38 14 56l-3 1c-9-16-14-32-13-50 0-12 3-28 9-38 3-5 8-9 12-13h-1l1-2-1-2z" class="T"></path><path d="M988 402c1 0 3-1 3-2l15-6h1c2 0 5 0 7 1h-1c-9 3-16 6-24 11h-1l1-2-1-2z" class="C"></path><defs><linearGradient id="K" x1="1145.837" y1="1229.662" x2="1166.125" y2="1255.296" xlink:href="#B"><stop offset="0" stop-color="#a9a8a8"></stop><stop offset="1" stop-color="#e6e6e6"></stop></linearGradient></defs><path fill="url(#K)" d="M1162 1233l-2 11c2-3 3-6 4-10s5-24 7-26c0 7 0 15-1 22-1 5-4 10-6 15-4 9-7 19-15 26l-1 1h-1c1-3 1-6 0-9 1-3 1-8 1-11l2-20c0-2 0-5 1-7 1-3 8-7 10-8-3 8-7 18-7 27l6-18c1-2 2-3 3-5-1 4-1 8-1 12z"></path><defs><linearGradient id="L" x1="1042.488" y1="1013.349" x2="1007.157" y2="936.341" xlink:href="#B"><stop offset="0" stop-color="#9e9d9d"></stop><stop offset="1" stop-color="#d3d2d2"></stop></linearGradient></defs><path fill="url(#L)" d="M1026 926c0 2 1 3 1 6v1c-10 23-14 50-4 74 2 5 4 9 6 15 0 2 3 5 4 7 8 10 18 16 29 23-6-2-11-4-16-7-11-7-22-22-27-33-10-21-9-49-1-70 0-1 0-2 1-2l-2-2c-1-2 3-9 4-11 1 1 1 1 3 2l2-3z"></path><path d="M1021 927c1 1 1 1 3 2l-5 11-2-2c-1-2 3-9 4-11z" class="S"></path><defs><linearGradient id="M" x1="1173.967" y1="1055.141" x2="1160.398" y2="1055.477" xlink:href="#B"><stop offset="0" stop-color="#9a9a9a"></stop><stop offset="1" stop-color="#d5d5d6"></stop></linearGradient></defs><path fill="url(#M)" d="M1155 1113c4-9 8-19 10-28 5-21 6-42-1-62-3-10-9-20-15-29 12 11 16 25 20 39 1-6-2-14-4-20 0-2 1-4 2-6 10 22 11 48 6 71-2 7-5 15-6 23 0 1 0 0-1 2 0 0 0 1-1 2l-1 2-1-1c0 2 0 1 1 2-1 2-1 3-2 4l-2 4c0 1-1 2-2 3-1-2-1-3-1-5l1-1 1-1 1-2v-1c1-2 0 1 1-2l1-1v-1c1-1 1-1 1-3-5 2-4 10-8 11z"></path><path d="M476 606c3 0 7-1 10 1 1 2 2 3 1 5 0 6-2 10-6 13-5 4-10 6-16 6-2-2-3-3-4-5h-1c-10 15-18 31-25 48l-6 14c0-4 2-10 3-14 3-9 7-18 11-26 4-9 9-17 14-25 2-3 4-8 7-11 4-3 7-4 12-6z" class="C"></path><path d="M474 613h4 1v1c-1 3-3 5-5 6l-3 1-2-2v-1l5-5z"></path><path d="M286 992h1l1 1c-1 4-2 9-2 13-2 6-2 12-1 18v1c2 14 10 23 24 25 2 0 6 0 8 2-1 2-1 2-3 4l-6-1-11-3c-10-4-17-9-21-19-5-8-5-19-2-28 3-6 6-10 12-13z" class="J"></path><path d="M1024 402c8 0 15 3 22 7-7-1-13-4-21-3-1 1-2 1-1 3 0 1 0 0-1 1-3 1-6 1-10 2-8 3-15 9-20 16-4 7-6 17-7 24v11c1 4 2 7 3 11l-3 2c0-2-1-4-1-6l-1-1c0-2-1-4-1-6v-1c-2-6-1-12-2-19h-1l3-14c1-1 1-1 1-2l1-2c1-1 1-3 2-4s2-2 2-3c1-1 0-1 0-3 0-1 0-1 1-1 7-6 18-11 27-11 2-1 5-1 7-1z" class="F"></path><path d="M1012 406l1 1h-1l1 1c-3 1-5 2-8 4l-5 2-2-1c2-1 3-3 6-3l3-2c2-1 4-1 5-2z" class="I"></path><path d="M998 413l2 1c-4 4-7 8-10 12-1-1-1-1-2-3 1-1 2-3 4-4l6-6z" class="B"></path><path d="M989 415c0-1 0-1 1-1 7-6 18-11 27-11l-5 3c-1 1-3 1-5 2l-3 2c-3 0-4 2-6 3l-6 6c-2 1-3 3-4 4-1 2-1 3-2 4l-1 2-1 3c-1 2-1 4-2 7l-1 4h-1l3-14c1-1 1-1 1-2l1-2c1-1 1-3 2-4s2-2 2-3c1-1 0-1 0-3z" class="K"></path><path d="M988 423c1 2 1 2 2 3-2 4-4 9-5 14v1c-1 2-1 6 0 9l1 2v11c1 4 2 7 3 11l-3 2c0-2-1-4-1-6l-1-1c0-2-1-4-1-6v-1c-2-6-1-12-2-19l1-4c1-3 1-5 2-7l1-3 1-2c1-1 1-2 2-4z" class="G"></path><path d="M983 463l1-1v2c1 1 1 2 1 3 1-1 1-2 0-3v-1h1c1 4 2 7 3 11l-3 2c0-2-1-4-1-6l-1-1c0-2-1-4-1-6z" class="B"></path><defs><linearGradient id="N" x1="1018.042" y1="1049.702" x2="1019.03" y2="1000.286" xlink:href="#B"><stop offset="0" stop-color="#a9a7a8"></stop><stop offset="1" stop-color="#cfcfce"></stop></linearGradient></defs><path fill="url(#N)" d="M996 1012c-1-1-1-3-2-4v-1l-1-1v-1c-1-1 0-2 0-3-2-1-1-2-1-4-1-1-1-2-1-3-1-2 0-4-1-7h0v-12h0c1-2 1-2 3-2v9 1l1 1v5l1 1c-1 4 1 8 2 12l1-1 3-2c1-1 1 0 1-1-1-1 0-2 0-4-2-1-1-2-1-4h-1v-3c0-2 0-2-1-4 0-2 1-5 1-7v-1l-1-5c2-2 1-4 1-6v-2l1-1c0-3 0-4 1-6v10c0 3 0 0-1 3h0c0 7 0 14 1 21 1 6 2 12 4 18 7 18 20 29 35 41l-1 2-2-1c-1-1-2-1-3-1v1l-1 1c-2-1-4-2-5-3h-2c0-1-1-2-2-2l-2-2c-2-1-3-3-4-4-2-1-6-3-7-6l-1-1c-2-2-3-4-5-6l-1-1c-2-3-4-8-6-11l-1-1c0-1 0-2 1-3l-1-2h-1l-1 3z"></path><path d="M1075 278c2 2 3 3 5 4s6 6 7 8 4 4 6 6c1 2 2 2 3 4s3 3 3 4c1 1 3 2 3 4l9 11 1 2v1c2 1 2 3 3 5 2 1 2 2 3 4s2 3 2 4c0 4 4 10 6 14 2 7 6 14 8 21 3 9 5 18 6 27 0 2-1 2-2 3-2-10-4-22-8-32h0c-1-1-1-2-2-3 0-1 0-1-1-1l-1 1c-6-16-13-32-23-45 0-1 0-1-1-2l-7-9v-1c-2 0-2-1-3-2-1-2-2-2-3-3-1-2-2-3-3-4-1-3-4-4-5-6s0-1-1-2l-2-2c-1-1-3-3-3-4l2-1-3-3c0-1 1-2 1-3z" class="D"></path><path d="M666 1349c13 1 26 6 39 9 17 5 35 8 53 11l27 3c1 2 3 4 3 7l-2-1c-39-3-78-10-114-23-3-1-9-2-10-4l4-2z" class="E"></path><defs><linearGradient id="O" x1="532.81" y1="874.919" x2="483.83" y2="824.99" xlink:href="#B"><stop offset="0" stop-color="#b3b4b2"></stop><stop offset="1" stop-color="#f9f7f8"></stop></linearGradient></defs><path fill="url(#O)" d="M497 809h1c0 3 0 6 1 8h1l-1-1 2-1c0-2 0-2 1-3 0-2 1-2 1-4 1-2 0-2 3-4h0v-3l1-1 3 38c1 11 3 23 4 34 0 11-1 21-1 32-3-7-4-14-5-21-6-24-9-49-11-74z"></path><path d="M674 1343c10-1 23 4 33 7l33 7 29 5c4 1 10 1 14 3 0 1 1 3 0 5h-3c-14-1-29-4-43-6-23-5-46-9-68-18 2-1 3-2 5-3z" class="E"></path><path d="M603 936c6-1 10-7 15-7l4 27c2 7 4 14 5 22l-12 6h-1-1c-5-15-9-32-10-48z" class="J"></path><path d="M430 721c1-7 1-15 3-22 2-10 7-19 12-28 8-14 17-27 30-37 6-4 12-7 19-9-5 4-11 6-16 10-14 12-26 27-35 43 5-5 9-9 15-13 0 2-1 10 0 11 5-2 10-3 15-3l2 1c-2 3-11 5-14 7 3 0 8-2 11-1-1 2-3 3-6 3-3 1-7 2-11 4-6 2-11 10-14 15-5 8-7 16-9 25-1-2-2-4-2-6z" class="D"></path><path d="M984 506c-10-18-16-36-14-56 0-6 2-11 4-16 3-14 12-25 24-31 12-7 31-8 44-4 3 1 4 1 5 4 1 0 2 1 2 1 1 3 4 5 6 7-1 1-1 1-2 1 1 2 2 3 3 5h-1l-2-2c-2-2-4-4-7-6-7-4-14-7-22-7-2 0-5 0-7 1-9 0-20 5-27 11-1 0-1 0-1 1-11 13-15 30-14 47 1 13 8 31 18 41h0v1l-1 2-2-3c-2 0-2 0-3-2l-3-3-2-4-1-1c-1-2-2-5-3-7l-1-1-1-3c0-2-1-2-1-3v-2l-1-1c0-1 0-1-1-3 0-1 0-1-1-3l1-1c-2-2-1-3-1-4-2-4-1-9-1-13-1 4-1 10 1 13v2c-1 1 0 5 1 7s1 4 1 6h1v2 1c1 2 3 6 3 8 1 2 1 2 2 3v1l2 4 2 2c0 1 1 3 1 5h-1z" class="H"></path><path d="M1021 398h7c7 1 13 2 19 5 1 0 2 1 2 1 1 3 4 5 6 7-1 1-1 1-2 1 1 2 2 3 3 5h-1l-2-2c-2-2-4-4-7-6-7-4-14-7-22-7v-1c-1-2-1-2-3-3z" class="L"></path><path d="M990 503c-9-11-15-25-17-39-2-15 2-36 11-48 10-12 23-16 37-18 2 1 2 1 3 3v1c-2 0-5 0-7 1-9 0-20 5-27 11-1 0-1 0-1 1-11 13-15 30-14 47 1 13 8 31 18 41h0v1l-1 2-2-3z"></path><path d="M658 1354h1c4-1 14 3 19 5l21 6 61 12 20 3c3 0 6 0 9 1s8 6 10 8h0-4c-28-3-55-8-83-14-15-4-30-7-44-12-5-2-11-3-16-6 1-2 4-2 6-3zm-12-277c-2-7 0-15 2-22l4-19 28 46c-3 1-6 1-9 3l-2-1 1 3c-1 1-2 2-4 3v1c-2 1-2 0-4 0 0 1 1 1 1 2 1 1-3 6-3 7l-8-10h0l-2-5c-1-2-2-3-2-5-1-1-1-2-2-3z" class="J"></path><path d="M662 1091l-1-1c-1-2-5-6-5-8h2v-1-2c0-2 3 0 4-1v-4l2 2c0 1 1 1 2 3v1c1 2 2 2 3 4l1 3c-1 1-2 2-4 3v1c-2 1-2 0-4 0z" class="E"></path><path d="M1066 904c4-2 8-5 12-6-4 3-8 5-12 7-8 6-16 14-21 21l1 2-6 10 1 1c-1 2-2 4-1 5v1c0 2-1 2 1 4l-5 12c-3 16-4 30-1 47-1 0 0 0-2-1 0-1-1-2-1-3 0-2 0-1-1-2v-2l-1 1c0 2 0 3 1 5s1 3 2 6c0 1 1 3 1 5h-1c-7-16-8-32-7-49l-2-2h-4c2-14 7-30 15-42 2-3 6-6 9-9l4-3 1-1c1 1 1 1 1 2v1h1c1-4 9-9 12-11l3 1z" class="F"></path><path d="M1040 938l1 1c-1 2-2 4-1 5v1c0 2-1 2 1 4l-5 12-1-1v2h0l-1-4c1-4 3-9 4-13 0-2 1-4 2-7z" class="L"></path><path d="M1034 958l1 4h0v-2l1 1c-3 16-4 30-1 47-1 0 0 0-2-1 0-1-1-2-1-3 0-2 0-1-1-2v-2l-1-4c-2-13 1-25 4-38zm32-54c4-2 8-5 12-6-4 3-8 5-12 7-8 6-16 14-21 21-4 5-7 11-10 16-6 15-8 35-6 51l1 8c0 2 0 3 1 5s1 3 2 6c0 1 1 3 1 5h-1c-7-16-8-32-7-49 2-12 4-24 10-34 4-6 8-11 13-15 5-6 11-11 17-15z"></path><path d="M1044 915l4-3 1-1c1 1 1 1 1 2v1h1c1-4 9-9 12-11l3 1c-6 4-12 9-17 15-5 4-9 9-13 15-6 10-8 22-10 34l-2-2h-4c2-14 7-30 15-42 2-3 6-6 9-9z" class="I"></path><path d="M1030 1306c16-4 27-11 39-20l42-31c5-4 10-8 16-11-7 10-14 19-22 28-8 7-17 14-26 20-22 15-47 30-73 38-6 2-12 3-18 5v-1l1-1-1-1c24-3 44-17 64-29-7 1-15 5-22 8 3-3 9-4 11-6-4 1-6 2-10 1h-1z" class="E"></path><path d="M448 389h1c0-4 2-5 4-8v14c-1 5-2 12-6 16 0 1-1 2-1 3l-4 8c-1 2-2 3-3 5l-2 3-2 6-1 3-1 1c0 1-1 2-1 3v1c-1 1-1 1-1 2-1 2-2 4-2 6-1 1-2 2-2 3-1 1-2 3-2 4v-1c1-4 1-9 0-12 0-5 0-9-2-14-1-4-3-9-4-13-1-7 3-14 8-20 3-5 9-12 14-12 3 0 5 1 7 2z" class="C"></path><path d="M448 389h1c0-4 2-5 4-8v14c-1 5-2 12-6 16 2-7 5-14 1-22z" class="L"></path><defs><linearGradient id="P" x1="1107.425" y1="1000.832" x2="1118.224" y2="952.285" xlink:href="#B"><stop offset="0" stop-color="#9b999a"></stop><stop offset="1" stop-color="#d0d0d0"></stop></linearGradient></defs><path fill="url(#P)" d="M1069 960c4-4 11-7 16-8 19-5 37-2 53 8l2 1h1c11 7 24 21 29 33h0c-2 2-2 3-2 5l2 4h-2l-6-10c-13-18-28-32-51-36h-1-4c-16-2-28 5-40 15l3 2c-2 2-3 5-5 7-2 0-2 0-3 2-1 3-1 5-4 7-2 16 2 27 10 40l-1-1c-6-7-11-17-11-27v-1l-1-1v4h-1c-5-7-4-21-3-29 1 1 1 2 1 3 1-1 1-2 2-3l1-1c0-1 0 0 1-1 3-3 5-7 8-9l6-4z"></path><path d="M1066 972l3 2c-2 2-3 5-5 7-2 0-2 0-3 2-1 3-1 5-4 7 1-8 3-12 9-18z" class="Q"></path><path d="M369 906l-1-1c-4 0-7-2-10-3 6 0 11 1 17 2 9 2 16 15 25 17-1-3-3-6-5-8-7-9-15-17-22-26l-28-35h-1c-5 2-9 1-14-2-4-3-8-8-9-14-1-3-2-8 1-11 1-2 3-4 6-4 5 0 10 3 13 7 5 4 6 8 6 14 1 2 0 4 1 5 1 4 7 9 9 13l31 40c7 8 14 17 20 26l-1 1 2 2v1l3 3v1c2 2 3 3 4 5l3 2-1 1-10-10-1 1c-6-3-11-8-17-11-5-3-11-5-18-7l-1-2 3-1v-2c-1 0-3-1-4-3l3-1-1-1-3 1z" class="E"></path><path d="M331 831h1c2 0 3 1 5 3s2 5 2 9l-1 1c-3 0-4-1-6-3-2-3-3-5-3-8l2-2z"></path><defs><linearGradient id="Q" x1="782.002" y1="1199.579" x2="770.3" y2="1221.155" xlink:href="#B"><stop offset="0" stop-color="#a2a0a1"></stop><stop offset="1" stop-color="#cbcacb"></stop></linearGradient></defs><path fill="url(#Q)" d="M838 1242c-9-1-19-4-28-7-31-8-59-20-85-38-8-5-17-12-23-19-4-6-5-12-7-18 10 7 19 15 28 23 24 19 52 34 81 44l39 11c5 1 11 2 16 4 1 1 2 1 3 2h1-3c-2-1 0-1-2-1h-3c-2 0-2-1-4-1h-2c-2 0-3-1-5 0h-6z"></path><path d="M1231 482v-4-4c1 3 2 4 4 5l1 1-1-5c1 1 2 1 2 2 2 2 3 2 5 3h1c2 4 8 7 12 8h0l4 5c2 3 2 5 2 8v2c1 4 1 8-1 13-2 8-7 14-12 20-2 3-4 5-7 7h2 1c-4 2-8 4-12 5h-13c2-4 4-7 7-11 6-9 8-17 8-28 0-7-4-10-7-15-2-3-3-6-4-9l1-1c3 2 4 7 6 10v1l1 2c1 1 2 2 2 3 1 4 2 5 5 8l1-2 1 2c3 2 1 6 3 9 1-1 0-3 0-5v-1l-1-5v-1c-1-5-5-10-7-14 0-1-1-2-2-3 0-3-1-4-2-6z" class="J"></path><path d="M1248 536c-2 3-4 5-7 7h2 1c-4 2-8 4-12 5 2-5 11-9 16-12z" class="G"></path><path d="M1235 475c1 1 2 1 2 2 2 2 3 2 5 3h1c2 4 8 7 12 8h0l4 5c2 3 2 5 2 8v2c1 4 1 8-1 13l-1-10c0-4-4-9-7-12l-7-5h-1c-2-1-7-6-8-9l-1-5z" class="C"></path><path d="M1130 368c4 10 6 22 8 32 1 14 1 27-2 41-1 6-4 12-5 18-2 6-2 11-4 17-4 8-9 17-17 22-3 3-7 4-11 6-8 5-20 7-29 9h-16c-16-2-30-8-44-17 3 0 9 4 12 5l8 3c3 0 4 1 7-1 7 1 13 2 21 2l15-2 9-3c22-9 37-31 47-52l1-3c2-8 2-16 3-24l-1-26c0-2 0-5 1-7v3c1 0 1 0 1-1l-4-22z"></path><path d="M1133 421v2c0 3 0 5 1 7l1-1c-1-4 0-7 1-11 0 10-1 20-4 28l-2-1c2-8 2-16 3-24z" class="H"></path><path d="M1037 503c7 1 13 2 21 2h7l1 2h-7c-2 1-4 1-6 1-4 0-10-3-14-2 2 1 4 1 6 2-5 1-11-2-15-4 3 0 4 1 7-1z" class="M"></path><path d="M1132 395c0-2 0-5 1-7v3c1 0 1 0 1-1 2 9 2 19 2 28-1 4-2 7-1 11l-1 1c-1-2-1-4-1-7v-2l-1-26z" class="D"></path><path d="M1130 445l2 1c-1 6-2 12-4 18-2 11-10 25-19 32-3 3-6 4-9 6l-5 3-2-1h0c10-5 17-10 23-19 3-5 8-12 9-18l-1-1 1-2c2-5 4-10 4-16l1-3z" class="I"></path><path d="M1073 503l9-3c22-9 37-31 47-52 0 6-2 11-4 16l-1 2 1 1c-1 6-6 13-9 18-6 9-13 14-23 19h0l2 1c-3 1-6 1-9 1s-5 2-7 2c-7 2-20 4-26 0 2 0 4 0 6-1h7l-1-2h-7l15-2z" class="S"></path><path d="M1058 505l15-2h9c-4 3-11 3-16 4l-1-2h-7z" class="N"></path><path d="M479 340h4c1 4 1 12 0 16-2 5-5 9-2 14l-3 5h-1l-1 1-1-1-1 4 2 1v1c0 2-1 3-2 5-1 3-3 7-5 10 0 2 0 2-1 3v1l-3 5c0 3-2 5-3 8-3 4-5 10-8 14 0 1-1 2-1 3-1 2-3 4-4 7l-3 5-2 4c-2 5-5 9-6 14-2 3-3 6-5 9 0 1-1 4-2 4l-2 2c-1-2-1-2 0-5l-1-1-3 6-2-2 4-13c2-4 6-12 5-17 0-1 1-2 1-3l1-1 1-3 2-6 2-3c1-2 2-3 3-5l4-8c0-1 1-2 1-3 4-4 5-11 6-16 0 1 0 0 1 1 0 1 0 1 1 1 1-1 1-1 1-3h1l1-1c1-1 2-2 3-4s2-5 3-8c4-9 3-16 2-25 3-6 7-13 13-16z" class="E"></path><path d="M468 389l1 7c0 2 0 2-1 3v1l-3 5c-1 0-1-1-2-1l1-2c0-1 1-2 1-4h-1c0-3 3-7 4-9z" class="D"></path><path d="M468 389c3-7 4-12 6-19 0-3 0-5 1-8 0-4-1-10 2-14v1 2c-2 4 0 14-2 19v5l-1 4 2 1v1c0 2-1 3-2 5-1 3-3 7-5 10l-1-7zm-15 6c0 1 0 0 1 1 0 1 0 1 1 1 1-1 1-1 1-3h1l1-1c0 3-2 6-3 8l-6 17c0 2-1 3-2 5-4 5-6 11-8 17l2 2 23-44h1c0 2-1 3-1 4l-1 2c1 0 1 1 2 1 0 3-2 5-3 8-3 4-5 10-8 14 0 1-1 2-1 3-1 2-3 4-4 7l-3 5-2 4c-2 5-5 9-6 14-2 3-3 6-5 9 0 1-1 4-2 4l-2 2c-1-2-1-2 0-5l-1-1-3 6-2-2 4-13c2-4 6-12 5-17 0-1 1-2 1-3l1-1 1-3 2-6 2-3c1-2 2-3 3-5l4-8c0-1 1-2 1-3 4-4 5-11 6-16z" class="B"></path><path d="M441 442c-2 4-4 7-7 11 2-5 3-9 5-13l2 2z" class="C"></path><path d="M1207 383c1-3 1-5 0-7v-2c0-2-1-3-1-5s-1-3-1-5c-1-3-1-6-2-8v-4c1 3 2 4 3 7l1 1c0 1 1 2 1 3l1 2 2 7c0 2 1 4 1 5 2 4 0 10 2 12 1 10 2 19 1 28 0 11-2 22-3 32-4 29-11 55-31 78-18 22-48 39-78 41-21 2-48 1-68-9-6-2-12-5-17-8 2-2 5-2 8-2l12 6c9 3 17 6 26 8 31 5 61-2 86-19 10-6 20-14 27-23 30-38 35-92 30-138z" class="E"></path><path d="M1018 551c2-2 5-2 8-2l12 6h-1c-2 0-3 0-4-1-3-1-5-1-7-1l3 2c3 1 4 1 6 4-6-2-12-5-17-8z" class="K"></path><defs><linearGradient id="R" x1="804.406" y1="1174.472" x2="770.619" y2="1216.874" xlink:href="#B"><stop offset="0" stop-color="#bebcbd"></stop><stop offset="1" stop-color="#f3f3f3"></stop></linearGradient></defs><path fill="url(#R)" d="M853 1238h-1c-9-1-19-4-27-7-43-12-80-31-114-60-5-4-12-10-16-15-2-3-2-7-1-10l5 3v-2l3 3h1v-1c17 14 33 27 51 39 30 19 62 31 96 40 10 3 21 4 32 7h1l6 2-4 1-1 3h-1-3c-1 0-1-1-2-1h-9l-1-1-8-1h-7z"></path><path d="M882 1235h1v2h0c-1-1-2-1-1-2z" class="F"></path><path d="M656 1332c8-2 15-4 22-6 6-2 12-6 19-6l3 1v1c-15 10-33 13-48 21h1c8-4 17-6 25-9l29-12c3-1 6-3 9-4-19 16-44 20-64 34-8 6-15 13-22 20-3 4-8 9-13 10h-1c-3 1-7 2-10 1-5-3-10-12-11-17-1-3-1-5 0-8 2-1 3-2 5-3l10-5c14-6 26-21 41-23h0c4 1 7 1 10 1-1 0-1 0-3 1-2 0-2 1-4 2l1 1h1z" class="E"></path><path d="M461 563h4c9 0 18 2 24 8 8 7 12 18 13 28l-4-2c-3-3-6-5-10-5-11-2-22 2-30 9-24 17-33 41-37 69-2 14-2 29-2 43 0-1-1-2-1-3-2-5-2-12-2-18-4-33-4-75 13-105 8-12 18-20 32-24zM235 759c2 0 2-1 4 0-5 9-8 16-6 27 1 16 10 30 19 43 18 25 38 46 63 63 11 7 22 13 32 21l-14-5-56-25c-26-13-56-33-65-62-5-15-4-32 3-45 5-9 11-14 20-17zm863 207h4c18-1 32 13 43 25-3-2-7-5-10-8v2c2 9 3 17 1 26-2 11-9 18-18 24-4 2-7 4-12 4-10 2-20 0-29-7-8-5-13-14-14-24s2-21 8-29c7-8 16-12 27-13z" class="J"></path><path d="M1095 975c7 0 12 1 18 4 7 4 11 9 14 17 2 7 1 15-2 21-5 8-13 12-21 14-7 0-13 0-20-4-6-4-12-11-13-18-2-7 0-15 3-20 5-8 12-12 21-14z"></path><defs><linearGradient id="S" x1="414.734" y1="1304.14" x2="285.903" y2="1248.086" xlink:href="#B"><stop offset="0" stop-color="#d1d0d1"></stop><stop offset="1" stop-color="#fffefe"></stop></linearGradient></defs><path fill="url(#S)" d="M423 1215c6 1 13 0 20 1l8 1h5l1 2-4 1c-3 0-8 1-12 0l-2 2-30 4c-19 3-39 8-57 17-11 6-21 13-28 23-13 18-18 42-15 63l2 10c-9-7-16-17-18-29-1-9 1-18 4-27 1-4 3-8 4-13h-1c-8 3-15 12-18 20-4 8-4 17 0 26 5 12 15 21 27 27l-8 4-7 3-3 1c-2 1-5 2-8 2v-1h2c-2-1-1 0-2-1l-4-3c-2 0-4-2-6-4h-1c0-3-9-10-11-14l-2-4v-1c-1-4 0-9 0-14 1-2 0-2 0-3l1-1c0-2 0-2 1-3 1-2 1-3 2-5l1-3 7-11 3-6 2-1c0-2 1-2 2-3s1-2 2-3c3-5 9-11 14-15l1-1 2-1 3-3 1-1 5-2c2-2 6-4 8-6 3-2 4-3 7-4l-3-1c6-4 14-7 21-10 9-3 17-4 27-6 7-2 16-3 23-3h10l-2-1 6-1 20-2z"></path><path d="M294 1350l2-2h0l-2-2-6-3 6 1c3 1 5 1 7 3l-7 3zm-15-2c5 1 8 1 12 3-2 1-5 2-8 2v-1h2c-2-1-1 0-2-1l-4-3zm65-119l8-2c-1 2-4 2-5 3-3 1-7 2-10 3-3 2-7 4-11 5l1-1c4-2 8-5 12-6l5-2z" class="D"></path><path d="M339 1228c2 1 3 1 5 1l-5 2c-4 1-8 4-12 6l-1 1c-2 1-3 1-5 1l-3-1c6-4 14-7 21-10z" class="E"></path><path d="M423 1215c6 1 13 0 20 1l8 1h5l1 2-4 1c-3-1-6 0-9-1-7-2-19-3-26-1-6 1-13 1-19 1l-2-1 6-1 20-2z" class="I"></path><path d="M833 1222c-41-12-80-33-113-61-9-7-17-14-25-23l-10-12c1-10 7-16 11-25l1 1c30 41 72 71 119 89 15 5 29 9 44 13l13 3c1 0 4 0 5 1 2 1 1 4 1 6-4 1-9-1-13-1l14 3 4 9-7-2h-4c0 1 5 2 7 4h-9l-1 1h-4c-1-1-3-1-4-1h-1c-5 0-9-2-14-3-2 0-4-1-6-2h-1c-2-1-4-1-7 0z" class="J"></path><path d="M846 1218l1-1c3 0 5 1 7 2v2c-3 0-5 0-8-2v-1z"></path><path d="M988 1335c-6 1-11 3-16 7-4 3-7 6-12 9-1 0-1 1-2 0 0-1 0-2-1-4h-8c-8 1-10 3-14 8-3 1-6 1-9 1-7 0-9-6-13-10-9-1-11 8-19 9-3 0-6-2-8-4-8-7-10-16-10-26 0-6 2-10 7-14 3-4 7-4 12-4 1 1 2 2 3 4l1 3c2 1 4 0 6 0 2-2 2-2 3-5-1-3-3-4-5-6-2-1-2-2-2-5-1-2 1-4 2-5 2-2 6-4 9-3 11 1 14 9 20 16 1 1 1 1 3 1 4-1 6-6 8-9 10 7 22 9 34 12 5 1 9 3 14 2 7 0 13-4 19-6 6-1 14 0 20 0h1c4 1 6 0 10-1-2 2-8 3-11 6 7-3 15-7 22-8-20 12-40 26-64 29l1 1-1 1v1z" class="J"></path><path d="M943 1339c-11-1-21-1-31 0-6 0-11 1-17 3h-1c11-9 39-7 53-5v1c-1 0-2-1-4-1h-6v1h5l5 1h-4z"></path><path d="M947 1337h6c3 1 4 2 6 4v3c-1 0-1 1-3 0-4-1-8-1-13-1-7 1-13 4-20 5 2-4 19-5 20-9h4l-5-1h-5v-1h6c2 0 3 1 4 1v-1z" class="L"></path><path d="M1030 1311c7-3 15-7 22-8-20 12-40 26-64 29-6-1-11-3-17-4l-54-2c-8-1-21 1-28-3l-1-1c11 1 21 0 32 0l29 1c2-1 3-1 4-1h2 2c3 0 4 1 7 0-3-1-6 0-10-2h-1c-8-2-30-1-35-7-1-1-2-2-2-4l3 3c5 3 14 4 20 4l41 2c9 0 18 2 26 1 8-2 16-5 24-8z"></path><path d="M953 1320c9 0 15 1 23 5l-27-2c2-1 3-1 4-1h2 2c3 0 4 1 7 0-3-1-6 0-10-2h-1z" class="C"></path><path d="M651 1174c-3-6-7-13-7-20-1-17 16-53 28-65 2-3 6-5 10-5 3 0 7 2 9 4s4 6 4 9-5 9-7 12c-5 7-7 16-11 23-3 5-8 9-11 14v6 1l3 11c-2 3-1 8-1 11 0 1 1 1 1 2 3 1 6 4 8 7 1 1 2 2 4 3l-3-5 4-1c-2-5-5-9-6-14-2-10-1-17 5-26l3-1c1 0 1 0 2 2v3c-1 4 0 10 1 15 1 4 3 13 7 16 1 0 2 1 3 1 3 7 7 15 12 21 4 5 9 9 13 13 12 10 26 18 40 24 8 3 16 5 24 7 5 1 10 2 15 4-16-1-32-2-47-4-11-2-21-5-31-8-20-4-41-14-55-28-2-2-4-5-6-8 0-1-2-3-2-3-4-3-10-4-14-7 1 0 3 0 4 1h1c-1-1-1-1-1-2v-1c2 2 4 4 6 5l2-2 1 1-8-16z" class="E"></path><path d="M690 1196c0-1 1-2 2-2 5 4 11 8 15 13-5-2-9-4-14-7l-3-4z"></path><path d="M666 1153l3 11c-2 3-1 8-1 11 0 1 1 1 1 2 1 2 2 4 2 6-6-8-6-19-5-30z" class="F"></path><path d="M682 1181l10 13c-1 0-2 1-2 2l-9-9-3-5 4-1z" class="L"></path><path d="M669 1177c3 1 6 4 8 7 1 1 2 2 4 3l9 9 3 4h-1c-3 0-6-3-8-5-4-4-9-7-13-12 0-2-1-4-2-6z" class="B"></path><path d="M660 1132l1-5 1-2c0-1 1-3 2-4 0-3 2-6 4-8v1l-3 8v1c-4 8-5 16-5 24 0 4 1 8 0 12-1 2 0 5 0 7-2-4-3-8-4-12s-1-9 0-13v-1c0-3 2-6 4-8z" class="F"></path><path d="M656 1141v-1c0-3 2-6 4-8l-2 8c-1 6 1 13 1 18-2-1-3-8-3-11v-6z" class="D"></path><path d="M651 1174c3 1 5 4 7 7 3 5 6 10 9 14 7 8 16 14 24 20l19 10c2 1 5 2 7 4-6 0-12-8-18-8-3 0-5-2-7-3l-2-1c-1-1-3-2-4-3s-2-2-4-2c-3-2-7-7-10-7l-2 1 8 6 5 4c4 3 9 6 14 8 3 1 7 2 10 4 1 0 2 1 3 1h1c1 1 2 1 3 1s2 1 3 1h1c2 1 4 2 5 3-20-4-41-14-55-28-2-2-4-5-6-8 0-1-2-3-2-3-4-3-10-4-14-7 1 0 3 0 4 1h1c-1-1-1-1-1-2v-1c2 2 4 4 6 5l2-2 1 1-8-16z" class="G"></path><path d="M1185 313v-1c0-1 0-2-1-4h0c2 2 3 4 5 6h1c13 14 24 29 36 44 8 10 16 21 27 29 6 6 16 10 24 11h13c3 4 4 9 4 14 0 3-1 5-3 7-5 4-20 6-26 5h-1-1c-8-1-16-9-22-14 5 8 11 15 20 20 3 2 5 3 8 5 5 5 10 12 14 18l8 11v9c-1 3-3 6-5 8-2 1-4 1-6 1-6-2-10-8-12-14-2 4-4 8-7 10-5 0-9-4-12-7-7-8-14-21-18-31-4-9-7-19-9-28-2-8-4-16-8-23-2-2 0-8-2-12 0-1-1-3-1-5l-2-7-1-2c0-1-1-2-1-3l-1-1c-1-3-2-4-3-7v4c1 2 1 5 2 8 0 2 1 3 1 5s1 3 1 5v2c1 2 1 4 0 7-3-16-6-31-12-47 4 3 7 8 10 12l12 17c2 2 7 8 8 10l8 9 1-1c-15-15-27-34-39-52-3-6-7-12-10-18z" class="E"></path><path d="M1237 420l6 11c1 1 3 4 4 5-3 1-1 2-3 4-1-1-1-2-2-3-1-2 0-1-1-3-1-1-1-1-1-3l2 1-1-1-3-6-1-1-2-4h2z" class="B"></path><path d="M1205 348l12 17c2 2 7 8 8 10l-1 1-12-15v1c1 3 3 6 4 9l8 14 6 12c2 2 2 4 2 6-4-5-6-11-9-16-4-8-9-17-13-26l-1-1c0-3-2-6-4-8-1-2 0-3 0-4z" class="D"></path><path d="M1237 420l-16-32c-4-8-11-18-11-27 4 9 9 18 13 26 3 5 5 11 9 16 9 20 21 39 36 55-9-4-15-14-21-22-1-1-3-4-4-5l-6-11z"></path><path d="M1207 383c-3-16-6-31-12-47 4 3 7 8 10 12 0 1-1 2 0 4 2 2 4 5 4 8l1 1c0 9 7 19 11 27l16 32h-2l-6-12v-1c-2-2-2-4-3-7-1-1-2-3-2-4l-1-1c-3-5-5-11-9-16-1 7 6 18 7 26 2 7 5 15 7 22 2 4 4 8 3 13-4-9-7-19-9-28-2-8-4-16-8-23-2-2 0-8-2-12 0-1-1-3-1-5l-2-7-1-2c0-1-1-2-1-3l-1-1c-1-3-2-4-3-7v4c1 2 1 5 2 8 0 2 1 3 1 5s1 3 1 5v2c1 2 1 4 0 7z" class="H"></path><path d="M1265 1160h1c0-1 1-2 1-4v-1c3-7 4-15 7-22 1-3 1-6 1-9l1-1c0-3 1-6 3-9v1l1 1v6c-1 2 0 5 0 7-1 2 0 4 0 7 1 17 8 34 21 46 4 4 9 7 15 10-7 6-13 10-22 10-4 0-8-2-10-4-6-7-8-18-10-25 0 7 0 14 2 21 6 17 19 28 18 47 0 5-1 10-5 13-1 2-3 2-4 3-3-1-5-1-7-4-1-2-3-7-6-9-2 4-1 9 0 13 1 3 3 6 3 9 1 7-1 15-4 20-2 3-3 5-5 7-3-4-7-8-10-13-2-3-4-7-6-10-1 3-2 5-1 8 1 5 6 9 6 13 1 1 0 2 0 2-3 4-9 5-13 5-6 0-11-2-15-6-1-2-2-3-3-5v-12c2-2 0-5 1-8l1-2v-2l1-3v-1c0-1 0-2 1-3l2-6c1-6 5-11 6-17 1-2 2-3 2-5l1-1v-2c1-2 2-5 3-7v-1l2-3 4-9 1-3 6-16c1-2 2-3 2-6 1-1 2-3 2-4l4-11c0-2 1-3 2-5z" class="C"></path><path d="M636 970c3-6 4-12 5-18 9 5 15 11 17 21 3 12-5 28-12 38-6 8-13 16-19 24-13 17-19 34-17 54l3 2h4c7-5 5-19 7-27 4-15 15-26 28-33-4 15-11 26-10 42h1v2 7 1c-1 8-8 16-10 24-3 9-2 20 1 30 5 20 13 36 24 52l-2 2c-2-1-4-3-6-5v1c0 1 0 1 1 2h-1c-1-1-3-1-4-1-5-2-9-8-12-12-11-11-21-24-30-37l1-2v-1l-3-11-4-8-1 1h0c1 2 1 3 1 4v3h0c-2-3-3-6-7-7 0 0-1-2-2-3-4-6-8-13-11-20-10-19-20-40-17-62 0-6 1-12 3-17 3-1 4-5 6-7 3-3 8-6 12-8l34-11h0c0-2 0-2-1-3l5-2c7-4 12-8 16-15z" class="E"></path><path d="M615 987l5-2c1 0 2 0 3 1l-7 4h0c0-2 0-2-1-3z" class="N"></path><path d="M620 985c7-4 12-8 16-15 0 5-3 8-6 11-2 2-4 4-7 5-1-1-2-1-3-1z" class="M"></path><path d="M610 1089l3 2h4c1 7 2 13 1 19 1 11 6 22 10 32l-1 1c-5-12-9-24-12-36-2-6-4-11-5-18z" class="H"></path><path d="M613 1091h4c1 7 2 13 1 19-3-5-2-12-5-17l-1-1 1-1z" class="B"></path><path d="M581 1088c2 8 6 20 13 26l-2-5c-2-10-6-18-9-27-8-23-14-54-2-76 1-1 0-1 1-1-1 4-3 7-4 11v1c-3 11-3 24-1 35 4 23 13 44 21 65l-1 1h0c1 2 1 3 1 4v3h0c-2-3-3-6-7-7 0 0-1-2-2-3-4-6-8-13-11-20-10-19-20-40-17-62 1 3 2 5 2 8v3c1 6 3 18 7 24l3 9 1 3v3c1-1 1 0 2-2l1 1 1 1c0 1 1 2 1 3l2 2z" class="H"></path><path d="M564 1016c3-1 4-5 6-7 3-3 8-6 12-8-8 9-9 18-10 30 0 7-1 13 0 20v4c1 3 1 6 2 9 3 5 3 10 4 15 0 3 2 6 3 9l-2-2c0-1-1-2-1-3l-1-1-1-1c-1 2-1 1-2 2v-3l-1-3-3-9c-4-6-6-18-7-24v-3c0-3-1-5-2-8 0-6 1-12 3-17z" class="B"></path><path d="M576 1076c1 1 1 1 0 3l-2 1-1-3 3-1z" class="D"></path><path d="M570 1068v-1l2 4 1-1c-1-2-1-4-2-6 0-2 0-4-1-6v-1l1-1 5 20-3 1-3-9z" class="E"></path><path d="M565 1026c0-7 5-14 10-20-1 4-1 6-2 9l-1-2c-2 4-4 7-6 11 0 1 0 1-1 2z" class="D"></path><path d="M565 1026c1-1 1-1 1-2 2-4 4-7 6-11l1 2c-3 9-2 19-3 28-1 4 1 9 1 13l-1 1v1c1 2 1 4 1 6 1 2 1 4 2 6l-1 1-2-4v1c-4-6-6-18-7-24 1-1 0-4 0-5 1-5 1-9 2-13z" class="C"></path><defs><linearGradient id="T" x1="618.193" y1="1156.071" x2="630.822" y2="1146.689" xlink:href="#B"><stop offset="0" stop-color="#d4d3d3"></stop><stop offset="1" stop-color="#fff"></stop></linearGradient></defs><path fill="url(#T)" d="M602 1125l6 7-2-7c-1-2-1-3-2-5v-1-1h1c0-2 0-3-1-5v-3l2 4c0 3 2 5 3 8l1 1c2 2 2 6 6 8v1 1c1 1 2 2 2 3l5 9 2 3v1c1 1 1 0 2 1 1 3 2 6 4 8 2 4 4 8 6 11 3 4 6 9 9 12 2 2 1 0 2 2l2 3v1c0 1 0 1 1 2h-1c-1-1-3-1-4-1-5-2-9-8-12-12-11-11-21-24-30-37l1-2v-1l-3-11z"></path><path d="M1050 975c4-12 8-20 18-29 12-9 27-13 42-11 24 3 43 15 58 34 22 27 30 63 26 97-3 21-7 40-16 59-13 30-35 56-61 76-8 5-17 13-26 17-2-1-2-1-4 0l-2 2-3 1c0 1-1 1-2 2-1-1-1-1-1-2-2 0-4 1-6 2l-3 2-5 2-2 1c-2 1-3 2-6 1l-2-1c4-2 10-4 13-7l-1-1c-2 0-2 1-4 1l-6 3c-2 1-4 1-4 3l-31 9c-9-3-16-7-24-12l32-8h1 0-4c-8 2-20 6-29 6-3 0-3-2-5-3v-1l53-13v-1l-36 9-18 2c-2-1-2-1-3-3 3-2 8-2 11-3l20-4c56-13 105-42 135-92 4-1 3-9 8-11 0 2 0 2-1 3v1l-1 1c-1 3 0 0-1 2v1l-1 2-1 1-1 1c0 2 0 3 1 5 1-1 2-2 2-3l2-4c1-1 1-2 2-4-1-1-1 0-1-2l1 1 1-2c1-1 1-2 1-2 1-2 1-1 1-2s1-3 1-4c9-22 12-50 7-73-1-7-4-14-7-21h2l-2-4c0-2 0-3 2-5h0c-5-12-18-26-29-33h-1l-2-1c-16-10-34-13-53-8-5 1-12 4-16 8l-6 4c-3 2-5 6-8 9-1 1-1 0-1 1l-1 1c-1 1-1 2-2 3 0-1 0-2-1-3z" class="E"></path><path d="M1170 1003l-2-4c0-2 0-3 2-5 4 8 8 16 10 25l3 13c1 8 1 15 1 22-3-5 0-13-2-18-1-2 0-1-1-3v-2c-1-3-1-5-1-8-1-1-1-3-2-4v-1-2c-2-2-1 0-1-2-1-1-2-5-2-5 0-1-2-1-2-1-1-1-2-4-3-5z" class="M"></path><path d="M1050 975c4-12 8-20 18-29 12-9 27-13 42-11h-1c-4 1-8 1-12 1-7 0-15 3-21 7l-1 1 2 2 1-1c2 0 3 0 5-1h1c1 0 2-1 3-1h2-1c-9 3-19 6-25 13l-1 1-1-1 3-3h-1l-5 7c-2 3-4 6-5 10h3v-1c2-3 4-5 7-7h1c1-2 3-2 5-2l-6 4c-3 2-5 6-8 9-1 1-1 0-1 1l-1 1c-1 1-1 2-2 3 0-1 0-2-1-3z" class="G"></path><defs><linearGradient id="U" x1="1158.317" y1="1043.97" x2="1189.307" y2="1056.369" xlink:href="#B"><stop offset="0" stop-color="#adacae"></stop><stop offset="1" stop-color="#d6d5d4"></stop></linearGradient></defs><path fill="url(#U)" d="M1168 1003h2c1 1 2 4 3 5 0 0 2 0 2 1 0 0 1 4 2 5 0 2-1 0 1 2v2 1c1 1 1 3 2 4 0 3 0 5 1 8v2c1 2 0 1 1 3 2 5-1 13 2 18 1 7-1 13-1 19-3 16-7 34-15 48l-1-1c2-4 4-8 4-12l1-1v-1l1-1c1-2 1-4 1-6l1-1v-1-1c1-1 1-3 2-4v-2c0-1 0-1 1-2v-2l-1 1h-1c-2 1-4 3-4 5h0l-1 2c-2 5-3 9-6 14h-1c-1-1-1 0-1-2l1 1 1-2c1-1 1-2 1-2 1-2 1-1 1-2s1-3 1-4c9-22 12-50 7-73-1-7-4-14-7-21z"></path><path d="M776 1341h-1c-3-5-5-10-6-15-3-15 8-31 19-40 5-4 12-7 16-11 3-2 4-5 6-8-27 7-50 21-64 46-4 9-8 20-17 25-3 1-5 1-9 0-1-2-1-2-1-5 1-17 22-32 34-42-3 5-6 8-9 13-4 5-7 11-10 17-2 3-4 6-5 9 3-2 6-8 7-11l11-16c3-5 6-10 10-14 7-7 16-13 24-19-8 4-16 8-23 13l-30 22c-7 5-15 11-23 11-3 0-7 0-9-2 0-2 0-4-1-5-3 0-7 3-10 4-10 5-23 10-35 7-5-1-10-3-13-8 0-1-1-3 0-4 1-5 6-8 10-10 23-14 53-8 79-13 11-2 22-7 32-12 26-12 51-26 82-25 7 0 15 2 22 3l19 2h7c1 1 3 4 5 5 3 3 6 6 11 7h1v1c-1 1-4 2-4 2-3 1-6 3-8 5-9 6-17 14-22 24s-4 18 0 28c-2 2-4 3-6 3-3 0-6 0-8-1 0-16 3-28 13-41h-1c-8 9-10 18-14 30h0c-5 9-3 28-15 31-2 0-3 0-5-1-3 0-6-1-9 0l-1 2c-1 2-3 6-3 8 1 4 6 6 9 9 3 4 4 10 6 14 1 2 3 3 5 4l1 1c-7 3-17 4-24 4-9-1-18-4-24-12-6-7-6-17-5-26 0-5 1-8 3-13h-1c-1 1-2 1-3 2-4 1-9 3-13 2z" class="J"></path><path d="M796 1327l1 4c0 1-4 6-4 6h-1c-1 1-2 1-3 2-4 1-9 3-13 2 2-2 8-4 11-6 4-2 6-5 9-8z" class="R"></path><path d="M803 1312c3-2 3-5 5-8 1-2 2-4 4-5-2 4-4 8-6 13-2 6-4 14-9 19l-1-4c2-5 4-10 7-15z" class="S"></path><path d="M803 1312c3-17 17-27 30-36 3-2 10-7 13-6 0 1-2 1-3 2-7 4-13 8-19 14-4 4-8 9-12 13-2 1-3 3-4 5-2 3-2 6-5 8z" class="N"></path><path d="M338 1032c1-6 4-12 6-17l2 9c7 18 17 34 26 50 33 55 75 108 127 147-7-1-13-2-19-5-8-4-14-11-21-17l-38-39c-1-1-2-3-3-2 14 17 30 36 48 50h-2c1 2 1 3 3 5 0 1 1 3 2 4h-6l4 2h2l-2 2c-2 0-1 0-2 1h-3-23l2-2c4 1 9 0 12 0l4-1-1-2h-5l-8-1c-7-1-14 0-20-1l-20 2-6 1 2 1h-10c-7 0-16 1-23 3-10 2-18 3-27 6-7 3-15 6-21 10l3 1c-3 1-4 2-7 4-2 2-6 4-8 6l-5 2-1 1-3 3-2 1-1 1c-5 4-11 10-14 15-1 1-1 2-2 3s-2 1-2 3l-2 1-3 6-7 11-1 3c-1 2-1 3-2 5-1 1-1 1-1 3l-1 1c0 1 1 1 0 3 0 5-1 10 0 14v1l2 4c2 4 11 11 11 14h1c2 2 4 4 6 4l4 3c1 1 0 0 2 1h-2v1c-11 2-24-1-34-7-15-9-26-26-29-43-4-20-1-41 10-57 7-10 16-18 26-24 19-11 40-17 62-19 14-1 28-2 42-4-3-2-7-2-10-3-16-3-37-5-49-17-4-4-6-8-6-14 0-8 2-15 8-20 6-7 15-9 24-9 11 1 22 6 32 12 7 3 14 7 20 12 11 6 22 12 33 20 9 6 17 12 26 18 2 1 5 4 8 3 0-1 0-2-1-3-2-4-8-7-11-10-12-9-26-16-37-26-5-5-10-11-14-16-24-29-42-61-58-96l4-4h1c-1 2-1 2-1 4l2-3c-1-3 3-8 5-11 1 3 1 6 2 9 3 7 7 13 10 20h1c-4-8-8-16-10-25-1-2-2-5-1-8z" class="J"></path><path d="M418 1211c7 0 13 1 20 2l5 1v2c-7-1-14 0-20-1h0 8c1-2 3-1 5-1-3-1-6-1-9-1-1-1-1-1-2-1-2 0-4 0-6-1h-1z" class="B"></path><path d="M367 1113h2l2 3v-2h1c2 4 6 6 6 11l-1 2h0l-8-10-2-4z" class="C"></path><path d="M338 1032c1-6 4-12 6-17l2 9c-3 3-2 5-2 9 0 1 0 2 1 3l1 3-1 1c-1-2-2-3-2-5s-1-2-1-3v-1l-2-2v1c-1 1-1 2-2 2z" class="H"></path><path d="M274 1249h2c-9 9-17 20-21 32l-1 1c1-16 10-23 20-33z" class="F"></path><path d="M318 1238h-2c8-4 15-8 24-11 20-7 42-10 63-10l-6 1 2 1h-10c-7 0-16 1-23 3-10 2-18 3-27 6-7 3-15 6-21 10z" class="G"></path><path d="M327 1136c11 1 22 6 32 12 7 3 14 7 20 12-6 0-11-4-16-6-8-4-17-9-25-11h-1c4-1 7 1 10 2l2 1c1 1 3 1 4 2s3 2 4 2c2 1 1 0 3 1s6 4 8 4c-7-6-17-11-26-14l-7-2h-2l-2-1c-2-1-2 0-4-2z" class="H"></path><path d="M259 1326c-1 0-1 0-2-1v-1c-1-3-1-10 0-13v-3c0-1 1-2 1-3v-1l3-6v-1l1-3 2-3 4-7 6-8 3-3c1-3 3-4 5-6 1-2 3-5 5-6s3-2 4-3v-1c1-5 7-8 11-11l1 1-3 3 1 1-1 1-3 3-2 1-1 1c-5 4-11 10-14 15-1 1-1 2-2 3s-2 1-2 3l-2 1-3 6-7 11-1 3c-1 2-1 3-2 5-1 1-1 1-1 3l-1 1c0 1 1 1 0 3 0 5-1 10 0 14v1zm97-113h2c6-2 14-1 21-1 2 0 6 0 8 1-12 2-24 1-36 1-1 1-1 1-2 1-4 1-9 0-12 0-2 2-5 1-7 1-2 1-4 1-6 1l-1 1h-4l-3 1h-1c-1 0-2 0-3 1h-1l-2 1h-1c-1 0-2 0-3 1-1 0-2 1-3 1-6 2-12 5-18 8l-3 2c-1 0-2 1-4 2l-1 1-4 3c-1 0-2 1-3 1l-2 2c-4 2-7 7-11 10h-1v-1c5-4 9-9 14-13l3-2 6-4 2-2 13-6 3-1c1-1 2-1 3-2l8-2 2-1c1-1 1 0 3 0 1-1 1-1 3-1 1-1 1-1 3-1 2-1 4-1 6-1 1-1 4 0 6 0 3-2 11-1 14-1 3-2 9-1 12-1z" class="B"></path><path d="M418 1211c-2 0-4-1-6-1-5 0-10 0-14-1h-9c-4-2-11 0-16 0-1 0-2-1-3-1l-41 1h-3c-3 0-6 0-9 1-2 0-4-1-7 1l-1-1h0c1-1 1-1 3-1 3 0 8-1 11-2 4-1 8 0 12-1h12 3 25 4c7 0 15 0 21 2h10c4 0 8 1 12 1 9 2 19 2 29 4 4 1 8 3 12 4l4 2h2l-2 2c-2 0-1 0-2 1h-3-23l2-2c4 1 9 0 12 0l4-1-1-2h-5l-8-1v-2l-5-1c-7-1-13-2-20-2z" class="F"></path><path d="M467 1219h2l-2 2c-2 0-1 0-2 1h-3v-2c2 0 4-1 5-1z" class="G"></path><path d="M443 1214h5c3 1 5 1 8 3h-5l-8-1v-2z" class="H"></path><path d="M682 237c-4 2-9 5-12 6 7-8 14-15 23-21 6-5 13-12 21-13 9-1 20 2 29 3-3 6-7 10-12 14-13 11-29 16-44 23-35 16-71 32-102 56-10 8-19 15-27 26 8-6 15-12 23-18 3 1 5 1 8-1l4-3c9-2 18-7 27-8 5 0 8 0 12 3 3 2 5 6 6 9l-29 31-1-1c-7-5-16-6-25-4-7 2-14 5-20 9-2 1-3 2-4 3h-1c-2 1-2 2-3 2l-4 3c0 2 0 2-1 3l1 1 1-1c1-1 2-1 4-2h1c1-1 1-1 2-1s2-1 3-1v-1l9-3c6-3 19-2 25 2 1 0 1 0 1 1 0 3 0 4-2 7-2 0-3-1-4-1-9-4-20-3-29 1 3 0 6-1 9-1 8-1 16-1 23 2l-8 9c-6-2-12-5-19-4 4 1 7 1 10 2h1c3 1 6 3 8 4-3 5-5 8-6 14-6-6-11-11-19-11-4-1-8 1-11 2 4 0 7 0 10 3h1c4 4 8 8 9 14v2l-3 6h-1l-1-3v2c0 5-2 8-4 11-4-6-7-11-14-13-9-3-24 1-32 6-8 6-17 13-24 20 11-6 26-16 39-12 5 2 13 5 15 10 1 1 1 0 1 2v1c0 4-3 7-6 10-6 5-15 10-23 11-6 1-13 1-20 2-12 3-24 10-32 19 10-7 20-15 34-12 6 1 11 5 14 10 2 3 3 8 4 12-7 1-14 3-20 6-9 4-17 11-25 17-8 5-17 8-25 13-6 4-12 9-16 15v1c11-10 27-22 42-21 8 0 16 3 21 9 4 5 8 11 8 18 0 4-2 8-6 11-2 2-2 2-5 2l-9-9c-5-3-16-2-21-1-10 1-19 4-27 8-8 7-12 14-16 24-12 30-9 61-8 93-3-5-4-14-6-20-4-22-6-46 0-68 2-10 5-19 7-29l2-20c1-16 2-33 6-49 0 2 0 3 1 5l1 4c1-4 1-10 2-15l2 2 3-6 1 1c-1 3-1 3 0 5l2-2c1 0 2-3 2-4 2-3 3-6 5-9 1-5 4-9 6-14l2-4 3-5c1-3 3-5 4-7 0-1 1-2 1-3 3-4 5-10 8-14 1-3 3-5 3-8l3-5v-1c1-1 1-1 1-3 2-3 4-7 5-10 1-2 2-3 2-5 1-3 3-6 5-9 3-5 5-11 8-16 2-7 2-14 4-21 2-10 7-15 13-22 4-4 7-7 11-10 2-1 5-4 7-4 0 11 3 22 1 32v1h1c4-9 0-23 0-33l4-2 1 1c0 3 0 7 1 10 1 7 5 13 3 20-1 9-13 21-18 28l-18 28c-6 7-12 15-16 23 3-3 6-7 9-11l17-20 37-44c8-9 17-17 26-24 5-5 10-10 16-14l13-9c16-11 32-22 49-31l59-27 21-9v-1l-7 3-17 6-19 9c-1 0-5 2-5 2z" class="E"></path><path d="M420 494c1 1 0 1 1 1 2-5 3-10 6-14l1 1-7 21c-1-3-2-6-1-9z" class="I"></path><path d="M556 384c-2-1-4-2-5-3-2-2-3 0-5-2 1-1 2-1 4-1 4 0 7 0 10 3h1c-2 2-3 2-5 3z" class="D"></path><path d="M462 452c1 2 1 3 0 5-5 7-10 15-15 22 0-2 2-5 3-7 3-4 6-9 8-14 2-1 3-4 4-6z" class="H"></path><path d="M561 381c4 4 8 8 9 14v2c-3-5-8-11-14-13 2-1 3-1 5-3z" class="B"></path><path d="M444 476l2-3c1-1 0 0 1-2l2 1c2-2 4-6 6-9 1-2 1-3 3-5-2 5-5 10-8 14-1 2-3 5-3 7-2 4-4 7-8 9 1-3 5-8 5-12z" class="D"></path><path d="M423 473l2 2 3-6 1 1c-1 3-1 3 0 5l2-2-3 9-1-1c-3 4-4 9-6 14-1 0 0 0-1-1l1-6c1-4 1-10 2-15z" class="G"></path><path d="M427 504h2c-4 10-9 19-12 29-2 4-2 9-3 13-1 0-2 2-3 2l2-20c1 1 1 3 1 4l1-1c2-3 3-6 4-9l2-4c1-5 4-9 6-14z" class="F"></path><path d="M418 572c-1-2-1-4 0-5v-1c4-12 12-23 22-30l1 1c-2 2-8 6-9 9l2 2c-8 7-12 14-16 24z" class="I"></path><path d="M682 237l-1-1 1-1c2 0 1 0 2-1 9-6 18-10 28-14v1l-5 2c1 1 2 0 3 0v-1h2l1-1h3l1-1h1l1-1 4 1-17 6-19 9c-1 0-5 2-5 2z" class="B"></path><path d="M542 370h1 0c-4 4-10 6-14 10-10 8-19 19-28 27h-2c13-14 26-29 43-37z" class="D"></path><path d="M462 452c9-15 21-29 33-41l1 1c-7 8-14 16-20 24-5 7-7 15-14 21 1-2 1-3 0-5z" class="B"></path><path d="M430 495c0-1 1-3 2-5 3-7 8-13 12-20 6-11 11-21 18-31h0l-9 17c-2 4-6 11-7 15-1 1-1 2-1 3-1 1-2 2-2 4v-1l1-1c0 4-4 9-5 12-3 4-5 8-8 12 0 1-2 4-2 4h-2v-1c2-3 2-5 3-8z" class="I"></path><defs><linearGradient id="V" x1="411.072" y1="505.953" x2="422.008" y2="509.83" xlink:href="#B"><stop offset="0" stop-color="#a6a6a7"></stop><stop offset="1" stop-color="#cccaca"></stop></linearGradient></defs><path fill="url(#V)" d="M419 479c0 2 0 3 1 5l1 4-1 6c-1 3 0 6 1 9l-3 16h1s0-1 1-2v-1c2-5 6-10 6-15-1 2-2 4-3 5-1 2-1 3-2 4v-2c-1-1 1-3 2-4l7-9c-1 3-1 5-3 8v1c-2 5-5 9-6 14l-2 4c-1 3-2 6-4 9l-1 1c0-1 0-3-1-4 1-16 2-33 6-49z"></path><path d="M459 480l2 1c-6 7-14 14-20 23l23-17h1c-4 4-10 8-15 12-4 4-9 9-12 13-1 1-1 3-2 5-2 2-5 5-6 7-3 3-5 7-7 11l-7 12h0v-2c2-3 2-6 3-9s2-5 3-7l2-2 3-6v-1c2-3 3-7 4-10h1c-1 1-1 3-1 4l4-4h1c2-1 4-4 5-6l-2 1c0-2 1-2 2-3l2-2c1-3 3-4 5-7-1 0-2 2-4 2 1-3 5-6 7-8 1-1 2-2 4-3 2 0 3-2 4-4z" class="H"></path><path d="M981 999c-8-29-1-65 13-90 16-28 44-46 74-55 38-11 80-3 113 16 32 18 57 44 74 77 3 5 6 11 8 17l1 2c2 10 6 19 9 29 8 29 12 60 11 90 0 17-2 34-4 51 0-3-1-5 0-7 0-2-1-5 0-7v-6l-1-1v-1c-2 3-3 6-3 9l-1 1c0 3 0 6-1 9-3 7-4 15-7 22v1c0 2-1 3-1 4h-1c-1 2-2 3-2 5l-4 11c0 1-1 3-2 4 0 3-1 4-2 6l-6 16-1 3-4 9-2 3v1c-1 2-2 5-3 7v2l-1 1c0 2-1 3-2 5-1 6-5 11-6 17l-2 6c-1 1-1 2-1 3v1l-1 3v2l-1 2c-1 3 1 6-1 8v12c-2-5-3-9-4-13-1-9 0-19 3-28s8-17 12-26c3-7 5-15 6-22-6 9-8 21-14 30-22 38-59 68-95 91-58 36-127 60-194 70-17 2-34 3-51 4l-32 1c-9 0-18 0-27-2 6-1 11-4 17-6 7-1 18 0 26 0l45-3c32-3 64-9 95-18 15-5 30-11 45-16 31-12 60-27 87-46l-1-1c-10 7-20 14-32 20-35 19-73 33-111 44-11 3-23 6-34 7v-4l2-2c-5 0-10 1-14 2h3c1 2 1 3 2 4l1 1c-5 3-12 3-17 4-31 5-62 6-93 5-1-1-2-2-2-4 0-1-1-1 0-3h55l46-6h0l-38 4c-5 1-10 1-15 1-16 0-32 0-49-1-2-1-2-3-3-5v-1c51 3 101-3 149-16 34-8 66-22 97-38 25-13 50-27 72-45 9-8 18-17 26-25 7-8 15-16 21-26l-12 5c-3 0-3-1-4-3 1-3 12-10 15-13 18-14 30-32 39-53-1 1-1 0-2 1-6 11-18 19-30 22-3-1-5-3-7-5l1-1 2 1c1-1 3-1 3-2 1-2 2-2 2-4l-3-1-2 1v-1c0-1 1-1 2-2 2-1 4-1 6-1s2 0 3-1c-1-1-1-2-1-3h-1c1-3 6-4 9-6 2-2 4-4 7-6-3-4-6-8-6-12 2-4 9-5 13-8s4-11 5-16c4-18 3-36 5-54 1-9 2-22 0-31l-4-25c-2-5-10-34-14-37 0 6 5 14 7 19 4 12 8 25 10 37v3c3 16 1 34-3 49l-7 19c-7 22-17 46-31 65-12 15-24 32-37 46-20 20-44 35-69 45-14 6-29 10-42 17-7 4-12 10-20 14-6 4-13 4-20 7-13 5-24 14-37 16-4 1-7 0-10-2-2-2-4-4-4-7 0-4 1-7 4-10 4-4 9-8 15-10-11-1-21-1-31 3-4 1-7 3-10 5-4 2-11 8-14 8-2 1-3-1-4-2-3-3-5-8-5-13 1-5 5-10 9-13 3-2 6-2 9-3-3-1-8-1-11-1-9 1-19 7-28 5-9-3-13-11-17-19 8 0 18 2 24-4l-17-7c-6-4-10-10-12-18-1-7 2-16 6-22l17 15c4 4 7 8 12 11 4 3 10 5 15 7h0c-1-1 0-1-2-1-8-5-15-12-21-20-2-4-4-8-5-12 0-6 0-11 4-15 5-6 15-8 23-7 3 0 6 1 10 0 1 0 1 1 2 1v3c-1 6-2 15-1 21l1 1c0 3 2 6 3 9 5 6 13 15 20 17 2-1 3-1 4-1l15 11h1l-8-8h0l-1 1c-4-3-7-6-11-9-3-3-7-5-10-8-4-4-4-9-4-13 1-5 3-9 6-12 7-5 14-4 22-2 3 1 6 3 9 3h1c0 1 1 1 0 3-1 1-2 2-3 4-4 6-4 15-2 22 3 11 14 19 24 24 19 11 38 14 58 8 39-12 81-35 107-68 5-7 10-15 14-23 2-5 4-9 7-13 3-3 4-6 5-9l11-44c6-38 5-76-14-112-3-6-7-12-11-18-19-20-41-32-69-34-18-1-40 5-54 18-12 11-18 26-19 42-1 19 6 38 19 52 7 8 17 13 28 14l-2-2c4 0 7 1 10-1h3v1 2h1c5 0 10-1 14-4 16-7 22-20 27-36l-1 9c-1 12-8 23-17 31-11 8-24 10-38 8-16-2-30-11-40-23l-2 3h-1v1c-6-6-10-13-13-20h1c0-2-1-4-1-5-1-3-1-4-2-6s-1-3-1-5l1-1v2c1 1 1 0 1 2 0 1 1 2 1 3 2 1 1 1 2 1-3-17-2-31 1-47l5-12c-2-2-1-2-1-4v-1c-1-1 0-3 1-5l-1-1 6-10-1-2c5-7 13-15 21-21 4-2 8-4 12-7-4 1-8 4-12 6l-3-1c-3 2-11 7-12 11h-1v-1c0-1 0-1-1-2l-1 1-4 3c-4 2-8 6-12 9l-5 9v-1c0-3-1-4-1-6l-2 3c-2-1-2-1-3-2-1 2-5 9-4 11-6 18-9 35-6 55-1 4-2 4-6 6-2-7-4-19-3-27v-3h-1 0c1-3 1 0 1-3v-10c-1 2-1 3-1 6l-1 1v2c0 2 1 4-1 6l1 5v1c0 2-1 5-1 7 1 2 1 2 1 4v3h1c0 2-1 3 1 4 0 2-1 3 0 4 0 1 0 0-1 1l-3 2-1 1c-1-4-3-8-2-12l-1-1v-5l-1-1v-1-9c-2 0-2 0-3 2h0v12h0c1 3 0 5 1 7 0 1 0 2 1 3 0 2-1 3 1 4 0 1-1 2 0 3v1l1 1v1c1 1 1 3 2 4l1 4 2 3c1 2 2 3 2 4l2 2c1 2 1 3 2 4-1 2-2 4-4 5l-2-2c-2-3-5-6-7-10-2-3-4-6-5-10 0-2-1-3-2-5l-1-3v-2c0-1-2-2-3-3z" class="E"></path><path d="M1002 1259h3l1 1h-4v-1z" class="B"></path><path d="M935 1170l1 1c0 2-1 3-1 5h-1c0-2 0-4 1-6z" class="D"></path><path d="M914 1194c0 3 1 5 2 7 0 1 0 2 1 3-2-1-3-1-4-2l-1-1v-1c-2-2-1-2-1-4l2 2 1-4z" class="C"></path><path d="M929 1174c-1 6-1 12 0 17v1c1 3 2 6 2 9-1-2-2-5-3-7-1-5-2-16 1-20z" class="H"></path><path d="M1100 1045h3v1 2h1c-3 1-8 1-12 0l-2-2c4 0 7 1 10-1z" class="L"></path><path d="M993 937v1c1 4-1 7-1 11 1-2 1 0 1-3 1-1 2-3 3-4l-4 14-1 6c0-9-1-17 2-25z" class="K"></path><path d="M933 1255c2-1 5-1 8-1l24 2h15l-1 1c-6 0-14-1-21 0-4-1-10-1-14-1-3-1-8-1-11-1z" class="I"></path><path d="M1279 1074c1 3 1 6 0 9-1 5 0 9-1 13l-3 10-6 19v1c-1 1 0 1-1 1 0-3 1-5 1-7 3-8 6-16 8-25 0-4 0-8 1-12 1-3 1-6 1-9z" class="B"></path><path d="M1229 1010h2v1l2 2c1 6 4 16 1 21v-1 1c-1 1-1 2-1 3l-4-27z" class="I"></path><path d="M1171 919l6 5 6 4-4 4-12-8 1-1-3-3h1c2 1 3 0 5-1z" class="L"></path><path d="M1201 1130l3-2c1-2 4-4 5-6s1-3 3-4c-2 5-4 10-7 14-2 3-4 5-6 8-3 4-4 10-8 11l-2 1c2-5 4-9 7-13 3-3 4-6 5-9z" class="B"></path><path d="M980 1256c8 0 14 1 22 3v1c-10-1-24-1-33 1-5 1-9 2-13 3-3 1-6 2-9 2v-1c2 0 3-1 4-1l4-1c1-1 2-1 3-1l5-1 2-1h4c6-1 11-1 16-1l1-1c-8 0-17-1-24 0-1 1-3 0-4-1 7-1 15 0 21 0l1-1z" class="G"></path><path d="M914 1194c-1-2-1-3-1-5 2 5 3 10 6 14 2 3 5 5 7 7 1 1 3 4 5 5h1l2 1c1 1 1 1 2 1l2 1c-1-2-4-5-6-7h-1v-1l-1-1c-1-1-1-2-2-3v2c-2-1-2-3-3-5 0-2 0-4-1-5-3-5-5-15-3-20l1-1c-1 5-1 9 1 15 2 4 5 9 6 13 2 5 8 9 12 13 1 2 2 3 3 4-4-2-9-4-13-5s-7-6-10-8c0-2-1-3-2-4l-1-1v-1l-1 1c-1-1-1-2-1-3-1-2-2-4-2-7z" class="D"></path><path d="M1030 1001l1-1v2c1 1 1 0 1 2 0 1 1 2 1 3 2 1 1 1 2 1 4 9 7 17 14 25l-2 3h-1v1c-6-6-10-13-13-20h1c0-2-1-4-1-5-1-3-1-4-2-6s-1-3-1-5z" class="Q"></path><path d="M1067 868c12-2 25-4 38-4 16 0 33 3 47 9 2 0 3 1 4 2v1l-30-9c-11-2-24-2-35-1-9 2-17 4-25 6v-1c1 0 0 0 1-1h1 2 1v-1l-4-1z" class="F"></path><path d="M1026 904c9-8 17-14 27-19 4-2 7-4 11-5 6-1 12-3 17-5 3 0 6 0 9-1l1 1-1 1-11 2c-8 2-17 6-24 10-5 2-10 4-15 8-2 1-4 2-7 3-2 2-4 5-7 5z" class="K"></path><path d="M1265 1160v-3l2-5 1-3 7-26c1-4 3-8 4-13s1-10 3-15c1-3 1-7 2-10 0 17-2 34-4 51 0-3-1-5 0-7 0-2-1-5 0-7v-6l-1-1v-1c-2 3-3 6-3 9l-1 1c0 3 0 6-1 9-3 7-4 15-7 22v1c0 2-1 3-1 4h-1zm-355 42c2 1 4 2 5 4l7 7c1 1 3 3 5 4l1 1c1 0 2 1 3 1 2 1 3 2 5 3 3 0-1-1 2 1h2l1 1h1l1 1 1-1 1 1h1c1 1 3 1 5 2h0c-1-1-2-2-3-2l-6-3c-2-1-2-1-4-1l-2-1-1-1c-2 0-3-1-4-2 4 1 9 3 13 5 6 2 11 4 16 8 1 0 1 0 2 1 2 0 4 1 6 2 2 0 3 1 4 2-1 1 0 1-2 0-1 0-2 0-3-1l-4-1-5-1-2-1c-7-1-17-4-23-8h0c-1-1 0-1-2-1-8-5-15-12-21-20z" class="I"></path><path d="M1210 1155v-4c0-2 2-5 3-7l9-15c4-8 8-17 11-25 1-3 3-9 5-12 0 0 2-2 3-2-7 22-17 46-31 65zm-184-251c3 0 5-3 7-5 3-1 5-2 7-3-2 4-4 6-8 8-4 3-8 9-11 13-1 3-4 4-5 7l-1 2c-2 4-4 7-5 11-1 2-1 3-2 5l-1 3v1c-1 1-1 2-2 3l1-6 1-1v-2c1-2 1-3 1-6v-3c0-2 1-4 2-6 4-8 10-16 16-21zm125-14c13 5 24 13 34 22 9 8 20 19 27 30h-2c-1-1-1-2-2-3-2-2-4-5-6-7l-1-1c-6-10-17-17-25-25-3-3-8-5-11-7l-3-2-2-1c-1-1-2-1-3-1l1 1c2 1 4 2 6 4 2 1 4 3 6 4 2 0 3 2 5 3 5 5 10 9 15 14l1 1c1 1 1 2 2 3l3 3 3 5 5 6c0 1 1 2 2 3l1 3-8-9-2-3c-1-2-3-4-4-5v-1c-2-3-12-14-16-15 0-1-1-2-2-3l-1-1-2-1-6-4-3-2h-1l1 2-1 1 1 1v2c-2-2-4-4-7-5-3-2-7-5-11-6l-1-1c-2 0-4-1-6-1v-1h6l3 1c2 1 4 2 6 2l1-1-1-1h0l1-1c-1-1-2-1-3-3z" class="B"></path><path d="M1040 1263c2 0 3-1 4 0l-1 1v1c1 0 2 0 3-1h1l1 1v1c-1 0 0 0-1 1 0 1-1 3-1 4h-1c-1 1-2 2-3 2l-1 1h0-2l-1 1-2 1-6 1-2 1c-2 0 0-1-2 0l-1 1h-1l-1 1h-3c-1 1 0 1-2 1l-4 2c-1-2 0-2 0-3l-9 5h-1c-1 0-1 0-2-1l8-5c0-1 1-1 2-2l6-3 7-3h1c1 0 2-1 3-1h1l2-2h1c1-1 3-1 4-2h1c-2 0-2 0-4 1-2-2-5 0-8-2 2-1 2 0 4 0 2-1 4-1 6-1 1-1 2-1 4-1z" class="C"></path><path d="M1186 909c31 30 58 71 59 116 0 13-1 27-5 40v-6c6-41-1-81-26-115l-2-2h0c-7-11-18-22-27-30l1-3z"></path><path d="M1090 874h5c7-1 17-1 24 0l3 1c25 5 45 16 64 34l-1 3c-10-9-21-17-34-22-4-2-9-3-13-5-14-4-31-6-45-4l-18 4 2-1c3-2 8-2 12-3 16-3 30-3 45 1l3-1h0v-1c-2-1-5-2-7-3-13-3-27-4-39-2l-1-1z" class="O"></path><path d="M1137 880c10 3 19 7 28 14-10-5-20-10-31-12l3-1h0v-1z" class="B"></path><defs><linearGradient id="W" x1="993.678" y1="907.132" x2="1069.374" y2="909.993" xlink:href="#B"><stop offset="0" stop-color="#a7a6a5"></stop><stop offset="1" stop-color="#c6c5c7"></stop></linearGradient></defs><path fill="url(#W)" d="M993 937c1-7 5-15 9-21 14-25 37-40 65-48l4 1v1h-1-2-1c-1 1 0 1-1 1v1c-5 2-10 3-14 6-23 11-42 28-51 52-1 2-3 11-5 12-1 1-2 3-3 4 0 3 0 1-1 3 0-4 2-7 1-11v-1z"></path><path d="M1183 928c15 12 25 28 34 45 2 5 4 11 6 16 1 3 5 19 6 21l4 27c-1 10-1 20-4 31v-16c1-7 1-14 0-21-4-37-21-75-50-99l4-4z"></path><path d="M1163 907v-2l-1-1 1-1-1-2h1l3 2 6 4 2 1 1 1c1 1 2 2 2 3 4 1 14 12 16 15v1c1 1 3 3 4 5l2 3 8 9c9 12 15 25 20 39 2 6 4 13 5 20 0 2 0 4 1 6v3l-2-2v-1h-2c-1-2-5-18-6-21-2-5-4-11-6-16-9-17-19-33-34-45l-6-4c0-3-2-5-5-7h1l-10-10z" class="K"></path><path d="M1223 989h1l1 2h1v-2h1c0 2 0 2 1 3 0 2 0 2 1 3v2 3 2l3 2c0 2 0 4 1 6v3l-2-2v-1h-2c-1-2-5-18-6-21z" class="F"></path><path d="M1163 907v-2l-1-1 1-1-1-2h1l3 2 6 4 2 1 1 1c1 1 2 2 2 3l1 1c2 4 8 9 12 12l-1 2c-4-1-8-4-11-7-2-1-3-3-5-3l-10-10z" class="H"></path><path d="M1064 914c6-5 15-9 22-11h1c17-5 40-2 57 5 6 2 11 6 16 8l6 4h-1l3 3-1 1c-24-13-52-22-79-13-21 6-37 19-47 38-2-2-1-2-1-4v-1c-1-1 0-3 1-5 5-9 14-19 23-25z"></path><path d="M1041 939c5-9 14-19 23-25v2c2 0 2-1 4-1v1c-8 5-15 11-22 19-2 3-4 6-6 10v-1c-1-1 0-3 1-5z" class="K"></path><path d="M1064 914c6-5 15-9 22-11h1c17-5 40-2 57 5 6 2 11 6 16 8l6 4h-1c-7-3-15-8-23-10-7-3-14-4-21-5-19-3-37 3-53 11v-1c-2 0-2 1-4 1v-2z" class="P"></path><defs><linearGradient id="X" x1="1080.31" y1="954.613" x2="1044.533" y2="893.693" xlink:href="#B"><stop offset="0" stop-color="#c1c0c1"></stop><stop offset="1" stop-color="#edecec"></stop></linearGradient></defs><path fill="url(#X)" d="M1091 875c12-2 26-1 39 2 2 1 5 2 7 3v1h0l-3 1c-15-4-29-4-45-1-4 1-9 1-12 3l-2 1c-2 2-4 2-7 4-2 1-3 0-5 1h-1l-2 1-4 2c-2 1-4 2-6 4v1c-3 2-6 4-8 6-5 4-9 8-12 13-2 3-4 5-4 9l-2 3c-2-1-2-1-3-2-1 2-5 9-4 11-6 18-9 35-6 55-1 4-2 4-6 6-2-7-4-19-3-27v-3h-1 0c1-3 1 0 1-3v-10c1-2 1-3 2-4 0-1 0-2 1-3s1-2 2-3v-1l1-3c1-2 1-3 2-5 1-4 3-7 5-11l1-2c1-3 4-4 5-7 3-4 7-10 11-13 4-2 6-4 8-8 5-4 10-6 15-8 7-4 16-8 24-10l11-2 1-1z"></path><path d="M1021 927c5-11 18-24 29-30v1c-3 2-6 4-8 6-5 4-9 8-12 13-2 3-4 5-4 9l-2 3c-2-1-2-1-3-2z" class="N"></path><path d="M1187 956l2-1-4-4 1-1c6 4 11 11 16 17l1 3c2 2 4 6 6 9l3 6c1 3 3 6 3 10l5 12v3l1 1v3l1 3 1 3v5l1 1c0 2 0 4 1 6 0 3-1 6 0 9 0 2 1 6 0 8 0 8 0 16-2 23v5c-2 6-2 12-4 17-1 9-4 16-7 24-2 1-2 2-3 4s-4 4-5 6l-3 2 11-44c6-38 5-76-14-112-3-6-7-12-11-18z" class="G"></path><path d="M1156 875c22 7 38 22 55 37 6 4 11 9 16 14 10 12 20 27 27 41 18 39 20 85 15 127-1 10-2 21-5 30-1 2-2 3-4 4-1-1-2-2-2-5-1-4 0-9 1-14l3-38c1-25 0-51-7-76-6-18-14-35-24-51-9-16-18-29-31-41s-28-22-44-27v-1z"></path><path d="M1075 885l18-4c14-2 31 0 45 4 4 2 9 3 13 5 1 2 2 2 3 3l-1 1h0l1 1-1 1c-2 0-4-1-6-2l-3-1h-6v1c2 0 4 1 6 1l1 1c4 1 8 4 11 6 3 1 5 3 7 5l10 10h-1c3 2 5 4 5 7l-6-5c-2 1-3 2-5 1l-6-4c-5-2-10-6-16-8-17-7-40-10-57-5h-1c-7 2-16 6-22 11-9 6-18 16-23 25l-1-1 6-10-1-2c5-7 13-15 21-21 4-2 8-4 12-7-4 1-8 4-12 6l-3-1c-3 2-11 7-12 11h-1v-1c0-1 0-1-1-2l-1 1-4 3c-4 2-8 6-12 9l-5 9v-1c0-3-1-4-1-6 0-4 2-6 4-9 3-5 7-9 12-13 2-2 5-4 8-6v-1c2-2 4-3 6-4l4-2 2-1h1c2-1 3 0 5-1 3-2 5-2 7-4z" class="I"></path><path d="M1172 917l-3-2-4-3c-4 0-8-4-11-5l-9-4c-4-2-7-3-11-5-2 0-5-2-7-2l-1-1h-1-2c-2-1-2-1-4-1-1 0-2-1-2-1v-1h1 3c1 0 1 0 2 1h1 2c2 1 4 2 6 1h2 4c2 0 4 1 6 1l1 1c4 1 8 4 11 6 3 1 5 3 7 5l10 10h-1z" class="P"></path><path d="M1046 928l1-2c12-15 33-24 51-27 19-3 41 4 57 12 6 2 11 5 16 8-2 1-3 2-5 1l-6-4c-5-2-10-6-16-8-17-7-40-10-57-5h-1c-7 2-16 6-22 11-9 6-18 16-23 25l-1-1 6-10z"></path><defs><linearGradient id="Y" x1="1090.832" y1="914.003" x2="1084.618" y2="883.67" xlink:href="#B"><stop offset="0" stop-color="#c2c1c2"></stop><stop offset="1" stop-color="#ebeaeb"></stop></linearGradient></defs><path fill="url(#Y)" d="M1075 885l18-4c14-2 31 0 45 4 4 2 9 3 13 5 1 2 2 2 3 3l-1 1h0l1 1-1 1c-2 0-4-1-6-2l-3-1c-1 0-2-2-3-2s-2 0-3-1c-2 0-2 0-3-1-2 0-2 1-3 0-2 0-3 0-4-1-2 0-2 0-4-1h-1c-3 0-7 0-10-1-5-1-13 0-18 1l-4 1c-3 1-5 1-8 1l-3 1c-1 0-2 1-3 1h-1c-1 1-2 1-3 2-1 3-2 3-5 5l1 2c2 0 2-1 3-2 2 0 3 0 5-1h2l1 1h-2c-4 1-8 4-12 6l-3-1c-3 2-11 7-12 11h-1v-1c0-1 0-1-1-2l-1 1-4 3c-4 2-8 6-12 9l-5 9v-1c0-3-1-4-1-6 0-4 2-6 4-9 3-5 7-9 12-13 2-2 5-4 8-6v-1c2-2 4-3 6-4l4-2 2-1h1c2-1 3 0 5-1 3-2 5-2 7-4z"></path><path d="M1032 924c0-1 1-2 1-3v-1c2-3 9-10 11-12 2 0 3-1 4-2s2-2 3-2l1-1 4-2c3-2 7-4 10-6 3 0 4-1 7-2-1 3-2 3-5 5l1 2c2 0 2-1 3-2 2 0 3 0 5-1h2l1 1h-2c-4 1-8 4-12 6l-3-1c-3 2-11 7-12 11h-1v-1c0-1 0-1-1-2l-1 1-4 3c-4 2-8 6-12 9z" class="F"></path><path d="M408 926l52 59c-6-13-14-24-21-36l-50-79c-11-16-22-34-36-48-4-5-10-10-15-14-8-5-21-10-27-17-2-3-2-8-1-11 1-7 4-12 10-16 8-5 19-8 29-6 15 3 29 23 38 36-2-10-6-20-11-28-6-10-13-16-24-19-5-2-16 0-20-3-4-2-6-7-6-11 0-5 2-10 5-13 4-4 9-5 15-5 11 1 17 10 24 17-1-3-3-7-5-10-7-9-15-16-21-26-7-15-7-33-11-49-3-11-8-23-12-34-8-24-14-47-14-72-1-12 0-23 4-34 4-14 13-24 26-30 11-5 25-7 37-2 10 4 21 11 25 22 8 18 8 43 0 62v1l-4 6c-1-6-2-13-6-18-2-3-6-5-10-6-9-1-17 4-24 10l-5 7c-4 9-6 19-3 28s13 15 19 22c7 7 13 15 18 23 10 18 15 40 20 59 4 15 8 31 9 47s0 33 2 48c2-11 2-22 12-30 5-4 12-6 18-5 5 1 13 4 16 7 1 4 3 18 0 20-3 4-7 8-9 12-5 6-6 14-7 21-1 3-2 8-2 11l1 1v-2c2-5 4-11 10-13 6-3 14-2 20-2-5 11-9 23-6 35 2 6 7 12 11 18 5 9 10 18 13 28 5 13 9 27 13 40l10 38 7 37c1-23-1-46-2-69 0-34 2-67 7-101 2-14 4-28 8-41 3-8 9-17 15-23 17-16 45-23 67-24 5 4 13 5 18 9 5 2 10 8 15 9v1c9 13 11 25 10 40-11-6-22-10-35-6-7 3-13 7-18 11h1c2 0 4-1 7-2h7c0 1 0 1-1 3-4 9-8 13-16 19h0c-1 2-2 5-3 6-1 2-5 4-7 5-4 3-8 6-11 10-13 15-19 36-24 56 2-4 4-8 5-13 5-11 9-22 16-32 6-9 14-16 24-20 15-6 30-8 46-7 5 0 11 0 16 2 3 1 6 4 7 7s1 6-1 9c-4 8-7 12-8 21 0 4 0 8-2 12-2 7-6 12-10 18-3 5-4 11-9 15-3 4-8 6-13 7l-9 2c-1-2-3-4-3-6 6-2 10-3 14-7 1-2 1-3 0-4-2-3-6-4-10-4-10-1-20 9-27 16-15 14-25 33-33 52-5 13-9 25-12 39-1 8-3 15-3 23 0 32 13 61 35 84 4 3 8 6 13 9-4 1-7 1-11 3-1 2-1 3 0 5 1 6 5 11 8 15 8 11 16 22 25 31 5 5 11 10 14 15-16-9-27-21-46-26-10-2-21-7-31-11-7-2-13-4-19-8-9-3-18-7-27-9-4-1-9-1-13-2-8-2-15-4-24-5 2-5 4-9 8-12 6-4 15-4 21-3l3 1h1c-2-1-3-2-5-2-6-1-12-1-18-1-7 1-15 5-22 5-9 0-16-5-22-10l10-9c-11 4-22 7-32 2-6-4-11-10-13-17-1-4-1-11 1-15 4-6 18-7 26-8-12-6-32 0-42-9-1-2 0-3 1-5 2-7 12-13 19-16 10-4 19 0 29 4 2 1 5 3 7 2 1-2 1-3 0-5-6-8-17-13-26-17-17-9-39-11-57-5h-2l1-5c0-5 4-11 9-14 7-5 18-5 27-3l8 2c9 3 17 7 25 12l5 3c3 3 19 13 21 17 5 3 18 19 22 20-23-25-47-48-81-56-21-5-44 1-55 21-3 4-4 8-6 12-3 10-9 15-17 20-3 1-5 2-8 2-6 0-10-3-14-6l-1-1c-5-4-7-9-8-15v-1c-2-7-1-15 0-21v-5c1-3 3-8 3-11-2-1-2-1-5-1-5 0-10 5-13 9-6 8-6 20-5 29 2 10 9 21 17 26 7 5 16 8 24 10 3 0 6 1 8 0 2 0 2-1 4-2-1 5-6 9-9 12-6 4-13 8-19 10-14 4-30 4-43-2-9-2-19-9-25-15-14-15-20-34-19-54 0-20 8-40 22-53 21-19 48-18 74-17l1-1c-11-2-22-2-32-2-6 0-13 1-19-1h-1c-5-2-9-3-13-7-5-6-8-13-8-21 0-4 0-6 3-9 3 2 7 5 12 5 7 2 16 0 24-1 11 0 23 0 34 1 15 2 31 8 46 12 12 3 22 11 33 17l23 12c5 3 15 11 21 10-1-2-2-4-4-6-4-5-9-10-14-15l1-1 10 10 1-1-3-2c-1-2-2-3-4-5v-1l-3-3v-1l-2-2 1-1z" class="J"></path><path d="M374 791h1-1z" class="E"></path><path d="M338 586h0l1 4c-1-1-1-3-1-4z" class="C"></path><path d="M402 749v5h0l-1-5h1z" class="E"></path><path d="M418 807h1c1 3 2 7 3 11-2-2-2-4-3-6l-1-5zm5-28v3l-3 12h0c-1-4 0-6 1-10 0-2 1-3 2-5z" class="C"></path><path d="M332 766c6 0 14-1 19 2h-3-1c-7-2-14 0-21 0 2-1 4-1 6-2z" class="P"></path><path d="M427 1017l1-1 3 2c1 1 2 2 4 3l-1 1v2c-2-1-3-3-5-4-1-1-3-2-4-2l2-1z" class="C"></path><path d="M350 559l-1-2c0-4 3-8 6-12-1 3-1 5-3 7l2-1 1 1-5 7zm261 304h1v1c-5 1-9 4-14 7-3 2-5 5-7 7h-2c6-7 14-12 22-15zm-16-24c0-1 1-2 2-3v-1h0-1c1-3 6-5 9-7-1 2-2 5-3 6-1 2-5 4-7 5z" class="D"></path><path d="M401 749c-2-11-5-23-5-35 2 3 2 11 2 15 1 7 3 13 4 20h-1z" class="C"></path><path d="M329 577h1c1 1 1 2 1 3l2 6c2 6 5 11 7 17h-1c-4-8-8-17-10-26z" class="E"></path><path d="M394 851c1 1 2 3 4 5l1 3c2 3 3 5 4 9h-1l-3-3c-1-1-1-1-2-3l-3-4h0l1-2-1-5z" class="B"></path><path d="M338 586c-2-9-2-18-1-27v-2c1-6 4-13 7-18 1 2-2 5-2 7-2 4-3 8-4 11-1 8-1 20 0 28v1h0z" class="D"></path><path d="M594 775c1 0 2 0 4 1l-4 1c-5 1-9 3-13 5l-1 1c-5 3-9 6-13 10l-1 3-1-1c3-6 10-12 16-15 4-2 8-4 13-5z" class="E"></path><path d="M513 1050l1-2-2-4 2-1c2 5 5 10 8 14-1 0-2 0-3-2 0 0 0-1-1-1 0-1-1-2-2-3 0 2 0 1 1 2 2 3 3 4 3 7l-1 1-1-2-4-6c-1-1-1-2-1-3zm37-84v8c-1 2-1 3-1 5v1 1-1l1-2c1-2 1-4 2-7l1-1v-1c1-1 1-2 1-3h1c1 3-2 9-3 12h-1c-1 3-2 7-3 11l-2 1c0-4 1-9 2-13v-3c1-1 1-1 1-2 0-2 1-4 1-6z" class="B"></path><path d="M354 495c8-1 17 0 25 5l-1 1c-6-3-10-4-16-4-4 0-9-1-13 0h-1c-3 1-6 2-9 4v1l-2-1 3-2c5-2 9-3 14-4z" class="M"></path><path d="M539 1148h7v1h1l3 1c0 1 0 1 1 1-2-2-4-3-5-5v-1c2 0 7 4 9 5s3 2 4 3l-1 2c-1-1-3-1-4-1l-2-1c-2-2-3-2-6-1l-2-1c-2-1-3-2-5-3z" class="B"></path><path d="M334 619l1 1c1 1 0 1 1 2s2 1 2 2c0-3 0-4-2-6v-2l-1-2-1-2-1-2c-1-1-1-3-1-4v-1c3 8 6 15 10 23 2 4 5 9 7 14v1 1c-1-1-2-2-2-3-2-6-7-13-11-17l-2-4v-1z" class="H"></path><path d="M404 996c9 3 17 7 25 12h-6l-5-2-10-5h1c1 0 3 0 5 1l3 2 1-1c-2-1-4-2-6-2-2-1-3-2-5-2-1 0-2-2-3-3z" class="G"></path><path d="M581 860c6-9 14-16 24-20-2 4-6 6-10 9s-7 7-11 10l-3 1z" class="H"></path><path d="M334 620c-5-7-9-16-12-24-2-3-2-8-4-10l-1-1-1-2v-1h1c1 1 2 2 2 3v2l1 1 1 1v1c0 2 0 1 1 2v-1l3 4c0 1 1 2 2 3 0 3 2 5 2 7l-1 1c0 2 0 2 1 4l1 1c0 2 1 3 2 5 1 1 2 2 2 3v1z" class="B"></path><path d="M297 1037l-2-10c-1-7-2-14 1-20 2-6 3-12 6-17h1c-5 12-9 26-6 39v1c1 3 2 5 4 7h-4z" class="I"></path><path d="M482 1119c2 0 3-1 5-2h0l-1-1c-6-2-13-1-20-1h-8c-2 1-4 0-5 0h-1c10-3 23-4 32-2l2 1c4 1 11 2 14 6-6-1-12-1-18-1zM320 575h-2c0-1-1-1-1-2v-2l-1-1v-1l-1-2c1-3-1-9-1-12-1-8-3-19-1-27v-2c1-8 4-18 8-25h1c-2 7-5 13-7 20v3c-2 9-2 23 0 31 2 6 3 13 5 19v1z" class="B"></path><path d="M548 904l1 1v2 3c-1 1-1 2-1 3 0 2 0 4-1 6-1 3-1 5-1 7-1 2 0 4-1 6v4l-2 13c-1 3-1 6-1 10-2 10-2 22-4 32l-1-2c-1-1 0-1 0-3 1-2 0-6 1-8 1-4 0-9 1-13 2-12 3-24 5-35 1-3 0-7 1-10l2-11c1-2 1-3 1-5z" class="D"></path><path d="M394 858l-2-2-3-5-8-12c-2-3-4-6-5-9l-3-3 1-1h2l5 8c1 3 3 5 4 7v-1l-1-2v-1l-1-2c0-1 0-2 1-3 1 1 2 2 2 4 1 2 2 3 3 5s2 3 2 5l1 1c1 1 1 2 2 4l1 5-1 2z" class="E"></path><path d="M507 992h1c2 1 3 6 3 9l1 2c0 1 1 1 1 2v1c1 1 0 2 0 4 1 1 1 1 1 3 1 1 1 1 1 3 1 1 1 2 1 3v2c0 1 0 2 1 3v3h-1v-2l-3-1-5-14c-1-1-1-2-2-3v-2c-1-1-1-1-1-3-1-1-1-1-1-3l2-1c1 2 1 2 2 5 0 1 0 1 1 3v1c1 2 2 3 2 5s0 1 1 3v-2l-1-1c0-2 0-4-1-6 0-2-1-4-1-5-1-2-1-2-1-3v-2c-1-2-1-2-1-4z" class="C"></path><path d="M552 978l-7 33c-4-14 1-28 3-41v-3c0-1 1-3 1-4 0-2 0-1 1-3v-3c0-1 1-2 1-3l1-3v-2c1-2 0-2 2-4l1 1-2 6c0 1-1 2-1 3l-2 11c0 2-1 4-1 6 0 1 0 1-1 2v3c-1 4-2 9-2 13l2-1c1-4 2-8 3-11h1z" class="H"></path><path d="M253 1067c1 0 3 0 4 1 2 2 3 3 5 4l1 1c1 1 2 1 4 2l3 2c3 1 6 0 9 2 4 1 9 1 13 1-14 4-30 4-43-2h4c1 1 2 1 4 1 1 1 3 1 4 1h1 3c1 1 2 1 4 0l-5-2v-1c-2-1-4-3-6-5l-2-2-3-3z" class="B"></path><path d="M520 1060c2 1 2 1 3 2l1 1 4 8c0-2 0-3-1-4l-3-8c0-1-1-2-1-3v-1c-1-2-1-4-1-6l1-1c2 3 2 5 3 7v2c1 1 1 3 2 4l2 6 4 11 2 3c1 2 1 3 1 5h-1l-4-4-1-1-2-4-1-1-6-9c-1-1 0-1-1-2-1-2-1-3-2-4l1-1z" class="C"></path><defs><linearGradient id="Z" x1="447.597" y1="1021" x2="443.223" y2="1024.916" xlink:href="#B"><stop offset="0" stop-color="#b8b6b7"></stop><stop offset="1" stop-color="#d8d7d7"></stop></linearGradient></defs><path fill="url(#Z)" d="M418 1006l5 2h6l5 3c3 3 19 13 21 17 1 1 1 3 3 5l-1 1c-6-5-12-11-20-14-2 1-3 0-4-2-1 0-1-1-1-2l-4-3c-1-1-2-1-3-2h-1l-3-2c-2-1-2-2-3-3z"></path><path d="M423 1008h6l5 3v2l-2 1-9-6zM322 573c-1-3-2-6-2-10l-1-2c-1-3 0-5-1-8-1-5 0-14 2-18l1-7c0-2 1-4 2-6l1 2-3 11c0 1-1 3-1 5-1 8 0 16 1 23 1 4 2 7 3 11l7 26-1 1c-1-1-1-1-1-2v1h-1c-1-3-3-6-5-9l1-1v-2l-1-1v-1-1h-2v-2h1l-1-1v-1-1l-1-1v-2-2-1l2-1z" class="B"></path><path d="M320 574l2-1v1c1 6 5 12 5 18h-1l-2-4-1-1v-1-1h-2v-2h1l-1-1v-1-1l-1-1v-2-2-1z" class="E"></path><path d="M607 808h1c2 0 4-1 7-2h7c0 1 0 1-1 3l-2-1c-9 5-19 13-28 20l6-7v-1c-4 3-7 6-9 10h-1c4-7 12-19 20-22z" class="K"></path><defs><linearGradient id="a" x1="576.27" y1="1168.127" x2="556.194" y2="1156.144" xlink:href="#B"><stop offset="0" stop-color="#a3a2a2"></stop><stop offset="1" stop-color="#cdcbcd"></stop></linearGradient></defs><path fill="url(#a)" d="M536 1152v-1l1 1c3 1 0-1 2 0 1 1 1 1 2 1l2 1 1 1h3l1 1c1 0 2 1 2 1l1 1h2c1 1 0 0 2 0v-1c-1 0-2-1-3-2l-15-6v-1-2c2 1 1 0 2 2 2 1 3 2 5 3l2 1c3-1 4-1 6 1l2 1c1 0 3 0 4 1l1-2c2 0 2 1 3 2 7 5 14 8 21 12 2 1 3 2 3 4-10-2-21-7-31-11-7-2-13-4-19-8z"></path><path d="M301 1037l4 4 1-1-1-1c-3-8-3-17-2-26 1-2 1-4 1-6l1-1 3-10c0-1 0-2 1-2l1 1-3 7c-3 9-4 20-2 29 0 2 0 3 1 5v1c1 1 1 2 2 3h1l-1-4c0-2 0-6 1-9v-2l3-8v-1c1-2 1-4 3-5l1 1-1 1c0 1-1 2-1 3-1 3-2 5-2 7v1c-1 4-2 11-1 16 2 2 4 3 7 5-3 1-5 2-8 2-6 0-10-3-14-6l2-1-1-3h4z" class="B"></path><path d="M513 1050c-5-5-7-12-10-17-1-2-1-3-3-3-3-4-6-8-8-12v-2l-2-3c-1-2-4-5-4-7h2c1 0 1 1 2 2v1l2 3c1 2 2 3 3 4-1-1-1-2-1-3-1-1-1-1-1-3l-1-1c0-1-1-1-1-2v-2l-1-1 1-1c0-1 0-1-1-3s-1-5-3-7v-1l-1-3-1-1v-1h2c1 1 1 2 2 3 1 2 2 4 2 5v2c2 1 2 2 3 4l3 10 3 9 1 2c0 1 0 2 1 3 1 2 1 4 3 6h1c0 2 1 4 2 5-1-3-3-6-2-10h1l1 5 3 6c0 1 0 1 1 2l2 4-2 1 2 4-1 2zm-66-51c4 0 4 4 8 5l2 2 1 1 2 2v1l4 4 11 10c2 3 4 7 8 9 0-2-1-1 0-3l6 9 1 2c1 1 2 2 2 3l11 15 1 1-1 1h-1c-3 0-5-4-6-6l-1-1-3-3c-1-2-2-3-3-4s-2-2-3-4-3-3-4-5c-1-1-2-3-4-4-4-3-7-8-11-10-2-1-3-3-5-5-1 0-2-2-4-3s0 1-2-1c-1-1-3-3-3-4h1c2 0 2 0 3 2 2 1 4 3 6 4l-1-2-2-2c-4-5-12-9-13-14z" class="C"></path><path d="M264 1078c-2-1-4-3-6-4-2 0-4 1-6 0h-1c-4-1-6-3-9-4-2-1-5-3-6-4v-3l-7-7c-2-3-4-5-5-8v-1c-1-2-2-3-3-5 0-2 0-4-1-5-1-2-1-2-1-4-1-2-1-3-1-5-2-4 0-12 0-17v-1l1-1v-3-1l2-2c1 1 0 1 0 3-1 2 0 3 0 4-2 2-1 6-1 8l-1 1c0 2 0 3 1 5v1l1 1c1 3-1 4 1 7v3l1 1v3l1 1c0 1 1 2 1 3v1l1 1v-2l1-1-1-1-2-5c0-2 0-3-1-4v-2l-1-2v-6h1c-1 8 4 17 7 25v1c4 6 10 15 16 18 2 0 2 0 3-1l-1-3h1c1 0 4 3 4 4l3 3 2 2c2 2 4 4 6 5v1z" class="D"></path><path d="M258 1072h-1c-6 1-9 0-13-3-4-4-13-15-14-20 4 6 10 15 16 18 2 0 2 0 3-1l-1-3h1c1 0 4 3 4 4l3 3 2 2z" class="G"></path><path d="M455 1028c5 3 18 19 22 20h1c1 1 3 4 4 5 5 5 10 10 14 15 5 7 13 13 17 21 2 4 5 6 8 9l-1 1c-2-2-5-6-8-7-2-1-4-3-6-4l-1-1c-1-1-3-3-4-5s-1-2-3-4l-41-44 1-1c-2-2-2-4-3-5z" class="I"></path><path d="M355 545c4-6 11-11 19-12 5-1 10-1 13 2 5 3 9 9 10 15 0 3-1 7 1 9l1 1-4 6c-1-6-2-13-6-18-2-3-6-5-10-6-9-1-17 4-24 10l-1-1-2 1c2-2 2-4 3-7z" class="H"></path><path d="M577 798h2l-7 7c-1 3 1 0-1 2-3 3-4 5-6 8-1 2-3 4-4 6v1l-2 3-1 3-3 7-4 13c0 1 0 3-1 4-1 2-1 2-1 3v2c0 1 0 1-1 3v1 1c-1 2-1 2-1 3-1 2-1 2-1 4-1 1 0 2 0 4l-1 1c0 1 0 2-1 4v2 1c-1 1-1 2-1 4-1 2 0 3 0 5l-1 1c0 4-1 8-2 12 0 2-1 2 0 4v1l-1 1c0 1 0 3-1 4v4l-4 32c-1 2 0 4 0 6-1 6-2 11-2 17-1 3-1 15 0 18v2c-2 6-1 13-1 20 1 3 0 6 1 9l1 4c1 2 1 2 1 4l-1 1c0 1-1 3 0 5h0v1c1 2 1 1 1 3v1c1 2 0-1 1 2v1s1 1 1 2v1-1c1-2 1-4 1-6-1-3-1-3-1-6v-1l-1-1v-1h-1v-2-1-3-9c-2-2-1-3-1-5-2-1-1-8-1-11 2-2 0-4 2-7v-1l1-1c2 3 1 10 1 13 0 14 1 27 2 40v6c0 5 2 10 3 15l2 9c1 5 2 10 4 14 2 7 6 14 8 21 0 2 1 4 2 5l2 4-1 1c-3-4-7-8-9-12l-10-15 1-1c2 1 3 2 4 4v1c2 2 3 4 4 6l1-1-1-1c0-1-1-2-1-3l-1-1v-3c-2-2-1 0 0-2 0 0-1-2-1-3l-3-10-1-4-1-3-1-4v-2c-1-3-1-5-2-8l-6-25c0-4-2-8-2-12-1-12-1-24-1-36 2-2 1-9 1-12 2-2 1-7 1-10 1-2 1-5 1-7 1-3 0-5 0-8 1-4 1-9 3-14 0-1-1-3 0-4 1-2 0-3 0-4 1-1 1-5 1-6 1-2 0-3 1-5 1-1 0-1 1-3l3-15c0-1-1-2 0-3s0-1 0-2v-2l1-1v-4c1-2 0-3 1-5 1-1 1 0 1-2 0-1-1 0 0-2l1-8 1-3c0-1 1-1 1-2l1-5v-1l2-7v-1l4-11c0-1 0-2 1-3v-1l2-5 2-4 1-1 4-8 1-1c1-1 3-3 4-5 2-4 6-7 9-10z" class="B"></path><path d="M304 567c2 7 3 15 3 22-1 12-4 24-6 36l-10 59c-5 30-6 61-5 92 0 33 3 64 11 96-2-2-5-4-7-6-2-1-3-3-4-5-3-6-3-13-4-19-5-30-6-60-6-89-1 4 0 10 0 14-1 19 0 40 3 59 1 11 3 22 4 33l-2-1c-2-2-4-4-5-7-4-10-4-22-5-32l-2-34v-49l-1 38c0 6 0 13 1 19l4 57c-5-6-6-15-6-23l-3-28-1-15c-1-8 0-15-1-23-1 12 0 23 1 34l3 46c-3-3-4-9-5-13-2-11-3-23-4-35-5-68 2-136 15-203 3-18 6-36 12-53 10-30 30-60 23-94-2-10-6-20-12-29l-1 1c5 7 9 15 10 23v1c2 10 2 22 0 32-1-10-1-20-4-30-6-16-20-33-35-39-5-3-10-3-15-5v-1c2-5 7-8 11-10 9-3 16 0 24 3-11-11-23-19-39-22-9-2-19-1-27 4l-5 4c2-5 3-9 5-13 8-9 19-14 31-15 13-2 27 1 38 9 21 17 25 46 28 71l1-5c3-26-3-49-19-68v-1-1c1-3 6-5 9-6 8-2 21 8 27 11-2-3-4-6-8-8-3-3-9-6-11-10-4-5-6-18-4-24 1-2 2-4 4-5 3 0 6 0 9 1 12 5 13 14 18 24 1 2 2 2 4 3l1-1c0-14 2-30-2-43-2-8-7-15-15-19-9-5-23-7-33-4-4 2-8 4-10 9-3 6 1 11 3 17-1 2-2 5-4 6-2 3-5 5-9 5s-7-2-10-4c-7-7-7-13-7-22-6 1-11 1-16 0 3-12 5-24 15-33 15-13 37-16 56-14 19 1 35 8 48 23 11 13 16 33 15 50 0 8-1 16-2 24 1-3 1-6 2-9 3-17 4-35 1-52-1-6-3-13-5-19-1-4-1-6 1-9 2-1 4-2 6-2 8 1 16 6 21 12 5 5 5 12 4 19l-1 3c1-2 2-4 2-7-1-4 1-9-1-13l-1-1c-1-3-3-6-5-8-1-1-3-3-3-4v-5c1-6 2-13 1-20 0-1 1-4 0-5-4-6-15-7-19-13 0-1 0-1-1-1 0-3 0-6 1-8s4-4 6-4c7-2 16 4 22 7-2-2-6-6-7-8-1-3 0-11 0-14-1-7-2-13-4-20-3-9-8-16-17-21-8-3-19-5-27-1-4 1-7 3-9 7-2 6 2 11 4 16l-1 2c-3 1-6 2-10 1-3-1-6-3-8-6-2-5-2-12 0-17 2-8 8-14 15-17 16-8 35-5 51 1 12 4 24 11 32 20 4 6 7 12 10 18 0-6-3-12-6-18 5 2 9 5 12 9 7 10 10 21 7 33-2 5-4 10-5 15-2 6-3 13-4 20h1l3-6c2-7 5-20 11-23 4-2 8-1 12 0 3 2 6 4 7 7 2 6 1 14-2 19-2 3-4 7-7 10-3 2-7 4-9 8-2 3-2 7-3 10h1v-1c1-5 2-8 7-10 4-3 9-3 13-3 1 2 1 1 0 2-4 13-6 27-10 40-3 11-9 20-13 30h0c6-8 11-16 14-25 4-13 6-28 10-41 2-5 4-10 7-14 6-12 9-25 6-38 0-3-1-6-4-9-4-5-19-14-13-23 4-5 13-7 18-7 12-2 23 2 32 9 10 8 15 19 16 31 0 7 0 13-1 19 4-6 4-14 4-21 3 4 4 8 5 12l1 1c2 9 1 19-4 27-3 6-9 12-14 18 8-6 16-14 25-19 15-10 32-17 48-24 82-36 172-52 260-52 28 0 57 1 85 5 54 7 106 24 153 52l38 26 2-3 5 3 1 1c4 2 8 6 12 9 8 7 20 6 30 5h0c2 0 5 1 7 0 1 0 1 0 3-1 1 0 2 0 3 1-2 7-3 13-10 16-5 2-11 3-16 3 12 7 26 8 39 11v-1c3-4 5-6 10-7 3-1 8-1 11 1 1 1 1 2 2 3-1 5-7 10-11 14 6-2 13-4 18-8 8-7 12-24 25-18 6 2 9 7 12 13l1 6c0 2 1 4 2 6v2c1-2 2-3 3-5 0-2 1-3 3-5 1 0 2 0 3-1 2-3 5-5 8-8l-1-2-4-2c0-3 0-5-1-7v-2-8c1-1 1-1 3-1 5 1 11 6 14 10 4 7 3 15 1 22-2 9-6 17-10 25-6 13-11 26-24 34-15 9-34 6-50 2-8-2-15-5-22-9-12-7-20-17-30-26 4 6 10 12 14 18h-1c-2-2-3-4-5-6h0c1 2 1 3 1 4v1c3 6 7 12 10 18 12 18 24 37 39 52l-1 1-8-9c-1-2-6-8-8-10l-12-17c-3-4-6-9-10-12 6 16 9 31 12 47 5 46 0 100-30 138-7 9-17 17-27 23-25 17-55 24-86 19-9-2-17-5-26-8l-12-6c-3 0-6 0-8 2l-10-7c0-1 0-1 1-2l-3-3c-3-2-4-5-6-7l-11-12-6-10-2-3 3-1h1c0-2-1-4-1-5l-2-2-2-4v-1c-1-1-1-1-2-3 0-2-2-6-3-8v-1-2h-1c0-2 0-4-1-6s-2-6-1-7v-2c-2-3-2-9-1-13 0 4-1 9 1 13 0 1-1 2 1 4l-1 1c1 2 1 2 1 3 1 2 1 2 1 3l1 1v2c0 1 1 1 1 3l1 3 1 1c1 2 2 5 3 7l1 1 2 4 3 3c1 2 1 2 3 2l2 3 1-2v-1h0c-10-10-17-28-18-41-1-17 3-34 14-47 0 2 1 2 0 3 0 1-1 2-2 3s-1 3-2 4l-1 2c0 1 0 1-1 2l-3 14h1c1 7 0 13 2 19v1c0 2 1 4 1 6l1 1c0 2 1 4 1 6l3-2 6 11 3 3c8 9 14 15 24 21l17 7h-3c-1 0-2 0-3-1h-1l1 1c2 0 3 1 4 3 2 0 4 1 6 1 1 0 0 0 2 1h2c2 0 6 1 7 1 3 1 15 1 18 0h2l4-1c2 0 2 0 4-1l3 1h2c4-1 8-3 11-5l4-1c2-2 5-3 7-5 1 0 2-1 3-2l2-1c3-2 7-6 10-10l2-3 1-1 3-6-2-5c5-10 11-22 12-34-2 6-3 12-6 17-1-3 1-5 2-8 1-4 3-8 5-12 1-5 1-10 2-14v-1c1-9 1-19 0-28-2-16-8-33-14-48-3-6-5-13-9-19 0-1-1-2-2-4s-1-3-3-4c-1-2-1-4-3-5v-1l-1-2-9-11c0-2-2-3-3-4 0-1-2-2-3-4s-2-2-3-4c-2-2-5-4-6-6s-5-7-7-8-3-2-5-4c0 1-1 2-1 3l3 3-2 1c0 1 2 3 3 4l2 2c1 1 0 0 1 2s4 3 5 6c1 1 2 2 3 4 1 1 2 1 3 3 1 1 1 2 3 2v1l7 9c1 1 1 1 1 2l22 46c2 4 3 11 3 16-1 2-1 2-1 4l-1 1v3c-6-27-16-52-33-75-3-4-6-8-10-11 5 8 11 15 16 24 19 32 33 75 23 112v1c0 3-1 6-2 9l-3 8s-3 6-4 6c-3 6-7 11-11 16h-6l-5 3v-1l1-1c-5 2-8 3-12 3l-14 3v1h-6l-19-1s-5-1-6-1c-4 0-10 0-14-2s-7-4-11-5h0l-3-3c-2-2-3-3-6-3h0c-5-10-8-22-5-33 0-1 1-3 1-4 3-9 9-15 17-19 1 1 2 1 3 1h3v-1h11-2-6l-1 1h0c-2 0-4 1-5 3l-1 1h0c-5 6-10 13-12 20-2 8-1 18 3 25 3 5 7 7 13 9 4 1 8 1 12-2 2-1 5-4 6-5l-1-3c0-4-2-8-1-12 2-5 6-9 10-11 5-3 11-3 16-1 5 1 9 4 11 9s0 10-2 16c7 0 13 1 19-3 14-12 21-32 23-50 3-32-6-63-27-88l-21-20-2-7c-2 0-9-7-11-9-4 0-7-2-10-4 1 3 1 3 3 5l1 1-31-15c-9-3-18-7-28-9-26-6-54-7-81-6-80 6-154 43-206 105-42 48-65 111-79 172-8 32-13 63-17 96l-4 60c-1 14-1 30-1 45 0 1-10 2-11 2l-2 1-16 5c-2-1-2-2-2-4h-1v5c0 1-12 7-14 8-11 8-17 18-23 30-5-58-5-117 7-174l-1-1c-3 19-7 38-8 57-3 25-3 50-2 76l2 28c0 5 1 11 1 16-1 6-3 12-4 18-2 7-3 15-4 22-3-13-9-89-4-98v-1c1-1 1-3 0-4l-1 2 2-51c0-7 3-13 3-20h-2-1-1c-2 2-2 6-1 9v2c2 7 0 17-1 25l-1 37 2 65c1 14 3 29 3 43 0 6-1 11-2 17 0 3 0 7-1 10-4-11-4-24-5-35-5-56-7-113-1-169l7-47 3-14v-4c2-5 2-10 4-15 1-3 4-4 4-6 1-3 0-4-1-6 21-83 60-163 120-224 8-9 17-17 27-25 4-4 9-9 14-13h-1c-23 17-43 38-61 60-33 40-61 86-79 134l-11 32-6 21c-2 5-2 11-6 16-2 4-2 9-2 14l-3 15c-6 29-10 58-12 87l-2 53 1 42c0 5 2 14 1 19l-1 1v3h0c-3 2-2 2-3 4 0 2-1 2-1 4-1 1-1 1-1 3l-2 1 1 1h-1c-1-2-1-5-1-8h-1c-9-94 3-191 30-281 6-21 12-41 20-60 16-40 37-75 62-110 13-17 26-34 42-48 22-20 48-37 75-51 25-13 52-24 81-30 11-2 23-4 35-5l30-1c8 0 17 1 25-2 1-2 1-2 0-5-1-1-3-2-5-3-13-6-30-9-44-12-72-13-151-6-220 21-45 17-90 42-127 73-24 20-46 41-66 65-28 33-53 68-70 107h-10c0 1-1 1-2 1-7 1-13 3-20 6-10 6-21 16-24 28l-1 1h0l-1-1c-2 3-3 8-4 11l-6 22v-1c3-4 4-10 6-15l-1 4c-1 5 0 11 0 16l2 28z" class="J"></path><path d="M1055 467h3v1h-8-3l8-1z" class="D"></path><path d="M1025 527l3 2-1 4-3-1c0-2 0-3 1-5z" class="L"></path><path d="M706 184v5l-1 1c-2-2-3-3-6-4h0l7-2z" class="O"></path><path d="M927 166c-2 0-3-1-4-1h-1c-4-1-7-1-10-2 2-1 13 1 15 1v2z" class="D"></path><path d="M697 187l2-1c3 1 4 2 6 4-2 0-4 1-7 0l-1-3z" class="Q"></path><path d="M1051 474h1c2 0 8 0 10 1l-10 1-12-1 11-1z" class="G"></path><path d="M1139 220l5 3-1 4-6-4 2-3z" class="Q"></path><path d="M945 154c-4 0-8-1-12-2-3 0-8 1-10-1 8 0 15 1 23 2l-1 1zM582 603l1-1 2 2c0 2 0 3-1 5-2 0-1 1-3 0 0-3 0-4 1-6z" class="D"></path><path d="M732 318h1l-3 6c-2 1-2 1-5 0v1l-1-1c2-2 5-4 8-6z" class="O"></path><path d="M356 373h1l-1 1c-1 7 2 17-3 23l-1-2 1-1v-3c2-4 2-14 3-18z" class="B"></path><path d="M356 373c0-8 3-15 4-23 0-2 0-5 1-7 0 7-1 15-3 22 0 3 0 6-1 8h-1z" class="C"></path><path d="M927 164h6c1 0 1 1 2 2s2 1 3 1c-1 1-2 0-3 1-2 1 1 2-4 2l-4-4v-2zm88 363l-2-3h1 4l7 3h0c-1 2-1 3-1 5l-9-5z" class="T"></path><path d="M425 152h1c8 6 7 34 9 43v1l-1-1v-4c-1-4-1-8-2-13-1-9-3-17-7-26z" class="H"></path><path d="M828 237c10-3 22-4 33-3-3 2-4 2-7 2h-13c-2 1-4 0-6 1h-7z" class="G"></path><path d="M498 171c2 1 2 3 3 5 5 14 3 26-3 39h-2l6-15c1-4 1-12 0-16-1-5-2-9-4-13z" class="D"></path><path d="M946 153c8 2 17 3 25 5l11 2 6 1 4 1c2 0 3 1 4 2-1 1-2 0-4 0-1 0-2-1-3-1l-3-1-17-3-13-3-11-2 1-1z" class="B"></path><path d="M444 207v1 2c2 0 2 0 2-1 3-5 9-11 14-13l1 1c-12 8-17 16-21 29 0-2-1-6 0-8 1-1 1 0 1-2v-3l3-6z" class="I"></path><path d="M1281 271c0 2 1 4 2 6v2h-2l1 3h2v2h1c-4 4-11 6-16 7 6-6 11-10 12-19v-1z" class="R"></path><path d="M697 187h0l-11 2-29 7-27 9-1-1 23-8 40-10c2-1 4 0 7 0h0l-2 1z" class="B"></path><defs><linearGradient id="b" x1="983.495" y1="505.806" x2="991.034" y2="519.042" xlink:href="#B"><stop offset="0" stop-color="#1b1a19"></stop><stop offset="1" stop-color="#373737"></stop></linearGradient></defs><path fill="url(#b)" d="M984 506h1c4 6 9 11 14 16l-2 1c-2-2-4-2-8-3l-6-10-2-3 3-1z"></path><path d="M1144 223l1 1c4 2 8 6 12 9 8 7 20 6 30 5h0l-6 1c-14 3-26-4-38-12l1-4z" class="T"></path><path d="M1001 473h0c-5-10-8-22-5-33 0 4 0 8 1 12 3 10 4 16 10 24-2-2-3-3-6-3z" class="F"></path><path d="M695 334l2 1c-6 5-15 12-18 19 0 1-1 2-2 3-2 3-4 5-7 6l-2-1v-1c1-3 3-6 6-8 8-3 15-13 21-19z" class="R"></path><path d="M501 260c1 0 2 0 3 1l-2 2c-2 1-3 2-4 3-2 1-2 2-4 3l-3 3c-2 1-2 1-3 2-3 2-5 3-7 6l-1-2c1 0 1 0 2-1 0-1 0-2 1-3l1-1-1-1 3-3c2-1 4-3 5-4 1 1 1 1 1 2 1 0 2-1 2-2l1-1c2 0 4-2 6-4z" class="E"></path><path d="M719 275h2c0 1 0 1 1 2h5v1h-3 4l1 1c1 0 1 0 2 1l-1 1c-1 0-1 1-2 1l-5 3-2 1c-1 1-2 2-4 2-1 0 0 0-1-1 1-1 2-2 3-4-1 0-1-1-2-2l1-2c-2 0-2 0-3-1 1-1 3-2 4-3z" class="C"></path><path d="M993 504c8 8 16 15 25 20h-4-1l2 3c-9-6-17-13-23-21l1-2z" class="O"></path><path d="M1180 287c4 0 12 6 17 8 10 5 22 9 33 11 9 2 20 2 29 1 4-1 7-2 10-2h1l-10 3c-4 1-9 1-14 1-22-1-48-10-66-22z" class="N"></path><path d="M328 439l1 1c1 1 1 0 1 2v1l1 1c-1 1-1 1-1 3v-1c1-2 1-2 2-3 0-1 1-1 2-1v1l-3 9-4 8c-1 1-1 2-2 3l-1 4h-1c0-1-1-2-1-3-1-2 3-13 4-15 1-1 1-2 1-3l1-3v-4z" class="D"></path><path d="M297 535v-1c3-4 4-10 6-15l-1 4c-1 5 0 11 0 16l2 28-2 1-1 3v1 2c-1 1-1 3-1 4h-1c0-1-1-1 0-3h0v-2c1-4 2-8 2-11 1-2 0-8 0-10-1-2 0-7 0-10v-11l-1 3-4 8-1 1-1-1c0-1 0-2 1-3v-1c1-2 1-2 2-3z" class="C"></path><path d="M1155 254h1l6 4c2 1 4 2 5 3l4 2c0 1 1 1 2 2l11 5c2 1 2 1 3 2v1c-2 0-4 0-6-1h-1c-2-2 0 0-2-1l-1-1c-1-1-3-2-5-3-3-1-7-4-10-6h-1l1 1 2 3c2 1 3 2 5 4h1l1 1 1-1c3 1 4 3 6 5 1 0 2 0 2 1l2 1 1 1v2h-2c-3-3-23-17-24-20s0-2-2-5z" class="D"></path><path d="M1063 299c2 1 3 2 5 3v-1l-3-4 1-2 14 18c3 3 5 6 7 10l-1 3-21-20-2-7z" class="I"></path><path d="M440 213h1v3c0 2 0 1-1 2-1 2 0 6 0 8l-18 77h-1c1-5 2-9 4-13 2-9 5-17 6-26 2-8 4-16 4-24 2-9 2-18 5-27z" class="F"></path><path d="M1296 271l-1 1c3-1 5-6 6-9s2-5 3-8c0-1 0-1 1-2-2 12-6 21-16 28-1 1-3 2-4 3h-1v-2h-2l-1-3h2c1-2 2-3 3-5 0-2 1-3 3-5 1 0 2 0 3-1v-1c2 0 3-1 5-2 0 3-2 3-1 6z" class="O"></path><path d="M1292 268v-1c2 0 3-1 5-2 0 3-2 3-1 6l-2-2c-2 0-2 1-3 2 1 1 1 1 3 1-1 1-2 1-4 1v1c-1 3-4 6-7 7l-1 1-1-3h2c1-2 2-3 3-5 0-2 1-3 3-5 1 0 2 0 3-1z" class="L"></path><path d="M907 256h12c5 0 9 0 14 1h4v1h-1l-11-1h-15c-1 0-4 0-5 1-7 1-14 0-20 1-3 1-5 0-8 1-10 2-22 3-33 5l-22 5-4 1-5 2-1-1c2-1 3-1 5-2l9-3c4-1 7-1 10-3h2l3-1c2 0 4 0 6-1h3c1-1 4-1 6-1 1-1 2 0 3-1 16-2 32-4 48-4z" class="K"></path><path d="M536 612c7-31 16-61 26-91 2-4 3-10 4-14 2-4 5-6 7-10 10-21 20-42 32-63v2c-10 19-21 39-30 59-1 4-2 8-2 12l-2 1c-6 6-7 13-10 20-11 28-17 56-24 85l-1-1z" class="T"></path><path d="M1013 510c3 2 5 5 9 6 2 1 2 2 5 2 0-2 0-1-1-2 1 0 2 0 3 1l2 1 1 1c2 1 3 1 4 2h2c1 0 2 1 4 1 1 1 2 0 4 1s6 0 9 1c2 1 8 1 11 1-4 1-6 1-10 1-2-1-4 0-6-1h-2-1c-1-2-2-1-4-1l-1-1h-1c-3 0-5-1-7-1l5 2 1 1c1 0 2 0 4 1h3c2 2 5 1 7 1 2 1 2 1 4 1 2 1 9 0 12 0h1 4l5-1c1-1 1-1 3 0h0l-2 1h-1c-1 0-4 1-6 1-3 1-5 1-8 1-3 2-9 1-12 0h-5c-4-1-6-2-10-3-1 0-1 0-2-1h-1l-1-1h-2c-2-1-3-1-5-2l-4-1c-1-1-4-1-5-2-2-1-5-5-7-7 1-1 1-2 1-3z" class="B"></path><path d="M391 352c1-4 3-8 4-11l11-30c12-34 16-70 16-106 0-8 1-16-1-24 0-3-1-6-1-9 4 12 4 25 4 36 0 34-5 68-15 100l-14 37-3 7h-1z" class="R"></path><path d="M373 341l2 1v5 1 3 1c-1 2-1 3-1 5-1 1-1 2-1 3v1l-1 2v2 5-1c0-1 0-2 1-3l1-2v-3l1-1c1-1 1-3 2-5v-2c0-1 1-2 1-2v-3h1l3-8 1 2c0 1 0 2-1 3v2c-1 1-1 2-1 3l-1 2-5 16v1c-1 2-1 2-1 4l-1 3-2 4v1c0 1-1 2-1 3-1 2 0 1-1 2v2l-2 6-2-2c-1 1 0 0-1 2-1 3-1 4-4 6l-1-1c1-1 1-2 2-3 2-7 5-15 7-22v-2c1-3 1-5 2-8l3-18v-5z" class="C"></path><path d="M1143 430l2 1v2l-1 1c0 2 0 4 1 6 0 1 0 1-1 2 0 2 0 4-1 6v1l-1 2-3 10v2l-1 1v1l-1 1-1 2h1l1-3c0-1 0-1 1-2s1-3 1-4l1-1v-1l3-10 1-2v-3l1-1v-3c0-1 1-1 0-3v-5c1-1 2-1 3-3h1v5l-1 1c0 2 1 5-1 7 0 2 1 3 0 4 0 2 0 2-1 4 0 1 0 2-1 3 0 2 0 1-1 3v1l-3 8c0 1-1 2-1 4l-1 3-1 2-1 1-2 4-3 5c-1 2-2 4-3 5l-2-5c5-10 11-22 12-34-2 6-3 12-6 17-1-3 1-5 2-8 1-4 3-8 5-12 1-5 1-10 2-14v-1z" class="B"></path><path d="M993 503h0c-10-10-17-28-18-41-1-17 3-34 14-47 0 2 1 2 0 3 0 1-1 2-2 3s-1 3-2 4l-1 2c0 1 0 1-1 2l-3 14c-1 5-1 10 0 16 0 1 0 3 1 4v4l1 2 2 6c0 1 1 2 1 4 1 2 3 5 5 8 1 3 3 5 5 7 2 4 8 9 11 11l1 1c2 1 4 2 6 4 0 1 0 2-1 3-4-3-10-6-12-10-4-6-10-11-13-17l-3-6c0-1-1-2-1-3v-1c-1-3-2-5-3-8v-1c-1-2-1-2-1-3l-1-1c1-2 1-3 0-5-2-3 1-8-1-11v2 4 1c-1 1-1 2-1 3l1 1v6 1l1 1c0 1-1 2 0 3v1c0 1 1 1 1 3 0 1 0 3 1 4 1 2 1 0 1 3v1c1 1 1 0 1 2l1 3 1 1c2 3 4 6 6 10 1 2 3 3 3 5v1z" class="H"></path><path d="M567 744c-2-9-2-18-2-27l-2-29h-1c-1-1-2-1-2-2-1-3-1-6 1-8l2-2c0-31 2-62 9-92l6-28c2-6 4-12 5-17 0-2 1-3 2-5 0-2 2-7 3-7 0 2-2 5-2 7 0 1 2 1 1 4-2 5-5 9-7 15-11 41-17 85-15 127 1 5 0 9 0 14l3 50h-1z" class="R"></path><path d="M519 657c1-28 8-55 15-82l12-41c10-29 23-57 37-84 5-8 10-21 17-27v-1c-1-1-2-2-1-4 1-3 5-6 8-9 3-2 5-5 8-8l-9 18c-3 3-6 5-9 9-5 8-10 17-15 26-27 53-47 110-57 168-2 12-5 23-4 35h-2z" class="O"></path><path d="M1028 529c24 9 48 9 71 0 25-10 43-30 54-54 7-17 9-35 9-53 0-30-5-58-16-87l-3-7 1-1 11 33c10 40 15 89-7 126l-2 4c-14 23-35 38-61 45-19 4-40 5-58-2l1-4z"></path><path d="M586 743v-8c-1-6 0-12-1-17 0-6-1-11-1-17 0-11 2-24-1-35l1-1c1-3 1-7 1-10 0-11 0-22 2-33 0-4 0-9 1-13l2-18c3-20 8-41 12-61 3-11 6-23 11-34v-3l-1-1c1-2 1-2 2-3 1 1 0 1 0 3l1-1 1 1c-1 3-3 5-4 8-4 13-7 26-10 39-3 12-6 25-8 38l-2 11-3 22c-1 6-1 13-1 19l-2 35c2 1 3 2 4 4-1 4-1 5-4 7l1 40c0 8-1 18 1 27l-2 1z" class="H"></path><path d="M1060 488c1-1 2-2 4-2l6-1 3-1c2-1 5-1 7-2 2 0 4 0 5-1l6-3h-2c-1 1-3 1-4 2h-1-1c-2 1-4 1-5 1l-1 1h-3c-2 1-3 1-5 1-2-1-1 0-2 0-3 1-6 0-9 1h-1-3-1c-4-2-14 2-17-2l1-1h21c2-1 7 0 9 0l1-1c4 0 7-2 11-2h2 2l6-3c2-1 4-2 6-4h0l1 1 1 1c4-4 7-9 12-12 2-2 3-5 5-7 0-2 1-3 2-4h2l1-2c0-1 0-2 1-3 0-2 1-2 2-4h0c0 3-1 6-2 9l-3 8s-3 6-4 6c-3 6-7 11-11 16h-6l-5 3v-1l1-1c-5 2-8 3-12 3l-14 3v1h-6z" class="E"></path><path d="M1112 460c2-4 3-8 8-10l-3 8c-2 0-3 1-5 2z" class="D"></path><path d="M1112 460c2-1 3-2 5-2 0 0-3 6-4 6-3 6-7 11-11 16h-6l-5 3v-1l1-1c-5 2-8 3-12 3 9-3 14-7 22-13 3-3 7-6 10-11z" class="B"></path><path d="M1096 480c4-4 9-7 13-12 1-1 2-3 4-4-3 6-7 11-11 16h-6z" class="F"></path><path d="M593 480h1l-13 30c-12 32-23 64-29 97l2 1c1 1 1 2 1 3 0 4-1 6-5 9h0c-3 10-4 20-5 30-3 21-3 42-3 64 0 8 0 18 2 25s1 14 1 21h-1c-3-5-4-10-3-16 2-3 1-7 0-10-1-12 0-23 0-35 0-63 14-126 37-185l15-34z" class="S"></path><path d="M980 443h1c1 7 0 13 2 19v1c0 2 1 4 1 6l1 1c0 2 1 4 1 6l3-2 6 11 3 3c8 9 14 15 24 21l17 7h-3c-1 0-2 0-3-1h-1l1 1c2 0 3 1 4 3 2 0 4 1 6 1 1 0 0 0 2 1h2c2 0 6 1 7 1 3 1 15 1 18 0h2l4-1c2 0 2 0 4-1l3 1c-3 1-4 1-6 1-1 1-4 1-5 2-1 0-6 1-8 1-3 0-9 0-11-1-3-1-7 0-9-1s-3 0-4-1c-2 0-3-1-4-1h-2c-1-1-2-1-4-2l-1-1-2-1c-1-1-2-1-3-1 1 1 1 0 1 2-3 0-3-1-5-2-4-1-6-4-9-6-2-2-4-3-6-4l-1-1c-3-2-9-7-11-11-2-2-4-4-5-7-2-3-4-6-5-8 0-2-1-3-1-4l-2-6-1-2v-4c-1-1-1-3-1-4-1-6-1-11 0-16z" class="M"></path><path d="M995 485l3 3v5c1 1 1 0 1 2h-1l-2-2c-1-2-3-3-4-6l3-2z" class="F"></path><path d="M989 474l6 11-3 2c-2-2-4-7-6-11l3-2zm33 35l17 7h-3c-1 0-2 0-3-1h-1l1 1c2 0 3 1 4 3h0c-4-1-14-6-16-9l1-1z" class="G"></path><path d="M808 258c2-1 4-2 6-2l33-7c9-2 18-1 26-2 4-1 9-1 14-1 10 0 20 0 30 1 6 1 13 3 19 4 19 2 36 5 54 10v1c-10-3-22-6-33-7h0l-19-3c-5-1-10-1-15-1-10 0-20-1-29 1-7 0-13 0-20 1-5 1-10 0-15 1h-2c-3 1-7 2-10 2l-2 1c-15 2-30 6-44 12l-13 6c-2 1-4 2-5 2v-1c19-10 39-16 60-21l21-4v-1l-6-1c-3 1-6 1-9 1l-36 7c-1 1-3 1-5 1z" class="N"></path><path d="M872 249l12 1h-4l-1 1h-15v-1l-6-1c5-1 10 0 14 0z" class="B"></path><path d="M872 249c7-1 14-1 21-1h19l1 1c-7 0-13 0-20 1h-4c-3 1-7 1-10 1l1-1h4l-12-1z" class="G"></path><path d="M395 345c0 3-1 4-1 7-1 2-1 1-1 2l-1 2-1 3-1 3-2 5c-1 2-2 4-2 6l1-2c1-2 3-4 4-6v-1l1-1c1-1 1-3 2-4l1-2h1c1-2 1-2 2-3l-1-1c0-1 0-2 1-3 4-7 8-15 11-22l1-2c2-3 3-6 4-8s1-2 1-3c1-1 1-2 1-3 2-3 3-6 5-9h1c0 2 0 2-1 4v1c0 1-1 3-2 4l-1 3c-1 2-2 5-3 7l-1 2-3 7c-1 2-1 1-1 3 2-2 0 0 1-2l1-1c3-3 5-7 7-11l1-2 5-10 3-3 1 1-9 18c-1 1-2 3-3 5l-7 10c-2 3-3 6-5 9-2 1-3 4-4 6l-4 5-4 7c-1 3-3 5-4 8l-2 3-1 2c-2 4-4 7-6 10l-1 2c-1 1-2 3-3 5l-1 1-1 1c-1 2-2 3-3 5l-1 3-1 1-5 9c-4 7-9 15-12 23l-1 2c-1-1-1-2-1-3l-1-1 1-1c1 0 1-2 1-3l-1 1v2c-1 1-1 0-1 1 0 3-2 3-3 5l-1-2v-1l3-5c1-3 2-5 3-8h0c0-2 1-3 1-4l2-3c1-1 1-2 2-3l1-1c4-7 10-13 14-20 1-2 2-3 3-5l6-12c2-4 5-9 6-13l3-9c1-2 1-3 2-4h1l3-7z" class="D"></path><path d="M858 249l6 1v1l-21 4c-21 5-41 11-60 21v1c-3 2-8 5-11 6l-8 4-3 2c-1 1-2 1-3 2h-1c-2 1 0 0-2 2s-3 2-5 3l-1 1c-2 0-2 0-3-1 1-1 1-1 2-3-1-2-1-1-2-2v-2h-4v-1c2 0 3-2 5-2l1-1 3-2 6-3 19-10 3-1 9-4 5-2 3-1 7-3 1-1h4c2 0 4 0 5-1l36-7c3 0 6 0 9-1z" class="E"></path><path d="M894 252c9-2 19-1 29-1 5 0 10 0 15 1l19 3h0c11 1 23 4 33 7v-1c5 2 10 3 14 5 5 2 9 5 13 5 2 1 1 0 2 1l8 4 9 5c-3-3-7-5-10-7-2-2-4-3-6-5h3c2 0 2 1 4 2 8 6 18 12 25 19-4 0-7-2-10-4 1 3 1 3 3 5l1 1-31-15c-9-3-18-7-28-9-26-6-54-7-81-6l3-1c2-1 5 0 7 0 6-1 11 0 17-1h0c-2-2-4-1-6-1-5 0-16 1-21-1h-1c1-1 4-1 5-1h15l11 1h1v-1h-4c-5-1-9-1-14-1h-12c4-1 11-1 16-1 2 0 5 1 7-1 2-1 4 0 7-1l-5 1c-1-2-1-1-3-1-1 1-1 1-3 1-1 1-3 0-5 0-1-1-1 0-3 0l-1-1-23-1z" class="G"></path><path d="M1015 277c2 0 4-1 5 1l7 3 1-1-6-3c6 0 14 6 20 9h0c1 3 1 3 3 5l1 1-31-15z" class="P"></path><path d="M957 255c11 1 23 4 33 7 0 1 0 1 1 1 3 1 6 2 9 5l-28-8h-1c2 0 3 0 4-1h-4l-7-2c-3-1-5-1-8-1l1-1z" class="B"></path><path d="M861 234c14-1 29-2 43-2 34 2 72 9 102 25l1 1c3 5 12 7 16 11h-3c-1-1 0-1-2-1l-14-7c-10-5-21-9-32-12-10-2-20-3-30-4-17-3-34-5-50-5-6 0-13 0-19 1-8 2-17 2-25 3-1 1-3 0-4 1h-2c-4 0-7 1-11 2-3 0-6 1-9 2h-2l-10 3h-2c-1 0-2 1-3 1l-6 1c-1 1-3 1-5 2l-5 1c-2 1-4 1-5 2l-8 2c-1 1-3 1-4 2-1 0-2 1-3 1l-8 3-5 2-1-1c1-1 2-2 4-2h1l24-9 20-6 9-2 2-1 5-1 10-2c5-1 9-1 14-2l13-2h6c3-1 7-2 10-2h4c-6-3-39 1-46 2l-54 11-1-1 7-2c10-4 22-7 32-10 2-1 10-2 13-2h7c2-1 4 0 6-1h13c3 0 4 0 7-2z" class="K"></path><path d="M828 237h7c2-1 4 0 6-1h13c-2 0-4 0-5 1h-5l-13 2c-1 1-2 0-3 1h-4l-1 1c-2 0-4 0-6-1v1h-3l2-1-1-1c2-1 10-2 13-2z" class="I"></path><defs><linearGradient id="c" x1="905.729" y1="344.293" x2="933.682" y2="195.48" xlink:href="#B"><stop offset="0" stop-color="#cfcdce"></stop><stop offset="1" stop-color="#fefdfe"></stop></linearGradient></defs><path fill="url(#c)" d="M706 184c3-1 5-1 7-1l1-1c2 0 4 1 6 0 2 0 3 0 5-1 2 0 5 0 7-1 2 0 3 0 4-1 2 0 4 1 6 0 2 0 5 0 7-1 2 0 2 1 3 1s3 0 4-1c3 0 5 1 7 0l40-1c3 0 10-1 13 1 3 0 12-1 15 1 2 0 6-1 8 0 2 0 7 0 9 1 2 0 5 0 6 1 2 0 4 0 6 1 2 0 3-1 5 0 2 0 3 0 4 1 2 0 4 0 6 1 1 0 2 0 3 1 2 0 3-1 4 0 2 0 2 0 4 1 2 0 2 0 4 1 1 0 1 0 3 1 1 0 2-1 3 0 2 0 2 0 3 1 2 0 3 0 4 1 2 0 2 0 3 1 2 0 2-1 3 0 2 0 2 0 3 1 2 0 2 0 4 1 1 0 1 0 3 1h3c2 2 7 2 10 3 1 1 2 1 3 1l5 2h2l2 1h1c1 1 3 2 5 2 9 2 18 8 27 11l6 3c1 1 2 1 3 1l30 16 3 2c1 1 3 1 4 2 2 1 3 1 4 2l1 1 1 1 6 3 3 3c1 1 0 0 2 1l3 3c1 2 0 0 2 1l3 3c2 1 3 2 4 3 2 1 2 2 4 3 1 1 2 2 4 3 1 1 1 2 3 2 1 1 2 3 4 4s3 3 5 5l3 2c0 1-1 2-1 3l3 3-2 1c0 1 2 3 3 4l2 2c1 1 0 0 1 2s4 3 5 6c1 1 2 2 3 4 1 1 2 1 3 3 1 1 1 2 3 2v1l7 9c1 1 1 1 1 2l22 46c2 4 3 11 3 16-1 2-1 2-1 4l-1 1v3c-6-27-16-52-33-75-3-4-6-8-10-11l-1-1c0-1-2-2-3-3-1-3-3-4-4-6-2-2-5-4-6-6-2-4-8-9-11-12l-13-10-3-2-1-1-22-15c-5-4-12-8-18-11l-6-3c-1 0-3-2-5-2l-10-5c-1-1-3-2-5-2l-3-2c-6-3-12-5-18-8-3-1-5-2-8-3s-5-2-7-3h-1c-1-1 0 0-1-2l-1 1-1-1v-1l-1 1-1-1c-1-1-2-1-3-1l-2-1c-2 0-2 0-4-1h-2c-1-1-2-1-3-1l-2-1c-1 0-2 0-3-1-1 0-3 0-4-1l-3-1c-1 0-3 0-5-1-1-1-1 0-3 0-2-1-2-1-3-1-2-1-2-1-4-1-1-1-1-1-3-1-2-1-2 0-4 0-1-1-2-1-4-1-1-1-2-1-3-1-2-1-2-1-4-1-2-1-2 0-4 0-1-1-2-1-4-1-2-1-2-1-4-1-2-1-3-1-5-1-1-1-3 0-5 0-2-2-6-1-8-1-2-1-4-1-6-1-2-1-6-1-8-1-2-1-7 0-9 0-2-1-3-1-5-1s-2 1-4 1c-1 1-6 0-8 0h-36c-3 2-8 1-11 1-2 1-6 1-8 1-2 1-4 1-6 1-2 1-5 0-8 0-1 2-4 1-6 1-2 1-4 1-6 1l-1 1h-3c-3 0-8 2-11 1v-1h2l-1-1c-1 0-2 0-3-1v-5z"></path><path d="M1075 555l4 1c25 4 53-7 73-22 22-17 37-43 43-71 3-9 3-19 5-28 1-12 1-25 0-37-2-19-5-37-10-56l-12-29c-3-7-5-13-8-19-3-4-6-9-9-13-4-5-7-11-11-16-24-31-56-55-91-72-8-4-18-8-27-11-5-2-11-3-16-5l1-1c44 12 82 34 114 65 8 8 15 18 24 26 4 4 10 7 14 10v1l-4-2-1 2c2 2 3 4 4 6 2 2 4 5 6 8 1 1 2 3 2 4 4 6 10 12 14 18h-1c-2-2-3-4-5-6h0c1 2 1 3 1 4v1c3 6 7 12 10 18 12 18 24 37 39 52l-1 1-8-9c-1-2-6-8-8-10l-12-17c-3-4-6-9-10-12 6 16 9 31 12 47 5 46 0 100-30 138-7 9-17 17-27 23-25 17-55 24-86 19-9-2-17-5-26-8l-12-6c-3 0-6 0-8 2l-10-7c0-1 0-1 1-2l-3-3c-3-2-4-5-6-7l-11-12c4 1 6 1 8 3l2-1c12 9 26 18 41 21h7c2 1 4 0 6 1s4 0 6 1h4c7 2 14-1 21 0v1c-4 1-7 2-11 3 4 0 10-2 13-1 2 0 4 1 5 2-3 1-13 1-15 4-1 0-1 1-1 1z" class="R"></path><path d="M1162 280c0-1 1-1 2-2 2 2 3 4 4 6-1 0-2 1-3 1s-3-4-3-5z" class="B"></path><path d="M1162 280l-6-11c3 2 7 4 9 7l-1 2c-1 1-2 1-2 2z" class="D"></path><path d="M1046 555h-1c-3 0-7-3-10-4-5-3-15-6-18-13 3 1 5 4 8 6 9 4 18 7 27 10h-1c-3 0-5 0-8-2h-1l-1-1-1 1c1 0 2 1 4 1l2 2h0z" class="B"></path><path d="M1009 542c4 2 6 4 10 5-5-4-12-8-16-14v-1l12 9c2 3 5 5 8 7l3 1c-3 0-6 0-8 2l-10-7c0-1 0-1 1-2z" class="P"></path><path d="M1168 284c2 2 4 5 6 8 1 1 2 3 2 4 4 6 10 12 14 18h-1c-2-2-3-4-5-6h0c1 2 1 3 1 4v1c-7-8-13-18-20-28 1 0 2-1 3-1z" class="C"></path><path d="M1200 381c-2-12-4-25-8-37-4-13-10-24-14-37 3 4 5 9 8 14 2 4 6 8 8 12 6 16 9 35 11 52h-1v-4c-1-2-1-1-1-3v-3l-1-2v-1c0-1 0-2-1-3v-3c-1-2-1-3-1-5l-1-3v-3l-1-1v-2l-1-1v-2h-1c1-3 0-5-1-7-2-2-1-4-2-6-1-4-5-10-7-12l10 27 2 9 2 12c0 2 1 5 1 7l1 1-2 1zm-160 162h7c2 1 4 0 6 1s4 0 6 1h4c7 2 14-1 21 0v1c-4 1-7 2-11 3 4 0 10-2 13-1 2 0 4 1 5 2-3 1-13 1-15 4-1 0-1 1-1 1-11-1-24-4-35-8-2 0-4-1-5-2 11 3 23 7 34 7-1-1 0-1-1-1-11-2-19-4-28-8z" class="B"></path><path d="M1200 381l2-1-1-1c0-2-1-5-1-7l-2-12-2-9-10-27c2 2 6 8 7 12 1 2 0 4 2 6 1 2 2 4 1 7h1v2l1 1v2l1 1v3l1 3c0 2 0 3 1 5v3c1 1 1 2 1 3v1l1 2v3c0 2 0 1 1 3v4h1c5 35 2 75-13 108-3 8-7 15-12 22-20 25-47 43-79 47-18 2-39 1-55-7h0l-2-2c-2 0-3-1-4-1l1-1 1 1h1c3 2 5 2 8 2h1c1-1 5 1 6 1l13 2c7 2 14 2 21 1 26-1 57-15 74-35 23-26 34-60 36-95 1-16-1-31-2-47z" class="C"></path><path d="M1063 545c7 0 15-1 22-3 22-5 42-18 56-35 24-30 31-71 27-108-2-24-7-46-16-68-16-40-44-76-78-102l-50-34v-6c1 0 2-2 3-2 7 0 14 4 20 7 30 13 57 31 80 55 46 47 69 108 68 174-1 36-12 73-39 99-14 14-32 24-51 27-5 1-9 0-14 1-1-1-3-2-5-2-3-1-9 1-13 1 4-1 7-2 11-3v-1c-7-1-14 2-21 0z"></path></svg>