<svg xmlns="http://www.w3.org/2000/svg" xmlns:xlink="http://www.w3.org/1999/xlink" xmlns:v="https://vecta.io/nano" viewBox="150 10 1214 1451"><!--oldViewBox="0 0 1534 1531"--><style>.B{fill:#edecee}.C{fill:#f7f7f7}.D{fill:#e2e1e2}.E{fill:#fffefe}.F{fill:#d0cecf}.G{fill:#d0cfd0}.H{fill:#b1b0b0}.I{fill:#b1afb0}.J{fill:#222223}.K{fill:#121213}.L{fill:#949394}.M{fill:#323133}.N{fill:#8b8a8b}.O{fill:#747373}.P{fill:#646363}.Q{fill:#454547}</style><path d="M1131 624l-1 41-2 31-2 103-1 37c0 9 0 18-1 27-1-7-1-14-1-21l-1-31-1-76c0-15-1-29 0-44 1-6 1-11 3-17 3-9 2-20 2-30v-59c0-10 1-21-1-30-1-1-2-1-4-1-1 2-1 8-1 11v34l-1 38v22c0 4 0 9-1 13l-2-1c-3 15-1 31-5 47-3-27-2-55-3-82l-1-41-1-25c0-5 0-10-1-15l-1 1c-3 8-2 19-3 27l-3 31v32l-1 55-1 42c-3-12-2-26-2-38l-3-70c0-11 1-22 0-33 0-1 0-1-1-2l-2 21c-1 12-1 24-3 35-1 4-1 7-2 11l-3-26c0-5 1-11-1-15h-7c-2 3-2 12-2 16-1 6-4 44-6 46l-1-42c0-6 1-14-1-20h-5c-2 3-2 7-3 9l-3 15c-1 8-1 17-1 25l-2 32c-1-2-1-5-1-8l-1-24-2-23-1-26H881V519v-30c0-6 0-13-1-19-1-5-5-9-8-13-21-21-61-22-89-22-30 1-68 2-90 25-5 5-8 9-8 16-1 6 0 14 0 21v40 129 242 123c0 9 5 14 10 20 23 21 63 24 93 24 28-1 63-3 84-26 4-3 7-8 8-13 1-4 1-9 1-13v-23-94h462c-3 42-13 85-26 126l-10 30c-2 5-5 11-6 16l18 7c2 1 6 2 8 4l-27-6-36 71 29 29c5 4 11 9 15 14l-46-37c-4 3-7 9-9 13l-17 24-26 34c7 9 16 19 20 29-8-7-15-17-23-25l-22 23c6 9 13 18 18 28-8-6-15-15-21-23l-27 25 26 43h-1l-22-30c-1-2-5-9-7-10l-45 35 7 25c1 6 3 12 4 17-6-8-11-18-15-27-1-2-3-8-5-9l-37 21 15 40c-3-3-5-9-8-13l-12-24c-50 25-101 40-155 51l2 15-123 5-3 43-3-42-42-3c-1 11-1 22-3 33l-2-33-24-3-50-9-24-6c-3 0-9-3-12-3-4 0-11 4-14 6-1 0-4 2-4 2-1 0-38-21-42-23l-17 32c-2 3-5 9-7 11-1-4 3-9 4-12l14-33c-37-15-74-35-108-57l-38-28-62 89c0-1 0-1 1-2l20-33 28-45c2-3 8-11 7-14-38-32-74-67-105-107l-39-53-19-25-30 26c-4 4-10 10-16 13 11-14 26-26 38-39-2-1-4-2-4-4-1-3-1-8-1-11l-20 15c-4 3-7 6-11 9l-1-1 23-21c2-3 8-7 9-10s0-7 0-10v-24c0-4 0-9-1-13-1-7-5-14-8-21l-15-50c-11-42-19-84-23-127l-22-3-1-1c4-4 20 1 23-2-1-3-1-5-2-7-3-1-9 0-11-2 2-1 8 0 11 0 0-6 0-12-1-18l-38-2h1l37-2-2-38c-1-39 0-78 4-117-8-3-43-12-47-16v-1c4 0 9 1 13 2 12 3 23 6 35 8l1-10c-18-6-37-9-55-13-4-1-13-2-16-5l1-1 71 14 25-124c-8 0-16 0-23-2 8-5 21 0 27-8-4-3-9-4-14-5l-23-7c-3-1-8-2-9-4l1-1 33 9c4 1 9 3 12 3l34-86-9-2v-40c-3-1-13-2-16-5l1-1 15 3v-19c-9-6-19-11-28-17l28 11v-76c14 0 29 0 39-11 5-5 10-12 13-18 1-2 4-11 5-11 0-1 5-1 6-1l118-2h12c1 0 3 0 4-1 3-1 8-5 10-8l21-15c2-1 6-3 8-6 0-1 1-3 1-5l3-14c0-2 0-3 1-4v1 19l35-21c24-13 49-25 74-35 18-7 36-13 54-18 10-3 20-4 29-8 1 0 2-1 3-2 4 0 7 0 10 1 3-4 6-8 8-12 4-7 7-15 11-22l-8 22 89-6 3 8c5 2 16 1 22 1h36c61 3 123 16 179 41l13-21c4-6 7-13 11-19l-16 42c27 14 54 27 78 43 99 65 175 164 212 276l10 33 7 25 3 14c1 3 1 5 3 7l29 1-6 1-23 2c4 30 10 60 10 90-3 0-27 0-28 1s-1 3-1 4h-1l-3-4c-5-1-11-1-17-1h-36l-4 107c-1 10-1 21-3 30-1-12-1-23-2-35v-65c-1-11 0-24-2-36h-3l-1 11-1 1c-1-1-3-2-3-2-1-2-1-9-3-10 0-1-4-1-5-1l-1 1c-1 2 0 7 0 10 0 11 1 25-1 36l-2 1h-1l-4 44c-1 7-1 16-3 23-1-11-1-21-1-32v-35c0-9 1-18 2-27l2-85c0-2 1-8 0-10 0 0-1 0-1-1l-3 1c-2 4-1 11 0 16v40l-2 24c0 5 0 11-2 16l-2-27c-5 39-5 79-6 119l-2 39c0 6 0 13-1 19V689v60c-1 9-3 17-3 26l-3 77c-1 15 0 32-3 47-2-19-1-38-1-56l-1-142c0-25 1-51-3-76-4 0-8 1-12 1l-3 77c-1 6-3 11-4 17 0 8-2 55-4 58l-2-35-2-84c0-15 0-31-1-46 0-1 0-1-1-2-3 7-1 19-1 27l-1 46c0 6 0 12-1 18 0 5-2 10-3 16l-2 35-6-37c0-5-3-10-3-16-2-12-1-24-1-35-1-13-3-26-4-39-4 0-7 0-10-2h-1z"></path><path d="M1077 570v1c2 4 2 7 1 11h-1c-1-4-1-8 0-12zm35-279c1 2 1 2 3 3-2 1-3 3-5 4l-2-3c0-1 2-2 4-4z" class="H"></path><path d="M849 1278c1-3 0-4 2-6l2 10-3 2-1-6z" class="C"></path><path d="M688 389h3c1 2 1 2 0 4l-2 1-1 1-2-1v-3l2-2z" class="I"></path><path d="M571 860l4 2c-2 1-2 1-3 4l-8-3c2-2 5-2 7-3zm364-440c1 2 2 3 2 5l-3 3h-2l-2-1c1-3 3-5 5-7zm-228 787h2c2 0 2-1 3-2-1 2 0 7-2 9-2 0-2 0-4-1l1-4 1-1-1-1z" class="G"></path><path d="M598 959c-1-2-1-5 0-7 0-1 1-1 2-1l1 6c1 2 1 3 0 4 0-1-1-1-1-3l-1 1h-1z" class="J"></path><path d="M406 1163h1c2-1 5-6 7-8 1 0 2 1 3 2l-2 2c-3 0-3 0-5 2l-2 4-3 1 1-3z" class="M"></path><path d="M655 1229l1-2h2l1 1c0 3 0 6-2 9l-1-1c-2-1-2-2-2-4 1-1 1-1 1-3z" class="B"></path><path d="M771 361h2c0 2 1 2 0 4h-4-3c0-2-1-2 0-4h5z" class="G"></path><path d="M1151 671c2 0 4-1 6 0 0 2 0 3-1 5-2 0-3 1-5 0v-5z" class="E"></path><path d="M1208 1105h-6l1-2c3-3 8-3 12-3v2c-2 1-5 2-7 3z" class="I"></path><path d="M644 1221h1c0 2-1 4-1 7-1 1-1 1-1 3l-1-1c-2-1-3-3-3-5 1-2 3-3 5-4z" class="G"></path><path d="M1237 615c1 0 1 0 2 1 0 2 1 4 0 6h-2c-2 0-2 0-3-1v-4l3-2z" class="B"></path><path d="M1061 615l2 1c0 2 0 4-1 6h-3c-1-1-2-1-2-1 0-2 0-3 1-5l3-1z" class="D"></path><path d="M1171 603c2-1 3-1 5 0 1 2 0 3 0 5-2 1-3 1-5 1 0-2-1-4 0-6z" class="F"></path><path d="M1058 212c3 2 6 2 10 3l-3 4c-3-2-7-3-8-6l1-1z" class="B"></path><path d="M1027 451c2-1 3-2 5-1 0 3 0 5 2 7 0 1 2 2 3 3h0-1c-4-2-8-5-9-9zm-246-91h6l1 1-1 1-7 2h-4c0-2 0-2 1-4h4z" class="F"></path><path d="M602 634c-1-1-1-5-1-7-1-7-1-14 0-21 2 8 0 17 2 25v2l-1 1z" class="J"></path><path d="M287 641c4-2 10-1 14-1 2 0 5 0 6 1-3 0-6 1-9 2-2 0-3 0-5 1-2-1-1-1-3-2 0-1-2-1-3-1z" class="K"></path><path d="M279 471l-15 3c4-4 7-7 11-9h-1c0 2-1 3-2 4 2 1 4 1 7 2z" class="C"></path><path d="M234 897v-3c2-1 1-1 3-1 4 1 9 2 14 3-6 1-12 2-17 1z" class="D"></path><path d="M758 1357l21 2c-4 1-8 0-11 1h-10v-3z" class="I"></path><path d="M564 863h0c-3-2-7-6-8-9l1-1c3 4 9 6 14 7-2 1-5 1-7 3z" class="H"></path><path d="M502 338h-21c6-4 16-3 23-3-1 2 0 2-2 3z" class="D"></path><path d="M759 361c2 0 2 0 3 1v4l-5 1h-3v-4c1-1 3-1 5-2z" class="F"></path><path d="M1171 574c2 0 4 0 6 1 1 2 0 3 0 5-2 1-4 0-6 0-1-2 0-4 0-6z" class="B"></path><path d="M1150 322c2 1 4 1 5 2h1c-1 1-1 1-2 1v1c-2 2-4 5-7 5l-2-1 5-8z" class="D"></path><path d="M491 846h2c4 1 8 1 13 2v2c-4 1-11-1-15-2v-2z" class="B"></path><path d="M390 485c3-1 9-2 13-1l1 1h-1c-5 1-8 4-11 6-1-2-1-3-2-6z" class="F"></path><path d="M1151 635c3 0 4-1 6 0v7c-3 0-4 0-6-1 0-2-1-4 0-6z" class="E"></path><path d="M1171 565c2 0 6 0 8 1l-1 4-1 1c-2 1-4 0-6 0-1-2 0-4 0-6z" class="D"></path><path d="M746 364c2-1 2-1 4 0v3 1l-8 1h-3l1-2c2-2 3-3 6-3z" class="F"></path><path d="M322 688c2 4 2 9 2 13 0 3 1 4 0 6-2-3-5-13-4-17 1-1 2-1 2-2z" class="B"></path><path d="M672 1206c2-4 4-9 8-11l1 3c-1 3-3 8-6 10-1-1-1-2-3-2z" class="F"></path><path d="M590 780c-1-12-1-26 1-38v24c0 4 1 10 0 14h-1z" class="J"></path><path d="M1172 556h1c2 0 4 1 6 3 0 2 0 2-1 4-3 0-5 0-8-2v-3l2-2z" class="B"></path><path d="M621 1257l3 11c-3 4 0 9-3 14-1-6-2-16 0-21v-4z" class="M"></path><path d="M569 318c0-2 0-5 1-6 2-4 7-7 10-8-2 3-5 6-5 10l-6 4z" class="K"></path><path d="M557 258h3c2 1 2 1 3 3-1 2-2 3-4 4-1-2 0-4-1-5h-2c-3 1-6 1-9 1-1 0-3 1-4-1l14-2z" class="F"></path><path d="M331 545h1l22 2c-5 1-12 0-17 2-3 0-5 0-7-1l1-3z" class="D"></path><path d="M566 203v2c4 1 5-3 7 0-3 2-6 3-8 6l-1-1c-3 1-5 1-8 1l10-8z" class="N"></path><path d="M1018 449c3 0 5 2 8 2-1 1-1 1-1 3 0 3 1 5 3 6v1h-5c-1-5-3-8-5-12zM589 890l-3-25 6 13 1 1-1 4h-2c-1 2 0 5-1 7z" class="D"></path><path d="M525 349c1 1 4 7 5 8 3 3 5 5 9 7h1l-2 4c0 1 0 1-1 1-5-6-10-12-12-20z" class="N"></path><path d="M683 1167l12 7v2c-1 0-1 1-2 0-5-1-9-4-13-7 1 0 2-1 3-2z" class="B"></path><path d="M504 335c4 0 13-1 17 1l-1 1c-3 2-14 2-18 1h0c2-1 1-1 2-3z" class="G"></path><path d="M452 523l-23-6c9 0 18 1 26 3 0 2-1 2-3 3z" class="B"></path><path d="M681 375h1l1 1c2 0 3 0 4-1 1 2 1 2 1 4h-3v1h3v2h0c-1 0-1 0-2 1 2 0 3 0 4 2-1 1-3 1-5 2-2-2-3-8-4-12zm254 45c2-2 4-6 7-6 2 0 2 0 4 2-2 3-6 7-9 9 0-2-1-3-2-5z" class="D"></path><path d="M1036 556c1 6 1 14 0 20-2 2-5 2-7 2h-1c7-5 7-14 8-22zm-705-11l1-11 1 6h1 3 1l16 2c-2 1-4 1-6 1-5 0-12 0-16 2h-1z" class="G"></path><path d="M1152 1167l3-1c4 3 13 6 14 10v1c-5 0-14-7-17-10z" class="D"></path><path d="M1151 645c2 0 4-1 6 1 0 3 1 5 0 8-2 1-4 1-6 0v-9z" class="E"></path><path d="M1188 603c0 3 0 7 1 10s2 5 2 8l-3 1c-2 0-3 0-4-1l-1-2c3-5 4-10 5-16z" class="C"></path><path d="M413 1047c-2-3-3-8-4-11l-4-14 12 23-4 2z" class="G"></path><path d="M275 632l3-1c6 1 12 2 17 4-4 0-19 2-21 1 0-2 1-3 1-4z" class="B"></path><path d="M1061 1166l4-1h0l-3 6v1c-5 3-11 6-16 8l15-14z" class="J"></path><path d="M1161 1194c-5-3-10-8-14-12 2 0 4 0 6 1s3 2 4 2c2 0 4 2 5 3v3 1l-1 2z" class="D"></path><path d="M273 731l4 3c-1 1-2 1-3 2l-1 1c0 4-2 8-4 11-1-5-1-10-2-15l3 1c2-1 2-2 3-3z" class="I"></path><path d="M1075 590l1 23v1l2 2c1 2 1 4 1 6l-3 1c-2-1-3 0-4-1-1-2 0-4 0-6l2-1 1-25z" class="E"></path><path d="M574 478c4-7 10-13 14-18-1 5-5 8-6 13v1c0 3-2 5-4 7h-1v-1c-1-1-1-1-3-2z" class="F"></path><path d="M569 340c0-6 1-13 0-19 1-1 1-1 3-1 1 5 1 14 0 19-1 2 0 3-1 4v-1l-1-1-1-1z" class="H"></path><path d="M1151 657c3 0 5 0 7 1 0 3 1 6-1 9h-5l-1-1c0-3-1-6 0-9z" class="E"></path><path d="M510 311h0c-5 4-11 5-17 8a57.31 57.31 0 0 0 11-11c2-2 2-4 4-6l1 6-1 1v1l2 1z" class="F"></path><path d="M964 1115c-5 1-9 1-13 0 3-1 7-2 11-4 4-3 7-6 11-8l-2 4c-2 1-5 8-7 8z" class="B"></path><path d="M521 1189l1 1c0 2-1 4-1 6-2 2-3 3-6 4l-2-1c-1-2-1-3-2-4 1-2 8-5 10-6z" class="C"></path><path d="M737 1341l9 1 1 3c-1 1-2 1-3 2-5 0-9 0-14-2 1-1 2-1 3-2 2 0 3-1 4-2z" class="N"></path><path d="M242 648h1c7 8 10 16 9 26h-1c0-2 0-4-1-7-2-6-8-13-8-19z" class="H"></path><path d="M252 598c-1 0-2 0-2 1l-1 2c2 2 3 2 6 2-3 1-5 0-7 0-2 2-3 4-5 7l1 1h-4c0-4 5-13 7-15 2-1 5 0 7 0l-2 2z" class="L"></path><path d="M1279 994c0 3-1 6-2 9h-10v-1l8-1v-1h-8v-1-2c3-1 8-1 10-3h2z" class="F"></path><path d="M313 1051l22 1c4 0 8 0 11 2l5 1h-21c-2-1-4-1-5-2h3c-1 0-3 0-5-1-3 0-7 0-10-1z" class="P"></path><path d="M432 507c5 0 10-1 14 0l1 1c4 0 8 0 12 1-3 0-6 0-8 1l-2 1c-6 1-15-2-22-3l5-1z" class="G"></path><path d="M988 405l9-3c4 5 8 11 10 16-4-5-6-7-11-10h-2l-1-2c-3 1-4 3-7 4 2-2 2-2 2-5z" class="F"></path><path d="M1159 1200c-5-1-10-7-13-11l1-3c5 3 10 6 13 11l-1 3z" class="G"></path><path d="M1171 585h6c0 2 0 2-1 4 1 3 1 5 1 8h-1c-3 0-4 1-5 0 0-4-1-9 0-12z" class="B"></path><path d="M1022 1137c0-3-1-4-3-6l-1-1h-1l2-3 10 16-3 6c-2-2-3-5-4-7h0c-1-2-1-3 0-5z" class="I"></path><path d="M1215 1100l20 2c-1 1-2 3-4 3h-23c2-1 5-2 7-3v-2z" class="L"></path><path d="M585 1250h1c1 2 0 4-1 5 0 2-1 5-3 6l-4-2c-1-1-2-2-4-3 4-3 7-4 11-6z" class="C"></path><path d="M495 898l1 1c2 4 1 8 1 12s0 7-3 10c-2-1-3-2-4-4 5-5 4-12 5-19z" class="F"></path><path d="M574 694h1c2 0 4 1 6 0v-1c1-1 2-1 2-2 3 0 5 1 8 2 1 2 1 3 1 5-3 1-7 0-10 0l-8-3v-1zm-262-40l13-4c1 2 1 2 1 4l-1 1c-2 0-3 1-4 2-2 2-3 3-6 3v-1l-2-1c0-2 0-3-1-4z" class="D"></path><path d="M548 1052h0c-2-6-8-16-7-21 1 1 2 3 2 5 3 7 8 11 11 17l-1 1c-1 2-1 3-1 5v1l-1-1c-2-2-3-4-3-7z" class="F"></path><path d="M1057 232c2 1 4 2 6 4v1l1-1c6 4 12 6 17 10-6-1-11-3-17-2 1-1 2-1 3-2h1c-2-1-3-1-4-1l-2 2h-2c2-2 3-3 3-4-2 0-2 0-4-2 0-1-2-2-3-3l1-2z" class="G"></path><path d="M374 1150l1-1c9-3 17-6 25-9-8 6-22 8-27 18l-2-1c1-1 0-3 0-4l3-3z" class="F"></path><path d="M480 433l1-1 16-17-13 23c-1-1-1-3-2-4h-3v-1h1zm123-208c2 0 2 0 4 2v1l-3 1v1c0 2 1 4 0 6s-2 3-4 3c-1-1-1-2-1-4h2l-3-1 1-2c1-1 3-2 4-3-3-2-8 4-12 4v-1c4-2 8-5 12-7z" class="G"></path><path d="M502 754c3 11 2 22 4 32-2 0-4 0-5-1 1-2 1-2 1-4-1-2-1-3 0-4 0-8-1-15 0-23zm43 209c1 1 1 0 2 1l-3 34-4-8c4-9 4-18 5-27z" class="B"></path><path d="M494 829c4 1 8 3 12 5v4l-1 1h-1l-4-1h-4c-1 0-1 1-2 2l-2-2 3-4c0-2 0-2-1-4v-1z" class="D"></path><path d="M494 840c1-1 1-2 2-2h4l4 1 2 1v5l-1 1c-4 0-10 0-13-3v-1c2-1 9 1 10-1h-1c-2 0-5-1-7-1z" class="B"></path><path d="M912 1254v3h1c0 4 0 6-1 9h-1c-1-3-1-6-2-10l-1 1c-1 3 0 7 0 10h-2c-1-1-3-3-4-5s1-2-2-4c1-1 9-3 12-4z" class="G"></path><path d="M746 1342c7 0 14 1 21 1 5 0 10-1 15 0-5 1-11 1-17 2-7 1-14 2-21 2 1-1 2-1 3-2l-1-3z" class="O"></path><path d="M1273 550c8-1 18 0 27 0l1 2-1 1-39-1c4-1 9 0 12-2z" class="H"></path><path d="M575 862c3 0 4-1 6 1l3 13h-1c-1-1-1-2-1-4 0 1-1 3-1 4v-1c-1-3-2-4-5-6l-2-1-2-2c1-3 1-3 3-4z" class="D"></path><path d="M1080 1120l3-1c1-2 1-4 3-5 1-1 1-2 2-2v-5c1-3 4-6 7-7-2 5-4 11-6 16-2 3-5 6-7 10l-2-6z" class="F"></path><path d="M181 635l9 2-2 10-8-1 1-11z" class="E"></path><path d="M275 632c1-3 2-5 4-7l27 5h-26c-2 0-1 0-2 1l-3 1z" class="G"></path><path d="M692 1192l7 2c1 4 1 8 1 12l-8-3v-11z" class="D"></path><path d="M277 734l1 1c4 2 7 3 11 4-4 4-7 6-10 11 0 2-2 3-3 4h0v-1c3-4 4-8 7-11 0-1 0 0 1-2h-4c-3 2-5 5-7 8 1-4 2-7 2-10l-2-1 1-1c1-1 2-1 3-2zm875 433c-4-2-6-4-8-7 10 3 20 7 30 12 2 1 6 0 9 0-4 2-7 0-10 1-4-1-14-7-18-7l-3 1z" class="H"></path><path d="M499 733l1 5c0 2 0 1 1 3 0 2 2 11 1 13-1 8 0 15 0 23l-1-1c-3-14-2-29-2-43z" class="J"></path><path d="M435 1221v1c-4 9-11 15-18 22l-1-1-2-1c0-1 1-1 2-2 6-6 14-12 19-19z" class="L"></path><path d="M1005 397c4 0 9 8 12 11l-1 1-3-1c-5-2-10-4-14-8 2-3 3-1 5-2l1-1z" class="G"></path><path d="M539 691h16c5 0 15 1 19 3v1c-8-2-16-1-24-1l-33-1c7-1 15 0 22-2z" class="M"></path><path d="M593 786c0-6 1-12 1-18 0-9-1-19 1-28l1 30c0 5-1 11 0 15v1h-3z" class="O"></path><path d="M397 503c6-1 7-8 14-7h1c-2 2-2 1-3 2-3 0-4 2-6 4-8 6-11 13-16 21v-4c2-5 5-14 10-16z" class="Q"></path><path d="M445 838h2v1c-1 1-1 2-2 2-3 2-29 3-34 3l-3 1 1-1c11-4 24-4 36-6z" class="B"></path><path d="M503 1084l2-1 2-8 1 2 6 9 6 12c-3-3-6-6-9-8-1-1-7-5-8-6z" class="D"></path><path d="M933 174c-3 5-1 21-1 27 0 2 1 5 0 7-2-1-2-2-2-4-1-8-1-16-1-24 0-2-1-5 1-7h4l-1 1z" class="N"></path><path d="M506 1163c2-1 4 0 5-1l1 2c-3 4-8 5-13 7h-2l-5-6c5 0 10-1 14-2z" class="C"></path><path d="M714 1290l-2-23-3-18c-1-2-1-4-1-6h2l1 1 4 39c0 2 0 5-1 7z" class="D"></path><path d="M1057 559c2 2 4 4 4 7 2 5-2 12-4 17-1 1-1 2-2 3 0-9 1-18 2-27z" class="H"></path><path d="M607 919l-2 31c0 3 1 8-1 11 0-4 0-11-2-14-1-3 1-8 1-12 1-4 0-8 1-12 0-3 1-3 3-4z" class="G"></path><path d="M1040 237l1 1v3l-1 2 1 1 1 1h0c1 2 1 3 2 5 0 1 0 2 1 3h1l-2 1c-4-2-9-5-13-8l9-9z" class="H"></path><path d="M481 1024h0l20 29-1 2-1 1c-7-9-14-21-18-32z" class="G"></path><path d="M846 1299v1c-2 8-1 16-1 24 0 3-2 5-2 8 0 6 1 13 0 19l-1 7c-1-2-1-2 0-4v-15c0-11 0-23 1-34 1-2 0-4 2-6h1z" class="J"></path><path d="M932 1222c1 2 1 2 2 3l-16 12c-2 1-3 1-5 2s-2 0-4 0c8-5 15-12 23-17z" class="D"></path><path d="M831 1124c2 13 5 27 5 39l-2-3v-1c1-2 0-3 0-4-1-2-1-1-1-3v-6c-1 3 0 5 0 7v7c1 2 0 3 0 5v1l-3-23h-1v-5h1 1v-2c-2-3-1-9 0-12z" class="B"></path><path d="M566 203l1-1-2-3c-2 0-2 0-3 1v-1l4-6 14 13c-1 1-1 2-3 2-1-1-2-1-4-3-2-3-3 1-7 0v-2z" class="L"></path><path d="M1060 243h2l2-2c1 0 2 0 4 1h-1c-1 1-2 1-3 2l1 1c5 7 13 10 17 19 1 2 2 4 2 6s-1 3-2 4h-2v-1l2-1c1-6-2-9-5-13-4-5-11-11-17-11-1-1-3 0-4 0 1-2 3-4 4-5z" class="F"></path><path d="M657 1237l-5 11-4-10c1-6 4-10 7-14h1l-1 5c0 2 0 2-1 3 0 2 0 3 2 4l1 1z" class="D"></path><path d="M574 873h-5l-10-4c-1-3-2-6-2-9 4 5 11 6 17 8l2 1c1 1 1 2 1 3-2 0-2 0-3 1z" class="B"></path><path d="M254 596l22 1c15 2 31 0 46 2-4 1-10 0-14 0-11 0-25 2-36 0-7-1-14-1-20-1l2-2z" class="J"></path><path d="M1145 1167c2 1 4 3 6 4l16 9-2 3-1 2h-2c-5-3-14-12-17-18z" class="F"></path><path d="M1131 624c-1-8 0-16 0-24 0-4 0-8 1-12 0 5-1 25 1 28h7c1 1 1 3 1 5-3 3-7-1-9 3h-1z" class="C"></path><path d="M273 703c2-4 4-7 8-9s10-3 15-1c3 1 8 6 9 9l1 5h-2c0-1 0-3-1-5-1-3-5-6-9-7s-8 0-12 2c-4 3-5 7-7 11v-4c0-1 1-2 1-3h-1l-1 3-1-1z" class="B"></path><path d="M1041 1093c1 0 2 0 4 1 2 2 3 2 4 5-2 2-3 4-4 5l-2 1c-1 0-3 0-4-1-3-2-2-4-2-6 1-3 2-3 4-5z" class="C"></path><path d="M621 1282c3-5 0-10 3-14 2 10 3 22 0 32l-3-2c-1-4 0-11 0-16z" class="J"></path><path d="M293 644l7 1-11 1c-3 0-16 1-18-1v-3s2-1 2-2l3 1h10 1c1 0 3 0 3 1 2 1 1 1 3 2z" class="D"></path><path d="M460 440c1 0 3-2 4-3 1-3 4-5 5-7s2-1 4-2l1 2c-6 10-15 18-23 27l9-17z" class="G"></path><path d="M909 1239c2 0 2 1 4 0s3-1 5-2v2 1h0c-11 5-21 9-33 11l24-12zm140-127c5-4 8-7 11-13-1-2-2-5-1-7 2 1 2 1 3 2v3h2c1 2 1 1 1 3-3 6-7 12-13 15v-1h-2l-1-2z" class="I"></path><path d="M270 1051h43c3 1 7 1 10 1 2 1 4 1 5 1h-3c1 1 3 1 5 2-9 0-19-1-28-1-3 0-9 0-12-1-4-2-14-1-20-2z" class="O"></path><path d="M1064 1276l-3 3c-2 1-3 2-5 1-4-1-6-6-8-9l1-1c2 1 2 2 4 4h0 1l-2-4 1-1h5c1 1 3 2 4 3l2 4z" class="D"></path><path d="M1253 440h1c2 1 3 6 4 8l-13 8-1 1-1-1c0-1-1-3 0-4 1-3 8-9 10-12z" class="E"></path><path d="M326 1187c0-2 0-3-2-4h-1l-2-3 1-1 3 3c1 1 0 0 2 1 2 2 3 4 6 4l2-1h7c2 0 4-1 6-2l1 2c-2 2-5 3-8 4-1 0-2 0-3 1h-1v1l2 1-2 1c-4-2-8-4-11-7z" class="G"></path><path d="M604 558l1 3h3l1-1h-2l3-1v4 1c-1 7 1 16-1 22-1-2-1-9-2-10v9l-2 3-1-30z" class="F"></path><path d="M1249 574c1 2 2 4 3 5 6 2 13 0 19 0-2 1-1 1-2 1-5 1-12 2-16 4-4 3-4 12-5 17 0-3 1-15-2-17-1-1-3-2-4-3 5-1 6-1 7-6v-1z" class="E"></path><path d="M455 520c9 1 16 3 24 6 3 1 7 2 10 4l-1 2c-1 0-2-1-2-2l-34-7c2-1 3-1 3-3z" class="F"></path><path d="M630 1048l1 1c0 3-1 4-3 6l1 1-12 6c-3 0-8 2-10 1 4-2 10-3 14-6-5-1-16 5-21 6 2-3 15-6 20-8 3-3 8-4 10-7z" class="J"></path><path d="M715 1283c1 5 1 12 1 17 0 14 0 28-2 42l-1-1c0-12 0-25 1-38 0-4-1-9 0-13 1-2 1-5 1-7z" class="M"></path><path d="M1261 560c9-3 19 0 29-1h10l1 1-1 1c-4 1-35 3-38 2 0-2 0-2-1-3z" class="H"></path><path d="M459 509c8 1 18 5 25 8 3 1 6 2 8 4l-1 1c-6-2-12-5-18-6-8-2-16-3-24-5l2-1c2-1 5-1 8-1z" class="B"></path><path d="M592 917h0l8 34c-1 0-2 0-2 1-1 2-1 5 0 7 0 7 2 16 1 23-2-4-1-9-2-13v-1c0-2-1-3-2-4v-9-16c0-7-3-14-3-21v-1z" class="M"></path><path d="M194 854c4-1 11 1 15 1l40 3c-3 1-6 1-9 1l-43-2v9l-1-1c0-2 0-5-1-7 0-1-1-2-1-4z" class="B"></path><defs><linearGradient id="A" x1="1215.845" y1="1101.057" x2="1203.501" y2="1116.796" xlink:href="#B"><stop offset="0" stop-color="#84828b"></stop><stop offset="1" stop-color="#b2b2ac"></stop></linearGradient><linearGradient id="B" gradientUnits="userSpaceOnUse"></linearGradient></defs><path fill="url(#A)" d="M1198 1106l31 1c0 1 0 2-1 2-2 2-4 1-7 1-9 0-17 0-26 1-2 1-4 1-6 1 2-3 6-4 9-6z"></path><path d="M873 243c1-3 1-4 3-5 11 1 22 3 33 5l15 6h0c-5 0-9-2-14-3-6-2-12-3-17-4-3 0-7-1-10 0l2 1c-3 0-9-1-12 0z" class="B"></path><path d="M599 735l1 1c0 7 2 43 1 46l-1 1h-2c-1-8 0-17 0-25 0-7-1-15 1-23z" class="G"></path><path d="M998 1089l-16 8 20-15 15 1c-3 3-9 10-13 12-1-1-2-1-3-1h-1c3-3 7-4 9-9h-1c-2 0-4 0-6 1l-3 3h-1z" class="L"></path><path d="M1136 449h-1c0-1-1-2-1-4l-1-2-2-3 1-1h1 1v-2-1h1c1 1 1 1 1 2v2c3 6 7 12 10 18 1 1 2 3 1 5-1 0-2 0-3-1-4-3-5-9-8-13z" class="D"></path><path d="M606 743c1-2 1-4 1-7l1 4v15c1 2 0 4 1 5v12l-3 3-1 1c0 1 0 2-1 4h0c-1-2-1-5 0-6v-1c2-9 1-20 2-30z" class="F"></path><path d="M693 1281l2 25h-1l-2-1c-2 0-3-1-4-2 0-5-1-12 0-16 0-1 4-5 5-6zM580 790c1-2 0-8 0-11 0-13 0-28 2-41l1 33c0 5 0 12 1 17v1c-1 0-3 1-4 1z" class="D"></path><path d="M387 523l-4 11c-1-1 0-3-1-4-1 2-1 7-2 10 0 3-1 5-2 8 0-6 1-12 2-17 3-14 10-27 22-34h1l-6 6c-5 2-8 11-10 16v4z" class="P"></path><path d="M548 217l-1-1 1-2h-10-1v-1l25-18c-2 4-6 6-9 8l-11 10c4 1 10 0 14-2h0c3 0 5 0 8-1l1 1c-4 3-8 6-14 6h-3z" class="O"></path><path d="M1224 1079c1 0 3-1 4-1 1 1 2 1 4 1 4 3 13-1 17 1-1 2-4 1-5 1v1c1 0 2 1 4 2h-3c-5 0-11 0-16-1h-1c-1 1 0 1-1 1l-1 1 1 1-1 1c-2 0-5 1-7-1 0-1 1-1 2-3l1-1c1-1 1-2 2-3z" class="K"></path><path d="M464 835l3-2c2 1 3 2 5 2l4 1c2 0 4 1 6 1v1l1-1v-2c3-1 5-1 7-2-2 3-4 7-6 10-5-1-16-2-20-6v-2z" class="B"></path><path d="M244 632c4 6 8 13 9 21 1 2 1 6 0 8-1-3-3-5-5-7-1-2-5-8-5-10-1-3 1-9 1-12z" class="H"></path><path d="M610 559l1-2-2-2c3-3 0-9 3-12 1 2 0 13 0 16l1 1c0-6 0-11 1-16v-1c0 19 0 38-2 56l-1-23c0-5 1-9-1-13v-4z" class="I"></path><path d="M619 1046h2c3 0 6-2 9-1l1 1c-1 1-1 1-2 1l1 1c-2 3-7 4-10 7l-5-1 3-3h0c-5 1-8 3-12 4h-5l12-6 1-2 5-1z" class="K"></path><path d="M569 340l1 1 1 1v1c0 4 0 8-1 12-1 8-7 19-13 26 2-4 4-7 5-11 3-9 5-17 7-25l-9 12c-2 1-4 4-6 4 0-1 11-13 12-15 2-1 2-3 3-5v-1z" class="I"></path><path d="M1146 1109c-4 2-13 1-19 1 3-2 5-5 7-7 4-5 6-8 12-9l1 1c-3 1-4 2-6 3v1c2-1 4-2 6-2-1 2-7 3-10 5v1h12c0 2-1 4-3 6zM541 294l1 1v-4c1 3 2 7 2 11l-4 5c-2 0-4-1-6 1l-4 3c-6 4-13 7-20 9 8-5 17-9 24-16h-1c2-2 3-2 4-5 1-1 0 0 2-1 3-1 1-2 2-4z" class="B"></path><path d="M602 634l1-1c-1 7 1 15 1 23 1 6 0 12 1 18l4 45c-2 7 0 14-1 21l-1-4c0 3 0 5-1 7v-27l-2-41c-1-8 0-17-1-25-1-5 0-10-1-16z" class="I"></path><path d="M707 1207c-2 0-3 0-4-1-1-4 1-8 3-11s3-4 3-7v-1c0-3 0-4-2-7h-1l1-1 3-1 1 1c1 9 1 17 1 26-1 1-1 2-3 2h-2z" class="D"></path><path d="M537 737l2 31h1c2 13 0 27 0 40-1-6-1-11-1-16v-21c-2 5 0 11-2 16v-50z" class="H"></path><path d="M1151 683h1c2 0 4 1 5 3 1 9 0 17-2 25v2c-4-9-5-20-4-30z" class="E"></path><path d="M998 1089h1l3-3c2-1 4-1 6-1h1c-2 5-6 6-9 9h1c1 0 2 0 3 1-1 1-7 4-8 6 0 1-1 1-2 1l-1-1 1-1-1-1-11 1 16-11z" class="H"></path><defs><linearGradient id="C" x1="756.353" y1="1360.093" x2="725.975" y2="1356.521" xlink:href="#B"><stop offset="0" stop-color="#a5a4a5"></stop><stop offset="1" stop-color="#d1d0d2"></stop></linearGradient></defs><path fill="url(#C)" d="M758 1360c-8 2-24 2-33 0 0-2 0-3 1-5 10 2 21 2 32 2v3z"></path><path d="M179 833l1-1c2 0 6 0 8 1v4s0 1 1 1c1 1 8 1 10 1 17 1 36-1 53 3-6 1-70-2-73-3v-6z" class="C"></path><path d="M1217 1089c2-1 5 0 7 0 7 0 14 1 21 0h1l-1 1c-8 3-19 1-28 2 7 1 16 0 23 2l-28 2c7 1 14 2 21 2l-23 1 7-10z" class="L"></path><path d="M530 311l4-3c2-2 4-1 6-1-6 8-18 20-28 21h-4l1-1c3-1 6-2 8-4-2-1-4 1-5 0 4-2 17-8 18-12z" class="G"></path><path d="M1025 419h1c6 5 16 18 18 26l-2 1c2 0 2 0 3 1l-1 2c1 1 2 3 3 5s1 1 1 3c-7-12-21-24-23-38zM563 767l2-24 3 18 1 22c1 3 0 8 2 11l-1 1c-2-1-2-1-3-2-2-5-1-10-1-16 0-4-1-8-1-12 2-2 1-6 1-8 0-1 0-1-1-2v-3 3c-1 7 0 15-2 22v2-12z" class="D"></path><path d="M272 818c7-1 14-2 20 0l-48 4h-1c-2 0-13 2-15 0v-1c4-2 9-2 14-2l30-1z" class="B"></path><path d="M465 692c4-1 8-1 12-1-1-1 0-1-1-1l-1-1 1-1 3 1 60 2c-7 2-15 1-22 2l-52-1z" class="L"></path><path d="M596 1278c6 0 8 0 12 3v1c-6 1-11-2-16 2-2 2-3 5-3 8 0 4 1 7 4 10 2 1 4 1 5 2v1c-2 0-4 0-6-1-3-1-5-3-6-6-2-3-2-8 0-11 2-5 6-7 10-9zM272 689l1 1c-15 14-19 37-20 56-2-7-3-14-2-21 2-14 10-28 21-36z" class="B"></path><path d="M1052 1115c-1 1-6 3-7 4l1 1c7-1 16-12 20-16-1 4-8 11-12 13-4 3-9 7-14 5-3-2-10-9-11-13l5 3c5 2 10 2 15 0h0l1 2h2v1z" class="G"></path><defs><linearGradient id="D" x1="522.508" y1="1009.745" x2="536.238" y2="1024.934" xlink:href="#B"><stop offset="0" stop-color="#6a6a69"></stop><stop offset="1" stop-color="#959494"></stop></linearGradient></defs><path fill="url(#D)" d="M542 1046c-5-12-15-24-18-37l-3-10c6 8 11 16 15 25 3 7 5 14 8 21l-2 1z"></path><path d="M383 1182h3c3 0 8-1 9-3 2-1 4-9 5-11 2-8 5-16 10-22h1c-3 3-4 8-6 13 2-3 4-6 7-8-2 4-4 7-5 11l-1 1-1 3c-1 6-4 10-6 14l-14 5c0-1-1-2-2-3z" class="I"></path><path d="M1277 994h-10v-2c1-1 1-1 3-2-1 0-1 0-3-1 1-1 1-2 1-4-1-1-1-1 0-2 5-1 10-3 14-6h1c0 5-2 11-4 17h-2z" class="B"></path><path d="M1268 964h12l1 10-7 1c-2 0-2 0-4 2h2 4v1c-2 1-5 2-8 3l-2-16 2-1z" class="C"></path><path d="M273 703l1 1 1-3h1c0 1-1 2-1 3v4c2 5 3 9 8 12 4 2 8 3 12 1 3-1 7-3 8-7 1-2 1-4 1-7h2l-1 5c-1 5-4 9-8 12-4 2-8 3-12 2s-8-4-10-8c-3-5-3-9-2-15z" class="D"></path><path d="M1261 560c1 1 1 1 1 3-1 0-7 2-8 3 6 0 11 1 16 0 8-1 16-1 23-1h6c-7 3-16 0-23 2-6 2-15 1-21 1-2 0-1 0-3 1h18c10 0 20-1 30 0-4 0-8 1-12 1l-28 1c-3 0-8 0-10 2l-1 1v1-5c2-4 7-8 12-10z" class="B"></path><path d="M573 205c2 2 3 2 4 3l-17 14c-2 2-5 4-8 5l1-1c0-2 0-4-1-5s-2-3-4-4h3c6 0 10-3 14-6 2-3 5-4 8-6z" class="H"></path><defs><linearGradient id="E" x1="250.815" y1="623.914" x2="259.725" y2="611.627" xlink:href="#B"><stop offset="0" stop-color="#403f42"></stop><stop offset="1" stop-color="#585756"></stop></linearGradient></defs><path fill="url(#E)" d="M241 616c3-1 6 0 8 0 7 0 14 0 21 1v1l-3 2c0 1-2 2-2 3-2 1-15 1-18 0s-5-5-6-7z"></path><path d="M488 1016l19 29-4 6c-2 0-2-2-3-3-4-5-7-11-11-17l-4-10 17 24v1-2c-6-8-10-18-14-28z" class="F"></path><path d="M825 135c2 0 5-1 7 1 0 2 0 3-1 5h-25c-3 0-7 1-9 0v-4l1-1 27-1zm346 480c2-1 4-1 6 0-1 6-1 12-1 18l-2 30v1c-2-3-2-8-2-11-1-12-1-26-1-38z" class="E"></path><path d="M1134 303c3 2 5 5 7 7s3 4 5 5c-3 1-6 5-8 8l-12-12c2-2 5-4 7-7l1-1z" class="G"></path><path d="M986 410c3-1 4-3 7-4l1 2h0l4 4c2 1 3 2 4 4v2c-2-1-3-2-4-3v2h0c1 1 2 1 2 2-1 2-1 3-3 3h-1c2-2 2-2 1-4h0c-1 2-2 3-3 4-2-1-6 0-8-1-1-3-3-4-3-7l1-1c1-2 1-2 2-3zM543 748v1l3 69c-2-4-2-9-2-13-2-19-2-38-1-57z" class="D"></path><path d="M1076 1119c0-7 8-17 12-22 2-1 5-1 7 0h1l-1 3c-3 1-6 4-7 7v5c-1 0-1 1-2 2-2 1-2 3-3 5l-3 1-4-1z" class="C"></path><path d="M482 415c4-3 7-6 11-8-5 5-10 10-13 15-2 2-4 6-6 8l-1-2c-2 1-3 0-4 2s-4 4-5 7c-1 1-3 3-4 3-5 5-8 13-13 17 0-3 2-5 3-7 5-10 12-17 19-24 1-1 3-4 4-5h3c2-1 5-4 6-6zm561-181c-2 0-4-1-6-2-1-1 3-4 4-6-3 3-6 6-10 8 3-5 7-9 11-13-8 2-13 14-20 18 4-3 6-8 9-12 1-1 2-3 3-4v-2c0-1 2-2 2-3 3 0 4 3 7 4 4 1 11 7 14 10l-1 2c-3-2-6-4-9-5l-2 1-2 4zm-695 950l40-18c-2 1-4 3-5 4h-3c-1 1-2 1-3 2-2 1-3 2-5 3-1 1-2 1-3 2l1 2c-1 1-2 1-3 2l-1 1c-1 1-3 1-4 2s-1 1-2 1l-6 3-3 1h-2c-1 1-1 1-2 1l-8 3-2-1v-1h1c1-1 2-1 3-1 3-1 6-2 8-4l-1-2z" class="F"></path><path d="M439 334h2c-4 3-14 10-15 16 0 4 1 3 3 5 1 3 1 6 0 9 0 1 0 1-1 2v2c-1 1-2 1-3 2 1-2 0-1 1-2s2-2 2-4v-6-3h-1c0 6 1 8-3 13l-2-1c-1-7-1-13-1-20 5-5 12-9 18-13z" class="I"></path><path d="M424 349l2 1-1 2c0 3 0 5-1 7h-1c0-3 0-7 1-10z" class="H"></path><path d="M1051 369l3 2-1 1 1 1c1 3 4 6 6 8 6 7 13 14 18 21 4 6 8 14 11 21-9-11-17-24-27-34-4-5-9-9-14-14 5 1 7 5 11 8-3-5-8-7-8-13v-1z" class="B"></path><path d="M484 360c3 0 7 0 11 1h0-3c-7-1-18 2-23 7 4-1 9-3 14-3 4 0 8 1 12 1-3 1-6 1-9 1-7 1-12 4-18 8l-1-2h-5l-1 1c-9 5-15 12-23 18-1-1-1-1 0-1 2-3 6-6 8-8 8-7 17-15 26-19 3-2 8-3 12-4z" class="F"></path><path d="M277 956l1-2h1c3 3 2 6 2 10l1 14v8c1 2 1 6 1 9v19c0 3 0 7-1 10h0l-1-2v-1c0-2 1-5 0-7-2-5 0-14 0-20h-3v-24c0-4 0-10-1-14z" class="J"></path><path d="M561 884c0-3-2-11-1-13l4 1c0 5 3 7 4 11 0 2 1 3 0 5v1l7 49c1 1 1 2 0 4-1-2 0-5-1-7l-10-45v-4c-1 2-1 1-2 2l-1-4z" class="B"></path><path d="M593 1045c1 2 2 3 4 3l10-3c3 0 4 1 7-1l1 1c1 0 3 0 4 1l-5 1-1 2-12 6c-8 1-16-3-22-6l14-4z" class="H"></path><path d="M311 733c-6 3-12 10-17 14-3 3-6 7-10 9l-1-1c5-4 7-8 11-12 2-3 5-5 8-7-7 2-12 6-17 11h-1c2-3 4-6 7-8s7-3 11-6c6-4 12-9 19-13-1 1 0 3-1 4-1 2-6 7-8 8l-1 2v-1zm725-317h1c4 4 6 8 9 12 4 5 20 29 19 33l-7-12-2-3-1 1 6 11-1 1c-4-8-8-17-14-24l-1-1h-1c-3-1-7-6-8-9-2-4-1-5 0-9z" class="D"></path><path d="M1151 565c2 0 2 1 3 1 1 7 3 54 1 58l-2-1c-1-4-1-9-1-13l-1-29c0-4-1-12 0-16z" class="C"></path><defs><linearGradient id="F" x1="470.559" y1="692.343" x2="464.571" y2="681.967" xlink:href="#B"><stop offset="0" stop-color="#9b9b9c"></stop><stop offset="1" stop-color="#b8b6b6"></stop></linearGradient></defs><path fill="url(#F)" d="M465 692c-2 1-6 0-8 0h-19l38-9c5-1 12-2 16 1-5 0-9 3-13 5l-3-1-1 1 1 1c1 0 0 0 1 1-4 0-8 0-12 1z"></path><path d="M495 928c1-1 1-2 2-4 0-3 1-6 2-9s0-6-1-9v-2c4 3 3 10 3 15 0 4-2 8-2 12 0 3-2 8-5 10-1 1-3 3-5 4-4 1-9-1-14 0 2-1 1-1 2-1 4-1 10-4 12-8 1-2 2-3 3-5l3-3z" class="H"></path><path d="M759 1113h1v1c-1 0-2 0-3 1-3 2-6 5-7 9s0 8 3 12c2 3 6 5 10 5 3 1 8 0 10-3 4-3 5-7 5-11s-1-8-4-11c-1-1-2-1-2-2l4 1c1 2 3 4 4 6 2 4 2 8 0 12a19.81 19.81 0 0 1-11 11c-4 1-9 1-13-1s-7-7-8-11-1-9 1-13c3-3 6-5 10-6z" class="C"></path><path d="M969 445c3 0 4 0 6 1v2c-3 4-8 7-13 11 0-2 5-5 6-7v-2c-1 0-3 1-4 2-2 4-5 7-8 9-7 1-16 1-23 0l1-1c5-4 10-4 17-5l12-3c2-3 4-5 6-7z" class="I"></path><path d="M561 1227c1 1 1 2 2 3 1 2 2 2 3 4-2 2-5 4-8 5-3 2-6 3-10 2-3-2-6-4-8-6 7-3 14-6 21-8z" class="E"></path><path d="M304 435h7l-8 3c4 0 14 0 16 2h-10c-16 1-30 13-39 23l-10 12h-4c10-12 21-24 34-33 4-3 10-5 14-7z" class="I"></path><path d="M479 816c2-1 3-1 5-1v-2-1c1-1 1 0 2 0h2c1 0 1 0 3 1 1 0 1 0 3 1 1 0 1 0 3 1 1 0 2-1 4 0l4 1 1 3-1 1c-3-1-6-3-9-2 3 1 7 2 10 4l-1 3c-2 0-11-3-13-4h-5-8l-1 1h-1-1l-1-2c2-1 3-3 4-4z" class="D"></path><path d="M479 816h10c1 2 2 3 3 5h-5-8l-1 1h-1-1l-1-2c2-1 3-3 4-4z" class="G"></path><path d="M569 239c-1 7 1 13 2 19-4-3-7-6-12-6-6 0-10 1-16 2 2-2 5-3 7-5l20-15c0 1 0 4-1 5z" class="I"></path><path d="M373 1158l1-1c4-1 7-4 11-5 0 1-1 3-3 4-5 3-12 6-15 12v1c3-3 6-7 9-9 4-2 6-3 9-6l4-3h1c-3 4-6 9-10 13-7 5-16 9-24 14-5 2-9 5-14 6h-7c-1 0-1-1-3 0 0-1 0-2 1-3l1 1c2 1 5 1 8 0 13-6 23-11 29-25l2 1z" class="H"></path><path d="M315 564c3-2 6-4 8-6 3-3 5-7 7-10 2 1 4 1 7 1h0c6 2 13 2 19 3-8 1-17 0-25 3 8 2 16 2 24 3l-16 2c-5 1-10 3-16 3l-1-2-3 2-4 1z" class="F"></path><path d="M1098 335l40 41c8 8 20 17 24 28-3-4-7-11-11-13l-2-2c-2-1-2 0-4 1-8-12-16-23-26-32l-25-22h3l1-1zm-22 784l4 1 2 6v1c2-1 3-2 4-4 1 2 0 3-1 4-5 5-8 9-11 15h1c4-6 7-11 13-14l1-1h0c-8 13-18 22-30 32h-1v-2c3 0 8-6 10-8l2-2 1-1c0-3 1-5 1-8l4-19z" class="D"></path><path d="M348 712c4-2 8-2 12-3l-35 34-9 9c3-7 10-14 15-21 6-6 11-13 17-19z" class="F"></path><path d="M450 450l-1-1c-2 2-3 5-5 7l-1-1c1-3 2-5 4-7s1-1 1-3c0 1-1 1-2 2v1l-7 10c-2 1-3 3-4 5l-1-2c3-6 8-12 12-18 3-5 7-7 11-10 5-4 8-8 13-12 3-2 7-6 10-8l2 2c-1 2-4 5-6 6h-3c-1 1-3 4-4 5-7 7-14 14-19 24z" class="J"></path><path d="M1061 226l-33-25-14 20 4-17c-1 1-2 2-2 3-1 3-2 4-4 6 2-8 5-13 9-20 5 5 12 10 19 15s14 11 22 16l-1 2z" class="F"></path><path d="M234 897c-2-2-1-6-1-9v-26c2 1 5 2 7 3-2 0-3 0-5 1v1c2 1 4 1 7 1v1l-6 1h-1l3 2-1 1c1 1 1 2 3 2l1 1 3-1c2 2 2 2 2 4l-1 2h-1l-6 1 1 1 6 1c-2 2-7 1-10 2 3 1 6 1 9 2v1h-6l1 1 7 1c-2 1-9 1-9 2-2 0-1 0-3 1v3z" class="G"></path><path d="M241 876l3-1c2 2 2 2 2 4l-1 2h-1 0c-2-1-4-1-5-3v-1h3l-1-1z" class="K"></path><path d="M1197 1226h2l4 5-19 21h-2l-4-6 19-20z" class="E"></path><path d="M1095 1097l18-1c-5 9-9 16-17 22-2-1 0-3-2-4-1 0 0 0-1-1 1-5 1-10 3-15v-1h-1z" class="D"></path><path d="M871 188c-2 3-3 6-6 8h-6v-1l2-2c5-5 7-11 6-19 0-9-5-13-11-19l14 5c-1 4 2 6 3 10 0 3 1 14-1 17v1h-1z" class="B"></path><path d="M277 956c1 4 1 10 1 14v24 29l-1 1-2-1-1-38v-1c-1-2-1-2-2-3l1-3c1-4 0-8 1-13v-1c1-3 2-5 3-8z" class="F"></path><path d="M869 1246l1-1c4 0 7-2 11-3 6-3 12-6 19-7-7 8-15 15-25 19l-4 2-2-1h-2c-1-2-2-2-1-4l3-5z" class="L"></path><path d="M956 543l-3 33h-14c5-11 10-22 17-33z" class="C"></path><path d="M853 1282l6 54c1 9 3 19 3 28v4c-7 6-22 8-31 10-1 1-3 1-4 1 2-2 5-2 8-3 6-2 12-4 17-6 4-1 7-2 9-5 0-9-2-17-3-25l-5-39c-1-6-3-12-3-17l3-2z" class="B"></path><path d="M918 1237h1c4-1 8-4 12-6 9-4 19-8 26-14l4 12c-8 4-16 8-25 9 6-3 16-6 21-10v-1c-8 4-15 6-23 9 3-2 6-4 9-5 4-2 12-5 14-8l-1-1c-5 3-10 5-16 8-7 4-14 8-22 10v-1-2z" class="F"></path><path d="M276 807h11l-100 6v11c0 2-1 2-1 3-3 0-5 1-7 0l-2-16 99-4z" class="E"></path><path d="M399 374l2-1c1 3 0 7 0 10v18c0 2 0 2-1 3v6c-3-3-7-8-8-13l-1-1c0-2-2-8-2-10 0-1 2-2 2-2 3-3 7-6 8-9v-1z" class="C"></path><path d="M1062 224c8 6 45 30 47 37-4 1-6-1-10-3-6-4-13-9-18-14-7-6-13-13-20-18l1-2z" class="D"></path><path d="M627 194l1 1 10 29-8 3-7-17c-1-3-3-8-5-10h-1c2-1 1-1 3-1 1 5 4 11 6 16h1l-6-17 6-4z" class="C"></path><path d="M271 695c0 2 0 3 1 4-4 8-6 17-3 25 1 3 3 5 4 7-1 1-1 2-3 3l-3-1-3-15-3 29-2-7c-2-16 3-32 12-45zm289 105c-1 0-2 0-3 1-2-3-1-10-1-13l2-44 2 17c0 2 1 4 1 6h2v12 20l-3 1z" class="D"></path><path d="M560 761c0 2 1 4 1 6h2v12 20l-3 1v-39z" class="Q"></path><defs><linearGradient id="G" x1="543.545" y1="772.522" x2="557.323" y2="795.599" xlink:href="#B"><stop offset="0" stop-color="#c2c3c2"></stop><stop offset="1" stop-color="#ebe9ea"></stop></linearGradient></defs><path fill="url(#G)" d="M550 743l1 1 3 56-2 2h-1v7h0c-4-14-3-29-3-43 0-3 0-8 1-11l1 1v-2l-1-1 1-10z"></path><path d="M275 573h0c2-2 3-2 5-3l1 1c5 4 46 3 57 8-14 3-30 1-44-1-5 0-13-1-17-3l-2-2z" class="F"></path><path d="M362 403h1c2-1 10-3 11-4l2-2 1-1-1-1c2-2 6-2 8-4-3 0-5 0-8 1l-1-1c-1 0-2 0-3-1h1c4 0 8 0 12-2l1-1h1c2 7 4 15 8 21v1c-1-1-2-2-2-3-2-4-9-7-12-8l-2 1v1h4c6 1 9 9 15 11l-1 1v1c2 1 3 2 4 4 0 1 2 3 3 5l-1 1c-1-1-1 0-1-1-2-4-5-7-7-10-5-5-14-9-22-10-3 0-8 1-11 2v-1z" class="D"></path><path d="M1202 1140c5 0 13-1 17 0v1h-3c-4 1-8 0-12 1-15 2-31 2-45 1 1 2 4 2 5 2 9 1 17 1 26 2-10 2-22 0-32 0-2 0-4 0-6 1 8 1 17 1 25 2 3 0 6 0 9 2-2 0-6 0-8-1l-26-1-1-2c0-2 1-4 2-6 1 0 2-1 3-1 2-1 8 0 11 0l35-1z" class="P"></path><path d="M1058 1157c-3-2-5-6-7-9-3-6-6-12-10-17 6-1 10-2 15-4 0 4 0 6-2 9l10 8v4c-2 4-5 5-6 9z" class="B"></path><path d="M409 373l1 10h1v-1c0-2 1-3 1-5 0-4-1-25 0-27 1 2 1 4 1 6v18 54c0 2 0 2 1 3 1 4 0 10 0 14v7c-1 3 0 7-2 9v2h-1-1l1-2 1-30c0-2 0-3-1-4v-1c1-2 0-4 0-6v-8l-2-2c-1-2 0-7 0-10v-27zm282-124h2 1c-4 2-24 8-26 11 3 0 5-1 8-2l2-1c1-1 1 0 3 0 1-1 1-1 3-1l1-1h3l1-1 1 1v1l-2 1-9 3-1 1h-1c-1 0-2 0-3 1l-2 1h-3l-26 9-1-1 3-2c1 0 2-1 3-2-2 0-5 1-7 2l-17 6h-1c1-2 2-2 4-3 7-3 16-6 24-9 13-5 27-11 40-14z" class="J"></path><path d="M274 381c7-1 14-1 20 1v1c-4 0-8 1-12 3l8 3 1 1h-2c5 3 12 4 18 5 2 0 6 0 8 2-7 0-11-1-17-2l-24-5-25-5-1-1c3-2 8 0 11 1 3 0 5 0 7-1 3-2 6-2 8-3z" class="G"></path><path d="M266 384c3-2 6-2 8-3l7 3c0 2-2 1-2 3-5 1-9 0-12-3h-1z" class="B"></path><defs><linearGradient id="H" x1="770.025" y1="1343.464" x2="726.141" y2="1347.963" xlink:href="#B"><stop offset="0" stop-color="#aeaeaf"></stop><stop offset="1" stop-color="#d1d0d1"></stop></linearGradient></defs><path fill="url(#H)" d="M730 1345l1 3c6 5 44-2 55 2-4 2-11 2-16 2l-45 3 1-16c4 1 7 2 11 2-1 1-2 2-4 2-1 1-2 1-3 2z"></path><path d="M332 534c0-7-1-12-2-19 3 4 7 8 12 10 3 1 6 2 9 2 1 1 5 1 6 1v1l-1 2c-5 1-11 0-16 3v1c5 0 8 0 12 2l3 1c2 1 1 0 2 1l-20 1h-3-1l-1-6z" class="C"></path><defs><linearGradient id="I" x1="824.449" y1="1214.102" x2="848.627" y2="1151.625" xlink:href="#B"><stop offset="0" stop-color="#dcd8dc"></stop><stop offset="1" stop-color="#fff"></stop></linearGradient></defs><path fill="url(#I)" d="M833 1166v-1c0-2 1-3 0-5v-7c0-2-1-4 0-7v6c0 2 0 1 1 3 0 1 1 2 0 4v1l2 3 7 46c-1 3-1 6 0 9h-2l-2 2-1-1c0-2-1-3-1-4l-4-49z"></path><path d="M375 1130h1c3 0 6-1 9-1s7-3 10-4l-12 9c-1 0-1 0-1 1 2-1 3-2 6-3 1 0 1 0 2 1l9-3 1 1c-1 1-2 1-3 2l-18 7c8-1 15-4 22-6l1 1c-2 2-7 3-10 5-6 2-14 6-18 10l-3 3-3-7c2-2 3-5 7-6-1 0-2-1-3-1 1-2 3-4 5-5 1 0 2 0 3-1 2-1 3-1 5-3l-2 1c-3 0-7 1-10 0l2-1zm686 36c10-8 19-17 28-27 6-7 12-15 19-21-6 17-31 44-46 53l3-6h0l-4 1z" class="B"></path><path d="M858 1207l2-1c0-2 0-1 2-2l1 1-1 1c1 1 2 1 2 3l1 5 1 1v3c0 1 1 5 1 5 1 2 1 5 1 7 1 2 1 4 2 7v2l1 2-2 5-3 5c-1 2 0 2 1 4h2l2 1-4 2-2-1-7-50z" class="F"></path><path d="M863 1205c1 0 3 0 4-1h2l3-1c2-1 4-1 6 0l1 1-1 1c-1 0-2 1-4 1l1 1c1 4-1 10 1 13 0 5 0 10-1 14 0 2 0 2-1 3l1 2-4 2-1-2v-2c-1-3-1-5-2-7 0-2 0-5-1-7 0 0-1-4-1-5v-3l-1-1-1-5c0-2-1-2-2-3l1-1zm180-971l2-4 2-1c3 1 6 3 9 5 1 1 3 2 3 3 2 2 2 2 4 2 0 1-1 2-3 4-1 1-3 3-4 5-4 1-7 2-10 5h-1c-1-1-1-2-1-3-1-2-1-3-2-5h0l-1-1-1-1 1-2v-3l-1-1 3-3z" class="D"></path><path d="M594 534c-7 1-15 1-22 1 3-10 5-20 8-30 3-9 7-17 10-25 3-7 5-13 10-18-1 6-3 12-6 17l-7 23c-2 3-4 8-4 12v1l-3 6-1 3-1 1c-1 2-1 5-2 7l-1 1c6 2 13 0 19 1z" class="B"></path><defs><linearGradient id="J" x1="376.235" y1="1176.539" x2="352.842" y2="1203.65" xlink:href="#B"><stop offset="0" stop-color="#bbb8b8"></stop><stop offset="1" stop-color="#ecedef"></stop></linearGradient></defs><path fill="url(#J)" d="M339 1193l8-3c1 0 1 0 2-1h2l3-1 6-3c1 0 1 0 2-1s3-1 4-2l1-1c1-1 2-1 3-2l-1-2c1-1 2-1 3-2 2-1 3-2 5-3 1-1 2-1 3-2h3c-7 7-13 13-22 16l-18 7c-1 1 0 1-1 2l1 1 1-1c4-3 10-4 14-5 8-3 17-6 25-8 1 1 2 2 2 3-11 5-24 8-35 14l-3 2-1-1c-3-3-6-4-9-6l2-1z"></path><path d="M915 395l17 10c-3 5-8 9-13 14v-1h-1c0-3 0-5-2-6-1-1-1-1-2-1 0 2 0 3 1 4l-1 1-2-2v-4h0c-1 1-1 2-1 3h-1c-1-1-2-1-3-2-1-4 3-9 4-13l1-2h2l1-1z" class="B"></path><path d="M732 1412c8-1 16 1 24 1 4 0 13-1 16 1 0 3 1 5 0 7-6 1-37 0-41-3 0-2 0-4 1-6zm530-797c4-1 12 0 16 0h22c4 0 9-1 12 0 1 2 1 4 1 6-4 1-11 1-15 1-11 0-23 0-35-1-1-2-1-3-1-6z" class="E"></path><defs><linearGradient id="K" x1="774.989" y1="1364.151" x2="725.692" y2="1367.62" xlink:href="#B"><stop offset="0" stop-color="#b6b5b6"></stop><stop offset="1" stop-color="#e0dfe0"></stop></linearGradient></defs><path fill="url(#K)" d="M725 1362l60 6h-3c-4 2-10 2-15 2-14 1-28 1-43 1l1-9z"></path><path d="M1200 585h1l1 1c0 25 3 51 1 76 0 5 0 12-2 17l-3-53c-1-8-2-36 2-41z" class="E"></path><path d="M607 585l6 123 1-2 1 1 1 15v6h-1c-1 4-1 8-2 11l-3-16c-3 12 1 25-1 37-1-1 0-3-1-5v-15c1-7-1-14 1-21l1 1c2-4 1-12 1-17l-3-50-2-44-1-21 2-3z" class="P"></path><path d="M612 414c-5 4-10 12-15 15l10-20c-7 5-13 12-20 18 8-13 15-23 25-34l8 8-1 2 1 1c-2 2-3 2-4 4l-4 6h0z" class="D"></path><path d="M858 1207c0-2-1-5 0-7l16-4c6-2 19-9 25-8s10 0 15-1v1l-1 1c-4 1-13 5-16 7v1c-6 2-13 4-18 7l-1-1c-2-1-4-1-6 0l-3 1h-2c-1 1-3 1-4 1l-1-1c-2 1-2 0-2 2l-2 1z" class="G"></path><path d="M342 692c4-2 10-3 15-4 18-5 39-9 58-10l1 1c1 0 1 0 2 1-2 2-4 0-6 2-3 0-6-1-8 1h-1-5c-1 1-2 1-4 1l-2 1-11 2c-1 0-3 0-4 1 2 2 3 0 5 2-2 2-3 0-5 2h-1-3l-2 1c-1 0-2 0-3 1h-3l-1 1c-2 0-3 1-4 1h-1v-2c-5-2-13 2-17-2z" class="K"></path><path d="M1094 1317l5 6-39 23c-1 1 0 1-2 0l-3-5 39-24z" class="E"></path><defs><linearGradient id="L" x1="747.394" y1="1369.398" x2="742.815" y2="1383.682" xlink:href="#B"><stop offset="0" stop-color="#c2bfc0"></stop><stop offset="1" stop-color="#eaebec"></stop></linearGradient></defs><path fill="url(#L)" d="M807 1360c-1 4-6 9-9 11-5 4-12 5-18 6-18 3-36 5-55 3-1-2-1-4-1-6 2-2 8-1 11-1l27 1c7 0 16 3 22 1h2c9-3 14-8 21-15z"></path><path d="M485 920c2 1 4 2 7 4 1 1 0 0 2 1l1-2 1 1-1 4-3 3c-1 2-2 3-3 5-5 3-10 5-16 7l-1-1c-1-1-1 0-1-2-2-3-4-9-7-10v-1c1 0 2-1 2-2h1l2-1c2 1 1 1 2 0 2-1 4-3 6-2v1c2 1 4 4 6 4l1-1c-1-1-1-2-2-3l-1-1 1-1c1 1 1 2 3 2v-2c-1-1-1-2 0-3z" class="F"></path><path d="M471 926v1c1 2 2 3 3 5s1 3 2 5c-2 2-3 4-4 5-1-1-1 0-1-2-2-3-4-9-7-10v-1c1 0 2-1 2-2h1l2-1c2 1 1 1 2 0z" class="B"></path><path d="M463 826c3 0 8 1 11 0 1-1 0-4 1-6l1 2h1 1l1-1h8l1 1c5 1 15 2 18 6v3c-3 1-5-1-8-2-4-1-8-2-11-2v1c3 0 5 0 7 1v1l-3 2-1 1c-2 1-4 1-7 2v2l-1 1v-1c-2 0-4-1-6-1l-4-1c-2 0-3-1-5-2l-3 2c0-3 0-6-1-9z" class="D"></path><path d="M487 828c3 0 5 0 7 1v1l-3 2-2-1c-2-1-2-1-3-1h-5v-2h6z" class="B"></path><path d="M970 1269c1 1 1 2 1 3h3l-1 1c-2 1-6 2-8 3l-24 9c-12 3-23 5-34 8l-22 6c-2 1-5 2-8 2 3-4 15-6 20-7 0-1-3-9-3-11l1-1c4 2 4 7 6 10h3v-4l1 2v1l3-1h1l-1-1c-1-2-1-7 0-9h1c2 3 2 5 2 9h0c3 1 3 0 5-1 0-3-1-5-2-8 1 0 2 1 2 2 1 1 1 2 1 3 0-3 0-5 2-8h1v11l10-3-3-12c3 3 7 6 8 11 2 0 4-1 6-2 0-3-2-8-3-11 3 4 5 8 9 12 0-4-1-9-1-14 1 3 2 7 3 10l5-1c2 0 4-1 5-2 4-1 8-2 11-4v-3zm-306 21l1 1c-1 3-1 6-1 9 2 3 6 4 9 5 8 2 19 5 26 9l-1 3v1h-2c-9-4-20-6-30-9 0 3 0 7 1 10 13 4 26 7 39 13 2 1 3 2 4 4-2 0-4-1-6-2l-16-5c-8-3-16-5-24-7v-32z" class="I"></path><path d="M465 1011c-1 13 1 24 7 35 2 4 5 7 6 11 2 4 5 7 7 10 2 2 3 4 3 6-4-4-8-8-11-13v-1l-1 1c6 11 15 21 23 30 4 3 10 8 12 12h-1c-4-5-10-8-15-12l-6-9c-9-11-18-23-25-35-6-12-3-23 1-35z" class="B"></path><path d="M1172 1089c0 2-3 5-5 8s-5 6-7 10l1 1 2-2 4-6 1-1c1-1 2-2 3-4 1-1 2-3 3-5l1 1c0 3-1 4-2 6-4 8-10 15-15 21-6 9-12 19-18 28l-1-1c0-1 1-2 1-3l3-5c1-2 2-3 3-4l-1-1-17 27c-3 5-6 9-8 15-3 5-6 9-9 13-1 2-2 3-4 5v-1c9-12 14-26 22-38l43-64z" class="K"></path><path d="M280 1164l3-1c2 0 3 0 5 2 7 7 14 17 19 24 5 6 10 11 13 18 2 3 3 6 4 11l-2-1-33-40c-3-4-7-9-9-13z" class="E"></path><path d="M1056 1127h1c5-3 10-8 14-13 3-4 5-8 8-12 0-1 2-3 2-4h3c-3 6-8 12-11 18-3 5 0 13-1 18s-3 8-2 13l-2 2c-2 2-7 8-10 8 1-4 4-5 6-9v-4l-10-8c2-3 2-5 2-9z" class="F"></path><path d="M1064 1144c-2-5-5-12-4-17l2-2h1l4 14c0 2 1 5 1 6s-1 2-1 2c0 1 1 1 1 2-2 2-7 8-10 8 1-4 4-5 6-9v-4z"></path><path d="M557 819c5-1 14 0 19 0h33c6 0 13-1 19 1l1 1-1 2h-3l-67 3-1-2c1-1 1-1 3-2h-2l-1-3z" class="B"></path><path d="M1183 1172v2c0 2-3 5-4 7l-13 22c-5 9-11 14-19 20-2 0-2 0-4-2h1l2 1c6-5 9-15 13-22l1-3 1-3 1-2 11-19c3-1 6 1 10-1zm-41 109h0c2 1 4 4 5 6-1 2-5 4-7 6l-35 26-2 1-3-6c2-4 10-9 14-11 9-7 19-14 28-22z" class="E"></path><path d="M446 835c-1 1-2 1-3 1-11 3-24 2-36 4-13 1-27 5-40 5-3 0-7-3-10-5 2-1 4 0 5 0l17-2 64-7 3 4h0z" class="B"></path><defs><linearGradient id="M" x1="618.41" y1="753.096" x2="599.019" y2="760.3" xlink:href="#B"><stop offset="0" stop-color="#cecdce"></stop><stop offset="1" stop-color="#f9f8f9"></stop></linearGradient></defs><path fill="url(#M)" d="M609 760c2-12-2-25 1-37l3 16c1-3 1-7 2-11h1l2 29c0 4 1 11 0 14-1 1-3 4-4 5-3 4-8 5-12 6 0-13-1-27 1-40 1 9 1 22 1 31v1c-1 1-1 4 0 6h0c1-2 1-3 1-4l1-1 3-3v-12z"></path><defs><linearGradient id="N" x1="621.79" y1="1029.301" x2="613.559" y2="1056.474" xlink:href="#B"><stop offset="0" stop-color="#979696"></stop><stop offset="1" stop-color="#c4c3c4"></stop></linearGradient></defs><path fill="url(#N)" d="M593 1045l22-7c5-1 11-2 15-5h-5c-3 1-8 1-11 1 7-2 15-2 22-3v32l-22 8c5-4 12-7 18-10v-1c-4 0-7 2-10 3 2-2 9-4 9-7h-2l-1-1c2-2 3-3 3-6l-1-1-1-1c1 0 1 0 2-1l-1-1c-3-1-6 1-9 1h-2c-1-1-3-1-4-1l-1-1c-3 2-4 1-7 1l-10 3c-2 0-3-1-4-3z"></path><path d="M646 1260c2 1 3 1 5 3l2 2c-2-4-6-5-6-11h1l5 6c2 2 5 5 6 7l1 1 3 3c1 1 3 1 4 1h2c2 3 5 6 8 9 3 2 6 5 7 8 2 4 2 9 2 14-5-3-9-4-12-10l-1 2c-4 0-5-2-8-4l-1-1c0-3 1-11 0-13l-4-4c-5-4-10-8-14-12v-1zm-34-846h0l4-6c1-2 2-2 4-4l-1-1 1-2c7 5 14 10 20 16l-1 30c-1 7-1 14-2 21-1-16-2-32 0-47l-6 11c-1-4 5-9 5-14h-1c-6 3-10 10-13 15 2-7 9-14 10-20l-18 19c2-2 11-15 11-17h-1l-17 18c5-7 9-14 12-22-2 2-4 5-7 8s-7 6-11 10c3-6 8-10 11-15zm533-24c2-1 2-2 4-1l2 2c4 6 6 11 7 18l4-6c8 8 14 18 19 28v1c-5-8-10-14-17-19 2 4 4 8 7 12 3 6 6 13 10 20 2 5 5 10 7 15v5c-2-1-3-2-4-4-4-7-7-14-11-21l-28-50z" class="B"></path><path d="M559 921l-3-20c-1-3-1-6-2-9 0 9-1 19 1 28 3 15 6 31 4 47 0-11-1-22-2-32l-4-19c-1-7-1-14-3-22l-2-5 3 19c-3-5-4-11-5-17-1-4-3-9-3-14-2 2-1 4-1 6 1 4 3 7 2 10-2-4-4-14-3-19s6-11 8-16c1 9 2 17 5 26 3 12 7 24 6 37h-1z" class="G"></path><path d="M1261 552l-13 2c6-4 31-23 37-23 3 0 6 2 8 4h-4v1c2 0 4 1 6 0h1 3c1 3 1 7 1 10l-24 1-8 2 5 1c-3 2-8 1-12 2z" class="F"></path><path d="M1296 536h3c1 3 1 7 1 10l-24 1v-1c-2-1-3-1-6-1l-1-1 1-1 2 1c1-1 3-2 5-3 1-1 3-1 4-1h13c-1 0-2 0-3-1 2-2 1-2 4-2l1-1z" class="G"></path><path d="M1294 540h1 3v1c-1 1-1 2-3 2-3 1-6 0-8 1-5 1-11 1-15 0 1-1 3-2 5-3 1-1 3-1 4-1h13z" class="H"></path><path d="M479 339h1c0 2-1 1 0 2 12 4 28 5 40 5h1c-1 1-6 5-8 6-2 0-6-1-9-1-13-1-22-1-34 6l-26 21c6-8 11-15 18-22 5-6 11-13 17-17z" class="B"></path><defs><linearGradient id="O" x1="831.401" y1="1240.197" x2="857.361" y2="1248.949" xlink:href="#B"><stop offset="0" stop-color="#c7c5c8"></stop><stop offset="1" stop-color="#efefed"></stop></linearGradient></defs><path fill="url(#O)" d="M843 1209l6 45c1 5 3 13 2 18-2 2-1 3-2 6-1-6-1-14-4-20 0 13 3 25 1 38 0 2-1 2 0 3h-1c1-7 0-16 0-23-1-6-3-16-2-21l1-1c0-2 0-4-1-5-1 2 0 4 0 6 0 4-1 7-1 11 0 6 1 11 1 17l-1 1-5-69c0 1 1 2 1 4l1 1 2-2h2c-1-3-1-6 0-9z"></path><path d="M226 782l5-1 72 1c4 0 14 0 17 2-1 0-2 2-3 2-4 1-11 0-15 1l-90-1-1-1s0-1 1-1c3-3 10-2 14-2z" class="B"></path><path d="M560 921c5-12-7-48-9-63 0-3 2-6 4-8h1c-4 6-1 13 0 19 2 7 4 14 4 20l1 1v-6l1 4c1-1 1 0 2-2v4c-1 5 0 9 1 14l5 29c1 4 1 8 1 12 1 4 2 8 2 12 0 5 0 10 1 15v3c-2-6-2-12-3-19-1-6-3-13-4-19s-1-11-3-16v-2h0v5c2 4 1 9 1 13 2 12 6 24 5 37-2-4-2-13-3-18l-4-17c0-3 0-7-2-9l-2-9h1z" class="F"></path><path d="M1067 1259l50-32h2l1 3c-14 14-31 29-48 39l-5-8v-2z" class="E"></path><path d="M355 832l1 1c5 1 11 0 16-1 14-1 29-1 43-4 7-2 14-6 20-10l8-6v17c-6 1-13 3-20 3l-28 2c-13 2-26 4-39 4-2-1-4-3-5-5l4-1zm-80-367c7-9 19-15 30-15 5-1 9 0 14 2l4 1h0c-6 1-19 2-22 6 2 0 4 0 5 1h-5c6 4 18 3 25 5l-47 6c-3-1-5-1-7-2 1-1 2-2 2-4h1z" class="B"></path><path d="M399 374c-3 2-4 3-6 5 1-2 3-3 4-5 2-3 2-11 2-15l1 1v1c-1 2-1 6 0 8 1-2 1-3 3-5l-1-2c1-2 0-3 2-5 1 3 1 5 2 7l2-14c1 8 1 16 1 23v27c0 3-1 8 0 10-1 11-1 23-1 33v15c0 2 0 5-1 7h-1c-1-4-1-7-1-11 0-7 2-17 0-24 0-3 0-6-1-9 0-4-2-7-4-11v-6c1-1 1-1 1-3v-18c0-3 1-7 0-10l-2 1z" class="D"></path><path d="M275 708c2-4 3-8 7-11 4-2 8-3 12-2s8 4 9 7c1 2 1 4 1 5 0 3 0 5-1 7-1 4-5 6-8 7-4 2-8 1-12-1-5-3-6-7-8-12z"></path><path d="M639 916h2l-4 87-6 6-2-1 4-68c0-6 0-18 3-23l3-1zm647 164l8 2c-3 8-7 15-10 23l-22 44-2 1-6-5 32-65zm-936 155l56 52-5 7-56-52c2-3 4-5 5-7z" class="E"></path><path d="M558 830c4-2 11-1 15-1 17 0 36 3 53 1h1l-7 6-7 6-33-2c-7-1-14-2-20-4-2-2-2-4-2-6z" class="C"></path><path d="M503 1084l-13-9c1-3 7-8 10-12l22-30c2 4 4 7 6 10l-21 32-2 8-2 1z" class="E"></path><path d="M681 375c-1-1-2-3-1-5 5-3 11-4 17-6 40-13 87-17 129-14l-1 27c-2-8-1-16-2-23-41-2-84 2-123 14-6 2-13 3-18 7h0-1z" class="B"></path><path d="M392 491c-14 14-22 35-23 55 0 6 1 13 0 20 0 3 0 4-2 5l-2-1c-2-5-2-11-3-17 0-13 1-27 5-39s11-23 23-29c1 3 1 4 2 6zM292 824c12-1 26-2 38 1l-73 5 1 24c8-7 15-12 26-11-8 1-14 3-20 8l-1 1c-4 5-6 10-8 16 0 2 0 4-1 6-1-2 1-8 1-11 1-9 1-20 0-29 0-1-2-2-2-3h-10c-10 0-20 0-30-1 5-2 9-3 13-5 4-3 13 0 18 0l48-1z" class="C"></path><path d="M582 312c2-3 6-5 9-6v1c0 16 2 32 0 47l1 1c-2 2-4 3-6 5-1 1-2 1-3 1-1 3-3 5-6 7 2-3 3-6 4-9v-1c2-7 0-14 0-20v-22h-1c-1 3-1 15 0 19l1 6c1 4 1 9 0 13l-1 4c-1 7-5 12-10 18 3-6 6-13 7-19 1-3 1-7 1-10 1-3 1-5 1-8 0 3-2 5-2 8 0 4 0 7-1 11-1-1-1-1-1-2-1-4 1-12 2-16 1-8 0-16 0-24 2-1 4-2 5-4h1-1z" class="H"></path><path d="M584 340l2-2 1 4v5c-1 4-1 9-1 13-1 1-2 1-3 1 2-7 1-14 1-21z" class="M"></path><path d="M582 312c2-3 6-5 9-6v1l-4 3v32l-1-4-2 2c0-9-1-19 1-27 0-1 0 0-1-2l-1 1h-1z" class="Q"></path><path d="M591 307c0 16 2 32 0 47l1 1c-2 2-4 3-6 5 0-4 0-9 1-13v-5-32l4-3z" class="I"></path><path d="M587 347c0-2 0-3 1-4 1 1 2 1 2 3 0 3-1 6 1 8l1 1c-2 2-4 3-6 5 0-4 0-9 1-13z" class="H"></path><path d="M570 234l39-29h0c2 10 7 19 8 29-3-5-6-10-9-14-6 2-11 4-15 8l-10 8 2 13-13 7-3-17c1-1 1-4 1-5z" class="B"></path><path d="M1251 1151l6 5c-2 5-7 11-10 16-12 19-25 37-40 54l-5-6c19-22 33-46 49-69z" class="E"></path><path d="M570 178c8 5 16 12 23 18l-8 6c-5-6-10-11-17-16-6 3-12 10-18 14l-17 13c-4 3-9 6-13 11-2 1-1 2-1 4 2 7 10 17 8 24-1 2 0 1-2 2v-1c-3-2-4-5-5-8-2-6-7-16-7-22 0-3 51-40 57-45z" class="C"></path><path d="M635 1397c7-1 17 3 25 4l32 6 33 4c0 2 1 5 0 8l-7-1c-31-2-64-9-93-17l10-4z" class="E"></path><path d="M234 763c8-1 88-1 91 1v4c-5 2-11 2-16 2-2 0-4 1-6 1l-1-1c-2-1-6 1-8 1l-3-1c-1 0-2 1-3 1h-1-2-7c-4 0-8 1-12-1-2 2-5 2-8 2l-2-3h-1l-2 3h-5l-1-5-2 5h-5v-4l-2 1c-5 5-11 8-18 10 3-2 6-3 8-6s4-7 6-10z" class="C"></path><path d="M246 408l8 2-34 85-8-2 34-85z" class="E"></path><path d="M1045 1271c2 3 3 6 6 9l1 1-1 1c-18 12-38 21-59 28 1-3 22-12 26-14h-1l-20 8h-3c4-5 15-7 21-10-2-1-18 7-22 7l3-1-1-1v-1l8-4-11 2c6-4 12-6 18-9l35-16z" class="B"></path><path d="M642 1075c3 1 5 4 7 7l13 13c15 15 31 28 48 40-1 15-5 28-7 42-1 3 0 7-2 10h-4l-3-1c-1-2-1-1 0-3 1-4 3-7 4-12 2-8 3-17 5-25 0-1 2-7 2-8s-7-6-8-6c-17-13-35-27-49-44-2-2-7-7-8-10l2-3z" class="C"></path><path d="M1325 537h6c3 3 3 11 4 15l8 70-15-1c-3 0-5 1-7 0v-5c2-2 9-1 13-1 1-3 0-8-1-10l-4-35-3-20c0-4-2-8-1-13z" class="E"></path><path d="M445 678h34l-88 19c-5 1-8 1-13 1v-1l4-1h-4v-1c-4 3-10 2-15 2 6-2 13-3 18-5 3-1 6-4 10-5 7-2 15-3 23-5 4 0 7-1 11-2 6-2 14-1 20-2z" class="H"></path><path d="M484 438c-7 12-13 24-18 37-5 3-3 8-6 12-4 0-5-2-8-5-2 2-3 4-4 6h-2-1c7-18 14-36 26-51 2-3 4-6 7-8s5-5 8-8l-6 12h-1v1h3c1 1 1 3 2 4z" class="C"></path><path d="M654 1330c1 0 1-1 3 0 0 14 1 29-1 42-2-4-2-10-2-15l-1-23c-11 2-68 12-71 16l2 3h4v1h-2l-1 1 2 2c9-3 20-5 29-5l-20 5c-4 1-8 1-11 4 9-2 18-4 26-4-6 4-16 3-22 7h2l22-2c-8 2-18 3-24 8l20-4c-6 3-13 5-19 7l15-2c-4 2-8 3-12 5l21-3-23 7c-7-11-10-24-16-35l79-15z" class="B"></path><path d="M647 168h2c2 4 3 9 5 13 3 8 6 15 8 22-4-5-6-11-9-17 0 7 2 17 4 25-3-6-6-11-8-17-2-4-3-9-6-12v2c3 11 10 21 11 32l-1 1c-2-4-3-8-5-12-2-8-5-16-9-23-11 4-20 9-30 16l-37 27c-8 5-17 12-26 16 5-5 11-10 17-14l41-30 43-29z" class="C"></path><defs><linearGradient id="P" x1="918.528" y1="1248.594" x2="968.439" y2="1251.087" xlink:href="#B"><stop offset="0" stop-color="#bbbaba"></stop><stop offset="1" stop-color="#fffeff"></stop></linearGradient></defs><path fill="url(#P)" d="M912 1254l50-17c1 4 2 8 4 11v1c1 1 2 1 3 2h-1c-1 1 0 1-1 2-11 4-22 9-34 11l-8 2c-1 1-5 2-6 2-9 3-18 5-27 7 1-2 4-2 6-3 5-1 14-3 18-6-2-3-2-7-3-11v2h-1v-3z"></path><path d="M925 1266v-1l1-1 1-1 1-1v-2-1-4h3l3 5c0-2 0-3-1-4l-1-1 1-1c1 0 2-1 2 0 2 1 2 2 2 4v1c-1 1-1 2-3 3h-1v2l-8 2z" class="G"></path><path d="M1058 212l1-1c5-4 12-10 15-15l-22 15-4-5 20-15 53 45c-2 6-7 12-11 17-2-1-3-2-4-3 1-4 7-9 9-13l-7-6-8 14c-6-4-11-10-16-14v-1l1 1c2 2 5 3 8 4 2-1 4-2 5-3s1-2 1-3l-2-1-1 2c0 1-1 1-2 2-2 0-4-1-6-2v-1h3c-2-2-4-2-7-2 1-1 3-2 4-2 2 1 5 3 7 2-4-4-8-6-12-10v-1c5 1 10 6 14 8 1 2 3 3 5 4l1-1c-4-4-8-7-13-11-4-4-8-9-13-11-4 1-7 6-9 10-4-1-7-1-10-3zM415 503v-1c-1-4-2-7-3-11 13 2 27 1 40 4 10 2 20 6 30 10 4 2 10 4 12 6l1 1c-1 2-1 5-3 6-10-4-18-7-28-9-6-1-12-1-18-2-4-1-9 0-14 0l-5 1c-3 0-8 0-10-1-1 0-2-3-2-4z" class="C"></path><path d="M415 503l17 4-5 1c-3 0-8 0-10-1-1 0-2-3-2-4z" class="F"></path><path d="M231 1031l123 1c2 2 2 4 3 6l-2 1-119 1-5-9z" class="E"></path><path d="M1018 449c-1-3-3-4-6-5v4c1 1 1 2 1 4l-11-10c2 6 8 14 13 19h1-14l-1-1c-2-12-14-21-21-30-3-3-5-6-6-10l3-6c2-6 6-8 11-9 0 3 0 3-2 5-1 1-1 1-2 3l-1 1c-2 5-2 8 0 13 3 6 7 9 13 11 4 1 16-4 20-6l8-4c9 8 16 20 21 32-2-3-7-10-11-10 1 3 4 2 4 6l-1 1v-2l-1-1c-1-1-3-2-4-4-2-1-3 0-5 1h-1c-3 0-5-2-8-2z" class="C"></path><path d="M400 701c4-1 9-2 13-2 7 0 13 1 20 1 6 1 17-1 21 2l1 1c0-2 0-3 1-4 2 2 2 2 3 5 0 1 1 2 2 3h1 4c5 2 10 0 15 2h2l2 1 1 1-1 1h-1c-2-1-3-1-4-1l-1-1h-2c-1 0-1 1-2 0-2-1-10 0-13 0 1 1 2 1 3 1h1c5 1 9 1 14 2h3l2 1v1c-2 1-4 1-7 1h0c-4-1-7-1-11-1h-1l-1-1-2-1v1c6 10 12 20 15 32-5-7-8-15-14-21-1-1-1 0-2-1-2-1-5-2-6-3l-20-6-1 1c-3-2-5-3-8-5v-1c-7-2-15-4-23-3h-1c-1-1-1-3-2-5l-1-1z" class="J"></path><path d="M433 704h3c5 1 11 1 17 2 2 1 3 2 4 4l-1 1c-4 0-10-3-14-4-3-1-6-1-9-3z" class="N"></path><path d="M400 701c4-1 9-2 13-2 7 0 13 1 20 1 6 1 17-1 21 2l1 1-1 1c-6-2-14-3-21-3-4 0-8 1-12 0h-1c3 2 6 1 9 4h-1c-4 0-7-1-11-2-5-2-11-1-16-1l-1-1z" class="I"></path><path d="M456 721l-1-1c-5-3-15-6-21-7-3 0-5-4-8-5-7-2-15-3-22-4v-1c5-1 11 0 16 2h1c2 1 4 1 6 2 1 1 5 5 7 5 8 0 16 3 24 4 2 3 5 6 6 9-1-1-1 0-2-1-2-1-5-2-6-3z" class="G"></path><path d="M911 162l85 8 9 63-10-4c-1-1-1-1 0-2 2-11 2-19 1-30l-4-22c-6-2-13-2-19-3l-28-2c-5-1-13-2-18 0-3 1-5 4-6 5-6 6-12 13-16 21v1c-1-5 0-15 1-19 0-1 1-1 1-2v-2l-1 14c4-9 5-16 5-26z" class="C"></path><path d="M891 1395l1 1 2 11 2 10c-17 2-35 3-53 3l-42 2c-7 0-15 0-22-1 0-2 0-5 1-7l56-2c19 0 37 0 55-3l1-1c-2 0-2 0-4-1 0-1 0-1-1-2 0-2-1-7 0-9l4-1zM207 509c2-1 5-1 8 0 1 4-6 25-8 31-7 31-12 61-17 92l-8-2 25-121z" class="E"></path><path d="M836 157c3-1 7-1 10 0 5 2 10 7 12 12 1 4 1 8 0 12a25.03 25.03 0 0 1-13 12c-4 1-8 1-11 0-5-2-8-6-11-10-2-5-2-10 0-15 3-5 7-9 13-11z" class="B"></path><path d="M837 160c3 0 6 0 9 1 3 2 7 5 9 9 1 3 1 7 0 10-3 5-7 8-12 10h-6c-5-2-9-5-10-9-2-3-2-7-1-11 3-5 6-8 11-10z"></path><path d="M274 985l-1 39h-13l-1-91c1 1 1 3 2 5l3 17 2-18c0 3 1 6 3 8l1-1c0 3 0 4-1 7-2 2-3 5-2 8 2-4 3-8 7-10v1c-2 2-3 4-4 6-1 3-1 5 0 7 0-1 1-2 2-4v1c1 7-1 14-1 21h1c1 1 1 1 2 3v1z" class="C"></path><path d="M235 616c1 2 5 5 6 8 0 2-5 29-6 34-4 31-5 61-4 93h-3-4l-1-1c-2-45 0-91 12-134z" class="E"></path><path d="M437 1020l16 30h0c-3-10-7-18-9-28 3 4 6 8 8 12 4 6 7 13 11 19 7 10 16 18 24 27 3 4 5 7 7 11 2 2 5 5 8 7l-1 1c-3-2-6-5-10-7-2-2-5-3-7-5-5-3-10-8-14-12h-1l6 6 10 10-1 1c-5-4-8-9-14-12l9 12c-2-2-5-5-8-7-4-4-6-8-10-12l-1 1c5 4 8 9 11 15h0c-3-1-5-4-6-6-3-3-6-6-8-9-1-2-1-3-2-4-7-9-13-19-18-29-2-6-4-12-5-18 4 5 8 14 11 20l-6-23z" class="B"></path><path d="M412 1292c5 3 10 7 14 10l34 24 40 23c10 5 22 10 31 16 5 4 9 9 13 13h-2l-40-19c-33-17-66-38-95-62l5-5z" class="E"></path><path d="M593 879c-1-5-1-10-2-14v-1l19 3c0 6-1 50-3 52-2 1-3 1-3 4-1 4 0 8-1 12 0 4-2 9-1 12l-1 10-1-6-8-34-3-27c1-2 0-5 1-7h2l1-4z" class="C"></path><path d="M870 160c4 0 10 1 14-1 1-4 1-10-1-14-1-2-2-4-4-4h-43c-1-2-1-3-1-6 4-2 12-1 16-1 13-1 26-2 38-1l5 68c-3-1-13-1-15-3v-1c1-2 1-5 0-7h0c-1 2-1 5-3 8-2 0-4 0-6-1l-1-1 2-8h1v-1c2-3 1-14 1-17-1-4-4-6-3-10z" class="E"></path><path d="M502 276c3-1 8 2 11 3-4 8-8 15-15 21s-14 11-21 16c-4 2-8 5-11 7-2 1-5 0-7 0h0l1-1h1c2 0 3-1 4-2l-1-1-59-2c-17 0-33-2-49 0-5 1-9 2-13 3-2 1-5 2-7 2 13-6 26-9 40-10 13-1 26-2 39-2h30c11 0 25 1 35-4 9-6 20-19 22-30z" class="B"></path><path d="M179 653c3 1 6 1 8 2l-2 150-8 1 2-153zm869 691h2l2 7c-11 7-25 12-37 17-37 15-75 25-114 33l-1 1-2-1c0-2-1-4 0-6 5-3 13-4 19-5l35-9c33-9 65-22 96-37zM181 845c2-1 4-1 6 0s2 5 2 7l3 20c4 33 11 66 20 99l12 42c1 3 2 4 0 7h-5c-4-6-5-15-8-21-13-44-23-89-28-134-1-6-3-14-2-20z" class="E"></path><path d="M582 474l7-9 2 1 1-2 2-1c0 4-2 8-3 11-3 8-7 16-11 24l-7 22c-2 4-3 9-5 13 0 1-1 2-2 2s-2 0-3-1c0-2 1-5 2-7 3-8 7-16 11-25h-1l-15 33h-21c5-8 8-17 12-26 9-16 19-34 30-49-3 8-7 15-11 23h1l3-5c2 1 2 1 3 2v1h1c2-2 4-4 4-7z" class="C"></path><path d="M838 143c8 0 23-1 30 4 3 2 5 4 6 7-2 2-3 1-5 1-4 0-9 0-14-1-6-1-11-2-18-1-7 2-12 7-16 14-4 8-1 18 2 26l-3-5c-5-10-4-16-1-26-2 2-3 4-5 7l-1 2c-3 8 1 16 4 23h-18c-2-11 0-23-1-34 0-3-1-12 1-14h2c1 3 0 7-1 10 3 0 9 0 11-1-3-2-5-2-8-2h-1c-1-2-1-4-1-7 1 0 1-1 2-1 1-1 4-1 6-1h15c2 0 5-1 8 0l1 10c1-3 2-7 2-10l3-1z" class="E"></path><path d="M934 173c17 1 41 1 55 11 1 3 1 5 1 8h-3c-4-1-9-3-13-2l5 1c4 1 8 3 10 6 5 8 4 22 3 31-3-2-12-4-14-6l1-1c3-5 4-9 2-14-1-5-7-11-11-13-3-1-6-3-9-3-5 2-11 5-13 10-1 3 0 8 0 12-1-2-1-1-1-2l-4-24c0 8 0 17 2 25-2-1-3-2-3-2-1 0-1 1-2 1 0 0-1-1-1-2l-3-21v9c0 4 1 9 0 12-2-11-3-23-3-35l1-1z" class="C"></path><path d="M681 1198l4-5-3 21c4 1 7 3 10 3 4-2 4-4 5-7 1-1 1-2 1-2h7c1 0 1 0 2 1l-1 4v1c-1 4-1 9-1 13v28-1c-5-3-9-6-15-5-5 0-9 2-13 4v-1c-4-8-12-14-17-22v-1l-1-1-1-1v-4c4 2 7 5 10 8 2-5 3-10 4-15-1-3-4-4-6-6 0-3-4-7-6-9l10 6 2-1c2 0 2 1 3 2 3-2 5-7 6-10z" class="D"></path><path d="M677 1218l17 8c0 3-2 10-3 13 2-3 3-9 6-11 1-1 3 0 4 0 3 2 2 6 2 9v9l-15-6c-5-2-10-2-15-6-1-5 2-11 4-16z"></path><path d="M576 869c3 2 4 3 5 6v1c0-1 1-3 1-4 0 2 0 3 1 4h1l8 41v1c0 7 3 14 3 21v16 9 17l-1-4-6-22c0 4 1 9 0 13 0 5-1 10-1 14l-12-60c-2-11-3-23-7-34 1-2 0-3 0-5-1-4-4-6-4-11 3 1 6 1 10 2v-1h0c1-1 1-1 3-1 0-1 0-2-1-3zm-311 47h20v11l-32 1 2 92c0 2 0 3-1 4h-12l-2-107 25-1z" class="E"></path><path d="M507 700h0c2 6 2 13 3 18l2 27c0 5 0 10 1 15 1-5 0-10 0-15 0-14-1-28 0-42 3 5 2 20 2 26 1 9 2 18 4 26 1-17-1-34 1-51l2 50 2 108c-3 2-7 3-10 5l-1-1-6-166z" class="C"></path><path d="M911 398c-3 3-4 8-8 11-1-1-1-2-2-4l-1 2h-1c0-4 1-8 2-11l-8 11c1-5 4-9 6-14l-1-1c-2 4-5 8-7 11l-39-17 16-39 95 61c-2 3-5 6-7 8l-16 19c-2 3-5 6-7 8s-2 2-5 2c0-3 3-7 5-9l16-19c2-3 5-5 6-8l-85-52c-2 6-10 22-8 27 2 2 2 2 5 2l5-10c15 5 30 11 43 19l-1 1h-2l-1 2z" class="E"></path><path d="M1067 1261l3 14c13-8 25-17 36-27 6-4 12-9 16-14l7 9c-20 15-40 31-61 44-35 22-73 39-112 53l-1-20c0-3-1-7 0-10l3-1c1 2 1 6 2 9 0 4 1 8 3 11 8-1 15-4 22-7 0-1 0-1-1-1-5-5-10-11-13-17v-2h1c6 7 10 15 18 20-2-9-6-17-7-26 5 6 6 15 8 22 15-6 30-13 45-22 9-5 19-11 28-18v-2l-2-4c-1-2-1-4-3-5h-4l-1-1 13-7v2z" class="C"></path><path d="M660 108h4c0 3 1 6-1 8l-29 8c-29 8-59 19-86 32-23 11-45 24-66 37-10 7-20 15-31 21-3 2-7 2-10 2-1 0-2 0-3-1 24-20 50-36 77-51 46-25 95-44 145-56zm-22 972c2 0 4 3 5 5 16 22 36 39 59 53l-7 25-17-11c-12-9-23-17-34-28-3-3-8-6-10-9-3-5-2-11-5-15h-1c1 3 2 7 2 11l-15-16c8-4 14-11 23-15z" class="E"></path><path d="M272 689l11-9v-1l-1 1c-17 9-29 25-34 43v1h-1c0-3 1-6 2-8 3-13 8-24 17-34 11-13 29-26 46-31 3-1 6-3 10-3-6 3-13 4-19 8 3 0 6-1 9-2 1 1 1 2 1 4l2 1v1c3 0 4-1 6-3 1 0 4-2 5-1 1 10 3 41 8 47 8 3 16 3 24 4-3 1-9 3-10 5-4 2-7 4-10 7l-34 26c-3 3-8 9-12 10l19-22v1l1-2c2-1 7-6 8-8 1-1 0-3 1-4 1-2 3-4 4-6 1-1 2-2 2-3 0-3-2-9-2-12-1-6-1-11-2-17h-1v6c0 1-1 1-2 2l-1-1c0 5 1 11 1 15-2-6-3-14-7-19h-1c0 4 1 7 1 11l-4-5c-2-3-7-4-10-5-6-1-13-1-18 3-3 3-7 7-9 10-1-1-1-2-1-4 1-2 2-3 2-5l-1-1z" class="C"></path><path d="M303 656c3 0 6-1 9-2 1 1 1 2 1 4l2 1v1l-3 3h-1v-2c1-1 1-2 1-3-3 0-5 2-7 3l-1-1v-1c-1-1-1-1-2-1h-1v-1l2-1z" class="B"></path><path d="M996 1101l12-5c-8 11-18 19-28 28-30 26-65 44-103 55-6 2-13 4-19 5h-6c12-6 26-8 38-14-8 1-18 5-26 8-3 1-6 3-9 3-1-2-1-3-1-5 2-2 7-2 10-3l28-12c-4-1-10 3-14 4l-23 9v-1c16-8 33-13 49-20 15-7 29-17 43-26 5-4 11-7 16-11l1-1c2 0 5-7 7-8l11-7 11-1 1 1-1 1 1 1c1 0 2 0 2-1zM621 866h9l-9 142c-14 1-30-1-45-2-5 0-10 0-15-2l1-6c2-1 10-1 13-1h19c-1-2-2-1-3-1l-18-1c-4 0-7 0-11-1l1-1 28-1c6 0 12 0 18-1 3-6 2-14 3-20l1-46c0-19 2-39 1-58l7-1z" class="E"></path><path d="M872 1125c-8 4-17 9-26 9l-1-2v-2c9-5 18-8 26-13 14-8 26-17 39-26l25 32c-10 7-20 14-30 20-17 9-35 15-54 21 0-2 0-5-1-8l44-19v-1c-2 1-1 1-3 2-5 2-11 4-16 6-8 4-16 8-24 9l-1-1c2-4 22-11 28-14-2-1-26 7-30 8l13-8c-3 1-10 4-13 3 4-3 11-5 15-7 2-1 5-3 8-3l2-4-1-2z" class="C"></path><path d="M872 1125l17-8c-4 7-11 11-18 14l2-4-1-2z" class="K"></path><path d="M362 404c-5 3-10 7-12 13-3 8-1 14 3 22-1 0-2 0-3 1-1 0-1 0-1 1 0 3 1 5 3 7 5 8 15 14 24 15 8 1 16 2 22-4 2-2 3-3 3-6-1-1-2-1-3-3h2c1 0 3 1 4 3-1 5-2 20-7 23-3 1-11 0-15 0-17 0-34 0-52-1l1-120 2 17c1-5 1-10 1-15l1 3 1 1 1-18c6 7 0 102 3 119 0 2 1 4 3 5 7 4 43 4 50 2l1-2c-12 0-42 3-50-5-2-3 0-8 0-11l1-34v-41l10-3c4 6 9 11 13 16-2 1-4 2-6 5 1 0 2 0 3 1h-2c-3 2 0 2 0 4-1 2-3 1-1 4v1zm165-7c8-1 16 0 24 1-18 28-34 56-46 88-1 2-5 15-6 16l-33-13c2-3 5-5 6-9-1-1-1-3-1-5 0-6 4-13 7-18l10-20 9-18c0 1-4 13-4 16l14-27h0c-5 11-10 22-14 33-1 3-3 8-3 10l12-23c3-5 7-15 12-18 7-4 15-7 23-11l-24 8 4-5c3-4 5-5 10-5z" class="C"></path><path d="M1149 1103c2 0 2-1 3 0-8 14-18 26-28 38-11 13-22 25-35 36-35 33-78 59-122 76 1-1 0-1 1-2h1c-1-1-2-1-3-2h2c0-5-1-9-3-13 29-13 56-28 82-46 9-7 17-16 26-22 4-3 10 0 14-4 3-3 1-8 2-11 1-2 4-5 5-7l21-21c3-4 7-9 11-11s10-2 14-2c-2 1-12 13-12 14h1l17-17c2-2 3-4 3-6zm-595-50c1-4-4-11-5-15 7 9 12 24 21 32-5-10-11-19-16-28-5-11-8-21-11-32 3 5 6 10 8 15l19 32c7 11 15 21 24 31 26 31 54 58 89 79-1 1-2 2-3 2a30.44 30.44 0 0 0-8 8l-13 17c-8 9-16 19-26 27l-6-6c5-4 9-9 14-14 6-7 13-14 18-22 0-5-3-6-7-9-31-24-61-53-85-84-10-13-19-25-25-40l2-1 4 7c0 3 1 5 3 7l1 1v-1c0-2 0-3 1-5l1-1z" class="E"></path><path d="M326 1187c-2-1-3-2-5-3l-3 2-1-1 1-74 68-1c-1 1-2 1-4 2h0l11 2c-6 3-13 5-20 7-3 0-6 2-8 3l29-5 1 1v1l-20 9-2 1c3 1 7 0 10 0l2-1c-2 2-3 2-5 3-1 1-2 1-3 1-2 1-4 3-5 5 1 0 2 1 3 1-4 1-5 4-7 6l3 7c0 1 1 3 0 4-6 14-16 19-29 25-3 1-6 1-8 0l-1-1c-1 1-1 2-1 3 1 0 2 1 3 2l-2 1c-3 0-4-2-6-4-2-1-1 0-2-1l-3-3-1 1 2 3h1c2 1 2 2 2 4z" class="C"></path><path d="M325 1123c1 0 0 0 2 1 1 7-4 14-4 22v3c-1 4-1 8-1 12l-1 1v-1c2-8 0-18 1-27 1-4 1-8 3-11zm8 58c4-2 9-2 13-4v-1h-6c-3-1-10-3-11-6h4l7 2c-1-1 0-1-1-1-2-1-4-2-6-4-4-4-6-9-6-14 1-8 4-15 10-20 3-2 5-2 8-2 11 1 17 7 23 15l3 7c0 1 1 3 0 4-6 14-16 19-29 25-3 1-6 1-8 0l-1-1z"></path><path d="M341 1137h8c5 1 8 4 10 8 2 3 3 6 2 9-2 6-6 9-11 12-3 0-6 1-9 0-4-1-8-4-10-7-1-4-1-9 0-13s6-7 10-9z" class="B"></path><path d="M344 1139c2 0 4 0 6 1 3 1 6 3 7 6s1 9 0 12c-2 3-5 5-8 6-3 0-6 0-8-1-3-1-6-3-7-6s-1-7 0-10c2-5 5-6 10-8z"></path><path d="M351 1055c4 0 9 1 12 2l-56 3c-9 1-20 1-28 4 20 3 41 1 62 1-13 3-27 1-41 3l53 3c4 0 12 0 16 2v1c-3 2-14 1-18 1h-48c-9 0-18-1-28-1 3 3 15 3 19 3 15 2 31 4 46 4l23 1c4 0 8-1 12 1 1 1 2 2 1 4-12 1-25 1-37 1h-66-16c-3 0-6 0-8 1-1 2-1 4-2 5v1 1c7 3 15 2 22 2h31l83-1c2 1 3 6 4 9H232c1-4 4-6 6-9 0-1 2-3 2-3 1-3-1-9-1-12v-34l31 3c6 1 16 0 20 2 3 1 9 1 12 1 9 0 19 1 28 1h21zm-76-482c-4-4-4-16-4-21-1 6-1 12-1 19 0 2-1 5 0 7 7 2 14 2 21 3l36 3c-5 3-15 2-21 2l-56-2-2-98c7-1 14 0 21-1 28-1 56-2 84 3 3 0 7 0 11 1l-49 1v1c19 1 37 2 55 8l-18-1c3 2 10 3 14 3v2l-2 2h-10l-1-1c1 2 10 3 13 4-4 2-9 1-12 2 2 1 5 0 8 2l-2 2h-10c3 1 7 1 10 2v1l-2 1v1h-12c4 2 10 2 14 3-9 3-22 0-29-8-9-8-13-17-26-20h-1c-10-2-33-4-42 2-3 2-4 5-4 9-1 7-1 14-1 21l1 40c0 4-1 10 0 14 0 0 0 1 1 1 2 0 4 0 5-1l1-44c-4 13-1 27-2 41l-3-28c0-10 1-42 6-49 5-5 16-5 22-5-5 4-9 7-10 14-2 6 0 13 3 18h1l-1 1c-4-4-5-10-6-16 0-2 1-6 0-7-1 1-1 3-1 5-1 11 5 27 12 36 8 10 17 17 29 18l4-1c8 0 18 1 26 3-5 0-11 0-16 1 4 1 9 1 13 2h-41c-6 0-15-1-21 1-2 1-3 1-5 3h0z" class="C"></path><path d="M1112 291l1-2h-3c-2 1-5 5-8 5l8-11-16 5c8-8 17-14 25-21l-5 7c15 1 26 4 37 15l-7 7c4-1 8-3 11-3 16 13 31 26 44 42 19 23 33 50 44 77 3 8 7 16 9 24l-11 13c-4-7-7-15-10-22-8-15-17-30-28-43-4-5-8-11-14-14l-4 3h-1v-1c1-2 1-2 1-5v-1l-2 2-1 1-2-2h3l-1-1c-1 0-2 0-4-1v-1h5l-1-3c-3 2-3 2-6 1v-1c2 0 2 0 3-2h0l-4 1-1-1 6-6c-2 1-5 3-8 4l-3-3c2-3 5-6 6-8l-9 7c2-4 6-9 6-13-1 2-4 7-6 7 2-6 6-8 3-15-1-1 0-1-1-1h0c-2 6-10 12-15 15 3-4 8-10 8-16h0l-1 1c-3 4-7 6-11 8 1-3 2-5 4-8 2-2 2-4 3-7h-1c-1-1-3-1-5-2 0-1 1-2 1-3h-1c-3 2-5 4-7 7l-2-1v-1l6-8-1-1c-2-1-3-3-5-5s-4-5-7-7c-2 0-7 5-9 6l-1-1 2-2h0c-1 0-2 1-4 1 0-2 2-3 3-4 0-1 1-2 2-3v-1h-2l-2 1h0v-2c-3 1-5 3-7 4l-1-1 2-2v-1l-2 3h-2v-2c1-1 3-3 4-5h-2c-2-1-2-1-3-3zm-579 762c1 0 2 2 3 3l11 14 19 24 28 33c13 14 27 28 42 40 6 4 11 7 16 12v1h0c-4 1-10-2-13-3 3 3 7 5 11 6l-9 12-21-15h-1l5 4 15 13-10 12-35-29c-26-24-48-50-67-80-5-7-11-14-14-22 2-3 3-1 6-1l-1-2c2-3 6-5 8-8 1-1 1-5 2-6 1-4 3-6 5-8zM782 96h2c140-5 280 41 382 138 73 67 125 152 153 247l8 32c2 6 3 12 4 18-2 1-4 1-5 1s-3 0-3-1c-1 0-3-11-3-12-6-25-13-49-22-72-26-73-69-139-123-193-81-80-185-131-298-145-31-4-62-5-93-5l-2-8z" class="E"></path><path d="M583 514l20-46h1c2 1 3 2 4 4l2 2 1-3c5 0 13 5 16 7 5 4 5 8 5 13 1 9 1 18 0 27v42l1 152v46c0 11 3 23 1 33-4 4-62 7-71 8v-20-2c2-7 1-15 2-22v-3 3c1 1 1 1 1 2 0 2 1 6-1 8 0 4 1 8 1 12 0 6-1 11 1 16 1 1 1 1 3 2l1-1c1-5 0-12 0-17l1-32h0c2 7 2 15 2 22h1l1-20c1 3 0 7 1 10l1 22c0 3 0 8 1 11h1c1 0 3-1 4-1 2 0 5-1 6-2v-7h1v6l1 1 1-1h3c8-1 19-2 25-7 1-2 1-3 2-5 0-7-1-16-1-23l-2-55-1-135 1-40c1-9 1-18 1-28-1-7-3-10-9-15 5 13 4 23 4 36l-2 29v1c-1 5-1 10-1 16l-1-1c0-3 1-14 0-16-3 3 0 9-3 12l2 2-1 2-3 1h2l-1 1h-3l-1-3-1-26c0-7-1-14 0-21v-1c-2 1-3 20-5 24h-4c-6-1-13 1-19-1l1-1c1-2 1-5 2-7l1-1 1-3 3-6v-1zm446 629l10 15c-5-14-14-31-25-42 1-1 3-5 4-6 8 12 16 25 23 37 3 6 7 12 6 19-1 2-2 3-4 4 0 1 0 1-1 2h3v2l-1 1 3 1c-1 1 0 0-2 1-3 1-6 4-8 5h1c2 0 3-1 4-1h1c-2 6-9 11-14 14l-66 34c-2-7-4-14-8-20 0 2 1 1 1 3h-1c-1 2-4 3-6 4l-15 9c-1-1-1-1-2-3l3-3c-2-1-4 0-6 0l-54 20-1-2c1-1 1-1 1-3 1-4 1-9 1-14-2-3 0-9-1-13l-1-1c2 0 3-1 4-1l1-1c5-3 12-5 18-7v-1c3-2 12-6 16-7l1-1v-1h0c4-2 8-3 12-4 1-1 4-1 6-1l10-2c2-1 4-2 7-2 16-5 32-17 46-26l27-15c-1 2-1 3 0 5h0c1 2 2 5 4 7l3-6z" class="C"></path><path d="M926 1183c1-1 4-1 6-1l10-2c-3 3-7 4-10 6-7 3-13 6-20 8 2-2 8-4 12-6h1c1-1 1-2 2-3l-1-2z" class="O"></path><path d="M897 1196c9-1 17-8 27-8-4 2-10 4-12 6-4 3-8 4-12 5l-3-2v-1z" class="D"></path><path d="M914 1187h0c4-2 8-3 12-4l1 2c-1 1-1 2-2 3h-1c-10 0-18 7-27 8 3-2 12-6 16-7l1-1v-1z" class="N"></path><path d="M1037 1182h1c2 0 3-1 4-1h1c-2 6-9 11-14 14 1-2 1-1 1-2 0-2 1-4 2-5v-1l-6 2c-1 1 0 1-1 0h0l12-7z" class="H"></path><path d="M1047 1166c-1 2-2 3-4 4 0 1 0 1-1 2l-1 1c-2 1-3 2-5 4l-1-1h0c1-2 3-4 5-5l1-1c-2 1-6 2-8 4-4 3-8 4-13 5 2-1 3-2 5-3 1-1 0 0 2-1l7-5 3-2c2 0 2-1 4-2 2 0 3 1 5 0h1z" class="D"></path><path d="M753 104l14-1 25 91h-20c-5 1-9 2-14 2l-43 6-32 7 11-101 59-4z" class="C"></path><path d="M706 119c2 0 3 0 4 1v3l-2 2h0c-2 0-3-1-4-2v-2l2-2zm47-4h9c2 3 4 7 5 11 2 7 17 59 16 63 0 1-1 1-1 2-1 1-3 2-4 2h-2c-4 1-9 0-13 0-5-1-10-1-16 0l-34 4c-7 1-15 4-22 3-1 0-1 0-2-2-1-4 2-13 2-17 2-14 3-27 6-40 1-5 3-10 5-14 2 0 3 0 4 1-3 6-5 12-7 18-3 17-5 34-6 51l76-8c3-3 5-6 6-10l1-1v1c0 3-2 6-4 8h0v2c3-1 5-1 8-2 0-5-3-10-4-15-4-17-6-39-16-53-3-1-6-1-9-1-8-1-16 0-24-1 9 0 18-1 26-2z"></path><path d="M732 123c5 0 9 0 13 1 6 2 12 6 15 12 4 6 4 13 2 20-4 13-17 17-28 23l2 9-1 1h-5l-12-3c4 0 13-1 16-3v-3l-4-1-4-2c-7-3-14-12-16-20-2-6 0-15 3-21 5-7 11-11 19-13z"></path><path d="M749 136c2 5 3 10 2 15l-2-2c0-4-1-7-2-11l2-2z" class="C"></path><path d="M748 131h1c4 2 8 8 9 12 2 5 1 9-2 14l-1 1 1-9c1-7-3-13-8-18zm3 20c-1 3-3 6-5 8-4 3-9 5-13 5-5-1-10-2-13-6-4-4-5-9-5-14 1-4 4-10 7-12 5-4 10-4 16-3 5 0 8 3 11 7l-2 2c-1-1-2-3-4-4-4-2-9-3-14-2-4 1-7 4-9 7-1 4-2 8 0 12 1 4 5 7 9 9 3 1 9 0 13-2s6-5 7-9h0l2 2z" class="B"></path><path d="M749 149h0c-1 4-3 7-7 9s-10 3-13 2c-4-2-8-5-9-9-2-4-1-8 0-12 2-3 5-6 9-7 5-1 10 0 14 2 2 1 3 3 4 4 1 4 2 7 2 11z"></path><path d="M787 283c43-2 87 5 127 19 82 28 148 83 186 161-2 0-15 0-16-1s-3-7-4-9l-12-19c-22-31-50-59-81-80-71-48-160-66-244-50-36 7-70 21-102 41-49 30-88 79-110 132-8 20-13 39-17 59h-16c3-15 6-29 11-44 12-38 33-74 59-104 55-65 135-98 219-105zm-4-82c9-1 19 0 29 0 32 0 64 3 96 9 115 23 222 93 287 191 11 17 21 34 30 52 1 2 4 9 4 11l-23-1c-3-8-8-16-12-23-27-50-67-93-111-128-51-41-113-69-177-83-58-12-120-14-179-4-60 10-117 35-168 68v-22c13-8 26-16 40-23 40-20 82-34 127-41 19-3 38-5 57-6zm-23 223h13c36-1 80-2 107 25 5 5 10 12 12 19 1 5 1 10 1 15v28 104h117c5 0 29-2 32 1 1 2 1 3 0 5l-157 1V510v-27c0-4 0-10-1-14-1-5-5-10-8-13-16-18-44-23-67-24l-31-1c-29 0-63 3-86 24-7 6-12 14-12 24v124 233 134 43 20c1 8 6 14 10 19 22 22 59 27 88 27 32 1 72-2 95-25 5-4 9-10 11-16 1-4 1-9 1-14v-25-89h191 262a485.24 485.24 0 0 1-9 55c-8 38-19 75-33 110-3 1-6-1-8-1 18-51 35-103 40-156H893v86c0 11 1 24-1 35-1 5-5 10-8 15-18 22-46 29-73 32-9 1-19 1-28 1-32 0-66-3-92-24-8-7-17-18-18-28-1-11 0-22 0-32v-66-207-175-54c0-8-1-18 0-26s5-15 10-21c19-22 49-28 77-30zM351 833l-6-7c4 10 11 17 18 24-4-1-7-2-10-4-13-10-17-31-19-46-2-19 0-40 9-57 1-3 3-4 4-6 3-5 6-9 10-13 7-9 18-18 29-21 5-2 9-2 14-2l1 1c1 2 1 4 2 5h1c8-1 16 1 23 3v1c3 2 5 3 8 5l1-1 20 6c1 1 4 2 6 3 1 1 1 0 2 1 6 6 9 14 14 21-3-12-9-22-15-32v-1l2 1 1 1h1c4 0 7 0 11 1h-1c-3 1-7 1-10 1l1 1c6 0 11-1 16 3v1l-7-2h-5 1c4 1 8 3 11 4l1 2c-4 0-8-2-12-2h0l12 4 6 51c1-5 1-11 1-17l-1-28c0-8-1-18 1-26l1-1c1 2 1 1 1 3h1c0-1 1-3 1-4 2 9 2 18 3 27 0 14-1 29 2 43l1 1c-1 1-1 2 0 4 0 2 0 2-1 4 1 1 3 1 5 1-1 2-1 4-1 5v1c1 2 1 3 0 5-3 0-5-2-8-2-3-1-5-1-8-1l1 1h1c5 1 10 2 14 5v3c-5 1-12-3-18-2l7 1c4 1 7 2 11 3 1 2 1 3 0 5-2 0-5-1-7-2-4-1-8-1-12-2-1 0-3-1-4 0 5 1 21 4 23 7v3l-4-1c-2-1-3 0-4 0-2-1-2-1-3-1-2-1-2-1-3-1-2-1-2-1-3-1h-2c-1 0-1-1-2 0v1 2c-2 0-3 0-5 1-1 1-2 3-4 4-1 2 0 5-1 6-3 1-8 0-11 0l-4-16v1c-2 7-6 19-12 25l-1-1h0v-20c0-1-1-4 0-4 1-3 4-6 6-8 4-7 8-16 7-24-3 12-11 24-20 32-7 7-15 13-25 15-10 3-22 3-33 4-9 1-17 2-26 2l-4 1z" class="E"></path><path d="M345 776l1-1c2 1 2 1 3 3-2 0-3 0-4 1 1 1 2 1 3 0h1l1 1v2c-1 1-2 1-3 1-1-1-3-1-4-2l-1-1c1-1 2-3 3-4z"></path><path d="M438 761c1-1 2-1 4-1 2 3 2 3 2 7l-2 2c-3 0-4-1-6-2v-4l2-2z" class="G"></path><path d="M408 720h1c1-1 3-1 4 0 2 1 3 2 3 4s0 3-1 4c-2 2-3 2-6 2l-2-2c0-3 0-5 1-8z" class="F"></path><path d="M382 711c2 0 2-1 4 0l1 8h2v1c-2 0-3 1-4 2v8c-1-1-1-4-3-5-3 1-6 4-8 7-2 1-5 4-5 7l3 1v1l-4-1-1 1c-4 3-15 24-15 28 0 2 1 0 0 2l-3-1 1-3c2-9 6-19 12-27l1-1c-2 0-8 0-10 1s-1 3-4 4c-1-2 0-5 0-8h15l1-1c4-6 11-8 15-13 1-1 1-4 0-6 0-3-2 0-4-2l6-3zm-41 72h1c2 3 4 5 6 6l8-3v8c0 1 0 1-1 1-1-2-2-3-4-4h-1c6 7 14 15 23 19 1 1 2 1 4 1l-3-2v-1c4 2 9 5 13 4l1-1 1 1c8 0 20-1 25-6 2-2 3-3 3-5-2 0-3-1-5-2v-2c2-2 2-2 5-2 2 2 2 3 3 5 0 1-1 2-1 3-4 7-13 10-21 12 6 1 14 2 19 0 2-1 2-1 3 0-5 2-9 2-15 2-4 0-9-1-13 0l-7 2c-8 2-17 0-24-5s-12-13-16-21c-2-3-3-6-4-10zm49-36c3 0 8-1 11 1 6 2 10 6 12 11 3 6 3 15 0 20-4 7-9 10-16 12-4 0-8 0-12-1-4-2-9-7-11-11-2-6-2-13 0-19 3-7 9-10 16-13z"></path><path d="M509 308c1-1 2-1 3-2 2-3 1-8 1-12 1-4 2-8 2-12 0-2 0-1 1-2l3 1c0 2 1 4 3 6 0-2 0-3 1-5l2 2 1-1c4 1 4 3 6 6l4-10c-4-4-11-6-16-8l-20-9c-2 1-2 2-3 3-1 4 0 8-1 12-3 9-12 21-21 24-6 2-12 2-18 2h-23c-31 0-67-2-97 7-20 6-39 17-56 29l-19 14c-5 3-9 6-13 10l16 5c1 0 2 0 4 1-6 0-11-2-16-2 3 5 17 7 22 9-10 0-18-1-27-3-1-12-1-25-1-37 0-11-2-59 7-66 3-3 9-4 13-6 15-7 23-15 32-29h160c4 0 30-1 32 0 1 1 5 7 5 8 3 4 6 8 10 11 10 8 25 13 38 18-2 7-2 14-3 22-1 2 1 3-2 4-2 1-1 0-2 1l-27 12-2-1v-1l1-1z" class="E"></path><path d="M308 245c3-1 6 1 9 1 6 1 13 1 20 1l100-1h30c4 0 8-1 12 1 3 3 4 5 4 9 2 8-2 17-7 24-4 5-9 10-17 11l-1 1c-9 1-18 0-28 0l-50 1c-34 1-66 12-95 31-10 6-20 14-31 20-1-11-1-22-1-34 0-7 0-17 2-24 1-3 3-6 5-8 10-9 23-16 34-24 5-3 9-7 14-9z"></path><path d="M281 289h1c3-1 7-3 10-4 4-2 8-3 13-4-13 6-24 11-34 20l-1-4 6-6c2-1 3-2 5-2z" class="G"></path><path d="M275 286l-1 1c-1 2-2 3-4 4l-3 2c2 0 2 0 3-1v2l-1 2 3-3h1c1-1 1-2 3-2l-6 6 1 4-7 6-1-1 1-6c-2-1-2-1-2-3 3-5 8-8 13-11z" class="D"></path><path d="M416 257h-1c-1-1-4 0-6 0h-14l-36-1c5-1 10-1 15-1l28-1 32-1c2 0 10 1 11 0 1 0 1-1 1-1 0-2 0-2-1-3l-1 1c-5 1-11 0-16 0v-1h19l1 19c-1-3-1-8-1-11h-19c-4 1-8 1-11 1l-1-1z" class="F"></path><path d="M448 268h0c2-5 2-11 3-16 5-1 18-2 22 1 2 1 3 4 3 6 0 1 0 1-1 2-2 2-5 3-7 4 2 3 6 7 6 11s-4 9-7 12c-2 1-4 2-6 2h-1c-10 2-23-1-33-1-41 0-82 1-120 16-12 4-23 10-34 16l-9 6s-2 2-3 2h-1v-1c1-2 1-2 1-4s1-8 3-10l1-1h-1l-1-1c2-5 7-8 11-11h1l-1 1c3 0 7-3 10-5s6-3 10-4c14-6 30-10 45-13-4-1-7-3-11-3-10-2-27 1-36 5-4 2-7 4-11 7-2 0-3 1-5 2-2 0-2 1-3 2h-1l-3 3 1-2v-2c-1 1-1 1-3 1l3-2c2-1 3-2 4-4l1-1c0-1 5-3 6-5-6 0-11 2-16 5 7-10 16-17 28-21 3-2 10-2 14-2 26-4 51-4 77-4 11 0 21 0 32-2l1 1c3 0 7 0 11-1h19c0 3 0 8 1 11z" class="C"></path><path d="M293 265c3-2 10-2 14-2 26-4 51-4 77-4l-1 2c5 0 10-1 15 0-2 1-7 1-8 2 3 0 7 0 10 1l-34 4c-5 0-17 3-23 0v-1-2c3 2 7 1 11 1 7-1 15-1 22-2-12 0-23-1-35 0-10 1-43 9-50 5l3-2v-1l-1-1z"></path><path d="M293 265c3-2 10-2 14-2 26-4 51-4 77-4l-1 2-85 5h0c4 1 7 1 12-1l3 1h-3l-3 1c-5 1-9 1-13 0v-1l-1-1z" class="L"></path><path d="M830 1143l1 48 3 111v21c0 3 1 6-1 8-3 2-7 3-10 3-12 1-23-1-35-1-17 0-35 1-52-1-3 0-6-1-8-3s-3-8-3-11c-1-8-1-16-2-24l-2-66-3-130c3 1 6 2 10 3 1 7 1 14 1 21l2 32 6 115 1 30c0 6 0 12 2 17 2 2 3 2 6 3 13 1 34 0 45-9h1c6 1 12 1 19 1 3-17 2-36 2-53 0-12 0-25-3-37-2 7-1 15 0 22l-1 34c0 10 1 20-1 30h-13c1-2 2-4 2-7 0-7-4-16-9-22-5-5-11-8-18-9-7 0-13 3-17 7-3 3-9 9-9 13s0 7 1 11c3 7 7 12 15 15l1 1-16-1c-3-5-2-27-2-34l-5-84c-1-25-4-51-2-76 4-6 7-8 14-11l-4 6c-3 5-4 10-2 16 2 9 7 13 15 18l2 1c1 1 1 5 1 5 1 9 1 18 3 27 2-10 1-21 1-31 6-1 13-3 18-6 5-4 8-9 8-14 1-7-1-13-6-18v-1l20 1 5 20c1-11-1-22-1-33h2 1c1 1 1 5 1 6l2 31c0 4 0 10 1 13 1-4 1-9 1-13l-1-38 13-3 1 27c-1 3-2 9 0 12v2h-1-1v5h1z" class="E"></path><path d="M819 1188l6 102c0 7 2 26 0 31 0 1-1 2-2 3-6 6-50 3-60 2h-4c3-1 8-1 12-1l33-2c5-1 12 0 16-3 3-6-2-114-1-132z"></path><path d="M1152 523c-15 1-30 0-45 0l-66-1c-16 0-33-2-50-1-6 0-13 2-19 4-21 10-28 31-36 51l-15 1 19-110 343 3c3 10 7 20 8 30 1 8 0 16 1 25l-78-2h-49c-4 0-9 1-13 0z" class="C"></path><path d="M930 558c1-6 6-33 9-35 1 1 2 1 4 3-3 3-4 9-5 13l-8 22v-3z"></path><path d="M1152 523h0l3-1c2-1 8 0 10 0l1-1c-3 0-5 1-7-1 9-1 19 0 28 0 4 0 9 0 13 1 5 1 9 1 14 2h-49c-4 0-9 1-13 0z" class="F"></path><path d="M943 526c2-3 2-8 2-12l-1-20 1-21h0c3 2 6 4 9 5h1c7 1 14 1 21 1h-5c-7 2-14 4-20 7-2 12-1 25-2 37 0 4 0 10-1 14-2 1-2 2-4 3-2-3-1-11-1-14zm27-23l-3-2c0-2-1-2 1-4 4-6 14-7 20-11-10 2-20 4-29 10l-1-2c3-4 13-7 17-8 5-1 10-3 15-1v-1c-1-2-2-4-2-6 4-3 51-2 60-2h59c8 0 17 0 25 1v1c-6 7-18 7-26 11-2 1-4 2-5 3h11c-4 2-10 5-14 6 1 1 0 0 2 1 2 0 3 0 5 2h-7l13 5c3-1 6 0 9 2 1 1 0 1 1 1l22 4c2 0 3 1 5 0h-2c-1 0-2 0-4-1h0c-3-1-4-2-6-3-3-2-3-6-3-9s0-10 2-13h1c1-1 2-3 4-4 3-2 7-3 11-4 6-1 12 0 18-1 16 0 33-3 49 0-6 3-13 3-19 4-3 0-6 0-8 1v5c-1 3-2 5-3 8l-8 3h18c-3 2-7 2-11 3l1 1 1 3c2 3 6 3 10 2h1 3 1c7-1 14-2 21-2v-1c-2-4-3-8-1-13 2-4 5-7 9-8s7-1 11-1c-3-1-11-3-12-6 4-1 32-1 35 0-5 2-12 1-18 3 2 2 6 2 9 3 5 0 14-1 17 2 1 3 1 5 0 7-2 2-3 3-5 4h-1c3 1 3 1 6 3l-1 1c-2 1-4 1-6 2 2 0 5 0 6 2-1 1-2 1-4 2l4 1c-2 2-5 3-8 4l12 3c-17 2-34-1-51-1l-56 3c-6 0-13 2-19 2-7 0-14-2-21-3l-49-1c-5 0-11 2-17 1l-42-2c-12 0-26-2-38 0-11 2-21 9-30 15 2-4 5-7 8-10-1-2-2-4-1-6 3-2 7-5 11-5 1 1 0 1 1 1 1-1 1 0 2-1h1c-3-1-5-1-7-4z"></path><path d="M1111 506c3-1 6 0 9 2 1 1 0 1 1 1h-35v-1c7-2 17-1 25-2zm-141-3l1 1c3 1 6 1 9 1h4c-8 4-15 8-21 13-1-2-2-4-1-6 3-2 7-5 11-5 1 1 0 1 1 1 1-1 1 0 2-1h1c-3-1-5-1-7-4z" class="D"></path><path d="M1203 508c8 1 17-1 24 2v1c-6 1-13 0-20 0-10 0-21 0-30-2l9-1-1-1c-2 0-5 0-7-1l9-4 1 1 1 3c2 3 6 3 10 2h1 3z" class="B"></path><path d="M1023 497l1 1v3l3 1c0 2 1 1-1 2l17 1c2 1 5 1 8 0l4 5-26-2c-6 0-12 0-18-1l14-1c-9-1-18-1-27-1 6-2 13-3 19-4 3-1 5-1 6-4z" class="G"></path><path d="M1148 485c3 0 6 0 8 2 4 3 6 8 6 12 0 5-1 8-5 11-2 2-3 2-6 2s-6-1-9-2c-3-2-5-5-6-8s-1-7 1-10c2-5 7-6 11-7z" class="F"></path><path d="M1149 487c2 0 4 1 5 2 3 1 5 3 5 6 1 3 1 7-1 9-2 3-4 4-8 5-2 0-4-1-6-1-3-2-5-4-6-6-1-3-1-5 1-8 2-4 5-6 10-7z"></path><path d="M1023 497h-1c-3-1-6-2-10-2 7 0 13-1 20-4-5 1-12 2-17 1 7-2 17-3 24-5v-1h-1c-3 1-7 2-10 1 5-1 9-3 14-2l7-4c-4 0-9 2-14 1 3-3 21-3 25-3 3 0 8 0 11 2l-1 1c-6 0-13 1-18 6-2 3-4 7-3 11 0 2 1 4 2 6-3 1-6 1-8 0l-17-1c2-1 1 0 1-2l-3-1v-3l-1-1z" class="E"></path><path d="M1062 485h1c2 0 5-1 8 0s6 5 8 8c1 3 2 6 1 9-2 6-6 8-11 10-3 0-6 1-9 0s-6-4-7-7c-2-4-3-8-1-12 2-5 6-6 10-8z" class="C"></path><path d="M1063 488h0c3 0 5-1 8 0 2 1 5 3 6 6 1 2 1 5 0 7-1 5-4 7-8 9h-5c-3-1-7-3-8-6-2-2-2-6-1-9 1-4 4-6 8-7z"></path><path d="M464 930c0 3 2 5 4 8-4-2-7-4-10-5-6 1-11 2-14 8l-4 7-88 6 2-1c8-4 23-13 27-22 1-4 1-10-1-14-3-6-10-12-17-14-5-2-12-1-17 2-4 3-7 7-8 12s0 10 3 15c2 4 7 7 11 9l-15 8h6l1 1c-2 0-3 1-4 2h4c-3 4-8 4-12 7l12-2-36 13-1-2h-1v3l-15 16-1-42c0-10-1-21 2-30s8-18 14-25c6-6 10-12 16-17 22-18 57-21 84-22 36-1 87 4 114 29 17 16 26 37 27 60v24c-1-1-1 0-2-1-1 9-1 18-5 27l4 8v6c-3-1-9-9-12-12-5-4-11-6-16-9-31-15-68-19-102-19-10 0-21-1-32 0-29 3-68 6-88 30l-1 1v-1c2-5 7-9 11-13 32-31 98-27 140-25 1-5 2-11 5-15 2-2 4-3 7-3s7 1 9 4c3 3 4 4 4 9-1 1-2 2-2 4h2c2-2 2-4 3-6v-1c8 1 18 4 26 2 5-1 9-6 12-11 4-7 4-17 2-25-4-14-12-24-22-33-4-4-8-8-12-10l13 15c-8-4-16-7-25-9-25-4-104-7-123 8-5 4-8 15-9 21 5-5 8-13 13-17 7-5 19-6 27-6 28-4 59-5 88 0 8 2 23 4 28 12 2 3 2 13 0 17-1 3-5 4-5 8-1 1-1 2 0 3v2c-2 0-2-1-3-2l-1 1 1 1c1 1 1 2 2 3l-1 1c-2 0-4-3-6-4v-1c-2-1-4 1-6 2-1 1 0 1-2 0l-2 1h-1c0 1-1 2-2 2v1z" class="C"></path><path d="M306 913l3-1c2 1 3 2 4 3 5 5-1 8-3 13 0 2-1 4-1 5v1h-1c-1-4-4-7-6-11-1-2-1-4-1-6 2-2 3-3 5-4zm149 33h1c4 0 9 1 12 5-1 1-3 2-4 4 7 4 18 5 27 7 10 3 21 6 31 11 4 2 12 6 13 10h-1c-11-6-24-11-36-15-8-2-16-4-23-5-6-2-12-3-17-5-1-1-1-1-1-3 1-2 2-4 4-4v-1-1c-2-1-3-2-5-2h-3l2-1zm85 44c-1-2-2-4-2-5 0-2 1-6 1-8 1-5 1-9 1-14 1-21-3-41-15-58-4-6-9-11-14-16l1-1 8 8c18 19 25 41 25 67-1 9-1 18-5 27z"></path><path d="M646 1260h-1c-8-7-14-15-21-23-2-4-5-8-9-11 7 14 17 27 28 38l8 8c1 1 3 2 3 3 1 2 1 9 1 11l1 36-26 4-24 4c-4 1-8 2-12 2-4-1-9-4-12-6l-22-12c-3-2-6-5-10-6 7 7 15 12 23 17 7 4 13 9 20 12-2 1-1 0-3 0-3 0-6-2-8-4l-16-9-43-21c5-5 29-23 30-27l-40-33c-57-50-105-110-137-179-6-13-12-26-16-40-3-7-5-16-6-24v-1c5 11 9 22 15 32h1l-6-16c-1-3-2-6-2-8 2 2 2 5 3 7l5 10-4-18 9 16c-1-3-1-7-1-10l4 8c-1-3-2-9-2-12 28 88 84 162 152 223 15 14 32 30 50 40l3 1c-7 3-14 6-20 10-3 2-5 5-8 8 1 1 1 0 2 1l-2 2c3 2 11 1 15 1l-13 3h14l-11 2c5 1 10 2 15 4 3 1 6 4 9 5 4 2 8 4 11 5 1 1 1 0 2 1l-2 2c1 2 4 2 6 2 1 1 2 1 3 0l-1 1c-1 0-2 0-3 1h-4c1 1 4 1 6 1 8-1 17-3 25-5 5-1 11-3 16-5l-31 4c5-5 10-9 14-15 3-10 2-22 0-32l-3-11c-10-37-34-65-65-86l-38-24c-6-2-11-6-17-9l-29-15-15-7c6 6 13 12 20 16 6 4 13 6 19 9 5 2 9 6 14 9 11 6 24 11 32 20 6 8 9 18 13 27 0-8-4-17-8-25 9 5 18 13 26 21 11 10 21 21 27 35 7 16 9 33 9 49-7-6-16-7-23-12l3-2c4-6 5-16 6-23-10 3-18 8-27 12-4-2-8-4-12-7 7-3 12-7 17-12l-7-4 4-6c1-2 1-3 1-5-4-1-8 1-11 2l-23 11-9-6c4-2 8-4 12-7 1 0 5-3 6-3h2 0c-1-2-3-5-5-6-5-3-14 1-19 2-3 1-3 1-4 0-1-3 2-4 3-6 1-1 2-6 2-8 1-4 4-8 5-13 1-1 0-1-1-3-6-1-15 5-21 7l-9-13c6-2 11-5 15-9 1-4 0-8 0-12-8 2-15 6-24 7l-5-6c6-3 13-4 18-7h0l-20 5c-3-5-6-8-10-12 3 0 6 0 9-1v-2c-2-1-7-1-9-2-2 0-4 0-6-1-2-2-5-6-7-8-6-7-12-14-18-22 2-1 3-3 5-5 0-2 0-2-1-4h-1c-4 2-6 4-8 7l43 56 30 42c4 6 8 13 13 18 1 1 2 1 3 3l-1-1c-14-13-28-26-41-40-17-20-33-41-48-64-18-26-34-55-44-86l1-1c4 9 9 18 14 27 2 4 4 8 7 11-5-15-13-29-17-45l17 28h0l-1-4 4-2c13 21 28 41 51 52 8 4 17 7 27 9 12 3 23 4 36 3 12 21 28 42 44 58l28 28 15 13c1 1 5 4 6 6-2 2-5 4-6 7 3 2 5 0 8 1 2 0 7 6 8 8 9 9 17 18 24 28 4 5 8 9 11 14h-2c-1 0-3 0-4-1l-3-3-1-1c-1-2-4-5-6-7l-5-6h-1c0 6 4 7 6 11l-2-2c-2-2-3-2-5-3z" class="C"></path><path d="M505 1121l3-1 2 2c0 2-1 2-2 4l-3 2-3-4 3-3z" class="J"></path><path d="M429 1084h2c2 1 1 1 2 3 0 3 0 4-1 6l-2 1h-1c0-1-1-2-1-3-1-3 0-4 1-7zm44 37l-1-1-1-2c2-2 4-5 7-6 1-1 2 0 2 0 1 3-1 6-3 8-1 1-2 1-4 1z"></path><path d="M484 1123c3-2 4-5 7-6 2-1 3-1 4 0 4 3 5 4 10 4l-3 3 3 4-4 2 3 3v1l21 12h-1c-3 0-4-1-6-2l-19-11c-4-2-7-2-9-6h-1c-2 1-5-1-7-3-2-1-4-2-7-2 1 1 2 2 3 2l23 12h1c2 1 3 2 5 3 4 2 10 5 11 8-6-2-11-6-17-9l-29-15 1-2c2 0 3 0 4-1 3 0 5 1 7 3z" class="D"></path><path d="M502 1124l3 4-4 2 3 3v1l-8-5 6-5z" class="K"></path><path d="M484 1123c3-2 4-5 7-6 2-1 3-1 4 0-1 3-3 6-5 10-2-1-5-2-6-4h0zm20 10h1l47 21c-7-10-14-24-25-29-8 2-14 6-22 8l11-6c4-2 7-5 11-6 4 2 7 5 9 8l19 24 15 19-31-19c-5-2-9-5-14-7l-21-12v-1z"></path><path d="M597 295c13-7 26-13 39-18 6-3 12-7 18-7 12-1 24-8 35-11 25-8 51-15 78-18 10-1 20-1 30-1 8-1 17-1 26-1l33 3c5 0 13 2 17 1 3-1 9 0 12 0h7l24 6c4 1 9 1 13 2 9 2 18 5 27 8l35 13 14 4c5 2 8 4 13 5l-10-7c9 3 15 7 23 11 18 10 35 22 51 35 5 5 11 9 16 15l-1 1h-3l-2-1c3 6 8 10 12 15 16 20 32 40 44 62-5-17-16-33-27-46-3-4-6-9-10-12h1c12 10 21 26 31 40l15 23c6 9 11 20 16 29 3 6 6 11 7 17h-6l-7-14-3 3c2 4 4 8 7 11h-13c-2-2-4-8-6-11-1 0 0 0 0 1 1 2 5 7 4 10h-4c-3-1-14-20-16-24l-1-1c0-1 0-1-1-2h-1v1 2h-1-1l-1 1 2 3 1 2c0 2 1 3 1 4h1c1 3 5 11 4 14h-3l-24-37v1c5 10 12 20 16 31h0c1 1 3 3 2 5l-7-1-14-22c-8-13-13-26-23-37h-1c9 12 16 25 22 40 0 1 2 3 1 4-6-14-16-28-26-40l-30-35 1-1-3-2v1c0 6 5 8 8 13-4-3-6-7-11-8l-33-26c-29-22-62-38-96-50-66-22-146-28-213-6-26 8-49 20-73 32h0l4-9h-1c-3 3-5 4-5 8v2c-1 2-2 3-4 4l-20 14-15 11-1-1c2-15 0-31 0-47v-1c-3 1-7 3-9 6-5 2-10 5-15 8l-1 1c0-2 2-2 3-3l6-4c0-4 3-7 5-10 5-3 11-8 17-9z" class="C"></path><path d="M1165 452c-2-1-3-4-4-6-5-10-7-20-13-28l1-1c2 3 4 7 7 10 5 7 8 15 12 22l-3 3z" class="J"></path><path d="M781 257c8-5 18-3 27-4 13-1 26-2 39-2l1 1c-3 1-6 1-9 1-9 1-18 0-27 1-3 0-11 0-14 2 6 1 13 0 19 2l-36-1z" class="G"></path><path d="M965 266c3-1 7 1 10 2 14 5 27 11 41 17v2h-1l-2 1c-2 0-5-2-6-3l-17-8-25-11z"></path><path d="M1110 440c0-2 0-3 1-4v1l2 2v-2h1c2 2 3 5 5 8l3 3c1 2 0 1 1 3s2 3 4 5l1 2h1 0c1 1 3 3 2 5l-7-1-14-22z" class="D"></path><path d="M893 258c8 0 15 2 22 4l25 6c5 1 10 2 13 7h-2c-3 1-8-1-10-2l-27-9-13-3c-3-1-6-1-8-3z"></path><path d="M597 295h1c2 0 3-1 5-2l39-17 1 1c-16 7-31 13-46 21-7 5-14 12-22 16 0-4 3-7 5-10 5-3 11-8 17-9z" class="M"></path><path d="M610 298l2-1 1 1-1 2-3 6-2 6c-1 3-2 5-3 7h-1c0 5-1 10 0 14v1 2c1 1 1 2 1 4h-1c-1-1-2-3-2-5h-1c-1-2 0-4 0-7-2-2-1-4-1-7 1-1 1-4 1-6 1-1 0-4 0-6l1-1v-2c0-2 2-3 3-4l1-1c2-2 3-2 5-3z" class="B"></path><path d="M1051 369c-6-8-14-15-22-22l-23-19c4 1 9 5 12 7 14 10 27 21 39 33 2 2 3 3 4 5 2 3 7 8 7 10-5-4-8-8-14-12l-3-2z" class="M"></path><path d="M799 245h2-4l-15 2-28 4c-25 4-49 12-74 16-2-1-2-1-3-1 2-2 6-3 9-4 10-4 20-5 31-6 27-5 54-9 82-11zm262 122l6 6-7-12c2 1 3 1 4 3v-1c-2-6-7-10-10-16 9 9 21 18 26 31 1 2 1 6 3 8-5-2-9-8-14-12v1l1 1c2 3 4 6 5 10h0l-2-3c-1 1-3 1-4 2l-1-2c0-2-5-7-7-10-1-2-2-3-4-5 1-1 2-2 2-3l2 2z"></path><path d="M1057 368c1-1 2-2 2-3l2 2c0 2 2 5 4 7 3 4 6 5 8 9-1 1-3 1-4 2l-1-2c0-2-5-7-7-10-1-2-2-3-4-5z" class="G"></path><path d="M781 257l36 1c9 0 20 1 29 4-6 2-13 1-20 1l-21-1c-7 0-13 2-20 1-5 0-3-1-6-3h-5l-18 2c-5 0-28 5-32 3 9-6 45-8 57-8z"></path><path d="M342 692l-5 1c-2-4-2-14-3-18-3-30-5-59-3-88l3-1c12-1 28-1 38-8 5-4 10-10 13-15 2-5 5-11 8-14 2-2 5-3 7-3 8-1 16 0 24 0h39l129-2 3 143c-59-15-120-16-180-9-19 1-40 5-58 10-5 1-11 2-15 4z" class="E"></path><path d="M528 633c2-1 2-1 4 0 1 2 0 2-1 4-1 0-2 0-3-1s-1-2 0-3z"></path><path d="M558 592c2 0 2 0 4 1 0 2 0 3-1 4l-3 1c-2-1-3-1-4-2 1-2 2-3 4-4z" class="K"></path><path d="M506 562c-2 7 0 19 0 27l-2-1c-2-7-2-19-1-26h3zm-7 68c2 0 3 0 4 1s2 4 2 6c-1 2-2 3-4 4-3 0-3 0-5-2s-2-3-1-6c1-2 1-2 4-3z"></path><path d="M506 562c1 1 2 2 3 4 0 5 1 8 4 12-1 1-1 1-3 1 1 3 1 4 2 6l-3 3c-1 1-1 1-3 1 0-8-2-20 0-27z" class="F"></path><path d="M354 596c2 2 3 4 3 7 0 4-5 8-6 12-2 5-1 13-1 18h-1l-1-23c-1 2-2 5-2 7l-1 1c-1-2-1-5 0-7 0-1 0-2 1-3v-1c-1 1-2 2-2 4l-1 1c0-2 0-4 1-6 2-4 6-8 10-10zm49 1c2-1 4-1 6-1 1 1 3 2 4 3 2 3 2 6 1 9 0 3-2 4-4 6-1 1-2 1-4 1s-3-1-5-3c-2-3-2-7-1-10 0-3 1-4 3-5zm6-19l71 1h1l-10 1-48 2c-6 0-16 2-22 0l-1-2 2-1 7-1zm-46 31l1-1c2 0 5 1 6 3 2 2 3 5 3 8 0 4-1 6-4 9h0c2 3 3 9 3 13 0 2 0 4-2 6l-3-18c-2 0-3-1-4-1-3-1-5-4-6-7-1-2-1-5 0-7 1-3 3-4 6-5z"></path><path d="M343 605l-4 1 1 2c-1 1-1 0-1 2l-2 10-2-29c14 0 26-3 39-6-6 4-12 7-20 10v1c-4 2-8 6-10 10l-1-1z"></path><path d="M343 605c-3-3-3-3-3-7 2-2 11-3 14-3v1c-4 2-8 6-10 10l-1-1z" class="B"></path><path d="M513 561c3 0 5 1 7 3 3 5 1 16 1 21v8c-1 1-2 1-3 2-4 0-4 0-7-3l1-4h-3l3-3c-1-2-1-3-2-6 2 0 2 0 3-1-3-4-4-7-4-12 1-3 2-4 4-5z"></path><path d="M502 561c-11 1-22 0-33 0h-37c-8 0-20-1-28 3-7 3-10 10-15 15-3 3-8 5-11 7 4-9 11-18 19-25 8-8 59-5 72-5h44l-1 1c0 2 0 3 1 4-2 1-3 2-4 5-1-2-2-3-3-4h-3l-1-1z"></path><path d="M502 561l10-4c0 2 0 3 1 4-2 1-3 2-4 5-1-2-2-3-3-4h-3l-1-1z" class="B"></path><path d="M536 560l-2-2c3-1 8 1 11 1 12 0 24-1 36 0l5 115c-20-4-40-7-59-8-29-3-58-5-87-3-22 1-44 5-66 9l-25 6c-3 0-8 2-10 2 8-4 18-6 27-8 27-7 55-12 83-13l27-1c8-1 15-1 22-3-4-3-8-6-11-9l13 3 15-11v5c-1 4 2 7 3 10l-12 2c5 3 10 5 16 7 13-9 22-25 34-36l4-5 1-1c2-4 4-8 7-12 1 0 1 1 2 1 3 1 6 1 9 1 1-8 0-16-1-24 0-3 0-7-1-11 0-2-1-3-3-4-3-2-13-6-16-5 5 9-3 18-7 26 0 0-2 2-2 3 0 3 5 7 5 11-3 3-2 10-6 12-3-3-5-10-8-15-1 3-7 13-6 16l2 2v3c-2 2-6 2-9 3-2-16 0-33 0-50 0-4-1-10 1-13 2-1 4 0 6 0h3c1 0 2 1 3 2h0c3 1 4 3 7 3h1c2 0 2 1 4 1-5-3-13-4-16-10z"></path><path d="M568 654c2-2 6-1 9-2v2l-1 1-8-1zm-2 3l11 1v2c-2 1-13-1-16-1l-1-1c1-1 4-1 6-1z" class="B"></path><path d="M561 659l-27-2v-1l2-2 30 3c-2 0-5 0-6 1l1 1zm-20-13l1 1c3 4 28 2 35 5-3 1-7 0-9 2l-31-2 4-6z" class="D"></path><path d="M536 560l14 7c1 1 4 2 5 3-7 5-13 9-20 12l8-8-1-1c-2 0-3-2-5-1v-3c3 0 6 3 9 2l-1-1c-4-1-8-4-11-6h3c1 0 2 1 3 2h0c3 1 4 3 7 3h1c2 0 2 1 4 1-5-3-13-4-16-10z" class="F"></path><path d="M556 626l4-5 1-1c2-4 4-8 7-12 1 0 1 1 2 1 3 1 6 1 9 1 0 3 0 6-1 8l1 1v4c-3 1-6 0-9 0-3-1-6-1-9-1v1c6 0 12 1 17 2 1 2 1 2 0 4h-4c-6-1-13 0-18-2v-1zm-15 20l14-17 22 2 1 1v2c-5 1-13-1-19 0-1 0-3-1-4 0 6 3 16 1 22 2l1 2c-2 1-3 1-5 1-5 0-16-2-20 0 4 3 23-1 25 4-3 2-24 0-29-1 1 2 2 2 3 2 5 1 23 1 26 4l-1 1c-11 0-25-4-35-2l-1-1z" class="B"></path><path d="M1197 961h30c5 0 13-1 18 1s10 6 12 11c1 3 1 6 1 9 0 13-3 26-3 39-1 11 1 23 0 35 0 2 0 5-1 7-3 5-8 10-13 11-8 3-12 0-18-3-5-3-10-5-15-6-10-1-20 0-29-1h-45l-91-1c-14 0-28-1-43 0-9 1-17 2-26 5-15 6-27 16-38 28l-8-108c0-6 0-13 5-18 2-1 4-2 6-2 10-1 22-1 32-1l48-2 178-4z" class="E"></path><path d="M1170 1016c-1 4-2 10-5 12-7 2-15 1-22 0l-2-1v-1l22-1c3-2 5-6 7-9zm-189-14c12 0 22 3 33 7 6 2 12 4 17 7 8 5 15 13 17 21 0 3 0 6-1 8-6 5-22 3-29 3-15 1-30 6-45 6-5-3-10-8-12-13-3-7-3-16 0-22 3-8 12-13 20-17z"></path><path d="M1002 1020l2-2c2 4 2 10 0 14l-2-2c1-4 1-6 0-10z" class="C"></path><path d="M1030 1024l1 3 4 16h-18l6-9c1 2-1 5-1 8 2 0 3 0 5-1 4-4 3-12 3-17z" class="G"></path><path d="M1030 1024l-1-1 1-1c5 5 13 13 15 20v1c-3 1-5 0-7 0-2-6-3-11-7-16l-1-3zm-26 8v1c-1 4-5 7-8 9-5 2-10 3-15 1s-9-5-11-10-2-9 0-14c1-4 4-10 9-11v-1c4-1 8-2 12-1s8 3 10 7l3 5-2 2c-3-5-5-8-10-9s-10 0-14 3c-3 2-5 6-6 10 0 4 1 8 3 11 4 3 8 5 12 5 5 1 7 0 10-3 2-2 4-5 5-7l2 2z" class="B"></path><path d="M1002 1030c-1 2-3 5-5 7-3 3-5 4-10 3-4 0-8-2-12-5-2-3-3-7-3-11 1-4 3-8 6-10 4-3 9-4 14-3s7 4 10 9c1 4 1 6 0 10zm-58 18h1c6 2 12 4 15 10 0 3-2 5-5 7l-5 4-7-10c-1 2-1 5-1 8-1 6-1 13-3 19l-2-26c-1-15-8-66 1-77 5-6 13-7 21-7h61l82 1h72c16 0 33-1 49 1 6 0 16 0 20 4 2 2 1 5 1 8 0 8-1 15-2 23l1 24c0 4 0 8-1 12 0 2-1 5-3 6-3 3-6 2-10 2-2-1-4-2-5-4-7-3-20-2-28-2l-66-1c-12-1-25 0-37-1-5-1-10-1-13-4-5-4-8-10-9-16 0-7 2-16 7-21l2-2h-1l-1 1h-9v-1l16-5c10-3 19 0 29 6 6 3 10 8 11 15l1 1c4 4 1 10 5 13l2-6v1c2 3-1 10-2 14h34c5 0 11 1 16 0-4-3-8-7-10-11-2-6-2-12 1-17l1-2v-2c1-2 3-3 4-5 6-6 13-5 21-5v-2l2 1 30 1c-1-1-2-1-3-1l-84-8c4-1 10-1 15-1l35 1c7 0 13-1 20 0-2-2-4-1-6-1-5 0-10 0-15-1-7-1-15-1-22-1l-33-2-1-1h35c10 0 22 0 32 1h0l-3-1c-11-2-23-2-34-3-28-2-56-1-84-1l-53 3c-15 1-30 4-45 6-3 1-6 1-8 2 4 0 8-1 12-1l35-3c21-1 42-2 63-2 3 1 13 0 15 2l-70 5h-5c1-1 1-1 2-1h2c8-3 17 0 25-1v-1l-43 2c-12 1-25 0-35 7-5 3-12 5-17 8-6 5-16 14-18 23 0 3 0 10 1 14l1 1z"></path><path d="M1223 1022l1-1c3 0 7 1 9 2v2c-1 1-4 0-5 0h-3l-2-3z" class="B"></path><path d="M960 1010h0c-2-1-2-1-3-1l2-2c3-2 6-4 10-5 1 0 2 0 3-1s1-1 2-1l3 2c-5 3-12 5-17 8z" class="K"></path><path d="M1126 1023c4 4 1 10 5 13 0 3-3 6-5 8l-8 1c6-8 7-12 8-22z" class="F"></path><path d="M943 1047l1 1 1 2c5 2 9 4 13 8 0 2 0 2-1 4-2 2-4 4-6 4-2-2-7-8-8-11-1-1 0-6 0-8z" class="B"></path><path d="M1223 1022l2 3h3l1 4v8 20c-2-1-4-2-5-4 1-1 0-5 1-7 0-6 1-12 1-19h-1c-1 5-2 14-6 19l-2-1c4-8 6-13 6-23z" class="F"></path><path d="M1198 1003v-2l2 1h1c3 2 10 2 15 3s11 2 15 4c-5 0-10-1-15-2 5 3 11 5 17 6 1 2 0 2 0 5-3 1-9-1-12-2l-1-1c-4-6-9-8-16-10-2-1-4-1-6-2z" class="D"></path><path d="M1094 1006c4 0 6 1 9 3 4 2 7 7 9 12 1 4-1 10-3 14-4 5-9 7-15 8-3 0-5-1-8-2-6-3-8-9-10-15 1-4 1-8 3-11 4-6 9-7 15-9z" class="B"></path><path d="M1092 1011c2-1 5-1 7 0 3 1 7 3 9 5 2 4 3 9 1 13-2 6-6 9-11 11-3 1-6 1-9 0-4-2-8-6-9-10-1-3-1-7 0-11 3-5 7-7 12-8z"></path><path d="M1190 1005c3 1 5 1 8 3 5 3 9 7 10 13 1 5 0 10-2 13-4 6-9 8-16 9-3 0-7-1-10-3-4-3-7-8-8-13-1-4 1-10 4-13 4-6 8-8 14-9z" class="B"></path><path d="M1186 1011c4-1 7-1 10 0 4 0 7 3 8 6 2 4 2 9 1 13-2 5-5 8-10 10-3 0-5 1-7 0-4-1-8-4-10-7-2-4-2-9-1-12 1-5 5-8 9-10z"></path></svg>