<svg xmlns="http://www.w3.org/2000/svg" viewBox="0 0 240 240">
	<g>
		<use href="#C" transform="" />
		<use href="#C" transform="rotate( 45   120 120)" />
		<use href="#C" transform="rotate( 90   120 120)" />
		<use href="#C" transform="rotate(135   120 120)" />
		<use href="#C" transform="rotate(180   120 120)" />
		<use href="#C" transform="rotate(225   120 120)" />
		<use href="#C" transform="rotate(270   120 120)" />
		<use href="#C" transform="rotate(315   120 120)" />

		<use href="#B" transform="rotate( 22.5 120 120)" />
		<use href="#B" transform="rotate( 67.5 120 120)" />
		<use href="#B" transform="rotate(112.5 120 120)" />
		<use href="#B" transform="rotate(157.5 120 120)" />
		<use href="#B" transform="rotate(202.5 120 120)" />
		<use href="#B" transform="rotate(247.5 120 120)" />
		<use href="#B" transform="rotate(292.5 120 120)" />
		<use href="#B" transform="rotate(337.5 120 120)" />

		<use href="#X" />
	</g>
	<defs>
		<use id="B" href="#A" transform="translate(120 0) scale(0.775 0.830) translate(-20 0)" />
		<use id="C" href="#A" transform="translate(120 0) scale(1.015 1.018) translate(-20 0)" />
		<circle id="X" cx="120" cy="120" r="20" />
		<path id="A" d="m 20.226528,0 -7.5,84 c -1.1,3.4 0.3,7.3 3.6,9.1 3.7,2 8.4,0.7 10.4,-3 v 0 a 7.6,7.6 0 0 0 0.5,-6.1 l -7.1,-84 z"/>
	</defs>
</svg>
