<svg xmlns="http://www.w3.org/2000/svg" viewBox="0 1.4 392 210.75">
	<path
     d="m 325.07,4 c -4.95,-0.99 -10.08,-1.5 -15.32,-1.5 L 87.92,3.17 h -0.01 l -1.33,0.19 c -0.01,0.01 -0.01,0.01 -0.02,0 -20.64,3.12 -35.34,12.66 -45.74,23.79 -31.26,33.47 -26.88,85.89 9.74,115.01 a 68.72,68.72 0 0 0 1.42,1.11 c 10.62,8.12 23.14,13.25 36.28,15.16 h 0.01 a 80.48,80.48 0 0 0 11.83,0.87 h -7.88 -5.98 -2.79 c -7.9,0 -15.73,-1.14 -23.21,-3.38 -0.01,0 -0.02,0 -0.03,-0.01 -8.94,-2.67 -17.38,-6.91 -24.88,-12.64 l -1.42,-1.11 C 0.49,115.58 -6.08,69.6 16.79,36.33 c 2.19,-3.19 4.65,-6.25 7.38,-9.18 10.56,-11.3 25.58,-20.98 46.75,-23.93 z"
     style="opacity:0.03" />
  <path
     d="m 388.15,80.9 c 0,21.65 -8.78,41.25 -22.96,55.44 -14.19,14.19 -33.79,22.96 -55.44,22.96 H 83.45 a 68.71,68.71 0 0 1 -2.03,-0.03 H 284.2 c 21.65,0 41.25,-8.77 55.44,-22.96 14.18,-14.19 22.96,-33.79 22.96,-55.44 0,-42.62 -34.01,-77.3 -76.38,-78.37 h 23.53 c 43.3,0 78.4,35.1 78.4,78.4 z"
     style="opacity:0.03" />
  <g
     style="fill:none"
     transform="translate(-60.69,-149.49)">
    <path
       style="stroke-width:3; stroke-linecap:round; stroke-miterlimit:4; stroke-dasharray:0.83,0.83,0.83,12.48; stroke-dashoffset:0; stroke:#BBBBBB"
       d="m 151.2,308.74 c -4.73,-0.022 -9.56,-0.11 -14.4,-0.28" />
    <path
       style="stroke-width:3; stroke-linecap:round; stroke-miterlimit:4; stroke-dasharray:0.83,0.83,0.83,12.48; stroke-dashoffset:0; stroke:#BBBBBB"
       d="m 138.3,307.82 c -12.91,-1.29 -25.08,-3.87 -32.44,-7.83 l -1.58,-0.87 c -40.79,-22.92 -53.45,-73.98 -27.91,-112 9.58,-14.24 24.88,-27.39 49.31,-32.91 0,0 1.98,-0.44 5.36,-0.86 14.6,-1.86 55.48,-3.61 77.51,30.28 7.41,11.39 11.14,24.79 11,38.37 -0.2,20.09 -7.85,49.96 -49.22,59.73 l -1.6,0.41 c -5.48,1.54 -44.06,11.18 -66.53,-15.82 -11.82,-14.2 -14.79,-33.76 -8.45,-51.11 5.06,-13.84 16.3,-29.17 41.04,-34.7 11.36,-2.54 23.33,-1.41 33.68,3.95 4.96,2.57 9.97,6.27 14.02,11.62 10.95,14.48 9.67,34.79 -2.4,48.36 -6.39,7.19 -16.46,13.41 -32.22,13.97 -7.13,0.26 -14.2,-2.06 -19.55,-6.79 -4.14,-3.66 -7.82,-9.13 -8.16,-17.09 -0.52,-12.46 7.67,-23.79 19.64,-27.28 2.54,-0.74 5.27,-1.16 8.09,-1.01 9.59,0.49 16.35,10.06 12.76,18.97 -0.97,2.42 -2.67,4.57 -5.5,5.82" />
    <path
       style="stroke-width:3; stroke-linecap:round; stroke-miterlimit:4; stroke-dasharray:none; stroke:#CCCCCC"
       d="m 147.82,232.49 -1.99,-0.17 m 2.77,-79.66 v 0 l 221.84,-0.67 c 5.24,0 10.37,0.51 15.32,1.5 35.97,7.12 63.08,38.84 63.08,76.9 0,21.65 -8.78,41.25 -22.96,55.44 -14.19,14.19 -33.79,22.96 -55.44,22.96 H 160.79" />
    <path
       d="m 347.42,170.75 h 22.07 c 5.45,0 10.88,0.81 16.06,2.51 12.81,4.19 32.18,15.05 31.84,42.39 M 315.07,170.75 H 332 M 106.97,337.43 H 72.13 m 368.58,0 H 122.3 m 193.87,22.58 h 31.25 m -198.26,0 h 150.51"
       style="stroke-width:3; stroke-linecap:round; stroke-miterlimit:4; stroke-dasharray:none; stroke:#E6E6E6" />
  </g>
</svg>
