<?xml version="1.0" encoding="UTF-8"?>
<!DOCTYPE svg PUBLIC "-//W3C//DTD SVG 1.1//EN" "http://www.w3.org/Graphics/SVG/1.1/DTD/svg11.dtd">
<!-- Creator: CorelDRAW -->
<svg xmlns="http://www.w3.org/2000/svg" xml:space="preserve" width="205mm" height="105mm" style="shape-rendering:geometricPrecision; text-rendering:geometricPrecision; image-rendering:optimizeQuality; fill-rule:evenodd; clip-rule:evenodd"
viewBox="0 0 205 105"
 xmlns:xlink="http://www.w3.org/1999/xlink">
 <defs>
  <style type="text/css">
   <![CDATA[
    .str0 {stroke:#1F1A17;stroke-width:0.0762}
    .fil0 {fill:#1F1A17}
   ]]>
  </style>
 </defs>
 <g id="Layer_x0020_1">
  <metadata id="CorelCorpID_0Corel-Layer"/>
  <path class="fil0 str0" d="M51.3428 16.3468c7.6616,-5.3205 13.5143,-8.9386 17.5578,-10.854 5.3205,-2.4473 10.8009,-3.6712 16.4406,-3.6712 5.7462,0 12.6097,1.3301 20.5906,3.9905l-8.6193 -0.6385c-7.0232,0 -13.9398,2.0219 -20.7502,6.0654 -0.9578,0.532 -5.5335,3.5647 -13.7271,9.0982 -7.1297,4.895 -13.1417,8.4597 -18.0367,10.6943 -4.895,2.2347 -9.2047,3.352 -12.929,3.352 -5.9589,0 -11.5191,-0.9844 -16.68,-2.9529 -5.1608,-1.9685 -9.3906,-4.496 -12.6895,-7.5818l0.7981 -0.3193c5.5335,2.6604 8.5128,4.097 8.9385,4.3097 3.0859,1.2769 6.0655,1.9154 8.9386,1.9154 3.6181,0 7.8212,-1.0108 12.6097,-3.0327 4.7885,-2.0219 10.6412,-5.4801 17.5579,-10.3751zm33.3599 8.6193c-26.1772,14.0463 -44.9589,21.0694 -56.3448,21.0694 -5.5334,0 -12.2374,-1.1704 -20.1117,-3.5116 2.6604,2.022 6.5176,3.9107 11.5722,5.6664 5.0547,1.7558 9.923,2.6337 14.605,2.6337 8.0873,0 15.749,-1.3036 22.9848,-3.9106 7.2359,-2.607 20.1649,-8.8056 38.7869,-18.5954 11.8117,-6.1719 21.8408,-10.6676 30.0878,-13.4876 8.247,-2.82 15.2434,-4.2298 20.9896,-4.2298 15.004,0 27.5073,4.682 37.51,14.0463 9.4705,8.9385 14.2059,19.4201 14.2059,31.4445 0,12.8758 -5.4801,23.6764 -16.4405,32.4022 -10.4282,8.3001 -22.6656,12.4501 -36.7119,12.4501 -8.0874,0 -16.334,-1.1173 -24.7406,-3.3519 -9.6836,-2.5539 -18.8879,-6.4378 -27.6138,-11.6521 6.3847,5.1078 14.2591,9.0982 23.6233,11.9713 7.5551,2.3411 16.5471,4.0969 26.9753,5.2674 16.1744,0 29.7953,-4.2566 40.8619,-12.7694 11.7052,-9.0451 17.5579,-20.9098 17.5579,-35.5946 0,-13.6205 -5.5068,-25.6716 -16.5204,-36.1532 -11.0135,-10.4816 -23.4903,-15.7222 -37.4301,-15.7222l-7.1828 0.4788c-6.7039,0.532 -14.7114,2.5806 -24.0223,6.1453 -9.3109,3.5646 -20.1916,8.6991 -32.6417,15.403zm91.3009 19.4732c-6.4912,-4.2565 -12.7427,-7.369 -18.755,-9.3375 -6.0123,-1.9685 -11.8384,-2.9529 -17.478,-2.9529 -5.959,0 -11.6788,0.8511 -17.1589,2.5538 -5.48,1.7027 -11.4126,4.1501 -17.7973,7.3424 -1.5961,0.745 -7.3423,3.9373 -17.2386,9.577 -18.7283,10.6412 -33.7857,15.9617 -45.1716,15.9617 -5.9589,0 -11.9712,-1.2769 -18.0367,-3.8308l-2.075 0c3.5116,2.0219 7.6883,3.8575 12.5299,5.5068 4.8416,1.6492 9.0184,2.474 12.53,2.474 5.6396,0 11.9712,-1.0108 18.9944,-3.0327 9.8962,-2.8731 20.4309,-7.6085 31.6041,-14.2059 10.4282,-6.1719 18.9413,-10.5347 25.5387,-13.0886 7.7682,-2.9796 15.1105,-4.4692 22.0272,-4.4692 8.7258,0 18.3028,2.5007 28.731,7.5019l1.7558 0z"/>
 </g>
</svg>
