<svg xmlns="http://www.w3.org/2000/svg" viewBox="0 0 100 125" xmlns:v="https://vecta.io/nano"><path fill-rule="evenodd" d="M12.868 15.125A7.87 7.87 0 0 0 5 22.993a7.87 7.87 0 0 0 7.868 7.868 7.87 7.87 0 0 0 7.868-7.868 7.87 7.87 0 0 0-7.868-7.868zm0 13.45c-3.083 0-5.582-2.499-5.582-5.582s2.499-5.582 5.582-5.582 5.582 2.499 5.582 5.582-2.499 5.582-5.582 5.582zm14.62-6.704v2.26H95v-2.26H27.488zm0 29.267H95v-2.26H27.488v2.26zm-14.62-9.006A7.87 7.87 0 0 0 5 50a7.87 7.87 0 0 0 7.868 7.868A7.87 7.87 0 0 0 20.736 50a7.87 7.87 0 0 0-7.868-7.868zm0 13.45c-3.083 0-5.582-2.499-5.582-5.582s2.499-5.582 5.582-5.582S18.45 46.917 18.45 50s-2.499 5.582-5.582 5.582zm14.62 22.563H95v-2.26H27.488v2.26zm-14.62-9.006A7.87 7.87 0 0 0 5 77.007a7.87 7.87 0 0 0 7.868 7.868 7.87 7.87 0 0 0 7.868-7.868 7.87 7.87 0 0 0-7.868-7.868zm0 13.45c-3.083 0-5.582-2.499-5.582-5.582s2.499-5.582 5.582-5.582 5.582 2.499 5.582 5.582-2.499 5.582-5.582 5.582z"/></svg>